<svg xmlns="http://www.w3.org/2000/svg" xmlns:v="https://svgstorm.com"
viewBox = "0 0 512 512"
width="512"
height="512">
<g fill="None" fill-opacity="0.0" stroke="#000000" stroke-opacity="0.00" stroke-width="0.3"><path d="
M 0.00 233.00 
C 1.18 223.86 3.19 213.18 4.93 203.93 C 6.66 194.68 9.63 184.79 11.98 175.98 C 14.32 167.16 19.20 160.04 21.77 151.77 C 24.34 143.50 30.65 136.02 33.30 128.30 C 35.96 120.59 46.13 114.65 47.00 107.00
C 28.22 70.25 80.56 21.25 116.00 41.00
C 123.08 40.19 128.02 31.51 135.23 29.23 C 142.44 26.95 149.54 21.66 157.08 19.08 C 164.61 16.49 171.91 13.18 180.02 11.02 C 188.14 8.87 196.64 5.84 205.22 4.22 C 213.80 2.60 224.78 1.85 233.00 0.00
L 0.00 0.00
L 0.00 233.00 Z"/>
</g>
<g fill="None" fill-opacity="0.0" stroke="#8BC852" stroke-opacity="0.98" stroke-width="0.3"><path d="
M 116.00 41.00 
C 119.21 42.79 121.71 47.09 125.25 48.75 C 128.78 50.41 131.44 55.48 134.75 57.25 C 138.07 59.02 140.07 66.33 143.00 67.00
C 214.19 18.66 309.75 18.62 381.00 67.00
C 380.75 63.29 388.31 58.88 390.75 55.75 C 393.19 52.62 398.99 47.62 402.00 45.00
C 365.71 19.20 322.56 4.91 279.00 0.00
L 249.00 0.00
C 246.72 1.54 241.21 1.72 239.00 0.00
L 233.00 0.00
C 224.78 1.85 213.80 2.60 205.22 4.22 C 196.64 5.84 188.14 8.87 180.02 11.02 C 171.91 13.18 164.61 16.49 157.08 19.08 C 149.54 21.66 142.44 26.95 135.23 29.23 C 128.02 31.51 123.08 40.19 116.00 41.00 Z"/>
</g>
<g fill="None" fill-opacity="0.0" stroke="#8AC751" stroke-opacity="0.70" stroke-width="0.3"><path d="
M 249.00 0.00 
L 239.00 0.00
C 241.21 1.72 246.72 1.54 249.00 0.00 Z"/>
</g>
<g fill="None" fill-opacity="0.0" stroke="#000000" stroke-opacity="0.00" stroke-width="0.3"><path d="
M 402.00 45.00 
C 440.69 11.28 503.59 77.86 471.00 116.00
C 494.44 150.92 507.28 191.84 512.00 233.00
L 512.00 0.00
L 279.00 0.00
C 322.56 4.91 365.71 19.20 402.00 45.00 Z"/>
</g>
<g fill="None" fill-opacity="0.0" stroke="#ECECEC" stroke-opacity="1.00" stroke-width="0.3"><path d="
M 143.00 67.00 
C 136.25 71.59 129.38 77.55 123.00 83.00
C 111.56 92.78 100.10 104.59 91.00 116.00
C 85.45 122.97 79.48 130.61 75.00 138.00
C 52.19 175.61 40.00 217.03 40.00 262.00
C 40.00 262.50 40.00 263.00 40.00 263.00
C 41.18 270.20 41.62 278.96 43.00 286.00 C 44.38 293.04 46.80 300.29 49.31 306.69 C 51.81 313.10 54.83 319.11 58.25 324.75 C 61.67 330.38 64.98 336.01 69.30 340.70 C 73.63 345.38 77.52 349.77 82.25 353.75 C 86.97 357.73 92.91 361.94 98.08 364.92 C 103.26 367.90 109.66 373.46 115.23 374.77 C 120.80 376.08 129.07 383.77 134.00 383.00
C 145.08 365.82 159.69 349.83 173.00 334.00
C 159.71 338.64 159.11 321.77 170.00 324.00 C 180.89 326.23 187.20 321.54 194.23 316.23 C 201.26 310.92 205.38 306.69 212.25 302.25 C 219.11 297.80 224.38 294.35 231.23 290.23 C 238.08 286.11 245.08 282.93 252.23 279.23 C 259.38 275.53 267.55 272.98 275.00 270.00
C 269.73 264.73 266.38 255.39 261.00 251.00
C 258.60 257.72 253.54 265.04 247.75 269.75 C 241.96 274.46 234.63 281.54 226.98 281.98 C 219.32 282.41 206.40 291.62 199.25 282.75 C 192.11 273.87 208.48 267.88 216.02 269.02 C 223.57 270.17 233.00 263.13 238.25 258.25 C 243.49 253.37 250.33 244.92 249.00 238.00
C 242.03 234.32 237.93 227.09 234.70 220.30 C 231.46 213.52 224.50 206.22 223.00 199.00
C 220.31 207.98 207.53 212.49 201.75 219.75 C 195.98 227.01 187.04 234.18 180.25 241.25 C 173.46 248.32 165.93 255.92 159.25 263.25 C 152.56 270.58 145.26 277.85 137.75 284.75 C 130.25 291.65 119.69 298.60 109.00 299.00 C 98.30 299.39 87.79 292.58 80.75 284.25 C 73.72 275.91 68.77 267.02 65.68 256.32 C 62.58 245.62 61.01 229.30 63.00 218.00 C 64.99 206.70 68.84 196.35 73.31 186.31 C 77.77 176.26 83.47 168.65 90.25 160.25 C 97.03 151.85 103.48 145.55 112.08 139.08 C 120.69 132.61 128.86 127.51 139.08 123.08 C 149.29 118.64 162.13 115.73 173.67 114.67 C 185.21 113.61 199.79 115.56 210.22 119.78 C 220.66 123.99 228.39 128.56 236.25 136.75 C 244.11 144.95 249.44 156.57 246.00 168.00
C 255.67 168.00 265.33 168.00 275.00 168.00
C 275.50 168.00 276.54 167.87 277.00 168.00
C 279.69 166.29 275.38 153.27 279.31 149.31 C 283.24 145.34 284.45 139.06 289.25 135.25 C 294.05 131.44 297.64 128.01 303.08 125.08 C 308.51 122.14 313.36 119.20 319.68 117.68 C 325.99 116.16 332.39 114.96 339.22 114.22 C 346.05 113.48 354.30 114.81 361.01 115.99 C 367.71 117.17 373.46 118.62 380.02 120.98 C 386.59 123.33 389.40 125.31 396.23 128.77 C 403.06 132.23 402.83 132.92 410.75 138.25 C 418.68 143.58 428.79 153.67 434.75 161.25 C 440.72 168.83 440.85 168.66 444.77 175.23 C 448.69 181.80 450.29 184.62 452.92 191.08 C 455.56 197.53 457.52 202.24 458.93 209.07 C 460.33 215.91 461.77 221.53 461.99 229.01 C 462.21 236.49 461.85 243.11 460.00 251.00 C 458.15 258.89 457.97 259.65 453.68 268.68 C 449.39 277.70 440.02 289.05 431.25 294.25 C 422.49 299.46 420.91 299.15 413.00 299.00 C 405.09 298.85 401.82 295.36 395.92 292.08 C 390.02 288.80 387.93 285.69 382.75 281.25 C 377.57 276.81 376.50 274.33 370.75 269.25 C 365.00 264.17 365.88 263.71 359.25 256.75 C 352.61 249.80 342.39 240.19 335.75 233.25 C 329.12 226.31 328.40 226.94 323.75 221.25 C 319.10 215.55 314.66 214.81 311.25 209.75 C 307.83 204.69 300.85 203.00 299.00 198.00
C 298.21 205.70 292.26 213.04 288.69 219.70 C 285.13 226.35 281.04 234.48 274.00 238.00
C 271.94 243.73 281.70 255.07 286.25 258.75 C 290.80 262.43 301.18 271.60 308.67 269.33 C 316.17 267.06 332.03 276.06 324.23 283.23 C 316.43 290.40 303.25 284.45 296.00 282.00
C 288.94 282.46 282.39 289.23 275.77 291.77 C 269.15 294.31 263.09 299.12 256.92 302.92 C 250.75 306.72 245.48 310.72 239.75 315.75 C 234.03 320.78 226.60 324.64 229.00 335.00 C 231.41 345.36 215.40 348.46 219.00 334.00
C 199.79 351.17 184.11 371.21 172.00 393.00
C 178.43 390.70 186.60 397.57 194.02 396.98 C 201.44 396.38 210.63 399.44 218.67 399.33 C 226.71 399.22 235.58 400.81 244.00 401.00 C 252.42 401.19 262.40 400.68 271.00 401.00 C 279.60 401.32 288.66 400.42 297.00 400.00 C 305.34 399.58 313.94 398.72 322.00 398.00 C 330.06 397.28 337.54 395.27 345.22 394.22 C 352.90 393.17 360.11 391.13 367.22 389.22 C 374.34 387.32 381.47 385.74 388.07 383.07 C 394.67 380.41 401.00 378.16 407.23 375.23 C 413.46 372.30 418.96 369.11 424.70 365.70 C 430.44 362.29 435.14 358.50 440.25 354.25 C 445.36 350.00 449.78 346.15 453.92 340.92 C 458.06 335.68 461.94 331.16 465.30 325.30 C 468.67 319.45 472.08 314.04 474.31 307.31 C 476.53 300.57 479.19 294.10 480.78 286.78 C 482.36 279.45 483.00 269.91 483.00 262.00
C 483.00 215.76 471.80 176.45 448.00 138.00
C 443.37 130.51 438.58 122.86 433.00 116.00
C 423.76 104.64 412.21 92.67 401.00 83.00
C 394.66 77.53 387.68 71.54 381.00 67.00
C 309.75 18.62 214.19 18.66 143.00 67.00 Z"/>
</g>
<g fill="None" fill-opacity="0.0" stroke="#2F373B" stroke-opacity="0.98" stroke-width="0.3"><path d="
M 47.00 107.00 
C 49.75 112.39 56.65 118.04 59.75 123.25 C 62.85 128.46 74.39 132.37 75.00 138.00
C 79.48 130.61 85.45 122.97 91.00 116.00
C 85.17 118.63 77.92 106.18 74.69 100.31 C 71.47 94.43 73.88 81.01 80.75 75.75 C 87.63 70.49 95.07 63.22 104.22 66.78 C 113.37 70.34 117.94 75.24 123.00 83.00
C 129.38 77.55 136.25 71.59 143.00 67.00
C 140.07 66.33 138.07 59.02 134.75 57.25 C 131.44 55.48 128.78 50.41 125.25 48.75 C 121.71 47.09 119.21 42.79 116.00 41.00
C 80.56 21.25 28.22 70.25 47.00 107.00 Z"/>
</g>
<g fill="None" fill-opacity="0.0" stroke="#2F373B" stroke-opacity="0.98" stroke-width="0.3"><path d="
M 402.00 45.00 
C 398.99 47.62 393.19 52.62 390.75 55.75 C 388.31 58.88 380.75 63.29 381.00 67.00
C 387.68 71.54 394.66 77.53 401.00 83.00
C 400.25 78.18 410.43 72.69 414.08 69.08 C 417.73 65.47 430.24 65.08 435.22 68.78 C 440.20 72.48 445.66 77.65 448.92 83.08 C 452.19 88.50 451.08 100.09 447.23 104.23 C 443.38 108.36 438.42 118.17 433.00 116.00
C 438.58 122.86 443.37 130.51 448.00 138.00
C 456.11 131.36 464.30 123.84 471.00 116.00
C 503.59 77.86 440.69 11.28 402.00 45.00 Z"/>
</g>
<g fill="None" fill-opacity="0.0" stroke="#181E21" stroke-opacity="1.00" stroke-width="0.3"><path d="
M 91.00 116.00 
C 100.10 104.59 111.56 92.78 123.00 83.00
C 117.94 75.24 113.37 70.34 104.22 66.78 C 95.07 63.22 87.63 70.49 80.75 75.75 C 73.88 81.01 71.47 94.43 74.69 100.31 C 77.92 106.18 85.17 118.63 91.00 116.00 Z"/>
</g>
<g fill="None" fill-opacity="0.0" stroke="#181E21" stroke-opacity="1.00" stroke-width="0.3"><path d="
M 401.00 83.00 
C 412.21 92.67 423.76 104.64 433.00 116.00
C 438.42 118.17 443.38 108.36 447.23 104.23 C 451.08 100.09 452.19 88.50 448.92 83.08 C 445.66 77.65 440.20 72.48 435.22 68.78 C 430.24 65.08 417.73 65.47 414.08 69.08 C 410.43 72.69 400.25 78.18 401.00 83.00 Z"/>
</g>
<g fill="None" fill-opacity="0.0" stroke="#8BC752" stroke-opacity="0.98" stroke-width="0.3"><path d="
M 0.00 233.00 
L 0.00 279.00
C 1.21 286.22 2.68 294.50 4.00 302.00
C 5.31 297.26 13.14 293.41 15.75 288.75 C 18.37 284.09 23.44 279.17 27.00 275.00
C 30.27 271.17 35.31 263.96 40.00 262.00
C 40.00 217.03 52.19 175.61 75.00 138.00
C 74.39 132.37 62.85 128.46 59.75 123.25 C 56.65 118.04 49.75 112.39 47.00 107.00
C 46.13 114.65 35.96 120.59 33.30 128.30 C 30.65 136.02 24.34 143.50 21.77 151.77 C 19.20 160.04 14.32 167.16 11.98 175.98 C 9.63 184.79 6.66 194.68 4.93 203.93 C 3.19 213.18 1.18 223.86 0.00 233.00 Z"/>
</g>
<g fill="None" fill-opacity="0.0" stroke="#545F63" stroke-opacity="1.00" stroke-width="0.3"><path d="
M 223.00 199.00 
C 220.73 188.05 226.60 177.08 236.25 171.25 C 245.89 165.41 264.94 172.28 275.00 168.00
C 265.33 168.00 255.67 168.00 246.00 168.00
C 249.44 156.57 244.11 144.95 236.25 136.75 C 228.39 128.56 220.66 123.99 210.22 119.78 C 199.79 115.56 185.21 113.61 173.67 114.67 C 162.13 115.73 149.29 118.64 139.08 123.08 C 128.86 127.51 120.69 132.61 112.08 139.08 C 103.48 145.55 97.03 151.85 90.25 160.25 C 83.47 168.65 77.77 176.26 73.31 186.31 C 68.84 196.35 64.99 206.70 63.00 218.00 C 61.01 229.30 62.58 245.62 65.68 256.32 C 68.77 267.02 73.72 275.91 80.75 284.25 C 87.79 292.58 98.30 299.39 109.00 299.00 C 119.69 298.60 130.25 291.65 137.75 284.75 C 145.26 277.85 152.56 270.58 159.25 263.25 C 165.93 255.92 173.46 248.32 180.25 241.25 C 187.04 234.18 195.98 227.01 201.75 219.75 C 207.53 212.49 220.31 207.98 223.00 199.00
M 189.00 214.00 
C 172.15 216.25 158.08 203.75 158.00 187.00 C 157.92 170.25 172.79 157.26 190.00 160.00
C 219.25 164.65 218.21 210.11 189.00 214.00 Z"/>
</g>
<g fill="None" fill-opacity="0.0" stroke="#545F63" stroke-opacity="1.00" stroke-width="0.3"><path d="
M 277.00 168.00 
C 291.19 172.08 300.69 181.54 299.00 198.00
C 300.85 203.00 307.83 204.69 311.25 209.75 C 314.66 214.81 319.10 215.55 323.75 221.25 C 328.40 226.94 329.12 226.31 335.75 233.25 C 342.39 240.19 352.61 249.80 359.25 256.75 C 365.88 263.71 365.00 264.17 370.75 269.25 C 376.50 274.33 377.57 276.81 382.75 281.25 C 387.93 285.69 390.02 288.80 395.92 292.08 C 401.82 295.36 405.09 298.85 413.00 299.00 C 420.91 299.15 422.49 299.46 431.25 294.25 C 440.02 289.05 449.39 277.70 453.68 268.68 C 457.97 259.65 458.15 258.89 460.00 251.00 C 461.85 243.11 462.21 236.49 461.99 229.01 C 461.77 221.53 460.33 215.91 458.93 209.07 C 457.52 202.24 455.56 197.53 452.92 191.08 C 450.29 184.62 448.69 181.80 444.77 175.23 C 440.85 168.66 440.72 168.83 434.75 161.25 C 428.79 153.67 418.68 143.58 410.75 138.25 C 402.83 132.92 403.06 132.23 396.23 128.77 C 389.40 125.31 386.59 123.33 380.02 120.98 C 373.46 118.62 367.71 117.17 361.01 115.99 C 354.30 114.81 346.05 113.48 339.22 114.22 C 332.39 114.96 325.99 116.16 319.68 117.68 C 313.36 119.20 308.51 122.14 303.08 125.08 C 297.64 128.01 294.05 131.44 289.25 135.25 C 284.45 139.06 283.24 145.34 279.31 149.31 C 275.38 153.27 279.69 166.29 277.00 168.00
M 344.00 214.00 
C 327.25 216.66 311.90 203.79 312.00 187.00 C 312.10 170.21 326.97 157.62 344.00 160.00
C 373.16 164.07 372.63 209.44 344.00 214.00 Z"/>
</g>
<g fill="None" fill-opacity="0.0" stroke="#8BC753" stroke-opacity="0.98" stroke-width="0.3"><path d="
M 448.00 138.00 
C 471.80 176.45 483.00 215.76 483.00 262.00
C 484.84 266.99 494.63 270.04 496.75 275.25 C 498.88 280.45 508.36 284.13 510.00 289.00
C 510.42 285.96 510.93 281.54 512.00 279.00
L 512.00 233.00
C 507.28 191.84 494.44 150.92 471.00 116.00
C 464.30 123.84 456.11 131.36 448.00 138.00 Z"/>
</g>
<g fill="None" fill-opacity="0.0" stroke="#191F22" stroke-opacity="1.00" stroke-width="0.3"><path d="
M 189.00 214.00 
C 178.63 209.74 170.94 197.56 171.00 187.00 C 171.06 176.44 178.64 161.19 190.00 160.00
C 172.79 157.26 157.92 170.25 158.00 187.00 C 158.08 203.75 172.15 216.25 189.00 214.00 Z"/>
</g>
<g fill="None" fill-opacity="0.0" stroke="#30383C" stroke-opacity="1.00" stroke-width="0.3"><path d="
M 189.00 214.00 
C 218.21 210.11 219.25 164.65 190.00 160.00
C 178.64 161.19 171.06 176.44 171.00 187.00 C 170.94 197.56 178.63 209.74 189.00 214.00
M 201.00 171.00 
C 214.02 174.95 206.64 198.85 192.78 193.22 C 178.92 187.59 185.19 166.20 201.00 171.00 Z"/>
</g>
<g fill="None" fill-opacity="0.0" stroke="#191F22" stroke-opacity="1.00" stroke-width="0.3"><path d="
M 344.00 214.00 
C 333.03 212.85 325.01 196.68 325.00 187.00 C 324.99 177.32 332.82 161.25 344.00 160.00
C 326.97 157.62 312.10 170.21 312.00 187.00 C 311.90 203.79 327.25 216.66 344.00 214.00 Z"/>
</g>
<g fill="None" fill-opacity="0.0" stroke="#30383C" stroke-opacity="1.00" stroke-width="0.3"><path d="
M 344.00 214.00 
C 372.63 209.44 373.16 164.07 344.00 160.00
C 332.82 161.25 324.99 177.32 325.00 187.00 C 325.01 196.68 333.03 212.85 344.00 214.00
M 355.00 171.00 
C 368.47 175.09 360.93 198.58 346.93 193.07 C 332.93 187.57 339.78 166.38 355.00 171.00 Z"/>
</g>
<g fill="None" fill-opacity="0.0" stroke="#2F373B" stroke-opacity="1.00" stroke-width="0.3"><path d="
M 223.00 199.00 
C 224.50 206.22 231.46 213.52 234.70 220.30 C 237.93 227.09 242.03 234.32 249.00 238.00
C 256.80 242.12 266.17 241.92 274.00 238.00
C 281.04 234.48 285.13 226.35 288.69 219.70 C 292.26 213.04 298.21 205.70 299.00 198.00
C 300.69 181.54 291.19 172.08 277.00 168.00
C 276.54 167.87 275.50 168.00 275.00 168.00
C 264.94 172.28 245.89 165.41 236.25 171.25 C 226.60 177.08 220.73 188.05 223.00 199.00 Z"/>
</g>
<g fill="None" fill-opacity="0.0" stroke="#F8F8F9" stroke-opacity="1.00" stroke-width="0.3"><path d="
M 201.00 171.00 
C 185.19 166.20 178.92 187.59 192.78 193.22 C 206.64 198.85 214.02 174.95 201.00 171.00 Z"/>
</g>
<g fill="None" fill-opacity="0.0" stroke="#F9F9F9" stroke-opacity="1.00" stroke-width="0.3"><path d="
M 355.00 171.00 
C 339.78 166.38 332.93 187.57 346.93 193.07 C 360.93 198.58 368.47 175.09 355.00 171.00 Z"/>
</g>
<g fill="None" fill-opacity="0.0" stroke="#D1D1D1" stroke-opacity="1.00" stroke-width="0.3"><path d="
M 275.00 270.00 
C 279.66 274.66 289.92 279.95 296.00 282.00
C 303.25 284.45 316.43 290.40 324.23 283.23 C 332.03 276.06 316.17 267.06 308.67 269.33 C 301.18 271.60 290.80 262.43 286.25 258.75 C 281.70 255.07 271.94 243.73 274.00 238.00
C 266.17 241.92 256.80 242.12 249.00 238.00
C 250.33 244.92 243.49 253.37 238.25 258.25 C 233.00 263.13 223.57 270.17 216.02 269.02 C 208.48 267.88 192.11 273.87 199.25 282.75 C 206.40 291.62 219.32 282.41 226.98 281.98 C 234.63 281.54 241.96 274.46 247.75 269.75 C 253.54 265.04 258.60 257.72 261.00 251.00
C 266.38 255.39 269.73 264.73 275.00 270.00 Z"/>
</g>
<g fill="None" fill-opacity="0.0" stroke="#6C984A" stroke-opacity="1.00" stroke-width="0.3"><path d="
M 27.00 275.00 
C 30.93 271.07 35.48 266.15 40.00 263.00
C 40.00 263.00 40.00 262.50 40.00 262.00
C 35.31 263.96 30.27 271.17 27.00 275.00 Z"/>
</g>
<g fill="None" fill-opacity="0.0" stroke="#2F373B" stroke-opacity="0.99" stroke-width="0.3"><path d="
M 172.00 393.00 
C 169.31 397.63 165.37 411.67 157.99 410.99 C 150.62 410.32 158.92 393.94 161.00 390.00
C 155.98 391.79 149.73 386.41 145.00 386.00
C 140.59 393.04 135.49 399.22 132.23 407.23 C 128.97 415.24 123.20 421.60 121.68 430.68 C 120.15 439.75 104.67 444.54 111.31 429.31 C 117.94 414.07 124.92 397.08 134.00 383.00
C 129.07 383.77 120.80 376.08 115.23 374.77 C 109.66 373.46 103.26 367.90 98.08 364.92 C 92.91 361.94 86.97 357.73 82.25 353.75 C 77.52 349.77 73.63 345.38 69.30 340.70 C 64.98 336.01 61.67 330.38 58.25 324.75 C 54.83 319.11 51.81 313.10 49.31 306.69 C 46.80 300.29 44.38 293.04 43.00 286.00 C 41.62 278.96 41.18 270.20 40.00 263.00
C 35.48 266.15 30.93 271.07 27.00 275.00
C 23.44 279.17 18.37 284.09 15.75 288.75 C 13.14 293.41 5.31 297.26 4.00 302.00
C 23.45 412.62 121.17 504.40 234.00 512.00
L 260.00 512.00
C 261.96 510.48 267.11 510.28 269.00 512.00
L 275.00 512.00
C 334.11 507.77 389.60 482.55 433.25 441.25 C 476.90 399.95 501.88 347.11 510.00 289.00
C 508.36 284.13 498.88 280.45 496.75 275.25 C 494.63 270.04 484.84 266.99 483.00 262.00
C 483.00 269.91 482.36 279.45 480.78 286.78 C 479.19 294.10 476.53 300.57 474.31 307.31 C 472.08 314.04 468.67 319.45 465.30 325.30 C 461.94 331.16 458.06 335.68 453.92 340.92 C 449.78 346.15 445.36 350.00 440.25 354.25 C 435.14 358.50 430.44 362.29 424.70 365.70 C 418.96 369.11 413.46 372.30 407.23 375.23 C 401.00 378.16 394.67 380.41 388.07 383.07 C 381.47 385.74 374.34 387.32 367.22 389.22 C 360.11 391.13 352.90 393.17 345.22 394.22 C 337.54 395.27 330.06 397.28 322.00 398.00 C 313.94 398.72 305.34 399.58 297.00 400.00 C 288.66 400.42 279.60 401.32 271.00 401.00 C 262.40 400.68 252.42 401.19 244.00 401.00 C 235.58 400.81 226.71 399.22 218.67 399.33 C 210.63 399.44 201.44 396.38 194.02 396.98 C 186.60 397.57 178.43 390.70 172.00 393.00 Z"/>
</g>
<g fill="None" fill-opacity="0.0" stroke="#6CB083" stroke-opacity="1.00" stroke-width="0.3"><path d="
M 134.00 383.00 
C 124.92 397.08 117.94 414.07 111.31 429.31 C 104.67 444.54 120.15 439.75 121.68 430.68 C 123.20 421.60 128.97 415.24 132.23 407.23 C 135.49 399.22 140.59 393.04 145.00 386.00
C 173.56 340.35 218.51 304.60 267.00 284.00
C 225.39 309.27 185.80 347.02 161.00 390.00
C 158.92 393.94 150.62 410.32 157.99 410.99 C 165.37 411.67 169.31 397.63 172.00 393.00
C 184.11 371.21 199.79 351.17 219.00 334.00
C 215.40 348.46 231.41 345.36 229.00 335.00 C 226.60 324.64 234.03 320.78 239.75 315.75 C 245.48 310.72 250.75 306.72 256.92 302.92 C 263.09 299.12 269.15 294.31 275.77 291.77 C 282.39 289.23 288.94 282.46 296.00 282.00
C 289.92 279.95 279.66 274.66 275.00 270.00
C 267.55 272.98 259.38 275.53 252.23 279.23 C 245.08 282.93 238.08 286.11 231.23 290.23 C 224.38 294.35 219.11 297.80 212.25 302.25 C 205.38 306.69 201.26 310.92 194.23 316.23 C 187.20 321.54 180.89 326.23 170.00 324.00 C 159.11 321.77 159.71 338.64 173.00 334.00
C 159.69 349.83 145.08 365.82 134.00 383.00 Z"/>
</g>
<g fill="None" fill-opacity="0.0" stroke="#000000" stroke-opacity="0.00" stroke-width="0.3"><path d="
M 0.00 512.00 
L 234.00 512.00
C 121.17 504.40 23.45 412.62 4.00 302.00
C 2.68 294.50 1.21 286.22 0.00 279.00
L 0.00 512.00 Z"/>
</g>
<g fill="None" fill-opacity="0.0" stroke="#000000" stroke-opacity="0.00" stroke-width="0.3"><path d="
M 510.00 289.00 
C 501.88 347.11 476.90 399.95 433.25 441.25 C 389.60 482.55 334.11 507.77 275.00 512.00
L 512.00 512.00
L 512.00 279.00
C 510.93 281.54 510.42 285.96 510.00 289.00 Z"/>
</g>
<g fill="None" fill-opacity="0.0" stroke="#E7E7E6" stroke-opacity="1.00" stroke-width="0.3"><path d="
M 145.00 386.00 
C 149.73 386.41 155.98 391.79 161.00 390.00
C 185.80 347.02 225.39 309.27 267.00 284.00
C 218.51 304.60 173.56 340.35 145.00 386.00 Z"/>
</g>
<g fill="None" fill-opacity="0.0" stroke="#2E373A" stroke-opacity="0.80" stroke-width="0.3"><path d="
M 260.00 512.00 
L 269.00 512.00
C 267.11 510.28 261.96 510.48 260.00 512.00 Z"/>
</g>
<g fill="#000000" fill-opacity="0.00" stroke="None">
<path d="
M 0.00 233.00 
C 1.18 223.86 3.19 213.18 4.93 203.93 C 6.66 194.68 9.63 184.79 11.98 175.98 C 14.32 167.16 19.20 160.04 21.77 151.77 C 24.34 143.50 30.65 136.02 33.30 128.30 C 35.96 120.59 46.13 114.65 47.00 107.00
C 28.22 70.25 80.56 21.25 116.00 41.00
C 123.08 40.19 128.02 31.51 135.23 29.23 C 142.44 26.95 149.54 21.66 157.08 19.08 C 164.61 16.49 171.91 13.18 180.02 11.02 C 188.14 8.87 196.64 5.84 205.22 4.22 C 213.80 2.60 224.78 1.85 233.00 0.00
L 0.00 0.00
L 0.00 233.00 Z"/>
</g>
<g fill="#8BC852" fill-opacity="0.98" stroke="None">
<path d="
M 116.00 41.00 
C 119.21 42.79 121.71 47.09 125.25 48.75 C 128.78 50.41 131.44 55.48 134.75 57.25 C 138.07 59.02 140.07 66.33 143.00 67.00
C 214.19 18.66 309.75 18.62 381.00 67.00
C 380.75 63.29 388.31 58.88 390.75 55.75 C 393.19 52.62 398.99 47.62 402.00 45.00
C 365.71 19.20 322.56 4.91 279.00 0.00
L 249.00 0.00
C 246.72 1.54 241.21 1.72 239.00 0.00
L 233.00 0.00
C 224.78 1.85 213.80 2.60 205.22 4.22 C 196.64 5.84 188.14 8.87 180.02 11.02 C 171.91 13.18 164.61 16.49 157.08 19.08 C 149.54 21.66 142.44 26.95 135.23 29.23 C 128.02 31.51 123.08 40.19 116.00 41.00 Z"/>
</g>
<g fill="#8AC751" fill-opacity="0.70" stroke="None">
<path d="
M 249.00 0.00 
L 239.00 0.00
C 241.21 1.72 246.72 1.54 249.00 0.00 Z"/>
</g>
<g fill="#000000" fill-opacity="0.00" stroke="None">
<path d="
M 402.00 45.00 
C 440.69 11.28 503.59 77.86 471.00 116.00
C 494.44 150.92 507.28 191.84 512.00 233.00
L 512.00 0.00
L 279.00 0.00
C 322.56 4.91 365.71 19.20 402.00 45.00 Z"/>
</g>
<g fill="#ECECEC" fill-opacity="1.00" stroke="None">
<path d="
M 143.00 67.00 
C 136.25 71.59 129.38 77.55 123.00 83.00
C 111.56 92.78 100.10 104.59 91.00 116.00
C 85.45 122.97 79.48 130.61 75.00 138.00
C 52.19 175.61 40.00 217.03 40.00 262.00
C 40.00 262.50 40.00 263.00 40.00 263.00
C 41.18 270.20 41.62 278.96 43.00 286.00 C 44.38 293.04 46.80 300.29 49.31 306.69 C 51.81 313.10 54.83 319.11 58.25 324.75 C 61.67 330.38 64.98 336.01 69.30 340.70 C 73.63 345.38 77.52 349.77 82.25 353.75 C 86.97 357.73 92.91 361.94 98.08 364.92 C 103.26 367.90 109.66 373.46 115.23 374.77 C 120.80 376.08 129.07 383.77 134.00 383.00
C 145.08 365.82 159.69 349.83 173.00 334.00
C 159.71 338.64 159.11 321.77 170.00 324.00 C 180.89 326.23 187.20 321.54 194.23 316.23 C 201.26 310.92 205.38 306.69 212.25 302.25 C 219.11 297.80 224.38 294.35 231.23 290.23 C 238.08 286.11 245.08 282.93 252.23 279.23 C 259.38 275.53 267.55 272.98 275.00 270.00
C 269.73 264.73 266.38 255.39 261.00 251.00
C 258.60 257.72 253.54 265.04 247.75 269.75 C 241.96 274.46 234.63 281.54 226.98 281.98 C 219.32 282.41 206.40 291.62 199.25 282.75 C 192.11 273.87 208.48 267.88 216.02 269.02 C 223.57 270.17 233.00 263.13 238.25 258.25 C 243.49 253.37 250.33 244.92 249.00 238.00
C 242.03 234.32 237.93 227.09 234.70 220.30 C 231.46 213.52 224.50 206.22 223.00 199.00
C 220.31 207.98 207.53 212.49 201.75 219.75 C 195.98 227.01 187.04 234.18 180.25 241.25 C 173.46 248.32 165.93 255.92 159.25 263.25 C 152.56 270.58 145.26 277.85 137.75 284.75 C 130.25 291.65 119.69 298.60 109.00 299.00 C 98.30 299.39 87.79 292.58 80.75 284.25 C 73.72 275.91 68.77 267.02 65.68 256.32 C 62.58 245.62 61.01 229.30 63.00 218.00 C 64.99 206.70 68.84 196.35 73.31 186.31 C 77.77 176.26 83.47 168.65 90.25 160.25 C 97.03 151.85 103.48 145.55 112.08 139.08 C 120.69 132.61 128.86 127.51 139.08 123.08 C 149.29 118.64 162.13 115.73 173.67 114.67 C 185.21 113.61 199.79 115.56 210.22 119.78 C 220.66 123.99 228.39 128.56 236.25 136.75 C 244.11 144.95 249.44 156.57 246.00 168.00
C 255.67 168.00 265.33 168.00 275.00 168.00
C 275.50 168.00 276.54 167.87 277.00 168.00
C 279.69 166.29 275.38 153.27 279.31 149.31 C 283.24 145.34 284.45 139.06 289.25 135.25 C 294.05 131.44 297.64 128.01 303.08 125.08 C 308.51 122.14 313.36 119.20 319.68 117.68 C 325.99 116.16 332.39 114.96 339.22 114.22 C 346.05 113.48 354.30 114.81 361.01 115.99 C 367.71 117.17 373.46 118.62 380.02 120.98 C 386.59 123.33 389.40 125.31 396.23 128.77 C 403.06 132.23 402.83 132.92 410.75 138.25 C 418.68 143.58 428.79 153.67 434.75 161.25 C 440.72 168.83 440.85 168.66 444.77 175.23 C 448.69 181.80 450.29 184.62 452.92 191.08 C 455.56 197.53 457.52 202.24 458.93 209.07 C 460.33 215.91 461.77 221.53 461.99 229.01 C 462.21 236.49 461.85 243.11 460.00 251.00 C 458.15 258.89 457.97 259.65 453.68 268.68 C 449.39 277.70 440.02 289.05 431.25 294.25 C 422.49 299.46 420.91 299.15 413.00 299.00 C 405.09 298.85 401.82 295.36 395.92 292.08 C 390.02 288.80 387.93 285.69 382.75 281.25 C 377.57 276.81 376.50 274.33 370.75 269.25 C 365.00 264.17 365.88 263.71 359.25 256.75 C 352.61 249.80 342.39 240.19 335.75 233.25 C 329.12 226.31 328.40 226.94 323.75 221.25 C 319.10 215.55 314.66 214.81 311.25 209.75 C 307.83 204.69 300.85 203.00 299.00 198.00
C 298.21 205.70 292.26 213.04 288.69 219.70 C 285.13 226.35 281.04 234.48 274.00 238.00
C 271.94 243.73 281.70 255.07 286.25 258.75 C 290.80 262.43 301.18 271.60 308.67 269.33 C 316.17 267.06 332.03 276.06 324.23 283.23 C 316.43 290.40 303.25 284.45 296.00 282.00
C 288.94 282.46 282.39 289.23 275.77 291.77 C 269.15 294.31 263.09 299.12 256.92 302.92 C 250.75 306.72 245.48 310.72 239.75 315.75 C 234.03 320.78 226.60 324.64 229.00 335.00 C 231.41 345.36 215.40 348.46 219.00 334.00
C 199.79 351.17 184.11 371.21 172.00 393.00
C 178.43 390.70 186.60 397.57 194.02 396.98 C 201.44 396.38 210.63 399.44 218.67 399.33 C 226.71 399.22 235.58 400.81 244.00 401.00 C 252.42 401.19 262.40 400.68 271.00 401.00 C 279.60 401.32 288.66 400.42 297.00 400.00 C 305.34 399.58 313.94 398.72 322.00 398.00 C 330.06 397.28 337.54 395.27 345.22 394.22 C 352.90 393.17 360.11 391.13 367.22 389.22 C 374.34 387.32 381.47 385.74 388.07 383.07 C 394.67 380.41 401.00 378.16 407.23 375.23 C 413.46 372.30 418.96 369.11 424.70 365.70 C 430.44 362.29 435.14 358.50 440.25 354.25 C 445.36 350.00 449.78 346.15 453.92 340.92 C 458.06 335.68 461.94 331.16 465.30 325.30 C 468.67 319.45 472.08 314.04 474.31 307.31 C 476.53 300.57 479.19 294.10 480.78 286.78 C 482.36 279.45 483.00 269.91 483.00 262.00
C 483.00 215.76 471.80 176.45 448.00 138.00
C 443.37 130.51 438.58 122.86 433.00 116.00
C 423.76 104.64 412.21 92.67 401.00 83.00
C 394.66 77.53 387.68 71.54 381.00 67.00
C 309.75 18.62 214.19 18.66 143.00 67.00 Z"/>
</g>
<g fill="#2F373B" fill-opacity="0.98" stroke="None">
<path d="
M 47.00 107.00 
C 49.75 112.39 56.65 118.04 59.75 123.25 C 62.85 128.46 74.39 132.37 75.00 138.00
C 79.48 130.61 85.45 122.97 91.00 116.00
C 85.17 118.63 77.92 106.18 74.69 100.31 C 71.47 94.43 73.88 81.01 80.75 75.75 C 87.63 70.49 95.07 63.22 104.22 66.78 C 113.37 70.34 117.94 75.24 123.00 83.00
C 129.38 77.55 136.25 71.59 143.00 67.00
C 140.07 66.33 138.07 59.02 134.75 57.25 C 131.44 55.48 128.78 50.41 125.25 48.75 C 121.71 47.09 119.21 42.79 116.00 41.00
C 80.56 21.25 28.22 70.25 47.00 107.00 Z"/>
</g>
<g fill="#2F373B" fill-opacity="0.98" stroke="None">
<path d="
M 402.00 45.00 
C 398.99 47.62 393.19 52.62 390.75 55.75 C 388.31 58.88 380.75 63.29 381.00 67.00
C 387.68 71.54 394.66 77.53 401.00 83.00
C 400.25 78.18 410.43 72.69 414.08 69.08 C 417.73 65.47 430.24 65.08 435.22 68.78 C 440.20 72.48 445.66 77.65 448.92 83.08 C 452.19 88.50 451.08 100.09 447.23 104.23 C 443.38 108.36 438.42 118.17 433.00 116.00
C 438.58 122.86 443.37 130.51 448.00 138.00
C 456.11 131.36 464.30 123.84 471.00 116.00
C 503.59 77.86 440.69 11.28 402.00 45.00 Z"/>
</g>
<g fill="#181E21" fill-opacity="1.00" stroke="None">
<path d="
M 91.00 116.00 
C 100.10 104.59 111.56 92.78 123.00 83.00
C 117.94 75.24 113.37 70.34 104.22 66.78 C 95.07 63.22 87.63 70.49 80.75 75.75 C 73.88 81.01 71.47 94.43 74.69 100.31 C 77.92 106.18 85.17 118.63 91.00 116.00 Z"/>
</g>
<g fill="#181E21" fill-opacity="1.00" stroke="None">
<path d="
M 401.00 83.00 
C 412.21 92.67 423.76 104.64 433.00 116.00
C 438.42 118.17 443.38 108.36 447.23 104.23 C 451.08 100.09 452.19 88.50 448.92 83.08 C 445.66 77.65 440.20 72.48 435.22 68.78 C 430.24 65.08 417.73 65.47 414.08 69.08 C 410.43 72.69 400.25 78.18 401.00 83.00 Z"/>
</g>
<g fill="#8BC752" fill-opacity="0.98" stroke="None">
<path d="
M 0.00 233.00 
L 0.00 279.00
C 1.21 286.22 2.68 294.50 4.00 302.00
C 5.31 297.26 13.14 293.41 15.75 288.75 C 18.37 284.09 23.44 279.17 27.00 275.00
C 30.27 271.17 35.31 263.96 40.00 262.00
C 40.00 217.03 52.19 175.61 75.00 138.00
C 74.39 132.37 62.85 128.46 59.75 123.25 C 56.65 118.04 49.75 112.39 47.00 107.00
C 46.13 114.65 35.96 120.59 33.30 128.30 C 30.65 136.02 24.34 143.50 21.77 151.77 C 19.20 160.04 14.32 167.16 11.98 175.98 C 9.63 184.79 6.66 194.68 4.93 203.93 C 3.19 213.18 1.18 223.86 0.00 233.00 Z"/>
</g>
<g fill="#545F63" fill-opacity="1.00" stroke="None">
<path d="
M 223.00 199.00 
C 220.73 188.05 226.60 177.08 236.25 171.25 C 245.89 165.41 264.94 172.28 275.00 168.00
C 265.33 168.00 255.67 168.00 246.00 168.00
C 249.44 156.57 244.11 144.95 236.25 136.75 C 228.39 128.56 220.66 123.99 210.22 119.78 C 199.79 115.56 185.21 113.61 173.67 114.67 C 162.13 115.73 149.29 118.64 139.08 123.08 C 128.86 127.51 120.69 132.61 112.08 139.08 C 103.48 145.55 97.03 151.85 90.25 160.25 C 83.47 168.65 77.77 176.26 73.31 186.31 C 68.84 196.35 64.99 206.70 63.00 218.00 C 61.01 229.30 62.58 245.62 65.68 256.32 C 68.77 267.02 73.72 275.91 80.75 284.25 C 87.79 292.58 98.30 299.39 109.00 299.00 C 119.69 298.60 130.25 291.65 137.75 284.75 C 145.26 277.85 152.56 270.58 159.25 263.25 C 165.93 255.92 173.46 248.32 180.25 241.25 C 187.04 234.18 195.98 227.01 201.75 219.75 C 207.53 212.49 220.31 207.98 223.00 199.00
M 189.00 214.00 
C 172.15 216.25 158.08 203.75 158.00 187.00 C 157.92 170.25 172.79 157.26 190.00 160.00
C 219.25 164.65 218.21 210.11 189.00 214.00 Z"/>
</g>
<g fill="#545F63" fill-opacity="1.00" stroke="None">
<path d="
M 277.00 168.00 
C 291.19 172.08 300.69 181.54 299.00 198.00
C 300.85 203.00 307.83 204.69 311.25 209.75 C 314.66 214.81 319.10 215.55 323.75 221.25 C 328.40 226.94 329.12 226.31 335.75 233.25 C 342.39 240.19 352.61 249.80 359.25 256.75 C 365.88 263.71 365.00 264.17 370.75 269.25 C 376.50 274.33 377.57 276.81 382.75 281.25 C 387.93 285.69 390.02 288.80 395.92 292.08 C 401.82 295.36 405.09 298.85 413.00 299.00 C 420.91 299.15 422.49 299.46 431.25 294.25 C 440.02 289.05 449.39 277.70 453.68 268.68 C 457.97 259.65 458.15 258.89 460.00 251.00 C 461.85 243.11 462.21 236.49 461.99 229.01 C 461.77 221.53 460.33 215.91 458.93 209.07 C 457.52 202.24 455.56 197.53 452.92 191.08 C 450.29 184.62 448.69 181.80 444.77 175.23 C 440.85 168.66 440.72 168.83 434.75 161.25 C 428.79 153.67 418.68 143.58 410.75 138.25 C 402.83 132.92 403.06 132.23 396.23 128.77 C 389.40 125.31 386.59 123.33 380.02 120.98 C 373.46 118.62 367.71 117.17 361.01 115.99 C 354.30 114.81 346.05 113.48 339.22 114.22 C 332.39 114.96 325.99 116.16 319.68 117.68 C 313.36 119.20 308.51 122.14 303.08 125.08 C 297.64 128.01 294.05 131.44 289.25 135.25 C 284.45 139.06 283.24 145.34 279.31 149.31 C 275.38 153.27 279.69 166.29 277.00 168.00
M 344.00 214.00 
C 327.25 216.66 311.90 203.79 312.00 187.00 C 312.10 170.21 326.97 157.62 344.00 160.00
C 373.16 164.07 372.63 209.44 344.00 214.00 Z"/>
</g>
<g fill="#8BC753" fill-opacity="0.98" stroke="None">
<path d="
M 448.00 138.00 
C 471.80 176.45 483.00 215.76 483.00 262.00
C 484.84 266.99 494.63 270.04 496.75 275.25 C 498.88 280.45 508.36 284.13 510.00 289.00
C 510.42 285.96 510.93 281.54 512.00 279.00
L 512.00 233.00
C 507.28 191.84 494.44 150.92 471.00 116.00
C 464.30 123.84 456.11 131.36 448.00 138.00 Z"/>
</g>
<g fill="#191F22" fill-opacity="1.00" stroke="None">
<path d="
M 189.00 214.00 
C 178.63 209.74 170.94 197.56 171.00 187.00 C 171.06 176.44 178.64 161.19 190.00 160.00
C 172.79 157.26 157.92 170.25 158.00 187.00 C 158.08 203.75 172.15 216.25 189.00 214.00 Z"/>
</g>
<g fill="#30383C" fill-opacity="1.00" stroke="None">
<path d="
M 189.00 214.00 
C 218.21 210.11 219.25 164.65 190.00 160.00
C 178.64 161.19 171.06 176.44 171.00 187.00 C 170.94 197.56 178.63 209.74 189.00 214.00
M 201.00 171.00 
C 214.02 174.95 206.64 198.85 192.78 193.22 C 178.92 187.59 185.19 166.20 201.00 171.00 Z"/>
</g>
<g fill="#191F22" fill-opacity="1.00" stroke="None">
<path d="
M 344.00 214.00 
C 333.03 212.85 325.01 196.68 325.00 187.00 C 324.99 177.32 332.82 161.25 344.00 160.00
C 326.97 157.62 312.10 170.21 312.00 187.00 C 311.90 203.79 327.25 216.66 344.00 214.00 Z"/>
</g>
<g fill="#30383C" fill-opacity="1.00" stroke="None">
<path d="
M 344.00 214.00 
C 372.63 209.44 373.16 164.07 344.00 160.00
C 332.82 161.25 324.99 177.32 325.00 187.00 C 325.01 196.68 333.03 212.85 344.00 214.00
M 355.00 171.00 
C 368.47 175.09 360.93 198.58 346.93 193.07 C 332.93 187.57 339.78 166.38 355.00 171.00 Z"/>
</g>
<g fill="#2F373B" fill-opacity="1.00" stroke="None">
<path d="
M 223.00 199.00 
C 224.50 206.22 231.46 213.52 234.70 220.30 C 237.93 227.09 242.03 234.32 249.00 238.00
C 256.80 242.12 266.17 241.92 274.00 238.00
C 281.04 234.48 285.13 226.35 288.69 219.70 C 292.26 213.04 298.21 205.70 299.00 198.00
C 300.69 181.54 291.19 172.08 277.00 168.00
C 276.54 167.87 275.50 168.00 275.00 168.00
C 264.94 172.28 245.89 165.41 236.25 171.25 C 226.60 177.08 220.73 188.05 223.00 199.00 Z"/>
</g>
<g fill="#F8F8F9" fill-opacity="1.00" stroke="None">
<path d="
M 201.00 171.00 
C 185.19 166.20 178.92 187.59 192.78 193.22 C 206.64 198.85 214.02 174.95 201.00 171.00 Z"/>
</g>
<g fill="#F9F9F9" fill-opacity="1.00" stroke="None">
<path d="
M 355.00 171.00 
C 339.78 166.38 332.93 187.57 346.93 193.07 C 360.93 198.58 368.47 175.09 355.00 171.00 Z"/>
</g>
<g fill="#D1D1D1" fill-opacity="1.00" stroke="None">
<path d="
M 275.00 270.00 
C 279.66 274.66 289.92 279.95 296.00 282.00
C 303.25 284.45 316.43 290.40 324.23 283.23 C 332.03 276.06 316.17 267.06 308.67 269.33 C 301.18 271.60 290.80 262.43 286.25 258.75 C 281.70 255.07 271.94 243.73 274.00 238.00
C 266.17 241.92 256.80 242.12 249.00 238.00
C 250.33 244.92 243.49 253.37 238.25 258.25 C 233.00 263.13 223.57 270.17 216.02 269.02 C 208.48 267.88 192.11 273.87 199.25 282.75 C 206.40 291.62 219.32 282.41 226.98 281.98 C 234.63 281.54 241.96 274.46 247.75 269.75 C 253.54 265.04 258.60 257.72 261.00 251.00
C 266.38 255.39 269.73 264.73 275.00 270.00 Z"/>
</g>
<g fill="#6C984A" fill-opacity="1.00" stroke="None">
<path d="
M 27.00 275.00 
C 30.93 271.07 35.48 266.15 40.00 263.00
C 40.00 263.00 40.00 262.50 40.00 262.00
C 35.31 263.96 30.27 271.17 27.00 275.00 Z"/>
</g>
<g fill="#2F373B" fill-opacity="0.99" stroke="None">
<path d="
M 172.00 393.00 
C 169.31 397.63 165.37 411.67 157.99 410.99 C 150.62 410.32 158.92 393.94 161.00 390.00
C 155.98 391.79 149.73 386.41 145.00 386.00
C 140.59 393.04 135.49 399.22 132.23 407.23 C 128.97 415.24 123.20 421.60 121.68 430.68 C 120.15 439.75 104.67 444.54 111.31 429.31 C 117.94 414.07 124.92 397.08 134.00 383.00
C 129.07 383.77 120.80 376.08 115.23 374.77 C 109.66 373.46 103.26 367.90 98.08 364.92 C 92.91 361.94 86.97 357.73 82.25 353.75 C 77.52 349.77 73.63 345.38 69.30 340.70 C 64.98 336.01 61.67 330.38 58.25 324.75 C 54.83 319.11 51.81 313.10 49.31 306.69 C 46.80 300.29 44.38 293.04 43.00 286.00 C 41.62 278.96 41.18 270.20 40.00 263.00
C 35.48 266.15 30.93 271.07 27.00 275.00
C 23.44 279.17 18.37 284.09 15.75 288.75 C 13.14 293.41 5.31 297.26 4.00 302.00
C 23.45 412.62 121.17 504.40 234.00 512.00
L 260.00 512.00
C 261.96 510.48 267.11 510.28 269.00 512.00
L 275.00 512.00
C 334.11 507.77 389.60 482.55 433.25 441.25 C 476.90 399.95 501.88 347.11 510.00 289.00
C 508.36 284.13 498.88 280.45 496.75 275.25 C 494.63 270.04 484.84 266.99 483.00 262.00
C 483.00 269.91 482.36 279.45 480.78 286.78 C 479.19 294.10 476.53 300.57 474.31 307.31 C 472.08 314.04 468.67 319.45 465.30 325.30 C 461.94 331.16 458.06 335.68 453.92 340.92 C 449.78 346.15 445.36 350.00 440.25 354.25 C 435.14 358.50 430.44 362.29 424.70 365.70 C 418.96 369.11 413.46 372.30 407.23 375.23 C 401.00 378.16 394.67 380.41 388.07 383.07 C 381.47 385.74 374.34 387.32 367.22 389.22 C 360.11 391.13 352.90 393.17 345.22 394.22 C 337.54 395.27 330.06 397.28 322.00 398.00 C 313.94 398.72 305.34 399.58 297.00 400.00 C 288.66 400.42 279.60 401.32 271.00 401.00 C 262.40 400.68 252.42 401.19 244.00 401.00 C 235.58 400.81 226.71 399.22 218.67 399.33 C 210.63 399.44 201.44 396.38 194.02 396.98 C 186.60 397.57 178.43 390.70 172.00 393.00 Z"/>
</g>
<g fill="#6CB083" fill-opacity="1.00" stroke="None">
<path d="
M 134.00 383.00 
C 124.92 397.08 117.94 414.07 111.31 429.31 C 104.67 444.54 120.15 439.75 121.68 430.68 C 123.20 421.60 128.97 415.24 132.23 407.23 C 135.49 399.22 140.59 393.04 145.00 386.00
C 173.56 340.35 218.51 304.60 267.00 284.00
C 225.39 309.27 185.80 347.02 161.00 390.00
C 158.92 393.94 150.62 410.32 157.99 410.99 C 165.37 411.67 169.31 397.63 172.00 393.00
C 184.11 371.21 199.79 351.17 219.00 334.00
C 215.40 348.46 231.41 345.36 229.00 335.00 C 226.60 324.64 234.03 320.78 239.75 315.75 C 245.48 310.72 250.75 306.72 256.92 302.92 C 263.09 299.12 269.15 294.31 275.77 291.77 C 282.39 289.23 288.94 282.46 296.00 282.00
C 289.92 279.95 279.66 274.66 275.00 270.00
C 267.55 272.98 259.38 275.53 252.23 279.23 C 245.08 282.93 238.08 286.11 231.23 290.23 C 224.38 294.35 219.11 297.80 212.25 302.25 C 205.38 306.69 201.26 310.92 194.23 316.23 C 187.20 321.54 180.89 326.23 170.00 324.00 C 159.11 321.77 159.71 338.64 173.00 334.00
C 159.69 349.83 145.08 365.82 134.00 383.00 Z"/>
</g>
<g fill="#000000" fill-opacity="0.00" stroke="None">
<path d="
M 0.00 512.00 
L 234.00 512.00
C 121.17 504.40 23.45 412.62 4.00 302.00
C 2.68 294.50 1.21 286.22 0.00 279.00
L 0.00 512.00 Z"/>
</g>
<g fill="#000000" fill-opacity="0.00" stroke="None">
<path d="
M 510.00 289.00 
C 501.88 347.11 476.90 399.95 433.25 441.25 C 389.60 482.55 334.11 507.77 275.00 512.00
L 512.00 512.00
L 512.00 279.00
C 510.93 281.54 510.42 285.96 510.00 289.00 Z"/>
</g>
<g fill="#E7E7E6" fill-opacity="1.00" stroke="None">
<path d="
M 145.00 386.00 
C 149.73 386.41 155.98 391.79 161.00 390.00
C 185.80 347.02 225.39 309.27 267.00 284.00
C 218.51 304.60 173.56 340.35 145.00 386.00 Z"/>
</g>
<g fill="#2E373A" fill-opacity="0.80" stroke="None">
<path d="
M 260.00 512.00 
L 269.00 512.00
C 267.11 510.28 261.96 510.48 260.00 512.00 Z"/>
</g>
</svg>