<svg xmlns="http://www.w3.org/2000/svg" xmlns:v="https://svgstorm.com"
viewBox = "0 0 512 512"
width="512"
height="512">
<g fill="None" fill-opacity="0.0" stroke="#000000" stroke-opacity="0.00" stroke-width="0.3"><path d="
M 0.00 512.00 
L 512.00 512.00
L 512.00 0.00
L 0.00 0.00
L 0.00 512.00
M 379.00 239.00 
C 388.47 216.58 425.81 191.48 441.92 219.08 C 458.02 246.68 441.88 277.67 426.75 300.75 C 411.62 323.84 384.88 339.46 358.00 341.00
C 360.96 354.82 365.62 369.59 363.00 384.00
C 379.10 390.00 396.62 392.22 408.25 407.75 C 419.88 423.28 415.00 443.84 405.70 460.70 C 396.40 477.55 377.86 484.59 358.00 482.00 C 338.14 479.41 320.48 471.91 300.93 475.93 C 281.38 479.95 257.14 474.60 237.00 474.00 C 216.86 473.40 191.54 481.09 172.00 476.00 C 152.45 470.92 135.46 477.58 116.00 481.00 C 96.54 484.42 75.25 481.88 64.25 465.75 C 53.24 449.62 47.25 429.82 55.32 412.32 C 63.39 394.82 83.39 392.98 98.00 385.00
C 80.13 354.94 83.06 310.30 113.00 288.00
C 82.02 254.20 88.71 202.71 102.00 163.00
C 73.20 151.29 65.48 115.76 81.75 90.75 C 98.03 65.74 134.88 60.47 157.00 81.00
C 187.03 57.43 228.33 50.99 265.00 61.00
C 268.40 50.40 275.85 43.51 285.23 37.23 C 294.61 30.95 310.99 28.19 322.22 30.78 C 333.46 33.37 342.65 38.91 350.25 47.75 C 357.85 56.59 361.76 68.39 362.00 80.00 C 362.24 91.61 356.27 103.70 348.90 111.90 C 341.53 120.10 356.26 128.00 360.77 137.23 C 365.28 146.45 372.84 154.63 376.78 165.22 C 380.72 175.82 385.97 188.64 385.99 201.01 C 386.01 213.37 383.98 227.89 379.00 239.00
M 465.00 229.00 
C 470.64 230.73 467.80 244.59 468.00 250.00 C 468.20 255.41 465.42 265.07 464.22 271.22 C 463.02 277.37 460.82 283.91 458.22 290.22 C 455.63 296.54 453.47 299.05 450.23 306.23 C 446.99 313.40 437.57 310.01 442.25 303.25 C 446.93 296.50 447.45 292.95 450.77 286.77 C 454.09 280.59 454.65 274.62 456.78 268.78 C 458.91 262.94 458.64 251.16 459.00 246.00 C 459.36 240.84 456.98 226.53 465.00 229.00
M 486.00 251.00 
C 490.86 253.23 486.10 265.77 486.00 270.00 C 485.90 274.23 482.02 283.94 481.02 288.02 C 480.03 292.11 477.10 304.21 471.33 301.67 C 465.55 299.12 471.72 289.14 472.98 284.98 C 474.23 280.81 477.11 271.25 477.93 266.93 C 478.74 262.60 477.92 247.30 486.00 251.00 Z"/>
</g>
<g fill="None" fill-opacity="0.0" stroke="#261427" stroke-opacity="0.96" stroke-width="0.3"><path d="
M 379.00 239.00 
C 383.98 227.89 386.01 213.37 385.99 201.01 C 385.97 188.64 380.72 175.82 376.78 165.22 C 372.84 154.63 365.28 146.45 360.77 137.23 C 356.26 128.00 341.53 120.10 348.90 111.90 C 356.27 103.70 362.24 91.61 362.00 80.00 C 361.76 68.39 357.85 56.59 350.25 47.75 C 342.65 38.91 333.46 33.37 322.22 30.78 C 310.99 28.19 294.61 30.95 285.23 37.23 C 275.85 43.51 268.40 50.40 265.00 61.00
C 228.33 50.99 187.03 57.43 157.00 81.00
C 134.88 60.47 98.03 65.74 81.75 90.75 C 65.48 115.76 73.20 151.29 102.00 163.00
C 88.71 202.71 82.02 254.20 113.00 288.00
C 83.06 310.30 80.13 354.94 98.00 385.00
C 83.39 392.98 63.39 394.82 55.32 412.32 C 47.25 429.82 53.24 449.62 64.25 465.75 C 75.25 481.88 96.54 484.42 116.00 481.00 C 135.46 477.58 152.45 470.92 172.00 476.00 C 191.54 481.09 216.86 473.40 237.00 474.00 C 257.14 474.60 281.38 479.95 300.93 475.93 C 320.48 471.91 338.14 479.41 358.00 482.00 C 377.86 484.59 396.40 477.55 405.70 460.70 C 415.00 443.84 419.88 423.28 408.25 407.75 C 396.62 392.22 379.10 390.00 363.00 384.00
C 365.62 369.59 360.96 354.82 358.00 341.00
C 384.88 339.46 411.62 323.84 426.75 300.75 C 441.88 277.67 458.02 246.68 441.92 219.08 C 425.81 191.48 388.47 216.58 379.00 239.00
M 329.00 100.00 
C 316.11 88.08 300.24 76.54 285.00 69.00
C 281.19 67.12 276.17 66.12 272.00 65.00
C 280.52 39.62 313.33 30.38 335.08 44.92 C 356.83 59.46 360.60 92.39 340.00 110.00
C 335.52 108.43 332.14 103.49 329.00 100.00
M 322.00 104.00 
C 326.29 107.66 330.38 111.76 334.00 116.00
C 345.19 129.10 361.49 145.37 366.00 162.00
C 381.81 193.96 381.33 233.29 356.75 260.75 C 332.17 288.21 305.44 298.32 271.98 307.98 C 238.51 317.63 189.44 320.92 157.32 308.68 C 125.21 296.44 99.00 268.63 99.00 234.00
C 98.56 229.43 97.04 223.60 99.00 219.00
C 99.00 218.50 99.00 217.50 99.00 217.00
C 99.00 180.61 114.65 144.62 134.92 114.92 C 155.18 85.22 187.10 67.24 223.02 64.02 C 258.95 60.80 295.30 81.18 322.00 104.00
M 141.00 96.00 
C 127.68 109.32 119.28 125.80 111.00 142.00
C 108.87 146.17 106.68 150.37 106.00 155.00
C 80.98 147.58 74.30 115.49 87.92 94.92 C 101.55 74.36 132.05 69.63 151.00 86.00
C 148.13 89.64 144.64 93.23 141.00 96.00
M 399.00 317.00 
C 391.88 322.29 385.54 326.79 376.78 329.78 C 368.02 332.76 355.37 336.12 352.07 325.93 C 348.78 315.74 347.13 310.79 341.23 301.77 C 335.32 292.75 339.16 286.97 347.25 281.25 C 355.34 275.52 359.75 271.20 367.00 265.00
C 379.87 254.00 387.42 241.96 397.25 228.25 C 407.07 214.54 429.50 207.91 437.30 226.70 C 445.11 245.48 436.66 264.60 429.70 280.69 C 422.73 296.79 412.63 306.86 399.00 317.00
M 166.00 407.00 
C 156.64 405.19 164.35 421.56 170.00 421.00
C 125.49 421.00 81.90 368.79 98.00 324.00
C 101.74 312.48 107.88 299.20 120.00 294.00
C 125.03 300.52 130.92 302.83 137.70 307.30 C 144.47 311.78 155.54 313.12 154.00 323.00 C 152.46 332.88 154.39 343.50 155.99 352.01 C 157.59 360.51 163.37 365.29 168.75 371.25 C 174.13 377.21 178.86 381.01 183.75 387.25 C 188.65 393.49 193.86 401.95 189.00 410.00
C 182.42 411.70 179.78 395.03 174.26 400.26 C 168.73 405.48 180.03 413.97 184.00 416.00
C 177.91 423.37 170.41 411.03 166.00 407.00
M 351.00 348.00 
C 353.96 358.91 356.87 370.76 356.00 383.00
C 335.00 378.14 313.81 393.98 308.00 414.00
C 302.34 430.55 302.12 449.27 304.00 467.00
C 298.69 467.67 293.66 469.64 288.00 469.00
C 284.23 469.37 279.71 469.36 276.00 469.00
C 262.31 469.00 249.84 465.86 236.00 466.00 C 222.16 466.14 209.80 469.00 196.00 469.00
C 192.54 469.33 188.39 469.33 185.00 469.00
C 177.13 469.00 170.14 467.68 163.00 465.00
C 163.00 461.67 163.00 458.33 163.00 455.00
C 163.00 450.00 163.00 445.00 163.00 440.00
C 163.00 436.22 163.31 432.45 162.00 429.00
C 170.23 429.74 177.93 428.46 185.00 425.00
C 197.70 417.46 201.15 400.07 193.69 388.31 C 186.24 376.54 175.45 370.43 168.00 359.00
C 164.93 354.28 162.05 347.93 162.01 341.99 C 161.97 336.06 158.41 325.88 161.00 320.00
C 162.52 316.55 176.61 321.37 183.00 322.00 C 189.39 322.63 201.88 324.67 210.00 324.00 C 218.12 323.33 229.10 323.98 237.07 322.07 C 245.05 320.17 254.22 319.98 262.01 318.01 C 269.80 316.04 277.53 314.05 285.07 312.07 C 292.62 310.09 299.06 306.39 306.23 304.23 C 313.40 302.06 318.89 296.70 326.00 295.00
C 333.78 293.14 336.78 311.57 340.92 318.08 C 345.07 324.58 348.85 340.06 351.00 348.00
M 403.00 414.00 
C 414.92 431.92 401.49 460.89 385.00 471.00
C 377.93 475.33 366.55 474.57 358.00 474.00 C 349.45 473.43 339.38 471.54 331.33 469.67 C 323.28 467.81 310.60 468.68 311.00 459.00 C 311.40 449.32 310.38 437.75 312.00 429.00 C 313.61 420.24 314.76 413.42 319.31 406.31 C 323.85 399.19 328.61 395.42 336.08 392.08 C 343.55 388.73 355.47 389.63 363.07 391.93 C 370.68 394.23 378.46 396.88 385.23 400.77 C 392.00 404.66 398.51 407.25 403.00 414.00
M 82.00 471.00 
C 65.20 461.23 52.53 433.02 63.00 415.00
C 71.28 400.76 90.42 397.00 104.00 392.00
C 109.06 397.78 113.55 402.29 119.25 407.75 C 124.94 413.21 131.22 416.70 138.23 420.77 C 145.24 424.84 155.67 424.84 155.00 435.00 C 154.33 445.16 158.11 454.96 155.00 465.00
C 132.01 470.11 105.37 479.15 82.00 471.00 Z"/>
</g>
<g fill="None" fill-opacity="0.0" stroke="#3B355E" stroke-opacity="1.00" stroke-width="0.3"><path d="
M 285.00 69.00 
C 288.55 67.75 289.78 60.21 294.75 58.75 C 299.71 57.28 304.08 53.13 310.02 53.02 C 315.96 52.92 321.61 53.85 326.70 57.31 C 331.78 60.76 332.44 64.18 335.92 69.08 C 339.41 73.98 336.69 81.77 337.22 87.22 C 337.76 92.67 329.00 95.94 329.00 100.00
C 332.14 103.49 335.52 108.43 340.00 110.00
C 360.60 92.39 356.83 59.46 335.08 44.92 C 313.33 30.38 280.52 39.62 272.00 65.00
C 276.17 66.12 281.19 67.12 285.00 69.00 Z"/>
</g>
<g fill="None" fill-opacity="0.0" stroke="#EFEEEF" stroke-opacity="1.00" stroke-width="0.3"><path d="
M 285.00 69.00 
C 300.24 76.54 316.11 88.08 329.00 100.00
C 329.00 95.94 337.76 92.67 337.22 87.22 C 336.69 81.77 339.41 73.98 335.92 69.08 C 332.44 64.18 331.78 60.76 326.70 57.31 C 321.61 53.85 315.96 52.92 310.02 53.02 C 304.08 53.13 299.71 57.28 294.75 58.75 C 289.78 60.21 288.55 67.75 285.00 69.00 Z"/>
</g>
<g fill="None" fill-opacity="0.0" stroke="#F0F0F0" stroke-opacity="1.00" stroke-width="0.3"><path d="
M 99.00 217.00 
C 105.76 258.63 140.06 288.71 183.02 292.98 C 225.99 297.24 278.23 287.69 316.08 267.08 C 353.92 246.47 377.63 204.89 366.00 162.00
C 361.49 145.37 345.19 129.10 334.00 116.00
C 330.08 112.08 325.87 107.87 322.00 104.00
C 295.30 81.18 258.95 60.80 223.02 64.02 C 187.10 67.24 155.18 85.22 134.92 114.92 C 114.65 144.62 99.00 180.61 99.00 217.00
M 308.00 118.00 
C 328.74 120.96 341.20 139.53 347.78 158.22 C 354.35 176.92 352.02 206.88 330.30 215.30 C 308.59 223.73 285.65 217.06 267.75 204.25 C 249.85 191.43 245.55 165.28 255.31 146.31 C 265.06 127.33 286.47 114.92 308.00 118.00
M 167.00 146.00 
C 190.45 149.35 219.01 175.59 212.00 202.00 C 204.99 228.41 187.09 246.12 158.99 250.99 C 130.90 255.87 111.46 221.49 114.00 195.00 C 116.54 168.51 136.02 141.58 167.00 146.00
M 223.00 249.00 
C 218.63 248.91 206.95 244.99 209.01 237.99 C 211.07 231.00 218.90 241.35 224.01 241.99 C 229.11 242.64 239.96 234.78 236.67 229.33 C 233.38 223.88 218.24 229.00 221.00 220.00 C 223.77 211.00 232.26 213.23 238.00 211.00 C 243.74 208.78 254.20 208.34 256.92 215.08 C 259.64 221.82 243.67 222.93 245.01 229.01 C 246.34 235.09 260.95 236.59 263.74 232.74 C 266.54 228.90 272.10 218.09 274.97 227.03 C 277.84 235.97 264.12 236.11 266.33 243.67 C 268.54 251.24 266.86 258.68 264.08 265.08 C 261.29 271.47 254.31 274.44 247.98 274.98 C 241.64 275.51 235.43 271.49 231.25 266.75 C 227.07 262.01 224.59 255.03 223.00 249.00 Z"/>
</g>
<g fill="None" fill-opacity="0.0" stroke="#3B355D" stroke-opacity="1.00" stroke-width="0.3"><path d="
M 111.00 142.00 
C 105.44 139.52 102.79 136.64 99.70 131.30 C 96.61 125.96 95.11 119.12 96.78 112.78 C 98.45 106.43 100.47 103.30 105.25 98.25 C 110.03 93.20 115.67 94.07 122.00 92.00 C 128.33 89.93 135.82 96.76 141.00 96.00
C 144.64 93.23 148.13 89.64 151.00 86.00
C 132.05 69.63 101.55 74.36 87.92 94.92 C 74.30 115.49 80.98 147.58 106.00 155.00
C 106.68 150.37 108.87 146.17 111.00 142.00 Z"/>
</g>
<g fill="None" fill-opacity="0.0" stroke="#EEEEEE" stroke-opacity="1.00" stroke-width="0.3"><path d="
M 111.00 142.00 
C 119.28 125.80 127.68 109.32 141.00 96.00
C 135.82 96.76 128.33 89.93 122.00 92.00 C 115.67 94.07 110.03 93.20 105.25 98.25 C 100.47 103.30 98.45 106.43 96.78 112.78 C 95.11 119.12 96.61 125.96 99.70 131.30 C 102.79 136.64 105.44 139.52 111.00 142.00 Z"/>
</g>
<g fill="None" fill-opacity="0.0" stroke="#817882" stroke-opacity="1.00" stroke-width="0.3"><path d="
M 334.00 116.00 
C 330.38 111.76 326.29 107.66 322.00 104.00
C 325.87 107.87 330.08 112.08 334.00 116.00 Z"/>
</g>
<g fill="None" fill-opacity="0.0" stroke="#3C365F" stroke-opacity="1.00" stroke-width="0.3"><path d="
M 308.00 118.00 
C 286.47 114.92 265.06 127.33 255.31 146.31 C 245.55 165.28 249.85 191.43 267.75 204.25 C 285.65 217.06 308.59 223.73 330.30 215.30 C 352.02 206.88 354.35 176.92 347.78 158.22 C 341.20 139.53 328.74 120.96 308.00 118.00
M 295.00 154.00 
C 324.69 160.15 312.68 210.62 282.33 201.67 C 251.98 192.72 263.19 147.41 295.00 154.00 Z"/>
</g>
<g fill="None" fill-opacity="0.0" stroke="#3C365F" stroke-opacity="1.00" stroke-width="0.3"><path d="
M 167.00 146.00 
C 136.02 141.58 116.54 168.51 114.00 195.00 C 111.46 221.49 130.90 255.87 158.99 250.99 C 187.09 246.12 204.99 228.41 212.00 202.00 C 219.01 175.59 190.45 149.35 167.00 146.00
M 180.00 176.00 
C 211.22 180.46 204.50 229.37 173.00 225.00 C 141.50 220.63 149.55 171.65 180.00 176.00 Z"/>
</g>
<g fill="None" fill-opacity="0.0" stroke="#EFEFF1" stroke-opacity="1.00" stroke-width="0.3"><path d="
M 295.00 154.00 
C 263.19 147.41 251.98 192.72 282.33 201.67 C 312.68 210.62 324.69 160.15 295.00 154.00
M 294.00 159.00 
C 317.37 163.84 306.50 204.78 282.78 196.22 C 259.06 187.66 269.01 153.82 294.00 159.00 Z"/>
</g>
<g fill="None" fill-opacity="0.0" stroke="#271528" stroke-opacity="1.00" stroke-width="0.3"><path d="
M 294.00 159.00 
C 269.01 153.82 259.06 187.66 282.78 196.22 C 306.50 204.78 317.37 163.84 294.00 159.00
M 298.00 168.00 
C 302.30 169.64 299.26 177.06 295.00 175.00 C 290.73 172.94 294.30 166.59 298.00 168.00
M 286.00 178.00 
C 292.18 180.01 287.95 191.95 281.33 188.67 C 274.70 185.38 279.30 175.82 286.00 178.00 Z"/>
</g>
<g fill="None" fill-opacity="0.0" stroke="#BAB9CD" stroke-opacity="1.00" stroke-width="0.3"><path d="
M 99.00 217.00 
C 99.00 217.50 99.00 218.50 99.00 219.00
C 99.00 224.00 99.00 229.00 99.00 234.00
C 99.00 268.63 125.21 296.44 157.32 308.68 C 189.44 320.92 238.51 317.63 271.98 307.98 C 305.44 298.32 332.17 288.21 356.75 260.75 C 381.33 233.29 381.81 193.96 366.00 162.00
C 377.63 204.89 353.92 246.47 316.08 267.08 C 278.23 287.69 225.99 297.24 183.02 292.98 C 140.06 288.71 105.76 258.63 99.00 217.00 Z"/>
</g>
<g fill="None" fill-opacity="0.0" stroke="#EDECED" stroke-opacity="1.00" stroke-width="0.3"><path d="
M 298.00 168.00 
C 294.30 166.59 290.73 172.94 295.00 175.00 C 299.26 177.06 302.30 169.64 298.00 168.00 Z"/>
</g>
<g fill="None" fill-opacity="0.0" stroke="#F0F0F2" stroke-opacity="1.00" stroke-width="0.3"><path d="
M 180.00 176.00 
C 149.55 171.65 141.50 220.63 173.00 225.00 C 204.50 229.37 211.22 180.46 180.00 176.00
M 179.00 181.00 
C 203.91 183.72 199.26 223.57 174.00 220.00 C 148.74 216.43 155.09 178.39 179.00 181.00 Z"/>
</g>
<g fill="None" fill-opacity="0.0" stroke="#F5F5F5" stroke-opacity="1.00" stroke-width="0.3"><path d="
M 286.00 178.00 
C 279.30 175.82 274.70 185.38 281.33 188.67 C 287.95 191.95 292.18 180.01 286.00 178.00 Z"/>
</g>
<g fill="None" fill-opacity="0.0" stroke="#281629" stroke-opacity="1.00" stroke-width="0.3"><path d="
M 179.00 181.00 
C 155.09 178.39 148.74 216.43 174.00 220.00 C 199.26 223.57 203.91 183.72 179.00 181.00
M 187.00 191.00 
C 190.87 192.49 188.08 199.71 183.99 197.99 C 179.90 196.27 182.18 189.14 187.00 191.00
M 175.00 201.00 
C 181.00 203.25 176.66 214.87 170.33 211.67 C 164.00 208.47 167.36 198.14 175.00 201.00 Z"/>
</g>
<g fill="None" fill-opacity="0.0" stroke="#EBE9EB" stroke-opacity="1.00" stroke-width="0.3"><path d="
M 187.00 191.00 
C 182.18 189.14 179.90 196.27 183.99 197.99 C 188.08 199.71 190.87 192.49 187.00 191.00 Z"/>
</g>
<g fill="None" fill-opacity="0.0" stroke="#F3F2F3" stroke-opacity="1.00" stroke-width="0.3"><path d="
M 175.00 201.00 
C 167.36 198.14 164.00 208.47 170.33 211.67 C 176.66 214.87 181.00 203.25 175.00 201.00 Z"/>
</g>
<g fill="None" fill-opacity="0.0" stroke="#291729" stroke-opacity="1.00" stroke-width="0.3"><path d="
M 223.00 249.00 
C 224.59 255.03 227.07 262.01 231.25 266.75 C 235.43 271.49 241.64 275.51 247.98 274.98 C 254.31 274.44 261.29 271.47 264.08 265.08 C 266.86 258.68 268.54 251.24 266.33 243.67 C 264.12 236.11 277.84 235.97 274.97 227.03 C 272.10 218.09 266.54 228.90 263.74 232.74 C 260.95 236.59 246.34 235.09 245.01 229.01 C 243.67 222.93 259.64 221.82 256.92 215.08 C 254.20 208.34 243.74 208.78 238.00 211.00 C 232.26 213.23 223.77 211.00 221.00 220.00 C 218.24 229.00 233.38 223.88 236.67 229.33 C 239.96 234.78 229.11 242.64 224.01 241.99 C 218.90 241.35 211.07 231.00 209.01 237.99 C 206.95 244.99 218.63 248.91 223.00 249.00
M 259.00 255.00 
C 256.46 270.61 242.56 269.25 235.00 258.00
C 233.06 255.12 230.18 252.24 231.00 248.00
C 236.32 248.07 239.83 242.60 243.00 239.00
C 247.86 241.84 253.17 243.46 259.00 243.00
C 259.28 246.69 261.53 251.84 259.00 255.00 Z"/>
</g>
<g fill="None" fill-opacity="0.0" stroke="#3B355E" stroke-opacity="1.00" stroke-width="0.3"><path d="
M 367.00 265.00 
C 350.42 287.07 371.77 322.24 399.00 317.00
C 412.63 306.86 422.73 296.79 429.70 280.69 C 436.66 264.60 445.11 245.48 437.30 226.70 C 429.50 207.91 407.07 214.54 397.25 228.25 C 387.42 241.96 379.87 254.00 367.00 265.00
M 412.00 223.00 
C 417.43 224.39 415.34 234.43 409.32 232.66 C 403.30 230.89 405.93 221.44 412.00 223.00
M 426.00 225.00 
C 431.01 227.24 427.30 237.01 421.78 234.22 C 416.25 231.42 420.46 222.53 426.00 225.00
M 434.00 236.00 
C 439.13 238.63 433.64 248.40 428.33 244.67 C 423.02 240.94 428.51 233.19 434.00 236.00
M 418.00 238.00 
C 428.46 241.86 420.95 261.96 409.93 256.07 C 398.91 250.18 405.87 233.52 418.00 238.00 Z"/>
</g>
<g fill="None" fill-opacity="0.0" stroke="#685E72" stroke-opacity="1.00" stroke-width="0.3"><path d="
M 99.00 234.00 
C 99.00 229.00 99.00 224.00 99.00 219.00
C 97.04 223.60 98.56 229.43 99.00 234.00 Z"/>
</g>
<g fill="None" fill-opacity="0.0" stroke="#E4E3E6" stroke-opacity="1.00" stroke-width="0.3"><path d="
M 412.00 223.00 
C 405.93 221.44 403.30 230.89 409.32 232.66 C 415.34 234.43 417.43 224.39 412.00 223.00 Z"/>
</g>
<g fill="None" fill-opacity="0.0" stroke="#E4E4E7" stroke-opacity="1.00" stroke-width="0.3"><path d="
M 426.00 225.00 
C 420.46 222.53 416.25 231.42 421.78 234.22 C 427.30 237.01 431.01 227.24 426.00 225.00 Z"/>
</g>
<g fill="None" fill-opacity="0.0" stroke="#251226" stroke-opacity="0.87" stroke-width="0.3"><path d="
M 465.00 229.00 
C 456.98 226.53 459.36 240.84 459.00 246.00 C 458.64 251.16 458.91 262.94 456.78 268.78 C 454.65 274.62 454.09 280.59 450.77 286.77 C 447.45 292.95 446.93 296.50 442.25 303.25 C 437.57 310.01 446.99 313.40 450.23 306.23 C 453.47 299.05 455.63 296.54 458.22 290.22 C 460.82 283.91 463.02 277.37 464.22 271.22 C 465.42 265.07 468.20 255.41 468.00 250.00 C 467.80 244.59 470.64 230.73 465.00 229.00 Z"/>
</g>
<g fill="None" fill-opacity="0.0" stroke="#E3E3E6" stroke-opacity="1.00" stroke-width="0.3"><path d="
M 434.00 236.00 
C 428.51 233.19 423.02 240.94 428.33 244.67 C 433.64 248.40 439.13 238.63 434.00 236.00 Z"/>
</g>
<g fill="None" fill-opacity="0.0" stroke="#ECECED" stroke-opacity="1.00" stroke-width="0.3"><path d="
M 418.00 238.00 
C 405.87 233.52 398.91 250.18 409.93 256.07 C 420.95 261.96 428.46 241.86 418.00 238.00 Z"/>
</g>
<g fill="None" fill-opacity="0.0" stroke="#A6093C" stroke-opacity="1.00" stroke-width="0.3"><path d="
M 235.00 258.00 
C 235.00 249.12 253.77 247.39 259.00 251.00
C 259.00 252.33 259.00 253.67 259.00 255.00
C 261.53 251.84 259.28 246.69 259.00 243.00
C 253.17 243.46 247.86 241.84 243.00 239.00
C 239.83 242.60 236.32 248.07 231.00 248.00
C 230.18 252.24 233.06 255.12 235.00 258.00 Z"/>
</g>
<g fill="None" fill-opacity="0.0" stroke="#E5315E" stroke-opacity="1.00" stroke-width="0.3"><path d="
M 235.00 258.00 
C 242.56 269.25 256.46 270.61 259.00 255.00
C 259.00 253.67 259.00 252.33 259.00 251.00
C 253.77 247.39 235.00 249.12 235.00 258.00 Z"/>
</g>
<g fill="None" fill-opacity="0.0" stroke="#251226" stroke-opacity="0.87" stroke-width="0.3"><path d="
M 486.00 251.00 
C 477.92 247.30 478.74 262.60 477.93 266.93 C 477.11 271.25 474.23 280.81 472.98 284.98 C 471.72 289.14 465.55 299.12 471.33 301.67 C 477.10 304.21 480.03 292.11 481.02 288.02 C 482.02 283.94 485.90 274.23 486.00 270.00 C 486.10 265.77 490.86 253.23 486.00 251.00 Z"/>
</g>
<g fill="None" fill-opacity="0.0" stroke="#2A2648" stroke-opacity="1.00" stroke-width="0.3"><path d="
M 399.00 317.00 
C 371.77 322.24 350.42 287.07 367.00 265.00
C 359.75 271.20 355.34 275.52 347.25 281.25 C 339.16 286.97 335.32 292.75 341.23 301.77 C 347.13 310.79 348.78 315.74 352.07 325.93 C 355.37 336.12 368.02 332.76 376.78 329.78 C 385.54 326.79 391.88 322.29 399.00 317.00 Z"/>
</g>
<g fill="None" fill-opacity="0.0" stroke="#3A345D" stroke-opacity="1.00" stroke-width="0.3"><path d="
M 98.00 324.00 
C 97.06 333.16 99.36 343.20 101.78 351.22 C 104.20 359.25 107.86 365.05 112.25 371.75 C 116.65 378.44 121.22 382.34 126.75 388.25 C 132.29 394.15 139.20 395.50 145.08 400.92 C 150.96 406.34 161.34 404.91 166.00 407.00
C 170.41 411.03 177.91 423.37 184.00 416.00
C 180.03 413.97 168.73 405.48 174.26 400.26 C 179.78 395.03 182.42 411.70 189.00 410.00
C 193.86 401.95 188.65 393.49 183.75 387.25 C 178.86 381.01 174.13 377.21 168.75 371.25 C 163.37 365.29 157.59 360.51 155.99 352.01 C 154.39 343.50 152.46 332.88 154.00 323.00 C 155.54 313.12 144.47 311.78 137.70 307.30 C 130.92 302.83 125.03 300.52 120.00 294.00
C 107.88 299.20 101.74 312.48 98.00 324.00 Z"/>
</g>
<g fill="None" fill-opacity="0.0" stroke="#3B355E" stroke-opacity="1.00" stroke-width="0.3"><path d="
M 326.00 295.00 
C 318.66 298.84 317.34 310.51 309.25 315.25 C 301.16 319.99 295.27 326.42 285.77 329.77 C 276.28 333.12 265.58 336.01 255.00 337.00 C 244.42 337.99 229.95 338.40 219.00 338.00 C 208.05 337.60 197.38 334.37 187.32 331.68 C 177.26 328.99 170.32 323.90 161.00 320.00
C 158.41 325.88 161.97 336.06 162.01 341.99 C 162.05 347.93 164.93 354.28 168.00 359.00
C 176.38 364.03 188.33 360.51 198.00 363.00 C 207.67 365.49 219.57 364.98 230.00 366.00 C 240.43 367.02 253.75 365.67 264.00 365.00 C 274.25 364.33 284.75 363.15 294.67 361.67 C 304.59 360.19 314.44 358.12 324.02 356.02 C 333.61 353.93 341.86 351.29 351.00 348.00
C 348.85 340.06 345.07 324.58 340.92 318.08 C 336.78 311.57 333.78 293.14 326.00 295.00 Z"/>
</g>
<g fill="None" fill-opacity="0.0" stroke="#2A2648" stroke-opacity="1.00" stroke-width="0.3"><path d="
M 161.00 320.00 
C 170.32 323.90 177.26 328.99 187.32 331.68 C 197.38 334.37 208.05 337.60 219.00 338.00 C 229.95 338.40 244.42 337.99 255.00 337.00 C 265.58 336.01 276.28 333.12 285.77 329.77 C 295.27 326.42 301.16 319.99 309.25 315.25 C 317.34 310.51 318.66 298.84 326.00 295.00
C 318.89 296.70 313.40 302.06 306.23 304.23 C 299.06 306.39 292.62 310.09 285.07 312.07 C 277.53 314.05 269.80 316.04 262.01 318.01 C 254.22 319.98 245.05 320.17 237.07 322.07 C 229.10 323.98 218.12 323.33 210.00 324.00 C 201.88 324.67 189.39 322.63 183.00 322.00 C 176.61 321.37 162.52 316.55 161.00 320.00 Z"/>
</g>
<g fill="None" fill-opacity="0.0" stroke="#2A2648" stroke-opacity="1.00" stroke-width="0.3"><path d="
M 166.00 407.00 
C 161.34 404.91 150.96 406.34 145.08 400.92 C 139.20 395.50 132.29 394.15 126.75 388.25 C 121.22 382.34 116.65 378.44 112.25 371.75 C 107.86 365.05 104.20 359.25 101.78 351.22 C 99.36 343.20 97.06 333.16 98.00 324.00
C 81.90 368.79 125.49 421.00 170.00 421.00
C 164.35 421.56 156.64 405.19 166.00 407.00 Z"/>
</g>
<g fill="None" fill-opacity="0.0" stroke="#F0F0F0" stroke-opacity="1.00" stroke-width="0.3"><path d="
M 168.00 359.00 
C 175.45 370.43 186.24 376.54 193.69 388.31 C 201.15 400.07 197.70 417.46 185.00 425.00
C 193.45 425.84 198.09 433.91 208.01 433.99 C 217.93 434.08 224.41 439.33 236.00 438.00 C 247.59 436.67 252.00 439.24 265.02 435.02 C 278.05 430.81 298.58 425.93 308.00 414.00
C 313.81 393.98 335.00 378.14 356.00 383.00
C 356.87 370.76 353.96 358.91 351.00 348.00
C 341.86 351.29 333.61 353.93 324.02 356.02 C 314.44 358.12 304.59 360.19 294.67 361.67 C 284.75 363.15 274.25 364.33 264.00 365.00 C 253.75 365.67 240.43 367.02 230.00 366.00 C 219.57 364.98 207.67 365.49 198.00 363.00 C 188.33 360.51 176.38 364.03 168.00 359.00 Z"/>
</g>
<g fill="None" fill-opacity="0.0" stroke="#373259" stroke-opacity="1.00" stroke-width="0.3"><path d="
M 385.00 471.00 
C 364.23 476.14 365.78 445.02 369.78 433.78 C 373.78 422.54 388.33 401.34 403.00 414.00
C 398.51 407.25 392.00 404.66 385.23 400.77 C 378.46 396.88 370.68 394.23 363.07 391.93 C 355.47 389.63 343.55 388.73 336.08 392.08 C 328.61 395.42 323.85 399.19 319.31 406.31 C 314.76 413.42 313.61 420.24 312.00 429.00 C 310.38 437.75 311.40 449.32 311.00 459.00 C 310.60 468.68 323.28 467.81 331.33 469.67 C 339.38 471.54 349.45 473.43 358.00 474.00 C 366.55 474.57 377.93 475.33 385.00 471.00 Z"/>
</g>
<g fill="None" fill-opacity="0.0" stroke="#373158" stroke-opacity="1.00" stroke-width="0.3"><path d="
M 63.00 415.00 
C 75.53 400.76 92.96 420.95 96.77 432.23 C 100.58 443.51 103.88 475.59 82.00 471.00
C 105.37 479.15 132.01 470.11 155.00 465.00
C 158.11 454.96 154.33 445.16 155.00 435.00 C 155.67 424.84 145.24 424.84 138.23 420.77 C 131.22 416.70 124.94 413.21 119.25 407.75 C 113.55 402.29 109.06 397.78 104.00 392.00
C 90.42 397.00 71.28 400.76 63.00 415.00 Z"/>
</g>
<g fill="None" fill-opacity="0.0" stroke="#EFEFEF" stroke-opacity="1.00" stroke-width="0.3"><path d="
M 63.00 415.00 
C 52.53 433.02 65.20 461.23 82.00 471.00
C 103.88 475.59 100.58 443.51 96.77 432.23 C 92.96 420.95 75.53 400.76 63.00 415.00 Z"/>
</g>
<g fill="None" fill-opacity="0.0" stroke="#EFEFEF" stroke-opacity="1.00" stroke-width="0.3"><path d="
M 385.00 471.00 
C 401.49 460.89 414.92 431.92 403.00 414.00
C 388.33 401.34 373.78 422.54 369.78 433.78 C 365.78 445.02 364.23 476.14 385.00 471.00 Z"/>
</g>
<g fill="None" fill-opacity="0.0" stroke="#BAB9CE" stroke-opacity="1.00" stroke-width="0.3"><path d="
M 185.00 425.00 
C 177.93 428.46 170.23 429.74 162.00 429.00
C 163.31 432.45 163.00 436.22 163.00 440.00
C 163.46 444.72 163.45 450.35 163.00 455.00
C 163.00 458.33 163.00 461.67 163.00 465.00
C 170.14 467.68 177.13 469.00 185.00 469.00
C 188.67 469.00 192.33 469.00 196.00 469.00
C 209.80 469.00 222.16 466.14 236.00 466.00 C 249.84 465.86 262.31 469.00 276.00 469.00
C 280.00 469.00 284.00 469.00 288.00 469.00
C 293.66 469.64 298.69 467.67 304.00 467.00
C 302.12 449.27 302.34 430.55 308.00 414.00
C 298.58 425.93 278.05 430.81 265.02 435.02 C 252.00 439.24 247.59 436.67 236.00 438.00 C 224.41 439.33 217.93 434.08 208.01 433.99 C 198.09 433.91 193.45 425.84 185.00 425.00 Z"/>
</g>
<g fill="None" fill-opacity="0.0" stroke="#6A5F73" stroke-opacity="1.00" stroke-width="0.3"><path d="
M 163.00 455.00 
C 163.45 450.35 163.46 444.72 163.00 440.00
C 163.00 445.00 163.00 450.00 163.00 455.00 Z"/>
</g>
<g fill="None" fill-opacity="0.0" stroke="#7A7285" stroke-opacity="1.00" stroke-width="0.3"><path d="
M 196.00 469.00 
C 192.33 469.00 188.67 469.00 185.00 469.00
C 188.39 469.33 192.54 469.33 196.00 469.00 Z"/>
</g>
<g fill="None" fill-opacity="0.0" stroke="#776F83" stroke-opacity="1.00" stroke-width="0.3"><path d="
M 288.00 469.00 
C 284.00 469.00 280.00 469.00 276.00 469.00
C 279.71 469.36 284.23 469.37 288.00 469.00 Z"/>
</g>
<g fill="#000000" fill-opacity="0.00" stroke="None">
<path d="
M 0.00 512.00 
L 512.00 512.00
L 512.00 0.00
L 0.00 0.00
L 0.00 512.00
M 379.00 239.00 
C 388.47 216.58 425.81 191.48 441.92 219.08 C 458.02 246.68 441.88 277.67 426.75 300.75 C 411.62 323.84 384.88 339.46 358.00 341.00
C 360.96 354.82 365.62 369.59 363.00 384.00
C 379.10 390.00 396.62 392.22 408.25 407.75 C 419.88 423.28 415.00 443.84 405.70 460.70 C 396.40 477.55 377.86 484.59 358.00 482.00 C 338.14 479.41 320.48 471.91 300.93 475.93 C 281.38 479.95 257.14 474.60 237.00 474.00 C 216.86 473.40 191.54 481.09 172.00 476.00 C 152.45 470.92 135.46 477.58 116.00 481.00 C 96.54 484.42 75.25 481.88 64.25 465.75 C 53.24 449.62 47.25 429.82 55.32 412.32 C 63.39 394.82 83.39 392.98 98.00 385.00
C 80.13 354.94 83.06 310.30 113.00 288.00
C 82.02 254.20 88.71 202.71 102.00 163.00
C 73.20 151.29 65.48 115.76 81.75 90.75 C 98.03 65.74 134.88 60.47 157.00 81.00
C 187.03 57.43 228.33 50.99 265.00 61.00
C 268.40 50.40 275.85 43.51 285.23 37.23 C 294.61 30.95 310.99 28.19 322.22 30.78 C 333.46 33.37 342.65 38.91 350.25 47.75 C 357.85 56.59 361.76 68.39 362.00 80.00 C 362.24 91.61 356.27 103.70 348.90 111.90 C 341.53 120.10 356.26 128.00 360.77 137.23 C 365.28 146.45 372.84 154.63 376.78 165.22 C 380.72 175.82 385.97 188.64 385.99 201.01 C 386.01 213.37 383.98 227.89 379.00 239.00
M 465.00 229.00 
C 470.64 230.73 467.80 244.59 468.00 250.00 C 468.20 255.41 465.42 265.07 464.22 271.22 C 463.02 277.37 460.82 283.91 458.22 290.22 C 455.63 296.54 453.47 299.05 450.23 306.23 C 446.99 313.40 437.57 310.01 442.25 303.25 C 446.93 296.50 447.45 292.95 450.77 286.77 C 454.09 280.59 454.65 274.62 456.78 268.78 C 458.91 262.94 458.64 251.16 459.00 246.00 C 459.36 240.84 456.98 226.53 465.00 229.00
M 486.00 251.00 
C 490.86 253.23 486.10 265.77 486.00 270.00 C 485.90 274.23 482.02 283.94 481.02 288.02 C 480.03 292.11 477.10 304.21 471.33 301.67 C 465.55 299.12 471.72 289.14 472.98 284.98 C 474.23 280.81 477.11 271.25 477.93 266.93 C 478.74 262.60 477.92 247.30 486.00 251.00 Z"/>
</g>
<g fill="#261427" fill-opacity="0.96" stroke="None">
<path d="
M 379.00 239.00 
C 383.98 227.89 386.01 213.37 385.99 201.01 C 385.97 188.64 380.72 175.82 376.78 165.22 C 372.84 154.63 365.28 146.45 360.77 137.23 C 356.26 128.00 341.53 120.10 348.90 111.90 C 356.27 103.70 362.24 91.61 362.00 80.00 C 361.76 68.39 357.85 56.59 350.25 47.75 C 342.65 38.91 333.46 33.37 322.22 30.78 C 310.99 28.19 294.61 30.95 285.23 37.23 C 275.85 43.51 268.40 50.40 265.00 61.00
C 228.33 50.99 187.03 57.43 157.00 81.00
C 134.88 60.47 98.03 65.74 81.75 90.75 C 65.48 115.76 73.20 151.29 102.00 163.00
C 88.71 202.71 82.02 254.20 113.00 288.00
C 83.06 310.30 80.13 354.94 98.00 385.00
C 83.39 392.98 63.39 394.82 55.32 412.32 C 47.25 429.82 53.24 449.62 64.25 465.75 C 75.25 481.88 96.54 484.42 116.00 481.00 C 135.46 477.58 152.45 470.92 172.00 476.00 C 191.54 481.09 216.86 473.40 237.00 474.00 C 257.14 474.60 281.38 479.95 300.93 475.93 C 320.48 471.91 338.14 479.41 358.00 482.00 C 377.86 484.59 396.40 477.55 405.70 460.70 C 415.00 443.84 419.88 423.28 408.25 407.75 C 396.62 392.22 379.10 390.00 363.00 384.00
C 365.62 369.59 360.96 354.82 358.00 341.00
C 384.88 339.46 411.62 323.84 426.75 300.75 C 441.88 277.67 458.02 246.68 441.92 219.08 C 425.81 191.48 388.47 216.58 379.00 239.00
M 329.00 100.00 
C 316.11 88.08 300.24 76.54 285.00 69.00
C 281.19 67.12 276.17 66.12 272.00 65.00
C 280.52 39.62 313.33 30.38 335.08 44.92 C 356.83 59.46 360.60 92.39 340.00 110.00
C 335.52 108.43 332.14 103.49 329.00 100.00
M 322.00 104.00 
C 326.29 107.66 330.38 111.76 334.00 116.00
C 345.19 129.10 361.49 145.37 366.00 162.00
C 381.81 193.96 381.33 233.29 356.75 260.75 C 332.17 288.21 305.44 298.32 271.98 307.98 C 238.51 317.63 189.44 320.92 157.32 308.68 C 125.21 296.44 99.00 268.63 99.00 234.00
C 98.56 229.43 97.04 223.60 99.00 219.00
C 99.00 218.50 99.00 217.50 99.00 217.00
C 99.00 180.61 114.65 144.62 134.92 114.92 C 155.18 85.22 187.10 67.24 223.02 64.02 C 258.95 60.80 295.30 81.18 322.00 104.00
M 141.00 96.00 
C 127.68 109.32 119.28 125.80 111.00 142.00
C 108.87 146.17 106.68 150.37 106.00 155.00
C 80.98 147.58 74.30 115.49 87.92 94.92 C 101.55 74.36 132.05 69.63 151.00 86.00
C 148.13 89.64 144.64 93.23 141.00 96.00
M 399.00 317.00 
C 391.88 322.29 385.54 326.79 376.78 329.78 C 368.02 332.76 355.37 336.12 352.07 325.93 C 348.78 315.74 347.13 310.79 341.23 301.77 C 335.32 292.75 339.16 286.97 347.25 281.25 C 355.34 275.52 359.75 271.20 367.00 265.00
C 379.87 254.00 387.42 241.96 397.25 228.25 C 407.07 214.54 429.50 207.91 437.30 226.70 C 445.11 245.48 436.66 264.60 429.70 280.69 C 422.73 296.79 412.63 306.86 399.00 317.00
M 166.00 407.00 
C 156.64 405.19 164.35 421.56 170.00 421.00
C 125.49 421.00 81.90 368.79 98.00 324.00
C 101.74 312.48 107.88 299.20 120.00 294.00
C 125.03 300.52 130.92 302.83 137.70 307.30 C 144.47 311.78 155.54 313.12 154.00 323.00 C 152.46 332.88 154.39 343.50 155.99 352.01 C 157.59 360.51 163.37 365.29 168.75 371.25 C 174.13 377.21 178.86 381.01 183.75 387.25 C 188.65 393.49 193.86 401.95 189.00 410.00
C 182.42 411.70 179.78 395.03 174.26 400.26 C 168.73 405.48 180.03 413.97 184.00 416.00
C 177.91 423.37 170.41 411.03 166.00 407.00
M 351.00 348.00 
C 353.96 358.91 356.87 370.76 356.00 383.00
C 335.00 378.14 313.81 393.98 308.00 414.00
C 302.34 430.55 302.12 449.27 304.00 467.00
C 298.69 467.67 293.66 469.64 288.00 469.00
C 284.23 469.37 279.71 469.36 276.00 469.00
C 262.31 469.00 249.84 465.86 236.00 466.00 C 222.16 466.14 209.80 469.00 196.00 469.00
C 192.54 469.33 188.39 469.33 185.00 469.00
C 177.13 469.00 170.14 467.68 163.00 465.00
C 163.00 461.67 163.00 458.33 163.00 455.00
C 163.00 450.00 163.00 445.00 163.00 440.00
C 163.00 436.22 163.31 432.45 162.00 429.00
C 170.23 429.74 177.93 428.46 185.00 425.00
C 197.70 417.46 201.15 400.07 193.69 388.31 C 186.24 376.54 175.45 370.43 168.00 359.00
C 164.93 354.28 162.05 347.93 162.01 341.99 C 161.97 336.06 158.41 325.88 161.00 320.00
C 162.52 316.55 176.61 321.37 183.00 322.00 C 189.39 322.63 201.88 324.67 210.00 324.00 C 218.12 323.33 229.10 323.98 237.07 322.07 C 245.05 320.17 254.22 319.98 262.01 318.01 C 269.80 316.04 277.53 314.05 285.07 312.07 C 292.62 310.09 299.06 306.39 306.23 304.23 C 313.40 302.06 318.89 296.70 326.00 295.00
C 333.78 293.14 336.78 311.57 340.92 318.08 C 345.07 324.58 348.85 340.06 351.00 348.00
M 403.00 414.00 
C 414.92 431.92 401.49 460.89 385.00 471.00
C 377.93 475.33 366.55 474.57 358.00 474.00 C 349.45 473.43 339.38 471.54 331.33 469.67 C 323.28 467.81 310.60 468.68 311.00 459.00 C 311.40 449.32 310.38 437.75 312.00 429.00 C 313.61 420.24 314.76 413.42 319.31 406.31 C 323.85 399.19 328.61 395.42 336.08 392.08 C 343.55 388.73 355.47 389.63 363.07 391.93 C 370.68 394.23 378.46 396.88 385.23 400.77 C 392.00 404.66 398.51 407.25 403.00 414.00
M 82.00 471.00 
C 65.20 461.23 52.53 433.02 63.00 415.00
C 71.28 400.76 90.42 397.00 104.00 392.00
C 109.06 397.78 113.55 402.29 119.25 407.75 C 124.94 413.21 131.22 416.70 138.23 420.77 C 145.24 424.84 155.67 424.84 155.00 435.00 C 154.33 445.16 158.11 454.96 155.00 465.00
C 132.01 470.11 105.37 479.15 82.00 471.00 Z"/>
</g>
<g fill="#3B355E" fill-opacity="1.00" stroke="None">
<path d="
M 285.00 69.00 
C 288.55 67.75 289.78 60.21 294.75 58.75 C 299.71 57.28 304.08 53.13 310.02 53.02 C 315.96 52.92 321.61 53.85 326.70 57.31 C 331.78 60.76 332.44 64.18 335.92 69.08 C 339.41 73.98 336.69 81.77 337.22 87.22 C 337.76 92.67 329.00 95.94 329.00 100.00
C 332.14 103.49 335.52 108.43 340.00 110.00
C 360.60 92.39 356.83 59.46 335.08 44.92 C 313.33 30.38 280.52 39.62 272.00 65.00
C 276.17 66.12 281.19 67.12 285.00 69.00 Z"/>
</g>
<g fill="#EFEEEF" fill-opacity="1.00" stroke="None">
<path d="
M 285.00 69.00 
C 300.24 76.54 316.11 88.08 329.00 100.00
C 329.00 95.94 337.76 92.67 337.22 87.22 C 336.69 81.77 339.41 73.98 335.92 69.08 C 332.44 64.18 331.78 60.76 326.70 57.31 C 321.61 53.85 315.96 52.92 310.02 53.02 C 304.08 53.13 299.71 57.28 294.75 58.75 C 289.78 60.21 288.55 67.75 285.00 69.00 Z"/>
</g>
<g fill="#F0F0F0" fill-opacity="1.00" stroke="None">
<path d="
M 99.00 217.00 
C 105.76 258.63 140.06 288.71 183.02 292.98 C 225.99 297.24 278.23 287.69 316.08 267.08 C 353.92 246.47 377.63 204.89 366.00 162.00
C 361.49 145.37 345.19 129.10 334.00 116.00
C 330.08 112.08 325.87 107.87 322.00 104.00
C 295.30 81.18 258.95 60.80 223.02 64.02 C 187.10 67.24 155.18 85.22 134.92 114.92 C 114.65 144.62 99.00 180.61 99.00 217.00
M 308.00 118.00 
C 328.74 120.96 341.20 139.53 347.78 158.22 C 354.35 176.92 352.02 206.88 330.30 215.30 C 308.59 223.73 285.65 217.06 267.75 204.25 C 249.85 191.43 245.55 165.28 255.31 146.31 C 265.06 127.33 286.47 114.92 308.00 118.00
M 167.00 146.00 
C 190.45 149.35 219.01 175.59 212.00 202.00 C 204.99 228.41 187.09 246.12 158.99 250.99 C 130.90 255.87 111.46 221.49 114.00 195.00 C 116.54 168.51 136.02 141.58 167.00 146.00
M 223.00 249.00 
C 218.63 248.91 206.95 244.99 209.01 237.99 C 211.07 231.00 218.90 241.35 224.01 241.99 C 229.11 242.64 239.96 234.78 236.67 229.33 C 233.38 223.88 218.24 229.00 221.00 220.00 C 223.77 211.00 232.26 213.23 238.00 211.00 C 243.74 208.78 254.20 208.34 256.92 215.08 C 259.64 221.82 243.67 222.93 245.01 229.01 C 246.34 235.09 260.95 236.59 263.74 232.74 C 266.54 228.90 272.10 218.09 274.97 227.03 C 277.84 235.97 264.12 236.11 266.33 243.67 C 268.54 251.24 266.86 258.68 264.08 265.08 C 261.29 271.47 254.31 274.44 247.98 274.98 C 241.64 275.51 235.43 271.49 231.25 266.75 C 227.07 262.01 224.59 255.03 223.00 249.00 Z"/>
</g>
<g fill="#3B355D" fill-opacity="1.00" stroke="None">
<path d="
M 111.00 142.00 
C 105.44 139.52 102.79 136.64 99.70 131.30 C 96.61 125.96 95.11 119.12 96.78 112.78 C 98.45 106.43 100.47 103.30 105.25 98.25 C 110.03 93.20 115.67 94.07 122.00 92.00 C 128.33 89.93 135.82 96.76 141.00 96.00
C 144.64 93.23 148.13 89.64 151.00 86.00
C 132.05 69.63 101.55 74.36 87.92 94.92 C 74.30 115.49 80.98 147.58 106.00 155.00
C 106.68 150.37 108.87 146.17 111.00 142.00 Z"/>
</g>
<g fill="#EEEEEE" fill-opacity="1.00" stroke="None">
<path d="
M 111.00 142.00 
C 119.28 125.80 127.68 109.32 141.00 96.00
C 135.82 96.76 128.33 89.93 122.00 92.00 C 115.67 94.07 110.03 93.20 105.25 98.25 C 100.47 103.30 98.45 106.43 96.78 112.78 C 95.11 119.12 96.61 125.96 99.70 131.30 C 102.79 136.64 105.44 139.52 111.00 142.00 Z"/>
</g>
<g fill="#817882" fill-opacity="1.00" stroke="None">
<path d="
M 334.00 116.00 
C 330.38 111.76 326.29 107.66 322.00 104.00
C 325.87 107.87 330.08 112.08 334.00 116.00 Z"/>
</g>
<g fill="#3C365F" fill-opacity="1.00" stroke="None">
<path d="
M 308.00 118.00 
C 286.47 114.92 265.06 127.33 255.31 146.31 C 245.55 165.28 249.85 191.43 267.75 204.25 C 285.65 217.06 308.59 223.73 330.30 215.30 C 352.02 206.88 354.35 176.92 347.78 158.22 C 341.20 139.53 328.74 120.96 308.00 118.00
M 295.00 154.00 
C 324.69 160.15 312.68 210.62 282.33 201.67 C 251.98 192.72 263.19 147.41 295.00 154.00 Z"/>
</g>
<g fill="#3C365F" fill-opacity="1.00" stroke="None">
<path d="
M 167.00 146.00 
C 136.02 141.58 116.54 168.51 114.00 195.00 C 111.46 221.49 130.90 255.87 158.99 250.99 C 187.09 246.12 204.99 228.41 212.00 202.00 C 219.01 175.59 190.45 149.35 167.00 146.00
M 180.00 176.00 
C 211.22 180.46 204.50 229.37 173.00 225.00 C 141.50 220.63 149.55 171.65 180.00 176.00 Z"/>
</g>
<g fill="#EFEFF1" fill-opacity="1.00" stroke="None">
<path d="
M 295.00 154.00 
C 263.19 147.41 251.98 192.72 282.33 201.67 C 312.68 210.62 324.69 160.15 295.00 154.00
M 294.00 159.00 
C 317.37 163.84 306.50 204.78 282.78 196.22 C 259.06 187.66 269.01 153.82 294.00 159.00 Z"/>
</g>
<g fill="#271528" fill-opacity="1.00" stroke="None">
<path d="
M 294.00 159.00 
C 269.01 153.82 259.06 187.66 282.78 196.22 C 306.50 204.78 317.37 163.84 294.00 159.00
M 298.00 168.00 
C 302.30 169.64 299.26 177.06 295.00 175.00 C 290.73 172.94 294.30 166.59 298.00 168.00
M 286.00 178.00 
C 292.18 180.01 287.95 191.95 281.33 188.67 C 274.70 185.38 279.30 175.82 286.00 178.00 Z"/>
</g>
<g fill="#BAB9CD" fill-opacity="1.00" stroke="None">
<path d="
M 99.00 217.00 
C 99.00 217.50 99.00 218.50 99.00 219.00
C 99.00 224.00 99.00 229.00 99.00 234.00
C 99.00 268.63 125.21 296.44 157.32 308.68 C 189.44 320.92 238.51 317.63 271.98 307.98 C 305.44 298.32 332.17 288.21 356.75 260.75 C 381.33 233.29 381.81 193.96 366.00 162.00
C 377.63 204.89 353.92 246.47 316.08 267.08 C 278.23 287.69 225.99 297.24 183.02 292.98 C 140.06 288.71 105.76 258.63 99.00 217.00 Z"/>
</g>
<g fill="#EDECED" fill-opacity="1.00" stroke="None">
<path d="
M 298.00 168.00 
C 294.30 166.59 290.73 172.94 295.00 175.00 C 299.26 177.06 302.30 169.64 298.00 168.00 Z"/>
</g>
<g fill="#F0F0F2" fill-opacity="1.00" stroke="None">
<path d="
M 180.00 176.00 
C 149.55 171.65 141.50 220.63 173.00 225.00 C 204.50 229.37 211.22 180.46 180.00 176.00
M 179.00 181.00 
C 203.91 183.72 199.26 223.57 174.00 220.00 C 148.74 216.43 155.09 178.39 179.00 181.00 Z"/>
</g>
<g fill="#F5F5F5" fill-opacity="1.00" stroke="None">
<path d="
M 286.00 178.00 
C 279.30 175.82 274.70 185.38 281.33 188.67 C 287.95 191.95 292.18 180.01 286.00 178.00 Z"/>
</g>
<g fill="#281629" fill-opacity="1.00" stroke="None">
<path d="
M 179.00 181.00 
C 155.09 178.39 148.74 216.43 174.00 220.00 C 199.26 223.57 203.91 183.72 179.00 181.00
M 187.00 191.00 
C 190.87 192.49 188.08 199.71 183.99 197.99 C 179.90 196.27 182.18 189.14 187.00 191.00
M 175.00 201.00 
C 181.00 203.25 176.66 214.87 170.33 211.67 C 164.00 208.47 167.36 198.14 175.00 201.00 Z"/>
</g>
<g fill="#EBE9EB" fill-opacity="1.00" stroke="None">
<path d="
M 187.00 191.00 
C 182.18 189.14 179.90 196.27 183.99 197.99 C 188.08 199.71 190.87 192.49 187.00 191.00 Z"/>
</g>
<g fill="#F3F2F3" fill-opacity="1.00" stroke="None">
<path d="
M 175.00 201.00 
C 167.36 198.14 164.00 208.47 170.33 211.67 C 176.66 214.87 181.00 203.25 175.00 201.00 Z"/>
</g>
<g fill="#291729" fill-opacity="1.00" stroke="None">
<path d="
M 223.00 249.00 
C 224.59 255.03 227.07 262.01 231.25 266.75 C 235.43 271.49 241.64 275.51 247.98 274.98 C 254.31 274.44 261.29 271.47 264.08 265.08 C 266.86 258.68 268.54 251.24 266.33 243.67 C 264.12 236.11 277.84 235.97 274.97 227.03 C 272.10 218.09 266.54 228.90 263.74 232.74 C 260.95 236.59 246.34 235.09 245.01 229.01 C 243.67 222.93 259.64 221.82 256.92 215.08 C 254.20 208.34 243.74 208.78 238.00 211.00 C 232.26 213.23 223.77 211.00 221.00 220.00 C 218.24 229.00 233.38 223.88 236.67 229.33 C 239.96 234.78 229.11 242.64 224.01 241.99 C 218.90 241.35 211.07 231.00 209.01 237.99 C 206.95 244.99 218.63 248.91 223.00 249.00
M 259.00 255.00 
C 256.46 270.61 242.56 269.25 235.00 258.00
C 233.06 255.12 230.18 252.24 231.00 248.00
C 236.32 248.07 239.83 242.60 243.00 239.00
C 247.86 241.84 253.17 243.46 259.00 243.00
C 259.28 246.69 261.53 251.84 259.00 255.00 Z"/>
</g>
<g fill="#3B355E" fill-opacity="1.00" stroke="None">
<path d="
M 367.00 265.00 
C 350.42 287.07 371.77 322.24 399.00 317.00
C 412.63 306.86 422.73 296.79 429.70 280.69 C 436.66 264.60 445.11 245.48 437.30 226.70 C 429.50 207.91 407.07 214.54 397.25 228.25 C 387.42 241.96 379.87 254.00 367.00 265.00
M 412.00 223.00 
C 417.43 224.39 415.34 234.43 409.32 232.66 C 403.30 230.89 405.93 221.44 412.00 223.00
M 426.00 225.00 
C 431.01 227.24 427.30 237.01 421.78 234.22 C 416.25 231.42 420.46 222.53 426.00 225.00
M 434.00 236.00 
C 439.13 238.63 433.64 248.40 428.33 244.67 C 423.02 240.94 428.51 233.19 434.00 236.00
M 418.00 238.00 
C 428.46 241.86 420.95 261.96 409.93 256.07 C 398.91 250.18 405.87 233.52 418.00 238.00 Z"/>
</g>
<g fill="#685E72" fill-opacity="1.00" stroke="None">
<path d="
M 99.00 234.00 
C 99.00 229.00 99.00 224.00 99.00 219.00
C 97.04 223.60 98.56 229.43 99.00 234.00 Z"/>
</g>
<g fill="#E4E3E6" fill-opacity="1.00" stroke="None">
<path d="
M 412.00 223.00 
C 405.93 221.44 403.30 230.89 409.32 232.66 C 415.34 234.43 417.43 224.39 412.00 223.00 Z"/>
</g>
<g fill="#E4E4E7" fill-opacity="1.00" stroke="None">
<path d="
M 426.00 225.00 
C 420.46 222.53 416.25 231.42 421.78 234.22 C 427.30 237.01 431.01 227.24 426.00 225.00 Z"/>
</g>
<g fill="#251226" fill-opacity="0.87" stroke="None">
<path d="
M 465.00 229.00 
C 456.98 226.53 459.36 240.84 459.00 246.00 C 458.64 251.16 458.91 262.94 456.78 268.78 C 454.65 274.62 454.09 280.59 450.77 286.77 C 447.45 292.95 446.93 296.50 442.25 303.25 C 437.57 310.01 446.99 313.40 450.23 306.23 C 453.47 299.05 455.63 296.54 458.22 290.22 C 460.82 283.91 463.02 277.37 464.22 271.22 C 465.42 265.07 468.20 255.41 468.00 250.00 C 467.80 244.59 470.64 230.73 465.00 229.00 Z"/>
</g>
<g fill="#E3E3E6" fill-opacity="1.00" stroke="None">
<path d="
M 434.00 236.00 
C 428.51 233.19 423.02 240.94 428.33 244.67 C 433.64 248.40 439.13 238.63 434.00 236.00 Z"/>
</g>
<g fill="#ECECED" fill-opacity="1.00" stroke="None">
<path d="
M 418.00 238.00 
C 405.87 233.52 398.91 250.18 409.93 256.07 C 420.95 261.96 428.46 241.86 418.00 238.00 Z"/>
</g>
<g fill="#A6093C" fill-opacity="1.00" stroke="None">
<path d="
M 235.00 258.00 
C 235.00 249.12 253.77 247.39 259.00 251.00
C 259.00 252.33 259.00 253.67 259.00 255.00
C 261.53 251.84 259.28 246.69 259.00 243.00
C 253.17 243.46 247.86 241.84 243.00 239.00
C 239.83 242.60 236.32 248.07 231.00 248.00
C 230.18 252.24 233.06 255.12 235.00 258.00 Z"/>
</g>
<g fill="#E5315E" fill-opacity="1.00" stroke="None">
<path d="
M 235.00 258.00 
C 242.56 269.25 256.46 270.61 259.00 255.00
C 259.00 253.67 259.00 252.33 259.00 251.00
C 253.77 247.39 235.00 249.12 235.00 258.00 Z"/>
</g>
<g fill="#251226" fill-opacity="0.87" stroke="None">
<path d="
M 486.00 251.00 
C 477.92 247.30 478.74 262.60 477.93 266.93 C 477.11 271.25 474.23 280.81 472.98 284.98 C 471.72 289.14 465.55 299.12 471.33 301.67 C 477.10 304.21 480.03 292.11 481.02 288.02 C 482.02 283.94 485.90 274.23 486.00 270.00 C 486.10 265.77 490.86 253.23 486.00 251.00 Z"/>
</g>
<g fill="#2A2648" fill-opacity="1.00" stroke="None">
<path d="
M 399.00 317.00 
C 371.77 322.24 350.42 287.07 367.00 265.00
C 359.75 271.20 355.34 275.52 347.25 281.25 C 339.16 286.97 335.32 292.75 341.23 301.77 C 347.13 310.79 348.78 315.74 352.07 325.93 C 355.37 336.12 368.02 332.76 376.78 329.78 C 385.54 326.79 391.88 322.29 399.00 317.00 Z"/>
</g>
<g fill="#3A345D" fill-opacity="1.00" stroke="None">
<path d="
M 98.00 324.00 
C 97.06 333.16 99.36 343.20 101.78 351.22 C 104.20 359.25 107.86 365.05 112.25 371.75 C 116.65 378.44 121.22 382.34 126.75 388.25 C 132.29 394.15 139.20 395.50 145.08 400.92 C 150.96 406.34 161.34 404.91 166.00 407.00
C 170.41 411.03 177.91 423.37 184.00 416.00
C 180.03 413.97 168.73 405.48 174.26 400.26 C 179.78 395.03 182.42 411.70 189.00 410.00
C 193.86 401.95 188.65 393.49 183.75 387.25 C 178.86 381.01 174.13 377.21 168.75 371.25 C 163.37 365.29 157.59 360.51 155.99 352.01 C 154.39 343.50 152.46 332.88 154.00 323.00 C 155.54 313.12 144.47 311.78 137.70 307.30 C 130.92 302.83 125.03 300.52 120.00 294.00
C 107.88 299.20 101.74 312.48 98.00 324.00 Z"/>
</g>
<g fill="#3B355E" fill-opacity="1.00" stroke="None">
<path d="
M 326.00 295.00 
C 318.66 298.84 317.34 310.51 309.25 315.25 C 301.16 319.99 295.27 326.42 285.77 329.77 C 276.28 333.12 265.58 336.01 255.00 337.00 C 244.42 337.99 229.95 338.40 219.00 338.00 C 208.05 337.60 197.38 334.37 187.32 331.68 C 177.26 328.99 170.32 323.90 161.00 320.00
C 158.41 325.88 161.97 336.06 162.01 341.99 C 162.05 347.93 164.93 354.28 168.00 359.00
C 176.38 364.03 188.33 360.51 198.00 363.00 C 207.67 365.49 219.57 364.98 230.00 366.00 C 240.43 367.02 253.75 365.67 264.00 365.00 C 274.25 364.33 284.75 363.15 294.67 361.67 C 304.59 360.19 314.44 358.12 324.02 356.02 C 333.61 353.93 341.86 351.29 351.00 348.00
C 348.85 340.06 345.07 324.58 340.92 318.08 C 336.78 311.57 333.78 293.14 326.00 295.00 Z"/>
</g>
<g fill="#2A2648" fill-opacity="1.00" stroke="None">
<path d="
M 161.00 320.00 
C 170.32 323.90 177.26 328.99 187.32 331.68 C 197.38 334.37 208.05 337.60 219.00 338.00 C 229.95 338.40 244.42 337.99 255.00 337.00 C 265.58 336.01 276.28 333.12 285.77 329.77 C 295.27 326.42 301.16 319.99 309.25 315.25 C 317.34 310.51 318.66 298.84 326.00 295.00
C 318.89 296.70 313.40 302.06 306.23 304.23 C 299.06 306.39 292.62 310.09 285.07 312.07 C 277.53 314.05 269.80 316.04 262.01 318.01 C 254.22 319.98 245.05 320.17 237.07 322.07 C 229.10 323.98 218.12 323.33 210.00 324.00 C 201.88 324.67 189.39 322.63 183.00 322.00 C 176.61 321.37 162.52 316.55 161.00 320.00 Z"/>
</g>
<g fill="#2A2648" fill-opacity="1.00" stroke="None">
<path d="
M 166.00 407.00 
C 161.34 404.91 150.96 406.34 145.08 400.92 C 139.20 395.50 132.29 394.15 126.75 388.25 C 121.22 382.34 116.65 378.44 112.25 371.75 C 107.86 365.05 104.20 359.25 101.78 351.22 C 99.36 343.20 97.06 333.16 98.00 324.00
C 81.90 368.79 125.49 421.00 170.00 421.00
C 164.35 421.56 156.64 405.19 166.00 407.00 Z"/>
</g>
<g fill="#F0F0F0" fill-opacity="1.00" stroke="None">
<path d="
M 168.00 359.00 
C 175.45 370.43 186.24 376.54 193.69 388.31 C 201.15 400.07 197.70 417.46 185.00 425.00
C 193.45 425.84 198.09 433.91 208.01 433.99 C 217.93 434.08 224.41 439.33 236.00 438.00 C 247.59 436.67 252.00 439.24 265.02 435.02 C 278.05 430.81 298.58 425.93 308.00 414.00
C 313.81 393.98 335.00 378.14 356.00 383.00
C 356.87 370.76 353.96 358.91 351.00 348.00
C 341.86 351.29 333.61 353.93 324.02 356.02 C 314.44 358.12 304.59 360.19 294.67 361.67 C 284.75 363.15 274.25 364.33 264.00 365.00 C 253.75 365.67 240.43 367.02 230.00 366.00 C 219.57 364.98 207.67 365.49 198.00 363.00 C 188.33 360.51 176.38 364.03 168.00 359.00 Z"/>
</g>
<g fill="#373259" fill-opacity="1.00" stroke="None">
<path d="
M 385.00 471.00 
C 364.23 476.14 365.78 445.02 369.78 433.78 C 373.78 422.54 388.33 401.34 403.00 414.00
C 398.51 407.25 392.00 404.66 385.23 400.77 C 378.46 396.88 370.68 394.23 363.07 391.93 C 355.47 389.63 343.55 388.73 336.08 392.08 C 328.61 395.42 323.85 399.19 319.31 406.31 C 314.76 413.42 313.61 420.24 312.00 429.00 C 310.38 437.75 311.40 449.32 311.00 459.00 C 310.60 468.68 323.28 467.81 331.33 469.67 C 339.38 471.54 349.45 473.43 358.00 474.00 C 366.55 474.57 377.93 475.33 385.00 471.00 Z"/>
</g>
<g fill="#373158" fill-opacity="1.00" stroke="None">
<path d="
M 63.00 415.00 
C 75.53 400.76 92.96 420.95 96.77 432.23 C 100.58 443.51 103.88 475.59 82.00 471.00
C 105.37 479.15 132.01 470.11 155.00 465.00
C 158.11 454.96 154.33 445.16 155.00 435.00 C 155.67 424.84 145.24 424.84 138.23 420.77 C 131.22 416.70 124.94 413.21 119.25 407.75 C 113.55 402.29 109.06 397.78 104.00 392.00
C 90.42 397.00 71.28 400.76 63.00 415.00 Z"/>
</g>
<g fill="#EFEFEF" fill-opacity="1.00" stroke="None">
<path d="
M 63.00 415.00 
C 52.53 433.02 65.20 461.23 82.00 471.00
C 103.88 475.59 100.58 443.51 96.77 432.23 C 92.96 420.95 75.53 400.76 63.00 415.00 Z"/>
</g>
<g fill="#EFEFEF" fill-opacity="1.00" stroke="None">
<path d="
M 385.00 471.00 
C 401.49 460.89 414.92 431.92 403.00 414.00
C 388.33 401.34 373.78 422.54 369.78 433.78 C 365.78 445.02 364.23 476.14 385.00 471.00 Z"/>
</g>
<g fill="#BAB9CE" fill-opacity="1.00" stroke="None">
<path d="
M 185.00 425.00 
C 177.93 428.46 170.23 429.74 162.00 429.00
C 163.31 432.45 163.00 436.22 163.00 440.00
C 163.46 444.72 163.45 450.35 163.00 455.00
C 163.00 458.33 163.00 461.67 163.00 465.00
C 170.14 467.68 177.13 469.00 185.00 469.00
C 188.67 469.00 192.33 469.00 196.00 469.00
C 209.80 469.00 222.16 466.14 236.00 466.00 C 249.84 465.86 262.31 469.00 276.00 469.00
C 280.00 469.00 284.00 469.00 288.00 469.00
C 293.66 469.64 298.69 467.67 304.00 467.00
C 302.12 449.27 302.34 430.55 308.00 414.00
C 298.58 425.93 278.05 430.81 265.02 435.02 C 252.00 439.24 247.59 436.67 236.00 438.00 C 224.41 439.33 217.93 434.08 208.01 433.99 C 198.09 433.91 193.45 425.84 185.00 425.00 Z"/>
</g>
<g fill="#6A5F73" fill-opacity="1.00" stroke="None">
<path d="
M 163.00 455.00 
C 163.45 450.35 163.46 444.72 163.00 440.00
C 163.00 445.00 163.00 450.00 163.00 455.00 Z"/>
</g>
<g fill="#7A7285" fill-opacity="1.00" stroke="None">
<path d="
M 196.00 469.00 
C 192.33 469.00 188.67 469.00 185.00 469.00
C 188.39 469.33 192.54 469.33 196.00 469.00 Z"/>
</g>
<g fill="#776F83" fill-opacity="1.00" stroke="None">
<path d="
M 288.00 469.00 
C 284.00 469.00 280.00 469.00 276.00 469.00
C 279.71 469.36 284.23 469.37 288.00 469.00 Z"/>
</g>
</svg>