<svg xmlns="http://www.w3.org/2000/svg" xmlns:v="https://svgstorm.com"
viewBox = "0 0 512 512"
width="512"
height="512">
<g fill="None" fill-opacity="0.0" stroke="#000000" stroke-opacity="0.00" stroke-width="0.3"><path d="
M 0.00 512.00 
L 512.00 512.00
L 512.00 0.00
L 0.00 0.00
L 0.00 512.00
M 418.00 469.00 
C 415.50 469.52 414.31 468.79 412.00 469.00
C 397.60 470.28 381.78 470.79 367.00 470.00 C 352.22 469.21 336.59 471.06 322.00 469.00 C 307.41 466.94 296.19 472.78 285.75 479.75 C 275.32 486.73 266.69 494.86 255.77 490.23 C 244.85 485.60 237.12 480.21 226.30 473.70 C 215.49 467.18 197.68 468.68 184.00 469.00 C 170.32 469.32 152.78 470.65 139.00 470.00 C 125.22 469.35 108.20 472.35 96.77 466.23 C 85.34 460.11 80.24 452.54 73.75 442.25 C 67.25 431.97 62.56 421.41 60.67 409.33 C 58.78 397.24 59.15 381.39 69.70 373.70 C 80.24 366.00 94.67 371.86 103.00 380.00
C 108.59 373.18 117.77 368.97 127.00 370.00
C 124.52 357.34 116.36 344.98 119.00 331.00 C 121.64 317.02 113.09 309.20 107.69 297.31 C 102.30 285.41 104.61 268.16 108.77 256.77 C 112.94 245.39 121.74 236.73 133.00 233.00
C 109.62 194.19 136.14 152.95 151.00 117.00
C 127.10 98.80 122.80 58.02 146.25 36.25 C 169.69 14.47 208.65 31.46 220.00 59.00
C 229.80 55.34 243.23 55.92 253.00 53.00 C 262.78 50.08 262.87 37.89 275.22 36.22 C 287.57 34.56 295.96 44.94 289.00 57.00
C 299.21 59.77 308.13 62.73 317.23 68.77 C 326.33 74.81 332.83 63.42 341.70 58.70 C 350.56 53.97 362.85 47.71 374.00 50.00 C 385.15 52.29 391.25 56.48 399.25 64.75 C 407.25 73.02 409.44 84.66 409.00 96.00 C 408.56 107.34 405.53 118.34 399.23 127.23 C 392.93 136.12 387.13 142.49 377.00 146.00
C 382.57 173.82 390.62 203.64 385.00 232.00
C 396.81 235.84 404.81 243.31 410.31 254.69 C 415.80 266.08 418.30 283.19 414.01 296.01 C 409.71 308.82 398.52 314.85 401.00 329.00 C 403.48 343.15 395.65 356.95 393.00 370.00
C 402.38 369.21 412.07 371.70 418.00 379.00
C 430.12 367.51 452.99 366.17 458.92 384.08 C 464.86 401.98 458.50 421.63 450.25 436.25 C 441.99 450.86 433.83 462.91 418.00 469.00 Z"/>
</g>
<g fill="None" fill-opacity="0.0" stroke="#211F1E" stroke-opacity="0.93" stroke-width="0.3"><path d="
M 412.00 469.00 
C 398.78 464.66 382.01 466.36 368.00 465.00
C 348.17 465.00 327.01 465.83 308.00 464.00
C 318.20 457.49 327.75 450.15 336.75 441.75 C 345.75 433.35 354.91 426.63 362.25 416.25 C 369.60 405.88 379.21 399.85 383.77 386.77 C 388.33 373.69 404.30 369.11 415.00 382.00
C 415.34 385.11 410.62 385.88 411.00 389.00
C 420.23 381.04 443.22 365.80 452.75 381.25 C 462.28 396.70 454.03 418.41 447.23 432.23 C 440.43 446.05 431.15 458.71 417.00 465.00
C 417.78 465.70 418.65 467.77 418.00 469.00
C 433.83 462.91 441.99 450.86 450.25 436.25 C 458.50 421.63 464.86 401.98 458.92 384.08 C 452.99 366.17 430.12 367.51 418.00 379.00
C 412.07 371.70 402.38 369.21 393.00 370.00
C 395.65 356.95 403.48 343.15 401.00 329.00 C 398.52 314.85 409.71 308.82 414.01 296.01 C 418.30 283.19 415.80 266.08 410.31 254.69 C 404.81 243.31 396.81 235.84 385.00 232.00
C 390.62 203.64 382.57 173.82 377.00 146.00
C 387.13 142.49 392.93 136.12 399.23 127.23 C 405.53 118.34 408.56 107.34 409.00 96.00 C 409.44 84.66 407.25 73.02 399.25 64.75 C 391.25 56.48 385.15 52.29 374.00 50.00 C 362.85 47.71 350.56 53.97 341.70 58.70 C 332.83 63.42 326.33 74.81 317.23 68.77 C 308.13 62.73 299.21 59.77 289.00 57.00
C 295.96 44.94 287.57 34.56 275.22 36.22 C 262.87 37.89 262.78 50.08 253.00 53.00 C 243.23 55.92 229.80 55.34 220.00 59.00
C 208.65 31.46 169.69 14.47 146.25 36.25 C 122.80 58.02 127.10 98.80 151.00 117.00
C 136.14 152.95 109.62 194.19 133.00 233.00
C 121.74 236.73 112.94 245.39 108.77 256.77 C 104.61 268.16 102.30 285.41 107.69 297.31 C 113.09 309.20 121.64 317.02 119.00 331.00 C 116.36 344.98 124.52 357.34 127.00 370.00
C 117.77 368.97 108.59 373.18 103.00 380.00
C 94.67 371.86 80.24 366.00 69.70 373.70 C 59.15 381.39 58.78 397.24 60.67 409.33 C 62.56 421.41 67.25 431.97 73.75 442.25 C 80.24 452.54 85.34 460.11 96.77 466.23 C 108.20 472.35 125.22 469.35 139.00 470.00 C 152.78 470.65 170.32 469.32 184.00 469.00 C 197.68 468.68 215.49 467.18 226.30 473.70 C 237.12 480.21 244.85 485.60 255.77 490.23 C 266.69 494.86 275.32 486.73 285.75 479.75 C 296.19 472.78 307.41 466.94 322.00 469.00 C 336.59 471.06 352.22 469.21 367.00 470.00 C 381.78 470.79 397.60 470.28 412.00 469.00
M 202.00 68.00 
C 199.04 69.51 196.31 71.73 193.00 72.00
C 186.99 58.30 170.55 50.39 156.00 55.00
C 158.10 57.08 162.15 55.50 165.00 56.00
C 146.89 64.85 147.20 91.29 162.00 103.00
C 159.06 106.90 156.18 110.69 154.00 115.00
C 121.56 92.65 131.74 27.58 176.00 30.00
C 194.06 31.23 209.06 46.64 217.00 62.00
C 211.48 62.33 206.95 65.84 202.00 68.00
M 277.00 76.00 
C 283.29 76.21 293.07 66.45 285.00 61.00
C 289.13 59.00 294.38 62.44 298.00 64.00
C 321.08 72.52 339.10 85.10 353.92 106.08 C 368.74 127.06 376.56 152.99 379.98 179.02 C 383.39 205.06 387.36 235.74 367.00 257.00
C 335.18 235.89 284.44 233.75 260.00 268.00
C 256.70 265.46 253.44 262.31 251.00 259.00
C 247.42 255.69 242.11 252.03 238.00 250.00
C 215.64 238.94 187.20 240.02 165.00 251.00
C 159.35 253.79 156.46 257.41 151.75 251.25 C 147.05 245.09 144.91 244.06 141.00 238.00
C 134.11 227.33 130.71 218.47 128.02 205.98 C 125.34 193.48 128.75 179.05 134.31 168.31 C 139.86 157.56 141.42 146.05 146.77 135.77 C 152.12 125.49 156.29 115.38 163.75 106.75 C 171.21 98.12 176.29 90.62 185.25 83.25 C 194.20 75.88 203.28 70.66 214.08 66.08 C 224.87 61.49 238.29 59.11 250.01 57.01 C 261.73 54.91 263.83 38.57 279.00 40.00 C 294.17 41.43 283.68 58.94 278.00 67.00
C 282.28 62.93 286.08 65.14 283.24 69.25 C 280.41 73.35 274.16 73.50 277.00 76.00
M 376.00 55.00 
C 418.37 63.77 411.81 130.08 375.00 142.00
C 370.85 133.77 370.40 127.93 378.75 122.75 C 387.10 117.57 386.11 109.13 388.00 101.00 C 389.89 92.87 376.22 83.52 385.00 82.00
C 372.10 75.18 356.71 81.14 347.00 91.00
C 341.69 92.46 334.11 75.15 327.00 76.00
C 338.30 62.77 357.67 50.18 376.00 55.00
M 191.00 75.00 
C 182.73 82.63 177.32 82.56 170.25 93.25 C 163.18 103.93 156.97 92.99 155.01 82.99 C 153.04 72.99 157.95 61.94 168.22 59.22 C 178.50 56.51 185.75 68.54 191.00 75.00
M 369.00 126.00 
C 363.32 115.13 357.71 103.73 349.00 95.00
C 356.55 83.67 374.15 77.59 381.77 91.23 C 389.39 104.87 381.54 118.75 369.00 126.00
M 207.00 320.00 
C 193.08 342.72 161.39 334.34 140.92 326.08 C 120.46 317.81 105.84 294.11 109.00 272.00
C 109.60 256.18 120.14 239.97 136.00 236.00
C 140.41 243.73 145.82 251.33 153.00 257.00
C 150.88 264.13 143.77 266.45 138.00 262.00
C 148.56 273.38 164.75 279.76 177.70 287.30 C 190.64 294.85 216.55 299.37 207.00 320.00
M 410.00 266.00 
C 416.89 288.70 403.35 314.96 383.75 325.75 C 364.16 336.55 330.50 347.22 317.00 324.00
C 306.77 306.40 334.16 298.11 344.70 289.70 C 355.24 281.28 373.48 272.35 381.00 260.00
C 377.09 264.00 372.57 264.86 369.00 260.00
C 376.39 253.92 378.68 232.41 390.07 237.93 C 401.46 243.44 407.46 254.52 410.00 266.00
M 342.00 286.00 
C 330.69 293.68 312.05 299.81 312.00 317.00 C 311.95 334.19 334.12 340.85 350.00 340.00 C 365.88 339.15 379.71 328.55 394.00 323.00
C 394.63 322.75 394.80 320.67 396.00 321.00
C 397.09 335.07 395.30 353.04 390.07 365.07 C 384.85 377.11 379.56 388.13 372.08 398.08 C 364.60 408.04 357.78 417.55 348.75 425.75 C 339.73 433.95 331.81 442.50 322.25 449.25 C 312.68 456.00 302.42 465.31 292.25 470.25 C 282.09 475.20 270.97 488.60 259.78 487.22 C 248.59 485.84 238.10 474.18 227.77 469.23 C 217.44 464.28 207.58 454.93 197.77 448.23 C 187.96 441.53 179.85 432.77 170.75 424.25 C 161.66 415.73 154.96 407.64 147.70 397.30 C 140.43 386.96 134.35 376.91 129.68 364.32 C 125.01 351.73 122.56 333.59 124.00 319.00
C 124.83 319.41 125.87 319.97 126.00 321.00
C 141.41 327.44 152.32 336.04 170.00 337.00
C 173.59 337.19 177.41 337.19 181.00 337.00
C 194.11 336.29 208.46 330.02 211.98 315.98 C 215.50 301.93 200.57 293.72 189.25 288.75 C 177.94 283.77 165.70 275.83 155.00 270.00
C 153.32 269.09 150.85 268.64 149.00 268.00
C 177.69 237.98 236.22 237.06 259.00 275.00
C 282.38 237.24 342.61 235.59 370.00 268.00
C 360.13 273.11 351.91 281.30 342.00 286.00
M 130.00 374.00 
C 146.14 411.58 179.76 440.98 213.00 464.00
C 190.84 467.16 161.37 463.23 139.00 465.00 C 116.63 466.77 93.36 466.35 81.75 446.25 C 70.13 426.16 61.08 414.04 64.99 389.99 C 68.91 365.94 99.79 376.41 111.00 390.00
C 100.29 379.06 120.79 372.73 130.00 374.00 Z"/>
</g>
<g fill="None" fill-opacity="0.0" stroke="#5B5161" stroke-opacity="1.00" stroke-width="0.3"><path d="
M 202.00 68.00 
C 205.74 62.55 198.42 49.25 194.23 44.77 C 190.04 40.29 181.88 31.46 176.00 30.00
C 131.74 27.58 121.56 92.65 154.00 115.00
C 156.18 110.69 159.06 106.90 162.00 103.00
C 147.20 91.29 146.89 64.85 165.00 56.00
C 162.15 55.50 158.10 57.08 156.00 55.00
C 170.55 50.39 186.99 58.30 193.00 72.00
C 196.31 71.73 199.04 69.51 202.00 68.00 Z"/>
</g>
<g fill="None" fill-opacity="0.0" stroke="#3D3741" stroke-opacity="1.00" stroke-width="0.3"><path d="
M 202.00 68.00 
C 206.95 65.84 211.48 62.33 217.00 62.00
C 209.06 46.64 194.06 31.23 176.00 30.00
C 181.88 31.46 190.04 40.29 194.23 44.77 C 198.42 49.25 205.74 62.55 202.00 68.00 Z"/>
</g>
<g fill="None" fill-opacity="0.0" stroke="#FCFCFC" stroke-opacity="1.00" stroke-width="0.3"><path d="
M 141.00 238.00 
C 143.55 240.24 149.13 242.83 152.25 244.75 C 155.37 246.68 161.34 251.00 165.00 251.00
C 187.20 240.02 215.64 238.94 238.00 250.00
C 238.52 250.69 237.18 247.37 237.00 247.00
C 236.26 245.45 235.41 243.72 235.00 242.00
C 242.95 251.82 256.09 253.00 266.00 246.00
C 265.46 247.66 263.44 248.33 263.00 250.00
C 260.36 253.37 250.63 257.13 251.00 259.00
C 253.44 262.31 256.70 265.46 260.00 268.00
C 284.44 233.75 335.18 235.89 367.00 257.00
C 387.36 235.74 383.39 205.06 379.98 179.02 C 376.56 152.99 368.74 127.06 353.92 106.08 C 339.10 85.10 321.08 72.52 298.00 64.00
C 302.47 73.05 282.23 77.40 277.00 76.00
C 274.16 73.50 280.41 73.35 283.24 69.25 C 286.08 65.14 282.28 62.93 278.00 67.00
C 283.68 58.94 294.17 41.43 279.00 40.00 C 263.83 38.57 261.73 54.91 250.01 57.01 C 238.29 59.11 224.87 61.49 214.08 66.08 C 203.28 70.66 194.20 75.88 185.25 83.25 C 176.29 90.62 171.21 98.12 163.75 106.75 C 156.29 115.38 152.12 125.49 146.77 135.77 C 141.42 146.05 139.86 157.56 134.31 168.31 C 128.75 179.05 125.34 193.48 128.02 205.98 C 130.71 218.47 134.11 227.33 141.00 238.00
M 206.00 113.00 
C 238.65 117.66 249.34 158.29 231.08 184.08 C 212.82 209.87 170.05 207.90 160.02 177.98 C 150.00 148.05 173.25 108.32 206.00 113.00
M 281.00 178.00 
C 280.49 174.87 280.56 172.05 281.00 169.00
C 282.18 137.98 318.37 116.30 343.23 135.77 C 368.09 155.24 369.37 192.76 345.25 212.25 C 321.14 231.75 282.58 207.15 281.00 178.00
M 258.00 197.00 
C 260.21 206.55 273.71 206.48 281.00 203.00
C 279.20 206.53 275.04 207.07 272.00 209.00
C 271.23 218.76 269.43 228.54 261.25 235.25 C 253.06 241.95 239.76 235.64 239.02 224.98 C 238.29 214.31 239.00 202.93 230.00 196.00
C 235.72 202.16 251.23 205.90 254.00 196.00
C 247.62 191.96 245.78 190.49 242.23 182.77 C 238.68 175.05 252.58 177.85 258.00 179.00 C 263.42 180.14 277.48 179.49 273.24 186.25 C 269.01 193.00 264.89 194.97 258.00 197.00 Z"/>
</g>
<g fill="None" fill-opacity="0.0" stroke="#3D3641" stroke-opacity="1.00" stroke-width="0.3"><path d="
M 347.00 91.00 
C 339.45 91.00 339.79 79.56 343.77 75.77 C 347.76 71.99 350.21 64.72 356.25 62.25 C 362.28 59.77 369.08 54.92 376.00 55.00
C 357.67 50.18 338.30 62.77 327.00 76.00
C 334.11 75.15 341.69 92.46 347.00 91.00 Z"/>
</g>
<g fill="None" fill-opacity="0.0" stroke="#5B5160" stroke-opacity="1.00" stroke-width="0.3"><path d="
M 347.00 91.00 
C 356.71 81.14 372.10 75.18 385.00 82.00
C 376.22 83.52 389.89 92.87 388.00 101.00 C 386.11 109.13 387.10 117.57 378.75 122.75 C 370.40 127.93 370.85 133.77 375.00 142.00
C 411.81 130.08 418.37 63.77 376.00 55.00
C 369.08 54.92 362.28 59.77 356.25 62.25 C 350.21 64.72 347.76 71.99 343.77 75.77 C 339.79 79.56 339.45 91.00 347.00 91.00 Z"/>
</g>
<g fill="None" fill-opacity="0.0" stroke="#3D3641" stroke-opacity="1.00" stroke-width="0.3"><path d="
M 191.00 75.00 
C 185.75 68.54 178.50 56.51 168.22 59.22 C 157.95 61.94 153.04 72.99 155.01 82.99 C 156.97 92.99 163.18 103.93 170.25 93.25 C 177.32 82.56 182.73 82.63 191.00 75.00 Z"/>
</g>
<g fill="None" fill-opacity="0.0" stroke="#C1D3E9" stroke-opacity="1.00" stroke-width="0.3"><path d="
M 277.00 76.00 
C 282.23 77.40 302.47 73.05 298.00 64.00
C 294.38 62.44 289.13 59.00 285.00 61.00
C 293.07 66.45 283.29 76.21 277.00 76.00 Z"/>
</g>
<g fill="None" fill-opacity="0.0" stroke="#3D3641" stroke-opacity="1.00" stroke-width="0.3"><path d="
M 369.00 126.00 
C 381.54 118.75 389.39 104.87 381.77 91.23 C 374.15 77.59 356.55 83.67 349.00 95.00
C 357.71 103.73 363.32 115.13 369.00 126.00 Z"/>
</g>
<g fill="None" fill-opacity="0.0" stroke="#242423" stroke-opacity="1.00" stroke-width="0.3"><path d="
M 206.00 113.00 
C 173.25 108.32 150.00 148.05 160.02 177.98 C 170.05 207.90 212.82 209.87 231.08 184.08 C 249.34 158.29 238.65 117.66 206.00 113.00
M 205.00 116.00 
C 235.27 119.19 245.70 158.18 228.75 181.75 C 211.79 205.31 172.65 204.99 163.02 176.98 C 153.40 148.96 174.97 112.84 205.00 116.00 Z"/>
</g>
<g fill="None" fill-opacity="0.0" stroke="#5C5261" stroke-opacity="1.00" stroke-width="0.3"><path d="
M 205.00 116.00 
C 174.97 112.84 153.40 148.96 163.02 176.98 C 172.65 204.99 211.79 205.31 228.75 181.75 C 245.70 158.18 235.27 119.19 205.00 116.00
M 184.00 150.00 
C 191.46 157.64 195.72 149.25 201.70 144.70 C 207.68 140.15 218.75 141.30 223.75 147.25 C 228.76 153.19 230.48 163.42 227.07 170.07 C 223.67 176.73 217.46 181.30 210.92 182.92 C 204.39 184.55 193.04 179.61 192.22 171.78 C 191.41 163.94 186.92 157.03 184.00 150.00 Z"/>
</g>
<g fill="None" fill-opacity="0.0" stroke="#242422" stroke-opacity="1.00" stroke-width="0.3"><path d="
M 281.00 169.00 
C 280.89 171.96 280.84 175.05 281.00 178.00
C 282.58 207.15 321.14 231.75 345.25 212.25 C 369.37 192.76 368.09 155.24 343.23 135.77 C 318.37 116.30 282.18 137.98 281.00 169.00
M 326.00 131.00 
C 373.00 138.63 367.29 221.75 317.78 215.22 C 268.27 208.70 277.01 123.04 326.00 131.00 Z"/>
</g>
<g fill="None" fill-opacity="0.0" stroke="#5C5261" stroke-opacity="1.00" stroke-width="0.3"><path d="
M 326.00 131.00 
C 277.01 123.04 268.27 208.70 317.78 215.22 C 367.29 221.75 373.00 138.63 326.00 131.00
M 338.00 169.00 
C 337.59 173.84 332.44 176.80 328.00 177.00
C 329.02 193.29 307.61 201.05 297.75 189.25 C 287.90 177.45 288.10 162.56 303.70 154.70 C 319.29 146.83 325.46 175.45 338.00 169.00 Z"/>
</g>
<g fill="None" fill-opacity="0.0" stroke="#1F1E1D" stroke-opacity="1.00" stroke-width="0.3"><path d="
M 184.00 150.00 
C 186.92 157.03 191.41 163.94 192.22 171.78 C 193.04 179.61 204.39 184.55 210.92 182.92 C 217.46 181.30 223.67 176.73 227.07 170.07 C 230.48 163.42 228.76 153.19 223.75 147.25 C 218.75 141.30 207.68 140.15 201.70 144.70 C 195.72 149.25 191.46 157.64 184.00 150.00
M 219.00 150.00 
C 228.18 152.75 221.00 170.46 212.33 165.67 C 203.66 160.88 209.87 147.27 219.00 150.00 Z"/>
</g>
<g fill="None" fill-opacity="0.0" stroke="#F6F6F6" stroke-opacity="1.00" stroke-width="0.3"><path d="
M 219.00 150.00 
C 209.87 147.27 203.66 160.88 212.33 165.67 C 221.00 170.46 228.18 152.75 219.00 150.00 Z"/>
</g>
<g fill="None" fill-opacity="0.0" stroke="#1F1F1D" stroke-opacity="1.00" stroke-width="0.3"><path d="
M 338.00 169.00 
C 325.46 175.45 319.29 146.83 303.70 154.70 C 288.10 162.56 287.90 177.45 297.75 189.25 C 307.61 201.05 329.02 193.29 328.00 177.00
C 332.44 176.80 337.59 173.84 338.00 169.00
M 309.00 161.00 
C 316.97 164.35 310.40 181.81 301.78 176.22 C 293.16 170.63 300.21 157.31 309.00 161.00 Z"/>
</g>
<g fill="None" fill-opacity="0.0" stroke="#F8F8F8" stroke-opacity="1.00" stroke-width="0.3"><path d="
M 309.00 161.00 
C 300.21 157.31 293.16 170.63 301.78 176.22 C 310.40 181.81 316.97 164.35 309.00 161.00 Z"/>
</g>
<g fill="None" fill-opacity="0.0" stroke="#7A7B79" stroke-opacity="1.00" stroke-width="0.3"><path d="
M 281.00 178.00 
C 280.84 175.05 280.89 171.96 281.00 169.00
C 280.56 172.05 280.49 174.87 281.00 178.00 Z"/>
</g>
<g fill="None" fill-opacity="0.0" stroke="#22211F" stroke-opacity="1.00" stroke-width="0.3"><path d="
M 258.00 197.00 
C 264.89 194.97 269.01 193.00 273.24 186.25 C 277.48 179.49 263.42 180.14 258.00 179.00 C 252.58 177.85 238.68 175.05 242.23 182.77 C 245.78 190.49 247.62 191.96 254.00 196.00
C 251.23 205.90 235.72 202.16 230.00 196.00
C 239.00 202.93 238.29 214.31 239.02 224.98 C 239.76 235.64 253.06 241.95 261.25 235.25 C 269.43 228.54 271.23 218.76 272.00 209.00
C 275.04 207.07 279.20 206.53 281.00 203.00
C 273.71 206.48 260.21 206.55 258.00 197.00
M 266.00 222.00 
C 264.49 239.35 240.13 237.23 241.00 220.00
C 249.12 216.25 258.44 218.11 266.00 222.00 Z"/>
</g>
<g fill="None" fill-opacity="0.0" stroke="#D74863" stroke-opacity="1.00" stroke-width="0.3"><path d="
M 266.00 222.00 
C 258.44 218.11 249.12 216.25 241.00 220.00
C 240.13 237.23 264.49 239.35 266.00 222.00 Z"/>
</g>
<g fill="None" fill-opacity="0.0" stroke="#5B5161" stroke-opacity="1.00" stroke-width="0.3"><path d="
M 109.00 272.00 
C 108.49 285.38 120.56 294.57 129.75 303.25 C 138.94 311.93 150.98 320.00 162.69 323.31 C 174.41 326.61 197.21 329.32 207.00 320.00
C 216.55 299.37 190.64 294.85 177.70 287.30 C 164.75 279.76 148.56 273.38 138.00 262.00
C 143.77 266.45 150.88 264.13 153.00 257.00
C 145.82 251.33 140.41 243.73 136.00 236.00
C 120.14 239.97 109.60 256.18 109.00 272.00 Z"/>
</g>
<g fill="None" fill-opacity="0.0" stroke="#5B5161" stroke-opacity="1.00" stroke-width="0.3"><path d="
M 317.00 324.00 
C 323.41 329.21 335.79 322.03 343.07 322.07 C 350.36 322.12 360.21 317.66 367.07 315.07 C 373.94 312.49 379.79 308.04 385.75 303.75 C 391.70 299.45 396.86 294.04 400.75 287.75 C 404.64 281.46 410.52 274.01 410.00 266.00
C 407.46 254.52 401.46 243.44 390.07 237.93 C 378.68 232.41 376.39 253.92 369.00 260.00
C 372.57 264.86 377.09 264.00 381.00 260.00
C 373.48 272.35 355.24 281.28 344.70 289.70 C 334.16 298.11 306.77 306.40 317.00 324.00 Z"/>
</g>
<g fill="None" fill-opacity="0.0" stroke="#BED1E7" stroke-opacity="1.00" stroke-width="0.3"><path d="
M 165.00 251.00 
C 161.34 251.00 155.37 246.68 152.25 244.75 C 149.13 242.83 143.55 240.24 141.00 238.00
C 144.91 244.06 147.05 245.09 151.75 251.25 C 156.46 257.41 159.35 253.79 165.00 251.00 Z"/>
</g>
<g fill="None" fill-opacity="0.0" stroke="#2B2B2A" stroke-opacity="1.00" stroke-width="0.3"><path d="
M 237.00 247.00 
C 242.68 255.15 255.69 256.14 263.00 250.00
C 263.44 248.33 265.46 247.66 266.00 246.00
C 256.09 253.00 242.95 251.82 235.00 242.00
C 235.41 243.72 236.26 245.45 237.00 247.00 Z"/>
</g>
<g fill="None" fill-opacity="0.0" stroke="#F44B47" stroke-opacity="1.00" stroke-width="0.3"><path d="
M 155.00 270.00 
C 160.97 269.41 165.53 261.86 172.23 261.23 C 178.92 260.60 186.81 256.33 194.00 257.00
C 188.62 281.85 237.08 295.29 238.00 267.00
C 246.36 270.76 254.84 277.44 259.00 286.00
C 273.28 265.99 297.36 254.95 322.00 256.00
C 312.33 269.86 328.79 284.45 342.00 286.00
C 351.91 281.30 360.13 273.11 370.00 268.00
C 342.61 235.59 282.38 237.24 259.00 275.00
C 236.22 237.06 177.69 237.98 149.00 268.00
C 150.85 268.64 153.32 269.09 155.00 270.00 Z"/>
</g>
<g fill="None" fill-opacity="0.0" stroke="#B8C7D9" stroke-opacity="1.00" stroke-width="0.3"><path d="
M 238.00 250.00 
C 242.11 252.03 247.42 255.69 251.00 259.00
C 250.63 257.13 260.36 253.37 263.00 250.00
C 255.69 256.14 242.68 255.15 237.00 247.00
C 237.18 247.37 238.52 250.69 238.00 250.00 Z"/>
</g>
<g fill="None" fill-opacity="0.0" stroke="#EA2B21" stroke-opacity="1.00" stroke-width="0.3"><path d="
M 155.00 270.00 
C 165.70 275.83 177.94 283.77 189.25 288.75 C 200.57 293.72 215.50 301.93 211.98 315.98 C 208.46 330.02 194.11 336.29 181.00 337.00
C 177.26 337.61 173.67 337.60 170.00 337.00
C 152.32 336.04 141.41 327.44 126.00 321.00
C 129.83 329.89 131.06 343.65 138.30 352.70 C 145.55 361.74 149.79 371.21 158.75 379.25 C 167.72 387.28 174.59 392.98 185.08 398.92 C 195.56 404.87 205.56 409.93 217.69 413.31 C 229.83 416.68 245.61 419.02 259.00 419.00 C 272.39 418.98 287.85 417.29 300.07 414.07 C 312.30 410.86 322.52 405.83 333.23 400.23 C 343.94 394.63 350.53 388.50 359.75 380.75 C 368.97 373.00 373.41 363.64 380.77 354.77 C 388.13 345.90 389.61 331.45 394.00 323.00
C 379.71 328.55 365.88 339.15 350.00 340.00 C 334.12 340.85 311.95 334.19 312.00 317.00 C 312.05 299.81 330.69 293.68 342.00 286.00
C 328.79 284.45 312.33 269.86 322.00 256.00
C 297.36 254.95 273.28 265.99 259.00 286.00
C 254.84 277.44 246.36 270.76 238.00 267.00
C 237.08 295.29 188.62 281.85 194.00 257.00
C 186.81 256.33 178.92 260.60 172.23 261.23 C 165.53 261.86 160.97 269.41 155.00 270.00 Z"/>
</g>
<g fill="None" fill-opacity="0.0" stroke="#3D3641" stroke-opacity="1.00" stroke-width="0.3"><path d="
M 317.00 324.00 
C 330.50 347.22 364.16 336.55 383.75 325.75 C 403.35 314.96 416.89 288.70 410.00 266.00
C 410.52 274.01 404.64 281.46 400.75 287.75 C 396.86 294.04 391.70 299.45 385.75 303.75 C 379.79 308.04 373.94 312.49 367.07 315.07 C 360.21 317.66 350.36 322.12 343.07 322.07 C 335.79 322.03 323.41 329.21 317.00 324.00 Z"/>
</g>
<g fill="None" fill-opacity="0.0" stroke="#3D3641" stroke-opacity="1.00" stroke-width="0.3"><path d="
M 207.00 320.00 
C 197.21 329.32 174.41 326.61 162.69 323.31 C 150.98 320.00 138.94 311.93 129.75 303.25 C 120.56 294.57 108.49 285.38 109.00 272.00
C 105.84 294.11 120.46 317.81 140.92 326.08 C 161.39 334.34 193.08 342.72 207.00 320.00 Z"/>
</g>
<g fill="None" fill-opacity="0.0" stroke="#CC1B17" stroke-opacity="1.00" stroke-width="0.3"><path d="
M 394.00 323.00 
C 389.61 331.45 388.13 345.90 380.77 354.77 C 373.41 363.64 368.97 373.00 359.75 380.75 C 350.53 388.50 343.94 394.63 333.23 400.23 C 322.52 405.83 312.30 410.86 300.07 414.07 C 287.85 417.29 272.39 418.98 259.00 419.00 C 245.61 419.02 229.83 416.68 217.69 413.31 C 205.56 409.93 195.56 404.87 185.08 398.92 C 174.59 392.98 167.72 387.28 158.75 379.25 C 149.79 371.21 145.55 361.74 138.30 352.70 C 131.06 343.65 129.83 329.89 126.00 321.00
C 125.87 319.97 124.83 319.41 124.00 319.00
C 122.56 333.59 125.01 351.73 129.68 364.32 C 134.35 376.91 140.43 386.96 147.70 397.30 C 154.96 407.64 161.66 415.73 170.75 424.25 C 179.85 432.77 187.96 441.53 197.77 448.23 C 207.58 454.93 217.44 464.28 227.77 469.23 C 238.10 474.18 248.59 485.84 259.78 487.22 C 270.97 488.60 282.09 475.20 292.25 470.25 C 302.42 465.31 312.68 456.00 322.25 449.25 C 331.81 442.50 339.73 433.95 348.75 425.75 C 357.78 417.55 364.60 408.04 372.08 398.08 C 379.56 388.13 384.85 377.11 390.07 365.07 C 395.30 353.04 397.09 335.07 396.00 321.00
C 394.80 320.67 394.63 322.75 394.00 323.00 Z"/>
</g>
<g fill="None" fill-opacity="0.0" stroke="#8E251E" stroke-opacity="1.00" stroke-width="0.3"><path d="
M 181.00 337.00 
C 177.41 337.19 173.59 337.19 170.00 337.00
C 173.67 337.60 177.26 337.61 181.00 337.00 Z"/>
</g>
<g fill="None" fill-opacity="0.0" stroke="#5B5161" stroke-opacity="1.00" stroke-width="0.3"><path d="
M 130.00 374.00 
C 120.79 372.73 100.29 379.06 111.00 390.00
C 99.79 376.41 68.91 365.94 64.99 389.99 C 61.08 414.04 70.13 426.16 81.75 446.25 C 93.36 466.35 116.63 466.77 139.00 465.00 C 161.37 463.23 190.84 467.16 213.00 464.00
C 179.76 440.98 146.14 411.58 130.00 374.00
M 84.00 391.00 
C 88.69 391.96 91.38 406.49 85.30 405.64 C 79.22 404.80 77.23 389.62 84.00 391.00
M 75.00 398.00 
C 79.58 397.83 84.19 412.56 77.97 412.97 C 71.74 413.38 68.89 398.23 75.00 398.00
M 96.00 399.00 
C 101.00 400.02 102.11 415.20 96.32 413.66 C 90.53 412.12 89.73 397.72 96.00 399.00
M 78.00 417.00 
C 82.96 418.27 85.41 432.37 78.77 431.21 C 72.13 430.05 70.65 415.12 78.00 417.00
M 94.00 418.00 
C 100.23 418.41 102.16 427.74 104.92 432.08 C 107.69 436.41 106.30 450.83 99.33 448.67 C 92.35 446.51 91.23 439.73 88.23 434.77 C 85.23 429.81 86.49 417.50 94.00 418.00 Z"/>
</g>
<g fill="None" fill-opacity="0.0" stroke="#5B5161" stroke-opacity="1.00" stroke-width="0.3"><path d="
M 368.00 465.00 
C 380.67 465.00 393.33 465.00 406.00 465.00
C 401.61 460.04 397.86 454.56 397.00 448.00
C 401.45 455.26 406.93 465.10 417.00 465.00
C 431.15 458.71 440.43 446.05 447.23 432.23 C 454.03 418.41 462.28 396.70 452.75 381.25 C 443.22 365.80 420.23 381.04 411.00 389.00
C 410.62 385.88 415.34 385.11 415.00 382.00
C 404.30 369.11 388.33 373.69 383.77 386.77 C 379.21 399.85 369.60 405.88 362.25 416.25 C 354.91 426.63 345.75 433.35 336.75 441.75 C 327.75 450.15 318.20 457.49 308.00 464.00
C 327.01 465.83 348.17 465.00 368.00 465.00
M 436.00 391.00 
C 440.99 392.90 436.07 407.17 430.97 405.97 C 425.87 404.78 430.09 388.75 436.00 391.00
M 444.00 398.00 
C 449.27 399.76 444.82 414.76 438.99 412.99 C 433.16 411.22 439.05 396.35 444.00 398.00
M 424.00 399.00 
C 429.01 400.91 424.45 415.81 418.99 413.99 C 413.53 412.18 418.63 396.95 424.00 399.00
M 443.00 417.00 
C 447.54 419.77 441.72 433.83 436.32 431.66 C 430.92 429.49 438.22 414.08 443.00 417.00
M 427.00 418.00 
C 433.00 420.16 429.73 433.81 427.69 437.69 C 425.66 441.58 421.12 451.68 414.78 448.22 C 408.43 444.76 411.84 434.17 413.77 429.77 C 415.70 425.37 420.64 415.71 427.00 418.00 Z"/>
</g>
<g fill="None" fill-opacity="0.0" stroke="#29242C" stroke-opacity="1.00" stroke-width="0.3"><path d="
M 84.00 391.00 
C 77.23 389.62 79.22 404.80 85.30 405.64 C 91.38 406.49 88.69 391.96 84.00 391.00 Z"/>
</g>
<g fill="None" fill-opacity="0.0" stroke="#2A242D" stroke-opacity="1.00" stroke-width="0.3"><path d="
M 436.00 391.00 
C 430.09 388.75 425.87 404.78 430.97 405.97 C 436.07 407.17 440.99 392.90 436.00 391.00 Z"/>
</g>
<g fill="None" fill-opacity="0.0" stroke="#2B252E" stroke-opacity="1.00" stroke-width="0.3"><path d="
M 75.00 398.00 
C 68.89 398.23 71.74 413.38 77.97 412.97 C 84.19 412.56 79.58 397.83 75.00 398.00 Z"/>
</g>
<g fill="None" fill-opacity="0.0" stroke="#2A252D" stroke-opacity="1.00" stroke-width="0.3"><path d="
M 444.00 398.00 
C 439.05 396.35 433.16 411.22 438.99 412.99 C 444.82 414.76 449.27 399.76 444.00 398.00 Z"/>
</g>
<g fill="None" fill-opacity="0.0" stroke="#29242C" stroke-opacity="1.00" stroke-width="0.3"><path d="
M 96.00 399.00 
C 89.73 397.72 90.53 412.12 96.32 413.66 C 102.11 415.20 101.00 400.02 96.00 399.00 Z"/>
</g>
<g fill="None" fill-opacity="0.0" stroke="#2A252D" stroke-opacity="1.00" stroke-width="0.3"><path d="
M 424.00 399.00 
C 418.63 396.95 413.53 412.18 418.99 413.99 C 424.45 415.81 429.01 400.91 424.00 399.00 Z"/>
</g>
<g fill="None" fill-opacity="0.0" stroke="#2B262F" stroke-opacity="1.00" stroke-width="0.3"><path d="
M 78.00 417.00 
C 70.65 415.12 72.13 430.05 78.77 431.21 C 85.41 432.37 82.96 418.27 78.00 417.00 Z"/>
</g>
<g fill="None" fill-opacity="0.0" stroke="#2A252D" stroke-opacity="1.00" stroke-width="0.3"><path d="
M 443.00 417.00 
C 438.22 414.08 430.92 429.49 436.32 431.66 C 441.72 433.83 447.54 419.77 443.00 417.00 Z"/>
</g>
<g fill="None" fill-opacity="0.0" stroke="#29242C" stroke-opacity="1.00" stroke-width="0.3"><path d="
M 94.00 418.00 
C 86.49 417.50 85.23 429.81 88.23 434.77 C 91.23 439.73 92.35 446.51 99.33 448.67 C 106.30 450.83 107.69 436.41 104.92 432.08 C 102.16 427.74 100.23 418.41 94.00 418.00 Z"/>
</g>
<g fill="None" fill-opacity="0.0" stroke="#29242C" stroke-opacity="1.00" stroke-width="0.3"><path d="
M 427.00 418.00 
C 420.64 415.71 415.70 425.37 413.77 429.77 C 411.84 434.17 408.43 444.76 414.78 448.22 C 421.12 451.68 425.66 441.58 427.69 437.69 C 429.73 433.81 433.00 420.16 427.00 418.00 Z"/>
</g>
<g fill="None" fill-opacity="0.0" stroke="#2F2E37" stroke-opacity="0.98" stroke-width="0.3"><path d="
M 368.00 465.00 
C 382.01 466.36 398.78 464.66 412.00 469.00
C 414.31 468.79 415.50 469.52 418.00 469.00
C 418.65 467.77 417.78 465.70 417.00 465.00
C 406.93 465.10 401.45 455.26 397.00 448.00
C 397.86 454.56 401.61 460.04 406.00 465.00
C 393.33 465.00 380.67 465.00 368.00 465.00 Z"/>
</g>
<g fill="#000000" fill-opacity="0.00" stroke="None">
<path d="
M 0.00 512.00 
L 512.00 512.00
L 512.00 0.00
L 0.00 0.00
L 0.00 512.00
M 418.00 469.00 
C 415.50 469.52 414.31 468.79 412.00 469.00
C 397.60 470.28 381.78 470.79 367.00 470.00 C 352.22 469.21 336.59 471.06 322.00 469.00 C 307.41 466.94 296.19 472.78 285.75 479.75 C 275.32 486.73 266.69 494.86 255.77 490.23 C 244.85 485.60 237.12 480.21 226.30 473.70 C 215.49 467.18 197.68 468.68 184.00 469.00 C 170.32 469.32 152.78 470.65 139.00 470.00 C 125.22 469.35 108.20 472.35 96.77 466.23 C 85.34 460.11 80.24 452.54 73.75 442.25 C 67.25 431.97 62.56 421.41 60.67 409.33 C 58.78 397.24 59.15 381.39 69.70 373.70 C 80.24 366.00 94.67 371.86 103.00 380.00
C 108.59 373.18 117.77 368.97 127.00 370.00
C 124.52 357.34 116.36 344.98 119.00 331.00 C 121.64 317.02 113.09 309.20 107.69 297.31 C 102.30 285.41 104.61 268.16 108.77 256.77 C 112.94 245.39 121.74 236.73 133.00 233.00
C 109.62 194.19 136.14 152.95 151.00 117.00
C 127.10 98.80 122.80 58.02 146.25 36.25 C 169.69 14.47 208.65 31.46 220.00 59.00
C 229.80 55.34 243.23 55.92 253.00 53.00 C 262.78 50.08 262.87 37.89 275.22 36.22 C 287.57 34.56 295.96 44.94 289.00 57.00
C 299.21 59.77 308.13 62.73 317.23 68.77 C 326.33 74.81 332.83 63.42 341.70 58.70 C 350.56 53.97 362.85 47.71 374.00 50.00 C 385.15 52.29 391.25 56.48 399.25 64.75 C 407.25 73.02 409.44 84.66 409.00 96.00 C 408.56 107.34 405.53 118.34 399.23 127.23 C 392.93 136.12 387.13 142.49 377.00 146.00
C 382.57 173.82 390.62 203.64 385.00 232.00
C 396.81 235.84 404.81 243.31 410.31 254.69 C 415.80 266.08 418.30 283.19 414.01 296.01 C 409.71 308.82 398.52 314.85 401.00 329.00 C 403.48 343.15 395.65 356.95 393.00 370.00
C 402.38 369.21 412.07 371.70 418.00 379.00
C 430.12 367.51 452.99 366.17 458.92 384.08 C 464.86 401.98 458.50 421.63 450.25 436.25 C 441.99 450.86 433.83 462.91 418.00 469.00 Z"/>
</g>
<g fill="#211F1E" fill-opacity="0.93" stroke="None">
<path d="
M 412.00 469.00 
C 398.78 464.66 382.01 466.36 368.00 465.00
C 348.17 465.00 327.01 465.83 308.00 464.00
C 318.20 457.49 327.75 450.15 336.75 441.75 C 345.75 433.35 354.91 426.63 362.25 416.25 C 369.60 405.88 379.21 399.85 383.77 386.77 C 388.33 373.69 404.30 369.11 415.00 382.00
C 415.34 385.11 410.62 385.88 411.00 389.00
C 420.23 381.04 443.22 365.80 452.75 381.25 C 462.28 396.70 454.03 418.41 447.23 432.23 C 440.43 446.05 431.15 458.71 417.00 465.00
C 417.78 465.70 418.65 467.77 418.00 469.00
C 433.83 462.91 441.99 450.86 450.25 436.25 C 458.50 421.63 464.86 401.98 458.92 384.08 C 452.99 366.17 430.12 367.51 418.00 379.00
C 412.07 371.70 402.38 369.21 393.00 370.00
C 395.65 356.95 403.48 343.15 401.00 329.00 C 398.52 314.85 409.71 308.82 414.01 296.01 C 418.30 283.19 415.80 266.08 410.31 254.69 C 404.81 243.31 396.81 235.84 385.00 232.00
C 390.62 203.64 382.57 173.82 377.00 146.00
C 387.13 142.49 392.93 136.12 399.23 127.23 C 405.53 118.34 408.56 107.34 409.00 96.00 C 409.44 84.66 407.25 73.02 399.25 64.75 C 391.25 56.48 385.15 52.29 374.00 50.00 C 362.85 47.71 350.56 53.97 341.70 58.70 C 332.83 63.42 326.33 74.81 317.23 68.77 C 308.13 62.73 299.21 59.77 289.00 57.00
C 295.96 44.94 287.57 34.56 275.22 36.22 C 262.87 37.89 262.78 50.08 253.00 53.00 C 243.23 55.92 229.80 55.34 220.00 59.00
C 208.65 31.46 169.69 14.47 146.25 36.25 C 122.80 58.02 127.10 98.80 151.00 117.00
C 136.14 152.95 109.62 194.19 133.00 233.00
C 121.74 236.73 112.94 245.39 108.77 256.77 C 104.61 268.16 102.30 285.41 107.69 297.31 C 113.09 309.20 121.64 317.02 119.00 331.00 C 116.36 344.98 124.52 357.34 127.00 370.00
C 117.77 368.97 108.59 373.18 103.00 380.00
C 94.67 371.86 80.24 366.00 69.70 373.70 C 59.15 381.39 58.78 397.24 60.67 409.33 C 62.56 421.41 67.25 431.97 73.75 442.25 C 80.24 452.54 85.34 460.11 96.77 466.23 C 108.20 472.35 125.22 469.35 139.00 470.00 C 152.78 470.65 170.32 469.32 184.00 469.00 C 197.68 468.68 215.49 467.18 226.30 473.70 C 237.12 480.21 244.85 485.60 255.77 490.23 C 266.69 494.86 275.32 486.73 285.75 479.75 C 296.19 472.78 307.41 466.94 322.00 469.00 C 336.59 471.06 352.22 469.21 367.00 470.00 C 381.78 470.79 397.60 470.28 412.00 469.00
M 202.00 68.00 
C 199.04 69.51 196.31 71.73 193.00 72.00
C 186.99 58.30 170.55 50.39 156.00 55.00
C 158.10 57.08 162.15 55.50 165.00 56.00
C 146.89 64.85 147.20 91.29 162.00 103.00
C 159.06 106.90 156.18 110.69 154.00 115.00
C 121.56 92.65 131.74 27.58 176.00 30.00
C 194.06 31.23 209.06 46.64 217.00 62.00
C 211.48 62.33 206.95 65.84 202.00 68.00
M 277.00 76.00 
C 283.29 76.21 293.07 66.45 285.00 61.00
C 289.13 59.00 294.38 62.44 298.00 64.00
C 321.08 72.52 339.10 85.10 353.92 106.08 C 368.74 127.06 376.56 152.99 379.98 179.02 C 383.39 205.06 387.36 235.74 367.00 257.00
C 335.18 235.89 284.44 233.75 260.00 268.00
C 256.70 265.46 253.44 262.31 251.00 259.00
C 247.42 255.69 242.11 252.03 238.00 250.00
C 215.64 238.94 187.20 240.02 165.00 251.00
C 159.35 253.79 156.46 257.41 151.75 251.25 C 147.05 245.09 144.91 244.06 141.00 238.00
C 134.11 227.33 130.71 218.47 128.02 205.98 C 125.34 193.48 128.75 179.05 134.31 168.31 C 139.86 157.56 141.42 146.05 146.77 135.77 C 152.12 125.49 156.29 115.38 163.75 106.75 C 171.21 98.12 176.29 90.62 185.25 83.25 C 194.20 75.88 203.28 70.66 214.08 66.08 C 224.87 61.49 238.29 59.11 250.01 57.01 C 261.73 54.91 263.83 38.57 279.00 40.00 C 294.17 41.43 283.68 58.94 278.00 67.00
C 282.28 62.93 286.08 65.14 283.24 69.25 C 280.41 73.35 274.16 73.50 277.00 76.00
M 376.00 55.00 
C 418.37 63.77 411.81 130.08 375.00 142.00
C 370.85 133.77 370.40 127.93 378.75 122.75 C 387.10 117.57 386.11 109.13 388.00 101.00 C 389.89 92.87 376.22 83.52 385.00 82.00
C 372.10 75.18 356.71 81.14 347.00 91.00
C 341.69 92.46 334.11 75.15 327.00 76.00
C 338.30 62.77 357.67 50.18 376.00 55.00
M 191.00 75.00 
C 182.73 82.63 177.32 82.56 170.25 93.25 C 163.18 103.93 156.97 92.99 155.01 82.99 C 153.04 72.99 157.95 61.94 168.22 59.22 C 178.50 56.51 185.75 68.54 191.00 75.00
M 369.00 126.00 
C 363.32 115.13 357.71 103.73 349.00 95.00
C 356.55 83.67 374.15 77.59 381.77 91.23 C 389.39 104.87 381.54 118.75 369.00 126.00
M 207.00 320.00 
C 193.08 342.72 161.39 334.34 140.92 326.08 C 120.46 317.81 105.84 294.11 109.00 272.00
C 109.60 256.18 120.14 239.97 136.00 236.00
C 140.41 243.73 145.82 251.33 153.00 257.00
C 150.88 264.13 143.77 266.45 138.00 262.00
C 148.56 273.38 164.75 279.76 177.70 287.30 C 190.64 294.85 216.55 299.37 207.00 320.00
M 410.00 266.00 
C 416.89 288.70 403.35 314.96 383.75 325.75 C 364.16 336.55 330.50 347.22 317.00 324.00
C 306.77 306.40 334.16 298.11 344.70 289.70 C 355.24 281.28 373.48 272.35 381.00 260.00
C 377.09 264.00 372.57 264.86 369.00 260.00
C 376.39 253.92 378.68 232.41 390.07 237.93 C 401.46 243.44 407.46 254.52 410.00 266.00
M 342.00 286.00 
C 330.69 293.68 312.05 299.81 312.00 317.00 C 311.95 334.19 334.12 340.85 350.00 340.00 C 365.88 339.15 379.71 328.55 394.00 323.00
C 394.63 322.75 394.80 320.67 396.00 321.00
C 397.09 335.07 395.30 353.04 390.07 365.07 C 384.85 377.11 379.56 388.13 372.08 398.08 C 364.60 408.04 357.78 417.55 348.75 425.75 C 339.73 433.95 331.81 442.50 322.25 449.25 C 312.68 456.00 302.42 465.31 292.25 470.25 C 282.09 475.20 270.97 488.60 259.78 487.22 C 248.59 485.84 238.10 474.18 227.77 469.23 C 217.44 464.28 207.58 454.93 197.77 448.23 C 187.96 441.53 179.85 432.77 170.75 424.25 C 161.66 415.73 154.96 407.64 147.70 397.30 C 140.43 386.96 134.35 376.91 129.68 364.32 C 125.01 351.73 122.56 333.59 124.00 319.00
C 124.83 319.41 125.87 319.97 126.00 321.00
C 141.41 327.44 152.32 336.04 170.00 337.00
C 173.59 337.19 177.41 337.19 181.00 337.00
C 194.11 336.29 208.46 330.02 211.98 315.98 C 215.50 301.93 200.57 293.72 189.25 288.75 C 177.94 283.77 165.70 275.83 155.00 270.00
C 153.32 269.09 150.85 268.64 149.00 268.00
C 177.69 237.98 236.22 237.06 259.00 275.00
C 282.38 237.24 342.61 235.59 370.00 268.00
C 360.13 273.11 351.91 281.30 342.00 286.00
M 130.00 374.00 
C 146.14 411.58 179.76 440.98 213.00 464.00
C 190.84 467.16 161.37 463.23 139.00 465.00 C 116.63 466.77 93.36 466.35 81.75 446.25 C 70.13 426.16 61.08 414.04 64.99 389.99 C 68.91 365.94 99.79 376.41 111.00 390.00
C 100.29 379.06 120.79 372.73 130.00 374.00 Z"/>
</g>
<g fill="#5B5161" fill-opacity="1.00" stroke="None">
<path d="
M 202.00 68.00 
C 205.74 62.55 198.42 49.25 194.23 44.77 C 190.04 40.29 181.88 31.46 176.00 30.00
C 131.74 27.58 121.56 92.65 154.00 115.00
C 156.18 110.69 159.06 106.90 162.00 103.00
C 147.20 91.29 146.89 64.85 165.00 56.00
C 162.15 55.50 158.10 57.08 156.00 55.00
C 170.55 50.39 186.99 58.30 193.00 72.00
C 196.31 71.73 199.04 69.51 202.00 68.00 Z"/>
</g>
<g fill="#3D3741" fill-opacity="1.00" stroke="None">
<path d="
M 202.00 68.00 
C 206.95 65.84 211.48 62.33 217.00 62.00
C 209.06 46.64 194.06 31.23 176.00 30.00
C 181.88 31.46 190.04 40.29 194.23 44.77 C 198.42 49.25 205.74 62.55 202.00 68.00 Z"/>
</g>
<g fill="#FCFCFC" fill-opacity="1.00" stroke="None">
<path d="
M 141.00 238.00 
C 143.55 240.24 149.13 242.83 152.25 244.75 C 155.37 246.68 161.34 251.00 165.00 251.00
C 187.20 240.02 215.64 238.94 238.00 250.00
C 238.52 250.69 237.18 247.37 237.00 247.00
C 236.26 245.45 235.41 243.72 235.00 242.00
C 242.95 251.82 256.09 253.00 266.00 246.00
C 265.46 247.66 263.44 248.33 263.00 250.00
C 260.36 253.37 250.63 257.13 251.00 259.00
C 253.44 262.31 256.70 265.46 260.00 268.00
C 284.44 233.75 335.18 235.89 367.00 257.00
C 387.36 235.74 383.39 205.06 379.98 179.02 C 376.56 152.99 368.74 127.06 353.92 106.08 C 339.10 85.10 321.08 72.52 298.00 64.00
C 302.47 73.05 282.23 77.40 277.00 76.00
C 274.16 73.50 280.41 73.35 283.24 69.25 C 286.08 65.14 282.28 62.93 278.00 67.00
C 283.68 58.94 294.17 41.43 279.00 40.00 C 263.83 38.57 261.73 54.91 250.01 57.01 C 238.29 59.11 224.87 61.49 214.08 66.08 C 203.28 70.66 194.20 75.88 185.25 83.25 C 176.29 90.62 171.21 98.12 163.75 106.75 C 156.29 115.38 152.12 125.49 146.77 135.77 C 141.42 146.05 139.86 157.56 134.31 168.31 C 128.75 179.05 125.34 193.48 128.02 205.98 C 130.71 218.47 134.11 227.33 141.00 238.00
M 206.00 113.00 
C 238.65 117.66 249.34 158.29 231.08 184.08 C 212.82 209.87 170.05 207.90 160.02 177.98 C 150.00 148.05 173.25 108.32 206.00 113.00
M 281.00 178.00 
C 280.49 174.87 280.56 172.05 281.00 169.00
C 282.18 137.98 318.37 116.30 343.23 135.77 C 368.09 155.24 369.37 192.76 345.25 212.25 C 321.14 231.75 282.58 207.15 281.00 178.00
M 258.00 197.00 
C 260.21 206.55 273.71 206.48 281.00 203.00
C 279.20 206.53 275.04 207.07 272.00 209.00
C 271.23 218.76 269.43 228.54 261.25 235.25 C 253.06 241.95 239.76 235.64 239.02 224.98 C 238.29 214.31 239.00 202.93 230.00 196.00
C 235.72 202.16 251.23 205.90 254.00 196.00
C 247.62 191.96 245.78 190.49 242.23 182.77 C 238.68 175.05 252.58 177.85 258.00 179.00 C 263.42 180.14 277.48 179.49 273.24 186.25 C 269.01 193.00 264.89 194.97 258.00 197.00 Z"/>
</g>
<g fill="#3D3641" fill-opacity="1.00" stroke="None">
<path d="
M 347.00 91.00 
C 339.45 91.00 339.79 79.56 343.77 75.77 C 347.76 71.99 350.21 64.72 356.25 62.25 C 362.28 59.77 369.08 54.92 376.00 55.00
C 357.67 50.18 338.30 62.77 327.00 76.00
C 334.11 75.15 341.69 92.46 347.00 91.00 Z"/>
</g>
<g fill="#5B5160" fill-opacity="1.00" stroke="None">
<path d="
M 347.00 91.00 
C 356.71 81.14 372.10 75.18 385.00 82.00
C 376.22 83.52 389.89 92.87 388.00 101.00 C 386.11 109.13 387.10 117.57 378.75 122.75 C 370.40 127.93 370.85 133.77 375.00 142.00
C 411.81 130.08 418.37 63.77 376.00 55.00
C 369.08 54.92 362.28 59.77 356.25 62.25 C 350.21 64.72 347.76 71.99 343.77 75.77 C 339.79 79.56 339.45 91.00 347.00 91.00 Z"/>
</g>
<g fill="#3D3641" fill-opacity="1.00" stroke="None">
<path d="
M 191.00 75.00 
C 185.75 68.54 178.50 56.51 168.22 59.22 C 157.95 61.94 153.04 72.99 155.01 82.99 C 156.97 92.99 163.18 103.93 170.25 93.25 C 177.32 82.56 182.73 82.63 191.00 75.00 Z"/>
</g>
<g fill="#C1D3E9" fill-opacity="1.00" stroke="None">
<path d="
M 277.00 76.00 
C 282.23 77.40 302.47 73.05 298.00 64.00
C 294.38 62.44 289.13 59.00 285.00 61.00
C 293.07 66.45 283.29 76.21 277.00 76.00 Z"/>
</g>
<g fill="#3D3641" fill-opacity="1.00" stroke="None">
<path d="
M 369.00 126.00 
C 381.54 118.75 389.39 104.87 381.77 91.23 C 374.15 77.59 356.55 83.67 349.00 95.00
C 357.71 103.73 363.32 115.13 369.00 126.00 Z"/>
</g>
<g fill="#242423" fill-opacity="1.00" stroke="None">
<path d="
M 206.00 113.00 
C 173.25 108.32 150.00 148.05 160.02 177.98 C 170.05 207.90 212.82 209.87 231.08 184.08 C 249.34 158.29 238.65 117.66 206.00 113.00
M 205.00 116.00 
C 235.27 119.19 245.70 158.18 228.75 181.75 C 211.79 205.31 172.65 204.99 163.02 176.98 C 153.40 148.96 174.97 112.84 205.00 116.00 Z"/>
</g>
<g fill="#5C5261" fill-opacity="1.00" stroke="None">
<path d="
M 205.00 116.00 
C 174.97 112.84 153.40 148.96 163.02 176.98 C 172.65 204.99 211.79 205.31 228.75 181.75 C 245.70 158.18 235.27 119.19 205.00 116.00
M 184.00 150.00 
C 191.46 157.64 195.72 149.25 201.70 144.70 C 207.68 140.15 218.75 141.30 223.75 147.25 C 228.76 153.19 230.48 163.42 227.07 170.07 C 223.67 176.73 217.46 181.30 210.92 182.92 C 204.39 184.55 193.04 179.61 192.22 171.78 C 191.41 163.94 186.92 157.03 184.00 150.00 Z"/>
</g>
<g fill="#242422" fill-opacity="1.00" stroke="None">
<path d="
M 281.00 169.00 
C 280.89 171.96 280.84 175.05 281.00 178.00
C 282.58 207.15 321.14 231.75 345.25 212.25 C 369.37 192.76 368.09 155.24 343.23 135.77 C 318.37 116.30 282.18 137.98 281.00 169.00
M 326.00 131.00 
C 373.00 138.63 367.29 221.75 317.78 215.22 C 268.27 208.70 277.01 123.04 326.00 131.00 Z"/>
</g>
<g fill="#5C5261" fill-opacity="1.00" stroke="None">
<path d="
M 326.00 131.00 
C 277.01 123.04 268.27 208.70 317.78 215.22 C 367.29 221.75 373.00 138.63 326.00 131.00
M 338.00 169.00 
C 337.59 173.84 332.44 176.80 328.00 177.00
C 329.02 193.29 307.61 201.05 297.75 189.25 C 287.90 177.45 288.10 162.56 303.70 154.70 C 319.29 146.83 325.46 175.45 338.00 169.00 Z"/>
</g>
<g fill="#1F1E1D" fill-opacity="1.00" stroke="None">
<path d="
M 184.00 150.00 
C 186.92 157.03 191.41 163.94 192.22 171.78 C 193.04 179.61 204.39 184.55 210.92 182.92 C 217.46 181.30 223.67 176.73 227.07 170.07 C 230.48 163.42 228.76 153.19 223.75 147.25 C 218.75 141.30 207.68 140.15 201.70 144.70 C 195.72 149.25 191.46 157.64 184.00 150.00
M 219.00 150.00 
C 228.18 152.75 221.00 170.46 212.33 165.67 C 203.66 160.88 209.87 147.27 219.00 150.00 Z"/>
</g>
<g fill="#F6F6F6" fill-opacity="1.00" stroke="None">
<path d="
M 219.00 150.00 
C 209.87 147.27 203.66 160.88 212.33 165.67 C 221.00 170.46 228.18 152.75 219.00 150.00 Z"/>
</g>
<g fill="#1F1F1D" fill-opacity="1.00" stroke="None">
<path d="
M 338.00 169.00 
C 325.46 175.45 319.29 146.83 303.70 154.70 C 288.10 162.56 287.90 177.45 297.75 189.25 C 307.61 201.05 329.02 193.29 328.00 177.00
C 332.44 176.80 337.59 173.84 338.00 169.00
M 309.00 161.00 
C 316.97 164.35 310.40 181.81 301.78 176.22 C 293.16 170.63 300.21 157.31 309.00 161.00 Z"/>
</g>
<g fill="#F8F8F8" fill-opacity="1.00" stroke="None">
<path d="
M 309.00 161.00 
C 300.21 157.31 293.16 170.63 301.78 176.22 C 310.40 181.81 316.97 164.35 309.00 161.00 Z"/>
</g>
<g fill="#7A7B79" fill-opacity="1.00" stroke="None">
<path d="
M 281.00 178.00 
C 280.84 175.05 280.89 171.96 281.00 169.00
C 280.56 172.05 280.49 174.87 281.00 178.00 Z"/>
</g>
<g fill="#22211F" fill-opacity="1.00" stroke="None">
<path d="
M 258.00 197.00 
C 264.89 194.97 269.01 193.00 273.24 186.25 C 277.48 179.49 263.42 180.14 258.00 179.00 C 252.58 177.85 238.68 175.05 242.23 182.77 C 245.78 190.49 247.62 191.96 254.00 196.00
C 251.23 205.90 235.72 202.16 230.00 196.00
C 239.00 202.93 238.29 214.31 239.02 224.98 C 239.76 235.64 253.06 241.95 261.25 235.25 C 269.43 228.54 271.23 218.76 272.00 209.00
C 275.04 207.07 279.20 206.53 281.00 203.00
C 273.71 206.48 260.21 206.55 258.00 197.00
M 266.00 222.00 
C 264.49 239.35 240.13 237.23 241.00 220.00
C 249.12 216.25 258.44 218.11 266.00 222.00 Z"/>
</g>
<g fill="#D74863" fill-opacity="1.00" stroke="None">
<path d="
M 266.00 222.00 
C 258.44 218.11 249.12 216.25 241.00 220.00
C 240.13 237.23 264.49 239.35 266.00 222.00 Z"/>
</g>
<g fill="#5B5161" fill-opacity="1.00" stroke="None">
<path d="
M 109.00 272.00 
C 108.49 285.38 120.56 294.57 129.75 303.25 C 138.94 311.93 150.98 320.00 162.69 323.31 C 174.41 326.61 197.21 329.32 207.00 320.00
C 216.55 299.37 190.64 294.85 177.70 287.30 C 164.75 279.76 148.56 273.38 138.00 262.00
C 143.77 266.45 150.88 264.13 153.00 257.00
C 145.82 251.33 140.41 243.73 136.00 236.00
C 120.14 239.97 109.60 256.18 109.00 272.00 Z"/>
</g>
<g fill="#5B5161" fill-opacity="1.00" stroke="None">
<path d="
M 317.00 324.00 
C 323.41 329.21 335.79 322.03 343.07 322.07 C 350.36 322.12 360.21 317.66 367.07 315.07 C 373.94 312.49 379.79 308.04 385.75 303.75 C 391.70 299.45 396.86 294.04 400.75 287.75 C 404.64 281.46 410.52 274.01 410.00 266.00
C 407.46 254.52 401.46 243.44 390.07 237.93 C 378.68 232.41 376.39 253.92 369.00 260.00
C 372.57 264.86 377.09 264.00 381.00 260.00
C 373.48 272.35 355.24 281.28 344.70 289.70 C 334.16 298.11 306.77 306.40 317.00 324.00 Z"/>
</g>
<g fill="#BED1E7" fill-opacity="1.00" stroke="None">
<path d="
M 165.00 251.00 
C 161.34 251.00 155.37 246.68 152.25 244.75 C 149.13 242.83 143.55 240.24 141.00 238.00
C 144.91 244.06 147.05 245.09 151.75 251.25 C 156.46 257.41 159.35 253.79 165.00 251.00 Z"/>
</g>
<g fill="#2B2B2A" fill-opacity="1.00" stroke="None">
<path d="
M 237.00 247.00 
C 242.68 255.15 255.69 256.14 263.00 250.00
C 263.44 248.33 265.46 247.66 266.00 246.00
C 256.09 253.00 242.95 251.82 235.00 242.00
C 235.41 243.72 236.26 245.45 237.00 247.00 Z"/>
</g>
<g fill="#F44B47" fill-opacity="1.00" stroke="None">
<path d="
M 155.00 270.00 
C 160.97 269.41 165.53 261.86 172.23 261.23 C 178.92 260.60 186.81 256.33 194.00 257.00
C 188.62 281.85 237.08 295.29 238.00 267.00
C 246.36 270.76 254.84 277.44 259.00 286.00
C 273.28 265.99 297.36 254.95 322.00 256.00
C 312.33 269.86 328.79 284.45 342.00 286.00
C 351.91 281.30 360.13 273.11 370.00 268.00
C 342.61 235.59 282.38 237.24 259.00 275.00
C 236.22 237.06 177.69 237.98 149.00 268.00
C 150.85 268.64 153.32 269.09 155.00 270.00 Z"/>
</g>
<g fill="#B8C7D9" fill-opacity="1.00" stroke="None">
<path d="
M 238.00 250.00 
C 242.11 252.03 247.42 255.69 251.00 259.00
C 250.63 257.13 260.36 253.37 263.00 250.00
C 255.69 256.14 242.68 255.15 237.00 247.00
C 237.18 247.37 238.52 250.69 238.00 250.00 Z"/>
</g>
<g fill="#EA2B21" fill-opacity="1.00" stroke="None">
<path d="
M 155.00 270.00 
C 165.70 275.83 177.94 283.77 189.25 288.75 C 200.57 293.72 215.50 301.93 211.98 315.98 C 208.46 330.02 194.11 336.29 181.00 337.00
C 177.26 337.61 173.67 337.60 170.00 337.00
C 152.32 336.04 141.41 327.44 126.00 321.00
C 129.83 329.89 131.06 343.65 138.30 352.70 C 145.55 361.74 149.79 371.21 158.75 379.25 C 167.72 387.28 174.59 392.98 185.08 398.92 C 195.56 404.87 205.56 409.93 217.69 413.31 C 229.83 416.68 245.61 419.02 259.00 419.00 C 272.39 418.98 287.85 417.29 300.07 414.07 C 312.30 410.86 322.52 405.83 333.23 400.23 C 343.94 394.63 350.53 388.50 359.75 380.75 C 368.97 373.00 373.41 363.64 380.77 354.77 C 388.13 345.90 389.61 331.45 394.00 323.00
C 379.71 328.55 365.88 339.15 350.00 340.00 C 334.12 340.85 311.95 334.19 312.00 317.00 C 312.05 299.81 330.69 293.68 342.00 286.00
C 328.79 284.45 312.33 269.86 322.00 256.00
C 297.36 254.95 273.28 265.99 259.00 286.00
C 254.84 277.44 246.36 270.76 238.00 267.00
C 237.08 295.29 188.62 281.85 194.00 257.00
C 186.81 256.33 178.92 260.60 172.23 261.23 C 165.53 261.86 160.97 269.41 155.00 270.00 Z"/>
</g>
<g fill="#3D3641" fill-opacity="1.00" stroke="None">
<path d="
M 317.00 324.00 
C 330.50 347.22 364.16 336.55 383.75 325.75 C 403.35 314.96 416.89 288.70 410.00 266.00
C 410.52 274.01 404.64 281.46 400.75 287.75 C 396.86 294.04 391.70 299.45 385.75 303.75 C 379.79 308.04 373.94 312.49 367.07 315.07 C 360.21 317.66 350.36 322.12 343.07 322.07 C 335.79 322.03 323.41 329.21 317.00 324.00 Z"/>
</g>
<g fill="#3D3641" fill-opacity="1.00" stroke="None">
<path d="
M 207.00 320.00 
C 197.21 329.32 174.41 326.61 162.69 323.31 C 150.98 320.00 138.94 311.93 129.75 303.25 C 120.56 294.57 108.49 285.38 109.00 272.00
C 105.84 294.11 120.46 317.81 140.92 326.08 C 161.39 334.34 193.08 342.72 207.00 320.00 Z"/>
</g>
<g fill="#CC1B17" fill-opacity="1.00" stroke="None">
<path d="
M 394.00 323.00 
C 389.61 331.45 388.13 345.90 380.77 354.77 C 373.41 363.64 368.97 373.00 359.75 380.75 C 350.53 388.50 343.94 394.63 333.23 400.23 C 322.52 405.83 312.30 410.86 300.07 414.07 C 287.85 417.29 272.39 418.98 259.00 419.00 C 245.61 419.02 229.83 416.68 217.69 413.31 C 205.56 409.93 195.56 404.87 185.08 398.92 C 174.59 392.98 167.72 387.28 158.75 379.25 C 149.79 371.21 145.55 361.74 138.30 352.70 C 131.06 343.65 129.83 329.89 126.00 321.00
C 125.87 319.97 124.83 319.41 124.00 319.00
C 122.56 333.59 125.01 351.73 129.68 364.32 C 134.35 376.91 140.43 386.96 147.70 397.30 C 154.96 407.64 161.66 415.73 170.75 424.25 C 179.85 432.77 187.96 441.53 197.77 448.23 C 207.58 454.93 217.44 464.28 227.77 469.23 C 238.10 474.18 248.59 485.84 259.78 487.22 C 270.97 488.60 282.09 475.20 292.25 470.25 C 302.42 465.31 312.68 456.00 322.25 449.25 C 331.81 442.50 339.73 433.95 348.75 425.75 C 357.78 417.55 364.60 408.04 372.08 398.08 C 379.56 388.13 384.85 377.11 390.07 365.07 C 395.30 353.04 397.09 335.07 396.00 321.00
C 394.80 320.67 394.63 322.75 394.00 323.00 Z"/>
</g>
<g fill="#8E251E" fill-opacity="1.00" stroke="None">
<path d="
M 181.00 337.00 
C 177.41 337.19 173.59 337.19 170.00 337.00
C 173.67 337.60 177.26 337.61 181.00 337.00 Z"/>
</g>
<g fill="#5B5161" fill-opacity="1.00" stroke="None">
<path d="
M 130.00 374.00 
C 120.79 372.73 100.29 379.06 111.00 390.00
C 99.79 376.41 68.91 365.94 64.99 389.99 C 61.08 414.04 70.13 426.16 81.75 446.25 C 93.36 466.35 116.63 466.77 139.00 465.00 C 161.37 463.23 190.84 467.16 213.00 464.00
C 179.76 440.98 146.14 411.58 130.00 374.00
M 84.00 391.00 
C 88.69 391.96 91.38 406.49 85.30 405.64 C 79.22 404.80 77.23 389.62 84.00 391.00
M 75.00 398.00 
C 79.58 397.83 84.19 412.56 77.97 412.97 C 71.74 413.38 68.89 398.23 75.00 398.00
M 96.00 399.00 
C 101.00 400.02 102.11 415.20 96.32 413.66 C 90.53 412.12 89.73 397.72 96.00 399.00
M 78.00 417.00 
C 82.96 418.27 85.41 432.37 78.77 431.21 C 72.13 430.05 70.65 415.12 78.00 417.00
M 94.00 418.00 
C 100.23 418.41 102.16 427.74 104.92 432.08 C 107.69 436.41 106.30 450.83 99.33 448.67 C 92.35 446.51 91.23 439.73 88.23 434.77 C 85.23 429.81 86.49 417.50 94.00 418.00 Z"/>
</g>
<g fill="#5B5161" fill-opacity="1.00" stroke="None">
<path d="
M 368.00 465.00 
C 380.67 465.00 393.33 465.00 406.00 465.00
C 401.61 460.04 397.86 454.56 397.00 448.00
C 401.45 455.26 406.93 465.10 417.00 465.00
C 431.15 458.71 440.43 446.05 447.23 432.23 C 454.03 418.41 462.28 396.70 452.75 381.25 C 443.22 365.80 420.23 381.04 411.00 389.00
C 410.62 385.88 415.34 385.11 415.00 382.00
C 404.30 369.11 388.33 373.69 383.77 386.77 C 379.21 399.85 369.60 405.88 362.25 416.25 C 354.91 426.63 345.75 433.35 336.75 441.75 C 327.75 450.15 318.20 457.49 308.00 464.00
C 327.01 465.83 348.17 465.00 368.00 465.00
M 436.00 391.00 
C 440.99 392.90 436.07 407.17 430.97 405.97 C 425.87 404.78 430.09 388.75 436.00 391.00
M 444.00 398.00 
C 449.27 399.76 444.82 414.76 438.99 412.99 C 433.16 411.22 439.05 396.35 444.00 398.00
M 424.00 399.00 
C 429.01 400.91 424.45 415.81 418.99 413.99 C 413.53 412.18 418.63 396.95 424.00 399.00
M 443.00 417.00 
C 447.54 419.77 441.72 433.83 436.32 431.66 C 430.92 429.49 438.22 414.08 443.00 417.00
M 427.00 418.00 
C 433.00 420.16 429.73 433.81 427.69 437.69 C 425.66 441.58 421.12 451.68 414.78 448.22 C 408.43 444.76 411.84 434.17 413.77 429.77 C 415.70 425.37 420.64 415.71 427.00 418.00 Z"/>
</g>
<g fill="#29242C" fill-opacity="1.00" stroke="None">
<path d="
M 84.00 391.00 
C 77.23 389.62 79.22 404.80 85.30 405.64 C 91.38 406.49 88.69 391.96 84.00 391.00 Z"/>
</g>
<g fill="#2A242D" fill-opacity="1.00" stroke="None">
<path d="
M 436.00 391.00 
C 430.09 388.75 425.87 404.78 430.97 405.97 C 436.07 407.17 440.99 392.90 436.00 391.00 Z"/>
</g>
<g fill="#2B252E" fill-opacity="1.00" stroke="None">
<path d="
M 75.00 398.00 
C 68.89 398.23 71.74 413.38 77.97 412.97 C 84.19 412.56 79.58 397.83 75.00 398.00 Z"/>
</g>
<g fill="#2A252D" fill-opacity="1.00" stroke="None">
<path d="
M 444.00 398.00 
C 439.05 396.35 433.16 411.22 438.99 412.99 C 444.82 414.76 449.27 399.76 444.00 398.00 Z"/>
</g>
<g fill="#29242C" fill-opacity="1.00" stroke="None">
<path d="
M 96.00 399.00 
C 89.73 397.72 90.53 412.12 96.32 413.66 C 102.11 415.20 101.00 400.02 96.00 399.00 Z"/>
</g>
<g fill="#2A252D" fill-opacity="1.00" stroke="None">
<path d="
M 424.00 399.00 
C 418.63 396.95 413.53 412.18 418.99 413.99 C 424.45 415.81 429.01 400.91 424.00 399.00 Z"/>
</g>
<g fill="#2B262F" fill-opacity="1.00" stroke="None">
<path d="
M 78.00 417.00 
C 70.65 415.12 72.13 430.05 78.77 431.21 C 85.41 432.37 82.96 418.27 78.00 417.00 Z"/>
</g>
<g fill="#2A252D" fill-opacity="1.00" stroke="None">
<path d="
M 443.00 417.00 
C 438.22 414.08 430.92 429.49 436.32 431.66 C 441.72 433.83 447.54 419.77 443.00 417.00 Z"/>
</g>
<g fill="#29242C" fill-opacity="1.00" stroke="None">
<path d="
M 94.00 418.00 
C 86.49 417.50 85.23 429.81 88.23 434.77 C 91.23 439.73 92.35 446.51 99.33 448.67 C 106.30 450.83 107.69 436.41 104.92 432.08 C 102.16 427.74 100.23 418.41 94.00 418.00 Z"/>
</g>
<g fill="#29242C" fill-opacity="1.00" stroke="None">
<path d="
M 427.00 418.00 
C 420.64 415.71 415.70 425.37 413.77 429.77 C 411.84 434.17 408.43 444.76 414.78 448.22 C 421.12 451.68 425.66 441.58 427.69 437.69 C 429.73 433.81 433.00 420.16 427.00 418.00 Z"/>
</g>
<g fill="#2F2E37" fill-opacity="0.98" stroke="None">
<path d="
M 368.00 465.00 
C 382.01 466.36 398.78 464.66 412.00 469.00
C 414.31 468.79 415.50 469.52 418.00 469.00
C 418.65 467.77 417.78 465.70 417.00 465.00
C 406.93 465.10 401.45 455.26 397.00 448.00
C 397.86 454.56 401.61 460.04 406.00 465.00
C 393.33 465.00 380.67 465.00 368.00 465.00 Z"/>
</g>
</svg>