<svg xmlns="http://www.w3.org/2000/svg" xmlns:v="https://svgstorm.com"
viewBox = "0 0 512 512"
width="512"
height="512">
<g fill="None" fill-opacity="0.0" stroke="#000000" stroke-opacity="0.00" stroke-width="0.3"><path d="
M 0.00 140.00 
C 0.50 140.00 1.00 140.00 1.00 140.00
C 4.18 137.43 12.53 151.69 14.75 156.25 C 16.98 160.80 25.73 170.15 28.00 175.00
C 27.03 164.65 29.30 153.09 29.00 143.00 C 28.70 132.91 32.65 122.49 32.98 112.98 C 33.30 103.47 38.82 93.77 38.98 84.98 C 39.13 76.19 48.61 65.59 55.25 73.75 C 61.88 81.91 52.87 92.21 52.02 101.02 C 51.18 109.84 48.53 120.97 47.00 130.00
C 50.45 123.61 60.66 121.03 64.70 114.70 C 68.74 108.37 81.51 101.84 79.01 112.01 C 76.51 122.18 72.86 127.29 70.08 136.08 C 67.29 144.86 61.95 150.18 59.23 158.23 C 56.50 166.28 47.31 170.69 45.00 178.00
C 46.26 191.01 47.07 203.37 49.00 216.00
C 49.99 211.51 58.60 202.30 60.25 198.25 C 61.91 194.21 70.72 179.89 73.77 187.23 C 76.81 194.58 72.14 207.14 73.00 215.00 C 73.86 222.86 68.80 231.96 68.67 239.67 C 68.54 247.38 61.74 254.09 61.00 261.00
C 65.91 272.51 70.91 284.62 76.00 296.00
C 76.19 284.00 81.43 282.03 82.99 268.99 C 84.55 255.96 94.25 262.93 94.93 274.07 C 95.61 285.22 100.46 292.59 100.33 303.67 C 100.20 314.75 102.64 326.17 100.00 337.00
C 106.16 343.86 111.65 352.14 118.00 359.00
C 119.81 360.96 123.63 362.83 125.00 365.00
C 123.53 355.39 122.14 339.57 124.00 330.00 C 125.86 320.43 136.79 337.12 139.75 343.25 C 142.72 349.37 149.38 360.25 151.92 368.08 C 154.47 375.90 159.94 388.00 160.00 397.00
C 163.54 399.10 174.06 404.03 176.00 407.00
C 176.98 403.36 178.01 399.00 182.00 398.00
C 190.14 395.95 203.60 397.24 212.00 398.00
C 217.15 395.46 216.97 385.52 220.92 380.92 C 224.88 376.33 226.61 367.88 228.98 361.98 C 231.35 356.07 234.09 348.76 234.99 341.99 C 235.90 335.23 239.64 326.95 240.00 320.00
C 239.68 317.80 240.33 316.66 239.00 315.00
C 236.41 311.76 228.90 310.39 225.75 306.25 C 222.60 302.10 217.14 300.31 214.00 296.00
C 205.51 293.02 192.06 296.44 183.93 292.07 C 175.79 287.71 167.97 286.61 160.75 281.25 C 153.54 275.88 147.71 272.24 141.75 265.25 C 135.80 258.26 132.08 253.44 127.70 245.30 C 123.31 237.17 120.82 228.72 118.67 219.33 C 116.53 209.94 117.17 197.17 117.00 187.00 C 116.83 176.83 115.39 164.56 128.00 163.00
C 144.74 160.92 162.19 164.56 179.00 163.00
C 178.67 159.36 179.25 155.64 179.00 152.00
C 177.33 152.00 175.67 152.00 174.00 152.00
C 167.61 149.84 168.66 144.28 169.00 138.00 C 169.34 131.72 166.74 125.23 174.00 124.00
C 195.28 120.40 218.37 125.35 240.00 124.00 C 261.63 122.65 284.28 124.00 306.00 124.00
C 315.48 124.00 321.14 124.95 331.00 124.00 C 340.86 123.05 344.31 126.66 343.00 137.00 C 341.69 147.34 345.46 152.00 333.00 152.00
C 333.22 154.42 331.66 161.09 333.00 163.00
C 349.81 164.56 367.26 160.92 384.00 163.00
C 396.03 164.49 395.46 175.98 395.00 186.00 C 394.54 196.02 395.83 209.33 393.67 218.67 C 391.51 228.01 388.93 236.51 384.69 244.70 C 380.46 252.88 376.64 257.74 370.75 264.75 C 364.87 271.76 359.07 275.48 351.92 280.92 C 344.77 286.36 337.06 287.31 328.93 291.93 C 320.79 296.54 306.61 292.98 298.00 296.00
C 291.12 303.74 281.82 311.79 272.00 315.00
C 274.93 344.53 284.86 372.53 300.00 398.00
C 312.88 398.01 333.11 392.84 337.00 407.00
C 338.10 404.10 349.15 398.69 352.00 397.00
C 352.25 388.78 355.53 381.60 357.93 373.93 C 360.32 366.25 363.32 361.35 366.77 353.77 C 370.22 346.20 373.57 342.89 377.77 334.77 C 381.97 326.65 389.27 323.75 388.00 336.00 C 386.73 348.25 388.75 353.60 387.00 365.00
C 388.41 362.76 392.23 360.92 394.00 359.00
C 400.38 352.10 405.86 343.83 412.00 337.00
C 409.55 326.03 411.49 314.93 411.78 303.78 C 412.06 292.63 415.53 285.27 416.99 273.99 C 418.45 262.71 426.03 256.27 428.93 269.07 C 431.82 281.88 432.55 285.30 437.00 296.00
C 441.96 284.50 446.14 272.40 451.00 261.00
C 450.25 253.99 443.44 247.52 443.22 239.78 C 443.01 232.04 438.34 222.86 439.02 214.98 C 439.70 207.09 435.37 194.69 438.33 187.33 C 441.29 179.97 450.07 194.11 451.77 198.23 C 453.47 202.35 462.01 211.49 463.00 216.00
C 464.92 203.40 465.74 191.01 467.00 178.00
C 464.70 170.72 455.98 166.81 453.23 158.77 C 450.48 150.73 445.07 145.82 442.08 136.92 C 439.08 128.03 436.34 123.13 433.22 112.78 C 430.11 102.42 442.36 107.40 446.75 114.25 C 451.15 121.10 461.32 123.18 465.00 130.00
C 463.48 121.01 460.67 110.92 460.02 101.98 C 459.38 93.04 450.37 83.10 456.26 74.26 C 462.14 65.41 473.43 75.99 472.98 85.02 C 472.52 94.05 478.91 102.36 478.99 112.01 C 479.08 121.66 483.30 131.76 482.99 142.01 C 482.69 152.26 484.99 164.46 484.00 175.00
C 486.31 170.07 495.03 160.86 497.30 156.30 C 499.58 151.75 507.72 137.35 511.00 140.00
C 511.30 140.24 512.00 140.00 512.00 140.00
L 512.00 0.00
L 0.00 0.00
L 0.00 140.00 Z"/>
</g>
<g fill="None" fill-opacity="0.0" stroke="#F7BB14" stroke-opacity="0.96" stroke-width="0.3"><path d="
M 28.00 175.00 
C 29.54 191.42 30.61 209.90 33.00 225.00
C 34.97 237.44 39.00 252.41 44.00 264.00
C 50.35 278.71 57.36 295.30 63.00 309.00
C 67.59 320.14 76.26 333.77 84.00 343.00
C 94.66 355.72 106.01 368.13 117.00 381.00
C 120.75 385.38 125.05 389.09 129.23 392.77 C 133.41 396.45 138.00 400.62 142.08 403.92 C 146.16 407.22 152.54 410.61 155.75 414.25 C 158.95 417.90 168.88 419.68 170.00 424.00
C 172.19 418.62 174.65 412.00 176.00 407.00
C 174.06 404.03 163.54 399.10 160.00 397.00
C 147.31 389.46 137.32 377.68 126.00 368.00
C 122.70 365.18 119.36 361.33 118.00 359.00
C 111.65 352.14 106.16 343.86 100.00 337.00
C 89.45 325.24 82.32 310.14 76.00 296.00
C 70.91 284.62 65.91 272.51 61.00 261.00
C 54.88 246.65 51.45 232.03 49.00 216.00
C 47.07 203.37 46.26 191.01 45.00 178.00
C 43.48 162.32 44.35 145.66 47.00 130.00
C 48.53 120.97 51.18 109.84 52.02 101.02 C 52.87 92.21 61.88 81.91 55.25 73.75 C 48.61 65.59 39.13 76.19 38.98 84.98 C 38.82 93.77 33.30 103.47 32.98 112.98 C 32.65 122.49 28.70 132.91 29.00 143.00 C 29.30 153.09 27.03 164.65 28.00 175.00 Z"/>
</g>
<g fill="None" fill-opacity="0.0" stroke="#F7BB14" stroke-opacity="0.96" stroke-width="0.3"><path d="
M 465.00 130.00 
C 467.64 145.62 468.51 162.41 467.00 178.00
C 465.74 191.01 464.92 203.40 463.00 216.00
C 460.56 232.00 457.12 246.66 451.00 261.00
C 446.14 272.40 441.96 284.50 437.00 296.00
C 430.95 310.03 422.13 325.71 412.00 337.00
C 405.86 343.83 400.38 352.10 394.00 359.00
C 392.57 361.44 389.22 365.25 386.00 368.00
C 374.62 377.73 364.67 389.48 352.00 397.00
C 349.15 398.69 338.10 404.10 337.00 407.00
C 338.62 412.88 340.61 417.82 343.00 423.00
C 344.37 418.87 353.69 417.57 356.75 413.75 C 359.82 409.93 366.75 407.04 370.70 403.70 C 374.64 400.35 378.56 396.17 382.75 392.75 C 386.94 389.34 391.39 385.22 395.00 381.00
C 406.03 368.09 417.41 355.64 428.00 343.00
C 435.75 333.74 444.42 320.13 449.00 309.00
C 454.70 295.16 461.64 278.73 468.00 264.00
C 473.00 252.40 477.02 237.48 479.00 225.00
C 481.40 209.88 482.46 191.38 484.00 175.00
C 484.99 164.46 482.69 152.26 482.99 142.01 C 483.30 131.76 479.08 121.66 478.99 112.01 C 478.91 102.36 472.52 94.05 472.98 85.02 C 473.43 75.99 462.14 65.41 456.26 74.26 C 450.37 83.10 459.38 93.04 460.02 101.98 C 460.67 110.92 463.48 121.01 465.00 130.00 Z"/>
</g>
<g fill="None" fill-opacity="0.0" stroke="#FF901C" stroke-opacity="0.93" stroke-width="0.3"><path d="
M 47.00 130.00 
C 44.35 145.66 43.48 162.32 45.00 178.00
C 47.31 170.69 56.50 166.28 59.23 158.23 C 61.95 150.18 67.29 144.86 70.08 136.08 C 72.86 127.29 76.51 122.18 79.01 112.01 C 81.51 101.84 68.74 108.37 64.70 114.70 C 60.66 121.03 50.45 123.61 47.00 130.00 Z"/>
</g>
<g fill="None" fill-opacity="0.0" stroke="#FF901C" stroke-opacity="0.93" stroke-width="0.3"><path d="
M 467.00 178.00 
C 468.51 162.41 467.64 145.62 465.00 130.00
C 461.32 123.18 451.15 121.10 446.75 114.25 C 442.36 107.40 430.11 102.42 433.22 112.78 C 436.34 123.13 439.08 128.03 442.08 136.92 C 445.07 145.82 450.48 150.73 453.23 158.77 C 455.98 166.81 464.70 170.72 467.00 178.00 Z"/>
</g>
<g fill="None" fill-opacity="0.0" stroke="#FFB125" stroke-opacity="1.00" stroke-width="0.3"><path d="
M 174.00 152.00 
C 174.80 152.10 178.50 151.89 180.00 152.00
C 218.19 154.82 257.69 152.00 296.00 152.00
C 299.33 152.00 302.67 152.00 306.00 152.00
C 306.00 143.00 306.00 134.00 306.00 125.00
C 284.24 126.96 261.75 123.14 240.00 125.00 C 218.25 126.86 194.80 122.47 174.00 124.00
C 166.74 125.23 169.34 131.72 169.00 138.00 C 168.66 144.28 167.61 149.84 174.00 152.00 Z"/>
</g>
<g fill="None" fill-opacity="0.0" stroke="#FEB125" stroke-opacity="0.72" stroke-width="0.3"><path d="
M 306.00 125.00 
C 306.00 124.50 306.00 124.00 306.00 124.00
C 284.28 124.00 261.63 122.65 240.00 124.00 C 218.37 125.35 195.28 120.40 174.00 124.00
C 194.80 122.47 218.25 126.86 240.00 125.00 C 261.75 123.14 284.24 126.96 306.00 125.00 Z"/>
</g>
<g fill="None" fill-opacity="0.0" stroke="#FF901D" stroke-opacity="0.99" stroke-width="0.3"><path d="
M 306.00 125.00 
C 306.00 134.00 306.00 143.00 306.00 152.00
C 314.67 152.00 323.33 152.00 332.00 152.00
C 332.50 152.00 333.00 152.00 333.00 152.00
C 345.46 152.00 341.69 147.34 343.00 137.00 C 344.31 126.66 340.86 123.05 331.00 124.00 C 321.14 124.95 315.48 124.00 306.00 124.00
C 306.00 124.00 306.00 124.50 306.00 125.00 Z"/>
</g>
<g fill="None" fill-opacity="0.0" stroke="#FE901C" stroke-opacity="0.95" stroke-width="0.3"><path d="
M 1.00 140.00 
C 1.65 147.23 0.85 154.74 1.00 162.00
C 1.27 175.42 7.00 186.65 11.31 198.69 C 15.61 210.74 25.71 215.77 33.00 225.00
C 30.61 209.90 29.54 191.42 28.00 175.00
C 25.73 170.15 16.98 160.80 14.75 156.25 C 12.53 151.69 4.18 137.43 1.00 140.00 Z"/>
</g>
<g fill="None" fill-opacity="0.0" stroke="#FF901D" stroke-opacity="0.95" stroke-width="0.3"><path d="
M 484.00 175.00 
C 482.46 191.38 481.40 209.88 479.00 225.00
C 486.19 215.89 496.67 210.65 500.77 198.77 C 504.87 186.89 510.99 174.51 512.00 162.00
L 512.00 156.00
C 510.54 151.65 510.54 145.08 511.00 140.00
C 507.72 137.35 499.58 151.75 497.30 156.30 C 495.03 160.86 486.31 170.07 484.00 175.00 Z"/>
</g>
<g fill="None" fill-opacity="0.0" stroke="#FF8F1D" stroke-opacity="0.65" stroke-width="0.3"><path d="
M 0.00 162.00 
C 0.50 162.00 1.00 162.00 1.00 162.00
C 0.85 154.74 1.65 147.23 1.00 140.00
C 1.00 140.00 0.50 140.00 0.00 140.00
L 0.00 162.00 Z"/>
</g>
<g fill="None" fill-opacity="0.0" stroke="#FE901C" stroke-opacity="0.78" stroke-width="0.3"><path d="
M 512.00 156.00 
L 512.00 140.00
C 512.00 140.00 511.30 140.24 511.00 140.00
C 510.54 145.08 510.54 151.65 512.00 156.00 Z"/>
</g>
<g fill="None" fill-opacity="0.0" stroke="#FDC72D" stroke-opacity="0.71" stroke-width="0.3"><path d="
M 174.00 152.00 
C 175.67 152.00 177.33 152.00 179.00 152.00
C 179.25 155.64 178.67 159.36 179.00 163.00
C 179.32 162.76 180.00 163.00 180.00 163.00
C 180.19 161.01 181.08 153.55 180.00 152.00
C 178.50 151.89 174.80 152.10 174.00 152.00 Z"/>
</g>
<g fill="None" fill-opacity="0.0" stroke="#FDD02F" stroke-opacity="1.00" stroke-width="0.3"><path d="
M 180.00 163.00 
C 179.52 168.07 178.47 173.55 179.00 179.00
C 179.94 188.75 179.94 200.32 179.00 210.00
C 179.00 233.14 185.65 260.64 200.00 279.00
C 204.37 284.60 209.85 290.31 214.00 296.00
C 217.14 300.31 222.60 302.10 225.75 306.25 C 228.90 310.39 236.41 311.76 239.00 315.00
C 239.64 309.33 252.31 306.69 255.75 300.75 C 259.20 294.82 267.02 291.22 270.75 284.75 C 274.49 278.29 279.57 272.20 282.92 264.92 C 286.26 257.64 289.16 250.72 291.32 242.32 C 293.49 233.92 296.06 224.63 296.00 215.00 C 295.94 205.37 296.03 194.09 296.00 184.00 C 295.97 173.91 296.02 162.23 296.00 152.00
C 257.69 152.00 218.19 154.82 180.00 152.00
C 181.08 153.55 180.19 161.01 180.00 163.00 Z"/>
</g>
<g fill="None" fill-opacity="0.0" stroke="#F7BC14" stroke-opacity="0.99" stroke-width="0.3"><path d="
M 239.00 315.00 
C 240.33 316.66 239.68 317.80 240.00 320.00
C 243.90 346.89 246.72 374.98 263.00 398.00
C 246.00 398.00 229.00 398.00 212.00 398.00
C 212.04 398.00 212.00 399.00 212.00 399.00
C 239.93 399.00 267.22 398.02 295.00 398.00
C 296.67 398.00 298.33 398.00 300.00 398.00
C 284.86 372.53 274.93 344.53 272.00 315.00
C 281.82 311.79 291.12 303.74 298.00 296.00
C 302.90 290.48 307.79 284.66 312.00 279.00
C 326.08 260.07 333.00 233.62 333.00 210.00
C 332.16 201.36 330.25 190.39 332.00 181.00 C 333.75 171.61 331.13 161.64 332.00 152.00
C 323.33 152.00 314.67 152.00 306.00 152.00
C 302.67 152.00 299.33 152.00 296.00 152.00
C 296.02 162.23 295.97 173.91 296.00 184.00 C 296.03 194.09 295.94 205.37 296.00 215.00 C 296.06 224.63 293.49 233.92 291.32 242.32 C 289.16 250.72 286.26 257.64 282.92 264.92 C 279.57 272.20 274.49 278.29 270.75 284.75 C 267.02 291.22 259.20 294.82 255.75 300.75 C 252.31 306.69 239.64 309.33 239.00 315.00 Z"/>
</g>
<g fill="None" fill-opacity="0.0" stroke="#FEB124" stroke-opacity="0.95" stroke-width="0.3"><path d="
M 333.00 210.00 
C 333.00 199.67 333.00 189.33 333.00 179.00
C 348.33 179.00 363.67 179.00 379.00 179.00
C 385.97 224.13 358.43 272.74 312.00 279.00
C 307.79 284.66 302.90 290.48 298.00 296.00
C 306.61 292.98 320.79 296.54 328.93 291.93 C 337.06 287.31 344.77 286.36 351.92 280.92 C 359.07 275.48 364.87 271.76 370.75 264.75 C 376.64 257.74 380.46 252.88 384.69 244.70 C 388.93 236.51 391.51 228.01 393.67 218.67 C 395.83 209.33 394.54 196.02 395.00 186.00 C 395.46 175.98 396.03 164.49 384.00 163.00
C 379.74 162.88 373.00 165.04 368.00 164.00 C 363.00 162.96 354.61 165.24 350.00 164.00 C 345.39 162.76 335.61 166.73 333.00 163.00
C 331.66 161.09 333.22 154.42 333.00 152.00
C 333.00 152.00 332.50 152.00 332.00 152.00
C 331.13 161.64 333.75 171.61 332.00 181.00 C 330.25 190.39 332.16 201.36 333.00 210.00 Z"/>
</g>
<g fill="None" fill-opacity="0.0" stroke="#000000" stroke-opacity="0.00" stroke-width="0.3"><path d="
M 0.00 512.00 
L 512.00 512.00
L 512.00 162.00
C 510.99 174.51 504.87 186.89 500.77 198.77 C 496.67 210.65 486.19 215.89 479.00 225.00
C 477.02 237.48 473.00 252.40 468.00 264.00
C 475.19 256.00 482.49 256.67 489.70 247.70 C 496.91 238.73 507.33 236.33 502.68 248.68 C 498.02 261.03 495.89 264.60 490.25 274.25 C 484.60 283.90 480.22 287.33 473.25 295.25 C 466.28 303.16 456.67 303.58 449.00 309.00
C 444.42 320.13 435.75 333.74 428.00 343.00
C 437.97 337.68 444.86 339.63 455.07 333.07 C 465.29 326.52 472.11 329.54 464.25 339.25 C 456.38 348.95 454.71 351.03 446.75 358.75 C 438.79 366.48 433.25 367.46 424.77 373.77 C 416.29 380.08 404.20 377.60 395.00 381.00
C 391.39 385.22 386.94 389.34 382.75 392.75 C 378.56 396.17 374.64 400.35 370.70 403.70 C 366.75 407.04 359.82 409.93 356.75 413.75 C 353.69 417.57 344.37 418.87 343.00 423.00
C 345.33 428.05 346.69 434.28 347.00 440.00
C 345.72 439.47 345.14 440.97 344.00 441.00
C 339.04 442.72 332.30 440.36 327.00 441.00 C 321.70 441.65 315.39 441.00 310.00 441.00
C 298.38 441.00 286.61 441.23 275.00 441.00 C 263.39 440.77 251.55 441.61 240.00 441.00 C 228.45 440.39 216.41 442.40 205.00 441.00 C 193.59 439.60 180.02 444.03 169.00 441.00
C 161.83 439.03 168.13 428.59 170.00 424.00
C 168.88 419.68 158.95 417.90 155.75 414.25 C 152.54 410.61 146.16 407.22 142.08 403.92 C 138.00 400.62 133.41 396.45 129.23 392.77 C 125.05 389.09 120.75 385.38 117.00 381.00
C 109.95 378.40 98.50 380.41 91.98 376.02 C 85.45 371.64 78.00 369.54 72.30 364.70 C 66.61 359.85 60.41 355.33 56.25 349.75 C 52.08 344.18 44.21 338.82 43.08 331.92 C 41.94 325.03 56.35 331.96 61.22 334.78 C 66.10 337.59 78.64 340.14 84.00 343.00
C 76.26 333.77 67.59 320.14 63.00 309.00
C 55.39 303.62 45.66 303.18 38.77 295.23 C 31.88 287.28 27.25 284.01 21.70 274.30 C 16.14 264.59 13.92 261.17 9.22 248.78 C 4.53 236.39 15.08 238.75 22.25 247.75 C 29.41 256.75 36.83 256.01 44.00 264.00
C 39.00 252.41 34.97 237.44 33.00 225.00
C 25.71 215.77 15.61 210.74 11.31 198.69 C 7.00 186.65 1.27 175.42 1.00 162.00
C 1.00 162.00 0.50 162.00 0.00 162.00
L 0.00 512.00 Z"/>
</g>
<g fill="None" fill-opacity="0.0" stroke="#FFB124" stroke-opacity="0.95" stroke-width="0.3"><path d="
M 214.00 296.00 
C 209.85 290.31 204.37 284.60 200.00 279.00
C 187.66 273.16 172.55 272.77 162.25 261.75 C 151.95 250.74 143.83 244.03 138.69 229.31 C 133.56 214.58 131.96 195.62 133.00 179.00
C 148.33 179.00 163.67 179.00 179.00 179.00
C 178.47 173.55 179.52 168.07 180.00 163.00
C 180.00 163.00 179.32 162.76 179.00 163.00
C 173.03 167.41 161.54 162.30 154.00 164.00 C 146.46 165.70 134.93 162.81 128.00 163.00
C 115.39 164.56 116.83 176.83 117.00 187.00 C 117.17 197.17 116.53 209.94 118.67 219.33 C 120.82 228.72 123.31 237.17 127.70 245.30 C 132.08 253.44 135.80 258.26 141.75 265.25 C 147.71 272.24 153.54 275.88 160.75 281.25 C 167.97 286.61 175.79 287.71 183.93 292.07 C 192.06 296.44 205.51 293.02 214.00 296.00 Z"/>
</g>
<g fill="None" fill-opacity="0.0" stroke="#FEB125" stroke-opacity="0.51" stroke-width="0.3"><path d="
M 179.00 163.00 
C 162.19 164.56 144.74 160.92 128.00 163.00
C 134.93 162.81 146.46 165.70 154.00 164.00 C 161.54 162.30 173.03 167.41 179.00 163.00 Z"/>
</g>
<g fill="None" fill-opacity="0.0" stroke="#FEB125" stroke-opacity="0.51" stroke-width="0.3"><path d="
M 384.00 163.00 
C 367.26 160.92 349.81 164.56 333.00 163.00
C 335.61 166.73 345.39 162.76 350.00 164.00 C 354.61 165.24 363.00 162.96 368.00 164.00 C 373.00 165.04 379.74 162.88 384.00 163.00 Z"/>
</g>
<g fill="None" fill-opacity="0.0" stroke="#000000" stroke-opacity="0.00" stroke-width="0.3"><path d="
M 200.00 279.00 
C 185.65 260.64 179.00 233.14 179.00 210.00
C 179.00 199.67 179.00 189.33 179.00 179.00
C 163.67 179.00 148.33 179.00 133.00 179.00
C 131.96 195.62 133.56 214.58 138.69 229.31 C 143.83 244.03 151.95 250.74 162.25 261.75 C 172.55 272.77 187.66 273.16 200.00 279.00 Z"/>
</g>
<g fill="None" fill-opacity="0.0" stroke="#FCD130" stroke-opacity="0.66" stroke-width="0.3"><path d="
M 179.00 210.00 
C 179.94 200.32 179.94 188.75 179.00 179.00
C 179.00 189.33 179.00 199.67 179.00 210.00 Z"/>
</g>
<g fill="None" fill-opacity="0.0" stroke="#000000" stroke-opacity="0.00" stroke-width="0.3"><path d="
M 333.00 210.00 
C 333.00 233.62 326.08 260.07 312.00 279.00
C 358.43 272.74 385.97 224.13 379.00 179.00
C 363.67 179.00 348.33 179.00 333.00 179.00
C 333.00 189.33 333.00 199.67 333.00 210.00 Z"/>
</g>
<g fill="None" fill-opacity="0.0" stroke="#FE901C" stroke-opacity="0.94" stroke-width="0.3"><path d="
M 49.00 216.00 
C 51.45 232.03 54.88 246.65 61.00 261.00
C 61.74 254.09 68.54 247.38 68.67 239.67 C 68.80 231.96 73.86 222.86 73.00 215.00 C 72.14 207.14 76.81 194.58 73.77 187.23 C 70.72 179.89 61.91 194.21 60.25 198.25 C 58.60 202.30 49.99 211.51 49.00 216.00 Z"/>
</g>
<g fill="None" fill-opacity="0.0" stroke="#FE901C" stroke-opacity="0.94" stroke-width="0.3"><path d="
M 451.00 261.00 
C 457.12 246.66 460.56 232.00 463.00 216.00
C 462.01 211.49 453.47 202.35 451.77 198.23 C 450.07 194.11 441.29 179.97 438.33 187.33 C 435.37 194.69 439.70 207.09 439.02 214.98 C 438.34 222.86 443.01 232.04 443.22 239.78 C 443.44 247.52 450.25 253.99 451.00 261.00 Z"/>
</g>
<g fill="None" fill-opacity="0.0" stroke="#FF901C" stroke-opacity="0.93" stroke-width="0.3"><path d="
M 63.00 309.00 
C 57.36 295.30 50.35 278.71 44.00 264.00
C 36.83 256.01 29.41 256.75 22.25 247.75 C 15.08 238.75 4.53 236.39 9.22 248.78 C 13.92 261.17 16.14 264.59 21.70 274.30 C 27.25 284.01 31.88 287.28 38.77 295.23 C 45.66 303.18 55.39 303.62 63.00 309.00 Z"/>
</g>
<g fill="None" fill-opacity="0.0" stroke="#FF901C" stroke-opacity="0.93" stroke-width="0.3"><path d="
M 468.00 264.00 
C 461.64 278.73 454.70 295.16 449.00 309.00
C 456.67 303.58 466.28 303.16 473.25 295.25 C 480.22 287.33 484.60 283.90 490.25 274.25 C 495.89 264.60 498.02 261.03 502.68 248.68 C 507.33 236.33 496.91 238.73 489.70 247.70 C 482.49 256.67 475.19 256.00 468.00 264.00 Z"/>
</g>
<g fill="None" fill-opacity="0.0" stroke="#FF901C" stroke-opacity="0.94" stroke-width="0.3"><path d="
M 76.00 296.00 
C 82.32 310.14 89.45 325.24 100.00 337.00
C 102.64 326.17 100.20 314.75 100.33 303.67 C 100.46 292.59 95.61 285.22 94.93 274.07 C 94.25 262.93 84.55 255.96 82.99 268.99 C 81.43 282.03 76.19 284.00 76.00 296.00 Z"/>
</g>
<g fill="None" fill-opacity="0.0" stroke="#FF901C" stroke-opacity="0.94" stroke-width="0.3"><path d="
M 412.00 337.00 
C 422.13 325.71 430.95 310.03 437.00 296.00
C 432.55 285.30 431.82 281.88 428.93 269.07 C 426.03 256.27 418.45 262.71 416.99 273.99 C 415.53 285.27 412.06 292.63 411.78 303.78 C 411.49 314.93 409.55 326.03 412.00 337.00 Z"/>
</g>
<g fill="None" fill-opacity="0.0" stroke="#FED12F" stroke-opacity="0.96" stroke-width="0.3"><path d="
M 212.00 398.00 
C 229.00 398.00 246.00 398.00 263.00 398.00
C 246.72 374.98 243.90 346.89 240.00 320.00
C 239.64 326.95 235.90 335.23 234.99 341.99 C 234.09 348.76 231.35 356.07 228.98 361.98 C 226.61 367.88 224.88 376.33 220.92 380.92 C 216.97 385.52 217.15 395.46 212.00 398.00 Z"/>
</g>
<g fill="None" fill-opacity="0.0" stroke="#FE901C" stroke-opacity="0.94" stroke-width="0.3"><path d="
M 125.00 365.00 
C 125.16 366.05 125.36 367.11 126.00 368.00
C 137.32 377.68 147.31 389.46 160.00 397.00
C 159.94 388.00 154.47 375.90 151.92 368.08 C 149.38 360.25 142.72 349.37 139.75 343.25 C 136.79 337.12 125.86 320.43 124.00 330.00 C 122.14 339.57 123.53 355.39 125.00 365.00 Z"/>
</g>
<g fill="None" fill-opacity="0.0" stroke="#FE901C" stroke-opacity="0.94" stroke-width="0.3"><path d="
M 352.00 397.00 
C 364.67 389.48 374.62 377.73 386.00 368.00
C 386.74 366.98 386.81 366.22 387.00 365.00
C 388.75 353.60 386.73 348.25 388.00 336.00 C 389.27 323.75 381.97 326.65 377.77 334.77 C 373.57 342.89 370.22 346.20 366.77 353.77 C 363.32 361.35 360.32 366.25 357.93 373.93 C 355.53 381.60 352.25 388.78 352.00 397.00 Z"/>
</g>
<g fill="None" fill-opacity="0.0" stroke="#FE901C" stroke-opacity="0.94" stroke-width="0.3"><path d="
M 117.00 381.00 
C 106.01 368.13 94.66 355.72 84.00 343.00
C 78.64 340.14 66.10 337.59 61.22 334.78 C 56.35 331.96 41.94 325.03 43.08 331.92 C 44.21 338.82 52.08 344.18 56.25 349.75 C 60.41 355.33 66.61 359.85 72.30 364.70 C 78.00 369.54 85.45 371.64 91.98 376.02 C 98.50 380.41 109.95 378.40 117.00 381.00 Z"/>
</g>
<g fill="None" fill-opacity="0.0" stroke="#FE901C" stroke-opacity="0.94" stroke-width="0.3"><path d="
M 428.00 343.00 
C 417.41 355.64 406.03 368.09 395.00 381.00
C 404.20 377.60 416.29 380.08 424.77 373.77 C 433.25 367.46 438.79 366.48 446.75 358.75 C 454.71 351.03 456.38 348.95 464.25 339.25 C 472.11 329.54 465.29 326.52 455.07 333.07 C 444.86 339.63 437.97 337.68 428.00 343.00 Z"/>
</g>
<g fill="None" fill-opacity="0.0" stroke="#F8BC14" stroke-opacity="0.47" stroke-width="0.3"><path d="
M 126.00 368.00 
C 125.36 367.11 125.16 366.05 125.00 365.00
C 123.63 362.83 119.81 360.96 118.00 359.00
C 119.36 361.33 122.70 365.18 126.00 368.00 Z"/>
</g>
<g fill="None" fill-opacity="0.0" stroke="#F8BC14" stroke-opacity="0.47" stroke-width="0.3"><path d="
M 387.00 365.00 
C 386.81 366.22 386.74 366.98 386.00 368.00
C 389.22 365.25 392.57 361.44 394.00 359.00
C 392.23 360.92 388.41 362.76 387.00 365.00 Z"/>
</g>
<g fill="None" fill-opacity="0.0" stroke="#FEB124" stroke-opacity="1.00" stroke-width="0.3"><path d="
M 176.00 407.00 
C 174.65 412.00 172.19 418.62 170.00 424.00
C 168.13 428.59 161.83 439.03 169.00 441.00
C 179.07 442.84 191.68 438.50 203.00 440.00 C 214.32 441.50 227.41 439.15 239.00 440.00 C 250.59 440.85 262.29 439.28 274.00 440.00 C 285.71 440.72 298.27 438.94 310.00 440.00
C 305.62 425.81 299.69 412.11 295.00 398.00
C 267.22 398.02 239.93 399.00 212.00 399.00
C 203.01 399.00 189.89 396.75 182.00 398.00
C 178.01 399.00 176.98 403.36 176.00 407.00 Z"/>
</g>
<g fill="None" fill-opacity="0.0" stroke="#FEB225" stroke-opacity="0.60" stroke-width="0.3"><path d="
M 212.00 399.00 
C 212.00 399.00 212.04 398.00 212.00 398.00
C 203.60 397.24 190.14 395.95 182.00 398.00
C 189.89 396.75 203.01 399.00 212.00 399.00 Z"/>
</g>
<g fill="None" fill-opacity="0.0" stroke="#FF901D" stroke-opacity="0.99" stroke-width="0.3"><path d="
M 310.00 440.00 
C 315.30 439.52 321.86 441.15 327.00 440.00 C 332.14 438.85 340.11 442.01 344.00 441.00
C 345.14 440.97 345.72 439.47 347.00 440.00
C 346.69 434.28 345.33 428.05 343.00 423.00
C 340.61 417.82 338.62 412.88 337.00 407.00
C 333.11 392.84 312.88 398.01 300.00 398.00
C 298.33 398.00 296.67 398.00 295.00 398.00
C 299.69 412.11 305.62 425.81 310.00 440.00 Z"/>
</g>
<g fill="None" fill-opacity="0.0" stroke="#FEB124" stroke-opacity="0.56" stroke-width="0.3"><path d="
M 169.00 441.00 
C 180.02 444.03 193.59 439.60 205.00 441.00 C 216.41 442.40 228.45 440.39 240.00 441.00 C 251.55 441.61 263.39 440.77 275.00 441.00 C 286.61 441.23 298.38 441.00 310.00 441.00
C 309.96 441.00 310.00 440.00 310.00 440.00
C 298.27 438.94 285.71 440.72 274.00 440.00 C 262.29 439.28 250.59 440.85 239.00 440.00 C 227.41 439.15 214.32 441.50 203.00 440.00 C 191.68 438.50 179.07 442.84 169.00 441.00 Z"/>
</g>
<g fill="None" fill-opacity="0.0" stroke="#FF9A1F" stroke-opacity="0.80" stroke-width="0.3"><path d="
M 310.00 441.00 
C 315.39 441.00 321.70 441.65 327.00 441.00 C 332.30 440.36 339.04 442.72 344.00 441.00
C 340.11 442.01 332.14 438.85 327.00 440.00 C 321.86 441.15 315.30 439.52 310.00 440.00
C 310.00 440.00 309.96 441.00 310.00 441.00 Z"/>
</g>
<g fill="#000000" fill-opacity="0.00" stroke="None">
<path d="
M 0.00 140.00 
C 0.50 140.00 1.00 140.00 1.00 140.00
C 4.18 137.43 12.53 151.69 14.75 156.25 C 16.98 160.80 25.73 170.15 28.00 175.00
C 27.03 164.65 29.30 153.09 29.00 143.00 C 28.70 132.91 32.65 122.49 32.98 112.98 C 33.30 103.47 38.82 93.77 38.98 84.98 C 39.13 76.19 48.61 65.59 55.25 73.75 C 61.88 81.91 52.87 92.21 52.02 101.02 C 51.18 109.84 48.53 120.97 47.00 130.00
C 50.45 123.61 60.66 121.03 64.70 114.70 C 68.74 108.37 81.51 101.84 79.01 112.01 C 76.51 122.18 72.86 127.29 70.08 136.08 C 67.29 144.86 61.95 150.18 59.23 158.23 C 56.50 166.28 47.31 170.69 45.00 178.00
C 46.26 191.01 47.07 203.37 49.00 216.00
C 49.99 211.51 58.60 202.30 60.25 198.25 C 61.91 194.21 70.72 179.89 73.77 187.23 C 76.81 194.58 72.14 207.14 73.00 215.00 C 73.86 222.86 68.80 231.96 68.67 239.67 C 68.54 247.38 61.74 254.09 61.00 261.00
C 65.91 272.51 70.91 284.62 76.00 296.00
C 76.19 284.00 81.43 282.03 82.99 268.99 C 84.55 255.96 94.25 262.93 94.93 274.07 C 95.61 285.22 100.46 292.59 100.33 303.67 C 100.20 314.75 102.64 326.17 100.00 337.00
C 106.16 343.86 111.65 352.14 118.00 359.00
C 119.81 360.96 123.63 362.83 125.00 365.00
C 123.53 355.39 122.14 339.57 124.00 330.00 C 125.86 320.43 136.79 337.12 139.75 343.25 C 142.72 349.37 149.38 360.25 151.92 368.08 C 154.47 375.90 159.94 388.00 160.00 397.00
C 163.54 399.10 174.06 404.03 176.00 407.00
C 176.98 403.36 178.01 399.00 182.00 398.00
C 190.14 395.95 203.60 397.24 212.00 398.00
C 217.15 395.46 216.97 385.52 220.92 380.92 C 224.88 376.33 226.61 367.88 228.98 361.98 C 231.35 356.07 234.09 348.76 234.99 341.99 C 235.90 335.23 239.64 326.95 240.00 320.00
C 239.68 317.80 240.33 316.66 239.00 315.00
C 236.41 311.76 228.90 310.39 225.75 306.25 C 222.60 302.10 217.14 300.31 214.00 296.00
C 205.51 293.02 192.06 296.44 183.93 292.07 C 175.79 287.71 167.97 286.61 160.75 281.25 C 153.54 275.88 147.71 272.24 141.75 265.25 C 135.80 258.26 132.08 253.44 127.70 245.30 C 123.31 237.17 120.82 228.72 118.67 219.33 C 116.53 209.94 117.17 197.17 117.00 187.00 C 116.83 176.83 115.39 164.56 128.00 163.00
C 144.74 160.92 162.19 164.56 179.00 163.00
C 178.67 159.36 179.25 155.64 179.00 152.00
C 177.33 152.00 175.67 152.00 174.00 152.00
C 167.61 149.84 168.66 144.28 169.00 138.00 C 169.34 131.72 166.74 125.23 174.00 124.00
C 195.28 120.40 218.37 125.35 240.00 124.00 C 261.63 122.65 284.28 124.00 306.00 124.00
C 315.48 124.00 321.14 124.95 331.00 124.00 C 340.86 123.05 344.31 126.66 343.00 137.00 C 341.69 147.34 345.46 152.00 333.00 152.00
C 333.22 154.42 331.66 161.09 333.00 163.00
C 349.81 164.56 367.26 160.92 384.00 163.00
C 396.03 164.49 395.46 175.98 395.00 186.00 C 394.54 196.02 395.83 209.33 393.67 218.67 C 391.51 228.01 388.93 236.51 384.69 244.70 C 380.46 252.88 376.64 257.74 370.75 264.75 C 364.87 271.76 359.07 275.48 351.92 280.92 C 344.77 286.36 337.06 287.31 328.93 291.93 C 320.79 296.54 306.61 292.98 298.00 296.00
C 291.12 303.74 281.82 311.79 272.00 315.00
C 274.93 344.53 284.86 372.53 300.00 398.00
C 312.88 398.01 333.11 392.84 337.00 407.00
C 338.10 404.10 349.15 398.69 352.00 397.00
C 352.25 388.78 355.53 381.60 357.93 373.93 C 360.32 366.25 363.32 361.35 366.77 353.77 C 370.22 346.20 373.57 342.89 377.77 334.77 C 381.97 326.65 389.27 323.75 388.00 336.00 C 386.73 348.25 388.75 353.60 387.00 365.00
C 388.41 362.76 392.23 360.92 394.00 359.00
C 400.38 352.10 405.86 343.83 412.00 337.00
C 409.55 326.03 411.49 314.93 411.78 303.78 C 412.06 292.63 415.53 285.27 416.99 273.99 C 418.45 262.71 426.03 256.27 428.93 269.07 C 431.82 281.88 432.55 285.30 437.00 296.00
C 441.96 284.50 446.14 272.40 451.00 261.00
C 450.25 253.99 443.44 247.52 443.22 239.78 C 443.01 232.04 438.34 222.86 439.02 214.98 C 439.70 207.09 435.37 194.69 438.33 187.33 C 441.29 179.97 450.07 194.11 451.77 198.23 C 453.47 202.35 462.01 211.49 463.00 216.00
C 464.92 203.40 465.74 191.01 467.00 178.00
C 464.70 170.72 455.98 166.81 453.23 158.77 C 450.48 150.73 445.07 145.82 442.08 136.92 C 439.08 128.03 436.34 123.13 433.22 112.78 C 430.11 102.42 442.36 107.40 446.75 114.25 C 451.15 121.10 461.32 123.18 465.00 130.00
C 463.48 121.01 460.67 110.92 460.02 101.98 C 459.38 93.04 450.37 83.10 456.26 74.26 C 462.14 65.41 473.43 75.99 472.98 85.02 C 472.52 94.05 478.91 102.36 478.99 112.01 C 479.08 121.66 483.30 131.76 482.99 142.01 C 482.69 152.26 484.99 164.46 484.00 175.00
C 486.31 170.07 495.03 160.86 497.30 156.30 C 499.58 151.75 507.72 137.35 511.00 140.00
C 511.30 140.24 512.00 140.00 512.00 140.00
L 512.00 0.00
L 0.00 0.00
L 0.00 140.00 Z"/>
</g>
<g fill="#F7BB14" fill-opacity="0.96" stroke="None">
<path d="
M 28.00 175.00 
C 29.54 191.42 30.61 209.90 33.00 225.00
C 34.97 237.44 39.00 252.41 44.00 264.00
C 50.35 278.71 57.36 295.30 63.00 309.00
C 67.59 320.14 76.26 333.77 84.00 343.00
C 94.66 355.72 106.01 368.13 117.00 381.00
C 120.75 385.38 125.05 389.09 129.23 392.77 C 133.41 396.45 138.00 400.62 142.08 403.92 C 146.16 407.22 152.54 410.61 155.75 414.25 C 158.95 417.90 168.88 419.68 170.00 424.00
C 172.19 418.62 174.65 412.00 176.00 407.00
C 174.06 404.03 163.54 399.10 160.00 397.00
C 147.31 389.46 137.32 377.68 126.00 368.00
C 122.70 365.18 119.36 361.33 118.00 359.00
C 111.65 352.14 106.16 343.86 100.00 337.00
C 89.45 325.24 82.32 310.14 76.00 296.00
C 70.91 284.62 65.91 272.51 61.00 261.00
C 54.88 246.65 51.45 232.03 49.00 216.00
C 47.07 203.37 46.26 191.01 45.00 178.00
C 43.48 162.32 44.35 145.66 47.00 130.00
C 48.53 120.97 51.18 109.84 52.02 101.02 C 52.87 92.21 61.88 81.91 55.25 73.75 C 48.61 65.59 39.13 76.19 38.98 84.98 C 38.82 93.77 33.30 103.47 32.98 112.98 C 32.65 122.49 28.70 132.91 29.00 143.00 C 29.30 153.09 27.03 164.65 28.00 175.00 Z"/>
</g>
<g fill="#F7BB14" fill-opacity="0.96" stroke="None">
<path d="
M 465.00 130.00 
C 467.64 145.62 468.51 162.41 467.00 178.00
C 465.74 191.01 464.92 203.40 463.00 216.00
C 460.56 232.00 457.12 246.66 451.00 261.00
C 446.14 272.40 441.96 284.50 437.00 296.00
C 430.95 310.03 422.13 325.71 412.00 337.00
C 405.86 343.83 400.38 352.10 394.00 359.00
C 392.57 361.44 389.22 365.25 386.00 368.00
C 374.62 377.73 364.67 389.48 352.00 397.00
C 349.15 398.69 338.10 404.10 337.00 407.00
C 338.62 412.88 340.61 417.82 343.00 423.00
C 344.37 418.87 353.69 417.57 356.75 413.75 C 359.82 409.93 366.75 407.04 370.70 403.70 C 374.64 400.35 378.56 396.17 382.75 392.75 C 386.94 389.34 391.39 385.22 395.00 381.00
C 406.03 368.09 417.41 355.64 428.00 343.00
C 435.75 333.74 444.42 320.13 449.00 309.00
C 454.70 295.16 461.64 278.73 468.00 264.00
C 473.00 252.40 477.02 237.48 479.00 225.00
C 481.40 209.88 482.46 191.38 484.00 175.00
C 484.99 164.46 482.69 152.26 482.99 142.01 C 483.30 131.76 479.08 121.66 478.99 112.01 C 478.91 102.36 472.52 94.05 472.98 85.02 C 473.43 75.99 462.14 65.41 456.26 74.26 C 450.37 83.10 459.38 93.04 460.02 101.98 C 460.67 110.92 463.48 121.01 465.00 130.00 Z"/>
</g>
<g fill="#FF901C" fill-opacity="0.93" stroke="None">
<path d="
M 47.00 130.00 
C 44.35 145.66 43.48 162.32 45.00 178.00
C 47.31 170.69 56.50 166.28 59.23 158.23 C 61.95 150.18 67.29 144.86 70.08 136.08 C 72.86 127.29 76.51 122.18 79.01 112.01 C 81.51 101.84 68.74 108.37 64.70 114.70 C 60.66 121.03 50.45 123.61 47.00 130.00 Z"/>
</g>
<g fill="#FF901C" fill-opacity="0.93" stroke="None">
<path d="
M 467.00 178.00 
C 468.51 162.41 467.64 145.62 465.00 130.00
C 461.32 123.18 451.15 121.10 446.75 114.25 C 442.36 107.40 430.11 102.42 433.22 112.78 C 436.34 123.13 439.08 128.03 442.08 136.92 C 445.07 145.82 450.48 150.73 453.23 158.77 C 455.98 166.81 464.70 170.72 467.00 178.00 Z"/>
</g>
<g fill="#FFB125" fill-opacity="1.00" stroke="None">
<path d="
M 174.00 152.00 
C 174.80 152.10 178.50 151.89 180.00 152.00
C 218.19 154.82 257.69 152.00 296.00 152.00
C 299.33 152.00 302.67 152.00 306.00 152.00
C 306.00 143.00 306.00 134.00 306.00 125.00
C 284.24 126.96 261.75 123.14 240.00 125.00 C 218.25 126.86 194.80 122.47 174.00 124.00
C 166.74 125.23 169.34 131.72 169.00 138.00 C 168.66 144.28 167.61 149.84 174.00 152.00 Z"/>
</g>
<g fill="#FEB125" fill-opacity="0.72" stroke="None">
<path d="
M 306.00 125.00 
C 306.00 124.50 306.00 124.00 306.00 124.00
C 284.28 124.00 261.63 122.65 240.00 124.00 C 218.37 125.35 195.28 120.40 174.00 124.00
C 194.80 122.47 218.25 126.86 240.00 125.00 C 261.75 123.14 284.24 126.96 306.00 125.00 Z"/>
</g>
<g fill="#FF901D" fill-opacity="0.99" stroke="None">
<path d="
M 306.00 125.00 
C 306.00 134.00 306.00 143.00 306.00 152.00
C 314.67 152.00 323.33 152.00 332.00 152.00
C 332.50 152.00 333.00 152.00 333.00 152.00
C 345.46 152.00 341.69 147.34 343.00 137.00 C 344.31 126.66 340.86 123.05 331.00 124.00 C 321.14 124.95 315.48 124.00 306.00 124.00
C 306.00 124.00 306.00 124.50 306.00 125.00 Z"/>
</g>
<g fill="#FE901C" fill-opacity="0.95" stroke="None">
<path d="
M 1.00 140.00 
C 1.65 147.23 0.85 154.74 1.00 162.00
C 1.27 175.42 7.00 186.65 11.31 198.69 C 15.61 210.74 25.71 215.77 33.00 225.00
C 30.61 209.90 29.54 191.42 28.00 175.00
C 25.73 170.15 16.98 160.80 14.75 156.25 C 12.53 151.69 4.18 137.43 1.00 140.00 Z"/>
</g>
<g fill="#FF901D" fill-opacity="0.95" stroke="None">
<path d="
M 484.00 175.00 
C 482.46 191.38 481.40 209.88 479.00 225.00
C 486.19 215.89 496.67 210.65 500.77 198.77 C 504.87 186.89 510.99 174.51 512.00 162.00
L 512.00 156.00
C 510.54 151.65 510.54 145.08 511.00 140.00
C 507.72 137.35 499.58 151.75 497.30 156.30 C 495.03 160.86 486.31 170.07 484.00 175.00 Z"/>
</g>
<g fill="#FF8F1D" fill-opacity="0.65" stroke="None">
<path d="
M 0.00 162.00 
C 0.50 162.00 1.00 162.00 1.00 162.00
C 0.85 154.74 1.65 147.23 1.00 140.00
C 1.00 140.00 0.50 140.00 0.00 140.00
L 0.00 162.00 Z"/>
</g>
<g fill="#FE901C" fill-opacity="0.78" stroke="None">
<path d="
M 512.00 156.00 
L 512.00 140.00
C 512.00 140.00 511.30 140.24 511.00 140.00
C 510.54 145.08 510.54 151.65 512.00 156.00 Z"/>
</g>
<g fill="#FDC72D" fill-opacity="0.71" stroke="None">
<path d="
M 174.00 152.00 
C 175.67 152.00 177.33 152.00 179.00 152.00
C 179.25 155.64 178.67 159.36 179.00 163.00
C 179.32 162.76 180.00 163.00 180.00 163.00
C 180.19 161.01 181.08 153.55 180.00 152.00
C 178.50 151.89 174.80 152.10 174.00 152.00 Z"/>
</g>
<g fill="#FDD02F" fill-opacity="1.00" stroke="None">
<path d="
M 180.00 163.00 
C 179.52 168.07 178.47 173.55 179.00 179.00
C 179.94 188.75 179.94 200.32 179.00 210.00
C 179.00 233.14 185.65 260.64 200.00 279.00
C 204.37 284.60 209.85 290.31 214.00 296.00
C 217.14 300.31 222.60 302.10 225.75 306.25 C 228.90 310.39 236.41 311.76 239.00 315.00
C 239.64 309.33 252.31 306.69 255.75 300.75 C 259.20 294.82 267.02 291.22 270.75 284.75 C 274.49 278.29 279.57 272.20 282.92 264.92 C 286.26 257.64 289.16 250.72 291.32 242.32 C 293.49 233.92 296.06 224.63 296.00 215.00 C 295.94 205.37 296.03 194.09 296.00 184.00 C 295.97 173.91 296.02 162.23 296.00 152.00
C 257.69 152.00 218.19 154.82 180.00 152.00
C 181.08 153.55 180.19 161.01 180.00 163.00 Z"/>
</g>
<g fill="#F7BC14" fill-opacity="0.99" stroke="None">
<path d="
M 239.00 315.00 
C 240.33 316.66 239.68 317.80 240.00 320.00
C 243.90 346.89 246.72 374.98 263.00 398.00
C 246.00 398.00 229.00 398.00 212.00 398.00
C 212.04 398.00 212.00 399.00 212.00 399.00
C 239.93 399.00 267.22 398.02 295.00 398.00
C 296.67 398.00 298.33 398.00 300.00 398.00
C 284.86 372.53 274.93 344.53 272.00 315.00
C 281.82 311.79 291.12 303.74 298.00 296.00
C 302.90 290.48 307.79 284.66 312.00 279.00
C 326.08 260.07 333.00 233.62 333.00 210.00
C 332.16 201.36 330.25 190.39 332.00 181.00 C 333.75 171.61 331.13 161.64 332.00 152.00
C 323.33 152.00 314.67 152.00 306.00 152.00
C 302.67 152.00 299.33 152.00 296.00 152.00
C 296.02 162.23 295.97 173.91 296.00 184.00 C 296.03 194.09 295.94 205.37 296.00 215.00 C 296.06 224.63 293.49 233.92 291.32 242.32 C 289.16 250.72 286.26 257.64 282.92 264.92 C 279.57 272.20 274.49 278.29 270.75 284.75 C 267.02 291.22 259.20 294.82 255.75 300.75 C 252.31 306.69 239.64 309.33 239.00 315.00 Z"/>
</g>
<g fill="#FEB124" fill-opacity="0.95" stroke="None">
<path d="
M 333.00 210.00 
C 333.00 199.67 333.00 189.33 333.00 179.00
C 348.33 179.00 363.67 179.00 379.00 179.00
C 385.97 224.13 358.43 272.74 312.00 279.00
C 307.79 284.66 302.90 290.48 298.00 296.00
C 306.61 292.98 320.79 296.54 328.93 291.93 C 337.06 287.31 344.77 286.36 351.92 280.92 C 359.07 275.48 364.87 271.76 370.75 264.75 C 376.64 257.74 380.46 252.88 384.69 244.70 C 388.93 236.51 391.51 228.01 393.67 218.67 C 395.83 209.33 394.54 196.02 395.00 186.00 C 395.46 175.98 396.03 164.49 384.00 163.00
C 379.74 162.88 373.00 165.04 368.00 164.00 C 363.00 162.96 354.61 165.24 350.00 164.00 C 345.39 162.76 335.61 166.73 333.00 163.00
C 331.66 161.09 333.22 154.42 333.00 152.00
C 333.00 152.00 332.50 152.00 332.00 152.00
C 331.13 161.64 333.75 171.61 332.00 181.00 C 330.25 190.39 332.16 201.36 333.00 210.00 Z"/>
</g>
<g fill="#000000" fill-opacity="0.00" stroke="None">
<path d="
M 0.00 512.00 
L 512.00 512.00
L 512.00 162.00
C 510.99 174.51 504.87 186.89 500.77 198.77 C 496.67 210.65 486.19 215.89 479.00 225.00
C 477.02 237.48 473.00 252.40 468.00 264.00
C 475.19 256.00 482.49 256.67 489.70 247.70 C 496.91 238.73 507.33 236.33 502.68 248.68 C 498.02 261.03 495.89 264.60 490.25 274.25 C 484.60 283.90 480.22 287.33 473.25 295.25 C 466.28 303.16 456.67 303.58 449.00 309.00
C 444.42 320.13 435.75 333.74 428.00 343.00
C 437.97 337.68 444.86 339.63 455.07 333.07 C 465.29 326.52 472.11 329.54 464.25 339.25 C 456.38 348.95 454.71 351.03 446.75 358.75 C 438.79 366.48 433.25 367.46 424.77 373.77 C 416.29 380.08 404.20 377.60 395.00 381.00
C 391.39 385.22 386.94 389.34 382.75 392.75 C 378.56 396.17 374.64 400.35 370.70 403.70 C 366.75 407.04 359.82 409.93 356.75 413.75 C 353.69 417.57 344.37 418.87 343.00 423.00
C 345.33 428.05 346.69 434.28 347.00 440.00
C 345.72 439.47 345.14 440.97 344.00 441.00
C 339.04 442.72 332.30 440.36 327.00 441.00 C 321.70 441.65 315.39 441.00 310.00 441.00
C 298.38 441.00 286.61 441.23 275.00 441.00 C 263.39 440.77 251.55 441.61 240.00 441.00 C 228.45 440.39 216.41 442.40 205.00 441.00 C 193.59 439.60 180.02 444.03 169.00 441.00
C 161.83 439.03 168.13 428.59 170.00 424.00
C 168.88 419.68 158.95 417.90 155.75 414.25 C 152.54 410.61 146.16 407.22 142.08 403.92 C 138.00 400.62 133.41 396.45 129.23 392.77 C 125.05 389.09 120.75 385.38 117.00 381.00
C 109.95 378.40 98.50 380.41 91.98 376.02 C 85.45 371.64 78.00 369.54 72.30 364.70 C 66.61 359.85 60.41 355.33 56.25 349.75 C 52.08 344.18 44.21 338.82 43.08 331.92 C 41.94 325.03 56.35 331.96 61.22 334.78 C 66.10 337.59 78.64 340.14 84.00 343.00
C 76.26 333.77 67.59 320.14 63.00 309.00
C 55.39 303.62 45.66 303.18 38.77 295.23 C 31.88 287.28 27.25 284.01 21.70 274.30 C 16.14 264.59 13.92 261.17 9.22 248.78 C 4.53 236.39 15.08 238.75 22.25 247.75 C 29.41 256.75 36.83 256.01 44.00 264.00
C 39.00 252.41 34.97 237.44 33.00 225.00
C 25.71 215.77 15.61 210.74 11.31 198.69 C 7.00 186.65 1.27 175.42 1.00 162.00
C 1.00 162.00 0.50 162.00 0.00 162.00
L 0.00 512.00 Z"/>
</g>
<g fill="#FFB124" fill-opacity="0.95" stroke="None">
<path d="
M 214.00 296.00 
C 209.85 290.31 204.37 284.60 200.00 279.00
C 187.66 273.16 172.55 272.77 162.25 261.75 C 151.95 250.74 143.83 244.03 138.69 229.31 C 133.56 214.58 131.96 195.62 133.00 179.00
C 148.33 179.00 163.67 179.00 179.00 179.00
C 178.47 173.55 179.52 168.07 180.00 163.00
C 180.00 163.00 179.32 162.76 179.00 163.00
C 173.03 167.41 161.54 162.30 154.00 164.00 C 146.46 165.70 134.93 162.81 128.00 163.00
C 115.39 164.56 116.83 176.83 117.00 187.00 C 117.17 197.17 116.53 209.94 118.67 219.33 C 120.82 228.72 123.31 237.17 127.70 245.30 C 132.08 253.44 135.80 258.26 141.75 265.25 C 147.71 272.24 153.54 275.88 160.75 281.25 C 167.97 286.61 175.79 287.71 183.93 292.07 C 192.06 296.44 205.51 293.02 214.00 296.00 Z"/>
</g>
<g fill="#FEB125" fill-opacity="0.51" stroke="None">
<path d="
M 179.00 163.00 
C 162.19 164.56 144.74 160.92 128.00 163.00
C 134.93 162.81 146.46 165.70 154.00 164.00 C 161.54 162.30 173.03 167.41 179.00 163.00 Z"/>
</g>
<g fill="#FEB125" fill-opacity="0.51" stroke="None">
<path d="
M 384.00 163.00 
C 367.26 160.92 349.81 164.56 333.00 163.00
C 335.61 166.73 345.39 162.76 350.00 164.00 C 354.61 165.24 363.00 162.96 368.00 164.00 C 373.00 165.04 379.74 162.88 384.00 163.00 Z"/>
</g>
<g fill="#000000" fill-opacity="0.00" stroke="None">
<path d="
M 200.00 279.00 
C 185.65 260.64 179.00 233.14 179.00 210.00
C 179.00 199.67 179.00 189.33 179.00 179.00
C 163.67 179.00 148.33 179.00 133.00 179.00
C 131.96 195.62 133.56 214.58 138.69 229.31 C 143.83 244.03 151.95 250.74 162.25 261.75 C 172.55 272.77 187.66 273.16 200.00 279.00 Z"/>
</g>
<g fill="#FCD130" fill-opacity="0.66" stroke="None">
<path d="
M 179.00 210.00 
C 179.94 200.32 179.94 188.75 179.00 179.00
C 179.00 189.33 179.00 199.67 179.00 210.00 Z"/>
</g>
<g fill="#000000" fill-opacity="0.00" stroke="None">
<path d="
M 333.00 210.00 
C 333.00 233.62 326.08 260.07 312.00 279.00
C 358.43 272.74 385.97 224.13 379.00 179.00
C 363.67 179.00 348.33 179.00 333.00 179.00
C 333.00 189.33 333.00 199.67 333.00 210.00 Z"/>
</g>
<g fill="#FE901C" fill-opacity="0.94" stroke="None">
<path d="
M 49.00 216.00 
C 51.45 232.03 54.88 246.65 61.00 261.00
C 61.74 254.09 68.54 247.38 68.67 239.67 C 68.80 231.96 73.86 222.86 73.00 215.00 C 72.14 207.14 76.81 194.58 73.77 187.23 C 70.72 179.89 61.91 194.21 60.25 198.25 C 58.60 202.30 49.99 211.51 49.00 216.00 Z"/>
</g>
<g fill="#FE901C" fill-opacity="0.94" stroke="None">
<path d="
M 451.00 261.00 
C 457.12 246.66 460.56 232.00 463.00 216.00
C 462.01 211.49 453.47 202.35 451.77 198.23 C 450.07 194.11 441.29 179.97 438.33 187.33 C 435.37 194.69 439.70 207.09 439.02 214.98 C 438.34 222.86 443.01 232.04 443.22 239.78 C 443.44 247.52 450.25 253.99 451.00 261.00 Z"/>
</g>
<g fill="#FF901C" fill-opacity="0.93" stroke="None">
<path d="
M 63.00 309.00 
C 57.36 295.30 50.35 278.71 44.00 264.00
C 36.83 256.01 29.41 256.75 22.25 247.75 C 15.08 238.75 4.53 236.39 9.22 248.78 C 13.92 261.17 16.14 264.59 21.70 274.30 C 27.25 284.01 31.88 287.28 38.77 295.23 C 45.66 303.18 55.39 303.62 63.00 309.00 Z"/>
</g>
<g fill="#FF901C" fill-opacity="0.93" stroke="None">
<path d="
M 468.00 264.00 
C 461.64 278.73 454.70 295.16 449.00 309.00
C 456.67 303.58 466.28 303.16 473.25 295.25 C 480.22 287.33 484.60 283.90 490.25 274.25 C 495.89 264.60 498.02 261.03 502.68 248.68 C 507.33 236.33 496.91 238.73 489.70 247.70 C 482.49 256.67 475.19 256.00 468.00 264.00 Z"/>
</g>
<g fill="#FF901C" fill-opacity="0.94" stroke="None">
<path d="
M 76.00 296.00 
C 82.32 310.14 89.45 325.24 100.00 337.00
C 102.64 326.17 100.20 314.75 100.33 303.67 C 100.46 292.59 95.61 285.22 94.93 274.07 C 94.25 262.93 84.55 255.96 82.99 268.99 C 81.43 282.03 76.19 284.00 76.00 296.00 Z"/>
</g>
<g fill="#FF901C" fill-opacity="0.94" stroke="None">
<path d="
M 412.00 337.00 
C 422.13 325.71 430.95 310.03 437.00 296.00
C 432.55 285.30 431.82 281.88 428.93 269.07 C 426.03 256.27 418.45 262.71 416.99 273.99 C 415.53 285.27 412.06 292.63 411.78 303.78 C 411.49 314.93 409.55 326.03 412.00 337.00 Z"/>
</g>
<g fill="#FED12F" fill-opacity="0.96" stroke="None">
<path d="
M 212.00 398.00 
C 229.00 398.00 246.00 398.00 263.00 398.00
C 246.72 374.98 243.90 346.89 240.00 320.00
C 239.64 326.95 235.90 335.23 234.99 341.99 C 234.09 348.76 231.35 356.07 228.98 361.98 C 226.61 367.88 224.88 376.33 220.92 380.92 C 216.97 385.52 217.15 395.46 212.00 398.00 Z"/>
</g>
<g fill="#FE901C" fill-opacity="0.94" stroke="None">
<path d="
M 125.00 365.00 
C 125.16 366.05 125.36 367.11 126.00 368.00
C 137.32 377.68 147.31 389.46 160.00 397.00
C 159.94 388.00 154.47 375.90 151.92 368.08 C 149.38 360.25 142.72 349.37 139.75 343.25 C 136.79 337.12 125.86 320.43 124.00 330.00 C 122.14 339.57 123.53 355.39 125.00 365.00 Z"/>
</g>
<g fill="#FE901C" fill-opacity="0.94" stroke="None">
<path d="
M 352.00 397.00 
C 364.67 389.48 374.62 377.73 386.00 368.00
C 386.74 366.98 386.81 366.22 387.00 365.00
C 388.75 353.60 386.73 348.25 388.00 336.00 C 389.27 323.75 381.97 326.65 377.77 334.77 C 373.57 342.89 370.22 346.20 366.77 353.77 C 363.32 361.35 360.32 366.25 357.93 373.93 C 355.53 381.60 352.25 388.78 352.00 397.00 Z"/>
</g>
<g fill="#FE901C" fill-opacity="0.94" stroke="None">
<path d="
M 117.00 381.00 
C 106.01 368.13 94.66 355.72 84.00 343.00
C 78.64 340.14 66.10 337.59 61.22 334.78 C 56.35 331.96 41.94 325.03 43.08 331.92 C 44.21 338.82 52.08 344.18 56.25 349.75 C 60.41 355.33 66.61 359.85 72.30 364.70 C 78.00 369.54 85.45 371.64 91.98 376.02 C 98.50 380.41 109.95 378.40 117.00 381.00 Z"/>
</g>
<g fill="#FE901C" fill-opacity="0.94" stroke="None">
<path d="
M 428.00 343.00 
C 417.41 355.64 406.03 368.09 395.00 381.00
C 404.20 377.60 416.29 380.08 424.77 373.77 C 433.25 367.46 438.79 366.48 446.75 358.75 C 454.71 351.03 456.38 348.95 464.25 339.25 C 472.11 329.54 465.29 326.52 455.07 333.07 C 444.86 339.63 437.97 337.68 428.00 343.00 Z"/>
</g>
<g fill="#F8BC14" fill-opacity="0.47" stroke="None">
<path d="
M 126.00 368.00 
C 125.36 367.11 125.16 366.05 125.00 365.00
C 123.63 362.83 119.81 360.96 118.00 359.00
C 119.36 361.33 122.70 365.18 126.00 368.00 Z"/>
</g>
<g fill="#F8BC14" fill-opacity="0.47" stroke="None">
<path d="
M 387.00 365.00 
C 386.81 366.22 386.74 366.98 386.00 368.00
C 389.22 365.25 392.57 361.44 394.00 359.00
C 392.23 360.92 388.41 362.76 387.00 365.00 Z"/>
</g>
<g fill="#FEB124" fill-opacity="1.00" stroke="None">
<path d="
M 176.00 407.00 
C 174.65 412.00 172.19 418.62 170.00 424.00
C 168.13 428.59 161.83 439.03 169.00 441.00
C 179.07 442.84 191.68 438.50 203.00 440.00 C 214.32 441.50 227.41 439.15 239.00 440.00 C 250.59 440.85 262.29 439.28 274.00 440.00 C 285.71 440.72 298.27 438.94 310.00 440.00
C 305.62 425.81 299.69 412.11 295.00 398.00
C 267.22 398.02 239.93 399.00 212.00 399.00
C 203.01 399.00 189.89 396.75 182.00 398.00
C 178.01 399.00 176.98 403.36 176.00 407.00 Z"/>
</g>
<g fill="#FEB225" fill-opacity="0.60" stroke="None">
<path d="
M 212.00 399.00 
C 212.00 399.00 212.04 398.00 212.00 398.00
C 203.60 397.24 190.14 395.95 182.00 398.00
C 189.89 396.75 203.01 399.00 212.00 399.00 Z"/>
</g>
<g fill="#FF901D" fill-opacity="0.99" stroke="None">
<path d="
M 310.00 440.00 
C 315.30 439.52 321.86 441.15 327.00 440.00 C 332.14 438.85 340.11 442.01 344.00 441.00
C 345.14 440.97 345.72 439.47 347.00 440.00
C 346.69 434.28 345.33 428.05 343.00 423.00
C 340.61 417.82 338.62 412.88 337.00 407.00
C 333.11 392.84 312.88 398.01 300.00 398.00
C 298.33 398.00 296.67 398.00 295.00 398.00
C 299.69 412.11 305.62 425.81 310.00 440.00 Z"/>
</g>
<g fill="#FEB124" fill-opacity="0.56" stroke="None">
<path d="
M 169.00 441.00 
C 180.02 444.03 193.59 439.60 205.00 441.00 C 216.41 442.40 228.45 440.39 240.00 441.00 C 251.55 441.61 263.39 440.77 275.00 441.00 C 286.61 441.23 298.38 441.00 310.00 441.00
C 309.96 441.00 310.00 440.00 310.00 440.00
C 298.27 438.94 285.71 440.72 274.00 440.00 C 262.29 439.28 250.59 440.85 239.00 440.00 C 227.41 439.15 214.32 441.50 203.00 440.00 C 191.68 438.50 179.07 442.84 169.00 441.00 Z"/>
</g>
<g fill="#FF9A1F" fill-opacity="0.80" stroke="None">
<path d="
M 310.00 441.00 
C 315.39 441.00 321.70 441.65 327.00 441.00 C 332.30 440.36 339.04 442.72 344.00 441.00
C 340.11 442.01 332.14 438.85 327.00 440.00 C 321.86 441.15 315.30 439.52 310.00 440.00
C 310.00 440.00 309.96 441.00 310.00 441.00 Z"/>
</g>
</svg>