<svg xmlns="http://www.w3.org/2000/svg" xmlns:v="https://svgstorm.com"
viewBox = "0 0 512 512"
width="512"
height="512">
<g fill="None" fill-opacity="0.0" stroke="#000000" stroke-opacity="0.00" stroke-width="0.3"><path d="
M 0.00 238.00 
C 7.21 232.66 13.84 227.28 21.08 222.08 C 28.32 216.89 34.97 210.41 42.25 205.25 C 49.53 200.09 56.62 194.19 63.75 188.75 C 70.88 183.31 78.23 177.84 85.25 172.25 C 92.27 166.66 99.25 161.86 106.25 156.25 C 113.25 150.63 120.72 145.35 127.75 139.75 C 134.79 134.15 142.20 128.79 149.25 123.25 C 156.29 117.70 163.74 112.21 170.75 106.75 C 177.75 101.28 184.71 95.94 191.75 90.75 C 198.78 85.55 206.07 78.83 213.23 74.23 C 220.39 69.63 227.44 61.09 234.70 57.70 C 241.96 54.30 249.01 41.18 257.00 42.00
C 263.32 42.65 268.62 52.40 274.70 55.30 C 280.78 58.21 286.60 65.57 292.75 69.25 C 298.89 72.94 304.57 79.21 310.75 83.25 C 316.92 87.30 322.62 92.94 328.75 97.25 C 334.89 101.56 340.77 106.59 346.75 111.25 C 352.74 115.90 359.11 120.14 365.00 125.00
C 365.00 113.33 365.00 101.67 365.00 90.00
C 390.00 90.00 415.00 90.00 440.00 90.00
C 439.89 106.94 440.14 128.52 440.00 145.00 C 439.86 161.48 436.34 181.83 449.75 190.25 C 463.16 198.67 468.85 205.94 480.75 214.25 C 492.66 222.55 500.49 229.72 512.00 238.00
L 512.00 0.00
L 0.00 0.00
L 0.00 238.00 Z"/>
</g>
<g fill="None" fill-opacity="0.0" stroke="#FF7D3B" stroke-opacity="0.99" stroke-width="0.3"><path d="
M 0.00 238.00 
L 0.00 241.00
C 19.52 262.40 34.65 289.01 55.00 309.00
C 62.28 302.00 71.05 296.34 79.00 290.00
C 79.25 289.75 79.80 289.27 80.00 289.00
C 90.80 274.65 110.18 267.70 123.23 255.23 C 136.28 242.76 153.57 233.21 167.23 221.23 C 180.89 209.25 197.27 200.04 210.75 187.75 C 224.24 175.47 242.25 166.99 255.00 154.00
C 255.25 153.75 255.95 153.23 256.00 153.00
C 259.93 135.31 253.74 115.03 256.00 97.00 C 258.26 78.97 253.48 59.64 257.00 42.00
C 249.01 41.18 241.96 54.30 234.70 57.70 C 227.44 61.09 220.39 69.63 213.23 74.23 C 206.07 78.83 198.78 85.55 191.75 90.75 C 184.71 95.94 177.75 101.28 170.75 106.75 C 163.74 112.21 156.29 117.70 149.25 123.25 C 142.20 128.79 134.79 134.15 127.75 139.75 C 120.72 145.35 113.25 150.63 106.25 156.25 C 99.25 161.86 92.27 166.66 85.25 172.25 C 78.23 177.84 70.88 183.31 63.75 188.75 C 56.62 194.19 49.53 200.09 42.25 205.25 C 34.97 210.41 28.32 216.89 21.08 222.08 C 13.84 227.28 7.21 232.66 0.00 238.00 Z"/>
</g>
<g fill="None" fill-opacity="0.0" stroke="#FE4E19" stroke-opacity="0.99" stroke-width="0.3"><path d="
M 256.00 153.00 
C 263.15 154.51 268.45 164.26 275.23 167.77 C 282.01 171.28 288.37 178.69 295.08 182.92 C 301.80 187.14 308.06 193.79 314.75 198.25 C 321.43 202.72 327.14 208.49 333.75 213.25 C 340.37 218.00 347.14 223.37 353.75 228.25 C 360.35 233.13 366.72 238.75 373.25 243.75 C 379.77 248.76 386.26 253.17 392.75 258.25 C 399.24 263.33 405.82 268.52 412.25 273.75 C 418.68 278.98 426.25 283.12 432.00 289.00
C 432.25 289.25 432.75 289.75 433.00 290.00
C 440.11 297.24 450.42 301.37 457.00 309.00
C 477.35 289.01 492.51 262.36 512.00 241.00
L 512.00 238.00
C 500.49 229.72 492.66 222.55 480.75 214.25 C 468.85 205.94 463.16 198.67 449.75 190.25 C 436.34 181.83 439.86 161.48 440.00 145.00 C 440.14 128.52 439.89 106.94 440.00 90.00
C 415.00 90.00 390.00 90.00 365.00 90.00
C 365.00 101.67 365.00 113.33 365.00 125.00
C 359.11 120.14 352.74 115.90 346.75 111.25 C 340.77 106.59 334.89 101.56 328.75 97.25 C 322.62 92.94 316.92 87.30 310.75 83.25 C 304.57 79.21 298.89 72.94 292.75 69.25 C 286.60 65.57 280.78 58.21 274.70 55.30 C 268.62 52.40 263.32 42.65 257.00 42.00
C 253.48 59.64 258.26 78.97 256.00 97.00 C 253.74 115.03 259.93 135.31 256.00 153.00 Z"/>
</g>
<g fill="None" fill-opacity="0.0" stroke="#FE9900" stroke-opacity="1.00" stroke-width="0.3"><path d="
M 255.00 154.00 
C 260.49 172.33 254.13 194.27 256.00 214.00 C 257.87 233.73 255.04 254.87 256.00 275.00 C 256.96 295.13 255.28 316.74 256.00 337.00
C 261.71 337.00 270.61 335.89 276.00 337.00 C 281.39 338.11 291.78 334.04 296.00 337.00
C 300.32 340.02 295.74 352.28 297.00 358.00 C 298.26 363.72 296.48 373.27 297.00 380.00 C 297.52 386.73 296.80 395.89 297.00 403.00 C 297.20 410.11 297.03 417.73 297.00 425.00 C 296.97 432.27 297.28 439.61 297.00 447.00 C 296.72 454.39 297.67 462.58 297.00 470.00
C 342.00 470.02 387.00 469.98 432.00 470.00
C 432.14 458.03 431.82 445.96 432.00 434.00 C 432.18 422.04 431.65 409.92 432.00 398.00 C 432.35 386.08 431.25 373.82 432.00 362.00 C 432.75 350.18 430.35 337.61 432.00 326.00 C 433.65 314.39 428.46 300.05 432.00 289.00
C 426.25 283.12 418.68 278.98 412.25 273.75 C 405.82 268.52 399.24 263.33 392.75 258.25 C 386.26 253.17 379.77 248.76 373.25 243.75 C 366.72 238.75 360.35 233.13 353.75 228.25 C 347.14 223.37 340.37 218.00 333.75 213.25 C 327.14 208.49 321.43 202.72 314.75 198.25 C 308.06 193.79 301.80 187.14 295.08 182.92 C 288.37 178.69 282.01 171.28 275.23 167.77 C 268.45 164.26 263.15 154.51 256.00 153.00
C 255.95 153.23 255.25 153.75 255.00 154.00 Z"/>
</g>
<g fill="None" fill-opacity="0.0" stroke="#FEB64E" stroke-opacity="1.00" stroke-width="0.3"><path d="
M 80.00 289.00 
C 83.49 299.89 78.42 313.49 80.00 325.00 C 81.58 336.51 79.28 349.20 80.00 361.00 C 80.72 372.80 79.67 385.04 80.00 397.00 C 80.33 408.96 79.83 420.92 80.00 433.00 C 80.17 445.09 79.87 457.85 80.00 470.00
C 127.00 470.00 174.00 470.00 221.00 470.00
C 220.35 462.75 221.25 455.28 221.00 448.00 C 220.75 440.72 221.00 433.27 221.00 426.00 C 221.00 418.73 220.79 410.11 221.00 403.00 C 221.21 395.89 220.41 387.64 221.00 381.00 C 221.59 374.36 219.63 364.70 221.00 359.00 C 222.37 353.30 217.62 340.07 222.00 337.00
C 225.59 334.49 234.42 337.94 239.00 337.00 C 243.58 336.06 251.15 337.00 256.00 337.00
C 255.28 316.74 256.96 295.13 256.00 275.00 C 255.04 254.87 257.87 233.73 256.00 214.00 C 254.13 194.27 260.49 172.33 255.00 154.00
C 242.25 166.99 224.24 175.47 210.75 187.75 C 197.27 200.04 180.89 209.25 167.23 221.23 C 153.57 233.21 136.28 242.76 123.23 255.23 C 110.18 267.70 90.80 274.65 80.00 289.00 Z"/>
</g>
<g fill="None" fill-opacity="0.0" stroke="#000000" stroke-opacity="0.00" stroke-width="0.3"><path d="
M 0.00 512.00 
L 512.00 512.00
L 512.00 241.00
C 492.51 262.36 477.35 289.01 457.00 309.00
C 450.42 301.37 440.11 297.24 433.00 290.00
C 434.19 298.29 432.51 306.57 433.00 315.00 C 433.49 323.43 432.83 332.49 433.00 341.00 C 433.17 349.51 433.03 358.51 433.00 367.00 C 432.97 375.49 433.26 384.65 433.00 393.00 C 432.74 401.35 433.66 410.99 433.00 419.00 C 432.34 427.01 434.49 437.78 433.00 445.00 C 431.51 452.22 436.79 465.21 432.00 470.00
C 427.72 474.28 416.37 469.78 410.00 471.00 C 403.63 472.22 393.99 470.54 387.00 471.00 C 380.01 471.46 371.15 471.00 364.00 471.00 C 356.85 471.00 347.97 471.46 341.00 471.00 C 334.03 470.54 324.33 472.23 318.00 471.00 C 311.67 469.77 300.12 474.29 296.00 470.00
C 292.02 426.03 298.98 381.06 296.00 337.00
C 291.78 334.04 281.39 338.11 276.00 337.00 C 270.61 335.89 261.71 337.00 256.00 337.00
C 251.15 337.00 243.58 336.06 239.00 337.00 C 234.42 337.94 225.59 334.49 222.00 337.00
C 219.02 381.06 225.98 426.03 222.00 470.00
C 217.11 475.10 203.48 469.31 196.00 471.00 C 188.52 472.69 177.44 470.13 169.00 471.00 C 160.56 471.87 151.02 470.36 142.00 471.00 C 132.98 471.64 124.61 470.16 115.00 471.00 C 105.39 471.84 98.62 469.41 88.00 471.00 C 77.38 472.59 78.41 462.05 79.00 453.00 C 79.59 443.95 78.72 435.02 79.00 426.00 C 79.28 416.98 78.83 408.01 79.00 399.00 C 79.17 389.99 78.82 381.02 79.00 372.00 C 79.18 362.98 78.70 354.03 79.00 345.00 C 79.30 335.97 78.38 327.06 79.00 318.00 C 79.62 308.94 77.70 299.00 79.00 290.00
C 71.05 296.34 62.28 302.00 55.00 309.00
C 34.65 289.01 19.52 262.40 0.00 241.00
L 0.00 512.00 Z"/>
</g>
<g fill="None" fill-opacity="0.0" stroke="#FFB945" stroke-opacity="0.07" stroke-width="0.3"><path d="
M 79.00 290.00 
C 77.70 299.00 79.62 308.94 79.00 318.00 C 78.38 327.06 79.30 335.97 79.00 345.00 C 78.70 354.03 79.18 362.98 79.00 372.00 C 78.82 381.02 79.17 389.99 79.00 399.00 C 78.83 408.01 79.28 416.98 79.00 426.00 C 78.72 435.02 79.59 443.95 79.00 453.00 C 78.41 462.05 77.38 472.59 88.00 471.00 C 98.62 469.41 105.39 471.84 115.00 471.00 C 124.61 470.16 132.98 471.64 142.00 471.00 C 151.02 470.36 160.56 471.87 169.00 471.00 C 177.44 470.13 188.52 472.69 196.00 471.00 C 203.48 469.31 217.11 475.10 222.00 470.00
C 222.00 470.04 221.00 470.00 221.00 470.00
C 174.00 470.00 127.00 470.00 80.00 470.00
C 79.87 457.85 80.17 445.09 80.00 433.00 C 79.83 420.92 80.33 408.96 80.00 397.00 C 79.67 385.04 80.72 372.80 80.00 361.00 C 79.28 349.20 81.58 336.51 80.00 325.00 C 78.42 313.49 83.49 299.89 80.00 289.00
C 79.80 289.27 79.25 289.75 79.00 290.00 Z"/>
</g>
<g fill="None" fill-opacity="0.0" stroke="#FEA626" stroke-opacity="0.18" stroke-width="0.3"><path d="
M 432.00 470.00 
C 436.79 465.21 431.51 452.22 433.00 445.00 C 434.49 437.78 432.34 427.01 433.00 419.00 C 433.66 410.99 432.74 401.35 433.00 393.00 C 433.26 384.65 432.97 375.49 433.00 367.00 C 433.03 358.51 433.17 349.51 433.00 341.00 C 432.83 332.49 433.49 323.43 433.00 315.00 C 432.51 306.57 434.19 298.29 433.00 290.00
C 432.75 289.75 432.25 289.25 432.00 289.00
C 428.46 300.05 433.65 314.39 432.00 326.00 C 430.35 337.61 432.75 350.18 432.00 362.00 C 431.25 373.82 432.35 386.08 432.00 398.00 C 431.65 409.92 432.18 422.04 432.00 434.00 C 431.82 445.96 432.14 458.03 432.00 470.00 Z"/>
</g>
<g fill="None" fill-opacity="0.0" stroke="#FEB84E" stroke-opacity="0.41" stroke-width="0.3"><path d="
M 221.00 470.00 
C 221.00 470.00 222.00 470.04 222.00 470.00
C 225.98 426.03 219.02 381.06 222.00 337.00
C 217.62 340.07 222.37 353.30 221.00 359.00 C 219.63 364.70 221.59 374.36 221.00 381.00 C 220.41 387.64 221.21 395.89 221.00 403.00 C 220.79 410.11 221.00 418.73 221.00 426.00 C 221.00 433.27 220.75 440.72 221.00 448.00 C 221.25 455.28 220.35 462.75 221.00 470.00 Z"/>
</g>
<g fill="None" fill-opacity="0.0" stroke="#FEA51C" stroke-opacity="0.69" stroke-width="0.3"><path d="
M 296.00 470.00 
C 296.00 470.04 297.00 470.00 297.00 470.00
C 297.67 462.58 296.72 454.39 297.00 447.00 C 297.28 439.61 296.97 432.27 297.00 425.00 C 297.03 417.73 297.20 410.11 297.00 403.00 C 296.80 395.89 297.52 386.73 297.00 380.00 C 296.48 373.27 298.26 363.72 297.00 358.00 C 295.74 352.28 300.32 340.02 296.00 337.00
C 298.98 381.06 292.02 426.03 296.00 470.00 Z"/>
</g>
<g fill="None" fill-opacity="0.0" stroke="#FEAE20" stroke-opacity="0.06" stroke-width="0.3"><path d="
M 432.00 470.00 
C 387.00 469.98 342.00 470.02 297.00 470.00
C 297.00 470.00 296.00 470.04 296.00 470.00
C 300.12 474.29 311.67 469.77 318.00 471.00 C 324.33 472.23 334.03 470.54 341.00 471.00 C 347.97 471.46 356.85 471.00 364.00 471.00 C 371.15 471.00 380.01 471.46 387.00 471.00 C 393.99 470.54 403.63 472.22 410.00 471.00 C 416.37 469.78 427.72 474.28 432.00 470.00 Z"/>
</g>
<g fill="#000000" fill-opacity="0.00" stroke="None">
<path d="
M 0.00 238.00 
C 7.21 232.66 13.84 227.28 21.08 222.08 C 28.32 216.89 34.97 210.41 42.25 205.25 C 49.53 200.09 56.62 194.19 63.75 188.75 C 70.88 183.31 78.23 177.84 85.25 172.25 C 92.27 166.66 99.25 161.86 106.25 156.25 C 113.25 150.63 120.72 145.35 127.75 139.75 C 134.79 134.15 142.20 128.79 149.25 123.25 C 156.29 117.70 163.74 112.21 170.75 106.75 C 177.75 101.28 184.71 95.94 191.75 90.75 C 198.78 85.55 206.07 78.83 213.23 74.23 C 220.39 69.63 227.44 61.09 234.70 57.70 C 241.96 54.30 249.01 41.18 257.00 42.00
C 263.32 42.65 268.62 52.40 274.70 55.30 C 280.78 58.21 286.60 65.57 292.75 69.25 C 298.89 72.94 304.57 79.21 310.75 83.25 C 316.92 87.30 322.62 92.94 328.75 97.25 C 334.89 101.56 340.77 106.59 346.75 111.25 C 352.74 115.90 359.11 120.14 365.00 125.00
C 365.00 113.33 365.00 101.67 365.00 90.00
C 390.00 90.00 415.00 90.00 440.00 90.00
C 439.89 106.94 440.14 128.52 440.00 145.00 C 439.86 161.48 436.34 181.83 449.75 190.25 C 463.16 198.67 468.85 205.94 480.75 214.25 C 492.66 222.55 500.49 229.72 512.00 238.00
L 512.00 0.00
L 0.00 0.00
L 0.00 238.00 Z"/>
</g>
<g fill="#FF7D3B" fill-opacity="0.99" stroke="None">
<path d="
M 0.00 238.00 
L 0.00 241.00
C 19.52 262.40 34.65 289.01 55.00 309.00
C 62.28 302.00 71.05 296.34 79.00 290.00
C 79.25 289.75 79.80 289.27 80.00 289.00
C 90.80 274.65 110.18 267.70 123.23 255.23 C 136.28 242.76 153.57 233.21 167.23 221.23 C 180.89 209.25 197.27 200.04 210.75 187.75 C 224.24 175.47 242.25 166.99 255.00 154.00
C 255.25 153.75 255.95 153.23 256.00 153.00
C 259.93 135.31 253.74 115.03 256.00 97.00 C 258.26 78.97 253.48 59.64 257.00 42.00
C 249.01 41.18 241.96 54.30 234.70 57.70 C 227.44 61.09 220.39 69.63 213.23 74.23 C 206.07 78.83 198.78 85.55 191.75 90.75 C 184.71 95.94 177.75 101.28 170.75 106.75 C 163.74 112.21 156.29 117.70 149.25 123.25 C 142.20 128.79 134.79 134.15 127.75 139.75 C 120.72 145.35 113.25 150.63 106.25 156.25 C 99.25 161.86 92.27 166.66 85.25 172.25 C 78.23 177.84 70.88 183.31 63.75 188.75 C 56.62 194.19 49.53 200.09 42.25 205.25 C 34.97 210.41 28.32 216.89 21.08 222.08 C 13.84 227.28 7.21 232.66 0.00 238.00 Z"/>
</g>
<g fill="#FE4E19" fill-opacity="0.99" stroke="None">
<path d="
M 256.00 153.00 
C 263.15 154.51 268.45 164.26 275.23 167.77 C 282.01 171.28 288.37 178.69 295.08 182.92 C 301.80 187.14 308.06 193.79 314.75 198.25 C 321.43 202.72 327.14 208.49 333.75 213.25 C 340.37 218.00 347.14 223.37 353.75 228.25 C 360.35 233.13 366.72 238.75 373.25 243.75 C 379.77 248.76 386.26 253.17 392.75 258.25 C 399.24 263.33 405.82 268.52 412.25 273.75 C 418.68 278.98 426.25 283.12 432.00 289.00
C 432.25 289.25 432.75 289.75 433.00 290.00
C 440.11 297.24 450.42 301.37 457.00 309.00
C 477.35 289.01 492.51 262.36 512.00 241.00
L 512.00 238.00
C 500.49 229.72 492.66 222.55 480.75 214.25 C 468.85 205.94 463.16 198.67 449.75 190.25 C 436.34 181.83 439.86 161.48 440.00 145.00 C 440.14 128.52 439.89 106.94 440.00 90.00
C 415.00 90.00 390.00 90.00 365.00 90.00
C 365.00 101.67 365.00 113.33 365.00 125.00
C 359.11 120.14 352.74 115.90 346.75 111.25 C 340.77 106.59 334.89 101.56 328.75 97.25 C 322.62 92.94 316.92 87.30 310.75 83.25 C 304.57 79.21 298.89 72.94 292.75 69.25 C 286.60 65.57 280.78 58.21 274.70 55.30 C 268.62 52.40 263.32 42.65 257.00 42.00
C 253.48 59.64 258.26 78.97 256.00 97.00 C 253.74 115.03 259.93 135.31 256.00 153.00 Z"/>
</g>
<g fill="#FE9900" fill-opacity="1.00" stroke="None">
<path d="
M 255.00 154.00 
C 260.49 172.33 254.13 194.27 256.00 214.00 C 257.87 233.73 255.04 254.87 256.00 275.00 C 256.96 295.13 255.28 316.74 256.00 337.00
C 261.71 337.00 270.61 335.89 276.00 337.00 C 281.39 338.11 291.78 334.04 296.00 337.00
C 300.32 340.02 295.74 352.28 297.00 358.00 C 298.26 363.72 296.48 373.27 297.00 380.00 C 297.52 386.73 296.80 395.89 297.00 403.00 C 297.20 410.11 297.03 417.73 297.00 425.00 C 296.97 432.27 297.28 439.61 297.00 447.00 C 296.72 454.39 297.67 462.58 297.00 470.00
C 342.00 470.02 387.00 469.98 432.00 470.00
C 432.14 458.03 431.82 445.96 432.00 434.00 C 432.18 422.04 431.65 409.92 432.00 398.00 C 432.35 386.08 431.25 373.82 432.00 362.00 C 432.75 350.18 430.35 337.61 432.00 326.00 C 433.65 314.39 428.46 300.05 432.00 289.00
C 426.25 283.12 418.68 278.98 412.25 273.75 C 405.82 268.52 399.24 263.33 392.75 258.25 C 386.26 253.17 379.77 248.76 373.25 243.75 C 366.72 238.75 360.35 233.13 353.75 228.25 C 347.14 223.37 340.37 218.00 333.75 213.25 C 327.14 208.49 321.43 202.72 314.75 198.25 C 308.06 193.79 301.80 187.14 295.08 182.92 C 288.37 178.69 282.01 171.28 275.23 167.77 C 268.45 164.26 263.15 154.51 256.00 153.00
C 255.95 153.23 255.25 153.75 255.00 154.00 Z"/>
</g>
<g fill="#FEB64E" fill-opacity="1.00" stroke="None">
<path d="
M 80.00 289.00 
C 83.49 299.89 78.42 313.49 80.00 325.00 C 81.58 336.51 79.28 349.20 80.00 361.00 C 80.72 372.80 79.67 385.04 80.00 397.00 C 80.33 408.96 79.83 420.92 80.00 433.00 C 80.17 445.09 79.87 457.85 80.00 470.00
C 127.00 470.00 174.00 470.00 221.00 470.00
C 220.35 462.75 221.25 455.28 221.00 448.00 C 220.75 440.72 221.00 433.27 221.00 426.00 C 221.00 418.73 220.79 410.11 221.00 403.00 C 221.21 395.89 220.41 387.64 221.00 381.00 C 221.59 374.36 219.63 364.70 221.00 359.00 C 222.37 353.30 217.62 340.07 222.00 337.00
C 225.59 334.49 234.42 337.94 239.00 337.00 C 243.58 336.06 251.15 337.00 256.00 337.00
C 255.28 316.74 256.96 295.13 256.00 275.00 C 255.04 254.87 257.87 233.73 256.00 214.00 C 254.13 194.27 260.49 172.33 255.00 154.00
C 242.25 166.99 224.24 175.47 210.75 187.75 C 197.27 200.04 180.89 209.25 167.23 221.23 C 153.57 233.21 136.28 242.76 123.23 255.23 C 110.18 267.70 90.80 274.65 80.00 289.00 Z"/>
</g>
<g fill="#000000" fill-opacity="0.00" stroke="None">
<path d="
M 0.00 512.00 
L 512.00 512.00
L 512.00 241.00
C 492.51 262.36 477.35 289.01 457.00 309.00
C 450.42 301.37 440.11 297.24 433.00 290.00
C 434.19 298.29 432.51 306.57 433.00 315.00 C 433.49 323.43 432.83 332.49 433.00 341.00 C 433.17 349.51 433.03 358.51 433.00 367.00 C 432.97 375.49 433.26 384.65 433.00 393.00 C 432.74 401.35 433.66 410.99 433.00 419.00 C 432.34 427.01 434.49 437.78 433.00 445.00 C 431.51 452.22 436.79 465.21 432.00 470.00
C 427.72 474.28 416.37 469.78 410.00 471.00 C 403.63 472.22 393.99 470.54 387.00 471.00 C 380.01 471.46 371.15 471.00 364.00 471.00 C 356.85 471.00 347.97 471.46 341.00 471.00 C 334.03 470.54 324.33 472.23 318.00 471.00 C 311.67 469.77 300.12 474.29 296.00 470.00
C 292.02 426.03 298.98 381.06 296.00 337.00
C 291.78 334.04 281.39 338.11 276.00 337.00 C 270.61 335.89 261.71 337.00 256.00 337.00
C 251.15 337.00 243.58 336.06 239.00 337.00 C 234.42 337.94 225.59 334.49 222.00 337.00
C 219.02 381.06 225.98 426.03 222.00 470.00
C 217.11 475.10 203.48 469.31 196.00 471.00 C 188.52 472.69 177.44 470.13 169.00 471.00 C 160.56 471.87 151.02 470.36 142.00 471.00 C 132.98 471.64 124.61 470.16 115.00 471.00 C 105.39 471.84 98.62 469.41 88.00 471.00 C 77.38 472.59 78.41 462.05 79.00 453.00 C 79.59 443.95 78.72 435.02 79.00 426.00 C 79.28 416.98 78.83 408.01 79.00 399.00 C 79.17 389.99 78.82 381.02 79.00 372.00 C 79.18 362.98 78.70 354.03 79.00 345.00 C 79.30 335.97 78.38 327.06 79.00 318.00 C 79.62 308.94 77.70 299.00 79.00 290.00
C 71.05 296.34 62.28 302.00 55.00 309.00
C 34.65 289.01 19.52 262.40 0.00 241.00
L 0.00 512.00 Z"/>
</g>
<g fill="#FFB945" fill-opacity="0.07" stroke="None">
<path d="
M 79.00 290.00 
C 77.70 299.00 79.62 308.94 79.00 318.00 C 78.38 327.06 79.30 335.97 79.00 345.00 C 78.70 354.03 79.18 362.98 79.00 372.00 C 78.82 381.02 79.17 389.99 79.00 399.00 C 78.83 408.01 79.28 416.98 79.00 426.00 C 78.72 435.02 79.59 443.95 79.00 453.00 C 78.41 462.05 77.38 472.59 88.00 471.00 C 98.62 469.41 105.39 471.84 115.00 471.00 C 124.61 470.16 132.98 471.64 142.00 471.00 C 151.02 470.36 160.56 471.87 169.00 471.00 C 177.44 470.13 188.52 472.69 196.00 471.00 C 203.48 469.31 217.11 475.10 222.00 470.00
C 222.00 470.04 221.00 470.00 221.00 470.00
C 174.00 470.00 127.00 470.00 80.00 470.00
C 79.87 457.85 80.17 445.09 80.00 433.00 C 79.83 420.92 80.33 408.96 80.00 397.00 C 79.67 385.04 80.72 372.80 80.00 361.00 C 79.28 349.20 81.58 336.51 80.00 325.00 C 78.42 313.49 83.49 299.89 80.00 289.00
C 79.80 289.27 79.25 289.75 79.00 290.00 Z"/>
</g>
<g fill="#FEA626" fill-opacity="0.18" stroke="None">
<path d="
M 432.00 470.00 
C 436.79 465.21 431.51 452.22 433.00 445.00 C 434.49 437.78 432.34 427.01 433.00 419.00 C 433.66 410.99 432.74 401.35 433.00 393.00 C 433.26 384.65 432.97 375.49 433.00 367.00 C 433.03 358.51 433.17 349.51 433.00 341.00 C 432.83 332.49 433.49 323.43 433.00 315.00 C 432.51 306.57 434.19 298.29 433.00 290.00
C 432.75 289.75 432.25 289.25 432.00 289.00
C 428.46 300.05 433.65 314.39 432.00 326.00 C 430.35 337.61 432.75 350.18 432.00 362.00 C 431.25 373.82 432.35 386.08 432.00 398.00 C 431.65 409.92 432.18 422.04 432.00 434.00 C 431.82 445.96 432.14 458.03 432.00 470.00 Z"/>
</g>
<g fill="#FEB84E" fill-opacity="0.41" stroke="None">
<path d="
M 221.00 470.00 
C 221.00 470.00 222.00 470.04 222.00 470.00
C 225.98 426.03 219.02 381.06 222.00 337.00
C 217.62 340.07 222.37 353.30 221.00 359.00 C 219.63 364.70 221.59 374.36 221.00 381.00 C 220.41 387.64 221.21 395.89 221.00 403.00 C 220.79 410.11 221.00 418.73 221.00 426.00 C 221.00 433.27 220.75 440.72 221.00 448.00 C 221.25 455.28 220.35 462.75 221.00 470.00 Z"/>
</g>
<g fill="#FEA51C" fill-opacity="0.69" stroke="None">
<path d="
M 296.00 470.00 
C 296.00 470.04 297.00 470.00 297.00 470.00
C 297.67 462.58 296.72 454.39 297.00 447.00 C 297.28 439.61 296.97 432.27 297.00 425.00 C 297.03 417.73 297.20 410.11 297.00 403.00 C 296.80 395.89 297.52 386.73 297.00 380.00 C 296.48 373.27 298.26 363.72 297.00 358.00 C 295.74 352.28 300.32 340.02 296.00 337.00
C 298.98 381.06 292.02 426.03 296.00 470.00 Z"/>
</g>
<g fill="#FEAE20" fill-opacity="0.06" stroke="None">
<path d="
M 432.00 470.00 
C 387.00 469.98 342.00 470.02 297.00 470.00
C 297.00 470.00 296.00 470.04 296.00 470.00
C 300.12 474.29 311.67 469.77 318.00 471.00 C 324.33 472.23 334.03 470.54 341.00 471.00 C 347.97 471.46 356.85 471.00 364.00 471.00 C 371.15 471.00 380.01 471.46 387.00 471.00 C 393.99 470.54 403.63 472.22 410.00 471.00 C 416.37 469.78 427.72 474.28 432.00 470.00 Z"/>
</g>
</svg>