<svg xmlns="http://www.w3.org/2000/svg" xmlns:v="https://svgstorm.com"
viewBox = "0 0 512 512"
width="512"
height="512">
<g fill="None" fill-opacity="0.0" stroke="#000000" stroke-opacity="0.00" stroke-width="0.3"><path d="
M 0.00 512.00 
L 114.00 512.00
C 148.78 429.68 183.66 347.46 218.00 265.00
C 183.33 265.00 148.67 265.00 114.00 265.00
C 157.87 176.58 202.84 88.65 246.00 0.00
L 0.00 0.00
L 0.00 512.00 Z"/>
</g>
<g fill="None" fill-opacity="0.0" stroke="#ECBA16" stroke-opacity="0.98" stroke-width="0.3"><path d="
M 114.00 512.00 
L 116.00 512.00
C 209.32 399.51 304.87 288.55 398.00 176.00
C 358.00 176.00 318.00 176.00 278.00 176.00
C 314.01 116.95 352.38 58.88 389.00 0.00
L 246.00 0.00
C 202.84 88.65 157.87 176.58 114.00 265.00
C 148.67 265.00 183.33 265.00 218.00 265.00
C 183.66 347.46 148.78 429.68 114.00 512.00 Z"/>
</g>
<g fill="None" fill-opacity="0.0" stroke="#000000" stroke-opacity="0.00" stroke-width="0.3"><path d="
M 116.00 512.00 
L 512.00 512.00
L 512.00 0.00
L 389.00 0.00
C 352.38 58.88 314.01 116.95 278.00 176.00
C 318.00 176.00 358.00 176.00 398.00 176.00
C 304.87 288.55 209.32 399.51 116.00 512.00 Z"/>
</g>
<g fill="#000000" fill-opacity="0.00" stroke="None">
<path d="
M 0.00 512.00 
L 114.00 512.00
C 148.78 429.68 183.66 347.46 218.00 265.00
C 183.33 265.00 148.67 265.00 114.00 265.00
C 157.87 176.58 202.84 88.65 246.00 0.00
L 0.00 0.00
L 0.00 512.00 Z"/>
</g>
<g fill="#ECBA16" fill-opacity="0.98" stroke="None">
<path d="
M 114.00 512.00 
L 116.00 512.00
C 209.32 399.51 304.87 288.55 398.00 176.00
C 358.00 176.00 318.00 176.00 278.00 176.00
C 314.01 116.95 352.38 58.88 389.00 0.00
L 246.00 0.00
C 202.84 88.65 157.87 176.58 114.00 265.00
C 148.67 265.00 183.33 265.00 218.00 265.00
C 183.66 347.46 148.78 429.68 114.00 512.00 Z"/>
</g>
<g fill="#000000" fill-opacity="0.00" stroke="None">
<path d="
M 116.00 512.00 
L 512.00 512.00
L 512.00 0.00
L 389.00 0.00
C 352.38 58.88 314.01 116.95 278.00 176.00
C 318.00 176.00 358.00 176.00 398.00 176.00
C 304.87 288.55 209.32 399.51 116.00 512.00 Z"/>
</g>
</svg>