<svg xmlns="http://www.w3.org/2000/svg" xmlns:v="https://svgstorm.com"
viewBox = "0 0 512 512"
width="512"
height="512">
<g fill="None" fill-opacity="0.0" stroke="#000000" stroke-opacity="0.00" stroke-width="0.3"><path d="
M 0.00 512.00 
L 512.00 512.00
L 512.00 0.00
L 0.00 0.00
L 0.00 512.00
M 427.00 407.00 
C 437.10 406.09 448.89 406.11 459.00 407.00
C 477.62 408.64 494.39 421.03 500.32 439.68 C 506.25 458.32 501.66 479.69 484.75 492.75 C 467.85 505.82 441.54 503.00 420.00 503.00
C 371.77 503.00 323.20 504.23 275.00 503.00 C 226.80 501.77 178.07 506.27 130.00 503.00
C 116.10 502.05 104.30 495.83 96.00 485.00
C 77.37 460.69 86.43 429.92 85.00 399.00 C 83.57 368.08 85.62 332.85 85.00 301.00 C 84.38 269.15 85.23 235.24 85.00 203.00 C 84.77 170.76 85.00 137.35 85.00 105.00
C 73.92 106.00 61.03 105.25 50.00 105.00 C 38.97 104.75 25.89 107.13 16.00 104.00
C 12.53 102.90 9.81 100.97 9.00 97.00
C 6.45 84.48 8.13 66.78 9.00 54.00
C 10.64 29.86 29.85 10.64 54.00 9.00
C 68.18 8.03 82.78 9.00 97.00 9.00
C 131.17 9.00 166.99 8.01 201.00 9.00 C 235.01 9.99 271.59 6.37 305.00 9.00 C 338.41 11.63 372.97 0.36 403.08 14.92 C 433.18 29.49 426.71 64.31 427.00 95.00 C 427.29 125.69 426.88 166.19 427.00 199.00 C 427.12 231.81 426.95 269.30 427.00 303.00 C 427.05 336.70 427.00 373.06 427.00 407.00 Z"/>
</g>
<g fill="None" fill-opacity="0.0" stroke="#FEC927" stroke-opacity="1.00" stroke-width="0.3"><path d="
M 9.00 54.00 
C 9.18 60.14 9.61 68.16 10.00 75.00 C 10.39 81.84 8.36 91.14 9.00 97.00
C 9.81 100.97 12.53 102.90 16.00 104.00
C 18.19 104.37 20.77 104.00 23.00 104.00
C 32.67 101.25 26.80 82.23 28.00 74.00 C 29.20 65.77 26.43 50.65 31.92 42.92 C 37.42 35.20 44.13 29.10 54.00 29.00 C 63.87 28.90 72.76 30.27 79.25 38.75 C 85.74 47.23 85.16 56.99 85.00 68.00 C 84.84 79.01 85.00 92.74 85.00 104.00
C 85.00 104.50 85.00 105.00 85.00 105.00
C 85.00 137.35 84.77 170.76 85.00 203.00 C 85.23 235.24 84.38 269.15 85.00 301.00 C 85.62 332.85 83.57 368.08 85.00 399.00 C 86.43 429.92 77.37 460.69 96.00 485.00
C 104.15 486.95 117.77 482.10 127.00 484.00 C 136.23 485.90 144.40 481.80 151.25 476.25 C 158.10 470.70 161.29 463.05 161.00 454.00 C 160.71 444.95 156.50 438.81 149.75 432.25 C 143.00 425.68 133.27 430.11 126.25 423.75 C 119.22 417.40 125.81 406.20 136.00 408.00 C 146.19 409.80 157.46 407.21 168.00 408.00 C 178.54 408.79 190.33 407.63 201.00 408.00 C 211.67 408.37 222.32 407.83 233.00 408.00 C 243.68 408.17 254.29 407.93 265.00 408.00 C 275.71 408.07 286.22 407.97 297.00 408.00 C 307.78 408.03 319.21 407.98 330.00 408.00 C 340.79 408.02 351.23 407.99 362.00 408.00 C 372.77 408.01 383.17 408.00 394.00 408.00 C 404.83 408.00 416.13 408.00 427.00 408.00
C 426.96 408.00 427.00 407.00 427.00 407.00
C 427.00 373.06 427.05 336.70 427.00 303.00 C 426.95 269.30 427.12 231.81 427.00 199.00 C 426.88 166.19 427.29 125.69 427.00 95.00 C 426.71 64.31 433.18 29.49 403.08 14.92 C 372.97 0.36 338.41 11.63 305.00 9.00 C 271.59 6.37 235.01 9.99 201.00 9.00 C 166.99 8.01 131.17 9.00 97.00 9.00
C 83.38 10.32 67.51 9.39 54.00 9.00
C 29.85 10.64 10.64 29.86 9.00 54.00
M 373.00 57.00 
C 382.71 59.95 379.72 78.47 379.00 88.00 C 378.28 97.53 381.93 115.42 379.00 126.00 C 376.07 136.58 358.17 132.56 348.00 133.00 C 337.83 133.44 321.51 132.78 310.00 133.00 C 298.49 133.22 284.08 132.85 272.00 133.00 C 259.92 133.15 246.25 132.82 234.00 133.00 C 221.75 133.18 208.15 132.66 196.00 133.00 C 183.85 133.34 169.70 132.28 158.00 133.00 C 146.30 133.72 132.95 134.19 133.00 121.00 C 133.05 107.81 133.42 95.15 133.00 83.00 C 132.58 70.85 130.94 56.77 145.00 57.00 C 159.06 57.24 169.72 56.84 183.00 57.00 C 196.28 57.16 208.09 56.81 221.00 57.00 C 233.91 57.19 246.30 56.66 259.00 57.00 C 271.70 57.34 284.49 56.27 297.00 57.00 C 309.51 57.73 322.78 55.40 335.00 57.00 C 347.22 58.60 361.38 53.47 373.00 57.00
M 372.00 161.00 
C 385.13 164.05 378.07 182.95 365.00 180.00 C 351.93 177.05 337.30 181.29 324.00 180.00 C 310.70 178.71 296.27 180.50 283.00 180.00 C 269.73 179.50 254.99 180.03 242.00 180.00 C 229.01 179.97 214.32 179.56 202.00 180.00 C 189.68 180.44 171.95 178.84 161.00 180.00 C 150.05 181.16 128.73 181.00 133.33 167.33 C 137.93 153.66 156.81 163.13 168.00 161.00 C 179.19 158.87 195.50 161.83 208.00 161.00 C 220.50 160.17 235.91 161.15 249.00 161.00 C 262.09 160.85 276.72 160.58 290.00 161.00 C 303.28 161.42 317.78 159.72 331.00 161.00 C 344.22 162.28 359.14 158.01 372.00 161.00
M 374.00 209.00 
C 383.64 212.56 378.99 229.63 368.00 228.00 C 357.01 226.37 344.43 228.71 333.00 228.00 C 321.57 227.29 308.56 228.30 297.00 228.00 C 285.44 227.70 273.51 228.07 262.00 228.00 C 250.49 227.93 238.35 227.89 227.00 228.00 C 215.65 228.11 201.90 227.65 191.00 228.00 C 180.10 228.35 165.75 227.14 156.00 228.00 C 146.25 228.86 130.01 228.40 133.00 216.00 C 135.99 203.60 152.10 210.22 162.00 209.00 C 171.90 207.78 186.11 209.49 197.00 209.00 C 207.89 208.51 220.64 209.08 232.00 209.00 C 243.36 208.92 256.50 208.76 268.00 209.00 C 279.50 209.24 291.60 208.25 303.00 209.00 C 314.40 209.75 326.87 207.23 338.00 209.00 C 349.13 210.77 363.58 205.16 374.00 209.00
M 373.00 256.00 
C 385.96 259.93 376.69 278.55 364.00 275.00 C 351.31 271.45 336.13 276.55 323.00 275.00 C 309.87 273.45 295.22 275.59 282.00 275.00 C 268.78 274.41 254.00 275.03 241.00 275.00 C 228.00 274.97 213.41 274.45 201.00 275.00 C 188.59 275.55 171.17 273.55 160.00 275.00 C 148.83 276.45 128.23 275.14 133.78 261.78 C 139.33 248.42 157.51 258.28 169.00 256.00 C 180.49 253.72 196.38 256.87 209.00 256.00 C 221.62 255.13 236.89 256.11 250.00 256.00 C 263.11 255.89 277.78 255.43 291.00 256.00 C 304.22 256.57 318.97 254.37 332.00 256.00 C 345.03 257.63 360.59 252.23 373.00 256.00
M 372.00 303.00 
C 385.28 306.29 378.10 325.06 365.00 322.00 C 351.90 318.94 337.31 323.34 324.00 322.00 C 310.69 320.66 296.28 322.52 283.00 322.00 C 269.72 321.48 255.00 322.04 242.00 322.00 C 229.00 321.96 214.34 321.54 202.00 322.00 C 189.66 322.46 171.99 320.80 161.00 322.00 C 150.01 323.20 128.47 323.01 133.33 309.33 C 138.19 295.65 156.76 305.15 168.00 303.00 C 179.24 300.85 195.48 303.83 208.00 303.00 C 220.52 302.17 235.91 303.14 249.00 303.00 C 262.09 302.86 276.73 302.54 290.00 303.00 C 303.27 303.46 317.82 301.64 331.00 303.00 C 344.18 304.36 359.23 299.84 372.00 303.00
M 373.00 351.00 
C 385.94 354.93 376.64 373.31 364.00 370.00 C 351.36 366.69 336.11 371.45 323.00 370.00 C 309.89 368.55 295.20 370.55 282.00 370.00 C 268.80 369.45 253.98 370.02 241.00 370.00 C 228.02 369.98 213.38 369.46 201.00 370.00 C 188.62 370.54 171.09 368.58 160.00 370.00 C 148.91 371.42 128.30 369.98 133.78 356.78 C 139.26 343.58 157.54 353.21 169.00 351.00 C 180.46 348.79 196.39 351.83 209.00 351.00 C 221.61 350.17 236.90 351.10 250.00 351.00 C 263.10 350.90 277.78 350.43 291.00 351.00 C 304.22 351.57 318.97 349.37 332.00 351.00 C 345.03 352.63 360.59 347.23 373.00 351.00 Z"/>
</g>
<g fill="None" fill-opacity="0.0" stroke="#FCB11B" stroke-opacity="0.77" stroke-width="0.3"><path d="
M 97.00 9.00 
C 82.78 9.00 68.18 8.03 54.00 9.00
C 67.51 9.39 83.38 10.32 97.00 9.00 Z"/>
</g>
<g fill="None" fill-opacity="0.0" stroke="#F57C00" stroke-opacity="1.00" stroke-width="0.3"><path d="
M 23.00 104.00 
C 43.38 104.00 64.71 102.17 85.00 104.00
C 85.00 92.74 84.84 79.01 85.00 68.00 C 85.16 56.99 85.74 47.23 79.25 38.75 C 72.76 30.27 63.87 28.90 54.00 29.00 C 44.13 29.10 37.42 35.20 31.92 42.92 C 26.43 50.65 29.20 65.77 28.00 74.00 C 26.80 82.23 32.67 101.25 23.00 104.00 Z"/>
</g>
<g fill="None" fill-opacity="0.0" stroke="#FBB01A" stroke-opacity="0.76" stroke-width="0.3"><path d="
M 9.00 97.00 
C 8.36 91.14 10.39 81.84 10.00 75.00 C 9.61 68.16 9.18 60.14 9.00 54.00
C 8.13 66.78 6.45 84.48 9.00 97.00 Z"/>
</g>
<g fill="None" fill-opacity="0.0" stroke="#F57C00" stroke-opacity="1.00" stroke-width="0.3"><path d="
M 373.00 57.00 
C 361.38 53.47 347.22 58.60 335.00 57.00 C 322.78 55.40 309.51 57.73 297.00 57.00 C 284.49 56.27 271.70 57.34 259.00 57.00 C 246.30 56.66 233.91 57.19 221.00 57.00 C 208.09 56.81 196.28 57.16 183.00 57.00 C 169.72 56.84 159.06 57.24 145.00 57.00 C 130.94 56.77 132.58 70.85 133.00 83.00 C 133.42 95.15 133.05 107.81 133.00 121.00 C 132.95 134.19 146.30 133.72 158.00 133.00 C 169.70 132.28 183.85 133.34 196.00 133.00 C 208.15 132.66 221.75 133.18 234.00 133.00 C 246.25 132.82 259.92 133.15 272.00 133.00 C 284.08 132.85 298.49 133.22 310.00 133.00 C 321.51 132.78 337.83 133.44 348.00 133.00 C 358.17 132.56 376.07 136.58 379.00 126.00 C 381.93 115.42 378.28 97.53 379.00 88.00 C 379.72 78.47 382.71 59.95 373.00 57.00 Z"/>
</g>
<g fill="None" fill-opacity="0.0" stroke="#F47E01" stroke-opacity="0.27" stroke-width="0.3"><path d="
M 85.00 105.00 
C 85.00 105.00 85.00 104.50 85.00 104.00
C 64.71 102.17 43.38 104.00 23.00 104.00
C 20.77 104.00 18.19 104.37 16.00 104.00
C 25.89 107.13 38.97 104.75 50.00 105.00 C 61.03 105.25 73.92 106.00 85.00 105.00 Z"/>
</g>
<g fill="None" fill-opacity="0.0" stroke="#F57C00" stroke-opacity="1.00" stroke-width="0.3"><path d="
M 372.00 161.00 
C 359.14 158.01 344.22 162.28 331.00 161.00 C 317.78 159.72 303.28 161.42 290.00 161.00 C 276.72 160.58 262.09 160.85 249.00 161.00 C 235.91 161.15 220.50 160.17 208.00 161.00 C 195.50 161.83 179.19 158.87 168.00 161.00 C 156.81 163.13 137.93 153.66 133.33 167.33 C 128.73 181.00 150.05 181.16 161.00 180.00 C 171.95 178.84 189.68 180.44 202.00 180.00 C 214.32 179.56 229.01 179.97 242.00 180.00 C 254.99 180.03 269.73 179.50 283.00 180.00 C 296.27 180.50 310.70 178.71 324.00 180.00 C 337.30 181.29 351.93 177.05 365.00 180.00 C 378.07 182.95 385.13 164.05 372.00 161.00 Z"/>
</g>
<g fill="None" fill-opacity="0.0" stroke="#F57E00" stroke-opacity="1.00" stroke-width="0.3"><path d="
M 374.00 209.00 
C 363.58 205.16 349.13 210.77 338.00 209.00 C 326.87 207.23 314.40 209.75 303.00 209.00 C 291.60 208.25 279.50 209.24 268.00 209.00 C 256.50 208.76 243.36 208.92 232.00 209.00 C 220.64 209.08 207.89 208.51 197.00 209.00 C 186.11 209.49 171.90 207.78 162.00 209.00 C 152.10 210.22 135.99 203.60 133.00 216.00 C 130.01 228.40 146.25 228.86 156.00 228.00 C 165.75 227.14 180.10 228.35 191.00 228.00 C 201.90 227.65 215.65 228.11 227.00 228.00 C 238.35 227.89 250.49 227.93 262.00 228.00 C 273.51 228.07 285.44 227.70 297.00 228.00 C 308.56 228.30 321.57 227.29 333.00 228.00 C 344.43 228.71 357.01 226.37 368.00 228.00 C 378.99 229.63 383.64 212.56 374.00 209.00 Z"/>
</g>
<g fill="None" fill-opacity="0.0" stroke="#F57C00" stroke-opacity="1.00" stroke-width="0.3"><path d="
M 373.00 256.00 
C 360.59 252.23 345.03 257.63 332.00 256.00 C 318.97 254.37 304.22 256.57 291.00 256.00 C 277.78 255.43 263.11 255.89 250.00 256.00 C 236.89 256.11 221.62 255.13 209.00 256.00 C 196.38 256.87 180.49 253.72 169.00 256.00 C 157.51 258.28 139.33 248.42 133.78 261.78 C 128.23 275.14 148.83 276.45 160.00 275.00 C 171.17 273.55 188.59 275.55 201.00 275.00 C 213.41 274.45 228.00 274.97 241.00 275.00 C 254.00 275.03 268.78 274.41 282.00 275.00 C 295.22 275.59 309.87 273.45 323.00 275.00 C 336.13 276.55 351.31 271.45 364.00 275.00 C 376.69 278.55 385.96 259.93 373.00 256.00 Z"/>
</g>
<g fill="None" fill-opacity="0.0" stroke="#F57D00" stroke-opacity="1.00" stroke-width="0.3"><path d="
M 372.00 303.00 
C 359.23 299.84 344.18 304.36 331.00 303.00 C 317.82 301.64 303.27 303.46 290.00 303.00 C 276.73 302.54 262.09 302.86 249.00 303.00 C 235.91 303.14 220.52 302.17 208.00 303.00 C 195.48 303.83 179.24 300.85 168.00 303.00 C 156.76 305.15 138.19 295.65 133.33 309.33 C 128.47 323.01 150.01 323.20 161.00 322.00 C 171.99 320.80 189.66 322.46 202.00 322.00 C 214.34 321.54 229.00 321.96 242.00 322.00 C 255.00 322.04 269.72 321.48 283.00 322.00 C 296.28 322.52 310.69 320.66 324.00 322.00 C 337.31 323.34 351.90 318.94 365.00 322.00 C 378.10 325.06 385.28 306.29 372.00 303.00 Z"/>
</g>
<g fill="None" fill-opacity="0.0" stroke="#F57C00" stroke-opacity="1.00" stroke-width="0.3"><path d="
M 373.00 351.00 
C 360.59 347.23 345.03 352.63 332.00 351.00 C 318.97 349.37 304.22 351.57 291.00 351.00 C 277.78 350.43 263.10 350.90 250.00 351.00 C 236.90 351.10 221.61 350.17 209.00 351.00 C 196.39 351.83 180.46 348.79 169.00 351.00 C 157.54 353.21 139.26 343.58 133.78 356.78 C 128.30 369.98 148.91 371.42 160.00 370.00 C 171.09 368.58 188.62 370.54 201.00 370.00 C 213.38 369.46 228.02 369.98 241.00 370.00 C 253.98 370.02 268.80 369.45 282.00 370.00 C 295.20 370.55 309.89 368.55 323.00 370.00 C 336.11 371.45 351.36 366.69 364.00 370.00 C 376.64 373.31 385.94 354.93 373.00 351.00 Z"/>
</g>
<g fill="None" fill-opacity="0.0" stroke="#F47C00" stroke-opacity="0.26" stroke-width="0.3"><path d="
M 427.00 408.00 
C 437.53 408.00 449.29 407.09 459.00 407.00
C 448.89 406.11 437.10 406.09 427.00 407.00
C 427.00 407.00 426.96 408.00 427.00 408.00 Z"/>
</g>
<g fill="None" fill-opacity="0.0" stroke="#F57C00" stroke-opacity="1.00" stroke-width="0.3"><path d="
M 427.00 408.00 
C 416.13 408.00 404.83 408.00 394.00 408.00 C 383.17 408.00 372.77 408.01 362.00 408.00 C 351.23 407.99 340.79 408.02 330.00 408.00 C 319.21 407.98 307.78 408.03 297.00 408.00 C 286.22 407.97 275.71 408.07 265.00 408.00 C 254.29 407.93 243.68 408.17 233.00 408.00 C 222.32 407.83 211.67 408.37 201.00 408.00 C 190.33 407.63 178.54 408.79 168.00 408.00 C 157.46 407.21 146.19 409.80 136.00 408.00 C 125.81 406.20 119.22 417.40 126.25 423.75 C 133.27 430.11 143.00 425.68 149.75 432.25 C 156.50 438.81 160.71 444.95 161.00 454.00 C 161.29 463.05 158.10 470.70 151.25 476.25 C 144.40 481.80 136.23 485.90 127.00 484.00 C 117.77 482.10 104.15 486.95 96.00 485.00
C 104.30 495.83 116.10 502.05 130.00 503.00
C 177.29 501.63 226.99 500.80 275.00 502.00 C 323.01 503.20 372.95 498.45 420.00 503.00
C 441.54 503.00 467.85 505.82 484.75 492.75 C 501.66 479.69 506.25 458.32 500.32 439.68 C 494.39 421.03 477.62 408.64 459.00 407.00
C 449.29 407.09 437.53 408.00 427.00 408.00 Z"/>
</g>
<g fill="None" fill-opacity="0.0" stroke="#F8940C" stroke-opacity="0.78" stroke-width="0.3"><path d="
M 130.00 503.00 
C 178.07 506.27 226.80 501.77 275.00 503.00 C 323.20 504.23 371.77 503.00 420.00 503.00
C 372.95 498.45 323.01 503.20 275.00 502.00 C 226.99 500.80 177.29 501.63 130.00 503.00 Z"/>
</g>
<g fill="#000000" fill-opacity="0.00" stroke="None">
<path d="
M 0.00 512.00 
L 512.00 512.00
L 512.00 0.00
L 0.00 0.00
L 0.00 512.00
M 427.00 407.00 
C 437.10 406.09 448.89 406.11 459.00 407.00
C 477.62 408.64 494.39 421.03 500.32 439.68 C 506.25 458.32 501.66 479.69 484.75 492.75 C 467.85 505.82 441.54 503.00 420.00 503.00
C 371.77 503.00 323.20 504.23 275.00 503.00 C 226.80 501.77 178.07 506.27 130.00 503.00
C 116.10 502.05 104.30 495.83 96.00 485.00
C 77.37 460.69 86.43 429.92 85.00 399.00 C 83.57 368.08 85.62 332.85 85.00 301.00 C 84.38 269.15 85.23 235.24 85.00 203.00 C 84.77 170.76 85.00 137.35 85.00 105.00
C 73.92 106.00 61.03 105.25 50.00 105.00 C 38.97 104.75 25.89 107.13 16.00 104.00
C 12.53 102.90 9.81 100.97 9.00 97.00
C 6.45 84.48 8.13 66.78 9.00 54.00
C 10.64 29.86 29.85 10.64 54.00 9.00
C 68.18 8.03 82.78 9.00 97.00 9.00
C 131.17 9.00 166.99 8.01 201.00 9.00 C 235.01 9.99 271.59 6.37 305.00 9.00 C 338.41 11.63 372.97 0.36 403.08 14.92 C 433.18 29.49 426.71 64.31 427.00 95.00 C 427.29 125.69 426.88 166.19 427.00 199.00 C 427.12 231.81 426.95 269.30 427.00 303.00 C 427.05 336.70 427.00 373.06 427.00 407.00 Z"/>
</g>
<g fill="#FEC927" fill-opacity="1.00" stroke="None">
<path d="
M 9.00 54.00 
C 9.18 60.14 9.61 68.16 10.00 75.00 C 10.39 81.84 8.36 91.14 9.00 97.00
C 9.81 100.97 12.53 102.90 16.00 104.00
C 18.19 104.37 20.77 104.00 23.00 104.00
C 32.67 101.25 26.80 82.23 28.00 74.00 C 29.20 65.77 26.43 50.65 31.92 42.92 C 37.42 35.20 44.13 29.10 54.00 29.00 C 63.87 28.90 72.76 30.27 79.25 38.75 C 85.74 47.23 85.16 56.99 85.00 68.00 C 84.84 79.01 85.00 92.74 85.00 104.00
C 85.00 104.50 85.00 105.00 85.00 105.00
C 85.00 137.35 84.77 170.76 85.00 203.00 C 85.23 235.24 84.38 269.15 85.00 301.00 C 85.62 332.85 83.57 368.08 85.00 399.00 C 86.43 429.92 77.37 460.69 96.00 485.00
C 104.15 486.95 117.77 482.10 127.00 484.00 C 136.23 485.90 144.40 481.80 151.25 476.25 C 158.10 470.70 161.29 463.05 161.00 454.00 C 160.71 444.95 156.50 438.81 149.75 432.25 C 143.00 425.68 133.27 430.11 126.25 423.75 C 119.22 417.40 125.81 406.20 136.00 408.00 C 146.19 409.80 157.46 407.21 168.00 408.00 C 178.54 408.79 190.33 407.63 201.00 408.00 C 211.67 408.37 222.32 407.83 233.00 408.00 C 243.68 408.17 254.29 407.93 265.00 408.00 C 275.71 408.07 286.22 407.97 297.00 408.00 C 307.78 408.03 319.21 407.98 330.00 408.00 C 340.79 408.02 351.23 407.99 362.00 408.00 C 372.77 408.01 383.17 408.00 394.00 408.00 C 404.83 408.00 416.13 408.00 427.00 408.00
C 426.96 408.00 427.00 407.00 427.00 407.00
C 427.00 373.06 427.05 336.70 427.00 303.00 C 426.95 269.30 427.12 231.81 427.00 199.00 C 426.88 166.19 427.29 125.69 427.00 95.00 C 426.71 64.31 433.18 29.49 403.08 14.92 C 372.97 0.36 338.41 11.63 305.00 9.00 C 271.59 6.37 235.01 9.99 201.00 9.00 C 166.99 8.01 131.17 9.00 97.00 9.00
C 83.38 10.32 67.51 9.39 54.00 9.00
C 29.85 10.64 10.64 29.86 9.00 54.00
M 373.00 57.00 
C 382.71 59.95 379.72 78.47 379.00 88.00 C 378.28 97.53 381.93 115.42 379.00 126.00 C 376.07 136.58 358.17 132.56 348.00 133.00 C 337.83 133.44 321.51 132.78 310.00 133.00 C 298.49 133.22 284.08 132.85 272.00 133.00 C 259.92 133.15 246.25 132.82 234.00 133.00 C 221.75 133.18 208.15 132.66 196.00 133.00 C 183.85 133.34 169.70 132.28 158.00 133.00 C 146.30 133.72 132.95 134.19 133.00 121.00 C 133.05 107.81 133.42 95.15 133.00 83.00 C 132.58 70.85 130.94 56.77 145.00 57.00 C 159.06 57.24 169.72 56.84 183.00 57.00 C 196.28 57.16 208.09 56.81 221.00 57.00 C 233.91 57.19 246.30 56.66 259.00 57.00 C 271.70 57.34 284.49 56.27 297.00 57.00 C 309.51 57.73 322.78 55.40 335.00 57.00 C 347.22 58.60 361.38 53.47 373.00 57.00
M 372.00 161.00 
C 385.13 164.05 378.07 182.95 365.00 180.00 C 351.93 177.05 337.30 181.29 324.00 180.00 C 310.70 178.71 296.27 180.50 283.00 180.00 C 269.73 179.50 254.99 180.03 242.00 180.00 C 229.01 179.97 214.32 179.56 202.00 180.00 C 189.68 180.44 171.95 178.84 161.00 180.00 C 150.05 181.16 128.73 181.00 133.33 167.33 C 137.93 153.66 156.81 163.13 168.00 161.00 C 179.19 158.87 195.50 161.83 208.00 161.00 C 220.50 160.17 235.91 161.15 249.00 161.00 C 262.09 160.85 276.72 160.58 290.00 161.00 C 303.28 161.42 317.78 159.72 331.00 161.00 C 344.22 162.28 359.14 158.01 372.00 161.00
M 374.00 209.00 
C 383.64 212.56 378.99 229.63 368.00 228.00 C 357.01 226.37 344.43 228.71 333.00 228.00 C 321.57 227.29 308.56 228.30 297.00 228.00 C 285.44 227.70 273.51 228.07 262.00 228.00 C 250.49 227.93 238.35 227.89 227.00 228.00 C 215.65 228.11 201.90 227.65 191.00 228.00 C 180.10 228.35 165.75 227.14 156.00 228.00 C 146.25 228.86 130.01 228.40 133.00 216.00 C 135.99 203.60 152.10 210.22 162.00 209.00 C 171.90 207.78 186.11 209.49 197.00 209.00 C 207.89 208.51 220.64 209.08 232.00 209.00 C 243.36 208.92 256.50 208.76 268.00 209.00 C 279.50 209.24 291.60 208.25 303.00 209.00 C 314.40 209.75 326.87 207.23 338.00 209.00 C 349.13 210.77 363.58 205.16 374.00 209.00
M 373.00 256.00 
C 385.96 259.93 376.69 278.55 364.00 275.00 C 351.31 271.45 336.13 276.55 323.00 275.00 C 309.87 273.45 295.22 275.59 282.00 275.00 C 268.78 274.41 254.00 275.03 241.00 275.00 C 228.00 274.97 213.41 274.45 201.00 275.00 C 188.59 275.55 171.17 273.55 160.00 275.00 C 148.83 276.45 128.23 275.14 133.78 261.78 C 139.33 248.42 157.51 258.28 169.00 256.00 C 180.49 253.72 196.38 256.87 209.00 256.00 C 221.62 255.13 236.89 256.11 250.00 256.00 C 263.11 255.89 277.78 255.43 291.00 256.00 C 304.22 256.57 318.97 254.37 332.00 256.00 C 345.03 257.63 360.59 252.23 373.00 256.00
M 372.00 303.00 
C 385.28 306.29 378.10 325.06 365.00 322.00 C 351.90 318.94 337.31 323.34 324.00 322.00 C 310.69 320.66 296.28 322.52 283.00 322.00 C 269.72 321.48 255.00 322.04 242.00 322.00 C 229.00 321.96 214.34 321.54 202.00 322.00 C 189.66 322.46 171.99 320.80 161.00 322.00 C 150.01 323.20 128.47 323.01 133.33 309.33 C 138.19 295.65 156.76 305.15 168.00 303.00 C 179.24 300.85 195.48 303.83 208.00 303.00 C 220.52 302.17 235.91 303.14 249.00 303.00 C 262.09 302.86 276.73 302.54 290.00 303.00 C 303.27 303.46 317.82 301.64 331.00 303.00 C 344.18 304.36 359.23 299.84 372.00 303.00
M 373.00 351.00 
C 385.94 354.93 376.64 373.31 364.00 370.00 C 351.36 366.69 336.11 371.45 323.00 370.00 C 309.89 368.55 295.20 370.55 282.00 370.00 C 268.80 369.45 253.98 370.02 241.00 370.00 C 228.02 369.98 213.38 369.46 201.00 370.00 C 188.62 370.54 171.09 368.58 160.00 370.00 C 148.91 371.42 128.30 369.98 133.78 356.78 C 139.26 343.58 157.54 353.21 169.00 351.00 C 180.46 348.79 196.39 351.83 209.00 351.00 C 221.61 350.17 236.90 351.10 250.00 351.00 C 263.10 350.90 277.78 350.43 291.00 351.00 C 304.22 351.57 318.97 349.37 332.00 351.00 C 345.03 352.63 360.59 347.23 373.00 351.00 Z"/>
</g>
<g fill="#FCB11B" fill-opacity="0.77" stroke="None">
<path d="
M 97.00 9.00 
C 82.78 9.00 68.18 8.03 54.00 9.00
C 67.51 9.39 83.38 10.32 97.00 9.00 Z"/>
</g>
<g fill="#F57C00" fill-opacity="1.00" stroke="None">
<path d="
M 23.00 104.00 
C 43.38 104.00 64.71 102.17 85.00 104.00
C 85.00 92.74 84.84 79.01 85.00 68.00 C 85.16 56.99 85.74 47.23 79.25 38.75 C 72.76 30.27 63.87 28.90 54.00 29.00 C 44.13 29.10 37.42 35.20 31.92 42.92 C 26.43 50.65 29.20 65.77 28.00 74.00 C 26.80 82.23 32.67 101.25 23.00 104.00 Z"/>
</g>
<g fill="#FBB01A" fill-opacity="0.76" stroke="None">
<path d="
M 9.00 97.00 
C 8.36 91.14 10.39 81.84 10.00 75.00 C 9.61 68.16 9.18 60.14 9.00 54.00
C 8.13 66.78 6.45 84.48 9.00 97.00 Z"/>
</g>
<g fill="#F57C00" fill-opacity="1.00" stroke="None">
<path d="
M 373.00 57.00 
C 361.38 53.47 347.22 58.60 335.00 57.00 C 322.78 55.40 309.51 57.73 297.00 57.00 C 284.49 56.27 271.70 57.34 259.00 57.00 C 246.30 56.66 233.91 57.19 221.00 57.00 C 208.09 56.81 196.28 57.16 183.00 57.00 C 169.72 56.84 159.06 57.24 145.00 57.00 C 130.94 56.77 132.58 70.85 133.00 83.00 C 133.42 95.15 133.05 107.81 133.00 121.00 C 132.95 134.19 146.30 133.72 158.00 133.00 C 169.70 132.28 183.85 133.34 196.00 133.00 C 208.15 132.66 221.75 133.18 234.00 133.00 C 246.25 132.82 259.92 133.15 272.00 133.00 C 284.08 132.85 298.49 133.22 310.00 133.00 C 321.51 132.78 337.83 133.44 348.00 133.00 C 358.17 132.56 376.07 136.58 379.00 126.00 C 381.93 115.42 378.28 97.53 379.00 88.00 C 379.72 78.47 382.71 59.95 373.00 57.00 Z"/>
</g>
<g fill="#F47E01" fill-opacity="0.27" stroke="None">
<path d="
M 85.00 105.00 
C 85.00 105.00 85.00 104.50 85.00 104.00
C 64.71 102.17 43.38 104.00 23.00 104.00
C 20.77 104.00 18.19 104.37 16.00 104.00
C 25.89 107.13 38.97 104.75 50.00 105.00 C 61.03 105.25 73.92 106.00 85.00 105.00 Z"/>
</g>
<g fill="#F57C00" fill-opacity="1.00" stroke="None">
<path d="
M 372.00 161.00 
C 359.14 158.01 344.22 162.28 331.00 161.00 C 317.78 159.72 303.28 161.42 290.00 161.00 C 276.72 160.58 262.09 160.85 249.00 161.00 C 235.91 161.15 220.50 160.17 208.00 161.00 C 195.50 161.83 179.19 158.87 168.00 161.00 C 156.81 163.13 137.93 153.66 133.33 167.33 C 128.73 181.00 150.05 181.16 161.00 180.00 C 171.95 178.84 189.68 180.44 202.00 180.00 C 214.32 179.56 229.01 179.97 242.00 180.00 C 254.99 180.03 269.73 179.50 283.00 180.00 C 296.27 180.50 310.70 178.71 324.00 180.00 C 337.30 181.29 351.93 177.05 365.00 180.00 C 378.07 182.95 385.13 164.05 372.00 161.00 Z"/>
</g>
<g fill="#F57E00" fill-opacity="1.00" stroke="None">
<path d="
M 374.00 209.00 
C 363.58 205.16 349.13 210.77 338.00 209.00 C 326.87 207.23 314.40 209.75 303.00 209.00 C 291.60 208.25 279.50 209.24 268.00 209.00 C 256.50 208.76 243.36 208.92 232.00 209.00 C 220.64 209.08 207.89 208.51 197.00 209.00 C 186.11 209.49 171.90 207.78 162.00 209.00 C 152.10 210.22 135.99 203.60 133.00 216.00 C 130.01 228.40 146.25 228.86 156.00 228.00 C 165.75 227.14 180.10 228.35 191.00 228.00 C 201.90 227.65 215.65 228.11 227.00 228.00 C 238.35 227.89 250.49 227.93 262.00 228.00 C 273.51 228.07 285.44 227.70 297.00 228.00 C 308.56 228.30 321.57 227.29 333.00 228.00 C 344.43 228.71 357.01 226.37 368.00 228.00 C 378.99 229.63 383.64 212.56 374.00 209.00 Z"/>
</g>
<g fill="#F57C00" fill-opacity="1.00" stroke="None">
<path d="
M 373.00 256.00 
C 360.59 252.23 345.03 257.63 332.00 256.00 C 318.97 254.37 304.22 256.57 291.00 256.00 C 277.78 255.43 263.11 255.89 250.00 256.00 C 236.89 256.11 221.62 255.13 209.00 256.00 C 196.38 256.87 180.49 253.72 169.00 256.00 C 157.51 258.28 139.33 248.42 133.78 261.78 C 128.23 275.14 148.83 276.45 160.00 275.00 C 171.17 273.55 188.59 275.55 201.00 275.00 C 213.41 274.45 228.00 274.97 241.00 275.00 C 254.00 275.03 268.78 274.41 282.00 275.00 C 295.22 275.59 309.87 273.45 323.00 275.00 C 336.13 276.55 351.31 271.45 364.00 275.00 C 376.69 278.55 385.96 259.93 373.00 256.00 Z"/>
</g>
<g fill="#F57D00" fill-opacity="1.00" stroke="None">
<path d="
M 372.00 303.00 
C 359.23 299.84 344.18 304.36 331.00 303.00 C 317.82 301.64 303.27 303.46 290.00 303.00 C 276.73 302.54 262.09 302.86 249.00 303.00 C 235.91 303.14 220.52 302.17 208.00 303.00 C 195.48 303.83 179.24 300.85 168.00 303.00 C 156.76 305.15 138.19 295.65 133.33 309.33 C 128.47 323.01 150.01 323.20 161.00 322.00 C 171.99 320.80 189.66 322.46 202.00 322.00 C 214.34 321.54 229.00 321.96 242.00 322.00 C 255.00 322.04 269.72 321.48 283.00 322.00 C 296.28 322.52 310.69 320.66 324.00 322.00 C 337.31 323.34 351.90 318.94 365.00 322.00 C 378.10 325.06 385.28 306.29 372.00 303.00 Z"/>
</g>
<g fill="#F57C00" fill-opacity="1.00" stroke="None">
<path d="
M 373.00 351.00 
C 360.59 347.23 345.03 352.63 332.00 351.00 C 318.97 349.37 304.22 351.57 291.00 351.00 C 277.78 350.43 263.10 350.90 250.00 351.00 C 236.90 351.10 221.61 350.17 209.00 351.00 C 196.39 351.83 180.46 348.79 169.00 351.00 C 157.54 353.21 139.26 343.58 133.78 356.78 C 128.30 369.98 148.91 371.42 160.00 370.00 C 171.09 368.58 188.62 370.54 201.00 370.00 C 213.38 369.46 228.02 369.98 241.00 370.00 C 253.98 370.02 268.80 369.45 282.00 370.00 C 295.20 370.55 309.89 368.55 323.00 370.00 C 336.11 371.45 351.36 366.69 364.00 370.00 C 376.64 373.31 385.94 354.93 373.00 351.00 Z"/>
</g>
<g fill="#F47C00" fill-opacity="0.26" stroke="None">
<path d="
M 427.00 408.00 
C 437.53 408.00 449.29 407.09 459.00 407.00
C 448.89 406.11 437.10 406.09 427.00 407.00
C 427.00 407.00 426.96 408.00 427.00 408.00 Z"/>
</g>
<g fill="#F57C00" fill-opacity="1.00" stroke="None">
<path d="
M 427.00 408.00 
C 416.13 408.00 404.83 408.00 394.00 408.00 C 383.17 408.00 372.77 408.01 362.00 408.00 C 351.23 407.99 340.79 408.02 330.00 408.00 C 319.21 407.98 307.78 408.03 297.00 408.00 C 286.22 407.97 275.71 408.07 265.00 408.00 C 254.29 407.93 243.68 408.17 233.00 408.00 C 222.32 407.83 211.67 408.37 201.00 408.00 C 190.33 407.63 178.54 408.79 168.00 408.00 C 157.46 407.21 146.19 409.80 136.00 408.00 C 125.81 406.20 119.22 417.40 126.25 423.75 C 133.27 430.11 143.00 425.68 149.75 432.25 C 156.50 438.81 160.71 444.95 161.00 454.00 C 161.29 463.05 158.10 470.70 151.25 476.25 C 144.40 481.80 136.23 485.90 127.00 484.00 C 117.77 482.10 104.15 486.95 96.00 485.00
C 104.30 495.83 116.10 502.05 130.00 503.00
C 177.29 501.63 226.99 500.80 275.00 502.00 C 323.01 503.20 372.95 498.45 420.00 503.00
C 441.54 503.00 467.85 505.82 484.75 492.75 C 501.66 479.69 506.25 458.32 500.32 439.68 C 494.39 421.03 477.62 408.64 459.00 407.00
C 449.29 407.09 437.53 408.00 427.00 408.00 Z"/>
</g>
<g fill="#F8940C" fill-opacity="0.78" stroke="None">
<path d="
M 130.00 503.00 
C 178.07 506.27 226.80 501.77 275.00 503.00 C 323.20 504.23 371.77 503.00 420.00 503.00
C 372.95 498.45 323.01 503.20 275.00 502.00 C 226.99 500.80 177.29 501.63 130.00 503.00 Z"/>
</g>
</svg>