<svg xmlns="http://www.w3.org/2000/svg" xmlns:v="https://svgstorm.com"
viewBox = "0 0 512 512"
width="512"
height="512">
<g fill="None" fill-opacity="0.0" stroke="#000000" stroke-opacity="0.00" stroke-width="0.3"><path d="
M 0.00 512.00 
L 512.00 512.00
L 512.00 0.00
L 0.00 0.00
L 0.00 512.00
M 288.00 152.00 
C 293.33 152.00 298.67 152.00 304.00 152.00
C 309.33 152.00 314.67 152.00 320.00 152.00
C 328.33 152.00 336.67 152.00 345.00 152.00
C 345.64 189.59 348.70 226.57 350.00 264.00
C 391.00 264.00 432.00 264.00 473.00 264.00
C 476.86 333.61 484.14 402.37 488.00 472.00
C 397.33 472.00 306.67 472.00 216.00 472.00
C 152.00 472.00 88.00 472.00 24.00 472.00
C 27.85 365.05 35.15 258.96 39.00 152.00
C 58.00 152.00 77.00 152.00 96.00 152.00
C 96.00 135.37 95.58 114.17 96.00 98.00 C 96.42 81.83 102.30 70.91 111.30 58.30 C 120.31 45.70 130.39 42.80 143.68 35.68 C 156.97 28.56 178.04 34.77 192.01 34.99 C 205.98 35.21 226.37 28.29 239.68 35.32 C 252.99 42.35 263.10 45.24 272.25 57.75 C 281.40 70.26 287.14 80.75 288.00 97.00 C 288.85 113.25 287.36 135.23 288.00 152.00 Z"/>
</g>
<g fill="None" fill-opacity="0.0" stroke="#E2E5E8" stroke-opacity="0.96" stroke-width="0.3"><path d="
M 96.00 152.00 
C 96.00 159.47 96.43 167.60 96.00 175.00 C 95.57 182.40 97.15 190.85 96.00 198.00 C 94.85 205.15 98.64 214.43 96.00 221.00
C 103.14 216.05 104.87 216.06 112.00 221.00
C 109.36 214.43 113.15 205.15 112.00 198.00 C 110.85 190.85 112.43 182.40 112.00 175.00 C 111.57 167.60 112.00 159.47 112.00 152.00
C 112.00 129.10 109.07 99.37 118.31 79.31 C 127.54 59.24 147.23 49.43 168.00 49.00
C 137.28 74.36 144.44 115.80 144.00 152.00
C 149.33 152.00 154.67 152.00 160.00 152.00
C 159.87 140.29 160.17 126.50 160.00 115.00 C 159.83 103.50 161.15 92.93 164.92 82.92 C 168.70 72.92 173.36 69.24 180.70 61.70 C 188.04 54.15 195.38 53.58 202.75 61.25 C 210.12 68.91 214.97 72.02 218.92 82.08 C 222.88 92.13 223.99 102.37 224.00 114.00 C 224.01 125.63 224.00 140.11 224.00 152.00
C 224.00 162.28 223.93 173.85 224.00 184.00 C 224.07 194.15 239.91 194.15 239.98 183.98 C 240.04 173.80 240.00 162.29 240.00 152.00
C 240.00 115.80 246.41 74.34 216.00 49.00
C 237.08 49.61 255.28 58.70 265.30 78.70 C 275.32 98.70 271.18 128.95 272.00 152.00
C 274.67 152.00 277.33 152.00 280.00 152.00
C 282.67 152.00 285.33 152.00 288.00 152.00
C 287.36 135.23 288.85 113.25 288.00 97.00 C 287.14 80.75 281.40 70.26 272.25 57.75 C 263.10 45.24 252.99 42.35 239.68 35.32 C 226.37 28.29 205.98 35.21 192.01 34.99 C 178.04 34.77 156.97 28.56 143.68 35.68 C 130.39 42.80 120.31 45.70 111.30 58.30 C 102.30 70.91 96.42 81.83 96.00 98.00 C 95.58 114.17 96.00 135.37 96.00 152.00 Z"/>
</g>
<g fill="None" fill-opacity="0.0" stroke="#000000" stroke-opacity="0.00" stroke-width="0.3"><path d="
M 112.00 152.00 
C 122.67 152.00 133.33 152.00 144.00 152.00
C 144.44 115.80 137.28 74.36 168.00 49.00
C 147.23 49.43 127.54 59.24 118.31 79.31 C 109.07 99.37 112.00 129.10 112.00 152.00 Z"/>
</g>
<g fill="None" fill-opacity="0.0" stroke="#000000" stroke-opacity="0.00" stroke-width="0.3"><path d="
M 240.00 152.00 
C 250.67 152.00 261.33 152.00 272.00 152.00
C 271.18 128.95 275.32 98.70 265.30 78.70 C 255.28 58.70 237.08 49.61 216.00 49.00
C 246.41 74.34 240.00 115.80 240.00 152.00 Z"/>
</g>
<g fill="None" fill-opacity="0.0" stroke="#000000" stroke-opacity="0.00" stroke-width="0.3"><path d="
M 160.00 152.00 
C 181.33 152.00 202.67 152.00 224.00 152.00
C 224.00 140.11 224.01 125.63 224.00 114.00 C 223.99 102.37 222.88 92.13 218.92 82.08 C 214.97 72.02 210.12 68.91 202.75 61.25 C 195.38 53.58 188.04 54.15 180.70 61.70 C 173.36 69.24 168.70 72.92 164.92 82.92 C 161.15 92.93 159.83 103.50 160.00 115.00 C 160.17 126.50 159.87 140.29 160.00 152.00 Z"/>
</g>
<g fill="None" fill-opacity="0.0" stroke="#EA423E" stroke-opacity="1.00" stroke-width="0.3"><path d="
M 216.00 472.00 
C 221.52 402.72 226.86 333.39 232.00 264.00
C 249.67 264.00 267.33 264.00 285.00 264.00
C 284.70 260.70 285.13 257.31 285.00 254.00
C 283.71 220.25 281.53 185.78 280.00 152.00
C 277.33 152.00 274.67 152.00 272.00 152.00
C 261.33 152.00 250.67 152.00 240.00 152.00
C 240.00 162.29 240.04 173.80 239.98 183.98 C 239.91 194.15 224.07 194.15 224.00 184.00 C 223.93 173.85 224.00 162.28 224.00 152.00
C 202.67 152.00 181.33 152.00 160.00 152.00
C 154.67 152.00 149.33 152.00 144.00 152.00
C 133.33 152.00 122.67 152.00 112.00 152.00
C 112.00 159.47 111.57 167.60 112.00 175.00 C 112.43 182.40 110.85 190.85 112.00 198.00 C 113.15 205.15 109.36 214.43 112.00 221.00
C 117.66 224.92 126.61 227.18 127.99 235.01 C 129.37 242.83 127.31 255.99 128.00 265.00 C 128.69 274.01 127.48 286.66 128.00 296.00
C 112.00 296.00 96.00 296.00 80.00 296.00
C 80.03 286.29 79.96 275.61 80.00 266.00 C 80.04 256.39 79.92 245.25 80.00 236.00 C 80.08 226.75 91.60 227.18 96.00 221.00
C 98.64 214.43 94.85 205.15 96.00 198.00 C 97.15 190.85 95.57 182.40 96.00 175.00 C 96.43 167.60 96.00 159.47 96.00 152.00
C 77.00 152.00 58.00 152.00 39.00 152.00
C 35.15 258.96 27.85 365.05 24.00 472.00
C 88.00 472.00 152.00 472.00 216.00 472.00 Z"/>
</g>
<g fill="None" fill-opacity="0.0" stroke="#D03330" stroke-opacity="1.00" stroke-width="0.3"><path d="
M 285.00 254.00 
C 285.41 256.85 286.32 260.46 286.00 264.00
C 294.00 264.00 302.00 264.00 310.00 264.00
C 309.02 226.42 305.66 189.43 304.00 152.00
C 298.67 152.00 293.33 152.00 288.00 152.00
C 285.33 152.00 282.67 152.00 280.00 152.00
C 281.53 185.78 283.71 220.25 285.00 254.00 Z"/>
</g>
<g fill="None" fill-opacity="0.0" stroke="#A82A27" stroke-opacity="1.00" stroke-width="0.3"><path d="
M 310.00 264.00 
C 315.33 264.00 320.67 264.00 326.00 264.00
C 324.77 226.48 321.55 189.45 320.00 152.00
C 314.67 152.00 309.33 152.00 304.00 152.00
C 305.66 189.43 309.02 226.42 310.00 264.00 Z"/>
</g>
<g fill="None" fill-opacity="0.0" stroke="#D0322F" stroke-opacity="0.98" stroke-width="0.3"><path d="
M 326.00 264.00 
C 334.00 264.00 342.00 264.00 350.00 264.00
C 348.70 226.57 345.64 189.59 345.00 152.00
C 336.67 152.00 328.33 152.00 320.00 152.00
C 321.55 189.45 324.77 226.48 326.00 264.00 Z"/>
</g>
<g fill="None" fill-opacity="0.0" stroke="#F6AF30" stroke-opacity="1.00" stroke-width="0.3"><path d="
M 96.00 221.00 
C 91.60 227.18 80.08 226.75 80.00 236.00 C 79.92 245.25 80.04 256.39 80.00 266.00 C 79.96 275.61 80.03 286.29 80.00 296.00
C 96.00 296.00 112.00 296.00 128.00 296.00
C 127.48 286.66 128.69 274.01 128.00 265.00 C 127.31 255.99 129.37 242.83 127.99 235.01 C 126.61 227.18 117.66 224.92 112.00 221.00
C 104.87 216.06 103.14 216.05 96.00 221.00 Z"/>
</g>
<g fill="None" fill-opacity="0.0" stroke="#D53532" stroke-opacity="0.79" stroke-width="0.3"><path d="
M 285.00 264.00 
C 285.50 264.00 286.00 264.00 286.00 264.00
C 286.32 260.46 285.41 256.85 285.00 254.00
C 285.13 257.31 284.70 260.70 285.00 264.00 Z"/>
</g>
<g fill="None" fill-opacity="0.0" stroke="#F2AC2F" stroke-opacity="1.00" stroke-width="0.3"><path d="
M 216.00 472.00 
C 306.67 472.00 397.33 472.00 488.00 472.00
C 484.14 402.37 476.86 333.61 473.00 264.00
C 432.00 264.00 391.00 264.00 350.00 264.00
C 342.00 264.00 334.00 264.00 326.00 264.00
C 320.67 264.00 315.33 264.00 310.00 264.00
C 302.00 264.00 294.00 264.00 286.00 264.00
C 286.00 264.00 285.50 264.00 285.00 264.00
C 267.33 264.00 249.67 264.00 232.00 264.00
C 226.86 333.39 221.52 402.72 216.00 472.00
M 409.00 265.00 
C 409.00 268.67 409.00 272.33 409.00 276.00
C 407.44 273.39 407.28 267.54 409.00 265.00
M 410.00 278.00 
C 410.00 281.67 410.00 285.33 410.00 289.00
C 408.44 286.39 408.28 280.54 410.00 278.00
M 411.00 291.00 
C 411.00 294.67 411.00 298.33 411.00 302.00
C 409.44 299.39 409.28 293.54 411.00 291.00
M 282.00 304.00 
C 292.14 306.22 287.50 324.18 288.00 333.00 C 288.50 341.82 288.34 359.12 288.00 369.00 C 287.66 378.88 289.02 389.52 297.70 395.30 C 306.38 401.08 319.08 400.74 329.00 400.00 C 338.92 399.26 346.38 395.56 349.92 385.92 C 353.47 376.29 352.46 363.26 352.00 352.00 C 351.54 340.74 353.78 327.75 352.00 316.00 C 350.22 304.25 366.49 300.09 367.97 312.03 C 369.46 323.96 367.46 335.68 368.00 347.00 C 368.54 358.32 368.37 371.93 367.07 382.07 C 365.78 392.21 361.95 399.08 354.75 405.75 C 347.56 412.42 338.73 415.34 329.00 416.00 C 319.26 416.66 305.80 416.58 296.98 413.02 C 288.15 409.47 282.87 404.30 277.70 396.30 C 272.52 388.30 271.75 375.68 272.00 366.00 C 272.25 356.32 271.97 338.66 272.00 330.00 C 272.03 321.34 269.14 301.19 282.00 304.00
M 412.00 304.00 
C 412.00 307.67 412.00 311.33 412.00 315.00
C 410.44 312.39 410.28 306.54 412.00 304.00
M 413.00 317.00 
C 413.00 320.67 413.00 324.33 413.00 328.00
C 411.44 325.39 411.28 319.54 413.00 317.00
M 414.00 330.00 
C 414.00 333.67 414.00 337.33 414.00 341.00
C 412.44 338.39 412.28 332.54 414.00 330.00
M 415.00 343.00 
C 415.00 346.67 415.00 350.33 415.00 354.00
C 413.44 351.39 413.28 345.54 415.00 343.00
M 416.00 356.00 
C 416.00 359.67 416.00 363.33 416.00 367.00
C 414.44 364.39 414.28 358.54 416.00 356.00
M 417.00 369.00 
C 417.00 372.67 417.00 376.33 417.00 380.00
C 415.44 377.39 415.28 371.54 417.00 369.00
M 418.00 382.00 
C 418.00 385.67 418.00 389.33 418.00 393.00
C 416.44 390.39 416.28 384.54 418.00 382.00
M 419.00 395.00 
C 419.00 398.67 419.00 402.33 419.00 406.00
C 417.44 403.39 417.28 397.54 419.00 395.00
M 420.00 408.00 
C 420.00 411.67 420.00 415.33 420.00 419.00
C 418.44 416.39 418.28 410.54 420.00 408.00
M 421.00 421.00 
C 421.00 424.67 421.00 428.33 421.00 432.00
C 419.44 429.39 419.28 423.54 421.00 421.00
M 422.00 434.00 
C 422.00 437.67 422.00 441.33 422.00 445.00
C 420.44 442.39 420.28 436.54 422.00 434.00
M 423.00 447.00 
C 423.00 450.67 423.00 454.33 423.00 458.00
C 421.44 455.39 421.28 449.54 423.00 447.00 Z"/>
</g>
<g fill="None" fill-opacity="0.0" stroke="#F2AC2F" stroke-opacity="0.81" stroke-width="0.3"><path d="
M 409.00 265.00 
C 407.28 267.54 407.44 273.39 409.00 276.00
C 409.00 272.33 409.00 268.67 409.00 265.00 Z"/>
</g>
<g fill="None" fill-opacity="0.0" stroke="#F2AC2F" stroke-opacity="0.81" stroke-width="0.3"><path d="
M 410.00 278.00 
C 408.28 280.54 408.44 286.39 410.00 289.00
C 410.00 285.33 410.00 281.67 410.00 278.00 Z"/>
</g>
<g fill="None" fill-opacity="0.0" stroke="#F2AC2F" stroke-opacity="0.81" stroke-width="0.3"><path d="
M 411.00 291.00 
C 409.28 293.54 409.44 299.39 411.00 302.00
C 411.00 298.33 411.00 294.67 411.00 291.00 Z"/>
</g>
<g fill="None" fill-opacity="0.0" stroke="#E9EDF1" stroke-opacity="1.00" stroke-width="0.3"><path d="
M 282.00 304.00 
C 269.14 301.19 272.03 321.34 272.00 330.00 C 271.97 338.66 272.25 356.32 272.00 366.00 C 271.75 375.68 272.52 388.30 277.70 396.30 C 282.87 404.30 288.15 409.47 296.98 413.02 C 305.80 416.58 319.26 416.66 329.00 416.00 C 338.73 415.34 347.56 412.42 354.75 405.75 C 361.95 399.08 365.78 392.21 367.07 382.07 C 368.37 371.93 368.54 358.32 368.00 347.00 C 367.46 335.68 369.46 323.96 367.97 312.03 C 366.49 300.09 350.22 304.25 352.00 316.00 C 353.78 327.75 351.54 340.74 352.00 352.00 C 352.46 363.26 353.47 376.29 349.92 385.92 C 346.38 395.56 338.92 399.26 329.00 400.00 C 319.08 400.74 306.38 401.08 297.70 395.30 C 289.02 389.52 287.66 378.88 288.00 369.00 C 288.34 359.12 288.50 341.82 288.00 333.00 C 287.50 324.18 292.14 306.22 282.00 304.00 Z"/>
</g>
<g fill="None" fill-opacity="0.0" stroke="#F2AC2F" stroke-opacity="0.81" stroke-width="0.3"><path d="
M 412.00 304.00 
C 410.28 306.54 410.44 312.39 412.00 315.00
C 412.00 311.33 412.00 307.67 412.00 304.00 Z"/>
</g>
<g fill="None" fill-opacity="0.0" stroke="#F2AC2F" stroke-opacity="0.81" stroke-width="0.3"><path d="
M 413.00 317.00 
C 411.28 319.54 411.44 325.39 413.00 328.00
C 413.00 324.33 413.00 320.67 413.00 317.00 Z"/>
</g>
<g fill="None" fill-opacity="0.0" stroke="#F2AC2F" stroke-opacity="0.81" stroke-width="0.3"><path d="
M 414.00 330.00 
C 412.28 332.54 412.44 338.39 414.00 341.00
C 414.00 337.33 414.00 333.67 414.00 330.00 Z"/>
</g>
<g fill="None" fill-opacity="0.0" stroke="#F2AC2F" stroke-opacity="0.81" stroke-width="0.3"><path d="
M 415.00 343.00 
C 413.28 345.54 413.44 351.39 415.00 354.00
C 415.00 350.33 415.00 346.67 415.00 343.00 Z"/>
</g>
<g fill="None" fill-opacity="0.0" stroke="#F2AC2F" stroke-opacity="0.81" stroke-width="0.3"><path d="
M 416.00 356.00 
C 414.28 358.54 414.44 364.39 416.00 367.00
C 416.00 363.33 416.00 359.67 416.00 356.00 Z"/>
</g>
<g fill="None" fill-opacity="0.0" stroke="#F2AC2F" stroke-opacity="0.81" stroke-width="0.3"><path d="
M 417.00 369.00 
C 415.28 371.54 415.44 377.39 417.00 380.00
C 417.00 376.33 417.00 372.67 417.00 369.00 Z"/>
</g>
<g fill="None" fill-opacity="0.0" stroke="#F2AC2F" stroke-opacity="0.81" stroke-width="0.3"><path d="
M 418.00 382.00 
C 416.28 384.54 416.44 390.39 418.00 393.00
C 418.00 389.33 418.00 385.67 418.00 382.00 Z"/>
</g>
<g fill="None" fill-opacity="0.0" stroke="#F2AC2F" stroke-opacity="0.81" stroke-width="0.3"><path d="
M 419.00 395.00 
C 417.28 397.54 417.44 403.39 419.00 406.00
C 419.00 402.33 419.00 398.67 419.00 395.00 Z"/>
</g>
<g fill="None" fill-opacity="0.0" stroke="#F2AC2F" stroke-opacity="0.81" stroke-width="0.3"><path d="
M 420.00 408.00 
C 418.28 410.54 418.44 416.39 420.00 419.00
C 420.00 415.33 420.00 411.67 420.00 408.00 Z"/>
</g>
<g fill="None" fill-opacity="0.0" stroke="#F2AC2F" stroke-opacity="0.81" stroke-width="0.3"><path d="
M 421.00 421.00 
C 419.28 423.54 419.44 429.39 421.00 432.00
C 421.00 428.33 421.00 424.67 421.00 421.00 Z"/>
</g>
<g fill="None" fill-opacity="0.0" stroke="#F2AC2F" stroke-opacity="0.81" stroke-width="0.3"><path d="
M 422.00 434.00 
C 420.28 436.54 420.44 442.39 422.00 445.00
C 422.00 441.33 422.00 437.67 422.00 434.00 Z"/>
</g>
<g fill="None" fill-opacity="0.0" stroke="#F2AC2F" stroke-opacity="0.81" stroke-width="0.3"><path d="
M 423.00 447.00 
C 421.28 449.54 421.44 455.39 423.00 458.00
C 423.00 454.33 423.00 450.67 423.00 447.00 Z"/>
</g>
<g fill="#000000" fill-opacity="0.00" stroke="None">
<path d="
M 0.00 512.00 
L 512.00 512.00
L 512.00 0.00
L 0.00 0.00
L 0.00 512.00
M 288.00 152.00 
C 293.33 152.00 298.67 152.00 304.00 152.00
C 309.33 152.00 314.67 152.00 320.00 152.00
C 328.33 152.00 336.67 152.00 345.00 152.00
C 345.64 189.59 348.70 226.57 350.00 264.00
C 391.00 264.00 432.00 264.00 473.00 264.00
C 476.86 333.61 484.14 402.37 488.00 472.00
C 397.33 472.00 306.67 472.00 216.00 472.00
C 152.00 472.00 88.00 472.00 24.00 472.00
C 27.85 365.05 35.15 258.96 39.00 152.00
C 58.00 152.00 77.00 152.00 96.00 152.00
C 96.00 135.37 95.58 114.17 96.00 98.00 C 96.42 81.83 102.30 70.91 111.30 58.30 C 120.31 45.70 130.39 42.80 143.68 35.68 C 156.97 28.56 178.04 34.77 192.01 34.99 C 205.98 35.21 226.37 28.29 239.68 35.32 C 252.99 42.35 263.10 45.24 272.25 57.75 C 281.40 70.26 287.14 80.75 288.00 97.00 C 288.85 113.25 287.36 135.23 288.00 152.00 Z"/>
</g>
<g fill="#E2E5E8" fill-opacity="0.96" stroke="None">
<path d="
M 96.00 152.00 
C 96.00 159.47 96.43 167.60 96.00 175.00 C 95.57 182.40 97.15 190.85 96.00 198.00 C 94.85 205.15 98.64 214.43 96.00 221.00
C 103.14 216.05 104.87 216.06 112.00 221.00
C 109.36 214.43 113.15 205.15 112.00 198.00 C 110.85 190.85 112.43 182.40 112.00 175.00 C 111.57 167.60 112.00 159.47 112.00 152.00
C 112.00 129.10 109.07 99.37 118.31 79.31 C 127.54 59.24 147.23 49.43 168.00 49.00
C 137.28 74.36 144.44 115.80 144.00 152.00
C 149.33 152.00 154.67 152.00 160.00 152.00
C 159.87 140.29 160.17 126.50 160.00 115.00 C 159.83 103.50 161.15 92.93 164.92 82.92 C 168.70 72.92 173.36 69.24 180.70 61.70 C 188.04 54.15 195.38 53.58 202.75 61.25 C 210.12 68.91 214.97 72.02 218.92 82.08 C 222.88 92.13 223.99 102.37 224.00 114.00 C 224.01 125.63 224.00 140.11 224.00 152.00
C 224.00 162.28 223.93 173.85 224.00 184.00 C 224.07 194.15 239.91 194.15 239.98 183.98 C 240.04 173.80 240.00 162.29 240.00 152.00
C 240.00 115.80 246.41 74.34 216.00 49.00
C 237.08 49.61 255.28 58.70 265.30 78.70 C 275.32 98.70 271.18 128.95 272.00 152.00
C 274.67 152.00 277.33 152.00 280.00 152.00
C 282.67 152.00 285.33 152.00 288.00 152.00
C 287.36 135.23 288.85 113.25 288.00 97.00 C 287.14 80.75 281.40 70.26 272.25 57.75 C 263.10 45.24 252.99 42.35 239.68 35.32 C 226.37 28.29 205.98 35.21 192.01 34.99 C 178.04 34.77 156.97 28.56 143.68 35.68 C 130.39 42.80 120.31 45.70 111.30 58.30 C 102.30 70.91 96.42 81.83 96.00 98.00 C 95.58 114.17 96.00 135.37 96.00 152.00 Z"/>
</g>
<g fill="#000000" fill-opacity="0.00" stroke="None">
<path d="
M 112.00 152.00 
C 122.67 152.00 133.33 152.00 144.00 152.00
C 144.44 115.80 137.28 74.36 168.00 49.00
C 147.23 49.43 127.54 59.24 118.31 79.31 C 109.07 99.37 112.00 129.10 112.00 152.00 Z"/>
</g>
<g fill="#000000" fill-opacity="0.00" stroke="None">
<path d="
M 240.00 152.00 
C 250.67 152.00 261.33 152.00 272.00 152.00
C 271.18 128.95 275.32 98.70 265.30 78.70 C 255.28 58.70 237.08 49.61 216.00 49.00
C 246.41 74.34 240.00 115.80 240.00 152.00 Z"/>
</g>
<g fill="#000000" fill-opacity="0.00" stroke="None">
<path d="
M 160.00 152.00 
C 181.33 152.00 202.67 152.00 224.00 152.00
C 224.00 140.11 224.01 125.63 224.00 114.00 C 223.99 102.37 222.88 92.13 218.92 82.08 C 214.97 72.02 210.12 68.91 202.75 61.25 C 195.38 53.58 188.04 54.15 180.70 61.70 C 173.36 69.24 168.70 72.92 164.92 82.92 C 161.15 92.93 159.83 103.50 160.00 115.00 C 160.17 126.50 159.87 140.29 160.00 152.00 Z"/>
</g>
<g fill="#EA423E" fill-opacity="1.00" stroke="None">
<path d="
M 216.00 472.00 
C 221.52 402.72 226.86 333.39 232.00 264.00
C 249.67 264.00 267.33 264.00 285.00 264.00
C 284.70 260.70 285.13 257.31 285.00 254.00
C 283.71 220.25 281.53 185.78 280.00 152.00
C 277.33 152.00 274.67 152.00 272.00 152.00
C 261.33 152.00 250.67 152.00 240.00 152.00
C 240.00 162.29 240.04 173.80 239.98 183.98 C 239.91 194.15 224.07 194.15 224.00 184.00 C 223.93 173.85 224.00 162.28 224.00 152.00
C 202.67 152.00 181.33 152.00 160.00 152.00
C 154.67 152.00 149.33 152.00 144.00 152.00
C 133.33 152.00 122.67 152.00 112.00 152.00
C 112.00 159.47 111.57 167.60 112.00 175.00 C 112.43 182.40 110.85 190.85 112.00 198.00 C 113.15 205.15 109.36 214.43 112.00 221.00
C 117.66 224.92 126.61 227.18 127.99 235.01 C 129.37 242.83 127.31 255.99 128.00 265.00 C 128.69 274.01 127.48 286.66 128.00 296.00
C 112.00 296.00 96.00 296.00 80.00 296.00
C 80.03 286.29 79.96 275.61 80.00 266.00 C 80.04 256.39 79.92 245.25 80.00 236.00 C 80.08 226.75 91.60 227.18 96.00 221.00
C 98.64 214.43 94.85 205.15 96.00 198.00 C 97.15 190.85 95.57 182.40 96.00 175.00 C 96.43 167.60 96.00 159.47 96.00 152.00
C 77.00 152.00 58.00 152.00 39.00 152.00
C 35.15 258.96 27.85 365.05 24.00 472.00
C 88.00 472.00 152.00 472.00 216.00 472.00 Z"/>
</g>
<g fill="#D03330" fill-opacity="1.00" stroke="None">
<path d="
M 285.00 254.00 
C 285.41 256.85 286.32 260.46 286.00 264.00
C 294.00 264.00 302.00 264.00 310.00 264.00
C 309.02 226.42 305.66 189.43 304.00 152.00
C 298.67 152.00 293.33 152.00 288.00 152.00
C 285.33 152.00 282.67 152.00 280.00 152.00
C 281.53 185.78 283.71 220.25 285.00 254.00 Z"/>
</g>
<g fill="#A82A27" fill-opacity="1.00" stroke="None">
<path d="
M 310.00 264.00 
C 315.33 264.00 320.67 264.00 326.00 264.00
C 324.77 226.48 321.55 189.45 320.00 152.00
C 314.67 152.00 309.33 152.00 304.00 152.00
C 305.66 189.43 309.02 226.42 310.00 264.00 Z"/>
</g>
<g fill="#D0322F" fill-opacity="0.98" stroke="None">
<path d="
M 326.00 264.00 
C 334.00 264.00 342.00 264.00 350.00 264.00
C 348.70 226.57 345.64 189.59 345.00 152.00
C 336.67 152.00 328.33 152.00 320.00 152.00
C 321.55 189.45 324.77 226.48 326.00 264.00 Z"/>
</g>
<g fill="#F6AF30" fill-opacity="1.00" stroke="None">
<path d="
M 96.00 221.00 
C 91.60 227.18 80.08 226.75 80.00 236.00 C 79.92 245.25 80.04 256.39 80.00 266.00 C 79.96 275.61 80.03 286.29 80.00 296.00
C 96.00 296.00 112.00 296.00 128.00 296.00
C 127.48 286.66 128.69 274.01 128.00 265.00 C 127.31 255.99 129.37 242.83 127.99 235.01 C 126.61 227.18 117.66 224.92 112.00 221.00
C 104.87 216.06 103.14 216.05 96.00 221.00 Z"/>
</g>
<g fill="#D53532" fill-opacity="0.79" stroke="None">
<path d="
M 285.00 264.00 
C 285.50 264.00 286.00 264.00 286.00 264.00
C 286.32 260.46 285.41 256.85 285.00 254.00
C 285.13 257.31 284.70 260.70 285.00 264.00 Z"/>
</g>
<g fill="#F2AC2F" fill-opacity="1.00" stroke="None">
<path d="
M 216.00 472.00 
C 306.67 472.00 397.33 472.00 488.00 472.00
C 484.14 402.37 476.86 333.61 473.00 264.00
C 432.00 264.00 391.00 264.00 350.00 264.00
C 342.00 264.00 334.00 264.00 326.00 264.00
C 320.67 264.00 315.33 264.00 310.00 264.00
C 302.00 264.00 294.00 264.00 286.00 264.00
C 286.00 264.00 285.50 264.00 285.00 264.00
C 267.33 264.00 249.67 264.00 232.00 264.00
C 226.86 333.39 221.52 402.72 216.00 472.00
M 409.00 265.00 
C 409.00 268.67 409.00 272.33 409.00 276.00
C 407.44 273.39 407.28 267.54 409.00 265.00
M 410.00 278.00 
C 410.00 281.67 410.00 285.33 410.00 289.00
C 408.44 286.39 408.28 280.54 410.00 278.00
M 411.00 291.00 
C 411.00 294.67 411.00 298.33 411.00 302.00
C 409.44 299.39 409.28 293.54 411.00 291.00
M 282.00 304.00 
C 292.14 306.22 287.50 324.18 288.00 333.00 C 288.50 341.82 288.34 359.12 288.00 369.00 C 287.66 378.88 289.02 389.52 297.70 395.30 C 306.38 401.08 319.08 400.74 329.00 400.00 C 338.92 399.26 346.38 395.56 349.92 385.92 C 353.47 376.29 352.46 363.26 352.00 352.00 C 351.54 340.74 353.78 327.75 352.00 316.00 C 350.22 304.25 366.49 300.09 367.97 312.03 C 369.46 323.96 367.46 335.68 368.00 347.00 C 368.54 358.32 368.37 371.93 367.07 382.07 C 365.78 392.21 361.95 399.08 354.75 405.75 C 347.56 412.42 338.73 415.34 329.00 416.00 C 319.26 416.66 305.80 416.58 296.98 413.02 C 288.15 409.47 282.87 404.30 277.70 396.30 C 272.52 388.30 271.75 375.68 272.00 366.00 C 272.25 356.32 271.97 338.66 272.00 330.00 C 272.03 321.34 269.14 301.19 282.00 304.00
M 412.00 304.00 
C 412.00 307.67 412.00 311.33 412.00 315.00
C 410.44 312.39 410.28 306.54 412.00 304.00
M 413.00 317.00 
C 413.00 320.67 413.00 324.33 413.00 328.00
C 411.44 325.39 411.28 319.54 413.00 317.00
M 414.00 330.00 
C 414.00 333.67 414.00 337.33 414.00 341.00
C 412.44 338.39 412.28 332.54 414.00 330.00
M 415.00 343.00 
C 415.00 346.67 415.00 350.33 415.00 354.00
C 413.44 351.39 413.28 345.54 415.00 343.00
M 416.00 356.00 
C 416.00 359.67 416.00 363.33 416.00 367.00
C 414.44 364.39 414.28 358.54 416.00 356.00
M 417.00 369.00 
C 417.00 372.67 417.00 376.33 417.00 380.00
C 415.44 377.39 415.28 371.54 417.00 369.00
M 418.00 382.00 
C 418.00 385.67 418.00 389.33 418.00 393.00
C 416.44 390.39 416.28 384.54 418.00 382.00
M 419.00 395.00 
C 419.00 398.67 419.00 402.33 419.00 406.00
C 417.44 403.39 417.28 397.54 419.00 395.00
M 420.00 408.00 
C 420.00 411.67 420.00 415.33 420.00 419.00
C 418.44 416.39 418.28 410.54 420.00 408.00
M 421.00 421.00 
C 421.00 424.67 421.00 428.33 421.00 432.00
C 419.44 429.39 419.28 423.54 421.00 421.00
M 422.00 434.00 
C 422.00 437.67 422.00 441.33 422.00 445.00
C 420.44 442.39 420.28 436.54 422.00 434.00
M 423.00 447.00 
C 423.00 450.67 423.00 454.33 423.00 458.00
C 421.44 455.39 421.28 449.54 423.00 447.00 Z"/>
</g>
<g fill="#F2AC2F" fill-opacity="0.81" stroke="None">
<path d="
M 409.00 265.00 
C 407.28 267.54 407.44 273.39 409.00 276.00
C 409.00 272.33 409.00 268.67 409.00 265.00 Z"/>
</g>
<g fill="#F2AC2F" fill-opacity="0.81" stroke="None">
<path d="
M 410.00 278.00 
C 408.28 280.54 408.44 286.39 410.00 289.00
C 410.00 285.33 410.00 281.67 410.00 278.00 Z"/>
</g>
<g fill="#F2AC2F" fill-opacity="0.81" stroke="None">
<path d="
M 411.00 291.00 
C 409.28 293.54 409.44 299.39 411.00 302.00
C 411.00 298.33 411.00 294.67 411.00 291.00 Z"/>
</g>
<g fill="#E9EDF1" fill-opacity="1.00" stroke="None">
<path d="
M 282.00 304.00 
C 269.14 301.19 272.03 321.34 272.00 330.00 C 271.97 338.66 272.25 356.32 272.00 366.00 C 271.75 375.68 272.52 388.30 277.70 396.30 C 282.87 404.30 288.15 409.47 296.98 413.02 C 305.80 416.58 319.26 416.66 329.00 416.00 C 338.73 415.34 347.56 412.42 354.75 405.75 C 361.95 399.08 365.78 392.21 367.07 382.07 C 368.37 371.93 368.54 358.32 368.00 347.00 C 367.46 335.68 369.46 323.96 367.97 312.03 C 366.49 300.09 350.22 304.25 352.00 316.00 C 353.78 327.75 351.54 340.74 352.00 352.00 C 352.46 363.26 353.47 376.29 349.92 385.92 C 346.38 395.56 338.92 399.26 329.00 400.00 C 319.08 400.74 306.38 401.08 297.70 395.30 C 289.02 389.52 287.66 378.88 288.00 369.00 C 288.34 359.12 288.50 341.82 288.00 333.00 C 287.50 324.18 292.14 306.22 282.00 304.00 Z"/>
</g>
<g fill="#F2AC2F" fill-opacity="0.81" stroke="None">
<path d="
M 412.00 304.00 
C 410.28 306.54 410.44 312.39 412.00 315.00
C 412.00 311.33 412.00 307.67 412.00 304.00 Z"/>
</g>
<g fill="#F2AC2F" fill-opacity="0.81" stroke="None">
<path d="
M 413.00 317.00 
C 411.28 319.54 411.44 325.39 413.00 328.00
C 413.00 324.33 413.00 320.67 413.00 317.00 Z"/>
</g>
<g fill="#F2AC2F" fill-opacity="0.81" stroke="None">
<path d="
M 414.00 330.00 
C 412.28 332.54 412.44 338.39 414.00 341.00
C 414.00 337.33 414.00 333.67 414.00 330.00 Z"/>
</g>
<g fill="#F2AC2F" fill-opacity="0.81" stroke="None">
<path d="
M 415.00 343.00 
C 413.28 345.54 413.44 351.39 415.00 354.00
C 415.00 350.33 415.00 346.67 415.00 343.00 Z"/>
</g>
<g fill="#F2AC2F" fill-opacity="0.81" stroke="None">
<path d="
M 416.00 356.00 
C 414.28 358.54 414.44 364.39 416.00 367.00
C 416.00 363.33 416.00 359.67 416.00 356.00 Z"/>
</g>
<g fill="#F2AC2F" fill-opacity="0.81" stroke="None">
<path d="
M 417.00 369.00 
C 415.28 371.54 415.44 377.39 417.00 380.00
C 417.00 376.33 417.00 372.67 417.00 369.00 Z"/>
</g>
<g fill="#F2AC2F" fill-opacity="0.81" stroke="None">
<path d="
M 418.00 382.00 
C 416.28 384.54 416.44 390.39 418.00 393.00
C 418.00 389.33 418.00 385.67 418.00 382.00 Z"/>
</g>
<g fill="#F2AC2F" fill-opacity="0.81" stroke="None">
<path d="
M 419.00 395.00 
C 417.28 397.54 417.44 403.39 419.00 406.00
C 419.00 402.33 419.00 398.67 419.00 395.00 Z"/>
</g>
<g fill="#F2AC2F" fill-opacity="0.81" stroke="None">
<path d="
M 420.00 408.00 
C 418.28 410.54 418.44 416.39 420.00 419.00
C 420.00 415.33 420.00 411.67 420.00 408.00 Z"/>
</g>
<g fill="#F2AC2F" fill-opacity="0.81" stroke="None">
<path d="
M 421.00 421.00 
C 419.28 423.54 419.44 429.39 421.00 432.00
C 421.00 428.33 421.00 424.67 421.00 421.00 Z"/>
</g>
<g fill="#F2AC2F" fill-opacity="0.81" stroke="None">
<path d="
M 422.00 434.00 
C 420.28 436.54 420.44 442.39 422.00 445.00
C 422.00 441.33 422.00 437.67 422.00 434.00 Z"/>
</g>
<g fill="#F2AC2F" fill-opacity="0.81" stroke="None">
<path d="
M 423.00 447.00 
C 421.28 449.54 421.44 455.39 423.00 458.00
C 423.00 454.33 423.00 450.67 423.00 447.00 Z"/>
</g>
</svg>