<svg xmlns="http://www.w3.org/2000/svg" xmlns:v="https://svgstorm.com"
viewBox = "0 0 512 512"
width="512"
height="512">
<g fill="None" fill-opacity="0.0" stroke="#000000" stroke-opacity="0.01" stroke-width="0.3"><path d="
M 0.00 372.00 
C 7.16 361.52 21.63 366.90 34.00 366.00 C 46.37 365.10 61.17 366.47 74.00 366.00 C 86.83 365.53 101.04 366.35 114.00 366.00
C 74.21 329.70 48.15 289.12 31.07 238.93 C 14.00 188.74 9.74 147.89 8.00 94.00
C 9.98 92.46 12.91 90.74 13.00 88.00
C 148.71 89.67 287.70 89.67 424.00 88.00
C 424.16 90.64 427.02 92.62 429.00 94.00
C 426.38 102.51 429.51 112.46 427.00 121.00
C 450.14 118.16 470.47 116.76 486.30 129.71 C 502.13 142.67 511.54 159.75 512.00 182.00
L 512.00 0.00
L 0.00 0.00
L 0.00 372.00 Z"/>
</g>
<g fill="None" fill-opacity="0.0" stroke="#000000" stroke-opacity="1.00" stroke-width="0.3"><path d="
M 0.00 372.00 
L 0.00 374.00
C 3.99 381.30 6.82 389.53 13.25 395.75 C 19.68 401.98 23.99 407.69 32.08 411.92 C 40.17 416.15 47.28 420.08 57.07 421.93 C 66.86 423.78 80.08 422.85 91.00 423.00 C 101.92 423.15 114.71 422.94 126.00 423.00 C 137.29 423.06 149.59 423.00 161.00 423.00 C 172.41 423.00 184.65 423.05 196.00 423.00 C 207.35 422.95 219.92 423.14 231.00 423.00 C 242.08 422.86 255.58 423.33 266.00 423.00 C 276.42 422.67 292.07 423.73 301.00 423.00 C 309.93 422.27 329.75 427.32 330.00 416.00
C 330.25 404.80 311.63 409.64 303.00 409.00 C 294.37 408.36 279.23 409.28 269.00 409.00 C 258.77 408.72 244.89 409.13 234.00 409.00 C 223.11 408.87 211.18 409.06 200.00 409.00 C 188.82 408.94 176.23 409.03 165.00 409.00 C 153.77 408.97 142.09 409.02 131.00 409.00 C 119.91 408.98 107.79 409.02 97.00 409.00 C 86.21 408.98 72.81 409.36 63.00 408.00 C 53.19 406.64 45.95 403.58 38.30 398.70 C 30.66 393.81 25.03 388.64 21.00 381.00
C 168.33 381.00 315.67 381.00 463.00 381.00
C 457.37 389.17 452.29 394.09 443.77 399.77 C 435.25 405.45 424.61 407.01 414.00 408.00 C 403.39 408.99 387.90 408.42 377.00 409.00 C 366.10 409.58 348.43 404.15 345.00 416.00
C 345.67 427.84 364.91 422.05 374.00 423.00 C 383.09 423.95 399.95 422.47 410.00 423.00 C 420.05 423.53 431.63 421.65 440.68 417.68 C 449.72 413.71 454.92 410.64 462.75 403.75 C 470.59 396.87 472.77 392.58 479.30 383.30 C 485.83 374.03 481.24 363.46 468.00 366.00 C 454.76 368.54 444.59 364.85 432.00 366.00 C 419.41 367.15 408.32 365.47 396.00 366.00 C 383.68 366.53 372.27 365.73 360.00 366.00 C 347.73 366.27 335.29 365.80 323.00 366.00
C 333.66 357.56 341.60 340.30 356.01 346.99 C 370.42 353.68 391.69 349.49 405.03 344.02 C 418.36 338.56 429.48 329.24 439.75 319.75 C 450.02 310.26 459.99 300.54 467.77 289.77 C 475.55 279.00 491.47 266.16 484.00 253.00
C 473.99 247.38 469.03 266.01 463.23 272.23 C 457.43 278.45 450.48 288.69 443.75 295.75 C 437.03 302.82 429.15 309.66 421.25 316.25 C 413.35 322.84 404.44 328.89 393.98 331.98 C 383.51 335.06 367.70 337.32 357.00 332.00
C 359.10 326.46 364.53 322.49 367.00 317.00
C 389.30 320.90 407.91 306.68 423.25 291.25 C 438.59 275.82 449.92 263.04 460.77 243.77 C 471.62 224.50 480.90 202.66 479.00 178.00 C 477.10 153.34 445.71 144.18 425.00 155.00
C 425.90 148.74 426.87 142.47 427.00 136.00
C 440.16 133.65 457.24 132.14 469.68 137.32 C 482.11 142.51 487.13 150.53 492.78 162.22 C 498.42 173.92 496.46 191.54 495.01 204.01 C 493.55 216.47 482.15 229.67 491.00 240.00
C 500.19 243.22 502.43 229.82 504.98 222.98 C 507.52 216.13 509.76 203.05 512.00 196.00
L 512.00 182.00
C 511.54 159.75 502.13 142.67 486.30 129.71 C 470.47 116.76 450.14 118.16 427.00 121.00
C 429.51 112.46 426.38 102.51 429.00 94.00
C 427.02 92.62 424.16 90.64 424.00 88.00
C 287.70 89.67 148.71 89.67 13.00 88.00
C 12.91 90.74 9.98 92.46 8.00 94.00
C 9.74 147.89 14.00 188.74 31.07 238.93 C 48.15 289.12 74.21 329.70 114.00 366.00
C 101.04 366.35 86.83 365.53 74.00 366.00 C 61.17 366.47 46.37 365.10 34.00 366.00 C 21.63 366.90 7.16 361.52 0.00 372.00
M 103.00 166.00 
C 103.58 177.11 120.61 172.25 129.00 173.00 C 137.39 173.75 153.87 172.43 163.00 173.00
C 162.91 186.36 166.21 203.49 155.25 212.25 C 144.28 221.01 141.65 225.97 131.25 235.25 C 120.85 244.52 125.59 262.26 125.00 276.00 C 124.41 289.74 122.56 305.85 132.25 316.75 C 141.94 327.65 156.24 326.10 170.00 326.00 C 183.76 325.90 198.40 327.84 208.25 317.25 C 218.10 306.66 216.84 290.62 216.00 277.00 C 215.16 263.38 220.40 245.31 210.25 235.75 C 200.10 226.19 197.44 221.44 186.25 212.75 C 175.05 204.06 177.79 186.58 178.00 173.00
C 249.00 173.00 320.00 173.00 391.00 173.00
C 396.33 173.00 401.67 173.00 407.00 173.00
C 395.67 246.13 362.38 321.62 298.00 365.00
C 281.79 370.47 259.54 364.37 242.00 366.00 C 224.46 367.63 201.17 365.57 184.00 366.00 C 166.83 366.43 144.57 369.03 131.75 360.25 C 118.93 351.46 111.61 343.52 101.25 332.75 C 90.89 321.98 84.83 312.37 76.70 300.30 C 68.56 288.24 62.44 276.25 56.23 262.77 C 50.02 249.29 45.00 234.97 40.67 220.33 C 36.35 205.69 31.88 188.56 30.00 173.00
C 39.80 172.38 52.49 173.83 62.00 173.00 C 71.51 172.17 85.23 177.23 88.00 166.00
C 88.70 154.04 70.78 158.56 62.00 158.00 C 53.22 157.44 36.50 158.42 27.00 158.00
C 26.41 139.58 22.98 121.84 24.00 103.00
C 70.33 103.00 116.67 103.00 163.00 103.00
C 163.00 121.33 163.00 139.67 163.00 158.00
C 152.57 158.48 139.12 157.36 129.00 158.00 C 118.88 158.64 105.57 153.91 103.00 166.00
M 413.00 103.00 
C 413.81 121.79 410.63 139.56 410.00 158.00
C 332.66 158.00 255.33 158.00 178.00 158.00
C 178.00 139.67 178.00 121.33 178.00 103.00
C 256.33 103.00 334.67 103.00 413.00 103.00
M 377.00 303.00 
C 399.50 262.39 418.06 212.33 422.00 171.00
C 431.65 170.48 455.71 158.59 462.13 172.92 C 468.55 187.25 461.55 209.56 453.69 225.69 C 445.84 241.83 435.16 258.00 422.25 271.25 C 409.33 284.49 395.42 300.19 377.00 303.00
M 172.00 219.00 
C 176.83 220.03 179.28 228.81 184.25 231.75 C 189.22 234.70 192.67 239.98 197.75 244.25 C 202.84 248.52 200.74 259.03 201.00 266.00 C 201.26 272.97 200.75 285.03 201.00 292.00 C 201.25 298.97 201.16 307.14 193.77 309.77 C 186.38 312.40 176.96 310.94 169.00 311.00 C 161.04 311.06 153.23 312.60 145.93 309.07 C 138.62 305.55 140.09 296.12 140.00 289.00 C 139.91 281.88 140.32 271.17 140.00 264.00 C 139.68 256.83 138.95 246.85 144.75 242.75 C 150.55 238.65 152.46 233.46 157.75 230.75 C 163.04 228.04 165.86 217.69 172.00 219.00 Z"/>
</g>
<g fill="None" fill-opacity="0.0" stroke="#DDDDDD" stroke-opacity="1.00" stroke-width="0.3"><path d="
M 88.00 166.00 
C 92.26 167.49 98.98 164.01 103.00 166.00
C 105.57 153.91 118.88 158.64 129.00 158.00 C 139.12 157.36 152.57 158.48 163.00 158.00
C 163.00 139.67 163.00 121.33 163.00 103.00
C 116.67 103.00 70.33 103.00 24.00 103.00
C 22.98 121.84 26.41 139.58 27.00 158.00
C 36.50 158.42 53.22 157.44 62.00 158.00 C 70.78 158.56 88.70 154.04 88.00 166.00 Z"/>
</g>
<g fill="None" fill-opacity="0.0" stroke="#DCDCDC" stroke-opacity="1.00" stroke-width="0.3"><path d="
M 413.00 103.00 
C 334.67 103.00 256.33 103.00 178.00 103.00
C 178.00 121.33 178.00 139.67 178.00 158.00
C 255.33 158.00 332.66 158.00 410.00 158.00
C 410.63 139.56 413.81 121.79 413.00 103.00 Z"/>
</g>
<g fill="None" fill-opacity="0.0" stroke="#C1C1C1" stroke-opacity="1.00" stroke-width="0.3"><path d="
M 484.00 253.00 
C 487.86 250.44 487.40 242.68 491.00 240.00
C 482.15 229.67 493.55 216.47 495.01 204.01 C 496.46 191.54 498.42 173.92 492.78 162.22 C 487.13 150.53 482.11 142.51 469.68 137.32 C 457.24 132.14 440.16 133.65 427.00 136.00
C 426.87 142.47 425.90 148.74 425.00 155.00
C 445.71 144.18 477.10 153.34 479.00 178.00 C 480.90 202.66 471.62 224.50 460.77 243.77 C 449.92 263.04 438.59 275.82 423.25 291.25 C 407.91 306.68 389.30 320.90 367.00 317.00
C 364.53 322.49 359.10 326.46 357.00 332.00
C 367.70 337.32 383.51 335.06 393.98 331.98 C 404.44 328.89 413.35 322.84 421.25 316.25 C 429.15 309.66 437.03 302.82 443.75 295.75 C 450.48 288.69 457.43 278.45 463.23 272.23 C 469.03 266.01 473.99 247.38 484.00 253.00 Z"/>
</g>
<g fill="None" fill-opacity="0.0" stroke="#FEA95B" stroke-opacity="1.00" stroke-width="0.3"><path d="
M 298.00 365.00 
C 295.37 365.52 290.86 365.41 289.00 364.00
C 348.84 316.88 379.48 244.89 391.00 173.00
C 320.00 173.00 249.00 173.00 178.00 173.00
C 177.79 186.58 175.05 204.06 186.25 212.75 C 197.44 221.44 200.10 226.19 210.25 235.75 C 220.40 245.31 215.16 263.38 216.00 277.00 C 216.84 290.62 218.10 306.66 208.25 317.25 C 198.40 327.84 183.76 325.90 170.00 326.00 C 156.24 326.10 141.94 327.65 132.25 316.75 C 122.56 305.85 124.41 289.74 125.00 276.00 C 125.59 262.26 120.85 244.52 131.25 235.25 C 141.65 225.97 144.28 221.01 155.25 212.25 C 166.21 203.49 162.91 186.36 163.00 173.00
C 153.87 172.43 137.39 173.75 129.00 173.00 C 120.61 172.25 103.58 177.11 103.00 166.00
C 98.98 164.01 92.26 167.49 88.00 166.00
C 85.23 177.23 71.51 172.17 62.00 173.00 C 52.49 173.83 39.80 172.38 30.00 173.00
C 31.88 188.56 36.35 205.69 40.67 220.33 C 45.00 234.97 50.02 249.29 56.23 262.77 C 62.44 276.25 68.56 288.24 76.70 300.30 C 84.83 312.37 90.89 321.98 101.25 332.75 C 111.61 343.52 118.93 351.46 131.75 360.25 C 144.57 369.03 166.83 366.43 184.00 366.00 C 201.17 365.57 224.46 367.63 242.00 366.00 C 259.54 364.37 281.79 370.47 298.00 365.00 Z"/>
</g>
<g fill="None" fill-opacity="0.0" stroke="#000000" stroke-opacity="0.03" stroke-width="0.3"><path d="
M 377.00 303.00 
C 395.42 300.19 409.33 284.49 422.25 271.25 C 435.16 258.00 445.84 241.83 453.69 225.69 C 461.55 209.56 468.55 187.25 462.13 172.92 C 455.71 158.59 431.65 170.48 422.00 171.00
C 418.06 212.33 399.50 262.39 377.00 303.00 Z"/>
</g>
<g fill="None" fill-opacity="0.0" stroke="#FC9637" stroke-opacity="1.00" stroke-width="0.3"><path d="
M 298.00 365.00 
C 362.38 321.62 395.67 246.13 407.00 173.00
C 401.67 173.00 396.33 173.00 391.00 173.00
C 379.48 244.89 348.84 316.88 289.00 364.00
C 290.86 365.41 295.37 365.52 298.00 365.00 Z"/>
</g>
<g fill="None" fill-opacity="0.0" stroke="#000000" stroke-opacity="0.01" stroke-width="0.3"><path d="
M 491.00 240.00 
C 487.40 242.68 487.86 250.44 484.00 253.00
C 491.47 266.16 475.55 279.00 467.77 289.77 C 459.99 300.54 450.02 310.26 439.75 319.75 C 429.48 329.24 418.36 338.56 405.03 344.02 C 391.69 349.49 370.42 353.68 356.01 346.99 C 341.60 340.30 333.66 357.56 323.00 366.00
C 335.29 365.80 347.73 366.27 360.00 366.00 C 372.27 365.73 383.68 366.53 396.00 366.00 C 408.32 365.47 419.41 367.15 432.00 366.00 C 444.59 364.85 454.76 368.54 468.00 366.00 C 481.24 363.46 485.83 374.03 479.30 383.30 C 472.77 392.58 470.59 396.87 462.75 403.75 C 454.92 410.64 449.72 413.71 440.68 417.68 C 431.63 421.65 420.05 423.53 410.00 423.00 C 399.95 422.47 383.09 423.95 374.00 423.00 C 364.91 422.05 345.67 427.84 345.00 416.00
C 340.72 417.48 334.03 414.03 330.00 416.00
C 329.75 427.32 309.93 422.27 301.00 423.00 C 292.07 423.73 276.42 422.67 266.00 423.00 C 255.58 423.33 242.08 422.86 231.00 423.00 C 219.92 423.14 207.35 422.95 196.00 423.00 C 184.65 423.05 172.41 423.00 161.00 423.00 C 149.59 423.00 137.29 423.06 126.00 423.00 C 114.71 422.94 101.92 423.15 91.00 423.00 C 80.08 422.85 66.86 423.78 57.07 421.93 C 47.28 420.08 40.17 416.15 32.08 411.92 C 23.99 407.69 19.68 401.98 13.25 395.75 C 6.82 389.53 3.99 381.30 0.00 374.00
L 0.00 512.00
L 512.00 512.00
L 512.00 196.00
C 509.76 203.05 507.52 216.13 504.98 222.98 C 502.43 229.82 500.19 243.22 491.00 240.00 Z"/>
</g>
<g fill="None" fill-opacity="0.0" stroke="#FDE04F" stroke-opacity="1.00" stroke-width="0.3"><path d="
M 172.00 219.00 
C 165.86 217.69 163.04 228.04 157.75 230.75 C 152.46 233.46 150.55 238.65 144.75 242.75 C 138.95 246.85 139.68 256.83 140.00 264.00 C 140.32 271.17 139.91 281.88 140.00 289.00 C 140.09 296.12 138.62 305.55 145.93 309.07 C 153.23 312.60 161.04 311.06 169.00 311.00 C 176.96 310.94 186.38 312.40 193.77 309.77 C 201.16 307.14 201.25 298.97 201.00 292.00 C 200.75 285.03 201.26 272.97 201.00 266.00 C 200.74 259.03 202.84 248.52 197.75 244.25 C 192.67 239.98 189.22 234.70 184.25 231.75 C 179.28 228.81 176.83 220.03 172.00 219.00 Z"/>
</g>
<g fill="None" fill-opacity="0.0" stroke="#DCDCDC" stroke-opacity="1.00" stroke-width="0.3"><path d="
M 330.00 416.00 
C 334.03 414.03 340.72 417.48 345.00 416.00
C 348.43 404.15 366.10 409.58 377.00 409.00 C 387.90 408.42 403.39 408.99 414.00 408.00 C 424.61 407.01 435.25 405.45 443.77 399.77 C 452.29 394.09 457.37 389.17 463.00 381.00
C 315.67 381.00 168.33 381.00 21.00 381.00
C 25.03 388.64 30.66 393.81 38.30 398.70 C 45.95 403.58 53.19 406.64 63.00 408.00 C 72.81 409.36 86.21 408.98 97.00 409.00 C 107.79 409.02 119.91 408.98 131.00 409.00 C 142.09 409.02 153.77 408.97 165.00 409.00 C 176.23 409.03 188.82 408.94 200.00 409.00 C 211.18 409.06 223.11 408.87 234.00 409.00 C 244.89 409.13 258.77 408.72 269.00 409.00 C 279.23 409.28 294.37 408.36 303.00 409.00 C 311.63 409.64 330.25 404.80 330.00 416.00 Z"/>
</g>
<g fill="#000000" fill-opacity="0.01" stroke="None">
<path d="
M 0.00 372.00 
C 7.16 361.52 21.63 366.90 34.00 366.00 C 46.37 365.10 61.17 366.47 74.00 366.00 C 86.83 365.53 101.04 366.35 114.00 366.00
C 74.21 329.70 48.15 289.12 31.07 238.93 C 14.00 188.74 9.74 147.89 8.00 94.00
C 9.98 92.46 12.91 90.74 13.00 88.00
C 148.71 89.67 287.70 89.67 424.00 88.00
C 424.16 90.64 427.02 92.62 429.00 94.00
C 426.38 102.51 429.51 112.46 427.00 121.00
C 450.14 118.16 470.47 116.76 486.30 129.71 C 502.13 142.67 511.54 159.75 512.00 182.00
L 512.00 0.00
L 0.00 0.00
L 0.00 372.00 Z"/>
</g>
<g fill="#000000" fill-opacity="1.00" stroke="None">
<path d="
M 0.00 372.00 
L 0.00 374.00
C 3.99 381.30 6.82 389.53 13.25 395.75 C 19.68 401.98 23.99 407.69 32.08 411.92 C 40.17 416.15 47.28 420.08 57.07 421.93 C 66.86 423.78 80.08 422.85 91.00 423.00 C 101.92 423.15 114.71 422.94 126.00 423.00 C 137.29 423.06 149.59 423.00 161.00 423.00 C 172.41 423.00 184.65 423.05 196.00 423.00 C 207.35 422.95 219.92 423.14 231.00 423.00 C 242.08 422.86 255.58 423.33 266.00 423.00 C 276.42 422.67 292.07 423.73 301.00 423.00 C 309.93 422.27 329.75 427.32 330.00 416.00
C 330.25 404.80 311.63 409.64 303.00 409.00 C 294.37 408.36 279.23 409.28 269.00 409.00 C 258.77 408.72 244.89 409.13 234.00 409.00 C 223.11 408.87 211.18 409.06 200.00 409.00 C 188.82 408.94 176.23 409.03 165.00 409.00 C 153.77 408.97 142.09 409.02 131.00 409.00 C 119.91 408.98 107.79 409.02 97.00 409.00 C 86.21 408.98 72.81 409.36 63.00 408.00 C 53.19 406.64 45.95 403.58 38.30 398.70 C 30.66 393.81 25.03 388.64 21.00 381.00
C 168.33 381.00 315.67 381.00 463.00 381.00
C 457.37 389.17 452.29 394.09 443.77 399.77 C 435.25 405.45 424.61 407.01 414.00 408.00 C 403.39 408.99 387.90 408.42 377.00 409.00 C 366.10 409.58 348.43 404.15 345.00 416.00
C 345.67 427.84 364.91 422.05 374.00 423.00 C 383.09 423.95 399.95 422.47 410.00 423.00 C 420.05 423.53 431.63 421.65 440.68 417.68 C 449.72 413.71 454.92 410.64 462.75 403.75 C 470.59 396.87 472.77 392.58 479.30 383.30 C 485.83 374.03 481.24 363.46 468.00 366.00 C 454.76 368.54 444.59 364.85 432.00 366.00 C 419.41 367.15 408.32 365.47 396.00 366.00 C 383.68 366.53 372.27 365.73 360.00 366.00 C 347.73 366.27 335.29 365.80 323.00 366.00
C 333.66 357.56 341.60 340.30 356.01 346.99 C 370.42 353.68 391.69 349.49 405.03 344.02 C 418.36 338.56 429.48 329.24 439.75 319.75 C 450.02 310.26 459.99 300.54 467.77 289.77 C 475.55 279.00 491.47 266.16 484.00 253.00
C 473.99 247.38 469.03 266.01 463.23 272.23 C 457.43 278.45 450.48 288.69 443.75 295.75 C 437.03 302.82 429.15 309.66 421.25 316.25 C 413.35 322.84 404.44 328.89 393.98 331.98 C 383.51 335.06 367.70 337.32 357.00 332.00
C 359.10 326.46 364.53 322.49 367.00 317.00
C 389.30 320.90 407.91 306.68 423.25 291.25 C 438.59 275.82 449.92 263.04 460.77 243.77 C 471.62 224.50 480.90 202.66 479.00 178.00 C 477.10 153.34 445.71 144.18 425.00 155.00
C 425.90 148.74 426.87 142.47 427.00 136.00
C 440.16 133.65 457.24 132.14 469.68 137.32 C 482.11 142.51 487.13 150.53 492.78 162.22 C 498.42 173.92 496.46 191.54 495.01 204.01 C 493.55 216.47 482.15 229.67 491.00 240.00
C 500.19 243.22 502.43 229.82 504.98 222.98 C 507.52 216.13 509.76 203.05 512.00 196.00
L 512.00 182.00
C 511.54 159.75 502.13 142.67 486.30 129.71 C 470.47 116.76 450.14 118.16 427.00 121.00
C 429.51 112.46 426.38 102.51 429.00 94.00
C 427.02 92.62 424.16 90.64 424.00 88.00
C 287.70 89.67 148.71 89.67 13.00 88.00
C 12.91 90.74 9.98 92.46 8.00 94.00
C 9.74 147.89 14.00 188.74 31.07 238.93 C 48.15 289.12 74.21 329.70 114.00 366.00
C 101.04 366.35 86.83 365.53 74.00 366.00 C 61.17 366.47 46.37 365.10 34.00 366.00 C 21.63 366.90 7.16 361.52 0.00 372.00
M 103.00 166.00 
C 103.58 177.11 120.61 172.25 129.00 173.00 C 137.39 173.75 153.87 172.43 163.00 173.00
C 162.91 186.36 166.21 203.49 155.25 212.25 C 144.28 221.01 141.65 225.97 131.25 235.25 C 120.85 244.52 125.59 262.26 125.00 276.00 C 124.41 289.74 122.56 305.85 132.25 316.75 C 141.94 327.65 156.24 326.10 170.00 326.00 C 183.76 325.90 198.40 327.84 208.25 317.25 C 218.10 306.66 216.84 290.62 216.00 277.00 C 215.16 263.38 220.40 245.31 210.25 235.75 C 200.10 226.19 197.44 221.44 186.25 212.75 C 175.05 204.06 177.79 186.58 178.00 173.00
C 249.00 173.00 320.00 173.00 391.00 173.00
C 396.33 173.00 401.67 173.00 407.00 173.00
C 395.67 246.13 362.38 321.62 298.00 365.00
C 281.79 370.47 259.54 364.37 242.00 366.00 C 224.46 367.63 201.17 365.57 184.00 366.00 C 166.83 366.43 144.57 369.03 131.75 360.25 C 118.93 351.46 111.61 343.52 101.25 332.75 C 90.89 321.98 84.83 312.37 76.70 300.30 C 68.56 288.24 62.44 276.25 56.23 262.77 C 50.02 249.29 45.00 234.97 40.67 220.33 C 36.35 205.69 31.88 188.56 30.00 173.00
C 39.80 172.38 52.49 173.83 62.00 173.00 C 71.51 172.17 85.23 177.23 88.00 166.00
C 88.70 154.04 70.78 158.56 62.00 158.00 C 53.22 157.44 36.50 158.42 27.00 158.00
C 26.41 139.58 22.98 121.84 24.00 103.00
C 70.33 103.00 116.67 103.00 163.00 103.00
C 163.00 121.33 163.00 139.67 163.00 158.00
C 152.57 158.48 139.12 157.36 129.00 158.00 C 118.88 158.64 105.57 153.91 103.00 166.00
M 413.00 103.00 
C 413.81 121.79 410.63 139.56 410.00 158.00
C 332.66 158.00 255.33 158.00 178.00 158.00
C 178.00 139.67 178.00 121.33 178.00 103.00
C 256.33 103.00 334.67 103.00 413.00 103.00
M 377.00 303.00 
C 399.50 262.39 418.06 212.33 422.00 171.00
C 431.65 170.48 455.71 158.59 462.13 172.92 C 468.55 187.25 461.55 209.56 453.69 225.69 C 445.84 241.83 435.16 258.00 422.25 271.25 C 409.33 284.49 395.42 300.19 377.00 303.00
M 172.00 219.00 
C 176.83 220.03 179.28 228.81 184.25 231.75 C 189.22 234.70 192.67 239.98 197.75 244.25 C 202.84 248.52 200.74 259.03 201.00 266.00 C 201.26 272.97 200.75 285.03 201.00 292.00 C 201.25 298.97 201.16 307.14 193.77 309.77 C 186.38 312.40 176.96 310.94 169.00 311.00 C 161.04 311.06 153.23 312.60 145.93 309.07 C 138.62 305.55 140.09 296.12 140.00 289.00 C 139.91 281.88 140.32 271.17 140.00 264.00 C 139.68 256.83 138.95 246.85 144.75 242.75 C 150.55 238.65 152.46 233.46 157.75 230.75 C 163.04 228.04 165.86 217.69 172.00 219.00 Z"/>
</g>
<g fill="#DDDDDD" fill-opacity="1.00" stroke="None">
<path d="
M 88.00 166.00 
C 92.26 167.49 98.98 164.01 103.00 166.00
C 105.57 153.91 118.88 158.64 129.00 158.00 C 139.12 157.36 152.57 158.48 163.00 158.00
C 163.00 139.67 163.00 121.33 163.00 103.00
C 116.67 103.00 70.33 103.00 24.00 103.00
C 22.98 121.84 26.41 139.58 27.00 158.00
C 36.50 158.42 53.22 157.44 62.00 158.00 C 70.78 158.56 88.70 154.04 88.00 166.00 Z"/>
</g>
<g fill="#DCDCDC" fill-opacity="1.00" stroke="None">
<path d="
M 413.00 103.00 
C 334.67 103.00 256.33 103.00 178.00 103.00
C 178.00 121.33 178.00 139.67 178.00 158.00
C 255.33 158.00 332.66 158.00 410.00 158.00
C 410.63 139.56 413.81 121.79 413.00 103.00 Z"/>
</g>
<g fill="#C1C1C1" fill-opacity="1.00" stroke="None">
<path d="
M 484.00 253.00 
C 487.86 250.44 487.40 242.68 491.00 240.00
C 482.15 229.67 493.55 216.47 495.01 204.01 C 496.46 191.54 498.42 173.92 492.78 162.22 C 487.13 150.53 482.11 142.51 469.68 137.32 C 457.24 132.14 440.16 133.65 427.00 136.00
C 426.87 142.47 425.90 148.74 425.00 155.00
C 445.71 144.18 477.10 153.34 479.00 178.00 C 480.90 202.66 471.62 224.50 460.77 243.77 C 449.92 263.04 438.59 275.82 423.25 291.25 C 407.91 306.68 389.30 320.90 367.00 317.00
C 364.53 322.49 359.10 326.46 357.00 332.00
C 367.70 337.32 383.51 335.06 393.98 331.98 C 404.44 328.89 413.35 322.84 421.25 316.25 C 429.15 309.66 437.03 302.82 443.75 295.75 C 450.48 288.69 457.43 278.45 463.23 272.23 C 469.03 266.01 473.99 247.38 484.00 253.00 Z"/>
</g>
<g fill="#FEA95B" fill-opacity="1.00" stroke="None">
<path d="
M 298.00 365.00 
C 295.37 365.52 290.86 365.41 289.00 364.00
C 348.84 316.88 379.48 244.89 391.00 173.00
C 320.00 173.00 249.00 173.00 178.00 173.00
C 177.79 186.58 175.05 204.06 186.25 212.75 C 197.44 221.44 200.10 226.19 210.25 235.75 C 220.40 245.31 215.16 263.38 216.00 277.00 C 216.84 290.62 218.10 306.66 208.25 317.25 C 198.40 327.84 183.76 325.90 170.00 326.00 C 156.24 326.10 141.94 327.65 132.25 316.75 C 122.56 305.85 124.41 289.74 125.00 276.00 C 125.59 262.26 120.85 244.52 131.25 235.25 C 141.65 225.97 144.28 221.01 155.25 212.25 C 166.21 203.49 162.91 186.36 163.00 173.00
C 153.87 172.43 137.39 173.75 129.00 173.00 C 120.61 172.25 103.58 177.11 103.00 166.00
C 98.98 164.01 92.26 167.49 88.00 166.00
C 85.23 177.23 71.51 172.17 62.00 173.00 C 52.49 173.83 39.80 172.38 30.00 173.00
C 31.88 188.56 36.35 205.69 40.67 220.33 C 45.00 234.97 50.02 249.29 56.23 262.77 C 62.44 276.25 68.56 288.24 76.70 300.30 C 84.83 312.37 90.89 321.98 101.25 332.75 C 111.61 343.52 118.93 351.46 131.75 360.25 C 144.57 369.03 166.83 366.43 184.00 366.00 C 201.17 365.57 224.46 367.63 242.00 366.00 C 259.54 364.37 281.79 370.47 298.00 365.00 Z"/>
</g>
<g fill="#000000" fill-opacity="0.03" stroke="None">
<path d="
M 377.00 303.00 
C 395.42 300.19 409.33 284.49 422.25 271.25 C 435.16 258.00 445.84 241.83 453.69 225.69 C 461.55 209.56 468.55 187.25 462.13 172.92 C 455.71 158.59 431.65 170.48 422.00 171.00
C 418.06 212.33 399.50 262.39 377.00 303.00 Z"/>
</g>
<g fill="#FC9637" fill-opacity="1.00" stroke="None">
<path d="
M 298.00 365.00 
C 362.38 321.62 395.67 246.13 407.00 173.00
C 401.67 173.00 396.33 173.00 391.00 173.00
C 379.48 244.89 348.84 316.88 289.00 364.00
C 290.86 365.41 295.37 365.52 298.00 365.00 Z"/>
</g>
<g fill="#000000" fill-opacity="0.01" stroke="None">
<path d="
M 491.00 240.00 
C 487.40 242.68 487.86 250.44 484.00 253.00
C 491.47 266.16 475.55 279.00 467.77 289.77 C 459.99 300.54 450.02 310.26 439.75 319.75 C 429.48 329.24 418.36 338.56 405.03 344.02 C 391.69 349.49 370.42 353.68 356.01 346.99 C 341.60 340.30 333.66 357.56 323.00 366.00
C 335.29 365.80 347.73 366.27 360.00 366.00 C 372.27 365.73 383.68 366.53 396.00 366.00 C 408.32 365.47 419.41 367.15 432.00 366.00 C 444.59 364.85 454.76 368.54 468.00 366.00 C 481.24 363.46 485.83 374.03 479.30 383.30 C 472.77 392.58 470.59 396.87 462.75 403.75 C 454.92 410.64 449.72 413.71 440.68 417.68 C 431.63 421.65 420.05 423.53 410.00 423.00 C 399.95 422.47 383.09 423.95 374.00 423.00 C 364.91 422.05 345.67 427.84 345.00 416.00
C 340.72 417.48 334.03 414.03 330.00 416.00
C 329.75 427.32 309.93 422.27 301.00 423.00 C 292.07 423.73 276.42 422.67 266.00 423.00 C 255.58 423.33 242.08 422.86 231.00 423.00 C 219.92 423.14 207.35 422.95 196.00 423.00 C 184.65 423.05 172.41 423.00 161.00 423.00 C 149.59 423.00 137.29 423.06 126.00 423.00 C 114.71 422.94 101.92 423.15 91.00 423.00 C 80.08 422.85 66.86 423.78 57.07 421.93 C 47.28 420.08 40.17 416.15 32.08 411.92 C 23.99 407.69 19.68 401.98 13.25 395.75 C 6.82 389.53 3.99 381.30 0.00 374.00
L 0.00 512.00
L 512.00 512.00
L 512.00 196.00
C 509.76 203.05 507.52 216.13 504.98 222.98 C 502.43 229.82 500.19 243.22 491.00 240.00 Z"/>
</g>
<g fill="#FDE04F" fill-opacity="1.00" stroke="None">
<path d="
M 172.00 219.00 
C 165.86 217.69 163.04 228.04 157.75 230.75 C 152.46 233.46 150.55 238.65 144.75 242.75 C 138.95 246.85 139.68 256.83 140.00 264.00 C 140.32 271.17 139.91 281.88 140.00 289.00 C 140.09 296.12 138.62 305.55 145.93 309.07 C 153.23 312.60 161.04 311.06 169.00 311.00 C 176.96 310.94 186.38 312.40 193.77 309.77 C 201.16 307.14 201.25 298.97 201.00 292.00 C 200.75 285.03 201.26 272.97 201.00 266.00 C 200.74 259.03 202.84 248.52 197.75 244.25 C 192.67 239.98 189.22 234.70 184.25 231.75 C 179.28 228.81 176.83 220.03 172.00 219.00 Z"/>
</g>
<g fill="#DCDCDC" fill-opacity="1.00" stroke="None">
<path d="
M 330.00 416.00 
C 334.03 414.03 340.72 417.48 345.00 416.00
C 348.43 404.15 366.10 409.58 377.00 409.00 C 387.90 408.42 403.39 408.99 414.00 408.00 C 424.61 407.01 435.25 405.45 443.77 399.77 C 452.29 394.09 457.37 389.17 463.00 381.00
C 315.67 381.00 168.33 381.00 21.00 381.00
C 25.03 388.64 30.66 393.81 38.30 398.70 C 45.95 403.58 53.19 406.64 63.00 408.00 C 72.81 409.36 86.21 408.98 97.00 409.00 C 107.79 409.02 119.91 408.98 131.00 409.00 C 142.09 409.02 153.77 408.97 165.00 409.00 C 176.23 409.03 188.82 408.94 200.00 409.00 C 211.18 409.06 223.11 408.87 234.00 409.00 C 244.89 409.13 258.77 408.72 269.00 409.00 C 279.23 409.28 294.37 408.36 303.00 409.00 C 311.63 409.64 330.25 404.80 330.00 416.00 Z"/>
</g>
</svg>