<svg xmlns="http://www.w3.org/2000/svg" xmlns:v="https://svgstorm.com"
viewBox = "0 0 512 512"
width="512"
height="512">
<g fill="None" fill-opacity="0.0" stroke="#000000" stroke-opacity="0.00" stroke-width="0.3"><path d="
M 0.00 191.00 
C 5.10 184.46 13.12 180.90 19.25 175.25 C 25.38 169.59 31.66 164.68 36.75 157.75 C 41.85 150.83 46.69 144.68 50.77 136.77 C 54.85 128.86 59.24 120.41 61.32 111.32 C 63.40 102.24 68.48 92.41 67.00 82.00 C 65.52 71.59 71.59 59.05 83.00 63.00 C 94.41 66.95 108.26 57.53 115.75 65.25 C 123.23 72.98 116.44 87.83 120.33 96.67 C 124.22 105.51 124.47 115.01 128.77 123.23 C 133.07 131.44 135.30 139.09 140.77 146.23 C 146.24 153.37 149.91 159.36 156.25 165.75 C 162.58 172.15 168.48 177.20 175.70 182.30 C 182.92 187.41 189.36 191.44 197.69 195.31 C 206.03 199.17 214.26 201.98 223.67 204.33 C 233.08 206.68 245.68 208.23 256.00 208.00 C 266.32 207.77 278.35 207.23 287.67 204.67 C 297.00 202.11 305.31 199.44 313.69 195.69 C 322.08 191.94 328.48 187.79 335.75 182.75 C 343.02 177.70 348.91 172.66 355.25 166.25 C 361.59 159.84 365.21 153.91 370.77 146.77 C 376.33 139.63 378.46 132.16 382.93 123.93 C 387.40 115.69 387.41 106.33 391.33 97.33 C 395.25 88.32 389.18 74.22 395.77 65.77 C 402.36 57.32 416.96 67.00 428.00 63.00 C 439.04 59.00 446.74 70.30 444.99 81.01 C 443.24 91.72 448.41 101.40 450.32 110.68 C 452.24 119.96 457.05 128.01 460.92 136.08 C 464.80 144.15 469.81 150.20 474.92 157.08 C 480.03 163.96 486.57 168.41 492.25 174.75 C 497.93 181.09 507.29 183.86 512.00 191.00
L 512.00 0.00
L 0.00 0.00
L 0.00 191.00 Z"/>
</g>
<g fill="None" fill-opacity="0.0" stroke="#000000" stroke-opacity="1.00" stroke-width="0.3"><path d="
M 0.00 191.00 
L 0.00 194.00
C 9.53 209.09 23.91 187.22 34.00 182.00
C 34.00 205.00 34.00 228.00 34.00 251.00
C 22.99 253.18 6.14 245.62 0.00 257.00
L 0.00 259.00
C 1.22 261.97 3.68 264.80 7.00 266.00
C 7.44 266.16 8.00 266.00 8.00 266.00
C 27.67 266.00 47.33 266.00 67.00 266.00
C 67.00 271.00 67.00 276.00 67.00 281.00
C 64.28 284.88 53.17 281.06 48.00 282.00 C 42.83 282.94 34.00 281.90 28.00 282.00 C 22.00 282.10 13.19 282.56 7.00 282.00
C 3.90 282.63 1.62 284.46 0.00 287.00
L 0.00 290.00
C 5.92 300.31 19.82 295.04 31.00 296.00 C 42.18 296.96 56.53 295.28 68.00 296.00
C 68.00 312.33 68.00 328.67 68.00 345.00
C 57.22 342.98 57.46 354.48 58.00 362.00 C 58.54 369.52 55.69 379.21 64.00 383.00
C 65.37 380.00 70.45 380.91 72.00 376.00
C 72.65 372.40 69.96 362.13 73.00 360.00
C 77.47 356.87 87.48 361.63 93.00 360.00 C 98.52 358.37 107.19 361.23 113.00 360.00
C 115.75 371.29 106.09 392.55 121.00 396.00
C 132.15 395.29 127.39 376.63 128.00 369.00 C 128.61 361.37 130.89 342.91 118.00 345.00
C 118.00 328.67 118.00 312.33 118.00 296.00
C 210.00 296.00 302.00 296.00 394.00 296.00
C 394.00 312.33 394.00 328.67 394.00 345.00
C 381.07 343.68 383.46 360.25 384.00 369.00 C 384.54 377.75 379.98 393.21 391.00 396.00
C 405.61 396.93 396.47 367.93 399.00 360.00
C 412.33 360.00 425.67 360.00 439.00 360.00
C 442.03 362.12 439.36 372.45 440.00 376.00
C 441.54 380.88 446.63 380.02 448.00 383.00
C 449.61 377.24 455.61 379.78 454.00 371.00 C 452.39 362.22 459.11 343.27 444.00 345.00
C 444.00 328.67 444.00 312.33 444.00 296.00
C 455.47 295.29 469.81 296.95 481.00 296.00 C 492.19 295.05 506.12 300.29 512.00 290.00
L 512.00 287.00
C 510.43 284.39 508.06 282.62 505.00 282.00
C 499.02 282.54 490.83 282.19 485.00 282.00 C 479.17 281.81 470.13 283.06 465.00 282.00 C 459.87 280.94 447.76 284.94 445.00 281.00
C 442.65 277.64 446.76 269.77 445.00 266.00
C 464.67 266.00 484.33 266.00 504.00 266.00
C 504.50 266.00 505.00 266.00 505.00 266.00
C 508.43 264.76 510.70 261.92 512.00 259.00
L 512.00 257.00
C 505.82 245.60 488.99 253.20 478.00 251.00
C 478.00 228.00 478.00 205.00 478.00 182.00
C 488.19 187.19 502.45 209.13 512.00 194.00
L 512.00 191.00
C 507.29 183.86 497.93 181.09 492.25 174.75 C 486.57 168.41 480.03 163.96 474.92 157.08 C 469.81 150.20 464.80 144.15 460.92 136.08 C 457.05 128.01 452.24 119.96 450.32 110.68 C 448.41 101.40 443.24 91.72 444.99 81.01 C 446.74 70.30 439.04 59.00 428.00 63.00 C 416.96 67.00 402.36 57.32 395.77 65.77 C 389.18 74.22 395.25 88.32 391.33 97.33 C 387.41 106.33 387.40 115.69 382.93 123.93 C 378.46 132.16 376.33 139.63 370.77 146.77 C 365.21 153.91 361.59 159.84 355.25 166.25 C 348.91 172.66 343.02 177.70 335.75 182.75 C 328.48 187.79 322.08 191.94 313.69 195.69 C 305.31 199.44 297.00 202.11 287.67 204.67 C 278.35 207.23 266.32 207.77 256.00 208.00 C 245.68 208.23 233.08 206.68 223.67 204.33 C 214.26 201.98 206.03 199.17 197.69 195.31 C 189.36 191.44 182.92 187.41 175.70 182.30 C 168.48 177.20 162.58 172.15 156.25 165.75 C 149.91 159.36 146.24 153.37 140.77 146.23 C 135.30 139.09 133.07 131.44 128.77 123.23 C 124.47 115.01 124.22 105.51 120.33 96.67 C 116.44 87.83 123.23 72.98 115.75 65.25 C 108.26 57.53 94.41 66.95 83.00 63.00 C 71.59 59.05 65.52 71.59 67.00 82.00 C 68.48 92.41 63.40 102.24 61.32 111.32 C 59.24 120.41 54.85 128.86 50.77 136.77 C 46.69 144.68 41.85 150.83 36.75 157.75 C 31.66 164.68 25.38 169.59 19.25 175.25 C 13.12 180.90 5.10 184.46 0.00 191.00
M 103.00 78.00 
C 106.16 82.51 101.59 92.25 103.00 98.00 C 104.41 103.75 102.39 111.63 103.00 118.00 C 103.61 124.37 102.71 132.38 103.00 139.00 C 103.29 145.62 102.88 152.25 103.00 159.00 C 103.12 165.75 102.95 173.20 103.00 180.00 C 103.05 186.80 102.99 193.18 103.00 200.00 C 103.01 206.82 103.02 214.18 103.00 221.00 C 102.98 227.82 103.06 234.20 103.00 241.00 C 102.94 247.80 103.13 255.25 103.00 262.00 C 102.87 268.75 103.31 275.37 103.00 282.00 C 102.69 288.63 103.66 296.60 103.00 303.00 C 102.34 309.40 104.53 317.20 103.00 323.00 C 101.47 328.80 106.24 339.37 103.00 344.00
C 99.92 348.40 86.58 342.78 82.00 345.00
C 82.00 291.00 82.00 237.00 82.00 183.00
C 80.78 179.14 78.80 176.32 74.00 177.00
C 65.00 178.27 68.41 189.73 68.00 197.00 C 67.59 204.27 68.21 215.90 68.00 224.00 C 67.79 232.10 68.16 242.68 68.00 251.00
C 61.33 251.00 54.67 251.00 48.00 251.00
C 46.03 229.68 50.63 206.09 48.00 185.00 C 45.37 163.91 58.64 154.45 66.00 137.00
C 72.57 143.90 61.67 162.26 74.00 167.00
C 78.60 167.50 80.95 163.46 82.00 160.00
C 83.10 153.48 81.43 145.51 82.00 139.00 C 82.57 132.49 81.59 124.17 82.00 118.00 C 82.41 111.83 81.48 102.28 82.00 97.00 C 82.52 91.72 80.45 79.94 83.26 77.26 C 86.06 74.58 101.99 76.56 103.00 78.00
M 430.00 78.00 
C 433.97 122.10 427.94 166.68 430.00 211.00 C 432.06 255.32 428.45 300.60 430.00 345.00
C 423.17 344.34 415.01 346.32 409.00 344.00
C 405.84 339.49 410.41 329.75 409.00 324.00 C 407.59 318.25 409.61 310.37 409.00 304.00 C 408.39 297.63 409.29 289.62 409.00 283.00 C 408.71 276.38 409.12 269.75 409.00 263.00 C 408.88 256.25 409.05 248.80 409.00 242.00 C 408.95 235.20 409.01 228.82 409.00 222.00 C 408.99 215.18 408.98 207.82 409.00 201.00 C 409.02 194.18 408.94 187.80 409.00 181.00 C 409.06 174.20 408.87 166.75 409.00 160.00 C 409.13 153.25 408.69 146.63 409.00 140.00 C 409.31 133.37 408.34 125.40 409.00 119.00 C 409.66 112.60 407.47 104.80 409.00 99.00 C 410.53 93.20 405.76 82.63 409.00 78.00
C 410.65 75.64 428.15 76.08 430.00 78.00
M 137.00 251.00 
C 130.67 251.00 124.33 251.00 118.00 251.00
C 118.00 213.00 118.00 175.00 118.00 137.00
C 128.00 152.86 139.09 163.06 137.00 184.00 C 134.91 204.94 138.57 229.71 137.00 251.00
M 394.00 137.00 
C 394.00 175.00 394.00 213.00 394.00 251.00
C 387.67 251.00 381.33 251.00 375.00 251.00
C 373.28 229.81 377.30 205.92 375.00 185.00 C 372.70 164.08 383.77 152.79 394.00 137.00
M 446.00 137.00 
C 453.35 154.43 466.63 163.92 464.00 185.00 C 461.37 206.08 465.97 229.69 464.00 251.00
C 457.33 251.00 450.67 251.00 444.00 251.00
C 444.22 238.38 443.71 225.61 444.00 213.00 C 444.29 200.39 443.45 186.45 444.00 174.00 C 444.55 161.55 441.93 146.87 446.00 137.00
M 174.00 198.00 
C 174.00 215.67 174.00 233.33 174.00 251.00
C 166.67 251.00 159.33 251.00 152.00 251.00
C 152.00 228.00 152.00 205.00 152.00 182.00
C 159.50 187.13 165.80 194.42 174.00 198.00
M 360.00 182.00 
C 360.00 205.00 360.00 228.00 360.00 251.00
C 352.67 251.00 345.33 251.00 338.00 251.00
C 338.00 233.33 338.00 215.67 338.00 198.00
C 346.19 194.42 352.55 187.09 360.00 182.00
M 212.00 216.00 
C 212.00 227.67 212.00 239.33 212.00 251.00
C 204.33 251.00 196.67 251.00 189.00 251.00
C 189.00 236.33 189.00 221.67 189.00 207.00
C 196.47 210.64 203.99 213.92 212.00 216.00
M 323.00 207.00 
C 323.00 221.67 323.00 236.33 323.00 251.00
C 315.33 251.00 307.67 251.00 300.00 251.00
C 300.00 239.33 300.00 227.67 300.00 216.00
C 307.98 213.94 315.55 210.63 323.00 207.00
M 249.00 251.00 
C 241.33 251.00 233.67 251.00 226.00 251.00
C 226.00 240.67 226.00 230.33 226.00 220.00
C 231.21 223.64 245.94 217.61 248.92 224.08 C 251.89 230.55 246.86 243.90 249.00 251.00
M 286.00 220.00 
C 286.00 230.33 286.00 240.67 286.00 251.00
C 278.33 251.00 270.67 251.00 263.00 251.00
C 265.29 243.96 259.94 230.39 263.00 224.00 C 266.06 217.61 280.88 223.66 286.00 220.00
M 393.00 281.00 
C 387.95 286.05 374.65 280.45 367.00 282.00 C 359.35 283.55 347.47 281.28 339.00 282.00 C 330.53 282.72 320.88 281.70 312.00 282.00 C 303.12 282.30 293.07 281.89 284.00 282.00 C 274.93 282.11 265.08 282.00 256.00 282.00 C 246.92 282.00 238.02 282.13 229.00 282.00 C 219.98 281.87 209.86 282.32 201.00 282.00 C 192.14 281.68 182.48 282.77 174.00 282.00 C 165.52 281.23 153.68 283.65 146.00 282.00 C 138.32 280.35 124.11 286.11 119.00 281.00
C 115.84 277.84 119.30 270.15 118.00 266.00
C 210.00 266.00 302.00 266.00 394.00 266.00
C 393.35 270.83 395.31 276.99 393.00 281.00 Z"/>
</g>
<g fill="None" fill-opacity="0.0" stroke="#5B1111" stroke-opacity="1.00" stroke-width="0.3"><path d="
M 82.00 160.00 
C 85.72 147.75 81.85 133.35 83.00 120.00 C 84.15 106.65 82.13 91.51 83.00 78.00
C 85.67 78.00 88.33 78.00 91.00 78.00
C 95.00 78.00 99.00 78.00 103.00 78.00
C 101.99 76.56 86.06 74.58 83.26 77.26 C 80.45 79.94 82.52 91.72 82.00 97.00 C 81.48 102.28 82.41 111.83 82.00 118.00 C 81.59 124.17 82.57 132.49 82.00 139.00 C 81.43 145.51 83.10 153.48 82.00 160.00 Z"/>
</g>
<g fill="None" fill-opacity="0.0" stroke="#380B0B" stroke-opacity="1.00" stroke-width="0.3"><path d="
M 409.00 78.00 
C 411.67 78.00 414.33 78.00 417.00 78.00
C 421.00 78.00 425.00 78.00 429.00 78.00
C 429.50 78.00 430.00 78.00 430.00 78.00
C 428.15 76.08 410.65 75.64 409.00 78.00 Z"/>
</g>
<g fill="None" fill-opacity="0.0" stroke="#C92727" stroke-opacity="1.00" stroke-width="0.3"><path d="
M 82.00 160.00 
C 80.95 163.46 78.60 167.50 74.00 167.00
C 74.61 168.40 74.63 175.62 74.00 177.00
C 78.80 176.32 80.78 179.14 82.00 183.00
C 87.06 199.02 81.32 218.65 83.00 236.00 C 84.68 253.35 82.12 272.34 83.00 290.00 C 83.88 307.66 82.34 326.25 83.00 344.00
C 85.67 344.00 88.33 344.00 91.00 344.00
C 91.00 255.33 91.00 166.67 91.00 78.00
C 88.33 78.00 85.67 78.00 83.00 78.00
C 82.13 91.51 84.15 106.65 83.00 120.00 C 81.85 133.35 85.72 147.75 82.00 160.00 Z"/>
</g>
<g fill="None" fill-opacity="0.0" stroke="#DF3232" stroke-opacity="1.00" stroke-width="0.3"><path d="
M 91.00 344.00 
C 95.00 344.00 99.00 344.00 103.00 344.00
C 106.24 339.37 101.47 328.80 103.00 323.00 C 104.53 317.20 102.34 309.40 103.00 303.00 C 103.66 296.60 102.69 288.63 103.00 282.00 C 103.31 275.37 102.87 268.75 103.00 262.00 C 103.13 255.25 102.94 247.80 103.00 241.00 C 103.06 234.20 102.98 227.82 103.00 221.00 C 103.02 214.18 103.01 206.82 103.00 200.00 C 102.99 193.18 103.05 186.80 103.00 180.00 C 102.95 173.20 103.12 165.75 103.00 159.00 C 102.88 152.25 103.29 145.62 103.00 139.00 C 102.71 132.38 103.61 124.37 103.00 118.00 C 102.39 111.63 104.41 103.75 103.00 98.00 C 101.59 92.25 106.16 82.51 103.00 78.00
C 99.00 78.00 95.00 78.00 91.00 78.00
C 91.00 166.67 91.00 255.33 91.00 344.00 Z"/>
</g>
<g fill="None" fill-opacity="0.0" stroke="#C82726" stroke-opacity="1.00" stroke-width="0.3"><path d="
M 409.00 344.00 
C 411.67 344.00 414.33 344.00 417.00 344.00
C 417.00 255.33 417.00 166.67 417.00 78.00
C 414.33 78.00 411.67 78.00 409.00 78.00
C 405.76 82.63 410.53 93.20 409.00 99.00 C 407.47 104.80 409.66 112.60 409.00 119.00 C 408.34 125.40 409.31 133.37 409.00 140.00 C 408.69 146.63 409.13 153.25 409.00 160.00 C 408.87 166.75 409.06 174.20 409.00 181.00 C 408.94 187.80 409.02 194.18 409.00 201.00 C 408.98 207.82 408.99 215.18 409.00 222.00 C 409.01 228.82 408.95 235.20 409.00 242.00 C 409.05 248.80 408.88 256.25 409.00 263.00 C 409.12 269.75 408.71 276.38 409.00 283.00 C 409.29 289.62 408.39 297.63 409.00 304.00 C 409.61 310.37 407.59 318.25 409.00 324.00 C 410.41 329.75 405.84 339.49 409.00 344.00 Z"/>
</g>
<g fill="None" fill-opacity="0.0" stroke="#DF3131" stroke-opacity="1.00" stroke-width="0.3"><path d="
M 417.00 344.00 
C 421.00 344.00 425.00 344.00 429.00 344.00
C 429.00 255.33 429.00 166.67 429.00 78.00
C 425.00 78.00 421.00 78.00 417.00 78.00
C 417.00 166.67 417.00 255.33 417.00 344.00 Z"/>
</g>
<g fill="None" fill-opacity="0.0" stroke="#701919" stroke-opacity="1.00" stroke-width="0.3"><path d="
M 417.00 344.00 
C 414.33 344.00 411.67 344.00 409.00 344.00
C 415.01 346.32 423.17 344.34 430.00 345.00
C 428.45 300.60 432.06 255.32 430.00 211.00 C 427.94 166.68 433.97 122.10 430.00 78.00
C 430.00 78.00 429.50 78.00 429.00 78.00
C 429.00 166.67 429.00 255.33 429.00 344.00
C 425.00 344.00 421.00 344.00 417.00 344.00 Z"/>
</g>
<g fill="None" fill-opacity="0.0" stroke="#000000" stroke-opacity="0.07" stroke-width="0.3"><path d="
M 74.00 177.00 
C 74.63 175.62 74.61 168.40 74.00 167.00
C 61.67 162.26 72.57 143.90 66.00 137.00
C 58.64 154.45 45.37 163.91 48.00 185.00 C 50.63 206.09 46.03 229.68 48.00 251.00
C 54.67 251.00 61.33 251.00 68.00 251.00
C 68.16 242.68 67.79 232.10 68.00 224.00 C 68.21 215.90 67.59 204.27 68.00 197.00 C 68.41 189.73 65.00 178.27 74.00 177.00 Z"/>
</g>
<g fill="None" fill-opacity="0.0" stroke="#000000" stroke-opacity="0.03" stroke-width="0.3"><path d="
M 137.00 251.00 
C 138.57 229.71 134.91 204.94 137.00 184.00 C 139.09 163.06 128.00 152.86 118.00 137.00
C 118.00 175.00 118.00 213.00 118.00 251.00
C 124.33 251.00 130.67 251.00 137.00 251.00 Z"/>
</g>
<g fill="None" fill-opacity="0.0" stroke="#000000" stroke-opacity="0.03" stroke-width="0.3"><path d="
M 394.00 137.00 
C 383.77 152.79 372.70 164.08 375.00 185.00 C 377.30 205.92 373.28 229.81 375.00 251.00
C 381.33 251.00 387.67 251.00 394.00 251.00
C 394.00 213.00 394.00 175.00 394.00 137.00 Z"/>
</g>
<g fill="None" fill-opacity="0.0" stroke="#000000" stroke-opacity="0.08" stroke-width="0.3"><path d="
M 446.00 137.00 
C 441.93 146.87 444.55 161.55 444.00 174.00 C 443.45 186.45 444.29 200.39 444.00 213.00 C 443.71 225.61 444.22 238.38 444.00 251.00
C 450.67 251.00 457.33 251.00 464.00 251.00
C 465.97 229.69 461.37 206.08 464.00 185.00 C 466.63 163.92 453.35 154.43 446.00 137.00 Z"/>
</g>
<g fill="None" fill-opacity="0.0" stroke="#000000" stroke-opacity="0.03" stroke-width="0.3"><path d="
M 0.00 194.00 
L 0.00 257.00
C 6.14 245.62 22.99 253.18 34.00 251.00
C 34.00 228.00 34.00 205.00 34.00 182.00
C 23.91 187.22 9.53 209.09 0.00 194.00 Z"/>
</g>
<g fill="None" fill-opacity="0.0" stroke="#000000" stroke-opacity="0.02" stroke-width="0.3"><path d="
M 174.00 198.00 
C 165.80 194.42 159.50 187.13 152.00 182.00
C 152.00 205.00 152.00 228.00 152.00 251.00
C 159.33 251.00 166.67 251.00 174.00 251.00
C 174.00 233.33 174.00 215.67 174.00 198.00 Z"/>
</g>
<g fill="None" fill-opacity="0.0" stroke="#000000" stroke-opacity="0.02" stroke-width="0.3"><path d="
M 360.00 182.00 
C 352.55 187.09 346.19 194.42 338.00 198.00
C 338.00 215.67 338.00 233.33 338.00 251.00
C 345.33 251.00 352.67 251.00 360.00 251.00
C 360.00 228.00 360.00 205.00 360.00 182.00 Z"/>
</g>
<g fill="None" fill-opacity="0.0" stroke="#000000" stroke-opacity="0.03" stroke-width="0.3"><path d="
M 512.00 257.00 
L 512.00 194.00
C 502.45 209.13 488.19 187.19 478.00 182.00
C 478.00 205.00 478.00 228.00 478.00 251.00
C 488.99 253.20 505.82 245.60 512.00 257.00 Z"/>
</g>
<g fill="None" fill-opacity="0.0" stroke="#661313" stroke-opacity="1.00" stroke-width="0.3"><path d="
M 103.00 344.00 
C 99.00 344.00 95.00 344.00 91.00 344.00
C 88.33 344.00 85.67 344.00 83.00 344.00
C 82.34 326.25 83.88 307.66 83.00 290.00 C 82.12 272.34 84.68 253.35 83.00 236.00 C 81.32 218.65 87.06 199.02 82.00 183.00
C 82.00 237.00 82.00 291.00 82.00 345.00
C 86.58 342.78 99.92 348.40 103.00 344.00 Z"/>
</g>
<g fill="None" fill-opacity="0.0" stroke="#000000" stroke-opacity="0.06" stroke-width="0.3"><path d="
M 212.00 216.00 
C 203.99 213.92 196.47 210.64 189.00 207.00
C 189.00 221.67 189.00 236.33 189.00 251.00
C 196.67 251.00 204.33 251.00 212.00 251.00
C 212.00 239.33 212.00 227.67 212.00 216.00 Z"/>
</g>
<g fill="None" fill-opacity="0.0" stroke="#000000" stroke-opacity="0.06" stroke-width="0.3"><path d="
M 323.00 207.00 
C 315.55 210.63 307.98 213.94 300.00 216.00
C 300.00 227.67 300.00 239.33 300.00 251.00
C 307.67 251.00 315.33 251.00 323.00 251.00
C 323.00 236.33 323.00 221.67 323.00 207.00 Z"/>
</g>
<g fill="None" fill-opacity="0.0" stroke="#000000" stroke-opacity="0.07" stroke-width="0.3"><path d="
M 249.00 251.00 
C 246.86 243.90 251.89 230.55 248.92 224.08 C 245.94 217.61 231.21 223.64 226.00 220.00
C 226.00 230.33 226.00 240.67 226.00 251.00
C 233.67 251.00 241.33 251.00 249.00 251.00 Z"/>
</g>
<g fill="None" fill-opacity="0.0" stroke="#000000" stroke-opacity="0.07" stroke-width="0.3"><path d="
M 286.00 220.00 
C 280.88 223.66 266.06 217.61 263.00 224.00 C 259.94 230.39 265.29 243.96 263.00 251.00
C 270.67 251.00 278.33 251.00 286.00 251.00
C 286.00 240.67 286.00 230.33 286.00 220.00 Z"/>
</g>
<g fill="None" fill-opacity="0.0" stroke="#000000" stroke-opacity="0.06" stroke-width="0.3"><path d="
M 0.00 287.00 
C 1.62 284.46 3.90 282.63 7.00 282.00
C 7.10 281.98 7.00 281.00 7.00 281.00
C 7.00 276.07 6.56 270.91 7.00 266.00
C 3.68 264.80 1.22 261.97 0.00 259.00
L 0.00 287.00 Z"/>
</g>
<g fill="None" fill-opacity="0.0" stroke="#000000" stroke-opacity="0.06" stroke-width="0.3"><path d="
M 505.00 266.00 
C 505.44 270.91 504.99 276.07 505.00 281.00
C 505.00 281.50 505.00 282.00 505.00 282.00
C 508.06 282.62 510.43 284.39 512.00 287.00
L 512.00 259.00
C 510.70 261.92 508.43 264.76 505.00 266.00 Z"/>
</g>
<g fill="None" fill-opacity="0.0" stroke="#E03232" stroke-opacity="0.40" stroke-width="0.3"><path d="
M 7.00 281.00 
C 7.25 280.75 8.00 281.00 8.00 281.00
C 8.43 276.27 8.43 270.73 8.00 266.00
C 8.00 266.00 7.44 266.16 7.00 266.00
C 6.56 270.91 7.00 276.07 7.00 281.00 Z"/>
</g>
<g fill="None" fill-opacity="0.0" stroke="#DF3231" stroke-opacity="1.00" stroke-width="0.3"><path d="
M 8.00 281.00 
C 27.67 280.99 47.33 281.01 67.00 281.00
C 67.00 276.00 67.00 271.00 67.00 266.00
C 47.33 266.00 27.67 266.00 8.00 266.00
C 8.43 270.73 8.43 276.27 8.00 281.00 Z"/>
</g>
<g fill="None" fill-opacity="0.0" stroke="#DF3131" stroke-opacity="1.00" stroke-width="0.3"><path d="
M 119.00 281.00 
C 123.70 284.29 134.04 279.52 140.00 281.00 C 145.96 282.48 154.47 280.33 161.00 281.00 C 167.53 281.67 175.21 280.70 182.00 281.00 C 188.79 281.30 196.10 280.87 203.00 281.00 C 209.90 281.13 217.05 280.94 224.00 281.00 C 230.95 281.06 238.03 280.99 245.00 281.00 C 251.97 281.01 259.03 281.02 266.00 281.00 C 272.97 280.98 280.04 281.06 287.00 281.00 C 293.96 280.94 301.09 281.15 308.00 281.00 C 314.91 280.85 322.20 281.33 329.00 281.00 C 335.80 280.67 343.44 281.72 350.00 281.00 C 356.56 280.28 364.98 282.61 371.00 281.00 C 377.02 279.39 388.17 284.38 393.00 281.00
C 395.31 276.99 393.35 270.83 394.00 266.00
C 302.00 266.00 210.00 266.00 118.00 266.00
C 119.30 270.15 115.84 277.84 119.00 281.00 Z"/>
</g>
<g fill="None" fill-opacity="0.0" stroke="#DF3231" stroke-opacity="1.00" stroke-width="0.3"><path d="
M 445.00 281.00 
C 464.67 281.00 484.33 281.00 504.00 281.00
C 503.57 276.27 503.57 270.73 504.00 266.00
C 484.33 266.00 464.67 266.00 445.00 266.00
C 446.76 269.77 442.65 277.64 445.00 281.00 Z"/>
</g>
<g fill="None" fill-opacity="0.0" stroke="#E03232" stroke-opacity="0.40" stroke-width="0.3"><path d="
M 504.00 281.00 
C 504.50 281.00 505.00 281.00 505.00 281.00
C 504.99 276.07 505.44 270.91 505.00 266.00
C 505.00 266.00 504.50 266.00 504.00 266.00
C 503.57 270.73 503.57 276.27 504.00 281.00 Z"/>
</g>
<g fill="None" fill-opacity="0.0" stroke="#681616" stroke-opacity="1.00" stroke-width="0.3"><path d="
M 7.00 282.00 
C 13.19 282.56 22.00 282.10 28.00 282.00 C 34.00 281.90 42.83 282.94 48.00 282.00 C 53.17 281.06 64.28 284.88 67.00 281.00
C 47.33 281.01 27.67 280.99 8.00 281.00
C 8.00 281.00 7.25 280.75 7.00 281.00
C 7.00 281.00 7.10 281.98 7.00 282.00 Z"/>
</g>
<g fill="None" fill-opacity="0.0" stroke="#681717" stroke-opacity="1.00" stroke-width="0.3"><path d="
M 393.00 281.00 
C 388.17 284.38 377.02 279.39 371.00 281.00 C 364.98 282.61 356.56 280.28 350.00 281.00 C 343.44 281.72 335.80 280.67 329.00 281.00 C 322.20 281.33 314.91 280.85 308.00 281.00 C 301.09 281.15 293.96 280.94 287.00 281.00 C 280.04 281.06 272.97 280.98 266.00 281.00 C 259.03 281.02 251.97 281.01 245.00 281.00 C 238.03 280.99 230.95 281.06 224.00 281.00 C 217.05 280.94 209.90 281.13 203.00 281.00 C 196.10 280.87 188.79 281.30 182.00 281.00 C 175.21 280.70 167.53 281.67 161.00 281.00 C 154.47 280.33 145.96 282.48 140.00 281.00 C 134.04 279.52 123.70 284.29 119.00 281.00
C 124.11 286.11 138.32 280.35 146.00 282.00 C 153.68 283.65 165.52 281.23 174.00 282.00 C 182.48 282.77 192.14 281.68 201.00 282.00 C 209.86 282.32 219.98 281.87 229.00 282.00 C 238.02 282.13 246.92 282.00 256.00 282.00 C 265.08 282.00 274.93 282.11 284.00 282.00 C 293.07 281.89 303.12 282.30 312.00 282.00 C 320.88 281.70 330.53 282.72 339.00 282.00 C 347.47 281.28 359.35 283.55 367.00 282.00 C 374.65 280.45 387.95 286.05 393.00 281.00 Z"/>
</g>
<g fill="None" fill-opacity="0.0" stroke="#681616" stroke-opacity="1.00" stroke-width="0.3"><path d="
M 505.00 282.00 
C 505.00 282.00 505.00 281.50 505.00 281.00
C 505.00 281.00 504.50 281.00 504.00 281.00
C 484.33 281.00 464.67 281.00 445.00 281.00
C 447.76 284.94 459.87 280.94 465.00 282.00 C 470.13 283.06 479.17 281.81 485.00 282.00 C 490.83 282.19 499.02 282.54 505.00 282.00 Z"/>
</g>
<g fill="None" fill-opacity="0.0" stroke="#000000" stroke-opacity="0.02" stroke-width="0.3"><path d="
M 0.00 413.00 
C 7.99 405.29 22.95 407.45 32.23 400.23 C 41.51 393.01 52.62 388.34 64.00 387.00
C 64.30 386.42 64.18 383.64 64.00 383.00
C 55.69 379.21 58.54 369.52 58.00 362.00 C 57.46 354.48 57.22 342.98 68.00 345.00
C 68.00 328.67 68.00 312.33 68.00 296.00
C 56.53 295.28 42.18 296.96 31.00 296.00 C 19.82 295.04 5.92 300.31 0.00 290.00
L 0.00 413.00 Z"/>
</g>
<g fill="None" fill-opacity="0.0" stroke="#000000" stroke-opacity="0.02" stroke-width="0.3"><path d="
M 448.00 383.00 
C 447.82 383.64 447.70 386.42 448.00 387.00
C 459.39 388.34 470.49 392.95 479.70 400.30 C 488.90 407.66 504.14 405.10 512.00 413.00
L 512.00 290.00
C 506.12 300.29 492.19 295.05 481.00 296.00 C 469.81 296.95 455.47 295.29 444.00 296.00
C 444.00 312.33 444.00 328.67 444.00 345.00
C 459.11 343.27 452.39 362.22 454.00 371.00 C 455.61 379.78 449.61 377.24 448.00 383.00 Z"/>
</g>
<g fill="None" fill-opacity="0.0" stroke="#000000" stroke-opacity="0.02" stroke-width="0.3"><path d="
M 121.00 396.00 
C 122.14 398.60 119.48 403.65 121.00 406.00
C 129.83 408.57 141.60 408.32 150.07 404.07 C 158.55 399.83 163.55 394.72 172.23 391.23 C 180.91 387.73 194.59 386.87 204.00 388.00 C 213.41 389.13 220.95 393.18 228.25 398.75 C 235.54 404.33 245.83 405.84 254.01 407.99 C 262.19 410.15 276.65 398.63 282.00 407.00
C 284.56 407.04 286.44 403.18 289.00 403.00
C 283.53 390.02 309.01 387.54 319.00 388.00 C 328.99 388.46 345.53 391.48 354.25 399.75 C 362.97 408.03 380.38 409.09 391.00 406.00
C 392.52 403.65 389.86 398.60 391.00 396.00
C 379.98 393.21 384.54 377.75 384.00 369.00 C 383.46 360.25 381.07 343.68 394.00 345.00
C 394.00 328.67 394.00 312.33 394.00 296.00
C 302.00 296.00 210.00 296.00 118.00 296.00
C 118.00 312.33 118.00 328.67 118.00 345.00
C 130.89 342.91 128.61 361.37 128.00 369.00 C 127.39 376.63 132.15 395.29 121.00 396.00 Z"/>
</g>
<g fill="None" fill-opacity="0.0" stroke="#5C5C5C" stroke-opacity="1.00" stroke-width="0.3"><path d="
M 72.00 376.00 
C 73.48 371.33 72.97 365.36 73.00 360.00
C 69.96 362.13 72.65 372.40 72.00 376.00 Z"/>
</g>
<g fill="None" fill-opacity="0.0" stroke="#D2D2D0" stroke-opacity="1.00" stroke-width="0.3"><path d="
M 72.00 376.00 
C 70.45 380.91 65.37 380.00 64.00 383.00
C 64.18 383.64 64.30 386.42 64.00 387.00
C 87.73 384.20 100.64 400.07 121.00 406.00
C 119.48 403.65 122.14 398.60 121.00 396.00
C 106.09 392.55 115.75 371.29 113.00 360.00
C 107.19 361.23 98.52 358.37 93.00 360.00 C 87.48 361.63 77.47 356.87 73.00 360.00
C 72.97 365.36 73.48 371.33 72.00 376.00 Z"/>
</g>
<g fill="None" fill-opacity="0.0" stroke="#CFCFCD" stroke-opacity="1.00" stroke-width="0.3"><path d="
M 391.00 396.00 
C 389.86 398.60 392.52 403.65 391.00 406.00
C 411.25 400.10 424.37 384.22 448.00 387.00
C 447.70 386.42 447.82 383.64 448.00 383.00
C 446.63 380.02 441.54 380.88 440.00 376.00
C 438.53 371.33 439.03 365.36 439.00 360.00
C 425.67 360.00 412.33 360.00 399.00 360.00
C 396.47 367.93 405.61 396.93 391.00 396.00 Z"/>
</g>
<g fill="None" fill-opacity="0.0" stroke="#676766" stroke-opacity="1.00" stroke-width="0.3"><path d="
M 440.00 376.00 
C 439.36 372.45 442.03 362.12 439.00 360.00
C 439.03 365.36 438.53 371.33 440.00 376.00 Z"/>
</g>
<g fill="None" fill-opacity="0.0" stroke="#000000" stroke-opacity="1.00" stroke-width="0.3"><path d="
M 0.00 413.00 
L 0.00 416.00
C 1.04 418.30 4.20 422.56 7.00 423.00
C 17.61 424.67 29.72 418.93 38.70 413.70 C 47.67 408.46 56.72 402.01 68.01 402.01 C 79.30 402.00 90.21 405.73 99.23 412.77 C 108.25 419.81 119.48 421.72 131.00 422.00 C 142.52 422.28 155.10 419.73 164.08 413.08 C 173.06 406.44 183.10 401.74 194.00 402.00 C 204.90 402.26 216.58 406.34 224.70 413.31 C 232.81 420.27 248.07 421.38 257.00 422.00 C 265.93 422.62 289.79 419.20 282.00 407.00
C 276.65 398.63 262.19 410.15 254.01 407.99 C 245.83 405.84 235.54 404.33 228.25 398.75 C 220.95 393.18 213.41 389.13 204.00 388.00 C 194.59 386.87 180.91 387.73 172.23 391.23 C 163.55 394.72 158.55 399.83 150.07 404.07 C 141.60 408.32 129.83 408.57 121.00 406.00
C 100.64 400.07 87.73 384.20 64.00 387.00
C 52.62 388.34 41.51 393.01 32.23 400.23 C 22.95 407.45 7.99 405.29 0.00 413.00 Z"/>
</g>
<g fill="None" fill-opacity="0.0" stroke="#000000" stroke-opacity="1.00" stroke-width="0.3"><path d="
M 391.00 406.00 
C 380.38 409.09 362.97 408.03 354.25 399.75 C 345.53 391.48 328.99 388.46 319.00 388.00 C 309.01 387.54 283.53 390.02 289.00 403.00
C 293.56 413.83 310.67 399.30 320.00 402.00 C 329.33 404.70 340.87 406.35 349.23 413.77 C 357.59 421.19 370.84 421.83 382.00 422.00 C 393.16 422.17 404.43 419.00 413.25 412.25 C 422.06 405.49 432.92 402.10 444.00 402.00 C 455.08 401.90 464.37 408.53 473.23 413.77 C 482.09 419.01 494.48 424.66 505.00 423.00
C 507.98 422.53 510.84 418.23 512.00 416.00
L 512.00 413.00
C 504.14 405.10 488.90 407.66 479.70 400.30 C 470.49 392.95 459.39 388.34 448.00 387.00
C 424.37 384.22 411.25 400.10 391.00 406.00 Z"/>
</g>
<g fill="None" fill-opacity="0.0" stroke="#405E6F" stroke-opacity="0.98" stroke-width="0.3"><path d="
M 7.00 423.00 
C 10.27 430.59 4.54 442.06 7.00 450.00
C 29.53 452.69 43.51 430.63 65.00 430.00
C 69.04 429.34 72.99 429.18 77.00 430.00
C 97.60 431.81 113.40 453.82 136.00 450.00 C 158.60 446.18 172.50 429.18 196.00 430.00 C 219.50 430.82 232.17 450.06 256.00 450.00 C 279.83 449.94 292.43 430.95 316.00 430.00 C 339.57 429.05 353.23 446.45 376.01 449.99 C 398.79 453.53 414.96 431.67 436.00 430.00
C 439.78 429.27 443.31 429.40 447.00 430.00
C 468.44 431.16 482.47 452.26 505.00 450.00
C 505.00 441.00 505.00 432.00 505.00 423.00
C 494.48 424.66 482.09 419.01 473.23 413.77 C 464.37 408.53 455.08 401.90 444.00 402.00 C 432.92 402.10 422.06 405.49 413.25 412.25 C 404.43 419.00 393.16 422.17 382.00 422.00 C 370.84 421.83 357.59 421.19 349.23 413.77 C 340.87 406.35 329.33 404.70 320.00 402.00 C 310.67 399.30 293.56 413.83 289.00 403.00
C 286.44 403.18 284.56 407.04 282.00 407.00
C 289.79 419.20 265.93 422.62 257.00 422.00 C 248.07 421.38 232.81 420.27 224.70 413.31 C 216.58 406.34 204.90 402.26 194.00 402.00 C 183.10 401.74 173.06 406.44 164.08 413.08 C 155.10 419.73 142.52 422.28 131.00 422.00 C 119.48 421.72 108.25 419.81 99.23 412.77 C 90.21 405.73 79.30 402.00 68.01 402.01 C 56.72 402.01 47.67 408.46 38.70 413.70 C 29.72 418.93 17.61 424.67 7.00 423.00 Z"/>
</g>
<g fill="None" fill-opacity="0.0" stroke="#000000" stroke-opacity="0.00" stroke-width="0.3"><path d="
M 0.00 512.00 
L 512.00 512.00
L 512.00 416.00
C 510.84 418.23 507.98 422.53 505.00 423.00
C 505.00 432.00 505.00 441.00 505.00 450.00
C 482.47 452.26 468.44 431.16 447.00 430.00
C 443.44 429.81 439.55 429.72 436.00 430.00
C 414.96 431.67 398.79 453.53 376.01 449.99 C 353.23 446.45 339.57 429.05 316.00 430.00 C 292.43 430.95 279.83 449.94 256.00 450.00 C 232.17 450.06 219.50 430.82 196.00 430.00 C 172.50 429.18 158.60 446.18 136.00 450.00 C 113.40 453.82 97.60 431.81 77.00 430.00
C 73.14 429.66 68.87 429.79 65.00 430.00
C 43.51 430.63 29.53 452.69 7.00 450.00
C 4.54 442.06 10.27 430.59 7.00 423.00
C 4.20 422.56 1.04 418.30 0.00 416.00
L 0.00 512.00 Z"/>
</g>
<g fill="None" fill-opacity="0.0" stroke="#7C8E97" stroke-opacity="0.58" stroke-width="0.3"><path d="
M 65.00 430.00 
C 68.87 429.79 73.14 429.66 77.00 430.00
C 72.99 429.18 69.04 429.34 65.00 430.00 Z"/>
</g>
<g fill="None" fill-opacity="0.0" stroke="#70848F" stroke-opacity="0.45" stroke-width="0.3"><path d="
M 436.00 430.00 
C 439.55 429.72 443.44 429.81 447.00 430.00
C 443.31 429.40 439.78 429.27 436.00 430.00 Z"/>
</g>
<g fill="#000000" fill-opacity="0.00" stroke="None">
<path d="
M 0.00 191.00 
C 5.10 184.46 13.12 180.90 19.25 175.25 C 25.38 169.59 31.66 164.68 36.75 157.75 C 41.85 150.83 46.69 144.68 50.77 136.77 C 54.85 128.86 59.24 120.41 61.32 111.32 C 63.40 102.24 68.48 92.41 67.00 82.00 C 65.52 71.59 71.59 59.05 83.00 63.00 C 94.41 66.95 108.26 57.53 115.75 65.25 C 123.23 72.98 116.44 87.83 120.33 96.67 C 124.22 105.51 124.47 115.01 128.77 123.23 C 133.07 131.44 135.30 139.09 140.77 146.23 C 146.24 153.37 149.91 159.36 156.25 165.75 C 162.58 172.15 168.48 177.20 175.70 182.30 C 182.92 187.41 189.36 191.44 197.69 195.31 C 206.03 199.17 214.26 201.98 223.67 204.33 C 233.08 206.68 245.68 208.23 256.00 208.00 C 266.32 207.77 278.35 207.23 287.67 204.67 C 297.00 202.11 305.31 199.44 313.69 195.69 C 322.08 191.94 328.48 187.79 335.75 182.75 C 343.02 177.70 348.91 172.66 355.25 166.25 C 361.59 159.84 365.21 153.91 370.77 146.77 C 376.33 139.63 378.46 132.16 382.93 123.93 C 387.40 115.69 387.41 106.33 391.33 97.33 C 395.25 88.32 389.18 74.22 395.77 65.77 C 402.36 57.32 416.96 67.00 428.00 63.00 C 439.04 59.00 446.74 70.30 444.99 81.01 C 443.24 91.72 448.41 101.40 450.32 110.68 C 452.24 119.96 457.05 128.01 460.92 136.08 C 464.80 144.15 469.81 150.20 474.92 157.08 C 480.03 163.96 486.57 168.41 492.25 174.75 C 497.93 181.09 507.29 183.86 512.00 191.00
L 512.00 0.00
L 0.00 0.00
L 0.00 191.00 Z"/>
</g>
<g fill="#000000" fill-opacity="1.00" stroke="None">
<path d="
M 0.00 191.00 
L 0.00 194.00
C 9.53 209.09 23.91 187.22 34.00 182.00
C 34.00 205.00 34.00 228.00 34.00 251.00
C 22.99 253.18 6.14 245.62 0.00 257.00
L 0.00 259.00
C 1.22 261.97 3.68 264.80 7.00 266.00
C 7.44 266.16 8.00 266.00 8.00 266.00
C 27.67 266.00 47.33 266.00 67.00 266.00
C 67.00 271.00 67.00 276.00 67.00 281.00
C 64.28 284.88 53.17 281.06 48.00 282.00 C 42.83 282.94 34.00 281.90 28.00 282.00 C 22.00 282.10 13.19 282.56 7.00 282.00
C 3.90 282.63 1.62 284.46 0.00 287.00
L 0.00 290.00
C 5.92 300.31 19.82 295.04 31.00 296.00 C 42.18 296.96 56.53 295.28 68.00 296.00
C 68.00 312.33 68.00 328.67 68.00 345.00
C 57.22 342.98 57.46 354.48 58.00 362.00 C 58.54 369.52 55.69 379.21 64.00 383.00
C 65.37 380.00 70.45 380.91 72.00 376.00
C 72.65 372.40 69.96 362.13 73.00 360.00
C 77.47 356.87 87.48 361.63 93.00 360.00 C 98.52 358.37 107.19 361.23 113.00 360.00
C 115.75 371.29 106.09 392.55 121.00 396.00
C 132.15 395.29 127.39 376.63 128.00 369.00 C 128.61 361.37 130.89 342.91 118.00 345.00
C 118.00 328.67 118.00 312.33 118.00 296.00
C 210.00 296.00 302.00 296.00 394.00 296.00
C 394.00 312.33 394.00 328.67 394.00 345.00
C 381.07 343.68 383.46 360.25 384.00 369.00 C 384.54 377.75 379.98 393.21 391.00 396.00
C 405.61 396.93 396.47 367.93 399.00 360.00
C 412.33 360.00 425.67 360.00 439.00 360.00
C 442.03 362.12 439.36 372.45 440.00 376.00
C 441.54 380.88 446.63 380.02 448.00 383.00
C 449.61 377.24 455.61 379.78 454.00 371.00 C 452.39 362.22 459.11 343.27 444.00 345.00
C 444.00 328.67 444.00 312.33 444.00 296.00
C 455.47 295.29 469.81 296.95 481.00 296.00 C 492.19 295.05 506.12 300.29 512.00 290.00
L 512.00 287.00
C 510.43 284.39 508.06 282.62 505.00 282.00
C 499.02 282.54 490.83 282.19 485.00 282.00 C 479.17 281.81 470.13 283.06 465.00 282.00 C 459.87 280.94 447.76 284.94 445.00 281.00
C 442.65 277.64 446.76 269.77 445.00 266.00
C 464.67 266.00 484.33 266.00 504.00 266.00
C 504.50 266.00 505.00 266.00 505.00 266.00
C 508.43 264.76 510.70 261.92 512.00 259.00
L 512.00 257.00
C 505.82 245.60 488.99 253.20 478.00 251.00
C 478.00 228.00 478.00 205.00 478.00 182.00
C 488.19 187.19 502.45 209.13 512.00 194.00
L 512.00 191.00
C 507.29 183.86 497.93 181.09 492.25 174.75 C 486.57 168.41 480.03 163.96 474.92 157.08 C 469.81 150.20 464.80 144.15 460.92 136.08 C 457.05 128.01 452.24 119.96 450.32 110.68 C 448.41 101.40 443.24 91.72 444.99 81.01 C 446.74 70.30 439.04 59.00 428.00 63.00 C 416.96 67.00 402.36 57.32 395.77 65.77 C 389.18 74.22 395.25 88.32 391.33 97.33 C 387.41 106.33 387.40 115.69 382.93 123.93 C 378.46 132.16 376.33 139.63 370.77 146.77 C 365.21 153.91 361.59 159.84 355.25 166.25 C 348.91 172.66 343.02 177.70 335.75 182.75 C 328.48 187.79 322.08 191.94 313.69 195.69 C 305.31 199.44 297.00 202.11 287.67 204.67 C 278.35 207.23 266.32 207.77 256.00 208.00 C 245.68 208.23 233.08 206.68 223.67 204.33 C 214.26 201.98 206.03 199.17 197.69 195.31 C 189.36 191.44 182.92 187.41 175.70 182.30 C 168.48 177.20 162.58 172.15 156.25 165.75 C 149.91 159.36 146.24 153.37 140.77 146.23 C 135.30 139.09 133.07 131.44 128.77 123.23 C 124.47 115.01 124.22 105.51 120.33 96.67 C 116.44 87.83 123.23 72.98 115.75 65.25 C 108.26 57.53 94.41 66.95 83.00 63.00 C 71.59 59.05 65.52 71.59 67.00 82.00 C 68.48 92.41 63.40 102.24 61.32 111.32 C 59.24 120.41 54.85 128.86 50.77 136.77 C 46.69 144.68 41.85 150.83 36.75 157.75 C 31.66 164.68 25.38 169.59 19.25 175.25 C 13.12 180.90 5.10 184.46 0.00 191.00
M 103.00 78.00 
C 106.16 82.51 101.59 92.25 103.00 98.00 C 104.41 103.75 102.39 111.63 103.00 118.00 C 103.61 124.37 102.71 132.38 103.00 139.00 C 103.29 145.62 102.88 152.25 103.00 159.00 C 103.12 165.75 102.95 173.20 103.00 180.00 C 103.05 186.80 102.99 193.18 103.00 200.00 C 103.01 206.82 103.02 214.18 103.00 221.00 C 102.98 227.82 103.06 234.20 103.00 241.00 C 102.94 247.80 103.13 255.25 103.00 262.00 C 102.87 268.75 103.31 275.37 103.00 282.00 C 102.69 288.63 103.66 296.60 103.00 303.00 C 102.34 309.40 104.53 317.20 103.00 323.00 C 101.47 328.80 106.24 339.37 103.00 344.00
C 99.92 348.40 86.58 342.78 82.00 345.00
C 82.00 291.00 82.00 237.00 82.00 183.00
C 80.78 179.14 78.80 176.32 74.00 177.00
C 65.00 178.27 68.41 189.73 68.00 197.00 C 67.59 204.27 68.21 215.90 68.00 224.00 C 67.79 232.10 68.16 242.68 68.00 251.00
C 61.33 251.00 54.67 251.00 48.00 251.00
C 46.03 229.68 50.63 206.09 48.00 185.00 C 45.37 163.91 58.64 154.45 66.00 137.00
C 72.57 143.90 61.67 162.26 74.00 167.00
C 78.60 167.50 80.95 163.46 82.00 160.00
C 83.10 153.48 81.43 145.51 82.00 139.00 C 82.57 132.49 81.59 124.17 82.00 118.00 C 82.41 111.83 81.48 102.28 82.00 97.00 C 82.52 91.72 80.45 79.94 83.26 77.26 C 86.06 74.58 101.99 76.56 103.00 78.00
M 430.00 78.00 
C 433.97 122.10 427.94 166.68 430.00 211.00 C 432.06 255.32 428.45 300.60 430.00 345.00
C 423.17 344.34 415.01 346.32 409.00 344.00
C 405.84 339.49 410.41 329.75 409.00 324.00 C 407.59 318.25 409.61 310.37 409.00 304.00 C 408.39 297.63 409.29 289.62 409.00 283.00 C 408.71 276.38 409.12 269.75 409.00 263.00 C 408.88 256.25 409.05 248.80 409.00 242.00 C 408.95 235.20 409.01 228.82 409.00 222.00 C 408.99 215.18 408.98 207.82 409.00 201.00 C 409.02 194.18 408.94 187.80 409.00 181.00 C 409.06 174.20 408.87 166.75 409.00 160.00 C 409.13 153.25 408.69 146.63 409.00 140.00 C 409.31 133.37 408.34 125.40 409.00 119.00 C 409.66 112.60 407.47 104.80 409.00 99.00 C 410.53 93.20 405.76 82.63 409.00 78.00
C 410.65 75.64 428.15 76.08 430.00 78.00
M 137.00 251.00 
C 130.67 251.00 124.33 251.00 118.00 251.00
C 118.00 213.00 118.00 175.00 118.00 137.00
C 128.00 152.86 139.09 163.06 137.00 184.00 C 134.91 204.94 138.57 229.71 137.00 251.00
M 394.00 137.00 
C 394.00 175.00 394.00 213.00 394.00 251.00
C 387.67 251.00 381.33 251.00 375.00 251.00
C 373.28 229.81 377.30 205.92 375.00 185.00 C 372.70 164.08 383.77 152.79 394.00 137.00
M 446.00 137.00 
C 453.35 154.43 466.63 163.92 464.00 185.00 C 461.37 206.08 465.97 229.69 464.00 251.00
C 457.33 251.00 450.67 251.00 444.00 251.00
C 444.22 238.38 443.71 225.61 444.00 213.00 C 444.29 200.39 443.45 186.45 444.00 174.00 C 444.55 161.55 441.93 146.87 446.00 137.00
M 174.00 198.00 
C 174.00 215.67 174.00 233.33 174.00 251.00
C 166.67 251.00 159.33 251.00 152.00 251.00
C 152.00 228.00 152.00 205.00 152.00 182.00
C 159.50 187.13 165.80 194.42 174.00 198.00
M 360.00 182.00 
C 360.00 205.00 360.00 228.00 360.00 251.00
C 352.67 251.00 345.33 251.00 338.00 251.00
C 338.00 233.33 338.00 215.67 338.00 198.00
C 346.19 194.42 352.55 187.09 360.00 182.00
M 212.00 216.00 
C 212.00 227.67 212.00 239.33 212.00 251.00
C 204.33 251.00 196.67 251.00 189.00 251.00
C 189.00 236.33 189.00 221.67 189.00 207.00
C 196.47 210.64 203.99 213.92 212.00 216.00
M 323.00 207.00 
C 323.00 221.67 323.00 236.33 323.00 251.00
C 315.33 251.00 307.67 251.00 300.00 251.00
C 300.00 239.33 300.00 227.67 300.00 216.00
C 307.98 213.94 315.55 210.63 323.00 207.00
M 249.00 251.00 
C 241.33 251.00 233.67 251.00 226.00 251.00
C 226.00 240.67 226.00 230.33 226.00 220.00
C 231.21 223.64 245.94 217.61 248.92 224.08 C 251.89 230.55 246.86 243.90 249.00 251.00
M 286.00 220.00 
C 286.00 230.33 286.00 240.67 286.00 251.00
C 278.33 251.00 270.67 251.00 263.00 251.00
C 265.29 243.96 259.94 230.39 263.00 224.00 C 266.06 217.61 280.88 223.66 286.00 220.00
M 393.00 281.00 
C 387.95 286.05 374.65 280.45 367.00 282.00 C 359.35 283.55 347.47 281.28 339.00 282.00 C 330.53 282.72 320.88 281.70 312.00 282.00 C 303.12 282.30 293.07 281.89 284.00 282.00 C 274.93 282.11 265.08 282.00 256.00 282.00 C 246.92 282.00 238.02 282.13 229.00 282.00 C 219.98 281.87 209.86 282.32 201.00 282.00 C 192.14 281.68 182.48 282.77 174.00 282.00 C 165.52 281.23 153.68 283.65 146.00 282.00 C 138.32 280.35 124.11 286.11 119.00 281.00
C 115.84 277.84 119.30 270.15 118.00 266.00
C 210.00 266.00 302.00 266.00 394.00 266.00
C 393.35 270.83 395.31 276.99 393.00 281.00 Z"/>
</g>
<g fill="#5B1111" fill-opacity="1.00" stroke="None">
<path d="
M 82.00 160.00 
C 85.72 147.75 81.85 133.35 83.00 120.00 C 84.15 106.65 82.13 91.51 83.00 78.00
C 85.67 78.00 88.33 78.00 91.00 78.00
C 95.00 78.00 99.00 78.00 103.00 78.00
C 101.99 76.56 86.06 74.58 83.26 77.26 C 80.45 79.94 82.52 91.72 82.00 97.00 C 81.48 102.28 82.41 111.83 82.00 118.00 C 81.59 124.17 82.57 132.49 82.00 139.00 C 81.43 145.51 83.10 153.48 82.00 160.00 Z"/>
</g>
<g fill="#380B0B" fill-opacity="1.00" stroke="None">
<path d="
M 409.00 78.00 
C 411.67 78.00 414.33 78.00 417.00 78.00
C 421.00 78.00 425.00 78.00 429.00 78.00
C 429.50 78.00 430.00 78.00 430.00 78.00
C 428.15 76.08 410.65 75.64 409.00 78.00 Z"/>
</g>
<g fill="#C92727" fill-opacity="1.00" stroke="None">
<path d="
M 82.00 160.00 
C 80.95 163.46 78.60 167.50 74.00 167.00
C 74.61 168.40 74.63 175.62 74.00 177.00
C 78.80 176.32 80.78 179.14 82.00 183.00
C 87.06 199.02 81.32 218.65 83.00 236.00 C 84.68 253.35 82.12 272.34 83.00 290.00 C 83.88 307.66 82.34 326.25 83.00 344.00
C 85.67 344.00 88.33 344.00 91.00 344.00
C 91.00 255.33 91.00 166.67 91.00 78.00
C 88.33 78.00 85.67 78.00 83.00 78.00
C 82.13 91.51 84.15 106.65 83.00 120.00 C 81.85 133.35 85.72 147.75 82.00 160.00 Z"/>
</g>
<g fill="#DF3232" fill-opacity="1.00" stroke="None">
<path d="
M 91.00 344.00 
C 95.00 344.00 99.00 344.00 103.00 344.00
C 106.24 339.37 101.47 328.80 103.00 323.00 C 104.53 317.20 102.34 309.40 103.00 303.00 C 103.66 296.60 102.69 288.63 103.00 282.00 C 103.31 275.37 102.87 268.75 103.00 262.00 C 103.13 255.25 102.94 247.80 103.00 241.00 C 103.06 234.20 102.98 227.82 103.00 221.00 C 103.02 214.18 103.01 206.82 103.00 200.00 C 102.99 193.18 103.05 186.80 103.00 180.00 C 102.95 173.20 103.12 165.75 103.00 159.00 C 102.88 152.25 103.29 145.62 103.00 139.00 C 102.71 132.38 103.61 124.37 103.00 118.00 C 102.39 111.63 104.41 103.75 103.00 98.00 C 101.59 92.25 106.16 82.51 103.00 78.00
C 99.00 78.00 95.00 78.00 91.00 78.00
C 91.00 166.67 91.00 255.33 91.00 344.00 Z"/>
</g>
<g fill="#C82726" fill-opacity="1.00" stroke="None">
<path d="
M 409.00 344.00 
C 411.67 344.00 414.33 344.00 417.00 344.00
C 417.00 255.33 417.00 166.67 417.00 78.00
C 414.33 78.00 411.67 78.00 409.00 78.00
C 405.76 82.63 410.53 93.20 409.00 99.00 C 407.47 104.80 409.66 112.60 409.00 119.00 C 408.34 125.40 409.31 133.37 409.00 140.00 C 408.69 146.63 409.13 153.25 409.00 160.00 C 408.87 166.75 409.06 174.20 409.00 181.00 C 408.94 187.80 409.02 194.18 409.00 201.00 C 408.98 207.82 408.99 215.18 409.00 222.00 C 409.01 228.82 408.95 235.20 409.00 242.00 C 409.05 248.80 408.88 256.25 409.00 263.00 C 409.12 269.75 408.71 276.38 409.00 283.00 C 409.29 289.62 408.39 297.63 409.00 304.00 C 409.61 310.37 407.59 318.25 409.00 324.00 C 410.41 329.75 405.84 339.49 409.00 344.00 Z"/>
</g>
<g fill="#DF3131" fill-opacity="1.00" stroke="None">
<path d="
M 417.00 344.00 
C 421.00 344.00 425.00 344.00 429.00 344.00
C 429.00 255.33 429.00 166.67 429.00 78.00
C 425.00 78.00 421.00 78.00 417.00 78.00
C 417.00 166.67 417.00 255.33 417.00 344.00 Z"/>
</g>
<g fill="#701919" fill-opacity="1.00" stroke="None">
<path d="
M 417.00 344.00 
C 414.33 344.00 411.67 344.00 409.00 344.00
C 415.01 346.32 423.17 344.34 430.00 345.00
C 428.45 300.60 432.06 255.32 430.00 211.00 C 427.94 166.68 433.97 122.10 430.00 78.00
C 430.00 78.00 429.50 78.00 429.00 78.00
C 429.00 166.67 429.00 255.33 429.00 344.00
C 425.00 344.00 421.00 344.00 417.00 344.00 Z"/>
</g>
<g fill="#000000" fill-opacity="0.07" stroke="None">
<path d="
M 74.00 177.00 
C 74.63 175.62 74.61 168.40 74.00 167.00
C 61.67 162.26 72.57 143.90 66.00 137.00
C 58.64 154.45 45.37 163.91 48.00 185.00 C 50.63 206.09 46.03 229.68 48.00 251.00
C 54.67 251.00 61.33 251.00 68.00 251.00
C 68.16 242.68 67.79 232.10 68.00 224.00 C 68.21 215.90 67.59 204.27 68.00 197.00 C 68.41 189.73 65.00 178.27 74.00 177.00 Z"/>
</g>
<g fill="#000000" fill-opacity="0.03" stroke="None">
<path d="
M 137.00 251.00 
C 138.57 229.71 134.91 204.94 137.00 184.00 C 139.09 163.06 128.00 152.86 118.00 137.00
C 118.00 175.00 118.00 213.00 118.00 251.00
C 124.33 251.00 130.67 251.00 137.00 251.00 Z"/>
</g>
<g fill="#000000" fill-opacity="0.03" stroke="None">
<path d="
M 394.00 137.00 
C 383.77 152.79 372.70 164.08 375.00 185.00 C 377.30 205.92 373.28 229.81 375.00 251.00
C 381.33 251.00 387.67 251.00 394.00 251.00
C 394.00 213.00 394.00 175.00 394.00 137.00 Z"/>
</g>
<g fill="#000000" fill-opacity="0.08" stroke="None">
<path d="
M 446.00 137.00 
C 441.93 146.87 444.55 161.55 444.00 174.00 C 443.45 186.45 444.29 200.39 444.00 213.00 C 443.71 225.61 444.22 238.38 444.00 251.00
C 450.67 251.00 457.33 251.00 464.00 251.00
C 465.97 229.69 461.37 206.08 464.00 185.00 C 466.63 163.92 453.35 154.43 446.00 137.00 Z"/>
</g>
<g fill="#000000" fill-opacity="0.03" stroke="None">
<path d="
M 0.00 194.00 
L 0.00 257.00
C 6.14 245.62 22.99 253.18 34.00 251.00
C 34.00 228.00 34.00 205.00 34.00 182.00
C 23.91 187.22 9.53 209.09 0.00 194.00 Z"/>
</g>
<g fill="#000000" fill-opacity="0.02" stroke="None">
<path d="
M 174.00 198.00 
C 165.80 194.42 159.50 187.13 152.00 182.00
C 152.00 205.00 152.00 228.00 152.00 251.00
C 159.33 251.00 166.67 251.00 174.00 251.00
C 174.00 233.33 174.00 215.67 174.00 198.00 Z"/>
</g>
<g fill="#000000" fill-opacity="0.02" stroke="None">
<path d="
M 360.00 182.00 
C 352.55 187.09 346.19 194.42 338.00 198.00
C 338.00 215.67 338.00 233.33 338.00 251.00
C 345.33 251.00 352.67 251.00 360.00 251.00
C 360.00 228.00 360.00 205.00 360.00 182.00 Z"/>
</g>
<g fill="#000000" fill-opacity="0.03" stroke="None">
<path d="
M 512.00 257.00 
L 512.00 194.00
C 502.45 209.13 488.19 187.19 478.00 182.00
C 478.00 205.00 478.00 228.00 478.00 251.00
C 488.99 253.20 505.82 245.60 512.00 257.00 Z"/>
</g>
<g fill="#661313" fill-opacity="1.00" stroke="None">
<path d="
M 103.00 344.00 
C 99.00 344.00 95.00 344.00 91.00 344.00
C 88.33 344.00 85.67 344.00 83.00 344.00
C 82.34 326.25 83.88 307.66 83.00 290.00 C 82.12 272.34 84.68 253.35 83.00 236.00 C 81.32 218.65 87.06 199.02 82.00 183.00
C 82.00 237.00 82.00 291.00 82.00 345.00
C 86.58 342.78 99.92 348.40 103.00 344.00 Z"/>
</g>
<g fill="#000000" fill-opacity="0.06" stroke="None">
<path d="
M 212.00 216.00 
C 203.99 213.92 196.47 210.64 189.00 207.00
C 189.00 221.67 189.00 236.33 189.00 251.00
C 196.67 251.00 204.33 251.00 212.00 251.00
C 212.00 239.33 212.00 227.67 212.00 216.00 Z"/>
</g>
<g fill="#000000" fill-opacity="0.06" stroke="None">
<path d="
M 323.00 207.00 
C 315.55 210.63 307.98 213.94 300.00 216.00
C 300.00 227.67 300.00 239.33 300.00 251.00
C 307.67 251.00 315.33 251.00 323.00 251.00
C 323.00 236.33 323.00 221.67 323.00 207.00 Z"/>
</g>
<g fill="#000000" fill-opacity="0.07" stroke="None">
<path d="
M 249.00 251.00 
C 246.86 243.90 251.89 230.55 248.92 224.08 C 245.94 217.61 231.21 223.64 226.00 220.00
C 226.00 230.33 226.00 240.67 226.00 251.00
C 233.67 251.00 241.33 251.00 249.00 251.00 Z"/>
</g>
<g fill="#000000" fill-opacity="0.07" stroke="None">
<path d="
M 286.00 220.00 
C 280.88 223.66 266.06 217.61 263.00 224.00 C 259.94 230.39 265.29 243.96 263.00 251.00
C 270.67 251.00 278.33 251.00 286.00 251.00
C 286.00 240.67 286.00 230.33 286.00 220.00 Z"/>
</g>
<g fill="#000000" fill-opacity="0.06" stroke="None">
<path d="
M 0.00 287.00 
C 1.62 284.46 3.90 282.63 7.00 282.00
C 7.10 281.98 7.00 281.00 7.00 281.00
C 7.00 276.07 6.56 270.91 7.00 266.00
C 3.68 264.80 1.22 261.97 0.00 259.00
L 0.00 287.00 Z"/>
</g>
<g fill="#000000" fill-opacity="0.06" stroke="None">
<path d="
M 505.00 266.00 
C 505.44 270.91 504.99 276.07 505.00 281.00
C 505.00 281.50 505.00 282.00 505.00 282.00
C 508.06 282.62 510.43 284.39 512.00 287.00
L 512.00 259.00
C 510.70 261.92 508.43 264.76 505.00 266.00 Z"/>
</g>
<g fill="#E03232" fill-opacity="0.40" stroke="None">
<path d="
M 7.00 281.00 
C 7.25 280.75 8.00 281.00 8.00 281.00
C 8.43 276.27 8.43 270.73 8.00 266.00
C 8.00 266.00 7.44 266.16 7.00 266.00
C 6.56 270.91 7.00 276.07 7.00 281.00 Z"/>
</g>
<g fill="#DF3231" fill-opacity="1.00" stroke="None">
<path d="
M 8.00 281.00 
C 27.67 280.99 47.33 281.01 67.00 281.00
C 67.00 276.00 67.00 271.00 67.00 266.00
C 47.33 266.00 27.67 266.00 8.00 266.00
C 8.43 270.73 8.43 276.27 8.00 281.00 Z"/>
</g>
<g fill="#DF3131" fill-opacity="1.00" stroke="None">
<path d="
M 119.00 281.00 
C 123.70 284.29 134.04 279.52 140.00 281.00 C 145.96 282.48 154.47 280.33 161.00 281.00 C 167.53 281.67 175.21 280.70 182.00 281.00 C 188.79 281.30 196.10 280.87 203.00 281.00 C 209.90 281.13 217.05 280.94 224.00 281.00 C 230.95 281.06 238.03 280.99 245.00 281.00 C 251.97 281.01 259.03 281.02 266.00 281.00 C 272.97 280.98 280.04 281.06 287.00 281.00 C 293.96 280.94 301.09 281.15 308.00 281.00 C 314.91 280.85 322.20 281.33 329.00 281.00 C 335.80 280.67 343.44 281.72 350.00 281.00 C 356.56 280.28 364.98 282.61 371.00 281.00 C 377.02 279.39 388.17 284.38 393.00 281.00
C 395.31 276.99 393.35 270.83 394.00 266.00
C 302.00 266.00 210.00 266.00 118.00 266.00
C 119.30 270.15 115.84 277.84 119.00 281.00 Z"/>
</g>
<g fill="#DF3231" fill-opacity="1.00" stroke="None">
<path d="
M 445.00 281.00 
C 464.67 281.00 484.33 281.00 504.00 281.00
C 503.57 276.27 503.57 270.73 504.00 266.00
C 484.33 266.00 464.67 266.00 445.00 266.00
C 446.76 269.77 442.65 277.64 445.00 281.00 Z"/>
</g>
<g fill="#E03232" fill-opacity="0.40" stroke="None">
<path d="
M 504.00 281.00 
C 504.50 281.00 505.00 281.00 505.00 281.00
C 504.99 276.07 505.44 270.91 505.00 266.00
C 505.00 266.00 504.50 266.00 504.00 266.00
C 503.57 270.73 503.57 276.27 504.00 281.00 Z"/>
</g>
<g fill="#681616" fill-opacity="1.00" stroke="None">
<path d="
M 7.00 282.00 
C 13.19 282.56 22.00 282.10 28.00 282.00 C 34.00 281.90 42.83 282.94 48.00 282.00 C 53.17 281.06 64.28 284.88 67.00 281.00
C 47.33 281.01 27.67 280.99 8.00 281.00
C 8.00 281.00 7.25 280.75 7.00 281.00
C 7.00 281.00 7.10 281.98 7.00 282.00 Z"/>
</g>
<g fill="#681717" fill-opacity="1.00" stroke="None">
<path d="
M 393.00 281.00 
C 388.17 284.38 377.02 279.39 371.00 281.00 C 364.98 282.61 356.56 280.28 350.00 281.00 C 343.44 281.72 335.80 280.67 329.00 281.00 C 322.20 281.33 314.91 280.85 308.00 281.00 C 301.09 281.15 293.96 280.94 287.00 281.00 C 280.04 281.06 272.97 280.98 266.00 281.00 C 259.03 281.02 251.97 281.01 245.00 281.00 C 238.03 280.99 230.95 281.06 224.00 281.00 C 217.05 280.94 209.90 281.13 203.00 281.00 C 196.10 280.87 188.79 281.30 182.00 281.00 C 175.21 280.70 167.53 281.67 161.00 281.00 C 154.47 280.33 145.96 282.48 140.00 281.00 C 134.04 279.52 123.70 284.29 119.00 281.00
C 124.11 286.11 138.32 280.35 146.00 282.00 C 153.68 283.65 165.52 281.23 174.00 282.00 C 182.48 282.77 192.14 281.68 201.00 282.00 C 209.86 282.32 219.98 281.87 229.00 282.00 C 238.02 282.13 246.92 282.00 256.00 282.00 C 265.08 282.00 274.93 282.11 284.00 282.00 C 293.07 281.89 303.12 282.30 312.00 282.00 C 320.88 281.70 330.53 282.72 339.00 282.00 C 347.47 281.28 359.35 283.55 367.00 282.00 C 374.65 280.45 387.95 286.05 393.00 281.00 Z"/>
</g>
<g fill="#681616" fill-opacity="1.00" stroke="None">
<path d="
M 505.00 282.00 
C 505.00 282.00 505.00 281.50 505.00 281.00
C 505.00 281.00 504.50 281.00 504.00 281.00
C 484.33 281.00 464.67 281.00 445.00 281.00
C 447.76 284.94 459.87 280.94 465.00 282.00 C 470.13 283.06 479.17 281.81 485.00 282.00 C 490.83 282.19 499.02 282.54 505.00 282.00 Z"/>
</g>
<g fill="#000000" fill-opacity="0.02" stroke="None">
<path d="
M 0.00 413.00 
C 7.99 405.29 22.95 407.45 32.23 400.23 C 41.51 393.01 52.62 388.34 64.00 387.00
C 64.30 386.42 64.18 383.64 64.00 383.00
C 55.69 379.21 58.54 369.52 58.00 362.00 C 57.46 354.48 57.22 342.98 68.00 345.00
C 68.00 328.67 68.00 312.33 68.00 296.00
C 56.53 295.28 42.18 296.96 31.00 296.00 C 19.82 295.04 5.92 300.31 0.00 290.00
L 0.00 413.00 Z"/>
</g>
<g fill="#000000" fill-opacity="0.02" stroke="None">
<path d="
M 448.00 383.00 
C 447.82 383.64 447.70 386.42 448.00 387.00
C 459.39 388.34 470.49 392.95 479.70 400.30 C 488.90 407.66 504.14 405.10 512.00 413.00
L 512.00 290.00
C 506.12 300.29 492.19 295.05 481.00 296.00 C 469.81 296.95 455.47 295.29 444.00 296.00
C 444.00 312.33 444.00 328.67 444.00 345.00
C 459.11 343.27 452.39 362.22 454.00 371.00 C 455.61 379.78 449.61 377.24 448.00 383.00 Z"/>
</g>
<g fill="#000000" fill-opacity="0.02" stroke="None">
<path d="
M 121.00 396.00 
C 122.14 398.60 119.48 403.65 121.00 406.00
C 129.83 408.57 141.60 408.32 150.07 404.07 C 158.55 399.83 163.55 394.72 172.23 391.23 C 180.91 387.73 194.59 386.87 204.00 388.00 C 213.41 389.13 220.95 393.18 228.25 398.75 C 235.54 404.33 245.83 405.84 254.01 407.99 C 262.19 410.15 276.65 398.63 282.00 407.00
C 284.56 407.04 286.44 403.18 289.00 403.00
C 283.53 390.02 309.01 387.54 319.00 388.00 C 328.99 388.46 345.53 391.48 354.25 399.75 C 362.97 408.03 380.38 409.09 391.00 406.00
C 392.52 403.65 389.86 398.60 391.00 396.00
C 379.98 393.21 384.54 377.75 384.00 369.00 C 383.46 360.25 381.07 343.68 394.00 345.00
C 394.00 328.67 394.00 312.33 394.00 296.00
C 302.00 296.00 210.00 296.00 118.00 296.00
C 118.00 312.33 118.00 328.67 118.00 345.00
C 130.89 342.91 128.61 361.37 128.00 369.00 C 127.39 376.63 132.15 395.29 121.00 396.00 Z"/>
</g>
<g fill="#5C5C5C" fill-opacity="1.00" stroke="None">
<path d="
M 72.00 376.00 
C 73.48 371.33 72.97 365.36 73.00 360.00
C 69.96 362.13 72.65 372.40 72.00 376.00 Z"/>
</g>
<g fill="#D2D2D0" fill-opacity="1.00" stroke="None">
<path d="
M 72.00 376.00 
C 70.45 380.91 65.37 380.00 64.00 383.00
C 64.18 383.64 64.30 386.42 64.00 387.00
C 87.73 384.20 100.64 400.07 121.00 406.00
C 119.48 403.65 122.14 398.60 121.00 396.00
C 106.09 392.55 115.75 371.29 113.00 360.00
C 107.19 361.23 98.52 358.37 93.00 360.00 C 87.48 361.63 77.47 356.87 73.00 360.00
C 72.97 365.36 73.48 371.33 72.00 376.00 Z"/>
</g>
<g fill="#CFCFCD" fill-opacity="1.00" stroke="None">
<path d="
M 391.00 396.00 
C 389.86 398.60 392.52 403.65 391.00 406.00
C 411.25 400.10 424.37 384.22 448.00 387.00
C 447.70 386.42 447.82 383.64 448.00 383.00
C 446.63 380.02 441.54 380.88 440.00 376.00
C 438.53 371.33 439.03 365.36 439.00 360.00
C 425.67 360.00 412.33 360.00 399.00 360.00
C 396.47 367.93 405.61 396.93 391.00 396.00 Z"/>
</g>
<g fill="#676766" fill-opacity="1.00" stroke="None">
<path d="
M 440.00 376.00 
C 439.36 372.45 442.03 362.12 439.00 360.00
C 439.03 365.36 438.53 371.33 440.00 376.00 Z"/>
</g>
<g fill="#000000" fill-opacity="1.00" stroke="None">
<path d="
M 0.00 413.00 
L 0.00 416.00
C 1.04 418.30 4.20 422.56 7.00 423.00
C 17.61 424.67 29.72 418.93 38.70 413.70 C 47.67 408.46 56.72 402.01 68.01 402.01 C 79.30 402.00 90.21 405.73 99.23 412.77 C 108.25 419.81 119.48 421.72 131.00 422.00 C 142.52 422.28 155.10 419.73 164.08 413.08 C 173.06 406.44 183.10 401.74 194.00 402.00 C 204.90 402.26 216.58 406.34 224.70 413.31 C 232.81 420.27 248.07 421.38 257.00 422.00 C 265.93 422.62 289.79 419.20 282.00 407.00
C 276.65 398.63 262.19 410.15 254.01 407.99 C 245.83 405.84 235.54 404.33 228.25 398.75 C 220.95 393.18 213.41 389.13 204.00 388.00 C 194.59 386.87 180.91 387.73 172.23 391.23 C 163.55 394.72 158.55 399.83 150.07 404.07 C 141.60 408.32 129.83 408.57 121.00 406.00
C 100.64 400.07 87.73 384.20 64.00 387.00
C 52.62 388.34 41.51 393.01 32.23 400.23 C 22.95 407.45 7.99 405.29 0.00 413.00 Z"/>
</g>
<g fill="#000000" fill-opacity="1.00" stroke="None">
<path d="
M 391.00 406.00 
C 380.38 409.09 362.97 408.03 354.25 399.75 C 345.53 391.48 328.99 388.46 319.00 388.00 C 309.01 387.54 283.53 390.02 289.00 403.00
C 293.56 413.83 310.67 399.30 320.00 402.00 C 329.33 404.70 340.87 406.35 349.23 413.77 C 357.59 421.19 370.84 421.83 382.00 422.00 C 393.16 422.17 404.43 419.00 413.25 412.25 C 422.06 405.49 432.92 402.10 444.00 402.00 C 455.08 401.90 464.37 408.53 473.23 413.77 C 482.09 419.01 494.48 424.66 505.00 423.00
C 507.98 422.53 510.84 418.23 512.00 416.00
L 512.00 413.00
C 504.14 405.10 488.90 407.66 479.70 400.30 C 470.49 392.95 459.39 388.34 448.00 387.00
C 424.37 384.22 411.25 400.10 391.00 406.00 Z"/>
</g>
<g fill="#405E6F" fill-opacity="0.98" stroke="None">
<path d="
M 7.00 423.00 
C 10.27 430.59 4.54 442.06 7.00 450.00
C 29.53 452.69 43.51 430.63 65.00 430.00
C 69.04 429.34 72.99 429.18 77.00 430.00
C 97.60 431.81 113.40 453.82 136.00 450.00 C 158.60 446.18 172.50 429.18 196.00 430.00 C 219.50 430.82 232.17 450.06 256.00 450.00 C 279.83 449.94 292.43 430.95 316.00 430.00 C 339.57 429.05 353.23 446.45 376.01 449.99 C 398.79 453.53 414.96 431.67 436.00 430.00
C 439.78 429.27 443.31 429.40 447.00 430.00
C 468.44 431.16 482.47 452.26 505.00 450.00
C 505.00 441.00 505.00 432.00 505.00 423.00
C 494.48 424.66 482.09 419.01 473.23 413.77 C 464.37 408.53 455.08 401.90 444.00 402.00 C 432.92 402.10 422.06 405.49 413.25 412.25 C 404.43 419.00 393.16 422.17 382.00 422.00 C 370.84 421.83 357.59 421.19 349.23 413.77 C 340.87 406.35 329.33 404.70 320.00 402.00 C 310.67 399.30 293.56 413.83 289.00 403.00
C 286.44 403.18 284.56 407.04 282.00 407.00
C 289.79 419.20 265.93 422.62 257.00 422.00 C 248.07 421.38 232.81 420.27 224.70 413.31 C 216.58 406.34 204.90 402.26 194.00 402.00 C 183.10 401.74 173.06 406.44 164.08 413.08 C 155.10 419.73 142.52 422.28 131.00 422.00 C 119.48 421.72 108.25 419.81 99.23 412.77 C 90.21 405.73 79.30 402.00 68.01 402.01 C 56.72 402.01 47.67 408.46 38.70 413.70 C 29.72 418.93 17.61 424.67 7.00 423.00 Z"/>
</g>
<g fill="#000000" fill-opacity="0.00" stroke="None">
<path d="
M 0.00 512.00 
L 512.00 512.00
L 512.00 416.00
C 510.84 418.23 507.98 422.53 505.00 423.00
C 505.00 432.00 505.00 441.00 505.00 450.00
C 482.47 452.26 468.44 431.16 447.00 430.00
C 443.44 429.81 439.55 429.72 436.00 430.00
C 414.96 431.67 398.79 453.53 376.01 449.99 C 353.23 446.45 339.57 429.05 316.00 430.00 C 292.43 430.95 279.83 449.94 256.00 450.00 C 232.17 450.06 219.50 430.82 196.00 430.00 C 172.50 429.18 158.60 446.18 136.00 450.00 C 113.40 453.82 97.60 431.81 77.00 430.00
C 73.14 429.66 68.87 429.79 65.00 430.00
C 43.51 430.63 29.53 452.69 7.00 450.00
C 4.54 442.06 10.27 430.59 7.00 423.00
C 4.20 422.56 1.04 418.30 0.00 416.00
L 0.00 512.00 Z"/>
</g>
<g fill="#7C8E97" fill-opacity="0.58" stroke="None">
<path d="
M 65.00 430.00 
C 68.87 429.79 73.14 429.66 77.00 430.00
C 72.99 429.18 69.04 429.34 65.00 430.00 Z"/>
</g>
<g fill="#70848F" fill-opacity="0.45" stroke="None">
<path d="
M 436.00 430.00 
C 439.55 429.72 443.44 429.81 447.00 430.00
C 443.31 429.40 439.78 429.27 436.00 430.00 Z"/>
</g>
</svg>