<svg xmlns="http://www.w3.org/2000/svg" xmlns:v="https://svgstorm.com"
viewBox = "0 0 512 512"
width="512"
height="512">
<g fill="None" fill-opacity="0.0" stroke="#000000" stroke-opacity="0.00" stroke-width="0.3"><path d="
M 0.00 512.00 
L 76.00 512.00
C 61.15 504.20 75.93 496.35 85.69 491.70 C 95.46 487.04 104.97 481.52 115.08 476.08 C 125.18 470.64 137.90 463.51 151.00 467.00
C 150.83 444.20 179.40 441.00 194.00 430.00
C 187.48 415.17 179.58 398.19 178.00 382.00 C 176.43 365.80 166.93 373.54 155.00 373.00 C 143.07 372.46 139.97 368.29 143.78 357.78 C 147.59 347.27 149.57 343.08 151.00 333.00 C 152.43 322.91 149.98 311.39 151.99 301.99 C 154.01 292.59 148.77 281.24 160.00 278.00
C 161.00 276.13 161.72 266.15 161.00 264.00
C 159.67 260.01 153.19 256.19 156.00 250.00 C 158.81 243.81 156.92 239.39 158.00 233.00
C 148.98 233.52 121.78 236.20 125.33 223.33 C 128.88 210.46 136.36 205.89 140.31 194.31 C 144.25 182.72 145.45 171.42 149.33 160.33 C 153.21 149.23 155.86 139.15 162.31 129.31 C 168.75 119.46 156.92 111.57 157.36 102.30 C 157.81 93.03 147.86 94.92 144.61 87.25 C 141.35 79.58 141.64 71.77 149.75 65.75 C 157.85 59.73 154.88 47.59 157.26 39.25 C 159.65 30.91 160.71 26.22 166.70 19.70 C 172.69 13.17 178.18 7.90 185.25 5.81 C 192.33 3.72 200.61 -0.11 210.67 0.67
L 0.00 0.00
L 0.00 512.00 Z"/>
</g>
<g fill="None" fill-opacity="0.0" stroke="#000000" stroke-opacity="1.00" stroke-width="0.3"><path d="
M 161.00 264.00 
C 166.55 263.26 168.78 261.16 170.00 256.00
C 180.28 212.51 182.03 166.58 205.00 127.00
C 209.33 127.00 213.67 127.00 218.00 127.00
C 218.70 130.27 214.76 131.81 215.00 135.00
C 199.60 167.56 189.18 204.87 186.00 241.00
C 185.57 245.87 184.49 251.14 185.00 256.00
C 185.46 260.42 186.95 261.72 191.00 263.00
C 196.70 264.02 204.42 262.16 210.00 263.00 C 215.58 263.84 224.05 261.78 229.00 263.00 C 233.95 264.22 244.28 260.12 247.00 264.00
C 249.82 268.03 244.89 277.48 247.00 282.00
C 231.07 289.96 231.80 315.08 237.31 330.69 C 242.81 346.31 267.47 349.45 279.08 338.08 C 290.69 326.72 297.66 310.16 299.00 294.00
C 302.37 290.28 308.06 293.27 309.00 297.00
C 313.35 314.29 313.30 333.33 316.00 351.00
C 316.39 353.57 317.60 356.14 317.00 359.00
C 264.33 359.00 211.67 359.00 159.00 359.00
C 162.53 346.49 167.63 331.56 166.00 318.00 C 164.36 304.44 173.26 285.31 160.00 278.00
C 148.77 281.24 154.01 292.59 151.99 301.99 C 149.98 311.39 152.43 322.91 151.00 333.00 C 149.57 343.08 147.59 347.27 143.78 357.78 C 139.97 368.29 143.07 372.46 155.00 373.00 C 166.93 373.54 176.43 365.80 178.00 382.00 C 179.58 398.19 187.48 415.17 194.00 430.00
C 179.40 441.00 150.83 444.20 151.00 467.00
C 137.90 463.51 125.18 470.64 115.08 476.08 C 104.97 481.52 95.46 487.04 85.69 491.70 C 75.93 496.35 61.15 504.20 76.00 512.00
L 308.00 512.00
C 310.54 510.23 313.72 508.70 314.00 505.00
C 314.83 494.12 299.97 497.19 292.00 497.00 C 284.03 496.81 270.04 497.44 261.78 496.22 C 253.52 495.00 244.66 491.96 237.00 490.00
C 224.96 489.35 213.92 484.30 202.00 483.00
C 245.50 482.81 293.41 477.01 335.00 489.00
C 345.65 491.36 356.13 494.37 367.00 496.00
C 356.04 501.29 332.82 489.10 329.00 505.00
C 329.36 508.19 333.64 510.74 336.00 512.00
L 437.00 512.00
C 451.58 499.34 430.37 495.27 417.93 493.07 C 405.49 490.88 389.54 486.28 376.33 483.67 C 363.11 481.07 349.62 476.83 335.93 474.07 C 322.24 471.31 306.83 466.06 292.00 467.00
C 293.87 435.56 296.31 404.25 299.00 373.00
C 306.66 369.91 330.59 379.28 332.92 367.92 C 335.26 356.57 328.46 344.14 328.22 332.78 C 327.98 321.41 324.62 309.81 323.67 298.33 C 322.72 286.85 319.13 274.83 319.00 263.00
C 328.95 260.08 345.24 267.24 354.22 262.22 C 363.20 257.20 354.06 243.12 352.67 235.33 C 351.29 227.53 347.01 215.28 345.01 206.99 C 343.01 198.71 341.40 185.03 331.00 184.00
C 329.90 187.62 323.55 190.76 326.78 196.22 C 330.00 201.68 328.55 205.94 330.93 211.07 C 333.31 216.21 333.04 221.00 334.93 226.07 C 336.81 231.14 337.42 235.88 339.00 241.00
C 339.33 242.07 341.57 247.09 341.00 248.00
C 338.68 251.71 327.75 248.08 323.00 249.00 C 318.25 249.92 309.50 248.79 304.00 249.00 C 298.50 249.21 289.53 249.28 284.00 249.00 C 278.47 248.72 269.84 250.04 265.00 249.00 C 260.16 247.96 248.53 251.82 246.00 248.00
C 243.74 244.59 248.41 236.47 247.98 231.98 C 247.54 227.48 250.27 220.52 250.78 215.78 C 251.29 211.04 252.70 205.71 253.98 200.98 C 255.25 196.25 256.52 190.76 258.00 186.00
C 260.51 177.95 266.58 165.71 269.31 158.31 C 272.03 150.90 285.39 137.90 275.92 132.08 C 266.44 126.27 260.40 142.28 256.69 149.69 C 252.99 157.11 248.14 168.23 245.22 177.22 C 242.30 186.22 238.80 198.03 237.01 208.01 C 235.22 217.98 231.95 231.04 231.00 241.00
C 230.84 242.63 231.85 246.67 231.00 248.00
C 229.38 250.53 219.04 248.98 216.00 249.00 C 212.96 249.02 202.68 250.48 201.00 248.00
C 197.69 243.13 204.27 233.60 203.78 227.78 C 203.29 221.96 206.16 213.06 206.99 206.99 C 207.83 200.93 210.80 194.08 211.93 187.93 C 213.05 181.78 215.50 175.25 217.32 169.32 C 219.14 163.40 221.54 157.51 223.92 151.92 C 226.31 146.34 228.34 140.50 231.31 135.31 C 234.27 130.11 237.00 125.08 240.30 120.30 C 243.60 115.53 246.84 111.14 251.25 107.25 C 255.65 103.36 258.87 96.75 264.00 100.00
C 272.73 105.53 279.75 115.11 288.25 120.75 C 296.74 126.40 303.18 138.23 309.30 144.70 C 315.43 151.16 315.88 174.79 328.00 171.00
C 337.45 168.05 328.97 150.98 326.08 144.92 C 323.18 138.87 317.11 128.60 311.75 123.25 C 306.40 117.90 298.92 110.37 293.25 105.75 C 287.57 101.14 281.71 94.88 275.90 90.10 C 270.10 85.31 265.51 80.51 265.81 73.75 C 266.10 67.00 270.92 62.51 270.00 54.00 C 269.08 45.49 269.40 41.19 266.74 34.25 C 264.07 27.31 263.18 24.13 258.30 18.70 C 253.42 13.26 249.17 7.93 243.70 5.29 C 238.23 2.65 232.03 1.81 224.00 0.00
L 211.00 0.00
C 200.61 -0.11 192.33 3.72 185.25 5.81 C 178.18 7.90 172.69 13.17 166.70 19.70 C 160.71 26.22 159.65 30.91 157.26 39.25 C 154.88 47.59 157.85 59.73 149.75 65.75 C 141.64 71.77 141.35 79.58 144.61 87.25 C 147.86 94.92 157.81 93.03 157.36 102.30 C 156.92 111.57 168.75 119.46 162.31 129.31 C 155.86 139.15 153.21 149.23 149.33 160.33 C 145.45 171.42 144.25 182.72 140.31 194.31 C 136.36 205.89 128.88 210.46 125.33 223.33 C 121.78 236.20 148.98 233.52 158.00 233.00
C 156.92 239.39 158.81 243.81 156.00 250.00 C 153.19 256.19 159.67 260.01 161.00 264.00
M 246.00 91.00 
C 243.08 93.92 239.87 97.13 237.00 100.00
C 229.33 108.97 221.58 115.24 209.00 112.00 C 196.42 108.76 178.45 117.88 174.01 105.99 C 169.57 94.10 173.87 81.91 158.00 81.00
C 157.53 75.56 163.68 73.14 166.00 69.00
C 171.16 70.80 174.56 76.66 180.00 78.00
C 188.16 78.88 191.59 69.31 186.00 64.00
C 192.02 64.94 198.29 59.94 195.67 53.33 C 193.05 46.72 183.83 49.55 178.00 49.00
C 175.67 48.95 173.33 49.04 171.00 49.00
C 170.89 41.67 173.18 34.52 178.00 29.00
C 182.42 23.40 187.05 21.09 193.68 18.68 C 200.31 16.27 208.55 15.24 216.00 15.00 C 223.45 14.76 230.92 16.25 237.23 19.77 C 243.53 23.30 247.10 26.76 250.75 33.25 C 254.40 39.73 254.02 47.31 255.00 55.00 C 255.98 62.69 245.65 66.29 249.78 74.22 C 253.91 82.16 252.71 85.50 246.00 91.00
M 188.00 127.00 
C 175.42 156.44 165.74 187.10 161.00 219.00
C 155.67 219.00 150.33 219.00 145.00 219.00
C 149.02 208.39 155.97 198.18 157.78 186.78 C 159.59 175.38 163.76 162.21 167.93 151.93 C 172.09 141.64 175.64 127.15 188.00 127.00
M 304.00 264.00 
C 306.47 266.87 303.32 274.83 306.00 278.00
C 300.90 278.88 289.40 280.25 284.00 279.00 C 278.60 277.75 264.95 282.22 262.00 278.00
C 260.69 276.13 261.72 265.28 263.00 264.00
C 265.92 261.08 278.61 262.82 283.00 263.00 C 287.39 263.18 301.24 260.80 304.00 264.00
M 284.00 294.00 
C 284.70 295.10 282.29 299.73 282.00 301.00
C 280.36 308.18 278.45 315.08 274.00 321.00
C 268.81 327.92 255.52 333.96 251.25 324.75 C 246.97 315.54 247.35 297.19 256.00 294.00
C 259.14 292.84 266.38 292.30 270.00 293.00 C 273.62 293.70 282.06 290.96 284.00 294.00
M 213.00 374.00 
C 216.23 395.42 227.49 414.98 242.00 431.00
C 227.71 440.77 199.84 444.84 201.00 467.00
C 192.11 464.25 177.30 470.67 169.00 467.00 C 160.70 463.33 176.12 455.77 182.08 453.08 C 188.05 450.40 194.67 444.55 202.70 441.69 C 210.72 438.84 213.79 429.61 207.25 422.75 C 200.70 415.90 201.83 408.09 197.68 400.32 C 193.52 392.55 193.26 382.45 191.00 374.00
C 198.33 374.00 205.67 374.00 213.00 374.00
M 281.00 410.00 
C 281.54 418.21 279.25 425.72 280.00 434.00
C 252.29 427.35 233.56 400.59 228.00 374.00
C 243.67 368.46 245.34 384.44 253.25 392.75 C 261.17 401.05 270.49 406.59 281.00 410.00
M 284.00 374.00 
C 283.58 380.63 282.48 387.13 283.00 394.00
C 272.91 391.92 263.53 383.07 259.00 374.00
C 267.33 374.00 275.67 374.00 284.00 374.00
M 277.00 460.00 
C 274.56 472.85 252.85 465.31 243.00 467.00 C 233.15 468.69 206.54 467.99 222.00 459.00
C 229.31 454.75 234.45 451.56 242.23 447.23 C 250.00 442.90 254.37 438.24 263.23 443.77 C 272.09 449.30 279.47 446.98 277.00 460.00
M 196.00 496.00 
C 167.40 497.66 135.53 497.67 107.00 496.00
C 120.96 489.29 132.42 480.41 148.07 485.93 C 163.73 491.44 180.02 491.93 196.00 496.00 Z"/>
</g>
<g fill="None" fill-opacity="0.0" stroke="#000000" stroke-opacity="0.00" stroke-width="0.3"><path d="
M 328.00 171.00 
C 327.22 175.00 332.34 179.60 331.00 184.00
C 341.40 185.03 343.01 198.71 345.01 206.99 C 347.01 215.28 351.29 227.53 352.67 235.33 C 354.06 243.12 363.20 257.20 354.22 262.22 C 345.24 267.24 328.95 260.08 319.00 263.00
C 319.13 274.83 322.72 286.85 323.67 298.33 C 324.62 309.81 327.98 321.41 328.22 332.78 C 328.46 344.14 335.26 356.57 332.92 367.92 C 330.59 379.28 306.66 369.91 299.00 373.00
C 296.31 404.25 293.87 435.56 292.00 467.00
C 306.83 466.06 322.24 471.31 335.93 474.07 C 349.62 476.83 363.11 481.07 376.33 483.67 C 389.54 486.28 405.49 490.88 417.93 493.07 C 430.37 495.27 451.58 499.34 437.00 512.00
L 512.00 512.00
L 512.00 0.00
L 224.00 0.00
C 232.03 1.81 238.23 2.65 243.70 5.29 C 249.17 7.93 253.42 13.26 258.30 18.70 C 263.18 24.13 264.07 27.31 266.74 34.25 C 269.40 41.19 269.08 45.49 270.00 54.00 C 270.92 62.51 266.10 67.00 265.81 73.75 C 265.51 80.51 270.10 85.31 275.90 90.10 C 281.71 94.88 287.57 101.14 293.25 105.75 C 298.92 110.37 306.40 117.90 311.75 123.25 C 317.11 128.60 323.18 138.87 326.08 144.92 C 328.97 150.98 337.45 168.05 328.00 171.00 Z"/>
</g>
<g fill="None" fill-opacity="0.0" stroke="#CD9674" stroke-opacity="1.00" stroke-width="0.3"><path d="
M 178.00 29.00 
C 176.24 33.75 179.34 43.11 178.00 49.00
C 183.83 49.55 193.05 46.72 195.67 53.33 C 198.29 59.94 192.02 64.94 186.00 64.00
C 191.59 69.31 188.16 78.88 180.00 78.00
C 180.88 85.91 179.25 98.59 187.75 103.25 C 196.25 107.91 209.67 103.64 219.00 105.00 C 228.33 106.36 234.98 98.85 242.00 94.00
C 243.15 92.90 244.81 91.97 246.00 91.00
C 252.71 85.50 253.91 82.16 249.78 74.22 C 245.65 66.29 255.98 62.69 255.00 55.00 C 254.02 47.31 254.40 39.73 250.75 33.25 C 247.10 26.76 243.53 23.30 237.23 19.77 C 230.92 16.25 223.45 14.76 216.00 15.00 C 208.55 15.24 200.31 16.27 193.68 18.68 C 187.05 21.09 182.42 23.40 178.00 29.00
M 222.00 49.00 
C 227.79 50.20 232.75 54.42 236.25 59.75 C 239.75 65.07 240.19 75.17 237.22 81.22 C 234.26 87.27 229.50 91.03 222.98 92.98 C 216.45 94.92 208.24 93.65 209.78 84.78 C 211.32 75.91 222.36 82.66 223.97 72.97 C 225.59 63.28 214.62 66.82 210.70 60.30 C 206.78 53.79 213.71 47.28 222.00 49.00 Z"/>
</g>
<g fill="None" fill-opacity="0.0" stroke="#B67B52" stroke-opacity="1.00" stroke-width="0.3"><path d="
M 178.00 49.00 
C 179.34 43.11 176.24 33.75 178.00 29.00
C 173.18 34.52 170.89 41.67 171.00 49.00
C 173.33 49.04 175.67 48.95 178.00 49.00 Z"/>
</g>
<g fill="None" fill-opacity="0.0" stroke="#000000" stroke-opacity="1.00" stroke-width="0.3"><path d="
M 222.00 49.00 
C 213.71 47.28 206.78 53.79 210.70 60.30 C 214.62 66.82 225.59 63.28 223.97 72.97 C 222.36 82.66 211.32 75.91 209.78 84.78 C 208.24 93.65 216.45 94.92 222.98 92.98 C 229.50 91.03 234.26 87.27 237.22 81.22 C 240.19 75.17 239.75 65.07 236.25 59.75 C 232.75 54.42 227.79 50.20 222.00 49.00 Z"/>
</g>
<g fill="None" fill-opacity="0.0" stroke="#BA7D53" stroke-opacity="1.00" stroke-width="0.3"><path d="
M 237.00 100.00 
C 238.61 98.12 240.27 95.66 242.00 94.00
C 234.98 98.85 228.33 106.36 219.00 105.00 C 209.67 103.64 196.25 107.91 187.75 103.25 C 179.25 98.59 180.88 85.91 180.00 78.00
C 174.56 76.66 171.16 70.80 166.00 69.00
C 163.68 73.14 157.53 75.56 158.00 81.00
C 173.87 81.91 169.57 94.10 174.01 105.99 C 178.45 117.88 196.42 108.76 209.00 112.00 C 221.58 115.24 229.33 108.97 237.00 100.00 Z"/>
</g>
<g fill="None" fill-opacity="0.0" stroke="#513827" stroke-opacity="1.00" stroke-width="0.3"><path d="
M 242.00 94.00 
C 240.27 95.66 238.61 98.12 237.00 100.00
C 239.87 97.13 243.08 93.92 246.00 91.00
C 244.81 91.97 243.15 92.90 242.00 94.00 Z"/>
</g>
<g fill="None" fill-opacity="0.0" stroke="#CB9674" stroke-opacity="1.00" stroke-width="0.3"><path d="
M 201.00 248.00 
C 211.00 248.00 221.00 248.00 231.00 248.00
C 231.85 246.67 230.84 242.63 231.00 241.00
C 225.85 244.60 213.78 238.30 208.00 241.00
C 213.53 190.45 224.52 136.15 264.00 100.00
C 258.87 96.75 255.65 103.36 251.25 107.25 C 246.84 111.14 243.60 115.53 240.30 120.30 C 237.00 125.08 234.27 130.11 231.31 135.31 C 228.34 140.50 226.31 146.34 223.92 151.92 C 221.54 157.51 219.14 163.40 217.32 169.32 C 215.50 175.25 213.05 181.78 211.93 187.93 C 210.80 194.08 207.83 200.93 206.99 206.99 C 206.16 213.06 203.29 221.96 203.78 227.78 C 204.27 233.60 197.69 243.13 201.00 248.00 Z"/>
</g>
<g fill="None" fill-opacity="0.0" stroke="#DFBAA3" stroke-opacity="1.00" stroke-width="0.3"><path d="
M 231.00 241.00 
C 231.95 231.04 235.22 217.98 237.01 208.01 C 238.80 198.03 242.30 186.22 245.22 177.22 C 248.14 168.23 252.99 157.11 256.69 149.69 C 260.40 142.28 266.44 126.27 275.92 132.08 C 285.39 137.90 272.03 150.90 269.31 158.31 C 266.58 165.71 260.51 177.95 258.00 186.00
C 256.44 203.19 255.62 222.50 255.00 241.00
C 283.00 241.00 311.00 241.00 339.00 241.00
C 337.42 235.88 336.81 231.14 334.93 226.07 C 333.04 221.00 333.31 216.21 330.93 211.07 C 328.55 205.94 330.00 201.68 326.78 196.22 C 323.55 190.76 329.90 187.62 331.00 184.00
C 332.34 179.60 327.22 175.00 328.00 171.00
C 315.88 174.79 315.43 151.16 309.30 144.70 C 303.18 138.23 296.74 126.40 288.25 120.75 C 279.75 115.11 272.73 105.53 264.00 100.00
C 224.52 136.15 213.53 190.45 208.00 241.00
C 213.78 238.30 225.85 244.60 231.00 241.00 Z"/>
</g>
<g fill="None" fill-opacity="0.0" stroke="#C99371" stroke-opacity="1.00" stroke-width="0.3"><path d="
M 188.00 127.00 
C 175.64 127.15 172.09 141.64 167.93 151.93 C 163.76 162.21 159.59 175.38 157.78 186.78 C 155.97 198.18 149.02 208.39 145.00 219.00
C 150.33 219.00 155.67 219.00 161.00 219.00
C 165.74 187.10 175.42 156.44 188.00 127.00 Z"/>
</g>
<g fill="None" fill-opacity="0.0" stroke="#AF6A3B" stroke-opacity="1.00" stroke-width="0.3"><path d="
M 170.00 256.00 
C 172.33 256.00 174.67 256.00 177.00 256.00
C 179.67 256.00 182.33 256.00 185.00 256.00
C 184.49 251.14 185.57 245.87 186.00 241.00
C 184.65 241.94 181.51 240.30 180.00 241.00
C 181.59 228.21 183.99 213.19 186.98 200.98 C 189.96 188.76 192.57 175.16 196.98 163.98 C 201.38 152.79 202.11 135.98 215.00 135.00
C 214.76 131.81 218.70 130.27 218.00 127.00
C 213.67 127.00 209.33 127.00 205.00 127.00
C 182.03 166.58 180.28 212.51 170.00 256.00 Z"/>
</g>
<g fill="None" fill-opacity="0.0" stroke="#B97C51" stroke-opacity="1.00" stroke-width="0.3"><path d="
M 186.00 241.00 
C 189.18 204.87 199.60 167.56 215.00 135.00
C 202.11 135.98 201.38 152.79 196.98 163.98 C 192.57 175.16 189.96 188.76 186.98 200.98 C 183.99 213.19 181.59 228.21 180.00 241.00
C 181.51 240.30 184.65 241.94 186.00 241.00 Z"/>
</g>
<g fill="None" fill-opacity="0.0" stroke="#CD9674" stroke-opacity="1.00" stroke-width="0.3"><path d="
M 246.00 248.00 
C 277.67 248.00 309.33 248.00 341.00 248.00
C 341.57 247.09 339.33 242.07 339.00 241.00
C 311.00 241.00 283.00 241.00 255.00 241.00
C 255.62 222.50 256.44 203.19 258.00 186.00
C 256.52 190.76 255.25 196.25 253.98 200.98 C 252.70 205.71 251.29 211.04 250.78 215.78 C 250.27 220.52 247.54 227.48 247.98 231.98 C 248.41 236.47 243.74 244.59 246.00 248.00 Z"/>
</g>
<g fill="None" fill-opacity="0.0" stroke="#6D503D" stroke-opacity="1.00" stroke-width="0.3"><path d="
M 231.00 248.00 
C 221.00 248.00 211.00 248.00 201.00 248.00
C 202.68 250.48 212.96 249.02 216.00 249.00 C 219.04 248.98 229.38 250.53 231.00 248.00 Z"/>
</g>
<g fill="None" fill-opacity="0.0" stroke="#6D513E" stroke-opacity="1.00" stroke-width="0.3"><path d="
M 341.00 248.00 
C 309.33 248.00 277.67 248.00 246.00 248.00
C 248.53 251.82 260.16 247.96 265.00 249.00 C 269.84 250.04 278.47 248.72 284.00 249.00 C 289.53 249.28 298.50 249.21 304.00 249.00 C 309.50 248.79 318.25 249.92 323.00 249.00 C 327.75 248.08 338.68 251.71 341.00 248.00 Z"/>
</g>
<g fill="None" fill-opacity="0.0" stroke="#C99473" stroke-opacity="1.00" stroke-width="0.3"><path d="
M 161.00 264.00 
C 161.72 266.15 161.00 276.13 160.00 278.00
C 173.26 285.31 164.36 304.44 166.00 318.00 C 167.63 331.56 162.53 346.49 159.00 359.00
C 211.67 359.00 264.33 359.00 317.00 359.00
C 317.60 356.14 316.39 353.57 316.00 351.00
C 311.40 347.68 300.92 352.50 295.00 351.00 C 289.08 349.50 280.51 351.68 274.00 351.00 C 267.49 350.32 259.78 351.31 253.00 351.00 C 246.22 350.69 238.90 351.14 232.00 351.00 C 225.10 350.86 217.95 351.06 211.00 351.00 C 204.05 350.94 196.98 351.03 190.00 351.00 C 183.02 350.97 175.98 351.03 169.00 351.00
C 176.01 320.49 172.94 287.32 177.00 256.00
C 174.67 256.00 172.33 256.00 170.00 256.00
C 168.78 261.16 166.55 263.26 161.00 264.00 Z"/>
</g>
<g fill="None" fill-opacity="0.0" stroke="#DFBAA3" stroke-opacity="1.00" stroke-width="0.3"><path d="
M 316.00 351.00 
C 313.30 333.33 313.35 314.29 309.00 297.00
C 308.73 296.30 307.32 295.30 308.00 294.00
C 305.00 294.00 302.00 294.00 299.00 294.00
C 297.66 310.16 290.69 326.72 279.08 338.08 C 267.47 349.45 242.81 346.31 237.31 330.69 C 231.80 315.08 231.07 289.96 247.00 282.00
C 244.89 277.48 249.82 268.03 247.00 264.00
C 229.20 261.11 207.74 268.29 191.00 263.00
C 186.95 261.72 185.46 260.42 185.00 256.00
C 182.33 256.00 179.67 256.00 177.00 256.00
C 172.94 287.32 176.01 320.49 169.00 351.00
C 175.98 351.03 183.02 350.97 190.00 351.00 C 196.98 351.03 204.05 350.94 211.00 351.00 C 217.95 351.06 225.10 350.86 232.00 351.00 C 238.90 351.14 246.22 350.69 253.00 351.00 C 259.78 351.31 267.49 350.32 274.00 351.00 C 280.51 351.68 289.08 349.50 295.00 351.00 C 300.92 352.50 311.40 347.68 316.00 351.00 Z"/>
</g>
<g fill="None" fill-opacity="0.0" stroke="#69574D" stroke-opacity="1.00" stroke-width="0.3"><path d="
M 247.00 264.00 
C 244.28 260.12 233.95 264.22 229.00 263.00 C 224.05 261.78 215.58 263.84 210.00 263.00 C 204.42 262.16 196.70 264.02 191.00 263.00
C 207.74 268.29 229.20 261.11 247.00 264.00 Z"/>
</g>
<g fill="None" fill-opacity="0.0" stroke="#573925" stroke-opacity="1.00" stroke-width="0.3"><path d="
M 263.00 264.00 
C 267.56 260.81 277.27 265.59 283.00 264.00 C 288.73 262.41 297.95 265.19 304.00 264.00
C 301.24 260.80 287.39 263.18 283.00 263.00 C 278.61 262.82 265.92 261.08 263.00 264.00 Z"/>
</g>
<g fill="None" fill-opacity="0.0" stroke="#B57345" stroke-opacity="1.00" stroke-width="0.3"><path d="
M 262.00 278.00 
C 276.67 278.00 291.33 278.00 306.00 278.00
C 303.32 274.83 306.47 266.87 304.00 264.00
C 297.95 265.19 288.73 262.41 283.00 264.00 C 277.27 265.59 267.56 260.81 263.00 264.00
C 261.72 265.28 260.69 276.13 262.00 278.00 Z"/>
</g>
<g fill="None" fill-opacity="0.0" stroke="#5E391F" stroke-opacity="1.00" stroke-width="0.3"><path d="
M 306.00 278.00 
C 291.33 278.00 276.67 278.00 262.00 278.00
C 264.95 282.22 278.60 277.75 284.00 279.00 C 289.40 280.25 300.90 278.88 306.00 278.00 Z"/>
</g>
<g fill="None" fill-opacity="0.0" stroke="#573A26" stroke-opacity="1.00" stroke-width="0.3"><path d="
M 256.00 294.00 
C 264.90 292.03 274.99 295.48 284.00 294.00
C 282.06 290.96 273.62 293.70 270.00 293.00 C 266.38 292.30 259.14 292.84 256.00 294.00 Z"/>
</g>
<g fill="None" fill-opacity="0.0" stroke="#635248" stroke-opacity="1.00" stroke-width="0.3"><path d="
M 299.00 294.00 
C 302.00 294.00 305.00 294.00 308.00 294.00
C 307.32 295.30 308.73 296.30 309.00 297.00
C 308.06 293.27 302.37 290.28 299.00 294.00 Z"/>
</g>
<g fill="None" fill-opacity="0.0" stroke="#BB7E53" stroke-opacity="1.00" stroke-width="0.3"><path d="
M 274.00 321.00 
C 261.37 328.98 253.30 311.09 257.00 301.00
C 265.33 301.00 273.67 301.00 282.00 301.00
C 282.29 299.73 284.70 295.10 284.00 294.00
C 274.99 295.48 264.90 292.03 256.00 294.00
C 247.35 297.19 246.97 315.54 251.25 324.75 C 255.52 333.96 268.81 327.92 274.00 321.00 Z"/>
</g>
<g fill="None" fill-opacity="0.0" stroke="#CD9673" stroke-opacity="1.00" stroke-width="0.3"><path d="
M 274.00 321.00 
C 278.45 315.08 280.36 308.18 282.00 301.00
C 273.67 301.00 265.33 301.00 257.00 301.00
C 253.30 311.09 261.37 328.98 274.00 321.00 Z"/>
</g>
<g fill="None" fill-opacity="0.0" stroke="#B06B3B" stroke-opacity="1.00" stroke-width="0.3"><path d="
M 213.00 374.00 
C 205.67 374.00 198.33 374.00 191.00 374.00
C 193.26 382.45 193.52 392.55 197.68 400.32 C 201.83 408.09 200.70 415.90 207.25 422.75 C 213.79 429.61 210.72 438.84 202.70 441.69 C 194.67 444.55 188.05 450.40 182.08 453.08 C 176.12 455.77 160.70 463.33 169.00 467.00 C 177.30 470.67 192.11 464.25 201.00 467.00
C 199.84 444.84 227.71 440.77 242.00 431.00
C 227.49 414.98 216.23 395.42 213.00 374.00 Z"/>
</g>
<g fill="None" fill-opacity="0.0" stroke="#BA7D52" stroke-opacity="1.00" stroke-width="0.3"><path d="
M 281.00 410.00 
C 270.49 406.59 261.17 401.05 253.25 392.75 C 245.34 384.44 243.67 368.46 228.00 374.00
C 233.56 400.59 252.29 427.35 280.00 434.00
C 279.25 425.72 281.54 418.21 281.00 410.00 Z"/>
</g>
<g fill="None" fill-opacity="0.0" stroke="#B97C52" stroke-opacity="1.00" stroke-width="0.3"><path d="
M 284.00 374.00 
C 275.67 374.00 267.33 374.00 259.00 374.00
C 263.53 383.07 272.91 391.92 283.00 394.00
C 282.48 387.13 283.58 380.63 284.00 374.00 Z"/>
</g>
<g fill="None" fill-opacity="0.0" stroke="#CB9572" stroke-opacity="1.00" stroke-width="0.3"><path d="
M 222.00 459.00 
C 226.56 458.50 233.57 461.32 239.00 460.00 C 244.43 458.68 252.78 461.61 258.00 460.00 C 263.22 458.39 272.74 462.98 277.00 460.00
C 279.47 446.98 272.09 449.30 263.23 443.77 C 254.37 438.24 250.00 442.90 242.23 447.23 C 234.45 451.56 229.31 454.75 222.00 459.00 Z"/>
</g>
<g fill="None" fill-opacity="0.0" stroke="#BC7E53" stroke-opacity="1.00" stroke-width="0.3"><path d="
M 277.00 460.00 
C 272.74 462.98 263.22 458.39 258.00 460.00 C 252.78 461.61 244.43 458.68 239.00 460.00 C 233.57 461.32 226.56 458.50 222.00 459.00
C 206.54 467.99 233.15 468.69 243.00 467.00 C 252.85 465.31 274.56 472.85 277.00 460.00 Z"/>
</g>
<g fill="None" fill-opacity="0.0" stroke="#DDB79F" stroke-opacity="1.00" stroke-width="0.3"><path d="
M 237.00 490.00 
C 269.44 491.76 303.39 488.52 335.00 489.00
C 293.41 477.01 245.50 482.81 202.00 483.00
C 213.92 484.30 224.96 489.35 237.00 490.00 Z"/>
</g>
<g fill="None" fill-opacity="0.0" stroke="#CE6565" stroke-opacity="1.00" stroke-width="0.3"><path d="
M 196.00 496.00 
C 180.02 491.93 163.73 491.44 148.07 485.93 C 132.42 480.41 120.96 489.29 107.00 496.00
C 135.53 497.67 167.40 497.66 196.00 496.00 Z"/>
</g>
<g fill="None" fill-opacity="0.0" stroke="#CC9673" stroke-opacity="0.99" stroke-width="0.3"><path d="
M 237.00 490.00 
C 244.66 491.96 253.52 495.00 261.78 496.22 C 270.04 497.44 284.03 496.81 292.00 497.00 C 299.97 497.19 314.83 494.12 314.00 505.00
C 318.36 506.41 324.85 503.12 329.00 505.00
C 332.82 489.10 356.04 501.29 367.00 496.00
C 356.13 494.37 345.65 491.36 335.00 489.00
C 303.39 488.52 269.44 491.76 237.00 490.00 Z"/>
</g>
<g fill="None" fill-opacity="0.0" stroke="#000000" stroke-opacity="0.07" stroke-width="0.3"><path d="
M 308.00 512.00 
L 336.00 512.00
C 333.64 510.74 329.36 508.19 329.00 505.00
C 324.85 503.12 318.36 506.41 314.00 505.00
C 313.72 508.70 310.54 510.23 308.00 512.00 Z"/>
</g>
<g fill="#000000" fill-opacity="0.00" stroke="None">
<path d="
M 0.00 512.00 
L 76.00 512.00
C 61.15 504.20 75.93 496.35 85.69 491.70 C 95.46 487.04 104.97 481.52 115.08 476.08 C 125.18 470.64 137.90 463.51 151.00 467.00
C 150.83 444.20 179.40 441.00 194.00 430.00
C 187.48 415.17 179.58 398.19 178.00 382.00 C 176.43 365.80 166.93 373.54 155.00 373.00 C 143.07 372.46 139.97 368.29 143.78 357.78 C 147.59 347.27 149.57 343.08 151.00 333.00 C 152.43 322.91 149.98 311.39 151.99 301.99 C 154.01 292.59 148.77 281.24 160.00 278.00
C 161.00 276.13 161.72 266.15 161.00 264.00
C 159.67 260.01 153.19 256.19 156.00 250.00 C 158.81 243.81 156.92 239.39 158.00 233.00
C 148.98 233.52 121.78 236.20 125.33 223.33 C 128.88 210.46 136.36 205.89 140.31 194.31 C 144.25 182.72 145.45 171.42 149.33 160.33 C 153.21 149.23 155.86 139.15 162.31 129.31 C 168.75 119.46 156.92 111.57 157.36 102.30 C 157.81 93.03 147.86 94.92 144.61 87.25 C 141.35 79.58 141.64 71.77 149.75 65.75 C 157.85 59.73 154.88 47.59 157.26 39.25 C 159.65 30.91 160.71 26.22 166.70 19.70 C 172.69 13.17 178.18 7.90 185.25 5.81 C 192.33 3.72 200.61 -0.11 210.67 0.67
L 0.00 0.00
L 0.00 512.00 Z"/>
</g>
<g fill="#000000" fill-opacity="1.00" stroke="None">
<path d="
M 161.00 264.00 
C 166.55 263.26 168.78 261.16 170.00 256.00
C 180.28 212.51 182.03 166.58 205.00 127.00
C 209.33 127.00 213.67 127.00 218.00 127.00
C 218.70 130.27 214.76 131.81 215.00 135.00
C 199.60 167.56 189.18 204.87 186.00 241.00
C 185.57 245.87 184.49 251.14 185.00 256.00
C 185.46 260.42 186.95 261.72 191.00 263.00
C 196.70 264.02 204.42 262.16 210.00 263.00 C 215.58 263.84 224.05 261.78 229.00 263.00 C 233.95 264.22 244.28 260.12 247.00 264.00
C 249.82 268.03 244.89 277.48 247.00 282.00
C 231.07 289.96 231.80 315.08 237.31 330.69 C 242.81 346.31 267.47 349.45 279.08 338.08 C 290.69 326.72 297.66 310.16 299.00 294.00
C 302.37 290.28 308.06 293.27 309.00 297.00
C 313.35 314.29 313.30 333.33 316.00 351.00
C 316.39 353.57 317.60 356.14 317.00 359.00
C 264.33 359.00 211.67 359.00 159.00 359.00
C 162.53 346.49 167.63 331.56 166.00 318.00 C 164.36 304.44 173.26 285.31 160.00 278.00
C 148.77 281.24 154.01 292.59 151.99 301.99 C 149.98 311.39 152.43 322.91 151.00 333.00 C 149.57 343.08 147.59 347.27 143.78 357.78 C 139.97 368.29 143.07 372.46 155.00 373.00 C 166.93 373.54 176.43 365.80 178.00 382.00 C 179.58 398.19 187.48 415.17 194.00 430.00
C 179.40 441.00 150.83 444.20 151.00 467.00
C 137.90 463.51 125.18 470.64 115.08 476.08 C 104.97 481.52 95.46 487.04 85.69 491.70 C 75.93 496.35 61.15 504.20 76.00 512.00
L 308.00 512.00
C 310.54 510.23 313.72 508.70 314.00 505.00
C 314.83 494.12 299.97 497.19 292.00 497.00 C 284.03 496.81 270.04 497.44 261.78 496.22 C 253.52 495.00 244.66 491.96 237.00 490.00
C 224.96 489.35 213.92 484.30 202.00 483.00
C 245.50 482.81 293.41 477.01 335.00 489.00
C 345.65 491.36 356.13 494.37 367.00 496.00
C 356.04 501.29 332.82 489.10 329.00 505.00
C 329.36 508.19 333.64 510.74 336.00 512.00
L 437.00 512.00
C 451.58 499.34 430.37 495.27 417.93 493.07 C 405.49 490.88 389.54 486.28 376.33 483.67 C 363.11 481.07 349.62 476.83 335.93 474.07 C 322.24 471.31 306.83 466.06 292.00 467.00
C 293.87 435.56 296.31 404.25 299.00 373.00
C 306.66 369.91 330.59 379.28 332.92 367.92 C 335.26 356.57 328.46 344.14 328.22 332.78 C 327.98 321.41 324.62 309.81 323.67 298.33 C 322.72 286.85 319.13 274.83 319.00 263.00
C 328.95 260.08 345.24 267.24 354.22 262.22 C 363.20 257.20 354.06 243.12 352.67 235.33 C 351.29 227.53 347.01 215.28 345.01 206.99 C 343.01 198.71 341.40 185.03 331.00 184.00
C 329.90 187.62 323.55 190.76 326.78 196.22 C 330.00 201.68 328.55 205.94 330.93 211.07 C 333.31 216.21 333.04 221.00 334.93 226.07 C 336.81 231.14 337.42 235.88 339.00 241.00
C 339.33 242.07 341.57 247.09 341.00 248.00
C 338.68 251.71 327.75 248.08 323.00 249.00 C 318.25 249.92 309.50 248.79 304.00 249.00 C 298.50 249.21 289.53 249.28 284.00 249.00 C 278.47 248.72 269.84 250.04 265.00 249.00 C 260.16 247.96 248.53 251.82 246.00 248.00
C 243.74 244.59 248.41 236.47 247.98 231.98 C 247.54 227.48 250.27 220.52 250.78 215.78 C 251.29 211.04 252.70 205.71 253.98 200.98 C 255.25 196.25 256.52 190.76 258.00 186.00
C 260.51 177.95 266.58 165.71 269.31 158.31 C 272.03 150.90 285.39 137.90 275.92 132.08 C 266.44 126.27 260.40 142.28 256.69 149.69 C 252.99 157.11 248.14 168.23 245.22 177.22 C 242.30 186.22 238.80 198.03 237.01 208.01 C 235.22 217.98 231.95 231.04 231.00 241.00
C 230.84 242.63 231.85 246.67 231.00 248.00
C 229.38 250.53 219.04 248.98 216.00 249.00 C 212.96 249.02 202.68 250.48 201.00 248.00
C 197.69 243.13 204.27 233.60 203.78 227.78 C 203.29 221.96 206.16 213.06 206.99 206.99 C 207.83 200.93 210.80 194.08 211.93 187.93 C 213.05 181.78 215.50 175.25 217.32 169.32 C 219.14 163.40 221.54 157.51 223.92 151.92 C 226.31 146.34 228.34 140.50 231.31 135.31 C 234.27 130.11 237.00 125.08 240.30 120.30 C 243.60 115.53 246.84 111.14 251.25 107.25 C 255.65 103.36 258.87 96.75 264.00 100.00
C 272.73 105.53 279.75 115.11 288.25 120.75 C 296.74 126.40 303.18 138.23 309.30 144.70 C 315.43 151.16 315.88 174.79 328.00 171.00
C 337.45 168.05 328.97 150.98 326.08 144.92 C 323.18 138.87 317.11 128.60 311.75 123.25 C 306.40 117.90 298.92 110.37 293.25 105.75 C 287.57 101.14 281.71 94.88 275.90 90.10 C 270.10 85.31 265.51 80.51 265.81 73.75 C 266.10 67.00 270.92 62.51 270.00 54.00 C 269.08 45.49 269.40 41.19 266.74 34.25 C 264.07 27.31 263.18 24.13 258.30 18.70 C 253.42 13.26 249.17 7.93 243.70 5.29 C 238.23 2.65 232.03 1.81 224.00 0.00
L 211.00 0.00
C 200.61 -0.11 192.33 3.72 185.25 5.81 C 178.18 7.90 172.69 13.17 166.70 19.70 C 160.71 26.22 159.65 30.91 157.26 39.25 C 154.88 47.59 157.85 59.73 149.75 65.75 C 141.64 71.77 141.35 79.58 144.61 87.25 C 147.86 94.92 157.81 93.03 157.36 102.30 C 156.92 111.57 168.75 119.46 162.31 129.31 C 155.86 139.15 153.21 149.23 149.33 160.33 C 145.45 171.42 144.25 182.72 140.31 194.31 C 136.36 205.89 128.88 210.46 125.33 223.33 C 121.78 236.20 148.98 233.52 158.00 233.00
C 156.92 239.39 158.81 243.81 156.00 250.00 C 153.19 256.19 159.67 260.01 161.00 264.00
M 246.00 91.00 
C 243.08 93.92 239.87 97.13 237.00 100.00
C 229.33 108.97 221.58 115.24 209.00 112.00 C 196.42 108.76 178.45 117.88 174.01 105.99 C 169.57 94.10 173.87 81.91 158.00 81.00
C 157.53 75.56 163.68 73.14 166.00 69.00
C 171.16 70.80 174.56 76.66 180.00 78.00
C 188.16 78.88 191.59 69.31 186.00 64.00
C 192.02 64.94 198.29 59.94 195.67 53.33 C 193.05 46.72 183.83 49.55 178.00 49.00
C 175.67 48.95 173.33 49.04 171.00 49.00
C 170.89 41.67 173.18 34.52 178.00 29.00
C 182.42 23.40 187.05 21.09 193.68 18.68 C 200.31 16.27 208.55 15.24 216.00 15.00 C 223.45 14.76 230.92 16.25 237.23 19.77 C 243.53 23.30 247.10 26.76 250.75 33.25 C 254.40 39.73 254.02 47.31 255.00 55.00 C 255.98 62.69 245.65 66.29 249.78 74.22 C 253.91 82.16 252.71 85.50 246.00 91.00
M 188.00 127.00 
C 175.42 156.44 165.74 187.10 161.00 219.00
C 155.67 219.00 150.33 219.00 145.00 219.00
C 149.02 208.39 155.97 198.18 157.78 186.78 C 159.59 175.38 163.76 162.21 167.93 151.93 C 172.09 141.64 175.64 127.15 188.00 127.00
M 304.00 264.00 
C 306.47 266.87 303.32 274.83 306.00 278.00
C 300.90 278.88 289.40 280.25 284.00 279.00 C 278.60 277.75 264.95 282.22 262.00 278.00
C 260.69 276.13 261.72 265.28 263.00 264.00
C 265.92 261.08 278.61 262.82 283.00 263.00 C 287.39 263.18 301.24 260.80 304.00 264.00
M 284.00 294.00 
C 284.70 295.10 282.29 299.73 282.00 301.00
C 280.36 308.18 278.45 315.08 274.00 321.00
C 268.81 327.92 255.52 333.96 251.25 324.75 C 246.97 315.54 247.35 297.19 256.00 294.00
C 259.14 292.84 266.38 292.30 270.00 293.00 C 273.62 293.70 282.06 290.96 284.00 294.00
M 213.00 374.00 
C 216.23 395.42 227.49 414.98 242.00 431.00
C 227.71 440.77 199.84 444.84 201.00 467.00
C 192.11 464.25 177.30 470.67 169.00 467.00 C 160.70 463.33 176.12 455.77 182.08 453.08 C 188.05 450.40 194.67 444.55 202.70 441.69 C 210.72 438.84 213.79 429.61 207.25 422.75 C 200.70 415.90 201.83 408.09 197.68 400.32 C 193.52 392.55 193.26 382.45 191.00 374.00
C 198.33 374.00 205.67 374.00 213.00 374.00
M 281.00 410.00 
C 281.54 418.21 279.25 425.72 280.00 434.00
C 252.29 427.35 233.56 400.59 228.00 374.00
C 243.67 368.46 245.34 384.44 253.25 392.75 C 261.17 401.05 270.49 406.59 281.00 410.00
M 284.00 374.00 
C 283.58 380.63 282.48 387.13 283.00 394.00
C 272.91 391.92 263.53 383.07 259.00 374.00
C 267.33 374.00 275.67 374.00 284.00 374.00
M 277.00 460.00 
C 274.56 472.85 252.85 465.31 243.00 467.00 C 233.15 468.69 206.54 467.99 222.00 459.00
C 229.31 454.75 234.45 451.56 242.23 447.23 C 250.00 442.90 254.37 438.24 263.23 443.77 C 272.09 449.30 279.47 446.98 277.00 460.00
M 196.00 496.00 
C 167.40 497.66 135.53 497.67 107.00 496.00
C 120.96 489.29 132.42 480.41 148.07 485.93 C 163.73 491.44 180.02 491.93 196.00 496.00 Z"/>
</g>
<g fill="#000000" fill-opacity="0.00" stroke="None">
<path d="
M 328.00 171.00 
C 327.22 175.00 332.34 179.60 331.00 184.00
C 341.40 185.03 343.01 198.71 345.01 206.99 C 347.01 215.28 351.29 227.53 352.67 235.33 C 354.06 243.12 363.20 257.20 354.22 262.22 C 345.24 267.24 328.95 260.08 319.00 263.00
C 319.13 274.83 322.72 286.85 323.67 298.33 C 324.62 309.81 327.98 321.41 328.22 332.78 C 328.46 344.14 335.26 356.57 332.92 367.92 C 330.59 379.28 306.66 369.91 299.00 373.00
C 296.31 404.25 293.87 435.56 292.00 467.00
C 306.83 466.06 322.24 471.31 335.93 474.07 C 349.62 476.83 363.11 481.07 376.33 483.67 C 389.54 486.28 405.49 490.88 417.93 493.07 C 430.37 495.27 451.58 499.34 437.00 512.00
L 512.00 512.00
L 512.00 0.00
L 224.00 0.00
C 232.03 1.81 238.23 2.65 243.70 5.29 C 249.17 7.93 253.42 13.26 258.30 18.70 C 263.18 24.13 264.07 27.31 266.74 34.25 C 269.40 41.19 269.08 45.49 270.00 54.00 C 270.92 62.51 266.10 67.00 265.81 73.75 C 265.51 80.51 270.10 85.31 275.90 90.10 C 281.71 94.88 287.57 101.14 293.25 105.75 C 298.92 110.37 306.40 117.90 311.75 123.25 C 317.11 128.60 323.18 138.87 326.08 144.92 C 328.97 150.98 337.45 168.05 328.00 171.00 Z"/>
</g>
<g fill="#CD9674" fill-opacity="1.00" stroke="None">
<path d="
M 178.00 29.00 
C 176.24 33.75 179.34 43.11 178.00 49.00
C 183.83 49.55 193.05 46.72 195.67 53.33 C 198.29 59.94 192.02 64.94 186.00 64.00
C 191.59 69.31 188.16 78.88 180.00 78.00
C 180.88 85.91 179.25 98.59 187.75 103.25 C 196.25 107.91 209.67 103.64 219.00 105.00 C 228.33 106.36 234.98 98.85 242.00 94.00
C 243.15 92.90 244.81 91.97 246.00 91.00
C 252.71 85.50 253.91 82.16 249.78 74.22 C 245.65 66.29 255.98 62.69 255.00 55.00 C 254.02 47.31 254.40 39.73 250.75 33.25 C 247.10 26.76 243.53 23.30 237.23 19.77 C 230.92 16.25 223.45 14.76 216.00 15.00 C 208.55 15.24 200.31 16.27 193.68 18.68 C 187.05 21.09 182.42 23.40 178.00 29.00
M 222.00 49.00 
C 227.79 50.20 232.75 54.42 236.25 59.75 C 239.75 65.07 240.19 75.17 237.22 81.22 C 234.26 87.27 229.50 91.03 222.98 92.98 C 216.45 94.92 208.24 93.65 209.78 84.78 C 211.32 75.91 222.36 82.66 223.97 72.97 C 225.59 63.28 214.62 66.82 210.70 60.30 C 206.78 53.79 213.71 47.28 222.00 49.00 Z"/>
</g>
<g fill="#B67B52" fill-opacity="1.00" stroke="None">
<path d="
M 178.00 49.00 
C 179.34 43.11 176.24 33.75 178.00 29.00
C 173.18 34.52 170.89 41.67 171.00 49.00
C 173.33 49.04 175.67 48.95 178.00 49.00 Z"/>
</g>
<g fill="#000000" fill-opacity="1.00" stroke="None">
<path d="
M 222.00 49.00 
C 213.71 47.28 206.78 53.79 210.70 60.30 C 214.62 66.82 225.59 63.28 223.97 72.97 C 222.36 82.66 211.32 75.91 209.78 84.78 C 208.24 93.65 216.45 94.92 222.98 92.98 C 229.50 91.03 234.26 87.27 237.22 81.22 C 240.19 75.17 239.75 65.07 236.25 59.75 C 232.75 54.42 227.79 50.20 222.00 49.00 Z"/>
</g>
<g fill="#BA7D53" fill-opacity="1.00" stroke="None">
<path d="
M 237.00 100.00 
C 238.61 98.12 240.27 95.66 242.00 94.00
C 234.98 98.85 228.33 106.36 219.00 105.00 C 209.67 103.64 196.25 107.91 187.75 103.25 C 179.25 98.59 180.88 85.91 180.00 78.00
C 174.56 76.66 171.16 70.80 166.00 69.00
C 163.68 73.14 157.53 75.56 158.00 81.00
C 173.87 81.91 169.57 94.10 174.01 105.99 C 178.45 117.88 196.42 108.76 209.00 112.00 C 221.58 115.24 229.33 108.97 237.00 100.00 Z"/>
</g>
<g fill="#513827" fill-opacity="1.00" stroke="None">
<path d="
M 242.00 94.00 
C 240.27 95.66 238.61 98.12 237.00 100.00
C 239.87 97.13 243.08 93.92 246.00 91.00
C 244.81 91.97 243.15 92.90 242.00 94.00 Z"/>
</g>
<g fill="#CB9674" fill-opacity="1.00" stroke="None">
<path d="
M 201.00 248.00 
C 211.00 248.00 221.00 248.00 231.00 248.00
C 231.85 246.67 230.84 242.63 231.00 241.00
C 225.85 244.60 213.78 238.30 208.00 241.00
C 213.53 190.45 224.52 136.15 264.00 100.00
C 258.87 96.75 255.65 103.36 251.25 107.25 C 246.84 111.14 243.60 115.53 240.30 120.30 C 237.00 125.08 234.27 130.11 231.31 135.31 C 228.34 140.50 226.31 146.34 223.92 151.92 C 221.54 157.51 219.14 163.40 217.32 169.32 C 215.50 175.25 213.05 181.78 211.93 187.93 C 210.80 194.08 207.83 200.93 206.99 206.99 C 206.16 213.06 203.29 221.96 203.78 227.78 C 204.27 233.60 197.69 243.13 201.00 248.00 Z"/>
</g>
<g fill="#DFBAA3" fill-opacity="1.00" stroke="None">
<path d="
M 231.00 241.00 
C 231.95 231.04 235.22 217.98 237.01 208.01 C 238.80 198.03 242.30 186.22 245.22 177.22 C 248.14 168.23 252.99 157.11 256.69 149.69 C 260.40 142.28 266.44 126.27 275.92 132.08 C 285.39 137.90 272.03 150.90 269.31 158.31 C 266.58 165.71 260.51 177.95 258.00 186.00
C 256.44 203.19 255.62 222.50 255.00 241.00
C 283.00 241.00 311.00 241.00 339.00 241.00
C 337.42 235.88 336.81 231.14 334.93 226.07 C 333.04 221.00 333.31 216.21 330.93 211.07 C 328.55 205.94 330.00 201.68 326.78 196.22 C 323.55 190.76 329.90 187.62 331.00 184.00
C 332.34 179.60 327.22 175.00 328.00 171.00
C 315.88 174.79 315.43 151.16 309.30 144.70 C 303.18 138.23 296.74 126.40 288.25 120.75 C 279.75 115.11 272.73 105.53 264.00 100.00
C 224.52 136.15 213.53 190.45 208.00 241.00
C 213.78 238.30 225.85 244.60 231.00 241.00 Z"/>
</g>
<g fill="#C99371" fill-opacity="1.00" stroke="None">
<path d="
M 188.00 127.00 
C 175.64 127.15 172.09 141.64 167.93 151.93 C 163.76 162.21 159.59 175.38 157.78 186.78 C 155.97 198.18 149.02 208.39 145.00 219.00
C 150.33 219.00 155.67 219.00 161.00 219.00
C 165.74 187.10 175.42 156.44 188.00 127.00 Z"/>
</g>
<g fill="#AF6A3B" fill-opacity="1.00" stroke="None">
<path d="
M 170.00 256.00 
C 172.33 256.00 174.67 256.00 177.00 256.00
C 179.67 256.00 182.33 256.00 185.00 256.00
C 184.49 251.14 185.57 245.87 186.00 241.00
C 184.65 241.94 181.51 240.30 180.00 241.00
C 181.59 228.21 183.99 213.19 186.98 200.98 C 189.96 188.76 192.57 175.16 196.98 163.98 C 201.38 152.79 202.11 135.98 215.00 135.00
C 214.76 131.81 218.70 130.27 218.00 127.00
C 213.67 127.00 209.33 127.00 205.00 127.00
C 182.03 166.58 180.28 212.51 170.00 256.00 Z"/>
</g>
<g fill="#B97C51" fill-opacity="1.00" stroke="None">
<path d="
M 186.00 241.00 
C 189.18 204.87 199.60 167.56 215.00 135.00
C 202.11 135.98 201.38 152.79 196.98 163.98 C 192.57 175.16 189.96 188.76 186.98 200.98 C 183.99 213.19 181.59 228.21 180.00 241.00
C 181.51 240.30 184.65 241.94 186.00 241.00 Z"/>
</g>
<g fill="#CD9674" fill-opacity="1.00" stroke="None">
<path d="
M 246.00 248.00 
C 277.67 248.00 309.33 248.00 341.00 248.00
C 341.57 247.09 339.33 242.07 339.00 241.00
C 311.00 241.00 283.00 241.00 255.00 241.00
C 255.62 222.50 256.44 203.19 258.00 186.00
C 256.52 190.76 255.25 196.25 253.98 200.98 C 252.70 205.71 251.29 211.04 250.78 215.78 C 250.27 220.52 247.54 227.48 247.98 231.98 C 248.41 236.47 243.74 244.59 246.00 248.00 Z"/>
</g>
<g fill="#6D503D" fill-opacity="1.00" stroke="None">
<path d="
M 231.00 248.00 
C 221.00 248.00 211.00 248.00 201.00 248.00
C 202.68 250.48 212.96 249.02 216.00 249.00 C 219.04 248.98 229.38 250.53 231.00 248.00 Z"/>
</g>
<g fill="#6D513E" fill-opacity="1.00" stroke="None">
<path d="
M 341.00 248.00 
C 309.33 248.00 277.67 248.00 246.00 248.00
C 248.53 251.82 260.16 247.96 265.00 249.00 C 269.84 250.04 278.47 248.72 284.00 249.00 C 289.53 249.28 298.50 249.21 304.00 249.00 C 309.50 248.79 318.25 249.92 323.00 249.00 C 327.75 248.08 338.68 251.71 341.00 248.00 Z"/>
</g>
<g fill="#C99473" fill-opacity="1.00" stroke="None">
<path d="
M 161.00 264.00 
C 161.72 266.15 161.00 276.13 160.00 278.00
C 173.26 285.31 164.36 304.44 166.00 318.00 C 167.63 331.56 162.53 346.49 159.00 359.00
C 211.67 359.00 264.33 359.00 317.00 359.00
C 317.60 356.14 316.39 353.57 316.00 351.00
C 311.40 347.68 300.92 352.50 295.00 351.00 C 289.08 349.50 280.51 351.68 274.00 351.00 C 267.49 350.32 259.78 351.31 253.00 351.00 C 246.22 350.69 238.90 351.14 232.00 351.00 C 225.10 350.86 217.95 351.06 211.00 351.00 C 204.05 350.94 196.98 351.03 190.00 351.00 C 183.02 350.97 175.98 351.03 169.00 351.00
C 176.01 320.49 172.94 287.32 177.00 256.00
C 174.67 256.00 172.33 256.00 170.00 256.00
C 168.78 261.16 166.55 263.26 161.00 264.00 Z"/>
</g>
<g fill="#DFBAA3" fill-opacity="1.00" stroke="None">
<path d="
M 316.00 351.00 
C 313.30 333.33 313.35 314.29 309.00 297.00
C 308.73 296.30 307.32 295.30 308.00 294.00
C 305.00 294.00 302.00 294.00 299.00 294.00
C 297.66 310.16 290.69 326.72 279.08 338.08 C 267.47 349.45 242.81 346.31 237.31 330.69 C 231.80 315.08 231.07 289.96 247.00 282.00
C 244.89 277.48 249.82 268.03 247.00 264.00
C 229.20 261.11 207.74 268.29 191.00 263.00
C 186.95 261.72 185.46 260.42 185.00 256.00
C 182.33 256.00 179.67 256.00 177.00 256.00
C 172.94 287.32 176.01 320.49 169.00 351.00
C 175.98 351.03 183.02 350.97 190.00 351.00 C 196.98 351.03 204.05 350.94 211.00 351.00 C 217.95 351.06 225.10 350.86 232.00 351.00 C 238.90 351.14 246.22 350.69 253.00 351.00 C 259.78 351.31 267.49 350.32 274.00 351.00 C 280.51 351.68 289.08 349.50 295.00 351.00 C 300.92 352.50 311.40 347.68 316.00 351.00 Z"/>
</g>
<g fill="#69574D" fill-opacity="1.00" stroke="None">
<path d="
M 247.00 264.00 
C 244.28 260.12 233.95 264.22 229.00 263.00 C 224.05 261.78 215.58 263.84 210.00 263.00 C 204.42 262.16 196.70 264.02 191.00 263.00
C 207.74 268.29 229.20 261.11 247.00 264.00 Z"/>
</g>
<g fill="#573925" fill-opacity="1.00" stroke="None">
<path d="
M 263.00 264.00 
C 267.56 260.81 277.27 265.59 283.00 264.00 C 288.73 262.41 297.95 265.19 304.00 264.00
C 301.24 260.80 287.39 263.18 283.00 263.00 C 278.61 262.82 265.92 261.08 263.00 264.00 Z"/>
</g>
<g fill="#B57345" fill-opacity="1.00" stroke="None">
<path d="
M 262.00 278.00 
C 276.67 278.00 291.33 278.00 306.00 278.00
C 303.32 274.83 306.47 266.87 304.00 264.00
C 297.95 265.19 288.73 262.41 283.00 264.00 C 277.27 265.59 267.56 260.81 263.00 264.00
C 261.72 265.28 260.69 276.13 262.00 278.00 Z"/>
</g>
<g fill="#5E391F" fill-opacity="1.00" stroke="None">
<path d="
M 306.00 278.00 
C 291.33 278.00 276.67 278.00 262.00 278.00
C 264.95 282.22 278.60 277.75 284.00 279.00 C 289.40 280.25 300.90 278.88 306.00 278.00 Z"/>
</g>
<g fill="#573A26" fill-opacity="1.00" stroke="None">
<path d="
M 256.00 294.00 
C 264.90 292.03 274.99 295.48 284.00 294.00
C 282.06 290.96 273.62 293.70 270.00 293.00 C 266.38 292.30 259.14 292.84 256.00 294.00 Z"/>
</g>
<g fill="#635248" fill-opacity="1.00" stroke="None">
<path d="
M 299.00 294.00 
C 302.00 294.00 305.00 294.00 308.00 294.00
C 307.32 295.30 308.73 296.30 309.00 297.00
C 308.06 293.27 302.37 290.28 299.00 294.00 Z"/>
</g>
<g fill="#BB7E53" fill-opacity="1.00" stroke="None">
<path d="
M 274.00 321.00 
C 261.37 328.98 253.30 311.09 257.00 301.00
C 265.33 301.00 273.67 301.00 282.00 301.00
C 282.29 299.73 284.70 295.10 284.00 294.00
C 274.99 295.48 264.90 292.03 256.00 294.00
C 247.35 297.19 246.97 315.54 251.25 324.75 C 255.52 333.96 268.81 327.92 274.00 321.00 Z"/>
</g>
<g fill="#CD9673" fill-opacity="1.00" stroke="None">
<path d="
M 274.00 321.00 
C 278.45 315.08 280.36 308.18 282.00 301.00
C 273.67 301.00 265.33 301.00 257.00 301.00
C 253.30 311.09 261.37 328.98 274.00 321.00 Z"/>
</g>
<g fill="#B06B3B" fill-opacity="1.00" stroke="None">
<path d="
M 213.00 374.00 
C 205.67 374.00 198.33 374.00 191.00 374.00
C 193.26 382.45 193.52 392.55 197.68 400.32 C 201.83 408.09 200.70 415.90 207.25 422.75 C 213.79 429.61 210.72 438.84 202.70 441.69 C 194.67 444.55 188.05 450.40 182.08 453.08 C 176.12 455.77 160.70 463.33 169.00 467.00 C 177.30 470.67 192.11 464.25 201.00 467.00
C 199.84 444.84 227.71 440.77 242.00 431.00
C 227.49 414.98 216.23 395.42 213.00 374.00 Z"/>
</g>
<g fill="#BA7D52" fill-opacity="1.00" stroke="None">
<path d="
M 281.00 410.00 
C 270.49 406.59 261.17 401.05 253.25 392.75 C 245.34 384.44 243.67 368.46 228.00 374.00
C 233.56 400.59 252.29 427.35 280.00 434.00
C 279.25 425.72 281.54 418.21 281.00 410.00 Z"/>
</g>
<g fill="#B97C52" fill-opacity="1.00" stroke="None">
<path d="
M 284.00 374.00 
C 275.67 374.00 267.33 374.00 259.00 374.00
C 263.53 383.07 272.91 391.92 283.00 394.00
C 282.48 387.13 283.58 380.63 284.00 374.00 Z"/>
</g>
<g fill="#CB9572" fill-opacity="1.00" stroke="None">
<path d="
M 222.00 459.00 
C 226.56 458.50 233.57 461.32 239.00 460.00 C 244.43 458.68 252.78 461.61 258.00 460.00 C 263.22 458.39 272.74 462.98 277.00 460.00
C 279.47 446.98 272.09 449.30 263.23 443.77 C 254.37 438.24 250.00 442.90 242.23 447.23 C 234.45 451.56 229.31 454.75 222.00 459.00 Z"/>
</g>
<g fill="#BC7E53" fill-opacity="1.00" stroke="None">
<path d="
M 277.00 460.00 
C 272.74 462.98 263.22 458.39 258.00 460.00 C 252.78 461.61 244.43 458.68 239.00 460.00 C 233.57 461.32 226.56 458.50 222.00 459.00
C 206.54 467.99 233.15 468.69 243.00 467.00 C 252.85 465.31 274.56 472.85 277.00 460.00 Z"/>
</g>
<g fill="#DDB79F" fill-opacity="1.00" stroke="None">
<path d="
M 237.00 490.00 
C 269.44 491.76 303.39 488.52 335.00 489.00
C 293.41 477.01 245.50 482.81 202.00 483.00
C 213.92 484.30 224.96 489.35 237.00 490.00 Z"/>
</g>
<g fill="#CE6565" fill-opacity="1.00" stroke="None">
<path d="
M 196.00 496.00 
C 180.02 491.93 163.73 491.44 148.07 485.93 C 132.42 480.41 120.96 489.29 107.00 496.00
C 135.53 497.67 167.40 497.66 196.00 496.00 Z"/>
</g>
<g fill="#CC9673" fill-opacity="0.99" stroke="None">
<path d="
M 237.00 490.00 
C 244.66 491.96 253.52 495.00 261.78 496.22 C 270.04 497.44 284.03 496.81 292.00 497.00 C 299.97 497.19 314.83 494.12 314.00 505.00
C 318.36 506.41 324.85 503.12 329.00 505.00
C 332.82 489.10 356.04 501.29 367.00 496.00
C 356.13 494.37 345.65 491.36 335.00 489.00
C 303.39 488.52 269.44 491.76 237.00 490.00 Z"/>
</g>
<g fill="#000000" fill-opacity="0.07" stroke="None">
<path d="
M 308.00 512.00 
L 336.00 512.00
C 333.64 510.74 329.36 508.19 329.00 505.00
C 324.85 503.12 318.36 506.41 314.00 505.00
C 313.72 508.70 310.54 510.23 308.00 512.00 Z"/>
</g>
</svg>