<svg xmlns="http://www.w3.org/2000/svg" xmlns:v="https://svgstorm.com"
viewBox = "0 0 512 512"
width="512"
height="512">
<g fill="None" fill-opacity="0.0" stroke="#000000" stroke-opacity="0.00" stroke-width="0.3"><path d="
M 0.00 260.00 
C 1.60 257.41 4.59 255.41 8.00 256.00
C 9.25 243.23 6.34 219.70 8.00 208.00 C 9.66 196.30 1.38 168.00 16.00 168.00 C 30.63 168.00 22.33 196.31 24.00 208.00 C 25.67 219.69 22.75 243.23 24.00 256.00
C 50.67 256.00 77.33 256.00 104.00 256.00
C 106.55 245.98 97.40 225.32 112.00 224.00
C 112.00 218.67 112.00 213.33 112.00 208.00
C 98.99 208.56 104.46 186.57 104.00 176.00 C 103.54 165.43 127.35 167.46 136.00 168.00
C 136.74 157.72 135.01 141.71 136.00 132.00 C 136.99 122.29 131.00 104.01 144.00 104.00 C 157.01 104.00 151.00 122.29 152.00 132.00 C 153.00 141.71 151.25 157.72 152.00 168.00
C 162.67 168.00 173.33 168.00 184.00 168.00
C 182.99 144.10 182.03 114.83 195.77 95.77 C 209.51 76.71 225.61 66.95 248.00 64.00
C 248.63 53.27 247.15 40.52 248.00 30.00 C 248.85 19.48 244.65 7.41 252.00 0.00
L 0.00 0.00
L 0.00 260.00 Z"/>
</g>
<g fill="None" fill-opacity="0.0" stroke="#2D0512" stroke-opacity="1.00" stroke-width="0.3"><path d="
M 112.00 208.00 
C 123.76 207.49 119.07 191.80 120.00 184.00
C 141.33 184.00 162.67 184.00 184.00 184.00
C 184.00 208.00 184.00 232.00 184.00 256.00
C 162.67 256.00 141.33 256.00 120.00 256.00
C 117.84 245.80 125.92 226.55 112.00 224.00
C 97.40 225.32 106.55 245.98 104.00 256.00
C 77.33 256.00 50.67 256.00 24.00 256.00
C 22.75 243.23 25.67 219.69 24.00 208.00 C 22.33 196.31 30.63 168.00 16.00 168.00 C 1.38 168.00 9.66 196.30 8.00 208.00 C 6.34 219.70 9.25 243.23 8.00 256.00
C 4.59 255.41 1.60 257.41 0.00 260.00
L 0.00 512.00
L 512.00 512.00
L 512.00 412.00
C 510.39 409.06 507.43 407.89 504.00 408.00
C 492.37 408.39 496.43 423.05 496.00 432.00 C 495.57 440.95 496.23 454.23 496.00 464.00 C 495.77 473.77 496.17 486.01 496.00 496.00
C 482.67 496.00 469.33 496.00 456.00 496.00
C 456.65 464.71 458.43 430.32 441.70 404.30 C 424.96 378.29 391.88 377.78 374.75 403.75 C 357.62 429.71 359.11 464.48 360.00 496.00
C 349.33 496.00 338.67 496.00 328.00 496.00
C 327.83 479.07 329.04 456.63 326.07 440.93 C 323.10 425.23 316.58 415.43 305.75 404.25 C 294.92 393.07 281.62 387.81 266.99 385.01 C 252.37 382.21 232.38 386.00 220.31 393.31 C 208.23 400.61 198.28 410.34 192.23 422.23 C 186.18 434.12 176.95 457.83 192.00 464.00
C 204.36 464.12 199.37 440.02 205.77 431.77 C 212.17 423.52 217.46 412.25 228.23 407.23 C 239.00 402.21 255.10 397.35 267.01 400.99 C 278.92 404.63 288.48 407.56 296.75 417.25 C 305.02 426.94 310.32 435.79 311.93 449.07 C 313.54 462.36 310.87 482.13 312.00 496.00
C 274.67 496.00 237.33 496.00 200.00 496.00
C 200.61 489.68 200.61 479.73 192.00 480.00
C 183.40 480.00 183.38 489.45 184.00 496.00
C 173.33 496.00 162.67 496.00 152.00 496.00
C 152.65 464.71 154.43 430.31 137.70 404.30 C 120.96 378.29 87.87 377.78 70.75 403.75 C 53.62 429.71 55.11 464.48 56.00 496.00
C 42.67 496.00 29.33 496.00 16.00 496.00
C 16.00 448.00 16.00 400.00 16.00 352.00
C 176.00 352.00 336.00 352.00 496.00 352.00
C 499.14 364.53 488.49 387.32 504.00 392.00
C 507.50 392.15 510.30 390.86 512.00 388.00
L 512.00 260.00
C 510.40 257.41 507.41 255.41 504.00 256.00
C 502.75 243.23 505.66 219.70 504.00 208.00 C 502.34 196.30 510.62 168.00 496.00 168.00 C 481.37 168.00 489.67 196.31 488.00 208.00 C 486.33 219.69 489.25 243.23 488.00 256.00
C 461.33 256.00 434.67 256.00 408.00 256.00
C 407.78 242.45 408.30 229.62 408.00 216.00 C 407.70 202.38 408.57 189.88 408.00 176.00 C 407.43 162.12 385.44 170.00 376.00 168.00
C 375.26 157.72 376.99 141.71 376.00 132.00 C 375.01 122.29 381.00 104.01 368.00 104.00 C 354.99 104.00 361.00 122.29 360.00 132.00 C 359.00 141.71 360.75 157.72 360.00 168.00
C 349.33 168.00 338.67 168.00 328.00 168.00
C 329.01 144.10 329.97 114.83 316.23 95.77 C 302.49 76.71 286.39 66.95 264.00 64.00
C 263.37 53.27 264.84 40.52 264.00 30.00 C 263.16 19.48 267.35 7.41 260.00 0.00
L 252.00 0.00
C 244.65 7.41 248.85 19.48 248.00 30.00 C 247.15 40.52 248.63 53.27 248.00 64.00
C 225.61 66.95 209.51 76.71 195.77 95.77 C 182.03 114.83 182.99 144.10 184.00 168.00
C 173.33 168.00 162.67 168.00 152.00 168.00
C 151.25 157.72 153.00 141.71 152.00 132.00 C 151.00 122.29 157.01 104.00 144.00 104.00 C 131.00 104.01 136.99 122.29 136.00 132.00 C 135.01 141.71 136.74 157.72 136.00 168.00
C 127.35 167.46 103.54 165.43 104.00 176.00 C 104.46 186.57 98.99 208.56 112.00 208.00
M 272.00 83.00 
C 292.01 89.50 309.44 105.66 311.00 128.00
C 274.33 128.00 237.67 128.00 201.00 128.00
C 200.33 124.30 202.44 121.40 203.00 118.00
C 212.71 89.61 244.25 73.99 272.00 83.00
M 312.00 144.00 
C 312.00 181.33 312.00 218.67 312.00 256.00
C 307.67 256.00 303.33 256.00 299.00 256.00
C 297.11 246.02 290.56 240.02 285.75 231.25 C 280.94 222.48 268.09 222.01 264.03 214.97 C 259.96 207.93 271.00 183.85 255.99 184.01 C 240.98 184.17 251.53 206.44 248.00 214.00 C 244.47 221.56 232.12 222.26 226.75 230.75 C 221.38 239.24 215.16 246.01 213.00 256.00
C 208.67 256.00 204.33 256.00 200.00 256.00
C 200.00 218.67 200.00 181.33 200.00 144.00
C 237.33 144.00 274.67 144.00 312.00 144.00
M 392.00 184.00 
C 392.00 208.00 392.00 232.00 392.00 256.00
C 370.67 256.00 349.33 256.00 328.00 256.00
C 328.00 232.00 328.00 208.00 328.00 184.00
C 349.33 184.00 370.67 184.00 392.00 184.00
M 296.00 296.00 
C 308.05 295.32 302.34 279.17 303.00 272.00
C 367.33 272.00 431.67 272.00 496.00 272.00
C 496.00 293.33 496.00 314.67 496.00 336.00
C 482.67 336.00 469.33 336.00 456.00 336.00
C 456.94 323.41 454.74 311.68 456.00 299.00 C 457.26 286.32 439.67 285.02 440.00 298.00 C 440.33 310.99 439.75 323.10 440.00 336.00
C 429.33 336.00 418.67 336.00 408.00 336.00
C 408.94 323.41 406.74 311.68 408.00 299.00 C 409.26 286.32 391.67 285.02 392.00 298.00 C 392.33 310.99 391.75 323.10 392.00 336.00
C 381.33 336.00 370.67 336.00 360.00 336.00
C 360.94 323.41 358.74 311.68 360.00 299.00 C 361.26 286.32 343.67 285.02 344.00 298.00 C 344.33 310.99 343.75 323.10 344.00 336.00
C 330.67 336.00 317.33 336.00 304.00 336.00
C 303.40 327.67 307.27 314.03 296.00 312.00
C 284.09 311.33 288.94 329.02 288.00 336.00
C 266.67 336.00 245.33 336.00 224.00 336.00
C 223.66 321.21 224.46 302.38 224.00 288.00 C 223.54 273.62 227.55 260.92 233.25 249.25 C 238.96 237.59 249.97 229.00 262.68 233.32 C 275.38 237.64 278.17 249.76 283.78 260.22 C 289.38 270.68 282.29 292.27 296.00 296.00
M 209.00 272.00 
C 207.07 292.93 208.38 314.68 208.00 336.00
C 194.67 336.00 181.33 336.00 168.00 336.00
C 168.94 323.41 166.74 311.68 168.00 299.00 C 169.26 286.32 151.67 285.02 152.00 298.00 C 152.33 310.98 151.75 323.10 152.00 336.00
C 141.33 336.00 130.67 336.00 120.00 336.00
C 120.94 323.41 118.74 311.68 120.00 299.00 C 121.26 286.32 103.67 285.02 104.00 298.00 C 104.33 310.98 103.75 323.10 104.00 336.00
C 93.33 336.00 82.67 336.00 72.00 336.00
C 72.94 323.41 70.74 311.68 72.00 299.00 C 73.26 286.32 55.67 285.02 56.00 298.00 C 56.33 310.98 55.75 323.10 56.00 336.00
C 42.67 336.00 29.33 336.00 16.00 336.00
C 16.00 314.67 16.00 293.33 16.00 272.00
C 80.33 272.00 144.67 272.00 209.00 272.00
M 136.00 496.00 
C 114.67 496.00 93.33 496.00 72.00 496.00
C 71.76 469.89 69.78 442.16 79.93 418.93 C 90.08 395.69 117.15 394.90 127.75 418.25 C 138.36 441.59 136.13 469.69 136.00 496.00
M 440.00 496.00 
C 418.67 496.00 397.33 496.00 376.00 496.00
C 375.76 469.89 373.77 442.16 383.93 418.93 C 394.08 395.69 421.15 394.90 431.75 418.25 C 442.36 441.59 440.13 469.69 440.00 496.00 Z"/>
</g>
<g fill="None" fill-opacity="0.0" stroke="#000000" stroke-opacity="0.00" stroke-width="0.3"><path d="
M 512.00 260.00 
L 512.00 0.00
L 260.00 0.00
C 267.35 7.41 263.16 19.48 264.00 30.00 C 264.84 40.52 263.37 53.27 264.00 64.00
C 286.39 66.95 302.49 76.71 316.23 95.77 C 329.97 114.83 329.01 144.10 328.00 168.00
C 338.67 168.00 349.33 168.00 360.00 168.00
C 360.75 157.72 359.00 141.71 360.00 132.00 C 361.00 122.29 354.99 104.00 368.00 104.00 C 381.00 104.01 375.01 122.29 376.00 132.00 C 376.99 141.71 375.26 157.72 376.00 168.00
C 385.44 170.00 407.43 162.12 408.00 176.00 C 408.57 189.88 407.70 202.38 408.00 216.00 C 408.30 229.62 407.78 242.45 408.00 256.00
C 434.67 256.00 461.33 256.00 488.00 256.00
C 489.25 243.23 486.33 219.69 488.00 208.00 C 489.67 196.31 481.37 168.00 496.00 168.00 C 510.62 168.00 502.34 196.30 504.00 208.00 C 505.66 219.70 502.75 243.23 504.00 256.00
C 507.41 255.41 510.40 257.41 512.00 260.00 Z"/>
</g>
<g fill="None" fill-opacity="0.0" stroke="#F65179" stroke-opacity="1.00" stroke-width="0.3"><path d="
M 203.00 118.00 
C 207.73 112.57 218.72 110.34 225.08 106.08 C 231.43 101.82 240.69 96.64 248.08 94.08 C 255.46 91.51 264.23 83.80 272.00 83.00
C 244.25 73.99 212.71 89.61 203.00 118.00 Z"/>
</g>
<g fill="None" fill-opacity="0.0" stroke="#E80D39" stroke-opacity="1.00" stroke-width="0.3"><path d="
M 203.00 118.00 
C 202.44 121.40 200.33 124.30 201.00 128.00
C 237.67 128.00 274.33 128.00 311.00 128.00
C 309.44 105.66 292.01 89.50 272.00 83.00
C 264.23 83.80 255.46 91.51 248.08 94.08 C 240.69 96.64 231.43 101.82 225.08 106.08 C 218.72 110.34 207.73 112.57 203.00 118.00 Z"/>
</g>
<g fill="None" fill-opacity="0.0" stroke="#CD9008" stroke-opacity="1.00" stroke-width="0.3"><path d="
M 312.00 144.00 
C 274.67 144.00 237.33 144.00 200.00 144.00
C 200.00 181.33 200.00 218.67 200.00 256.00
C 204.33 256.00 208.67 256.00 213.00 256.00
C 215.16 246.01 221.38 239.24 226.75 230.75 C 232.12 222.26 244.47 221.56 248.00 214.00 C 251.53 206.44 240.98 184.17 255.99 184.01 C 271.00 183.85 259.96 207.93 264.03 214.97 C 268.09 222.01 280.94 222.48 285.75 231.25 C 290.56 240.02 297.11 246.02 299.00 256.00
C 303.33 256.00 307.67 256.00 312.00 256.00
C 312.00 218.67 312.00 181.33 312.00 144.00 Z"/>
</g>
<g fill="None" fill-opacity="0.0" stroke="#F2B51A" stroke-opacity="1.00" stroke-width="0.3"><path d="
M 112.00 208.00 
C 112.00 213.33 112.00 218.67 112.00 224.00
C 125.92 226.55 117.84 245.80 120.00 256.00
C 141.33 256.00 162.67 256.00 184.00 256.00
C 184.00 232.00 184.00 208.00 184.00 184.00
C 162.67 184.00 141.33 184.00 120.00 184.00
C 119.07 191.80 123.76 207.49 112.00 208.00 Z"/>
</g>
<g fill="None" fill-opacity="0.0" stroke="#F3B61A" stroke-opacity="1.00" stroke-width="0.3"><path d="
M 392.00 184.00 
C 370.67 184.00 349.33 184.00 328.00 184.00
C 328.00 208.00 328.00 232.00 328.00 256.00
C 349.33 256.00 370.67 256.00 392.00 256.00
C 392.00 232.00 392.00 208.00 392.00 184.00 Z"/>
</g>
<g fill="None" fill-opacity="0.0" stroke="#E80D38" stroke-opacity="1.00" stroke-width="0.3"><path d="
M 296.00 312.00 
C 296.00 306.67 296.00 301.33 296.00 296.00
C 282.29 292.27 289.38 270.68 283.78 260.22 C 278.17 249.76 275.38 237.64 262.68 233.32 C 249.97 229.00 238.96 237.59 233.25 249.25 C 227.55 260.92 223.54 273.62 224.00 288.00 C 224.46 302.38 223.66 321.21 224.00 336.00
C 245.33 336.00 266.67 336.00 288.00 336.00
C 288.94 329.02 284.09 311.33 296.00 312.00 Z"/>
</g>
<g fill="None" fill-opacity="0.0" stroke="#02A34A" stroke-opacity="1.00" stroke-width="0.3"><path d="
M 209.00 272.00 
C 144.67 272.00 80.33 272.00 16.00 272.00
C 16.00 293.33 16.00 314.67 16.00 336.00
C 29.33 336.00 42.67 336.00 56.00 336.00
C 55.75 323.10 56.33 310.98 56.00 298.00 C 55.67 285.02 73.26 286.32 72.00 299.00 C 70.74 311.68 72.94 323.41 72.00 336.00
C 82.67 336.00 93.33 336.00 104.00 336.00
C 103.75 323.10 104.33 310.98 104.00 298.00 C 103.67 285.02 121.26 286.32 120.00 299.00 C 118.74 311.68 120.94 323.41 120.00 336.00
C 130.67 336.00 141.33 336.00 152.00 336.00
C 151.75 323.10 152.33 310.98 152.00 298.00 C 151.67 285.02 169.26 286.32 168.00 299.00 C 166.74 311.68 168.94 323.41 168.00 336.00
C 181.33 336.00 194.67 336.00 208.00 336.00
C 208.38 314.68 207.07 292.93 209.00 272.00 Z"/>
</g>
<g fill="None" fill-opacity="0.0" stroke="#02A34A" stroke-opacity="1.00" stroke-width="0.3"><path d="
M 296.00 296.00 
C 296.00 301.33 296.00 306.67 296.00 312.00
C 307.27 314.03 303.40 327.67 304.00 336.00
C 317.33 336.00 330.67 336.00 344.00 336.00
C 343.75 323.10 344.33 310.99 344.00 298.00 C 343.67 285.02 361.26 286.32 360.00 299.00 C 358.74 311.68 360.94 323.41 360.00 336.00
C 370.67 336.00 381.33 336.00 392.00 336.00
C 391.75 323.10 392.33 310.99 392.00 298.00 C 391.67 285.02 409.26 286.32 408.00 299.00 C 406.74 311.68 408.94 323.41 408.00 336.00
C 418.67 336.00 429.33 336.00 440.00 336.00
C 439.75 323.10 440.33 310.99 440.00 298.00 C 439.67 285.02 457.26 286.32 456.00 299.00 C 454.74 311.68 456.94 323.41 456.00 336.00
C 469.33 336.00 482.67 336.00 496.00 336.00
C 496.00 314.67 496.00 293.33 496.00 272.00
C 431.67 272.00 367.33 272.00 303.00 272.00
C 302.34 279.17 308.05 295.32 296.00 296.00 Z"/>
</g>
<g fill="None" fill-opacity="0.0" stroke="#F2B519" stroke-opacity="1.00" stroke-width="0.3"><path d="
M 192.00 480.00 
C 192.00 474.67 192.00 469.33 192.00 464.00
C 176.95 457.83 186.18 434.12 192.23 422.23 C 198.28 410.34 208.23 400.61 220.31 393.31 C 232.38 386.00 252.37 382.21 266.99 385.01 C 281.62 387.81 294.92 393.07 305.75 404.25 C 316.58 415.43 323.10 425.23 326.07 440.93 C 329.04 456.63 327.83 479.07 328.00 496.00
C 338.67 496.00 349.33 496.00 360.00 496.00
C 359.11 464.48 357.62 429.71 374.75 403.75 C 391.88 377.78 424.96 378.29 441.70 404.30 C 458.43 430.32 456.65 464.71 456.00 496.00
C 469.33 496.00 482.67 496.00 496.00 496.00
C 496.17 486.01 495.77 473.77 496.00 464.00 C 496.23 454.23 495.57 440.95 496.00 432.00 C 496.43 423.05 492.37 408.39 504.00 408.00
C 504.00 402.67 504.00 397.33 504.00 392.00
C 488.49 387.32 499.14 364.53 496.00 352.00
C 336.00 352.00 176.00 352.00 16.00 352.00
C 16.00 400.00 16.00 448.00 16.00 496.00
C 29.33 496.00 42.67 496.00 56.00 496.00
C 55.11 464.48 53.62 429.71 70.75 403.75 C 87.87 377.78 120.96 378.29 137.70 404.30 C 154.43 430.31 152.65 464.71 152.00 496.00
C 162.67 496.00 173.33 496.00 184.00 496.00
C 183.38 489.45 183.40 480.00 192.00 480.00
M 323.00 368.00 
C 336.14 371.99 321.26 392.76 309.33 383.67 C 297.40 374.58 310.16 364.10 323.00 368.00
M 355.00 368.00 
C 368.14 371.99 353.26 392.76 341.33 383.67 C 329.40 374.58 342.16 364.10 355.00 368.00 Z"/>
</g>
<g fill="None" fill-opacity="0.0" stroke="#320913" stroke-opacity="1.00" stroke-width="0.3"><path d="
M 323.00 368.00 
C 310.16 364.10 297.40 374.58 309.33 383.67 C 321.26 392.76 336.14 371.99 323.00 368.00 Z"/>
</g>
<g fill="None" fill-opacity="0.0" stroke="#320913" stroke-opacity="1.00" stroke-width="0.3"><path d="
M 355.00 368.00 
C 342.16 364.10 329.40 374.58 341.33 383.67 C 353.26 392.76 368.14 371.99 355.00 368.00 Z"/>
</g>
<g fill="None" fill-opacity="0.0" stroke="#000000" stroke-opacity="0.00" stroke-width="0.3"><path d="
M 504.00 392.00 
C 504.00 397.33 504.00 402.67 504.00 408.00
C 507.43 407.89 510.39 409.06 512.00 412.00
L 512.00 388.00
C 510.30 390.86 507.50 392.15 504.00 392.00 Z"/>
</g>
<g fill="None" fill-opacity="0.0" stroke="#AE770B" stroke-opacity="1.00" stroke-width="0.3"><path d="
M 136.00 496.00 
C 136.13 469.69 138.36 441.59 127.75 418.25 C 117.15 394.90 90.08 395.69 79.93 418.93 C 69.78 442.16 71.76 469.89 72.00 496.00
C 93.33 496.00 114.67 496.00 136.00 496.00 Z"/>
</g>
<g fill="None" fill-opacity="0.0" stroke="#CD9009" stroke-opacity="1.00" stroke-width="0.3"><path d="
M 192.00 464.00 
C 192.00 469.33 192.00 474.67 192.00 480.00
C 200.61 479.73 200.61 489.68 200.00 496.00
C 237.33 496.00 274.67 496.00 312.00 496.00
C 310.87 482.13 313.54 462.36 311.93 449.07 C 310.32 435.79 305.02 426.94 296.75 417.25 C 288.48 407.56 278.92 404.63 267.01 400.99 C 255.10 397.35 239.00 402.21 228.23 407.23 C 217.46 412.25 212.17 423.52 205.77 431.77 C 199.37 440.02 204.36 464.12 192.00 464.00
M 259.00 448.00 
C 268.00 450.42 262.20 464.46 264.00 471.00 C 265.80 477.54 262.94 491.32 253.33 487.67 C 243.72 484.02 249.67 472.49 248.00 465.00 C 246.33 457.51 248.66 445.22 259.00 448.00 Z"/>
</g>
<g fill="None" fill-opacity="0.0" stroke="#AE770B" stroke-opacity="1.00" stroke-width="0.3"><path d="
M 440.00 496.00 
C 440.13 469.69 442.36 441.59 431.75 418.25 C 421.15 394.90 394.08 395.69 383.93 418.93 C 373.77 442.16 375.76 469.89 376.00 496.00
C 397.33 496.00 418.67 496.00 440.00 496.00 Z"/>
</g>
<g fill="None" fill-opacity="0.0" stroke="#2F0612" stroke-opacity="1.00" stroke-width="0.3"><path d="
M 259.00 448.00 
C 248.66 445.22 246.33 457.51 248.00 465.00 C 249.67 472.49 243.72 484.02 253.33 487.67 C 262.94 491.32 265.80 477.54 264.00 471.00 C 262.20 464.46 268.00 450.42 259.00 448.00 Z"/>
</g>
<g fill="#000000" fill-opacity="0.00" stroke="None">
<path d="
M 0.00 260.00 
C 1.60 257.41 4.59 255.41 8.00 256.00
C 9.25 243.23 6.34 219.70 8.00 208.00 C 9.66 196.30 1.38 168.00 16.00 168.00 C 30.63 168.00 22.33 196.31 24.00 208.00 C 25.67 219.69 22.75 243.23 24.00 256.00
C 50.67 256.00 77.33 256.00 104.00 256.00
C 106.55 245.98 97.40 225.32 112.00 224.00
C 112.00 218.67 112.00 213.33 112.00 208.00
C 98.99 208.56 104.46 186.57 104.00 176.00 C 103.54 165.43 127.35 167.46 136.00 168.00
C 136.74 157.72 135.01 141.71 136.00 132.00 C 136.99 122.29 131.00 104.01 144.00 104.00 C 157.01 104.00 151.00 122.29 152.00 132.00 C 153.00 141.71 151.25 157.72 152.00 168.00
C 162.67 168.00 173.33 168.00 184.00 168.00
C 182.99 144.10 182.03 114.83 195.77 95.77 C 209.51 76.71 225.61 66.95 248.00 64.00
C 248.63 53.27 247.15 40.52 248.00 30.00 C 248.85 19.48 244.65 7.41 252.00 0.00
L 0.00 0.00
L 0.00 260.00 Z"/>
</g>
<g fill="#2D0512" fill-opacity="1.00" stroke="None">
<path d="
M 112.00 208.00 
C 123.76 207.49 119.07 191.80 120.00 184.00
C 141.33 184.00 162.67 184.00 184.00 184.00
C 184.00 208.00 184.00 232.00 184.00 256.00
C 162.67 256.00 141.33 256.00 120.00 256.00
C 117.84 245.80 125.92 226.55 112.00 224.00
C 97.40 225.32 106.55 245.98 104.00 256.00
C 77.33 256.00 50.67 256.00 24.00 256.00
C 22.75 243.23 25.67 219.69 24.00 208.00 C 22.33 196.31 30.63 168.00 16.00 168.00 C 1.38 168.00 9.66 196.30 8.00 208.00 C 6.34 219.70 9.25 243.23 8.00 256.00
C 4.59 255.41 1.60 257.41 0.00 260.00
L 0.00 512.00
L 512.00 512.00
L 512.00 412.00
C 510.39 409.06 507.43 407.89 504.00 408.00
C 492.37 408.39 496.43 423.05 496.00 432.00 C 495.57 440.95 496.23 454.23 496.00 464.00 C 495.77 473.77 496.17 486.01 496.00 496.00
C 482.67 496.00 469.33 496.00 456.00 496.00
C 456.65 464.71 458.43 430.32 441.70 404.30 C 424.96 378.29 391.88 377.78 374.75 403.75 C 357.62 429.71 359.11 464.48 360.00 496.00
C 349.33 496.00 338.67 496.00 328.00 496.00
C 327.83 479.07 329.04 456.63 326.07 440.93 C 323.10 425.23 316.58 415.43 305.75 404.25 C 294.92 393.07 281.62 387.81 266.99 385.01 C 252.37 382.21 232.38 386.00 220.31 393.31 C 208.23 400.61 198.28 410.34 192.23 422.23 C 186.18 434.12 176.95 457.83 192.00 464.00
C 204.36 464.12 199.37 440.02 205.77 431.77 C 212.17 423.52 217.46 412.25 228.23 407.23 C 239.00 402.21 255.10 397.35 267.01 400.99 C 278.92 404.63 288.48 407.56 296.75 417.25 C 305.02 426.94 310.32 435.79 311.93 449.07 C 313.54 462.36 310.87 482.13 312.00 496.00
C 274.67 496.00 237.33 496.00 200.00 496.00
C 200.61 489.68 200.61 479.73 192.00 480.00
C 183.40 480.00 183.38 489.45 184.00 496.00
C 173.33 496.00 162.67 496.00 152.00 496.00
C 152.65 464.71 154.43 430.31 137.70 404.30 C 120.96 378.29 87.87 377.78 70.75 403.75 C 53.62 429.71 55.11 464.48 56.00 496.00
C 42.67 496.00 29.33 496.00 16.00 496.00
C 16.00 448.00 16.00 400.00 16.00 352.00
C 176.00 352.00 336.00 352.00 496.00 352.00
C 499.14 364.53 488.49 387.32 504.00 392.00
C 507.50 392.15 510.30 390.86 512.00 388.00
L 512.00 260.00
C 510.40 257.41 507.41 255.41 504.00 256.00
C 502.75 243.23 505.66 219.70 504.00 208.00 C 502.34 196.30 510.62 168.00 496.00 168.00 C 481.37 168.00 489.67 196.31 488.00 208.00 C 486.33 219.69 489.25 243.23 488.00 256.00
C 461.33 256.00 434.67 256.00 408.00 256.00
C 407.78 242.45 408.30 229.62 408.00 216.00 C 407.70 202.38 408.57 189.88 408.00 176.00 C 407.43 162.12 385.44 170.00 376.00 168.00
C 375.26 157.72 376.99 141.71 376.00 132.00 C 375.01 122.29 381.00 104.01 368.00 104.00 C 354.99 104.00 361.00 122.29 360.00 132.00 C 359.00 141.71 360.75 157.72 360.00 168.00
C 349.33 168.00 338.67 168.00 328.00 168.00
C 329.01 144.10 329.97 114.83 316.23 95.77 C 302.49 76.71 286.39 66.95 264.00 64.00
C 263.37 53.27 264.84 40.52 264.00 30.00 C 263.16 19.48 267.35 7.41 260.00 0.00
L 252.00 0.00
C 244.65 7.41 248.85 19.48 248.00 30.00 C 247.15 40.52 248.63 53.27 248.00 64.00
C 225.61 66.95 209.51 76.71 195.77 95.77 C 182.03 114.83 182.99 144.10 184.00 168.00
C 173.33 168.00 162.67 168.00 152.00 168.00
C 151.25 157.72 153.00 141.71 152.00 132.00 C 151.00 122.29 157.01 104.00 144.00 104.00 C 131.00 104.01 136.99 122.29 136.00 132.00 C 135.01 141.71 136.74 157.72 136.00 168.00
C 127.35 167.46 103.54 165.43 104.00 176.00 C 104.46 186.57 98.99 208.56 112.00 208.00
M 272.00 83.00 
C 292.01 89.50 309.44 105.66 311.00 128.00
C 274.33 128.00 237.67 128.00 201.00 128.00
C 200.33 124.30 202.44 121.40 203.00 118.00
C 212.71 89.61 244.25 73.99 272.00 83.00
M 312.00 144.00 
C 312.00 181.33 312.00 218.67 312.00 256.00
C 307.67 256.00 303.33 256.00 299.00 256.00
C 297.11 246.02 290.56 240.02 285.75 231.25 C 280.94 222.48 268.09 222.01 264.03 214.97 C 259.96 207.93 271.00 183.85 255.99 184.01 C 240.98 184.17 251.53 206.44 248.00 214.00 C 244.47 221.56 232.12 222.26 226.75 230.75 C 221.38 239.24 215.16 246.01 213.00 256.00
C 208.67 256.00 204.33 256.00 200.00 256.00
C 200.00 218.67 200.00 181.33 200.00 144.00
C 237.33 144.00 274.67 144.00 312.00 144.00
M 392.00 184.00 
C 392.00 208.00 392.00 232.00 392.00 256.00
C 370.67 256.00 349.33 256.00 328.00 256.00
C 328.00 232.00 328.00 208.00 328.00 184.00
C 349.33 184.00 370.67 184.00 392.00 184.00
M 296.00 296.00 
C 308.05 295.32 302.34 279.17 303.00 272.00
C 367.33 272.00 431.67 272.00 496.00 272.00
C 496.00 293.33 496.00 314.67 496.00 336.00
C 482.67 336.00 469.33 336.00 456.00 336.00
C 456.94 323.41 454.74 311.68 456.00 299.00 C 457.26 286.32 439.67 285.02 440.00 298.00 C 440.33 310.99 439.75 323.10 440.00 336.00
C 429.33 336.00 418.67 336.00 408.00 336.00
C 408.94 323.41 406.74 311.68 408.00 299.00 C 409.26 286.32 391.67 285.02 392.00 298.00 C 392.33 310.99 391.75 323.10 392.00 336.00
C 381.33 336.00 370.67 336.00 360.00 336.00
C 360.94 323.41 358.74 311.68 360.00 299.00 C 361.26 286.32 343.67 285.02 344.00 298.00 C 344.33 310.99 343.75 323.10 344.00 336.00
C 330.67 336.00 317.33 336.00 304.00 336.00
C 303.40 327.67 307.27 314.03 296.00 312.00
C 284.09 311.33 288.94 329.02 288.00 336.00
C 266.67 336.00 245.33 336.00 224.00 336.00
C 223.66 321.21 224.46 302.38 224.00 288.00 C 223.54 273.62 227.55 260.92 233.25 249.25 C 238.96 237.59 249.97 229.00 262.68 233.32 C 275.38 237.64 278.17 249.76 283.78 260.22 C 289.38 270.68 282.29 292.27 296.00 296.00
M 209.00 272.00 
C 207.07 292.93 208.38 314.68 208.00 336.00
C 194.67 336.00 181.33 336.00 168.00 336.00
C 168.94 323.41 166.74 311.68 168.00 299.00 C 169.26 286.32 151.67 285.02 152.00 298.00 C 152.33 310.98 151.75 323.10 152.00 336.00
C 141.33 336.00 130.67 336.00 120.00 336.00
C 120.94 323.41 118.74 311.68 120.00 299.00 C 121.26 286.32 103.67 285.02 104.00 298.00 C 104.33 310.98 103.75 323.10 104.00 336.00
C 93.33 336.00 82.67 336.00 72.00 336.00
C 72.94 323.41 70.74 311.68 72.00 299.00 C 73.26 286.32 55.67 285.02 56.00 298.00 C 56.33 310.98 55.75 323.10 56.00 336.00
C 42.67 336.00 29.33 336.00 16.00 336.00
C 16.00 314.67 16.00 293.33 16.00 272.00
C 80.33 272.00 144.67 272.00 209.00 272.00
M 136.00 496.00 
C 114.67 496.00 93.33 496.00 72.00 496.00
C 71.76 469.89 69.78 442.16 79.93 418.93 C 90.08 395.69 117.15 394.90 127.75 418.25 C 138.36 441.59 136.13 469.69 136.00 496.00
M 440.00 496.00 
C 418.67 496.00 397.33 496.00 376.00 496.00
C 375.76 469.89 373.77 442.16 383.93 418.93 C 394.08 395.69 421.15 394.90 431.75 418.25 C 442.36 441.59 440.13 469.69 440.00 496.00 Z"/>
</g>
<g fill="#000000" fill-opacity="0.00" stroke="None">
<path d="
M 512.00 260.00 
L 512.00 0.00
L 260.00 0.00
C 267.35 7.41 263.16 19.48 264.00 30.00 C 264.84 40.52 263.37 53.27 264.00 64.00
C 286.39 66.95 302.49 76.71 316.23 95.77 C 329.97 114.83 329.01 144.10 328.00 168.00
C 338.67 168.00 349.33 168.00 360.00 168.00
C 360.75 157.72 359.00 141.71 360.00 132.00 C 361.00 122.29 354.99 104.00 368.00 104.00 C 381.00 104.01 375.01 122.29 376.00 132.00 C 376.99 141.71 375.26 157.72 376.00 168.00
C 385.44 170.00 407.43 162.12 408.00 176.00 C 408.57 189.88 407.70 202.38 408.00 216.00 C 408.30 229.62 407.78 242.45 408.00 256.00
C 434.67 256.00 461.33 256.00 488.00 256.00
C 489.25 243.23 486.33 219.69 488.00 208.00 C 489.67 196.31 481.37 168.00 496.00 168.00 C 510.62 168.00 502.34 196.30 504.00 208.00 C 505.66 219.70 502.75 243.23 504.00 256.00
C 507.41 255.41 510.40 257.41 512.00 260.00 Z"/>
</g>
<g fill="#F65179" fill-opacity="1.00" stroke="None">
<path d="
M 203.00 118.00 
C 207.73 112.57 218.72 110.34 225.08 106.08 C 231.43 101.82 240.69 96.64 248.08 94.08 C 255.46 91.51 264.23 83.80 272.00 83.00
C 244.25 73.99 212.71 89.61 203.00 118.00 Z"/>
</g>
<g fill="#E80D39" fill-opacity="1.00" stroke="None">
<path d="
M 203.00 118.00 
C 202.44 121.40 200.33 124.30 201.00 128.00
C 237.67 128.00 274.33 128.00 311.00 128.00
C 309.44 105.66 292.01 89.50 272.00 83.00
C 264.23 83.80 255.46 91.51 248.08 94.08 C 240.69 96.64 231.43 101.82 225.08 106.08 C 218.72 110.34 207.73 112.57 203.00 118.00 Z"/>
</g>
<g fill="#CD9008" fill-opacity="1.00" stroke="None">
<path d="
M 312.00 144.00 
C 274.67 144.00 237.33 144.00 200.00 144.00
C 200.00 181.33 200.00 218.67 200.00 256.00
C 204.33 256.00 208.67 256.00 213.00 256.00
C 215.16 246.01 221.38 239.24 226.75 230.75 C 232.12 222.26 244.47 221.56 248.00 214.00 C 251.53 206.44 240.98 184.17 255.99 184.01 C 271.00 183.85 259.96 207.93 264.03 214.97 C 268.09 222.01 280.94 222.48 285.75 231.25 C 290.56 240.02 297.11 246.02 299.00 256.00
C 303.33 256.00 307.67 256.00 312.00 256.00
C 312.00 218.67 312.00 181.33 312.00 144.00 Z"/>
</g>
<g fill="#F2B51A" fill-opacity="1.00" stroke="None">
<path d="
M 112.00 208.00 
C 112.00 213.33 112.00 218.67 112.00 224.00
C 125.92 226.55 117.84 245.80 120.00 256.00
C 141.33 256.00 162.67 256.00 184.00 256.00
C 184.00 232.00 184.00 208.00 184.00 184.00
C 162.67 184.00 141.33 184.00 120.00 184.00
C 119.07 191.80 123.76 207.49 112.00 208.00 Z"/>
</g>
<g fill="#F3B61A" fill-opacity="1.00" stroke="None">
<path d="
M 392.00 184.00 
C 370.67 184.00 349.33 184.00 328.00 184.00
C 328.00 208.00 328.00 232.00 328.00 256.00
C 349.33 256.00 370.67 256.00 392.00 256.00
C 392.00 232.00 392.00 208.00 392.00 184.00 Z"/>
</g>
<g fill="#E80D38" fill-opacity="1.00" stroke="None">
<path d="
M 296.00 312.00 
C 296.00 306.67 296.00 301.33 296.00 296.00
C 282.29 292.27 289.38 270.68 283.78 260.22 C 278.17 249.76 275.38 237.64 262.68 233.32 C 249.97 229.00 238.96 237.59 233.25 249.25 C 227.55 260.92 223.54 273.62 224.00 288.00 C 224.46 302.38 223.66 321.21 224.00 336.00
C 245.33 336.00 266.67 336.00 288.00 336.00
C 288.94 329.02 284.09 311.33 296.00 312.00 Z"/>
</g>
<g fill="#02A34A" fill-opacity="1.00" stroke="None">
<path d="
M 209.00 272.00 
C 144.67 272.00 80.33 272.00 16.00 272.00
C 16.00 293.33 16.00 314.67 16.00 336.00
C 29.33 336.00 42.67 336.00 56.00 336.00
C 55.75 323.10 56.33 310.98 56.00 298.00 C 55.67 285.02 73.26 286.32 72.00 299.00 C 70.74 311.68 72.94 323.41 72.00 336.00
C 82.67 336.00 93.33 336.00 104.00 336.00
C 103.75 323.10 104.33 310.98 104.00 298.00 C 103.67 285.02 121.26 286.32 120.00 299.00 C 118.74 311.68 120.94 323.41 120.00 336.00
C 130.67 336.00 141.33 336.00 152.00 336.00
C 151.75 323.10 152.33 310.98 152.00 298.00 C 151.67 285.02 169.26 286.32 168.00 299.00 C 166.74 311.68 168.94 323.41 168.00 336.00
C 181.33 336.00 194.67 336.00 208.00 336.00
C 208.38 314.68 207.07 292.93 209.00 272.00 Z"/>
</g>
<g fill="#02A34A" fill-opacity="1.00" stroke="None">
<path d="
M 296.00 296.00 
C 296.00 301.33 296.00 306.67 296.00 312.00
C 307.27 314.03 303.40 327.67 304.00 336.00
C 317.33 336.00 330.67 336.00 344.00 336.00
C 343.75 323.10 344.33 310.99 344.00 298.00 C 343.67 285.02 361.26 286.32 360.00 299.00 C 358.74 311.68 360.94 323.41 360.00 336.00
C 370.67 336.00 381.33 336.00 392.00 336.00
C 391.75 323.10 392.33 310.99 392.00 298.00 C 391.67 285.02 409.26 286.32 408.00 299.00 C 406.74 311.68 408.94 323.41 408.00 336.00
C 418.67 336.00 429.33 336.00 440.00 336.00
C 439.75 323.10 440.33 310.99 440.00 298.00 C 439.67 285.02 457.26 286.32 456.00 299.00 C 454.74 311.68 456.94 323.41 456.00 336.00
C 469.33 336.00 482.67 336.00 496.00 336.00
C 496.00 314.67 496.00 293.33 496.00 272.00
C 431.67 272.00 367.33 272.00 303.00 272.00
C 302.34 279.17 308.05 295.32 296.00 296.00 Z"/>
</g>
<g fill="#F2B519" fill-opacity="1.00" stroke="None">
<path d="
M 192.00 480.00 
C 192.00 474.67 192.00 469.33 192.00 464.00
C 176.95 457.83 186.18 434.12 192.23 422.23 C 198.28 410.34 208.23 400.61 220.31 393.31 C 232.38 386.00 252.37 382.21 266.99 385.01 C 281.62 387.81 294.92 393.07 305.75 404.25 C 316.58 415.43 323.10 425.23 326.07 440.93 C 329.04 456.63 327.83 479.07 328.00 496.00
C 338.67 496.00 349.33 496.00 360.00 496.00
C 359.11 464.48 357.62 429.71 374.75 403.75 C 391.88 377.78 424.96 378.29 441.70 404.30 C 458.43 430.32 456.65 464.71 456.00 496.00
C 469.33 496.00 482.67 496.00 496.00 496.00
C 496.17 486.01 495.77 473.77 496.00 464.00 C 496.23 454.23 495.57 440.95 496.00 432.00 C 496.43 423.05 492.37 408.39 504.00 408.00
C 504.00 402.67 504.00 397.33 504.00 392.00
C 488.49 387.32 499.14 364.53 496.00 352.00
C 336.00 352.00 176.00 352.00 16.00 352.00
C 16.00 400.00 16.00 448.00 16.00 496.00
C 29.33 496.00 42.67 496.00 56.00 496.00
C 55.11 464.48 53.62 429.71 70.75 403.75 C 87.87 377.78 120.96 378.29 137.70 404.30 C 154.43 430.31 152.65 464.71 152.00 496.00
C 162.67 496.00 173.33 496.00 184.00 496.00
C 183.38 489.45 183.40 480.00 192.00 480.00
M 323.00 368.00 
C 336.14 371.99 321.26 392.76 309.33 383.67 C 297.40 374.58 310.16 364.10 323.00 368.00
M 355.00 368.00 
C 368.14 371.99 353.26 392.76 341.33 383.67 C 329.40 374.58 342.16 364.10 355.00 368.00 Z"/>
</g>
<g fill="#320913" fill-opacity="1.00" stroke="None">
<path d="
M 323.00 368.00 
C 310.16 364.10 297.40 374.58 309.33 383.67 C 321.26 392.76 336.14 371.99 323.00 368.00 Z"/>
</g>
<g fill="#320913" fill-opacity="1.00" stroke="None">
<path d="
M 355.00 368.00 
C 342.16 364.10 329.40 374.58 341.33 383.67 C 353.26 392.76 368.14 371.99 355.00 368.00 Z"/>
</g>
<g fill="#000000" fill-opacity="0.00" stroke="None">
<path d="
M 504.00 392.00 
C 504.00 397.33 504.00 402.67 504.00 408.00
C 507.43 407.89 510.39 409.06 512.00 412.00
L 512.00 388.00
C 510.30 390.86 507.50 392.15 504.00 392.00 Z"/>
</g>
<g fill="#AE770B" fill-opacity="1.00" stroke="None">
<path d="
M 136.00 496.00 
C 136.13 469.69 138.36 441.59 127.75 418.25 C 117.15 394.90 90.08 395.69 79.93 418.93 C 69.78 442.16 71.76 469.89 72.00 496.00
C 93.33 496.00 114.67 496.00 136.00 496.00 Z"/>
</g>
<g fill="#CD9009" fill-opacity="1.00" stroke="None">
<path d="
M 192.00 464.00 
C 192.00 469.33 192.00 474.67 192.00 480.00
C 200.61 479.73 200.61 489.68 200.00 496.00
C 237.33 496.00 274.67 496.00 312.00 496.00
C 310.87 482.13 313.54 462.36 311.93 449.07 C 310.32 435.79 305.02 426.94 296.75 417.25 C 288.48 407.56 278.92 404.63 267.01 400.99 C 255.10 397.35 239.00 402.21 228.23 407.23 C 217.46 412.25 212.17 423.52 205.77 431.77 C 199.37 440.02 204.36 464.12 192.00 464.00
M 259.00 448.00 
C 268.00 450.42 262.20 464.46 264.00 471.00 C 265.80 477.54 262.94 491.32 253.33 487.67 C 243.72 484.02 249.67 472.49 248.00 465.00 C 246.33 457.51 248.66 445.22 259.00 448.00 Z"/>
</g>
<g fill="#AE770B" fill-opacity="1.00" stroke="None">
<path d="
M 440.00 496.00 
C 440.13 469.69 442.36 441.59 431.75 418.25 C 421.15 394.90 394.08 395.69 383.93 418.93 C 373.77 442.16 375.76 469.89 376.00 496.00
C 397.33 496.00 418.67 496.00 440.00 496.00 Z"/>
</g>
<g fill="#2F0612" fill-opacity="1.00" stroke="None">
<path d="
M 259.00 448.00 
C 248.66 445.22 246.33 457.51 248.00 465.00 C 249.67 472.49 243.72 484.02 253.33 487.67 C 262.94 491.32 265.80 477.54 264.00 471.00 C 262.20 464.46 268.00 450.42 259.00 448.00 Z"/>
</g>
</svg>