<svg xmlns="http://www.w3.org/2000/svg" xmlns:v="https://svgstorm.com"
viewBox = "0 0 512 512"
width="512"
height="512">
<g fill="None" fill-opacity="0.0" stroke="#000000" stroke-opacity="0.00" stroke-width="0.3"><path d="
M 0.00 512.00 
L 237.00 512.00
C 218.45 504.87 205.80 487.55 186.77 480.23 C 167.74 472.91 147.31 468.99 132.75 452.25 C 118.19 435.50 117.49 406.88 123.00 386.00
C 82.84 377.81 81.69 312.94 121.00 302.00
C 75.38 251.55 64.01 169.96 89.92 108.92 C 115.84 47.89 171.05 9.30 234.00 0.00
L 0.00 0.00
L 0.00 512.00 Z"/>
</g>
<g fill="None" fill-opacity="0.0" stroke="#2D4356" stroke-opacity="0.97" stroke-width="0.3"><path d="
M 237.00 512.00 
L 275.00 512.00
C 293.54 504.80 306.22 487.59 325.23 480.23 C 344.24 472.87 364.72 469.03 379.25 452.25 C 393.78 435.47 394.54 406.90 389.00 386.00
C 429.16 377.81 430.31 312.94 391.00 302.00
C 436.57 251.52 447.98 169.96 422.08 108.92 C 396.17 47.89 340.95 9.30 278.00 0.00
L 234.00 0.00
C 171.05 9.30 115.84 47.89 89.92 108.92 C 64.01 169.96 75.38 251.55 121.00 302.00
C 81.69 312.94 82.84 377.81 123.00 386.00
C 117.49 406.88 118.19 435.50 132.75 452.25 C 147.31 468.99 167.74 472.91 186.77 480.23 C 205.80 487.55 218.45 504.87 237.00 512.00
M 266.00 16.00 
C 305.00 19.77 341.73 33.53 370.25 61.75 C 398.76 89.97 415.21 124.85 419.00 164.00
C 422.62 201.45 413.81 239.07 393.00 270.00
C 390.31 265.67 386.33 261.16 382.00 258.00
C 387.82 247.86 371.16 241.02 367.00 251.00
C 359.16 240.03 359.10 231.13 364.78 219.78 C 370.46 208.42 370.96 194.49 372.00 182.00 C 373.04 169.51 369.35 154.17 366.02 142.98 C 362.70 131.78 356.83 122.62 350.75 113.25 C 344.66 103.88 337.21 97.47 328.92 90.08 C 320.63 82.70 310.18 76.99 300.00 73.00
C 300.49 73.65 300.83 81.05 301.00 82.00
C 302.12 85.54 303.51 89.02 303.00 93.00
C 347.14 114.33 367.52 172.36 348.00 217.00
C 335.03 210.56 334.84 198.73 333.00 187.00 C 331.16 175.26 322.74 167.96 314.75 159.25 C 306.76 150.54 297.42 147.10 286.92 141.08 C 276.43 135.05 277.94 119.59 285.92 108.92 C 293.91 98.26 283.45 83.34 280.08 72.92 C 276.70 62.51 283.56 43.14 270.92 36.08 C 258.28 29.02 248.86 29.57 239.23 39.23 C 229.61 48.89 237.57 66.58 230.25 76.25 C 222.92 85.92 220.09 102.38 227.77 112.23 C 235.45 122.07 236.47 136.83 224.92 141.92 C 213.38 147.02 205.61 151.93 197.25 160.25 C 188.89 168.56 181.95 177.53 180.07 189.07 C 178.20 200.62 176.67 212.63 164.00 219.00
C 144.78 173.91 163.69 114.97 209.00 93.00
C 208.71 89.09 209.59 85.48 211.00 82.00
C 211.23 80.74 211.05 79.86 212.00 78.00
C 212.73 76.01 213.89 73.80 215.00 72.00
C 207.51 77.09 196.37 78.77 189.25 85.25 C 182.14 91.73 174.64 96.54 168.25 104.25 C 161.86 111.96 157.01 118.45 152.69 127.69 C 148.38 136.94 143.86 146.53 142.07 157.07 C 140.29 167.61 138.83 182.12 141.00 193.00 C 143.17 203.89 143.27 214.90 149.31 224.69 C 155.34 234.49 151.48 242.33 146.00 252.00
C 141.77 241.65 125.49 247.27 130.00 258.00
C 125.58 261.23 121.70 265.72 119.00 270.00
C 98.76 239.87 89.85 204.25 92.00 167.00
C 94.72 126.99 112.56 91.97 140.75 62.75 C 168.95 33.54 207.61 19.81 247.00 16.00
C 252.98 15.42 260.09 15.43 266.00 16.00
M 317.00 193.00 
C 281.35 170.37 233.26 171.49 197.00 192.00
C 198.92 181.47 204.98 175.27 213.25 168.25 C 221.52 161.22 228.94 158.66 239.08 153.08 C 249.21 147.49 249.44 135.00 250.00 124.00 C 250.56 113.00 238.40 104.28 240.00 93.00 C 241.60 81.72 255.89 76.43 250.00 62.00 C 244.11 47.57 266.10 42.90 264.00 58.00 C 261.89 73.10 266.78 80.20 271.32 91.68 C 275.86 103.16 261.92 112.42 264.00 124.00 C 266.08 135.58 263.75 147.54 274.75 153.25 C 285.74 158.97 291.85 161.32 300.70 168.30 C 309.54 175.28 313.75 182.24 316.98 192.02
M 348.00 256.00 
C 345.45 258.20 341.77 259.80 340.00 263.00
C 331.31 255.50 324.42 248.16 313.32 244.68 C 302.23 241.20 285.79 237.95 273.99 242.99 C 262.19 248.03 250.75 247.99 238.98 243.02 C 227.20 238.06 210.72 241.08 199.78 244.78 C 188.83 248.48 181.47 255.42 174.00 264.00
C 170.88 261.72 168.42 258.70 165.00 257.00
C 164.16 256.31 163.10 255.95 162.00 256.00
C 164.97 248.17 168.86 239.94 174.25 233.25 C 179.65 226.56 185.16 220.40 192.08 215.08 C 199.00 209.76 204.98 205.09 213.23 201.23 C 221.48 197.37 231.69 194.91 241.02 193.02 C 250.36 191.14 264.36 191.88 273.67 193.33 C 282.98 194.78 292.89 198.19 301.08 201.92 C 309.26 205.66 315.63 210.49 322.25 215.75 C 328.87 221.01 335.66 227.43 339.75 234.25 C 343.85 241.06 353.38 250.73 348.00 256.00
M 332.00 287.00 
C 332.70 295.88 338.00 305.60 346.00 310.00
C 342.34 319.14 331.02 323.96 327.08 311.92 C 323.14 299.88 309.15 309.50 302.77 313.77 C 296.39 318.04 286.68 324.55 279.92 327.92 C 273.16 331.29 258.77 340.72 267.75 348.25 C 276.74 355.77 284.46 342.03 292.25 339.25 C 300.03 336.46 308.00 328.00 316.00 325.00
C 320.18 330.22 322.77 340.53 332.00 338.00
C 331.96 343.44 331.72 348.88 333.00 354.00
C 322.28 338.84 295.85 341.71 291.00 360.00
C 283.37 356.43 266.27 362.86 271.93 372.07 C 277.58 381.29 289.92 372.91 297.23 379.77 C 304.54 386.63 317.36 382.33 325.22 382.22 C 333.08 382.11 342.14 371.04 348.23 377.77 C 354.32 384.50 363.98 383.35 370.69 388.31 C 377.41 393.27 374.84 409.66 376.00 417.00
C 373.46 445.86 347.85 455.83 323.32 463.32 C 298.80 470.82 283.36 495.93 256.00 496.00 C 228.64 496.07 213.62 470.58 188.78 463.22 C 163.93 455.86 138.33 445.39 136.00 416.00
C 135.46 409.24 135.39 392.88 141.26 388.26 C 147.13 383.64 158.06 384.62 163.75 377.75 C 169.44 370.89 179.05 382.45 186.67 382.33 C 194.30 382.21 206.82 387.04 214.02 380.02 C 221.23 373.01 233.34 381.41 239.75 372.75 C 246.17 364.09 229.12 355.59 221.00 360.00
C 216.15 341.68 189.71 338.88 179.00 354.00
C 179.80 348.81 180.32 343.49 180.00 338.00
C 188.49 340.20 192.69 331.18 195.00 325.00
C 203.72 326.51 208.65 335.29 217.23 337.77 C 225.81 340.25 230.31 352.35 241.00 350.00 C 251.70 347.65 244.76 332.53 236.25 330.75 C 227.75 328.96 222.51 319.84 214.77 317.23 C 207.03 314.62 199.08 303.36 190.33 306.33 C 181.58 309.30 182.76 326.50 171.00 317.00
C 168.70 315.69 167.30 313.19 165.00 312.00
C 180.93 301.62 176.14 281.86 189.25 270.25 C 202.36 258.63 222.89 251.29 240.07 259.93 C 257.25 268.56 277.50 256.21 295.00 257.00 C 312.50 257.79 330.32 269.54 332.00 287.00
M 164.00 282.00 
C 166.42 305.24 129.58 305.24 132.00 282.00
C 133.90 263.74 162.10 263.73 164.00 282.00
M 380.00 282.00 
C 382.42 305.24 345.58 305.24 348.00 282.00
C 349.90 263.74 378.10 263.73 380.00 282.00
M 164.00 341.00 
C 167.14 380.54 105.33 381.21 108.00 342.00
C 110.25 309.01 161.36 307.71 164.00 341.00
M 404.00 339.00 
C 406.31 355.56 394.76 370.85 378.00 372.00 C 361.23 373.15 346.84 359.07 348.00 342.00
C 350.15 310.35 399.52 306.91 404.00 339.00
M 205.00 366.00 
C 200.85 366.95 196.46 367.23 192.00 367.00
C 191.01 359.44 205.46 358.50 205.00 366.00
M 320.00 367.00 
C 315.50 367.25 311.21 366.93 307.00 366.00
C 306.70 358.53 320.57 359.43 320.00 367.00 Z"/>
</g>
<g fill="None" fill-opacity="0.0" stroke="#000000" stroke-opacity="0.00" stroke-width="0.3"><path d="
M 275.00 512.00 
L 512.00 512.00
L 512.00 0.00
L 278.00 0.00
C 340.95 9.30 396.17 47.89 422.08 108.92 C 447.98 169.96 436.57 251.52 391.00 302.00
C 430.31 312.94 429.16 377.81 389.00 386.00
C 394.54 406.90 393.78 435.47 379.25 452.25 C 364.72 469.03 344.24 472.87 325.23 480.23 C 306.22 487.59 293.54 504.80 275.00 512.00 Z"/>
</g>
<g fill="None" fill-opacity="0.0" stroke="#57615E" stroke-opacity="0.94" stroke-width="0.3"><path d="
M 247.00 16.00 
C 251.71 14.96 261.29 14.96 266.00 16.00
C 260.09 15.43 252.98 15.42 247.00 16.00 Z"/>
</g>
<g fill="None" fill-opacity="0.0" stroke="#F4DDA3" stroke-opacity="1.00" stroke-width="0.3"><path d="
M 92.00 167.00 
C 94.23 156.03 98.53 142.26 101.98 130.98 C 105.42 119.70 111.98 109.81 117.77 99.77 C 123.56 89.73 130.72 82.46 138.75 73.75 C 146.78 65.04 154.39 59.79 163.70 52.70 C 173.00 45.60 183.62 41.88 194.08 36.08 C 204.53 30.28 220.42 31.00 231.00 26.00
C 236.27 23.51 241.01 17.33 247.00 16.00
C 207.61 19.81 168.95 33.54 140.75 62.75 C 112.56 91.97 94.72 126.99 92.00 167.00 Z"/>
</g>
<g fill="None" fill-opacity="0.0" stroke="#F9ECD0" stroke-opacity="0.46" stroke-width="0.3"><path d="
M 231.00 26.00 
C 237.30 23.44 249.29 24.39 256.07 24.07 C 262.85 23.75 274.26 24.27 281.00 26.00
C 278.05 23.42 271.73 17.27 266.00 16.00
C 261.29 14.96 251.71 14.96 247.00 16.00
C 241.01 17.33 236.27 23.51 231.00 26.00 Z"/>
</g>
<g fill="None" fill-opacity="0.0" stroke="#F5DEA4" stroke-opacity="1.00" stroke-width="0.3"><path d="
M 281.00 26.00 
C 282.00 26.26 283.63 27.82 285.00 28.00
C 291.09 28.80 294.55 27.58 301.67 30.33 C 308.79 33.08 308.21 32.78 317.08 35.92 C 325.94 39.07 336.91 44.73 344.75 50.25 C 352.58 55.78 350.21 53.27 357.70 59.30 C 365.19 65.33 372.36 72.50 379.25 79.75 C 386.14 87.00 391.96 96.34 397.30 104.70 C 402.64 113.05 407.36 124.28 410.78 133.22 C 414.19 142.17 413.96 142.68 415.33 149.67 C 416.70 156.66 418.75 163.29 419.00 164.00
C 415.21 124.85 398.76 89.97 370.25 61.75 C 341.73 33.53 305.00 19.77 266.00 16.00
C 271.73 17.27 278.05 23.42 281.00 26.00 Z"/>
</g>
<g fill="None" fill-opacity="0.0" stroke="#000000" stroke-opacity="0.00" stroke-width="0.3"><path d="
M 231.00 26.00 
C 227.02 27.62 221.23 38.53 220.00 42.00
C 218.81 45.36 219.43 49.39 219.00 53.00
C 218.20 59.77 218.45 66.43 215.00 72.00
C 213.89 73.80 212.73 76.01 212.00 78.00
C 211.54 79.26 211.40 80.68 211.00 82.00
C 209.59 85.48 208.71 89.09 209.00 93.00
C 163.69 114.97 144.78 173.91 164.00 219.00
C 176.67 212.63 178.20 200.62 180.07 189.07 C 181.95 177.53 188.89 168.56 197.25 160.25 C 205.61 151.93 213.38 147.02 224.92 141.92 C 236.47 136.83 235.45 122.07 227.77 112.23 C 220.09 102.38 222.92 85.92 230.25 76.25 C 237.57 66.58 229.61 48.89 239.23 39.23 C 248.86 29.57 258.28 29.02 270.92 36.08 C 283.56 43.14 276.70 62.51 280.08 72.92 C 283.45 83.34 293.91 98.26 285.92 108.92 C 277.94 119.59 276.43 135.05 286.92 141.08 C 297.42 147.10 306.76 150.54 314.75 159.25 C 322.74 167.96 331.16 175.26 333.00 187.00 C 334.84 198.73 335.03 210.56 348.00 217.00
C 367.52 172.36 347.14 114.33 303.00 93.00
C 303.51 89.02 302.12 85.54 301.00 82.00
C 299.89 78.49 298.66 75.36 297.00 72.00
C 294.34 66.62 295.00 60.43 295.00 54.00
C 295.00 52.34 295.06 50.66 295.00 49.00
C 294.78 47.29 293.74 42.99 293.00 41.00
C 291.85 37.91 287.54 30.08 285.00 28.00
C 283.63 27.82 282.00 26.26 281.00 26.00
C 274.26 24.27 262.85 23.75 256.07 24.07 C 249.29 24.39 237.30 23.44 231.00 26.00 Z"/>
</g>
<g fill="None" fill-opacity="0.0" stroke="#FBD87F" stroke-opacity="1.00" stroke-width="0.3"><path d="
M 92.00 167.00 
C 89.85 204.25 98.76 239.87 119.00 270.00
C 121.70 265.72 125.58 261.23 130.00 258.00
C 125.49 247.27 141.77 241.65 146.00 252.00
C 151.48 242.33 155.34 234.49 149.31 224.69 C 143.27 214.90 143.17 203.89 141.00 193.00 C 138.83 182.12 140.29 167.61 142.07 157.07 C 143.86 146.53 148.38 136.94 152.69 127.69 C 157.01 118.45 161.86 111.96 168.25 104.25 C 174.64 96.54 182.14 91.73 189.25 85.25 C 196.37 78.77 207.51 77.09 215.00 72.00
C 218.45 66.43 218.20 59.77 219.00 53.00
C 214.55 58.80 204.71 50.59 206.00 45.00 C 207.30 39.40 217.87 35.50 220.00 42.00
C 221.23 38.53 227.02 27.62 231.00 26.00
C 220.42 31.00 204.53 30.28 194.08 36.08 C 183.62 41.88 173.00 45.60 163.70 52.70 C 154.39 59.79 146.78 65.04 138.75 73.75 C 130.72 82.46 123.56 89.73 117.77 99.77 C 111.98 109.81 105.42 119.70 101.98 130.98 C 98.53 142.26 94.23 156.03 92.00 167.00
M 191.00 50.00 
C 200.35 52.51 194.67 69.36 185.00 65.00 C 175.33 60.64 181.38 47.42 191.00 50.00
M 167.00 66.00 
C 176.31 68.36 171.85 84.99 162.33 81.67 C 152.81 78.34 157.31 63.54 167.00 66.00
M 149.00 87.00 
C 157.80 90.43 150.90 106.25 141.78 101.22 C 132.66 96.19 139.55 83.31 149.00 87.00
M 134.00 111.00 
C 143.00 114.17 135.82 130.41 126.78 125.22 C 117.73 120.03 124.39 107.62 134.00 111.00
M 123.00 137.00 
C 132.00 139.28 128.04 156.04 118.33 152.67 C 108.62 149.30 113.15 134.50 123.00 137.00
M 118.00 165.00 
C 127.83 166.42 124.41 183.79 114.33 180.67 C 104.25 177.55 108.40 163.61 118.00 165.00
M 122.00 194.00 
C 130.42 197.43 122.47 214.45 113.78 208.22 C 105.09 201.99 112.63 190.19 122.00 194.00
M 128.00 221.00 
C 136.41 223.51 132.44 239.43 122.78 236.22 C 113.11 233.00 117.26 217.79 128.00 221.00 Z"/>
</g>
<g fill="None" fill-opacity="0.0" stroke="#FBD87F" stroke-opacity="1.00" stroke-width="0.3"><path d="
M 285.00 28.00 
C 287.54 30.08 291.85 37.91 293.00 41.00
C 294.07 36.24 303.77 37.79 304.77 43.23 C 305.77 48.67 302.74 56.66 295.00 54.00
C 295.00 60.43 294.34 66.62 297.00 72.00
C 297.63 72.32 299.43 72.77 300.00 73.00
C 310.18 76.99 320.63 82.70 328.92 90.08 C 337.21 97.47 344.66 103.88 350.75 113.25 C 356.83 122.62 362.70 131.78 366.02 142.98 C 369.35 154.17 373.04 169.51 372.00 182.00 C 370.96 194.49 370.46 208.42 364.78 219.78 C 359.10 231.13 359.16 240.03 367.00 251.00
C 371.16 241.02 387.82 247.86 382.00 258.00
C 386.33 261.16 390.31 265.67 393.00 270.00
C 413.81 239.07 422.62 201.45 419.00 164.00
C 418.75 163.29 416.70 156.66 415.33 149.67 C 413.96 142.68 414.19 142.17 410.78 133.22 C 407.36 124.28 402.64 113.05 397.30 104.70 C 391.96 96.34 386.14 87.00 379.25 79.75 C 372.36 72.50 365.19 65.33 357.70 59.30 C 350.21 53.27 352.58 55.78 344.75 50.25 C 336.91 44.73 325.94 39.07 317.08 35.92 C 308.21 32.78 308.79 33.08 301.67 30.33 C 294.55 27.58 291.09 28.80 285.00 28.00
M 327.00 50.00 
C 335.95 52.82 329.44 69.91 320.33 64.67 C 311.22 59.43 317.36 46.96 327.00 50.00
M 350.00 66.00 
C 359.44 68.69 353.49 85.39 344.00 81.00 C 334.51 76.61 340.27 63.22 350.00 66.00
M 369.00 86.00 
C 378.00 88.28 374.04 105.04 364.33 101.67 C 354.62 98.30 359.15 83.50 369.00 86.00
M 384.00 110.00 
C 393.20 112.33 389.01 128.96 379.33 125.67 C 369.65 122.38 374.12 107.50 384.00 110.00
M 395.00 137.00 
C 404.00 139.84 397.48 156.56 388.33 151.67 C 379.18 146.78 385.25 133.92 395.00 137.00
M 399.00 165.00 
C 408.25 167.64 402.45 184.26 393.00 180.00 C 383.55 175.74 389.01 162.15 399.00 165.00
M 398.00 193.00 
C 406.47 195.98 401.08 212.26 391.93 208.07 C 382.77 203.88 387.90 189.45 398.00 193.00
M 389.00 220.00 
C 398.45 221.26 395.98 238.33 386.00 236.00 C 376.02 233.66 379.22 218.70 389.00 220.00 Z"/>
</g>
<g fill="None" fill-opacity="0.0" stroke="#334757" stroke-opacity="1.00" stroke-width="0.3"><path d="
M 293.00 41.00 
C 292.84 41.71 294.94 47.23 295.00 49.00
C 295.06 50.66 295.00 52.34 295.00 54.00
C 302.74 56.66 305.77 48.67 304.77 43.23 C 303.77 37.79 294.07 36.24 293.00 41.00 Z"/>
</g>
<g fill="None" fill-opacity="0.0" stroke="#334757" stroke-opacity="0.97" stroke-width="0.3"><path d="
M 219.00 53.00 
C 219.43 49.39 218.81 45.36 220.00 42.00
C 217.87 35.50 207.30 39.40 206.00 45.00 C 204.71 50.59 214.55 58.80 219.00 53.00 Z"/>
</g>
<g fill="None" fill-opacity="0.0" stroke="#81866C" stroke-opacity="0.55" stroke-width="0.3"><path d="
M 295.00 49.00 
C 294.94 47.23 292.84 41.71 293.00 41.00
C 293.74 42.99 294.78 47.29 295.00 49.00 Z"/>
</g>
<g fill="None" fill-opacity="0.0" stroke="#F8785E" stroke-opacity="0.99" stroke-width="0.3"><path d="
M 316.98 192.02 
C 313.75 182.24 309.54 175.28 300.70 168.30 C 291.85 161.32 285.74 158.97 274.75 153.25 C 263.75 147.54 266.08 135.58 264.00 124.00 C 261.92 112.42 275.86 103.16 271.32 91.68 C 266.78 80.20 261.89 73.10 264.00 58.00 C 266.10 42.90 244.11 47.57 250.00 62.00 C 255.89 76.43 241.60 81.72 240.00 93.00 C 238.40 104.28 250.56 113.00 250.00 124.00 C 249.44 135.00 249.21 147.49 239.08 153.08 C 228.94 158.66 221.52 161.22 213.25 168.25 C 204.98 175.27 198.92 181.47 197.00 192.00
C 233.26 171.49 281.35 170.37 317.00 193.00 Z"/>
</g>
<g fill="None" fill-opacity="0.0" stroke="#304556" stroke-opacity="1.00" stroke-width="0.3"><path d="
M 191.00 50.00 
C 181.38 47.42 175.33 60.64 185.00 65.00 C 194.67 69.36 200.35 52.51 191.00 50.00 Z"/>
</g>
<g fill="None" fill-opacity="0.0" stroke="#304556" stroke-opacity="1.00" stroke-width="0.3"><path d="
M 327.00 50.00 
C 317.36 46.96 311.22 59.43 320.33 64.67 C 329.44 69.91 335.95 52.82 327.00 50.00 Z"/>
</g>
<g fill="None" fill-opacity="0.0" stroke="#304556" stroke-opacity="1.00" stroke-width="0.3"><path d="
M 167.00 66.00 
C 157.31 63.54 152.81 78.34 162.33 81.67 C 171.85 84.99 176.31 68.36 167.00 66.00 Z"/>
</g>
<g fill="None" fill-opacity="0.0" stroke="#304556" stroke-opacity="1.00" stroke-width="0.3"><path d="
M 350.00 66.00 
C 340.27 63.22 334.51 76.61 344.00 81.00 C 353.49 85.39 359.44 68.69 350.00 66.00 Z"/>
</g>
<g fill="None" fill-opacity="0.0" stroke="#7E7E67" stroke-opacity="0.62" stroke-width="0.3"><path d="
M 301.00 82.00 
C 300.83 81.05 300.49 73.65 300.00 73.00
C 299.43 72.77 297.63 72.32 297.00 72.00
C 298.66 75.36 299.89 78.49 301.00 82.00 Z"/>
</g>
<g fill="None" fill-opacity="0.0" stroke="#858367" stroke-opacity="0.49" stroke-width="0.3"><path d="
M 211.00 82.00 
C 211.40 80.68 211.54 79.26 212.00 78.00
C 211.05 79.86 211.23 80.74 211.00 82.00 Z"/>
</g>
<g fill="None" fill-opacity="0.0" stroke="#304556" stroke-opacity="1.00" stroke-width="0.3"><path d="
M 369.00 86.00 
C 359.15 83.50 354.62 98.30 364.33 101.67 C 374.04 105.04 378.00 88.28 369.00 86.00 Z"/>
</g>
<g fill="None" fill-opacity="0.0" stroke="#304556" stroke-opacity="1.00" stroke-width="0.3"><path d="
M 149.00 87.00 
C 139.55 83.31 132.66 96.19 141.78 101.22 C 150.90 106.25 157.80 90.43 149.00 87.00 Z"/>
</g>
<g fill="None" fill-opacity="0.0" stroke="#304556" stroke-opacity="1.00" stroke-width="0.3"><path d="
M 384.00 110.00 
C 374.12 107.50 369.65 122.38 379.33 125.67 C 389.01 128.96 393.20 112.33 384.00 110.00 Z"/>
</g>
<g fill="None" fill-opacity="0.0" stroke="#304556" stroke-opacity="1.00" stroke-width="0.3"><path d="
M 134.00 111.00 
C 124.39 107.62 117.73 120.03 126.78 125.22 C 135.82 130.41 143.00 114.17 134.00 111.00 Z"/>
</g>
<g fill="None" fill-opacity="0.0" stroke="#304556" stroke-opacity="1.00" stroke-width="0.3"><path d="
M 123.00 137.00 
C 113.15 134.50 108.62 149.30 118.33 152.67 C 128.04 156.04 132.00 139.28 123.00 137.00 Z"/>
</g>
<g fill="None" fill-opacity="0.0" stroke="#304556" stroke-opacity="1.00" stroke-width="0.3"><path d="
M 395.00 137.00 
C 385.25 133.92 379.18 146.78 388.33 151.67 C 397.48 156.56 404.00 139.84 395.00 137.00 Z"/>
</g>
<g fill="None" fill-opacity="0.0" stroke="#324657" stroke-opacity="1.00" stroke-width="0.3"><path d="
M 118.00 165.00 
C 108.40 163.61 104.25 177.55 114.33 180.67 C 124.41 183.79 127.83 166.42 118.00 165.00 Z"/>
</g>
<g fill="None" fill-opacity="0.0" stroke="#304556" stroke-opacity="1.00" stroke-width="0.3"><path d="
M 399.00 165.00 
C 389.01 162.15 383.55 175.74 393.00 180.00 C 402.45 184.26 408.25 167.64 399.00 165.00 Z"/>
</g>
<g fill="None" fill-opacity="0.0" stroke="#F7E0A6" stroke-opacity="0.99" stroke-width="0.3"><path d="
M 165.00 257.00 
C 167.64 251.16 171.19 246.05 174.77 240.77 C 178.35 235.49 183.00 231.38 187.75 226.75 C 192.50 222.13 197.26 218.47 203.08 215.08 C 208.90 211.70 214.67 208.92 221.22 206.22 C 227.78 203.53 235.65 202.40 243.01 201.01 C 250.36 199.61 260.68 200.09 268.07 200.93 C 275.47 201.77 283.71 203.29 290.22 205.78 C 296.74 208.26 303.38 210.55 308.75 214.25 C 314.11 217.96 320.57 220.90 324.75 225.25 C 328.92 229.60 335.58 234.47 337.75 239.25 C 339.93 244.02 349.08 250.99 348.00 256.00
C 353.38 250.73 343.85 241.06 339.75 234.25 C 335.66 227.43 328.87 221.01 322.25 215.75 C 315.63 210.49 309.26 205.66 301.08 201.92 C 292.89 198.19 282.98 194.78 273.67 193.33 C 264.36 191.88 250.36 191.14 241.02 193.02 C 231.69 194.91 221.48 197.37 213.23 201.23 C 204.98 205.09 199.00 209.76 192.08 215.08 C 185.16 220.40 179.65 226.56 174.25 233.25 C 168.86 239.94 164.97 248.17 162.00 256.00
C 163.10 255.95 164.16 256.31 165.00 257.00 Z"/>
</g>
<g fill="None" fill-opacity="0.0" stroke="#304556" stroke-opacity="1.00" stroke-width="0.3"><path d="
M 398.00 193.00 
C 387.90 189.45 382.77 203.88 391.93 208.07 C 401.08 212.26 406.47 195.98 398.00 193.00 Z"/>
</g>
<g fill="None" fill-opacity="0.0" stroke="#304556" stroke-opacity="1.00" stroke-width="0.3"><path d="
M 122.00 194.00 
C 112.63 190.19 105.09 201.99 113.78 208.22 C 122.47 214.45 130.42 197.43 122.00 194.00 Z"/>
</g>
<g fill="None" fill-opacity="0.0" stroke="#FEDA80" stroke-opacity="1.00" stroke-width="0.3"><path d="
M 165.00 257.00 
C 168.42 258.70 170.88 261.72 174.00 264.00
C 181.47 255.42 188.83 248.48 199.78 244.78 C 210.72 241.08 227.20 238.06 238.98 243.02 C 250.75 247.99 262.19 248.03 273.99 242.99 C 285.79 237.95 302.23 241.20 313.32 244.68 C 324.42 248.16 331.31 255.50 340.00 263.00
C 341.77 259.80 345.45 258.20 348.00 256.00
C 349.08 250.99 339.93 244.02 337.75 239.25 C 335.58 234.47 328.92 229.60 324.75 225.25 C 320.57 220.90 314.11 217.96 308.75 214.25 C 303.38 210.55 296.74 208.26 290.22 205.78 C 283.71 203.29 275.47 201.77 268.07 200.93 C 260.68 200.09 250.36 199.61 243.01 201.01 C 235.65 202.40 227.78 203.53 221.22 206.22 C 214.67 208.92 208.90 211.70 203.08 215.08 C 197.26 218.47 192.50 222.13 187.75 226.75 C 183.00 231.38 178.35 235.49 174.77 240.77 C 171.19 246.05 167.64 251.16 165.00 257.00 Z"/>
</g>
<g fill="None" fill-opacity="0.0" stroke="#304556" stroke-opacity="1.00" stroke-width="0.3"><path d="
M 389.00 220.00 
C 379.22 218.70 376.02 233.66 386.00 236.00 C 395.98 238.33 398.45 221.26 389.00 220.00 Z"/>
</g>
<g fill="None" fill-opacity="0.0" stroke="#314657" stroke-opacity="1.00" stroke-width="0.3"><path d="
M 128.00 221.00 
C 117.26 217.79 113.11 233.00 122.78 236.22 C 132.44 239.43 136.41 223.51 128.00 221.00 Z"/>
</g>
<g fill="None" fill-opacity="0.0" stroke="#B3DCA4" stroke-opacity="0.99" stroke-width="0.3"><path d="
M 171.00 317.00 
C 168.21 313.37 180.30 305.21 178.98 298.98 C 177.65 292.74 182.73 284.49 187.75 279.75 C 192.77 275.01 198.40 270.93 205.08 268.08 C 211.76 265.22 222.22 264.11 230.00 265.00 C 237.78 265.89 244.81 270.71 252.00 272.00
C 254.30 272.41 257.68 272.27 260.00 272.00
C 271.48 270.65 290.26 260.69 302.02 265.98 C 313.79 271.27 326.47 274.47 332.00 287.00
C 330.32 269.54 312.50 257.79 295.00 257.00 C 277.50 256.21 257.25 268.56 240.07 259.93 C 222.89 251.29 202.36 258.63 189.25 270.25 C 176.14 281.86 180.93 301.62 165.00 312.00
C 167.30 313.19 168.70 315.69 171.00 317.00 Z"/>
</g>
<g fill="None" fill-opacity="0.0" stroke="#96DE7D" stroke-opacity="1.00" stroke-width="0.3"><path d="
M 171.00 317.00 
C 182.76 326.50 181.58 309.30 190.33 306.33 C 199.08 303.36 207.03 314.62 214.77 317.23 C 222.51 319.84 227.75 328.96 236.25 330.75 C 244.76 332.53 251.70 347.65 241.00 350.00 C 230.31 352.35 225.81 340.25 217.23 337.77 C 208.65 335.29 203.72 326.51 195.00 325.00
C 192.69 331.18 188.49 340.20 180.00 338.00
C 180.32 343.49 179.80 348.81 179.00 354.00
C 189.71 338.88 216.15 341.68 221.00 360.00
C 229.12 355.59 246.17 364.09 239.75 372.75 C 233.34 381.41 221.23 373.01 214.02 380.02 C 206.82 387.04 194.30 382.21 186.67 382.33 C 179.05 382.45 169.44 370.89 163.75 377.75 C 158.06 384.62 147.13 383.64 141.26 388.26 C 135.39 392.88 135.46 409.24 136.00 416.00
C 139.07 427.84 149.26 439.66 161.23 444.77 C 173.20 449.88 188.09 455.46 200.23 460.77 C 212.37 466.08 222.08 475.55 232.75 483.25 C 243.41 490.96 267.06 491.06 278.23 484.23 C 289.40 477.40 297.77 466.22 310.23 461.23 C 322.69 456.24 336.96 450.16 349.23 445.23 C 361.50 440.29 372.66 428.48 376.00 417.00
C 374.84 409.66 377.41 393.27 370.69 388.31 C 363.98 383.35 354.32 384.50 348.23 377.77 C 342.14 371.04 333.08 382.11 325.22 382.22 C 317.36 382.33 304.54 386.63 297.23 379.77 C 289.92 372.91 277.58 381.29 271.93 372.07 C 266.27 362.86 283.37 356.43 291.00 360.00
C 295.85 341.71 322.28 338.84 333.00 354.00
C 331.72 348.88 331.96 343.44 332.00 338.00
C 322.77 340.53 320.18 330.22 316.00 325.00
C 308.00 328.00 300.03 336.46 292.25 339.25 C 284.46 342.03 276.74 355.77 267.75 348.25 C 258.77 340.72 273.16 331.29 279.92 327.92 C 286.68 324.55 296.39 318.04 302.77 313.77 C 309.15 309.50 323.14 299.88 327.08 311.92 C 331.02 323.96 342.34 319.14 346.00 310.00
C 338.00 305.60 332.70 295.88 332.00 287.00
C 326.47 274.47 313.79 271.27 302.02 265.98 C 290.26 260.69 271.48 270.65 260.00 272.00
C 272.18 274.52 277.27 290.10 279.93 302.07 C 282.58 314.05 268.98 327.98 256.00 328.00 C 243.01 328.02 229.38 313.96 232.00 302.00 C 234.62 290.04 240.01 274.48 252.00 272.00
C 244.81 270.71 237.78 265.89 230.00 265.00 C 222.22 264.11 211.76 265.22 205.08 268.08 C 198.40 270.93 192.77 275.01 187.75 279.75 C 182.73 284.49 177.65 292.74 178.98 298.98 C 180.30 305.21 168.21 313.37 171.00 317.00
M 236.00 399.00 
C 243.21 396.86 250.39 399.18 256.00 404.00
C 261.64 399.14 268.75 396.90 276.00 399.00
C 270.03 394.58 267.27 382.03 276.08 380.08 C 284.88 378.12 289.10 390.76 291.32 395.68 C 293.54 400.60 289.41 416.83 280.92 414.92 C 272.43 413.02 263.90 419.55 255.99 419.99 C 248.09 420.43 240.31 412.46 232.00 415.00 C 223.69 417.54 218.08 401.47 220.33 396.33 C 222.58 391.19 226.10 379.19 235.01 380.01 C 243.91 380.83 242.90 394.58 236.00 399.00
M 223.00 424.00 
C 230.02 425.00 235.92 434.23 244.00 432.00 C 252.08 429.77 260.77 429.69 269.00 432.00 C 277.24 434.30 282.75 422.21 291.02 424.02 C 299.30 425.84 304.36 426.27 312.23 429.77 C 320.10 433.27 313.15 445.47 305.00 444.00 C 296.85 442.53 294.43 454.29 288.25 457.25 C 282.07 460.21 277.75 467.55 269.93 467.93 C 262.10 468.30 249.06 468.34 241.33 467.67 C 233.60 467.00 228.80 459.51 222.75 456.25 C 216.71 452.99 214.25 441.85 205.98 444.02 C 197.70 446.20 192.26 430.69 200.23 429.23 C 208.21 427.77 214.45 422.78 223.00 424.00 Z"/>
</g>
<g fill="None" fill-opacity="0.0" stroke="#F9775D" stroke-opacity="0.99" stroke-width="0.3"><path d="
M 132.00 282.00 
C 134.59 294.94 161.40 294.99 164.00 282.00
C 162.10 263.73 133.90 263.74 132.00 282.00 Z"/>
</g>
<g fill="None" fill-opacity="0.0" stroke="#F9775D" stroke-opacity="0.99" stroke-width="0.3"><path d="
M 348.00 282.00 
C 350.59 294.93 377.40 294.99 380.00 282.00
C 378.10 263.73 349.90 263.74 348.00 282.00 Z"/>
</g>
<g fill="None" fill-opacity="0.0" stroke="#2E4456" stroke-opacity="1.00" stroke-width="0.3"><path d="
M 260.00 272.00 
C 257.68 272.27 254.30 272.41 252.00 272.00
C 240.01 274.48 234.62 290.04 232.00 302.00 C 229.38 313.96 243.01 328.02 256.00 328.00 C 268.98 327.98 282.58 314.05 279.93 302.07 C 277.27 290.10 272.18 274.52 260.00 272.00
M 257.00 288.00 
C 263.22 293.98 268.75 313.13 255.00 312.00 C 241.24 310.87 250.36 291.04 257.00 288.00 Z"/>
</g>
<g fill="None" fill-opacity="0.0" stroke="#CF624F" stroke-opacity="0.98" stroke-width="0.3"><path d="
M 164.00 282.00 
C 161.40 294.99 134.59 294.94 132.00 282.00
C 129.58 305.24 166.42 305.24 164.00 282.00 Z"/>
</g>
<g fill="None" fill-opacity="0.0" stroke="#CF624F" stroke-opacity="0.98" stroke-width="0.3"><path d="
M 380.00 282.00 
C 377.40 294.99 350.59 294.93 348.00 282.00
C 345.58 305.24 382.42 305.24 380.00 282.00 Z"/>
</g>
<g fill="None" fill-opacity="0.0" stroke="#DAE6EC" stroke-opacity="1.00" stroke-width="0.3"><path d="
M 257.00 288.00 
C 250.36 291.04 241.24 310.87 255.00 312.00 C 268.75 313.13 263.22 293.98 257.00 288.00 Z"/>
</g>
<g fill="None" fill-opacity="0.0" stroke="#F7E0A6" stroke-opacity="0.98" stroke-width="0.3"><path d="
M 108.00 342.00 
C 108.04 342.22 108.89 342.65 109.00 343.00
C 112.16 340.91 112.26 334.93 116.25 332.25 C 120.23 329.57 122.43 326.91 127.22 325.22 C 132.02 323.54 139.33 324.31 144.01 324.99 C 148.69 325.67 151.94 330.40 155.25 331.75 C 158.55 333.10 161.80 343.22 163.00 343.00
C 163.07 342.76 164.01 340.92 164.00 341.00
C 161.36 307.71 110.25 309.01 108.00 342.00 Z"/>
</g>
<g fill="None" fill-opacity="0.0" stroke="#F8E0A6" stroke-opacity="0.98" stroke-width="0.3"><path d="
M 348.00 342.00 
C 348.04 342.22 348.89 342.65 349.00 343.00
C 353.86 339.78 355.83 329.42 363.08 327.08 C 370.33 324.75 382.00 322.28 388.22 326.78 C 394.44 331.28 402.57 335.45 403.00 343.00
C 403.17 342.12 403.98 339.32 404.00 339.00
C 399.52 306.91 350.15 310.35 348.00 342.00 Z"/>
</g>
<g fill="None" fill-opacity="0.0" stroke="#FEDA80" stroke-opacity="1.00" stroke-width="0.3"><path d="
M 109.00 343.00 
C 117.43 369.91 154.90 370.64 163.00 343.00
C 161.80 343.22 158.55 333.10 155.25 331.75 C 151.94 330.40 148.69 325.67 144.01 324.99 C 139.33 324.31 132.02 323.54 127.22 325.22 C 122.43 326.91 120.23 329.57 116.25 332.25 C 112.26 334.93 112.16 340.91 109.00 343.00 Z"/>
</g>
<g fill="None" fill-opacity="0.0" stroke="#FEDA80" stroke-opacity="1.00" stroke-width="0.3"><path d="
M 349.00 343.00 
C 356.96 368.42 397.18 372.17 403.00 343.00
C 402.57 335.45 394.44 331.28 388.22 326.78 C 382.00 322.28 370.33 324.75 363.08 327.08 C 355.83 329.42 353.86 339.78 349.00 343.00 Z"/>
</g>
<g fill="None" fill-opacity="0.0" stroke="#D7B86E" stroke-opacity="0.98" stroke-width="0.3"><path d="
M 403.00 343.00 
C 397.18 372.17 356.96 368.42 349.00 343.00
C 348.89 342.65 348.04 342.22 348.00 342.00
C 346.84 359.07 361.23 373.15 378.00 372.00 C 394.76 370.85 406.31 355.56 404.00 339.00
C 403.98 339.32 403.17 342.12 403.00 343.00 Z"/>
</g>
<g fill="None" fill-opacity="0.0" stroke="#D7B86E" stroke-opacity="0.98" stroke-width="0.3"><path d="
M 163.00 343.00 
C 154.90 370.64 117.43 369.91 109.00 343.00
C 108.89 342.65 108.04 342.22 108.00 342.00
C 105.33 381.21 167.14 380.54 164.00 341.00
C 164.01 340.92 163.07 342.76 163.00 343.00 Z"/>
</g>
<g fill="None" fill-opacity="0.0" stroke="#000000" stroke-opacity="0.00" stroke-width="0.3"><path d="
M 205.00 366.00 
C 205.46 358.50 191.01 359.44 192.00 367.00
C 196.46 367.23 200.85 366.95 205.00 366.00 Z"/>
</g>
<g fill="None" fill-opacity="0.0" stroke="#000000" stroke-opacity="0.00" stroke-width="0.3"><path d="
M 320.00 367.00 
C 320.57 359.43 306.70 358.53 307.00 366.00
C 311.21 366.93 315.50 367.25 320.00 367.00 Z"/>
</g>
<g fill="None" fill-opacity="0.0" stroke="#2D4456" stroke-opacity="1.00" stroke-width="0.3"><path d="
M 236.00 399.00 
C 242.90 394.58 243.91 380.83 235.01 380.01 C 226.10 379.19 222.58 391.19 220.33 396.33 C 218.08 401.47 223.69 417.54 232.00 415.00 C 240.31 412.46 248.09 420.43 255.99 419.99 C 263.90 419.55 272.43 413.02 280.92 414.92 C 289.41 416.83 293.54 400.60 291.32 395.68 C 289.10 390.76 284.88 378.12 276.08 380.08 C 267.27 382.03 270.03 394.58 276.00 399.00
C 268.75 396.90 261.64 399.14 256.00 404.00
C 250.39 399.18 243.21 396.86 236.00 399.00 Z"/>
</g>
<g fill="None" fill-opacity="0.0" stroke="#81C16A" stroke-opacity="0.99" stroke-width="0.3"><path d="
M 376.00 417.00 
C 372.66 428.48 361.50 440.29 349.23 445.23 C 336.96 450.16 322.69 456.24 310.23 461.23 C 297.77 466.22 289.40 477.40 278.23 484.23 C 267.06 491.06 243.41 490.96 232.75 483.25 C 222.08 475.55 212.37 466.08 200.23 460.77 C 188.09 455.46 173.20 449.88 161.23 444.77 C 149.26 439.66 139.07 427.84 136.00 416.00
C 138.33 445.39 163.93 455.86 188.78 463.22 C 213.62 470.58 228.64 496.07 256.00 496.00 C 283.36 495.93 298.80 470.82 323.32 463.32 C 347.85 455.83 373.46 445.86 376.00 417.00 Z"/>
</g>
<g fill="None" fill-opacity="0.0" stroke="#2E4456" stroke-opacity="1.00" stroke-width="0.3"><path d="
M 223.00 424.00 
C 214.45 422.78 208.21 427.77 200.23 429.23 C 192.26 430.69 197.70 446.20 205.98 444.02 C 214.25 441.85 216.71 452.99 222.75 456.25 C 228.80 459.51 233.60 467.00 241.33 467.67 C 249.06 468.34 262.10 468.30 269.93 467.93 C 277.75 467.55 282.07 460.21 288.25 457.25 C 294.43 454.29 296.85 442.53 305.00 444.00 C 313.15 445.47 320.10 433.27 312.23 429.77 C 304.36 426.27 299.30 425.84 291.02 424.02 C 282.75 422.21 277.24 434.30 269.00 432.00 C 260.77 429.69 252.08 429.77 244.00 432.00 C 235.92 434.23 230.02 425.00 223.00 424.00
M 275.00 448.00 
C 264.52 454.28 247.45 454.27 237.00 448.00
C 248.98 445.93 263.09 445.62 275.00 448.00 Z"/>
</g>
<g fill="None" fill-opacity="0.0" stroke="#E97C5F" stroke-opacity="1.00" stroke-width="0.3"><path d="
M 275.00 448.00 
C 263.09 445.62 248.98 445.93 237.00 448.00
C 247.45 454.27 264.52 454.28 275.00 448.00 Z"/>
</g>
<g fill="#000000" fill-opacity="0.00" stroke="None">
<path d="
M 0.00 512.00 
L 237.00 512.00
C 218.45 504.87 205.80 487.55 186.77 480.23 C 167.74 472.91 147.31 468.99 132.75 452.25 C 118.19 435.50 117.49 406.88 123.00 386.00
C 82.84 377.81 81.69 312.94 121.00 302.00
C 75.38 251.55 64.01 169.96 89.92 108.92 C 115.84 47.89 171.05 9.30 234.00 0.00
L 0.00 0.00
L 0.00 512.00 Z"/>
</g>
<g fill="#2D4356" fill-opacity="0.97" stroke="None">
<path d="
M 237.00 512.00 
L 275.00 512.00
C 293.54 504.80 306.22 487.59 325.23 480.23 C 344.24 472.87 364.72 469.03 379.25 452.25 C 393.78 435.47 394.54 406.90 389.00 386.00
C 429.16 377.81 430.31 312.94 391.00 302.00
C 436.57 251.52 447.98 169.96 422.08 108.92 C 396.17 47.89 340.95 9.30 278.00 0.00
L 234.00 0.00
C 171.05 9.30 115.84 47.89 89.92 108.92 C 64.01 169.96 75.38 251.55 121.00 302.00
C 81.69 312.94 82.84 377.81 123.00 386.00
C 117.49 406.88 118.19 435.50 132.75 452.25 C 147.31 468.99 167.74 472.91 186.77 480.23 C 205.80 487.55 218.45 504.87 237.00 512.00
M 266.00 16.00 
C 305.00 19.77 341.73 33.53 370.25 61.75 C 398.76 89.97 415.21 124.85 419.00 164.00
C 422.62 201.45 413.81 239.07 393.00 270.00
C 390.31 265.67 386.33 261.16 382.00 258.00
C 387.82 247.86 371.16 241.02 367.00 251.00
C 359.16 240.03 359.10 231.13 364.78 219.78 C 370.46 208.42 370.96 194.49 372.00 182.00 C 373.04 169.51 369.35 154.17 366.02 142.98 C 362.70 131.78 356.83 122.62 350.75 113.25 C 344.66 103.88 337.21 97.47 328.92 90.08 C 320.63 82.70 310.18 76.99 300.00 73.00
C 300.49 73.65 300.83 81.05 301.00 82.00
C 302.12 85.54 303.51 89.02 303.00 93.00
C 347.14 114.33 367.52 172.36 348.00 217.00
C 335.03 210.56 334.84 198.73 333.00 187.00 C 331.16 175.26 322.74 167.96 314.75 159.25 C 306.76 150.54 297.42 147.10 286.92 141.08 C 276.43 135.05 277.94 119.59 285.92 108.92 C 293.91 98.26 283.45 83.34 280.08 72.92 C 276.70 62.51 283.56 43.14 270.92 36.08 C 258.28 29.02 248.86 29.57 239.23 39.23 C 229.61 48.89 237.57 66.58 230.25 76.25 C 222.92 85.92 220.09 102.38 227.77 112.23 C 235.45 122.07 236.47 136.83 224.92 141.92 C 213.38 147.02 205.61 151.93 197.25 160.25 C 188.89 168.56 181.95 177.53 180.07 189.07 C 178.20 200.62 176.67 212.63 164.00 219.00
C 144.78 173.91 163.69 114.97 209.00 93.00
C 208.71 89.09 209.59 85.48 211.00 82.00
C 211.23 80.74 211.05 79.86 212.00 78.00
C 212.73 76.01 213.89 73.80 215.00 72.00
C 207.51 77.09 196.37 78.77 189.25 85.25 C 182.14 91.73 174.64 96.54 168.25 104.25 C 161.86 111.96 157.01 118.45 152.69 127.69 C 148.38 136.94 143.86 146.53 142.07 157.07 C 140.29 167.61 138.83 182.12 141.00 193.00 C 143.17 203.89 143.27 214.90 149.31 224.69 C 155.34 234.49 151.48 242.33 146.00 252.00
C 141.77 241.65 125.49 247.27 130.00 258.00
C 125.58 261.23 121.70 265.72 119.00 270.00
C 98.76 239.87 89.85 204.25 92.00 167.00
C 94.72 126.99 112.56 91.97 140.75 62.75 C 168.95 33.54 207.61 19.81 247.00 16.00
C 252.98 15.42 260.09 15.43 266.00 16.00
M 317.00 193.00 
C 281.35 170.37 233.26 171.49 197.00 192.00
C 198.92 181.47 204.98 175.27 213.25 168.25 C 221.52 161.22 228.94 158.66 239.08 153.08 C 249.21 147.49 249.44 135.00 250.00 124.00 C 250.56 113.00 238.40 104.28 240.00 93.00 C 241.60 81.72 255.89 76.43 250.00 62.00 C 244.11 47.57 266.10 42.90 264.00 58.00 C 261.89 73.10 266.78 80.20 271.32 91.68 C 275.86 103.16 261.92 112.42 264.00 124.00 C 266.08 135.58 263.75 147.54 274.75 153.25 C 285.74 158.97 291.85 161.32 300.70 168.30 C 309.54 175.28 313.75 182.24 316.98 192.02
M 348.00 256.00 
C 345.45 258.20 341.77 259.80 340.00 263.00
C 331.31 255.50 324.42 248.16 313.32 244.68 C 302.23 241.20 285.79 237.95 273.99 242.99 C 262.19 248.03 250.75 247.99 238.98 243.02 C 227.20 238.06 210.72 241.08 199.78 244.78 C 188.83 248.48 181.47 255.42 174.00 264.00
C 170.88 261.72 168.42 258.70 165.00 257.00
C 164.16 256.31 163.10 255.95 162.00 256.00
C 164.97 248.17 168.86 239.94 174.25 233.25 C 179.65 226.56 185.16 220.40 192.08 215.08 C 199.00 209.76 204.98 205.09 213.23 201.23 C 221.48 197.37 231.69 194.91 241.02 193.02 C 250.36 191.14 264.36 191.88 273.67 193.33 C 282.98 194.78 292.89 198.19 301.08 201.92 C 309.26 205.66 315.63 210.49 322.25 215.75 C 328.87 221.01 335.66 227.43 339.75 234.25 C 343.85 241.06 353.38 250.73 348.00 256.00
M 332.00 287.00 
C 332.70 295.88 338.00 305.60 346.00 310.00
C 342.34 319.14 331.02 323.96 327.08 311.92 C 323.14 299.88 309.15 309.50 302.77 313.77 C 296.39 318.04 286.68 324.55 279.92 327.92 C 273.16 331.29 258.77 340.72 267.75 348.25 C 276.74 355.77 284.46 342.03 292.25 339.25 C 300.03 336.46 308.00 328.00 316.00 325.00
C 320.18 330.22 322.77 340.53 332.00 338.00
C 331.96 343.44 331.72 348.88 333.00 354.00
C 322.28 338.84 295.85 341.71 291.00 360.00
C 283.37 356.43 266.27 362.86 271.93 372.07 C 277.58 381.29 289.92 372.91 297.23 379.77 C 304.54 386.63 317.36 382.33 325.22 382.22 C 333.08 382.11 342.14 371.04 348.23 377.77 C 354.32 384.50 363.98 383.35 370.69 388.31 C 377.41 393.27 374.84 409.66 376.00 417.00
C 373.46 445.86 347.85 455.83 323.32 463.32 C 298.80 470.82 283.36 495.93 256.00 496.00 C 228.64 496.07 213.62 470.58 188.78 463.22 C 163.93 455.86 138.33 445.39 136.00 416.00
C 135.46 409.24 135.39 392.88 141.26 388.26 C 147.13 383.64 158.06 384.62 163.75 377.75 C 169.44 370.89 179.05 382.45 186.67 382.33 C 194.30 382.21 206.82 387.04 214.02 380.02 C 221.23 373.01 233.34 381.41 239.75 372.75 C 246.17 364.09 229.12 355.59 221.00 360.00
C 216.15 341.68 189.71 338.88 179.00 354.00
C 179.80 348.81 180.32 343.49 180.00 338.00
C 188.49 340.20 192.69 331.18 195.00 325.00
C 203.72 326.51 208.65 335.29 217.23 337.77 C 225.81 340.25 230.31 352.35 241.00 350.00 C 251.70 347.65 244.76 332.53 236.25 330.75 C 227.75 328.96 222.51 319.84 214.77 317.23 C 207.03 314.62 199.08 303.36 190.33 306.33 C 181.58 309.30 182.76 326.50 171.00 317.00
C 168.70 315.69 167.30 313.19 165.00 312.00
C 180.93 301.62 176.14 281.86 189.25 270.25 C 202.36 258.63 222.89 251.29 240.07 259.93 C 257.25 268.56 277.50 256.21 295.00 257.00 C 312.50 257.79 330.32 269.54 332.00 287.00
M 164.00 282.00 
C 166.42 305.24 129.58 305.24 132.00 282.00
C 133.90 263.74 162.10 263.73 164.00 282.00
M 380.00 282.00 
C 382.42 305.24 345.58 305.24 348.00 282.00
C 349.90 263.74 378.10 263.73 380.00 282.00
M 164.00 341.00 
C 167.14 380.54 105.33 381.21 108.00 342.00
C 110.25 309.01 161.36 307.71 164.00 341.00
M 404.00 339.00 
C 406.31 355.56 394.76 370.85 378.00 372.00 C 361.23 373.15 346.84 359.07 348.00 342.00
C 350.15 310.35 399.52 306.91 404.00 339.00
M 205.00 366.00 
C 200.85 366.95 196.46 367.23 192.00 367.00
C 191.01 359.44 205.46 358.50 205.00 366.00
M 320.00 367.00 
C 315.50 367.25 311.21 366.93 307.00 366.00
C 306.70 358.53 320.57 359.43 320.00 367.00 Z"/>
</g>
<g fill="#000000" fill-opacity="0.00" stroke="None">
<path d="
M 275.00 512.00 
L 512.00 512.00
L 512.00 0.00
L 278.00 0.00
C 340.95 9.30 396.17 47.89 422.08 108.92 C 447.98 169.96 436.57 251.52 391.00 302.00
C 430.31 312.94 429.16 377.81 389.00 386.00
C 394.54 406.90 393.78 435.47 379.25 452.25 C 364.72 469.03 344.24 472.87 325.23 480.23 C 306.22 487.59 293.54 504.80 275.00 512.00 Z"/>
</g>
<g fill="#57615E" fill-opacity="0.94" stroke="None">
<path d="
M 247.00 16.00 
C 251.71 14.96 261.29 14.96 266.00 16.00
C 260.09 15.43 252.98 15.42 247.00 16.00 Z"/>
</g>
<g fill="#F4DDA3" fill-opacity="1.00" stroke="None">
<path d="
M 92.00 167.00 
C 94.23 156.03 98.53 142.26 101.98 130.98 C 105.42 119.70 111.98 109.81 117.77 99.77 C 123.56 89.73 130.72 82.46 138.75 73.75 C 146.78 65.04 154.39 59.79 163.70 52.70 C 173.00 45.60 183.62 41.88 194.08 36.08 C 204.53 30.28 220.42 31.00 231.00 26.00
C 236.27 23.51 241.01 17.33 247.00 16.00
C 207.61 19.81 168.95 33.54 140.75 62.75 C 112.56 91.97 94.72 126.99 92.00 167.00 Z"/>
</g>
<g fill="#F9ECD0" fill-opacity="0.46" stroke="None">
<path d="
M 231.00 26.00 
C 237.30 23.44 249.29 24.39 256.07 24.07 C 262.85 23.75 274.26 24.27 281.00 26.00
C 278.05 23.42 271.73 17.27 266.00 16.00
C 261.29 14.96 251.71 14.96 247.00 16.00
C 241.01 17.33 236.27 23.51 231.00 26.00 Z"/>
</g>
<g fill="#F5DEA4" fill-opacity="1.00" stroke="None">
<path d="
M 281.00 26.00 
C 282.00 26.26 283.63 27.82 285.00 28.00
C 291.09 28.80 294.55 27.58 301.67 30.33 C 308.79 33.08 308.21 32.78 317.08 35.92 C 325.94 39.07 336.91 44.73 344.75 50.25 C 352.58 55.78 350.21 53.27 357.70 59.30 C 365.19 65.33 372.36 72.50 379.25 79.75 C 386.14 87.00 391.96 96.34 397.30 104.70 C 402.64 113.05 407.36 124.28 410.78 133.22 C 414.19 142.17 413.96 142.68 415.33 149.67 C 416.70 156.66 418.75 163.29 419.00 164.00
C 415.21 124.85 398.76 89.97 370.25 61.75 C 341.73 33.53 305.00 19.77 266.00 16.00
C 271.73 17.27 278.05 23.42 281.00 26.00 Z"/>
</g>
<g fill="#000000" fill-opacity="0.00" stroke="None">
<path d="
M 231.00 26.00 
C 227.02 27.62 221.23 38.53 220.00 42.00
C 218.81 45.36 219.43 49.39 219.00 53.00
C 218.20 59.77 218.45 66.43 215.00 72.00
C 213.89 73.80 212.73 76.01 212.00 78.00
C 211.54 79.26 211.40 80.68 211.00 82.00
C 209.59 85.48 208.71 89.09 209.00 93.00
C 163.69 114.97 144.78 173.91 164.00 219.00
C 176.67 212.63 178.20 200.62 180.07 189.07 C 181.95 177.53 188.89 168.56 197.25 160.25 C 205.61 151.93 213.38 147.02 224.92 141.92 C 236.47 136.83 235.45 122.07 227.77 112.23 C 220.09 102.38 222.92 85.92 230.25 76.25 C 237.57 66.58 229.61 48.89 239.23 39.23 C 248.86 29.57 258.28 29.02 270.92 36.08 C 283.56 43.14 276.70 62.51 280.08 72.92 C 283.45 83.34 293.91 98.26 285.92 108.92 C 277.94 119.59 276.43 135.05 286.92 141.08 C 297.42 147.10 306.76 150.54 314.75 159.25 C 322.74 167.96 331.16 175.26 333.00 187.00 C 334.84 198.73 335.03 210.56 348.00 217.00
C 367.52 172.36 347.14 114.33 303.00 93.00
C 303.51 89.02 302.12 85.54 301.00 82.00
C 299.89 78.49 298.66 75.36 297.00 72.00
C 294.34 66.62 295.00 60.43 295.00 54.00
C 295.00 52.34 295.06 50.66 295.00 49.00
C 294.78 47.29 293.74 42.99 293.00 41.00
C 291.85 37.91 287.54 30.08 285.00 28.00
C 283.63 27.82 282.00 26.26 281.00 26.00
C 274.26 24.27 262.85 23.75 256.07 24.07 C 249.29 24.39 237.30 23.44 231.00 26.00 Z"/>
</g>
<g fill="#FBD87F" fill-opacity="1.00" stroke="None">
<path d="
M 92.00 167.00 
C 89.85 204.25 98.76 239.87 119.00 270.00
C 121.70 265.72 125.58 261.23 130.00 258.00
C 125.49 247.27 141.77 241.65 146.00 252.00
C 151.48 242.33 155.34 234.49 149.31 224.69 C 143.27 214.90 143.17 203.89 141.00 193.00 C 138.83 182.12 140.29 167.61 142.07 157.07 C 143.86 146.53 148.38 136.94 152.69 127.69 C 157.01 118.45 161.86 111.96 168.25 104.25 C 174.64 96.54 182.14 91.73 189.25 85.25 C 196.37 78.77 207.51 77.09 215.00 72.00
C 218.45 66.43 218.20 59.77 219.00 53.00
C 214.55 58.80 204.71 50.59 206.00 45.00 C 207.30 39.40 217.87 35.50 220.00 42.00
C 221.23 38.53 227.02 27.62 231.00 26.00
C 220.42 31.00 204.53 30.28 194.08 36.08 C 183.62 41.88 173.00 45.60 163.70 52.70 C 154.39 59.79 146.78 65.04 138.75 73.75 C 130.72 82.46 123.56 89.73 117.77 99.77 C 111.98 109.81 105.42 119.70 101.98 130.98 C 98.53 142.26 94.23 156.03 92.00 167.00
M 191.00 50.00 
C 200.35 52.51 194.67 69.36 185.00 65.00 C 175.33 60.64 181.38 47.42 191.00 50.00
M 167.00 66.00 
C 176.31 68.36 171.85 84.99 162.33 81.67 C 152.81 78.34 157.31 63.54 167.00 66.00
M 149.00 87.00 
C 157.80 90.43 150.90 106.25 141.78 101.22 C 132.66 96.19 139.55 83.31 149.00 87.00
M 134.00 111.00 
C 143.00 114.17 135.82 130.41 126.78 125.22 C 117.73 120.03 124.39 107.62 134.00 111.00
M 123.00 137.00 
C 132.00 139.28 128.04 156.04 118.33 152.67 C 108.62 149.30 113.15 134.50 123.00 137.00
M 118.00 165.00 
C 127.83 166.42 124.41 183.79 114.33 180.67 C 104.25 177.55 108.40 163.61 118.00 165.00
M 122.00 194.00 
C 130.42 197.43 122.47 214.45 113.78 208.22 C 105.09 201.99 112.63 190.19 122.00 194.00
M 128.00 221.00 
C 136.41 223.51 132.44 239.43 122.78 236.22 C 113.11 233.00 117.26 217.79 128.00 221.00 Z"/>
</g>
<g fill="#FBD87F" fill-opacity="1.00" stroke="None">
<path d="
M 285.00 28.00 
C 287.54 30.08 291.85 37.91 293.00 41.00
C 294.07 36.24 303.77 37.79 304.77 43.23 C 305.77 48.67 302.74 56.66 295.00 54.00
C 295.00 60.43 294.34 66.62 297.00 72.00
C 297.63 72.32 299.43 72.77 300.00 73.00
C 310.18 76.99 320.63 82.70 328.92 90.08 C 337.21 97.47 344.66 103.88 350.75 113.25 C 356.83 122.62 362.70 131.78 366.02 142.98 C 369.35 154.17 373.04 169.51 372.00 182.00 C 370.96 194.49 370.46 208.42 364.78 219.78 C 359.10 231.13 359.16 240.03 367.00 251.00
C 371.16 241.02 387.82 247.86 382.00 258.00
C 386.33 261.16 390.31 265.67 393.00 270.00
C 413.81 239.07 422.62 201.45 419.00 164.00
C 418.75 163.29 416.70 156.66 415.33 149.67 C 413.96 142.68 414.19 142.17 410.78 133.22 C 407.36 124.28 402.64 113.05 397.30 104.70 C 391.96 96.34 386.14 87.00 379.25 79.75 C 372.36 72.50 365.19 65.33 357.70 59.30 C 350.21 53.27 352.58 55.78 344.75 50.25 C 336.91 44.73 325.94 39.07 317.08 35.92 C 308.21 32.78 308.79 33.08 301.67 30.33 C 294.55 27.58 291.09 28.80 285.00 28.00
M 327.00 50.00 
C 335.95 52.82 329.44 69.91 320.33 64.67 C 311.22 59.43 317.36 46.96 327.00 50.00
M 350.00 66.00 
C 359.44 68.69 353.49 85.39 344.00 81.00 C 334.51 76.61 340.27 63.22 350.00 66.00
M 369.00 86.00 
C 378.00 88.28 374.04 105.04 364.33 101.67 C 354.62 98.30 359.15 83.50 369.00 86.00
M 384.00 110.00 
C 393.20 112.33 389.01 128.96 379.33 125.67 C 369.65 122.38 374.12 107.50 384.00 110.00
M 395.00 137.00 
C 404.00 139.84 397.48 156.56 388.33 151.67 C 379.18 146.78 385.25 133.92 395.00 137.00
M 399.00 165.00 
C 408.25 167.64 402.45 184.26 393.00 180.00 C 383.55 175.74 389.01 162.15 399.00 165.00
M 398.00 193.00 
C 406.47 195.98 401.08 212.26 391.93 208.07 C 382.77 203.88 387.90 189.45 398.00 193.00
M 389.00 220.00 
C 398.45 221.26 395.98 238.33 386.00 236.00 C 376.02 233.66 379.22 218.70 389.00 220.00 Z"/>
</g>
<g fill="#334757" fill-opacity="1.00" stroke="None">
<path d="
M 293.00 41.00 
C 292.84 41.71 294.94 47.23 295.00 49.00
C 295.06 50.66 295.00 52.34 295.00 54.00
C 302.74 56.66 305.77 48.67 304.77 43.23 C 303.77 37.79 294.07 36.24 293.00 41.00 Z"/>
</g>
<g fill="#334757" fill-opacity="0.97" stroke="None">
<path d="
M 219.00 53.00 
C 219.43 49.39 218.81 45.36 220.00 42.00
C 217.87 35.50 207.30 39.40 206.00 45.00 C 204.71 50.59 214.55 58.80 219.00 53.00 Z"/>
</g>
<g fill="#81866C" fill-opacity="0.55" stroke="None">
<path d="
M 295.00 49.00 
C 294.94 47.23 292.84 41.71 293.00 41.00
C 293.74 42.99 294.78 47.29 295.00 49.00 Z"/>
</g>
<g fill="#F8785E" fill-opacity="0.99" stroke="None">
<path d="
M 316.98 192.02 
C 313.75 182.24 309.54 175.28 300.70 168.30 C 291.85 161.32 285.74 158.97 274.75 153.25 C 263.75 147.54 266.08 135.58 264.00 124.00 C 261.92 112.42 275.86 103.16 271.32 91.68 C 266.78 80.20 261.89 73.10 264.00 58.00 C 266.10 42.90 244.11 47.57 250.00 62.00 C 255.89 76.43 241.60 81.72 240.00 93.00 C 238.40 104.28 250.56 113.00 250.00 124.00 C 249.44 135.00 249.21 147.49 239.08 153.08 C 228.94 158.66 221.52 161.22 213.25 168.25 C 204.98 175.27 198.92 181.47 197.00 192.00
C 233.26 171.49 281.35 170.37 317.00 193.00 Z"/>
</g>
<g fill="#304556" fill-opacity="1.00" stroke="None">
<path d="
M 191.00 50.00 
C 181.38 47.42 175.33 60.64 185.00 65.00 C 194.67 69.36 200.35 52.51 191.00 50.00 Z"/>
</g>
<g fill="#304556" fill-opacity="1.00" stroke="None">
<path d="
M 327.00 50.00 
C 317.36 46.96 311.22 59.43 320.33 64.67 C 329.44 69.91 335.95 52.82 327.00 50.00 Z"/>
</g>
<g fill="#304556" fill-opacity="1.00" stroke="None">
<path d="
M 167.00 66.00 
C 157.31 63.54 152.81 78.34 162.33 81.67 C 171.85 84.99 176.31 68.36 167.00 66.00 Z"/>
</g>
<g fill="#304556" fill-opacity="1.00" stroke="None">
<path d="
M 350.00 66.00 
C 340.27 63.22 334.51 76.61 344.00 81.00 C 353.49 85.39 359.44 68.69 350.00 66.00 Z"/>
</g>
<g fill="#7E7E67" fill-opacity="0.62" stroke="None">
<path d="
M 301.00 82.00 
C 300.83 81.05 300.49 73.65 300.00 73.00
C 299.43 72.77 297.63 72.32 297.00 72.00
C 298.66 75.36 299.89 78.49 301.00 82.00 Z"/>
</g>
<g fill="#858367" fill-opacity="0.49" stroke="None">
<path d="
M 211.00 82.00 
C 211.40 80.68 211.54 79.26 212.00 78.00
C 211.05 79.86 211.23 80.74 211.00 82.00 Z"/>
</g>
<g fill="#304556" fill-opacity="1.00" stroke="None">
<path d="
M 369.00 86.00 
C 359.15 83.50 354.62 98.30 364.33 101.67 C 374.04 105.04 378.00 88.28 369.00 86.00 Z"/>
</g>
<g fill="#304556" fill-opacity="1.00" stroke="None">
<path d="
M 149.00 87.00 
C 139.55 83.31 132.66 96.19 141.78 101.22 C 150.90 106.25 157.80 90.43 149.00 87.00 Z"/>
</g>
<g fill="#304556" fill-opacity="1.00" stroke="None">
<path d="
M 384.00 110.00 
C 374.12 107.50 369.65 122.38 379.33 125.67 C 389.01 128.96 393.20 112.33 384.00 110.00 Z"/>
</g>
<g fill="#304556" fill-opacity="1.00" stroke="None">
<path d="
M 134.00 111.00 
C 124.39 107.62 117.73 120.03 126.78 125.22 C 135.82 130.41 143.00 114.17 134.00 111.00 Z"/>
</g>
<g fill="#304556" fill-opacity="1.00" stroke="None">
<path d="
M 123.00 137.00 
C 113.15 134.50 108.62 149.30 118.33 152.67 C 128.04 156.04 132.00 139.28 123.00 137.00 Z"/>
</g>
<g fill="#304556" fill-opacity="1.00" stroke="None">
<path d="
M 395.00 137.00 
C 385.25 133.92 379.18 146.78 388.33 151.67 C 397.48 156.56 404.00 139.84 395.00 137.00 Z"/>
</g>
<g fill="#324657" fill-opacity="1.00" stroke="None">
<path d="
M 118.00 165.00 
C 108.40 163.61 104.25 177.55 114.33 180.67 C 124.41 183.79 127.83 166.42 118.00 165.00 Z"/>
</g>
<g fill="#304556" fill-opacity="1.00" stroke="None">
<path d="
M 399.00 165.00 
C 389.01 162.15 383.55 175.74 393.00 180.00 C 402.45 184.26 408.25 167.64 399.00 165.00 Z"/>
</g>
<g fill="#F7E0A6" fill-opacity="0.99" stroke="None">
<path d="
M 165.00 257.00 
C 167.64 251.16 171.19 246.05 174.77 240.77 C 178.35 235.49 183.00 231.38 187.75 226.75 C 192.50 222.13 197.26 218.47 203.08 215.08 C 208.90 211.70 214.67 208.92 221.22 206.22 C 227.78 203.53 235.65 202.40 243.01 201.01 C 250.36 199.61 260.68 200.09 268.07 200.93 C 275.47 201.77 283.71 203.29 290.22 205.78 C 296.74 208.26 303.38 210.55 308.75 214.25 C 314.11 217.96 320.57 220.90 324.75 225.25 C 328.92 229.60 335.58 234.47 337.75 239.25 C 339.93 244.02 349.08 250.99 348.00 256.00
C 353.38 250.73 343.85 241.06 339.75 234.25 C 335.66 227.43 328.87 221.01 322.25 215.75 C 315.63 210.49 309.26 205.66 301.08 201.92 C 292.89 198.19 282.98 194.78 273.67 193.33 C 264.36 191.88 250.36 191.14 241.02 193.02 C 231.69 194.91 221.48 197.37 213.23 201.23 C 204.98 205.09 199.00 209.76 192.08 215.08 C 185.16 220.40 179.65 226.56 174.25 233.25 C 168.86 239.94 164.97 248.17 162.00 256.00
C 163.10 255.95 164.16 256.31 165.00 257.00 Z"/>
</g>
<g fill="#304556" fill-opacity="1.00" stroke="None">
<path d="
M 398.00 193.00 
C 387.90 189.45 382.77 203.88 391.93 208.07 C 401.08 212.26 406.47 195.98 398.00 193.00 Z"/>
</g>
<g fill="#304556" fill-opacity="1.00" stroke="None">
<path d="
M 122.00 194.00 
C 112.63 190.19 105.09 201.99 113.78 208.22 C 122.47 214.45 130.42 197.43 122.00 194.00 Z"/>
</g>
<g fill="#FEDA80" fill-opacity="1.00" stroke="None">
<path d="
M 165.00 257.00 
C 168.42 258.70 170.88 261.72 174.00 264.00
C 181.47 255.42 188.83 248.48 199.78 244.78 C 210.72 241.08 227.20 238.06 238.98 243.02 C 250.75 247.99 262.19 248.03 273.99 242.99 C 285.79 237.95 302.23 241.20 313.32 244.68 C 324.42 248.16 331.31 255.50 340.00 263.00
C 341.77 259.80 345.45 258.20 348.00 256.00
C 349.08 250.99 339.93 244.02 337.75 239.25 C 335.58 234.47 328.92 229.60 324.75 225.25 C 320.57 220.90 314.11 217.96 308.75 214.25 C 303.38 210.55 296.74 208.26 290.22 205.78 C 283.71 203.29 275.47 201.77 268.07 200.93 C 260.68 200.09 250.36 199.61 243.01 201.01 C 235.65 202.40 227.78 203.53 221.22 206.22 C 214.67 208.92 208.90 211.70 203.08 215.08 C 197.26 218.47 192.50 222.13 187.75 226.75 C 183.00 231.38 178.35 235.49 174.77 240.77 C 171.19 246.05 167.64 251.16 165.00 257.00 Z"/>
</g>
<g fill="#304556" fill-opacity="1.00" stroke="None">
<path d="
M 389.00 220.00 
C 379.22 218.70 376.02 233.66 386.00 236.00 C 395.98 238.33 398.45 221.26 389.00 220.00 Z"/>
</g>
<g fill="#314657" fill-opacity="1.00" stroke="None">
<path d="
M 128.00 221.00 
C 117.26 217.79 113.11 233.00 122.78 236.22 C 132.44 239.43 136.41 223.51 128.00 221.00 Z"/>
</g>
<g fill="#B3DCA4" fill-opacity="0.99" stroke="None">
<path d="
M 171.00 317.00 
C 168.21 313.37 180.30 305.21 178.98 298.98 C 177.65 292.74 182.73 284.49 187.75 279.75 C 192.77 275.01 198.40 270.93 205.08 268.08 C 211.76 265.22 222.22 264.11 230.00 265.00 C 237.78 265.89 244.81 270.71 252.00 272.00
C 254.30 272.41 257.68 272.27 260.00 272.00
C 271.48 270.65 290.26 260.69 302.02 265.98 C 313.79 271.27 326.47 274.47 332.00 287.00
C 330.32 269.54 312.50 257.79 295.00 257.00 C 277.50 256.21 257.25 268.56 240.07 259.93 C 222.89 251.29 202.36 258.63 189.25 270.25 C 176.14 281.86 180.93 301.62 165.00 312.00
C 167.30 313.19 168.70 315.69 171.00 317.00 Z"/>
</g>
<g fill="#96DE7D" fill-opacity="1.00" stroke="None">
<path d="
M 171.00 317.00 
C 182.76 326.50 181.58 309.30 190.33 306.33 C 199.08 303.36 207.03 314.62 214.77 317.23 C 222.51 319.84 227.75 328.96 236.25 330.75 C 244.76 332.53 251.70 347.65 241.00 350.00 C 230.31 352.35 225.81 340.25 217.23 337.77 C 208.65 335.29 203.72 326.51 195.00 325.00
C 192.69 331.18 188.49 340.20 180.00 338.00
C 180.32 343.49 179.80 348.81 179.00 354.00
C 189.71 338.88 216.15 341.68 221.00 360.00
C 229.12 355.59 246.17 364.09 239.75 372.75 C 233.34 381.41 221.23 373.01 214.02 380.02 C 206.82 387.04 194.30 382.21 186.67 382.33 C 179.05 382.45 169.44 370.89 163.75 377.75 C 158.06 384.62 147.13 383.64 141.26 388.26 C 135.39 392.88 135.46 409.24 136.00 416.00
C 139.07 427.84 149.26 439.66 161.23 444.77 C 173.20 449.88 188.09 455.46 200.23 460.77 C 212.37 466.08 222.08 475.55 232.75 483.25 C 243.41 490.96 267.06 491.06 278.23 484.23 C 289.40 477.40 297.77 466.22 310.23 461.23 C 322.69 456.24 336.96 450.16 349.23 445.23 C 361.50 440.29 372.66 428.48 376.00 417.00
C 374.84 409.66 377.41 393.27 370.69 388.31 C 363.98 383.35 354.32 384.50 348.23 377.77 C 342.14 371.04 333.08 382.11 325.22 382.22 C 317.36 382.33 304.54 386.63 297.23 379.77 C 289.92 372.91 277.58 381.29 271.93 372.07 C 266.27 362.86 283.37 356.43 291.00 360.00
C 295.85 341.71 322.28 338.84 333.00 354.00
C 331.72 348.88 331.96 343.44 332.00 338.00
C 322.77 340.53 320.18 330.22 316.00 325.00
C 308.00 328.00 300.03 336.46 292.25 339.25 C 284.46 342.03 276.74 355.77 267.75 348.25 C 258.77 340.72 273.16 331.29 279.92 327.92 C 286.68 324.55 296.39 318.04 302.77 313.77 C 309.15 309.50 323.14 299.88 327.08 311.92 C 331.02 323.96 342.34 319.14 346.00 310.00
C 338.00 305.60 332.70 295.88 332.00 287.00
C 326.47 274.47 313.79 271.27 302.02 265.98 C 290.26 260.69 271.48 270.65 260.00 272.00
C 272.18 274.52 277.27 290.10 279.93 302.07 C 282.58 314.05 268.98 327.98 256.00 328.00 C 243.01 328.02 229.38 313.96 232.00 302.00 C 234.62 290.04 240.01 274.48 252.00 272.00
C 244.81 270.71 237.78 265.89 230.00 265.00 C 222.22 264.11 211.76 265.22 205.08 268.08 C 198.40 270.93 192.77 275.01 187.75 279.75 C 182.73 284.49 177.65 292.74 178.98 298.98 C 180.30 305.21 168.21 313.37 171.00 317.00
M 236.00 399.00 
C 243.21 396.86 250.39 399.18 256.00 404.00
C 261.64 399.14 268.75 396.90 276.00 399.00
C 270.03 394.58 267.27 382.03 276.08 380.08 C 284.88 378.12 289.10 390.76 291.32 395.68 C 293.54 400.60 289.41 416.83 280.92 414.92 C 272.43 413.02 263.90 419.55 255.99 419.99 C 248.09 420.43 240.31 412.46 232.00 415.00 C 223.69 417.54 218.08 401.47 220.33 396.33 C 222.58 391.19 226.10 379.19 235.01 380.01 C 243.91 380.83 242.90 394.58 236.00 399.00
M 223.00 424.00 
C 230.02 425.00 235.92 434.23 244.00 432.00 C 252.08 429.77 260.77 429.69 269.00 432.00 C 277.24 434.30 282.75 422.21 291.02 424.02 C 299.30 425.84 304.36 426.27 312.23 429.77 C 320.10 433.27 313.15 445.47 305.00 444.00 C 296.85 442.53 294.43 454.29 288.25 457.25 C 282.07 460.21 277.75 467.55 269.93 467.93 C 262.10 468.30 249.06 468.34 241.33 467.67 C 233.60 467.00 228.80 459.51 222.75 456.25 C 216.71 452.99 214.25 441.85 205.98 444.02 C 197.70 446.20 192.26 430.69 200.23 429.23 C 208.21 427.77 214.45 422.78 223.00 424.00 Z"/>
</g>
<g fill="#F9775D" fill-opacity="0.99" stroke="None">
<path d="
M 132.00 282.00 
C 134.59 294.94 161.40 294.99 164.00 282.00
C 162.10 263.73 133.90 263.74 132.00 282.00 Z"/>
</g>
<g fill="#F9775D" fill-opacity="0.99" stroke="None">
<path d="
M 348.00 282.00 
C 350.59 294.93 377.40 294.99 380.00 282.00
C 378.10 263.73 349.90 263.74 348.00 282.00 Z"/>
</g>
<g fill="#2E4456" fill-opacity="1.00" stroke="None">
<path d="
M 260.00 272.00 
C 257.68 272.27 254.30 272.41 252.00 272.00
C 240.01 274.48 234.62 290.04 232.00 302.00 C 229.38 313.96 243.01 328.02 256.00 328.00 C 268.98 327.98 282.58 314.05 279.93 302.07 C 277.27 290.10 272.18 274.52 260.00 272.00
M 257.00 288.00 
C 263.22 293.98 268.75 313.13 255.00 312.00 C 241.24 310.87 250.36 291.04 257.00 288.00 Z"/>
</g>
<g fill="#CF624F" fill-opacity="0.98" stroke="None">
<path d="
M 164.00 282.00 
C 161.40 294.99 134.59 294.94 132.00 282.00
C 129.58 305.24 166.42 305.24 164.00 282.00 Z"/>
</g>
<g fill="#CF624F" fill-opacity="0.98" stroke="None">
<path d="
M 380.00 282.00 
C 377.40 294.99 350.59 294.93 348.00 282.00
C 345.58 305.24 382.42 305.24 380.00 282.00 Z"/>
</g>
<g fill="#DAE6EC" fill-opacity="1.00" stroke="None">
<path d="
M 257.00 288.00 
C 250.36 291.04 241.24 310.87 255.00 312.00 C 268.75 313.13 263.22 293.98 257.00 288.00 Z"/>
</g>
<g fill="#F7E0A6" fill-opacity="0.98" stroke="None">
<path d="
M 108.00 342.00 
C 108.04 342.22 108.89 342.65 109.00 343.00
C 112.16 340.91 112.26 334.93 116.25 332.25 C 120.23 329.57 122.43 326.91 127.22 325.22 C 132.02 323.54 139.33 324.31 144.01 324.99 C 148.69 325.67 151.94 330.40 155.25 331.75 C 158.55 333.10 161.80 343.22 163.00 343.00
C 163.07 342.76 164.01 340.92 164.00 341.00
C 161.36 307.71 110.25 309.01 108.00 342.00 Z"/>
</g>
<g fill="#F8E0A6" fill-opacity="0.98" stroke="None">
<path d="
M 348.00 342.00 
C 348.04 342.22 348.89 342.65 349.00 343.00
C 353.86 339.78 355.83 329.42 363.08 327.08 C 370.33 324.75 382.00 322.28 388.22 326.78 C 394.44 331.28 402.57 335.45 403.00 343.00
C 403.17 342.12 403.98 339.32 404.00 339.00
C 399.52 306.91 350.15 310.35 348.00 342.00 Z"/>
</g>
<g fill="#FEDA80" fill-opacity="1.00" stroke="None">
<path d="
M 109.00 343.00 
C 117.43 369.91 154.90 370.64 163.00 343.00
C 161.80 343.22 158.55 333.10 155.25 331.75 C 151.94 330.40 148.69 325.67 144.01 324.99 C 139.33 324.31 132.02 323.54 127.22 325.22 C 122.43 326.91 120.23 329.57 116.25 332.25 C 112.26 334.93 112.16 340.91 109.00 343.00 Z"/>
</g>
<g fill="#FEDA80" fill-opacity="1.00" stroke="None">
<path d="
M 349.00 343.00 
C 356.96 368.42 397.18 372.17 403.00 343.00
C 402.57 335.45 394.44 331.28 388.22 326.78 C 382.00 322.28 370.33 324.75 363.08 327.08 C 355.83 329.42 353.86 339.78 349.00 343.00 Z"/>
</g>
<g fill="#D7B86E" fill-opacity="0.98" stroke="None">
<path d="
M 403.00 343.00 
C 397.18 372.17 356.96 368.42 349.00 343.00
C 348.89 342.65 348.04 342.22 348.00 342.00
C 346.84 359.07 361.23 373.15 378.00 372.00 C 394.76 370.85 406.31 355.56 404.00 339.00
C 403.98 339.32 403.17 342.12 403.00 343.00 Z"/>
</g>
<g fill="#D7B86E" fill-opacity="0.98" stroke="None">
<path d="
M 163.00 343.00 
C 154.90 370.64 117.43 369.91 109.00 343.00
C 108.89 342.65 108.04 342.22 108.00 342.00
C 105.33 381.21 167.14 380.54 164.00 341.00
C 164.01 340.92 163.07 342.76 163.00 343.00 Z"/>
</g>
<g fill="#000000" fill-opacity="0.00" stroke="None">
<path d="
M 205.00 366.00 
C 205.46 358.50 191.01 359.44 192.00 367.00
C 196.46 367.23 200.85 366.95 205.00 366.00 Z"/>
</g>
<g fill="#000000" fill-opacity="0.00" stroke="None">
<path d="
M 320.00 367.00 
C 320.57 359.43 306.70 358.53 307.00 366.00
C 311.21 366.93 315.50 367.25 320.00 367.00 Z"/>
</g>
<g fill="#2D4456" fill-opacity="1.00" stroke="None">
<path d="
M 236.00 399.00 
C 242.90 394.58 243.91 380.83 235.01 380.01 C 226.10 379.19 222.58 391.19 220.33 396.33 C 218.08 401.47 223.69 417.54 232.00 415.00 C 240.31 412.46 248.09 420.43 255.99 419.99 C 263.90 419.55 272.43 413.02 280.92 414.92 C 289.41 416.83 293.54 400.60 291.32 395.68 C 289.10 390.76 284.88 378.12 276.08 380.08 C 267.27 382.03 270.03 394.58 276.00 399.00
C 268.75 396.90 261.64 399.14 256.00 404.00
C 250.39 399.18 243.21 396.86 236.00 399.00 Z"/>
</g>
<g fill="#81C16A" fill-opacity="0.99" stroke="None">
<path d="
M 376.00 417.00 
C 372.66 428.48 361.50 440.29 349.23 445.23 C 336.96 450.16 322.69 456.24 310.23 461.23 C 297.77 466.22 289.40 477.40 278.23 484.23 C 267.06 491.06 243.41 490.96 232.75 483.25 C 222.08 475.55 212.37 466.08 200.23 460.77 C 188.09 455.46 173.20 449.88 161.23 444.77 C 149.26 439.66 139.07 427.84 136.00 416.00
C 138.33 445.39 163.93 455.86 188.78 463.22 C 213.62 470.58 228.64 496.07 256.00 496.00 C 283.36 495.93 298.80 470.82 323.32 463.32 C 347.85 455.83 373.46 445.86 376.00 417.00 Z"/>
</g>
<g fill="#2E4456" fill-opacity="1.00" stroke="None">
<path d="
M 223.00 424.00 
C 214.45 422.78 208.21 427.77 200.23 429.23 C 192.26 430.69 197.70 446.20 205.98 444.02 C 214.25 441.85 216.71 452.99 222.75 456.25 C 228.80 459.51 233.60 467.00 241.33 467.67 C 249.06 468.34 262.10 468.30 269.93 467.93 C 277.75 467.55 282.07 460.21 288.25 457.25 C 294.43 454.29 296.85 442.53 305.00 444.00 C 313.15 445.47 320.10 433.27 312.23 429.77 C 304.36 426.27 299.30 425.84 291.02 424.02 C 282.75 422.21 277.24 434.30 269.00 432.00 C 260.77 429.69 252.08 429.77 244.00 432.00 C 235.92 434.23 230.02 425.00 223.00 424.00
M 275.00 448.00 
C 264.52 454.28 247.45 454.27 237.00 448.00
C 248.98 445.93 263.09 445.62 275.00 448.00 Z"/>
</g>
<g fill="#E97C5F" fill-opacity="1.00" stroke="None">
<path d="
M 275.00 448.00 
C 263.09 445.62 248.98 445.93 237.00 448.00
C 247.45 454.27 264.52 454.28 275.00 448.00 Z"/>
</g>
</svg>