<svg xmlns="http://www.w3.org/2000/svg" xmlns:v="https://svgstorm.com"
viewBox = "0 0 512 512"
width="512"
height="512">
<g fill="None" fill-opacity="0.0" stroke="#000000" stroke-opacity="0.00" stroke-width="0.3"><path d="
M 0.00 304.00 
C 1.24 301.87 3.40 300.34 4.00 298.00
C 9.99 299.81 18.06 298.68 25.00 299.00
C 25.00 286.33 25.00 273.67 25.00 261.00
C 19.20 261.99 16.83 259.58 13.00 257.00
C 14.52 254.97 14.29 252.04 13.00 250.00
C 18.20 244.68 23.54 245.80 32.00 246.00
C 32.00 243.67 32.00 241.33 32.00 239.00
C 20.49 237.75 24.27 220.88 36.00 224.00 C 47.74 227.12 70.16 221.74 81.00 224.00 C 91.84 226.26 114.56 218.09 113.00 231.00
C 115.00 231.00 117.00 231.00 119.00 231.00
C 119.50 231.00 120.00 231.00 120.00 231.00
C 120.00 213.67 120.00 196.33 120.00 179.00
C 110.11 181.13 106.50 169.77 113.00 164.00
C 115.14 166.02 117.41 163.14 120.00 164.00
C 120.00 152.67 120.00 141.33 120.00 130.00
C 115.52 129.79 113.59 128.74 110.00 126.00
C 110.21 119.69 112.38 112.86 120.00 115.00
C 117.44 103.98 122.79 97.77 124.13 91.08 C 125.47 84.39 138.13 79.73 136.00 69.00 C 133.87 58.27 143.12 52.43 151.00 61.00
C 144.49 73.24 157.78 81.74 161.59 88.75 C 165.39 95.77 167.10 103.69 167.00 115.00
C 172.84 113.03 175.66 118.53 177.00 124.00
C 174.06 125.05 172.09 131.97 167.00 129.00
C 167.65 134.50 165.68 141.33 168.00 146.00
C 169.28 146.84 170.65 145.82 172.00 147.00
C 171.04 135.28 193.46 139.29 206.00 139.00 C 218.54 138.71 242.42 138.99 256.00 139.00 C 269.58 139.01 293.45 138.68 306.00 139.00 C 318.55 139.32 340.97 135.22 340.00 147.00
C 341.28 145.88 342.76 146.81 344.00 146.00
C 344.01 141.24 346.07 134.51 345.00 129.00
C 339.99 131.97 337.99 125.12 335.00 124.00
C 336.46 118.46 338.80 113.35 345.00 115.00
C 344.52 103.69 346.83 96.40 350.58 89.23 C 354.32 82.06 367.22 73.87 361.00 61.00
C 368.43 53.25 378.08 57.29 376.00 68.00 C 373.92 78.71 385.56 84.23 387.39 90.75 C 389.23 97.27 394.58 103.86 392.00 115.00
C 399.67 112.70 401.82 120.08 402.00 126.00
C 398.54 128.66 396.52 129.81 392.00 130.00
C 392.00 141.33 392.00 152.67 392.00 164.00
C 394.75 163.72 396.47 165.13 399.00 164.00
C 405.54 169.43 401.97 181.23 392.00 179.00
C 392.00 196.33 392.00 213.67 392.00 231.00
C 392.00 230.96 393.00 231.00 393.00 231.00
C 395.00 231.00 397.00 231.00 399.00 231.00
C 398.74 227.15 401.49 226.61 404.00 223.00
C 415.53 225.12 430.26 223.60 442.00 224.00 C 453.74 224.40 469.93 223.76 480.67 223.67 C 491.41 223.58 487.27 238.63 480.00 239.00
C 480.00 241.33 480.00 243.67 480.00 246.00
C 488.53 246.00 493.63 244.52 499.00 250.00
C 496.99 252.17 498.65 254.68 499.00 257.00
C 495.31 259.70 492.63 261.71 487.00 261.00
C 487.00 273.67 487.00 286.33 487.00 299.00
C 493.99 298.58 501.41 299.98 508.00 298.00
C 508.69 300.07 510.63 302.09 512.00 304.00
L 512.00 0.00
L 0.00 0.00
L 0.00 304.00 Z"/>
</g>
<g fill="None" fill-opacity="0.0" stroke="#000000" stroke-opacity="1.00" stroke-width="0.3"><path d="
M 120.00 231.00 
C 120.00 234.15 121.52 244.24 119.00 246.00
C 114.21 249.35 104.19 244.58 98.00 246.00 C 91.81 247.42 82.80 245.38 76.00 246.00 C 69.20 246.62 61.06 245.77 54.00 246.00 C 46.94 246.23 39.13 246.00 32.00 246.00
C 23.54 245.80 18.20 244.68 13.00 250.00
C 14.29 252.04 14.52 254.97 13.00 257.00
C 16.83 259.58 19.20 261.99 25.00 261.00
C 25.00 273.67 25.00 286.33 25.00 299.00
C 18.06 298.68 9.99 299.81 4.00 298.00
C 3.40 300.34 1.24 301.87 0.00 304.00
L 0.00 307.00
C 0.87 308.78 2.69 310.77 3.00 313.00
C 5.17 312.34 6.61 314.02 10.00 313.00
C 9.52 327.05 10.64 339.83 10.00 354.00 C 9.36 368.17 11.22 380.36 10.00 395.00 C 8.78 409.64 12.62 420.24 10.00 436.00 C 7.38 451.76 16.93 457.33 32.00 455.00 C 47.07 452.67 58.66 456.12 73.00 455.00 C 87.34 453.88 99.94 455.65 114.00 455.00 C 128.06 454.35 140.96 455.63 155.00 455.00 C 169.04 454.37 181.74 456.01 196.00 455.00 C 210.26 453.99 204.10 434.51 205.00 423.00 C 205.90 411.49 204.33 394.05 205.00 382.00
C 217.87 379.86 214.81 358.68 219.58 351.23 C 224.34 343.78 224.72 337.58 232.32 329.32 C 239.92 321.06 247.99 316.55 254.00 311.00
C 262.43 313.26 264.86 316.79 272.10 321.91 C 279.34 327.02 282.39 333.78 286.19 339.25 C 289.99 344.72 291.89 350.30 294.97 357.03 C 298.05 363.76 294.81 382.47 307.00 382.00
C 307.67 394.05 306.10 411.49 307.00 423.00 C 307.90 434.51 301.74 453.99 316.00 455.00 C 330.27 456.01 342.96 454.38 357.00 455.00 C 371.04 455.62 383.94 454.35 398.00 455.00 C 412.06 455.65 424.66 453.88 439.00 455.00 C 453.34 456.12 464.93 452.67 480.00 455.00 C 495.07 457.33 504.62 451.76 502.00 436.00 C 499.38 420.24 503.22 409.64 502.00 395.00 C 500.78 380.36 502.64 368.18 502.00 354.00 C 501.36 339.83 502.48 327.05 502.00 313.00
C 505.36 314.51 506.49 312.29 509.00 313.00
C 509.54 310.88 510.86 308.64 512.00 307.00
L 512.00 304.00
C 510.63 302.09 508.69 300.07 508.00 298.00
C 501.41 299.98 493.99 298.58 487.00 299.00
C 487.00 286.33 487.00 273.67 487.00 261.00
C 492.63 261.71 495.31 259.70 499.00 257.00
C 498.65 254.68 496.99 252.17 499.00 250.00
C 493.63 244.52 488.53 246.00 480.00 246.00
C 474.36 246.00 468.64 246.10 463.00 246.00 C 457.36 245.90 451.61 246.26 446.00 246.00 C 440.39 245.74 433.44 246.56 428.00 246.00 C 422.56 245.44 415.94 247.32 411.00 246.00 C 406.06 244.68 396.96 248.77 393.00 246.00
C 390.49 244.24 392.00 234.09 392.00 231.00
C 392.00 213.67 392.00 196.33 392.00 179.00
C 401.97 181.23 405.54 169.43 399.00 164.00
C 396.47 165.13 394.75 163.72 392.00 164.00
C 392.00 152.67 392.00 141.33 392.00 130.00
C 396.52 129.81 398.54 128.66 402.00 126.00
C 401.82 120.08 399.67 112.70 392.00 115.00
C 394.58 103.86 389.23 97.27 387.39 90.75 C 385.56 84.23 373.92 78.71 376.00 68.00 C 378.08 57.29 368.43 53.25 361.00 61.00
C 367.22 73.87 354.32 82.06 350.58 89.23 C 346.83 96.40 344.52 103.69 345.00 115.00
C 338.80 113.35 336.46 118.46 335.00 124.00
C 337.99 125.12 339.99 131.97 345.00 129.00
C 346.07 134.51 344.01 141.24 344.00 146.00
C 343.98 151.51 346.09 158.08 345.00 164.00
C 338.22 163.36 327.04 163.07 329.00 173.00
C 330.00 180.94 339.02 178.80 345.00 179.00
C 345.00 201.33 345.00 223.67 345.00 246.00
C 285.67 246.00 226.33 246.00 167.00 246.00
C 167.00 223.67 167.00 201.33 167.00 179.00
C 179.83 178.81 193.22 179.25 206.00 179.00 C 218.78 178.75 232.43 179.47 245.00 179.00 C 257.57 178.53 271.92 180.02 284.00 179.00 C 296.08 177.98 311.39 183.77 318.00 173.00
C 320.01 159.36 297.13 164.55 287.00 164.00 C 276.87 163.45 258.84 164.26 247.00 164.00 C 235.16 163.74 219.55 164.13 207.00 164.00 C 194.45 163.87 179.75 164.10 167.00 164.00
C 167.56 158.06 165.82 151.51 168.00 146.00
C 165.68 141.33 167.65 134.50 167.00 129.00
C 172.09 131.97 174.06 125.05 177.00 124.00
C 175.66 118.53 172.84 113.03 167.00 115.00
C 167.10 103.69 165.39 95.77 161.59 88.75 C 157.78 81.74 144.49 73.24 151.00 61.00
C 143.12 52.43 133.87 58.27 136.00 69.00 C 138.13 79.73 125.47 84.39 124.13 91.08 C 122.79 97.77 117.44 103.98 120.00 115.00
C 112.38 112.86 110.21 119.69 110.00 126.00
C 113.59 128.74 115.52 129.79 120.00 130.00
C 120.00 141.33 120.00 152.67 120.00 164.00
C 117.41 163.14 115.14 166.02 113.00 164.00
C 106.50 169.77 110.11 181.13 120.00 179.00
C 120.00 196.33 120.00 213.67 120.00 231.00
M 145.00 92.00 
C 148.58 94.87 155.14 109.44 152.00 114.00
C 149.30 117.92 138.05 113.14 134.00 115.00
C 134.52 112.81 132.86 109.38 135.00 108.00
C 135.68 103.84 139.20 87.36 145.00 92.00
M 369.00 91.00 
C 375.05 92.48 376.26 103.44 377.00 108.00
C 377.28 109.73 378.85 112.59 378.00 115.00
C 372.17 114.34 365.01 116.32 360.00 114.00
C 356.99 109.64 364.70 89.95 369.00 91.00
M 152.00 130.00 
C 154.66 133.80 150.61 142.31 152.00 147.00 C 153.39 151.69 150.96 159.06 152.00 164.00
C 149.00 164.00 146.00 164.00 143.00 164.00
C 140.00 164.00 137.00 164.00 134.00 164.00
C 134.67 152.83 132.67 140.34 135.00 130.00
C 136.81 128.19 150.47 127.81 152.00 130.00
M 378.00 130.00 
C 380.66 133.80 376.61 142.31 378.00 147.00 C 379.39 151.69 376.96 159.06 378.00 164.00
C 375.00 164.00 372.00 164.00 369.00 164.00
C 366.00 164.00 363.00 164.00 360.00 164.00
C 360.00 152.67 360.00 141.33 360.00 130.00
C 361.43 127.95 376.62 128.02 378.00 130.00
M 152.00 180.00 
C 154.56 183.66 150.90 191.27 152.00 196.00 C 153.10 200.73 151.46 207.86 152.00 213.00 C 152.54 218.14 151.73 223.65 152.00 229.00 C 152.27 234.35 151.80 240.57 152.00 246.00
C 149.00 246.00 146.00 246.00 143.00 246.00
C 140.00 246.00 137.00 246.00 134.00 246.00
C 134.00 223.67 134.00 201.33 134.00 179.00
C 137.00 179.00 140.00 179.00 143.00 179.00
C 145.37 179.00 150.61 178.01 152.00 180.00
M 369.00 246.00 
C 366.63 246.00 361.39 246.99 360.00 245.00
C 357.44 241.34 361.10 233.73 360.00 229.00 C 358.90 224.27 360.54 217.14 360.00 212.00 C 359.46 206.86 360.27 201.35 360.00 196.00 C 359.73 190.65 360.20 184.43 360.00 179.00
C 365.67 179.00 371.33 179.00 377.00 179.00
C 381.06 181.84 376.72 191.67 378.00 197.00 C 379.28 202.33 377.19 209.48 378.00 216.00 C 378.81 222.52 377.12 227.18 378.00 235.00 C 378.88 242.82 377.83 246.00 369.00 246.00
M 114.00 261.00 
C 114.00 273.33 114.00 285.67 114.00 298.00
C 89.33 298.00 64.67 298.00 40.00 298.00
C 40.00 285.67 40.00 273.33 40.00 261.00
C 64.67 261.00 89.33 261.00 114.00 261.00
M 157.00 298.00 
C 155.29 300.44 145.99 298.99 143.00 299.00 C 140.01 299.01 130.69 300.42 129.00 298.00
C 126.12 293.88 130.43 285.18 129.00 280.00 C 127.57 274.82 130.07 266.47 129.00 261.00
C 133.00 261.00 137.00 261.00 141.00 261.00
C 146.33 261.00 151.67 261.00 157.00 261.00
C 157.00 273.33 157.00 285.67 157.00 298.00
M 188.00 280.00 
C 189.88 286.20 200.59 286.92 203.00 281.00
C 203.17 280.57 203.00 279.50 203.00 279.00
C 203.00 275.47 201.23 262.94 204.00 261.00
C 207.13 258.81 214.48 262.64 218.00 261.00
C 218.57 267.27 216.80 274.16 219.00 280.00
C 221.11 285.78 230.38 287.45 233.00 281.00
C 233.17 280.57 233.00 279.50 233.00 279.00
C 233.00 275.47 231.23 262.94 234.00 261.00
C 235.05 260.26 246.95 260.26 248.00 261.00
C 250.78 262.94 249.00 275.52 249.00 279.00
C 249.00 279.50 248.85 280.55 249.00 281.00
C 250.96 286.96 260.63 285.85 263.00 281.00
C 265.84 275.19 262.93 267.31 264.00 261.00
C 268.67 261.00 273.33 261.00 278.00 261.00
C 280.78 262.94 279.00 275.52 279.00 279.00
C 279.00 279.50 278.83 280.57 279.00 281.00
C 281.24 286.49 290.52 286.48 293.00 281.00
C 295.67 275.09 293.06 267.39 294.00 261.00
C 299.00 261.00 304.00 261.00 309.00 261.00
C 309.00 267.67 309.00 274.33 309.00 281.00
C 313.19 282.40 319.10 289.44 323.00 281.00
C 325.74 275.07 323.02 267.41 324.00 261.00
C 329.00 261.00 334.00 261.00 339.00 261.00
C 341.74 262.92 340.13 275.42 340.00 279.00 C 339.87 282.58 341.90 295.97 339.00 298.00
C 335.38 300.53 328.68 295.48 324.93 298.93 C 321.17 302.37 320.02 302.64 320.78 308.22 C 321.54 313.81 328.50 311.11 331.00 313.00
C 335.14 316.14 330.90 327.35 332.00 333.00 C 333.10 338.65 331.57 348.66 332.00 355.00 C 332.43 361.34 332.03 369.46 332.00 376.00 C 331.97 382.54 332.45 391.68 332.00 398.00 C 331.55 404.32 333.25 413.55 332.00 419.00 C 330.75 424.45 335.19 437.07 331.00 440.00
C 330.32 440.47 322.68 440.47 322.00 440.00
C 317.62 436.93 322.40 424.70 321.00 419.00 C 319.60 413.30 321.83 403.61 321.00 397.00 C 320.17 390.39 321.85 380.84 321.00 374.00
C 319.88 369.46 317.88 365.72 312.00 367.00
C 311.07 352.49 302.91 332.34 292.75 322.25 C 282.60 312.15 270.87 294.87 256.00 295.00 C 241.12 295.14 229.31 311.94 219.08 322.08 C 208.85 332.22 201.12 352.53 200.00 367.00
C 185.07 368.24 192.23 387.08 191.00 399.00 C 189.77 410.92 191.93 427.65 191.00 440.00
C 187.67 440.00 184.33 440.00 181.00 440.00
C 176.86 437.10 181.11 425.55 180.00 420.00 C 178.89 414.45 180.43 404.31 180.00 398.00 C 179.57 391.69 179.97 383.55 180.00 377.00 C 180.03 370.45 179.55 361.36 180.00 355.00 C 180.45 348.64 178.76 339.56 180.00 334.00 C 181.24 328.44 176.81 316.18 181.00 313.00
C 183.55 311.07 190.38 313.95 191.30 308.30 C 192.23 302.66 190.55 302.42 186.92 299.08 C 183.29 295.75 176.47 300.43 173.00 298.00
C 170.26 296.08 171.87 283.58 172.00 280.00 C 172.13 276.42 170.10 263.03 173.00 261.00
C 176.36 258.65 184.23 262.76 188.00 261.00
C 188.00 267.33 188.00 273.67 188.00 280.00
M 366.00 298.00 
C 362.33 298.00 358.67 298.00 355.00 298.00
C 355.00 285.67 355.00 273.33 355.00 261.00
C 358.67 261.00 362.33 261.00 366.00 261.00
C 371.67 261.00 377.33 261.00 383.00 261.00
C 383.00 273.33 383.00 285.67 383.00 298.00
C 377.33 298.00 371.67 298.00 366.00 298.00
M 472.00 261.00 
C 472.00 273.33 472.00 285.67 472.00 298.00
C 447.33 298.00 422.67 298.00 398.00 298.00
C 398.00 285.67 398.00 273.33 398.00 261.00
C 422.67 261.00 447.33 261.00 472.00 261.00
M 34.00 322.00 
C 38.60 334.46 53.22 323.47 49.00 313.00
C 52.00 313.00 55.00 313.00 58.00 313.00
C 57.66 318.60 57.27 327.70 65.03 327.97 C 72.78 328.25 74.04 319.11 73.00 313.00
C 76.00 313.00 79.00 313.00 82.00 313.00
C 75.75 331.37 103.24 331.39 97.00 313.00
C 99.84 313.59 103.98 311.78 106.00 314.00
C 107.65 316.36 106.00 325.98 106.00 329.00
C 106.00 332.70 105.20 337.40 106.00 341.00
C 106.99 343.67 108.86 346.54 112.00 347.00
C 129.14 349.53 116.21 320.84 121.00 314.00
C 123.20 310.86 138.98 313.02 143.00 313.00 C 147.02 312.98 162.83 310.91 165.00 314.00
C 168.29 318.70 163.51 329.04 165.00 335.00 C 166.49 340.96 164.33 349.47 165.00 356.00 C 165.67 362.53 164.69 370.21 165.00 377.00 C 165.31 383.79 164.86 391.10 165.00 398.00 C 165.14 404.90 164.93 412.05 165.00 419.00 C 165.07 425.95 164.94 433.04 165.00 440.00
C 155.00 440.00 145.00 440.00 135.00 440.00
C 130.33 440.00 125.67 440.00 121.00 440.00
C 119.87 426.17 122.51 408.44 121.00 395.00 C 119.49 381.56 127.19 362.20 113.00 357.00
C 102.60 357.56 106.46 372.00 106.00 380.00 C 105.54 388.00 106.24 401.04 106.00 410.00 C 105.76 418.96 106.18 430.78 106.00 440.00
C 100.33 440.00 94.67 440.00 89.00 440.00
C 89.41 438.44 88.54 437.31 88.00 436.00
C 85.63 430.30 83.75 422.35 79.25 417.75 C 74.74 413.16 70.26 405.38 63.00 407.00 C 55.73 408.62 54.65 416.78 49.25 420.25 C 43.85 423.71 45.41 437.52 41.00 440.00
C 39.52 440.83 26.34 440.94 25.00 440.00
C 20.83 437.08 25.21 425.49 24.00 420.00 C 22.79 414.51 24.52 405.44 24.00 399.00 C 23.48 392.56 24.25 383.81 24.00 377.00 C 23.75 370.19 24.12 362.96 24.00 356.00 C 23.88 349.04 24.06 342.09 24.00 335.00 C 23.94 327.91 24.04 320.15 24.00 313.00
C 27.33 313.00 30.67 313.00 34.00 313.00
C 34.00 316.00 34.00 319.00 34.00 322.00
M 391.00 314.00 
C 394.29 318.70 389.52 329.04 391.00 335.00 C 392.49 340.96 390.33 349.47 391.00 356.00 C 391.67 362.53 390.69 370.21 391.00 377.00 C 391.31 383.79 390.86 391.10 391.00 398.00 C 391.14 404.90 390.93 412.05 391.00 419.00 C 391.07 425.95 390.94 433.04 391.00 440.00
C 380.67 440.00 370.33 440.00 360.00 440.00
C 355.67 440.00 351.33 440.00 347.00 440.00
C 347.00 398.00 347.00 356.00 347.00 314.00
C 349.20 310.86 364.98 313.02 369.00 313.00 C 373.02 312.98 388.83 310.91 391.00 314.00
M 478.00 322.00 
C 478.63 319.14 477.52 315.89 478.00 313.00
C 481.33 313.00 484.67 313.00 488.00 313.00
C 487.33 355.17 489.33 398.65 487.00 440.00
C 485.66 440.94 472.48 440.83 471.00 440.00
C 466.60 437.52 468.36 424.48 463.08 420.92 C 457.80 417.36 456.87 409.35 449.75 407.25 C 442.63 405.15 437.71 412.37 433.08 417.08 C 428.46 421.80 426.45 430.13 424.00 436.00
C 423.46 437.31 422.61 438.42 423.00 440.00
C 417.67 440.00 412.33 440.00 407.00 440.00
C 402.83 437.08 407.21 425.49 406.00 420.00 C 404.79 414.51 406.52 405.44 406.00 399.00 C 405.48 392.56 406.25 383.81 406.00 377.00 C 405.75 370.19 406.12 362.96 406.00 356.00 C 405.88 349.04 406.06 342.09 406.00 335.00 C 405.94 327.91 406.04 320.15 406.00 313.00
C 409.00 313.00 412.00 313.00 415.00 313.00
C 408.75 331.37 436.24 331.39 430.00 313.00
C 433.00 313.00 436.00 313.00 439.00 313.00
C 436.24 320.26 442.21 331.16 450.07 327.07 C 457.94 322.98 449.75 308.81 463.00 313.00
C 458.36 323.31 473.93 334.66 478.00 322.00
M 73.00 440.00 
C 67.67 440.00 62.33 440.00 57.00 440.00
C 58.24 434.54 61.17 429.79 64.00 425.00
C 69.72 426.98 72.32 434.43 73.00 440.00
M 455.00 440.00 
C 449.67 440.00 444.33 440.00 439.00 440.00
C 439.07 434.29 442.77 429.44 446.00 425.00
C 451.50 428.26 453.26 434.49 455.00 440.00 Z"/>
</g>
<g fill="None" fill-opacity="0.0" stroke="#CE7E27" stroke-opacity="1.00" stroke-width="0.3"><path d="
M 135.00 108.00 
C 135.01 110.00 134.99 112.00 135.00 114.00
C 137.67 114.00 140.33 114.00 143.00 114.00
C 143.30 110.41 142.59 104.34 143.00 101.00 C 143.41 97.66 141.33 90.78 145.00 92.00
C 139.20 87.36 135.68 103.84 135.00 108.00 Z"/>
</g>
<g fill="None" fill-opacity="0.0" stroke="#CC7D27" stroke-opacity="1.00" stroke-width="0.3"><path d="
M 360.00 114.00 
C 363.00 114.00 366.00 114.00 369.00 114.00
C 368.64 110.25 369.78 106.39 368.02 102.98 C 366.27 99.56 370.27 93.91 369.00 91.00
C 364.70 89.95 356.99 109.64 360.00 114.00 Z"/>
</g>
<g fill="None" fill-opacity="0.0" stroke="#E99733" stroke-opacity="1.00" stroke-width="0.3"><path d="
M 143.00 114.00 
C 146.00 114.00 149.00 114.00 152.00 114.00
C 155.14 109.44 148.58 94.87 145.00 92.00
C 141.33 90.78 143.41 97.66 143.00 101.00 C 142.59 104.34 143.30 110.41 143.00 114.00 Z"/>
</g>
<g fill="None" fill-opacity="0.0" stroke="#EA9733" stroke-opacity="1.00" stroke-width="0.3"><path d="
M 369.00 114.00 
C 371.67 114.00 374.33 114.00 377.00 114.00
C 377.00 112.00 377.00 110.00 377.00 108.00
C 376.26 103.44 375.05 92.48 369.00 91.00
C 370.27 93.91 366.27 99.56 368.02 102.98 C 369.78 106.39 368.64 110.25 369.00 114.00 Z"/>
</g>
<g fill="None" fill-opacity="0.0" stroke="#7F501A" stroke-opacity="1.00" stroke-width="0.3"><path d="
M 152.00 114.00 
C 149.00 114.00 146.00 114.00 143.00 114.00
C 140.33 114.00 137.67 114.00 135.00 114.00
C 134.99 112.00 135.01 110.00 135.00 108.00
C 132.86 109.38 134.52 112.81 134.00 115.00
C 138.05 113.14 149.30 117.92 152.00 114.00 Z"/>
</g>
<g fill="None" fill-opacity="0.0" stroke="#83531B" stroke-opacity="1.00" stroke-width="0.3"><path d="
M 369.00 114.00 
C 366.00 114.00 363.00 114.00 360.00 114.00
C 365.01 116.32 372.17 114.34 378.00 115.00
C 378.85 112.59 377.28 109.73 377.00 108.00
C 377.00 110.00 377.00 112.00 377.00 114.00
C 374.33 114.00 371.67 114.00 369.00 114.00 Z"/>
</g>
<g fill="None" fill-opacity="0.0" stroke="#2C1C09" stroke-opacity="1.00" stroke-width="0.3"><path d="
M 135.00 130.00 
C 136.26 129.12 141.39 130.00 143.00 130.00
C 146.00 130.00 149.00 130.00 152.00 130.00
C 150.47 127.81 136.81 128.19 135.00 130.00 Z"/>
</g>
<g fill="None" fill-opacity="0.0" stroke="#2B1B09" stroke-opacity="1.00" stroke-width="0.3"><path d="
M 360.00 130.00 
C 363.00 130.00 366.00 130.00 369.00 130.00
C 372.00 130.00 375.00 130.00 378.00 130.00
C 376.62 128.02 361.43 127.95 360.00 130.00 Z"/>
</g>
<g fill="None" fill-opacity="0.0" stroke="#C77A26" stroke-opacity="1.00" stroke-width="0.3"><path d="
M 143.00 164.00 
C 143.00 152.67 143.00 141.33 143.00 130.00
C 141.39 130.00 136.26 129.12 135.00 130.00
C 132.67 140.34 134.67 152.83 134.00 164.00
C 137.00 164.00 140.00 164.00 143.00 164.00 Z"/>
</g>
<g fill="None" fill-opacity="0.0" stroke="#ED9934" stroke-opacity="1.00" stroke-width="0.3"><path d="
M 143.00 164.00 
C 146.00 164.00 149.00 164.00 152.00 164.00
C 150.96 159.06 153.39 151.69 152.00 147.00 C 150.61 142.31 154.66 133.80 152.00 130.00
C 149.00 130.00 146.00 130.00 143.00 130.00
C 143.00 141.33 143.00 152.67 143.00 164.00 Z"/>
</g>
<g fill="None" fill-opacity="0.0" stroke="#D08028" stroke-opacity="1.00" stroke-width="0.3"><path d="
M 369.00 164.00 
C 369.00 152.67 369.00 141.33 369.00 130.00
C 366.00 130.00 363.00 130.00 360.00 130.00
C 360.00 141.33 360.00 152.67 360.00 164.00
C 363.00 164.00 366.00 164.00 369.00 164.00 Z"/>
</g>
<g fill="None" fill-opacity="0.0" stroke="#E49332" stroke-opacity="1.00" stroke-width="0.3"><path d="
M 369.00 164.00 
C 372.00 164.00 375.00 164.00 378.00 164.00
C 376.96 159.06 379.39 151.69 378.00 147.00 C 376.61 142.31 380.66 133.80 378.00 130.00
C 375.00 130.00 372.00 130.00 369.00 130.00
C 369.00 141.33 369.00 152.67 369.00 164.00 Z"/>
</g>
<g fill="None" fill-opacity="0.0" stroke="#000000" stroke-opacity="0.98" stroke-width="0.3"><path d="
M 172.00 147.00 
C 175.26 149.85 173.75 152.41 179.00 154.00
C 195.37 156.77 213.33 153.27 230.00 154.00 C 246.67 154.73 264.27 154.81 281.00 154.00 C 297.73 153.19 316.49 156.79 333.00 154.00
C 338.23 152.41 336.76 149.84 340.00 147.00
C 340.97 135.22 318.55 139.32 306.00 139.00 C 293.45 138.68 269.58 139.01 256.00 139.00 C 242.42 138.99 218.54 138.71 206.00 139.00 C 193.46 139.29 171.04 135.28 172.00 147.00 Z"/>
</g>
<g fill="None" fill-opacity="0.0" stroke="#CF7F27" stroke-opacity="1.00" stroke-width="0.3"><path d="
M 318.00 173.00 
C 320.42 171.35 326.62 171.18 329.00 173.00
C 327.04 163.07 338.22 163.36 345.00 164.00
C 346.09 158.08 343.98 151.51 344.00 146.00
C 342.76 146.81 341.28 145.88 340.00 147.00
C 336.76 149.84 338.23 152.41 333.00 154.00
C 317.93 158.57 298.33 154.15 282.00 155.00 C 265.67 155.85 246.33 155.84 230.00 155.00 C 213.67 154.16 194.00 158.55 179.00 154.00
C 173.75 152.41 175.26 149.85 172.00 147.00
C 170.65 145.82 169.28 146.84 168.00 146.00
C 165.82 151.51 167.56 158.06 167.00 164.00
C 179.75 164.10 194.45 163.87 207.00 164.00 C 219.55 164.13 235.16 163.74 247.00 164.00 C 258.84 164.26 276.87 163.45 287.00 164.00 C 297.13 164.55 320.01 159.36 318.00 173.00 Z"/>
</g>
<g fill="None" fill-opacity="0.0" stroke="#6F4415" stroke-opacity="1.00" stroke-width="0.3"><path d="
M 333.00 154.00 
C 316.49 156.79 297.73 153.19 281.00 154.00 C 264.27 154.81 246.67 154.73 230.00 154.00 C 213.33 153.27 195.37 156.77 179.00 154.00
C 194.00 158.55 213.67 154.16 230.00 155.00 C 246.33 155.84 265.67 155.85 282.00 155.00 C 298.33 154.15 317.93 158.57 333.00 154.00 Z"/>
</g>
<g fill="None" fill-opacity="0.0" stroke="#EC9934" stroke-opacity="1.00" stroke-width="0.3"><path d="
M 318.00 173.00 
C 311.39 183.77 296.08 177.98 284.00 179.00 C 271.92 180.02 257.57 178.53 245.00 179.00 C 232.43 179.47 218.78 178.75 206.00 179.00 C 193.22 179.25 179.83 178.81 167.00 179.00
C 167.00 201.33 167.00 223.67 167.00 246.00
C 226.33 246.00 285.67 246.00 345.00 246.00
C 345.00 223.67 345.00 201.33 345.00 179.00
C 339.02 178.80 330.00 180.94 329.00 173.00
C 326.62 171.18 320.42 171.35 318.00 173.00 Z"/>
</g>
<g fill="None" fill-opacity="0.0" stroke="#845119" stroke-opacity="1.00" stroke-width="0.3"><path d="
M 143.00 246.00 
C 142.96 246.00 143.00 245.00 143.00 245.00
C 140.36 244.76 137.65 245.18 135.00 245.00
C 135.00 223.33 135.00 201.67 135.00 180.00
C 137.52 179.44 141.30 181.19 143.00 179.00
C 140.00 179.00 137.00 179.00 134.00 179.00
C 134.00 201.33 134.00 223.67 134.00 246.00
C 137.00 246.00 140.00 246.00 143.00 246.00 Z"/>
</g>
<g fill="None" fill-opacity="0.0" stroke="#D07F28" stroke-opacity="1.00" stroke-width="0.3"><path d="
M 143.00 245.00 
C 143.00 223.33 143.00 201.67 143.00 180.00
C 146.00 180.00 149.00 180.00 152.00 180.00
C 150.61 178.01 145.37 179.00 143.00 179.00
C 141.30 181.19 137.52 179.44 135.00 180.00
C 135.00 201.67 135.00 223.33 135.00 245.00
C 137.65 245.18 140.36 244.76 143.00 245.00 Z"/>
</g>
<g fill="None" fill-opacity="0.0" stroke="#CF7F28" stroke-opacity="1.00" stroke-width="0.3"><path d="
M 360.00 245.00 
C 362.98 245.20 366.02 244.73 369.00 245.00
C 368.98 223.33 369.02 201.67 369.00 180.00
C 371.52 179.44 375.30 181.19 377.00 179.00
C 371.33 179.00 365.67 179.00 360.00 179.00
C 360.20 184.43 359.73 190.65 360.00 196.00 C 360.27 201.35 359.46 206.86 360.00 212.00 C 360.54 217.14 358.90 224.27 360.00 229.00 C 361.10 233.73 357.44 241.34 360.00 245.00 Z"/>
</g>
<g fill="None" fill-opacity="0.0" stroke="#E39332" stroke-opacity="1.00" stroke-width="0.3"><path d="
M 369.00 245.00 
C 369.00 245.50 369.00 246.00 369.00 246.00
C 377.83 246.00 378.88 242.82 378.00 235.00 C 377.12 227.18 378.81 222.52 378.00 216.00 C 377.19 209.48 379.28 202.33 378.00 197.00 C 376.72 191.67 381.06 181.84 377.00 179.00
C 375.30 181.19 371.52 179.44 369.00 180.00
C 369.02 201.67 368.98 223.33 369.00 245.00 Z"/>
</g>
<g fill="None" fill-opacity="0.0" stroke="#EC9934" stroke-opacity="1.00" stroke-width="0.3"><path d="
M 143.00 245.00 
C 143.00 245.00 142.96 246.00 143.00 246.00
C 146.00 246.00 149.00 246.00 152.00 246.00
C 151.80 240.57 152.27 234.35 152.00 229.00 C 151.73 223.65 152.54 218.14 152.00 213.00 C 151.46 207.86 153.10 200.73 152.00 196.00 C 150.90 191.27 154.56 183.66 152.00 180.00
C 149.00 180.00 146.00 180.00 143.00 180.00
C 143.00 201.67 143.00 223.33 143.00 245.00 Z"/>
</g>
<g fill="None" fill-opacity="0.0" stroke="#000000" stroke-opacity="0.99" stroke-width="0.3"><path d="
M 32.00 239.00 
C 44.06 240.31 64.59 239.34 76.00 239.00 C 87.41 238.66 111.37 244.49 113.00 231.00
C 114.56 218.09 91.84 226.26 81.00 224.00 C 70.16 221.74 47.74 227.12 36.00 224.00 C 24.27 220.88 20.49 237.75 32.00 239.00 Z"/>
</g>
<g fill="None" fill-opacity="0.0" stroke="#000000" stroke-opacity="0.99" stroke-width="0.3"><path d="
M 399.00 231.00 
C 399.90 244.24 423.77 238.80 435.00 239.00 C 446.23 239.20 467.97 240.24 480.00 239.00
C 487.27 238.63 491.41 223.58 480.67 223.67 C 469.93 223.76 453.74 224.40 442.00 224.00 C 430.26 223.60 415.53 225.12 404.00 223.00
C 401.49 226.61 398.74 227.15 399.00 231.00 Z"/>
</g>
<g fill="None" fill-opacity="0.0" stroke="#C87B26" stroke-opacity="1.00" stroke-width="0.3"><path d="
M 32.00 239.00 
C 32.00 241.33 32.00 243.67 32.00 246.00
C 39.13 246.00 46.94 246.23 54.00 246.00 C 61.06 245.77 69.20 246.62 76.00 246.00 C 82.80 245.38 91.81 247.42 98.00 246.00 C 104.19 244.58 114.21 249.35 119.00 246.00
C 119.34 241.03 118.55 235.96 119.00 231.00
C 117.00 231.00 115.00 231.00 113.00 231.00
C 111.37 244.49 87.41 238.66 76.00 239.00 C 64.59 239.34 44.06 240.31 32.00 239.00 Z"/>
</g>
<g fill="None" fill-opacity="0.0" stroke="#261706" stroke-opacity="1.00" stroke-width="0.3"><path d="
M 119.00 246.00 
C 121.52 244.24 120.00 234.15 120.00 231.00
C 120.00 231.00 119.50 231.00 119.00 231.00
C 118.55 235.96 119.34 241.03 119.00 246.00 Z"/>
</g>
<g fill="None" fill-opacity="0.0" stroke="#251606" stroke-opacity="1.00" stroke-width="0.3"><path d="
M 393.00 246.00 
C 392.66 241.03 393.45 235.96 393.00 231.00
C 393.00 231.00 392.00 230.96 392.00 231.00
C 392.00 234.09 390.49 244.24 393.00 246.00 Z"/>
</g>
<g fill="None" fill-opacity="0.0" stroke="#C87B26" stroke-opacity="1.00" stroke-width="0.3"><path d="
M 393.00 246.00 
C 396.96 248.77 406.06 244.68 411.00 246.00 C 415.94 247.32 422.56 245.44 428.00 246.00 C 433.44 246.56 440.39 245.74 446.00 246.00 C 451.61 246.26 457.36 245.90 463.00 246.00 C 468.64 246.10 474.36 246.00 480.00 246.00
C 480.00 243.67 480.00 241.33 480.00 239.00
C 467.97 240.24 446.23 239.20 435.00 239.00 C 423.77 238.80 399.90 244.24 399.00 231.00
C 397.00 231.00 395.00 231.00 393.00 231.00
C 393.45 235.96 392.66 241.03 393.00 246.00 Z"/>
</g>
<g fill="None" fill-opacity="0.0" stroke="#985E1D" stroke-opacity="1.00" stroke-width="0.3"><path d="
M 369.00 246.00 
C 369.00 246.00 369.00 245.50 369.00 245.00
C 366.02 244.73 362.98 245.20 360.00 245.00
C 361.39 246.99 366.63 246.00 369.00 246.00 Z"/>
</g>
<g fill="None" fill-opacity="0.0" stroke="#EE9A34" stroke-opacity="1.00" stroke-width="0.3"><path d="
M 114.00 261.00 
C 89.33 261.00 64.67 261.00 40.00 261.00
C 40.00 273.33 40.00 285.67 40.00 298.00
C 64.67 298.00 89.33 298.00 114.00 298.00
C 114.00 285.67 114.00 273.33 114.00 261.00 Z"/>
</g>
<g fill="None" fill-opacity="0.0" stroke="#D18028" stroke-opacity="1.00" stroke-width="0.3"><path d="
M 129.00 298.00 
C 133.00 298.00 137.00 298.00 141.00 298.00
C 141.00 285.67 141.00 273.33 141.00 261.00
C 137.00 261.00 133.00 261.00 129.00 261.00
C 130.07 266.47 127.57 274.82 129.00 280.00 C 130.43 285.18 126.12 293.88 129.00 298.00 Z"/>
</g>
<g fill="None" fill-opacity="0.0" stroke="#EF9B35" stroke-opacity="1.00" stroke-width="0.3"><path d="
M 141.00 298.00 
C 146.33 298.00 151.67 298.00 157.00 298.00
C 157.00 285.67 157.00 273.33 157.00 261.00
C 151.67 261.00 146.33 261.00 141.00 261.00
C 141.00 273.33 141.00 285.67 141.00 298.00 Z"/>
</g>
<g fill="None" fill-opacity="0.0" stroke="#5E3B13" stroke-opacity="1.00" stroke-width="0.3"><path d="
M 173.00 298.00 
C 173.00 292.33 173.00 286.67 173.00 281.00
C 173.00 274.33 173.00 267.67 173.00 261.00
C 170.10 263.03 172.13 276.42 172.00 280.00 C 171.87 283.58 170.26 296.08 173.00 298.00 Z"/>
</g>
<g fill="None" fill-opacity="0.0" stroke="#D18028" stroke-opacity="1.00" stroke-width="0.3"><path d="
M 173.00 281.00 
C 176.63 279.51 185.60 283.43 188.00 280.00
C 188.00 273.67 188.00 267.33 188.00 261.00
C 184.23 262.76 176.36 258.65 173.00 261.00
C 173.00 267.67 173.00 274.33 173.00 281.00 Z"/>
</g>
<g fill="None" fill-opacity="0.0" stroke="#774817" stroke-opacity="1.00" stroke-width="0.3"><path d="
M 203.00 279.00 
C 205.18 273.87 203.45 266.87 204.00 261.00
C 201.23 262.94 203.00 275.47 203.00 279.00 Z"/>
</g>
<g fill="None" fill-opacity="0.0" stroke="#D07F28" stroke-opacity="1.00" stroke-width="0.3"><path d="
M 203.00 279.00 
C 203.00 279.50 203.17 280.57 203.00 281.00
C 207.22 282.87 214.93 280.37 219.00 280.00
C 216.80 274.16 218.57 267.27 218.00 261.00
C 214.48 262.64 207.13 258.81 204.00 261.00
C 203.45 266.87 205.18 273.87 203.00 279.00 Z"/>
</g>
<g fill="None" fill-opacity="0.0" stroke="#653E13" stroke-opacity="1.00" stroke-width="0.3"><path d="
M 233.00 279.00 
C 235.18 273.87 233.45 266.87 234.00 261.00
C 231.23 262.94 233.00 275.47 233.00 279.00 Z"/>
</g>
<g fill="None" fill-opacity="0.0" stroke="#D07F28" stroke-opacity="1.00" stroke-width="0.3"><path d="
M 233.00 279.00 
C 233.00 279.50 233.17 280.57 233.00 281.00
C 235.24 281.99 246.76 281.99 249.00 281.00
C 248.85 280.55 249.00 279.50 249.00 279.00
C 246.82 273.87 248.55 266.87 248.00 261.00
C 246.95 260.26 235.05 260.26 234.00 261.00
C 233.45 266.87 235.18 273.87 233.00 279.00 Z"/>
</g>
<g fill="None" fill-opacity="0.0" stroke="#543310" stroke-opacity="1.00" stroke-width="0.3"><path d="
M 249.00 279.00 
C 249.00 275.52 250.78 262.94 248.00 261.00
C 248.55 266.87 246.82 273.87 249.00 279.00 Z"/>
</g>
<g fill="None" fill-opacity="0.0" stroke="#D07F28" stroke-opacity="1.00" stroke-width="0.3"><path d="
M 263.00 281.00 
C 267.66 279.43 274.53 282.98 279.00 281.00
C 278.83 280.57 279.00 279.50 279.00 279.00
C 276.82 273.87 278.55 266.87 278.00 261.00
C 273.33 261.00 268.67 261.00 264.00 261.00
C 262.93 267.31 265.84 275.19 263.00 281.00 Z"/>
</g>
<g fill="None" fill-opacity="0.0" stroke="#663E13" stroke-opacity="1.00" stroke-width="0.3"><path d="
M 279.00 279.00 
C 279.00 275.52 280.78 262.94 278.00 261.00
C 278.55 266.87 276.82 273.87 279.00 279.00 Z"/>
</g>
<g fill="None" fill-opacity="0.0" stroke="#CB7C27" stroke-opacity="1.00" stroke-width="0.3"><path d="
M 293.00 281.00 
C 295.84 279.95 306.12 280.04 309.00 281.00
C 309.00 274.33 309.00 267.67 309.00 261.00
C 304.00 261.00 299.00 261.00 294.00 261.00
C 293.06 267.39 295.67 275.09 293.00 281.00 Z"/>
</g>
<g fill="None" fill-opacity="0.0" stroke="#D18028" stroke-opacity="1.00" stroke-width="0.3"><path d="
M 323.00 281.00 
C 327.69 279.27 334.15 282.30 339.00 281.00
C 339.00 274.33 339.00 267.67 339.00 261.00
C 334.00 261.00 329.00 261.00 324.00 261.00
C 323.02 267.41 325.74 275.07 323.00 281.00 Z"/>
</g>
<g fill="None" fill-opacity="0.0" stroke="#5F3C13" stroke-opacity="1.00" stroke-width="0.3"><path d="
M 339.00 281.00 
C 339.00 286.67 339.00 292.33 339.00 298.00
C 341.90 295.97 339.87 282.58 340.00 279.00 C 340.13 275.42 341.74 262.92 339.00 261.00
C 339.00 267.67 339.00 274.33 339.00 281.00 Z"/>
</g>
<g fill="None" fill-opacity="0.0" stroke="#D08028" stroke-opacity="1.00" stroke-width="0.3"><path d="
M 366.00 298.00 
C 366.00 285.67 366.00 273.33 366.00 261.00
C 362.33 261.00 358.67 261.00 355.00 261.00
C 355.00 273.33 355.00 285.67 355.00 298.00
C 358.67 298.00 362.33 298.00 366.00 298.00 Z"/>
</g>
<g fill="None" fill-opacity="0.0" stroke="#EE9A34" stroke-opacity="1.00" stroke-width="0.3"><path d="
M 366.00 298.00 
C 371.67 298.00 377.33 298.00 383.00 298.00
C 383.00 285.67 383.00 273.33 383.00 261.00
C 377.33 261.00 371.67 261.00 366.00 261.00
C 366.00 273.33 366.00 285.67 366.00 298.00 Z"/>
</g>
<g fill="None" fill-opacity="0.0" stroke="#EE9A34" stroke-opacity="1.00" stroke-width="0.3"><path d="
M 472.00 261.00 
C 447.33 261.00 422.67 261.00 398.00 261.00
C 398.00 273.33 398.00 285.67 398.00 298.00
C 422.67 298.00 447.33 298.00 472.00 298.00
C 472.00 285.67 472.00 273.33 472.00 261.00 Z"/>
</g>
<g fill="None" fill-opacity="0.0" stroke="#EC9934" stroke-opacity="1.00" stroke-width="0.3"><path d="
M 173.00 281.00 
C 173.00 286.67 173.00 292.33 173.00 298.00
C 176.47 300.43 183.29 295.75 186.92 299.08 C 190.55 302.42 192.23 302.66 191.30 308.30 C 190.38 313.95 183.55 311.07 181.00 313.00
C 181.00 355.33 181.00 397.67 181.00 440.00
C 184.33 440.00 187.67 440.00 191.00 440.00
C 191.93 427.65 189.77 410.92 191.00 399.00 C 192.23 387.08 185.07 368.24 200.00 367.00
C 201.12 352.53 208.85 332.22 219.08 322.08 C 229.31 311.94 241.12 295.14 256.00 295.00 C 270.87 294.87 282.60 312.15 292.75 322.25 C 302.91 332.34 311.07 352.49 312.00 367.00
C 317.88 365.72 319.88 369.46 321.00 374.00
C 326.06 394.42 319.29 418.66 322.00 440.00
C 322.68 440.47 330.32 440.47 331.00 440.00
C 331.00 397.67 331.00 355.33 331.00 313.00
C 328.50 311.11 321.54 313.81 320.78 308.22 C 320.02 302.64 321.17 302.37 324.93 298.93 C 328.68 295.48 335.38 300.53 339.00 298.00
C 339.00 292.33 339.00 286.67 339.00 281.00
C 334.15 282.30 327.69 279.27 323.00 281.00
C 319.10 289.44 313.19 282.40 309.00 281.00
C 306.12 280.04 295.84 279.95 293.00 281.00
C 290.52 286.48 281.24 286.49 279.00 281.00
C 274.53 282.98 267.66 279.43 263.00 281.00
C 260.63 285.85 250.96 286.96 249.00 281.00
C 246.76 281.99 235.24 281.99 233.00 281.00
C 230.38 287.45 221.11 285.78 219.00 280.00
C 214.93 280.37 207.22 282.87 203.00 281.00
C 200.59 286.92 189.88 286.20 188.00 280.00
C 185.60 283.43 176.63 279.51 173.00 281.00 Z"/>
</g>
<g fill="None" fill-opacity="0.0" stroke="#2D1C09" stroke-opacity="1.00" stroke-width="0.3"><path d="
M 157.00 298.00 
C 151.67 298.00 146.33 298.00 141.00 298.00
C 137.00 298.00 133.00 298.00 129.00 298.00
C 130.69 300.42 140.01 299.01 143.00 299.00 C 145.99 298.99 155.29 300.44 157.00 298.00 Z"/>
</g>
<g fill="None" fill-opacity="0.0" stroke="#000000" stroke-opacity="0.01" stroke-width="0.3"><path d="
M 0.00 512.00 
L 512.00 512.00
L 512.00 307.00
C 510.86 308.64 509.54 310.88 509.00 313.00
C 506.49 312.29 505.36 314.51 502.00 313.00
C 502.48 327.05 501.36 339.83 502.00 354.00 C 502.64 368.18 500.78 380.36 502.00 395.00 C 503.22 409.64 499.38 420.24 502.00 436.00 C 504.62 451.76 495.07 457.33 480.00 455.00 C 464.93 452.67 453.34 456.12 439.00 455.00 C 424.66 453.88 412.06 455.65 398.00 455.00 C 383.94 454.35 371.04 455.62 357.00 455.00 C 342.96 454.38 330.27 456.01 316.00 455.00 C 301.74 453.99 307.90 434.51 307.00 423.00 C 306.10 411.49 307.67 394.05 307.00 382.00
C 294.81 382.47 298.05 363.76 294.97 357.03 C 291.89 350.30 289.99 344.72 286.19 339.25 C 282.39 333.78 279.34 327.02 272.10 321.91 C 264.86 316.79 262.43 313.26 254.00 311.00
C 247.99 316.55 239.92 321.06 232.32 329.32 C 224.72 337.58 224.34 343.78 219.58 351.23 C 214.81 358.68 217.87 379.86 205.00 382.00
C 204.33 394.05 205.90 411.49 205.00 423.00 C 204.10 434.51 210.26 453.99 196.00 455.00 C 181.74 456.01 169.04 454.37 155.00 455.00 C 140.96 455.63 128.06 454.35 114.00 455.00 C 99.94 455.65 87.34 453.88 73.00 455.00 C 58.66 456.12 47.07 452.67 32.00 455.00 C 16.93 457.33 7.38 451.76 10.00 436.00 C 12.62 420.24 8.78 409.64 10.00 395.00 C 11.22 380.36 9.36 368.17 10.00 354.00 C 10.64 339.83 9.52 327.05 10.00 313.00
C 6.61 314.02 5.17 312.34 3.00 313.00
C 2.69 310.77 0.87 308.78 0.00 307.00
L 0.00 512.00 Z"/>
</g>
<g fill="None" fill-opacity="0.0" stroke="#7E501B" stroke-opacity="1.00" stroke-width="0.3"><path d="
M 25.00 440.00 
C 25.00 403.00 25.00 366.00 25.00 329.00
C 25.00 324.00 25.00 319.00 25.00 314.00
C 32.50 311.77 33.18 316.71 34.00 322.00
C 34.00 319.00 34.00 316.00 34.00 313.00
C 30.67 313.00 27.33 313.00 24.00 313.00
C 24.04 320.15 23.94 327.91 24.00 335.00 C 24.06 342.09 23.88 349.04 24.00 356.00 C 24.12 362.96 23.75 370.19 24.00 377.00 C 24.25 383.81 23.48 392.56 24.00 399.00 C 24.52 405.44 22.79 414.51 24.00 420.00 C 25.21 425.49 20.83 437.08 25.00 440.00 Z"/>
</g>
<g fill="None" fill-opacity="0.0" stroke="#C97B26" stroke-opacity="1.00" stroke-width="0.3"><path d="
M 34.00 322.00 
C 33.18 316.71 32.50 311.77 25.00 314.00
C 25.00 319.00 25.00 324.00 25.00 329.00
C 51.67 329.00 78.33 329.00 105.00 329.00
C 105.63 332.83 103.72 337.99 106.00 341.00
C 105.20 337.40 106.00 332.70 106.00 329.00
C 105.61 324.96 103.39 317.94 106.00 314.00
C 103.98 311.78 99.84 313.59 97.00 313.00
C 103.24 331.39 75.75 331.37 82.00 313.00
C 79.00 313.00 76.00 313.00 73.00 313.00
C 74.04 319.11 72.78 328.25 65.03 327.97 C 57.27 327.70 57.66 318.60 58.00 313.00
C 55.00 313.00 52.00 313.00 49.00 313.00
C 53.22 323.47 38.60 334.46 34.00 322.00 Z"/>
</g>
<g fill="None" fill-opacity="0.0" stroke="#89571D" stroke-opacity="1.00" stroke-width="0.3"><path d="
M 121.00 314.00 
C 125.67 314.00 130.33 314.00 135.00 314.00
C 145.00 314.00 155.00 314.00 165.00 314.00
C 162.83 310.91 147.02 312.98 143.00 313.00 C 138.98 313.02 123.20 310.86 121.00 314.00 Z"/>
</g>
<g fill="None" fill-opacity="0.0" stroke="#623F15" stroke-opacity="1.00" stroke-width="0.3"><path d="
M 181.00 440.00 
C 181.00 397.67 181.00 355.33 181.00 313.00
C 176.81 316.18 181.24 328.44 180.00 334.00 C 178.76 339.56 180.45 348.64 180.00 355.00 C 179.55 361.36 180.03 370.45 180.00 377.00 C 179.97 383.55 179.57 391.69 180.00 398.00 C 180.43 404.31 178.89 414.45 180.00 420.00 C 181.11 425.55 176.86 437.10 181.00 440.00 Z"/>
</g>
<g fill="None" fill-opacity="0.0" stroke="#634015" stroke-opacity="1.00" stroke-width="0.3"><path d="
M 331.00 440.00 
C 335.19 437.07 330.75 424.45 332.00 419.00 C 333.25 413.55 331.55 404.32 332.00 398.00 C 332.45 391.68 331.97 382.54 332.00 376.00 C 332.03 369.46 332.43 361.34 332.00 355.00 C 331.57 348.66 333.10 338.65 332.00 333.00 C 330.90 327.35 335.14 316.14 331.00 313.00
C 331.00 355.33 331.00 397.67 331.00 440.00 Z"/>
</g>
<g fill="None" fill-opacity="0.0" stroke="#89581D" stroke-opacity="1.00" stroke-width="0.3"><path d="
M 347.00 314.00 
C 351.33 314.00 355.67 314.00 360.00 314.00
C 370.33 314.00 380.67 314.00 391.00 314.00
C 388.83 310.91 373.02 312.98 369.00 313.00 C 364.98 313.02 349.20 310.86 347.00 314.00 Z"/>
</g>
<g fill="None" fill-opacity="0.0" stroke="#C67A26" stroke-opacity="1.00" stroke-width="0.3"><path d="
M 407.00 440.00 
C 407.00 403.00 407.00 366.00 407.00 329.00
C 433.67 329.00 460.33 329.00 487.00 329.00
C 487.00 324.00 487.00 319.00 487.00 314.00
C 479.50 311.77 478.82 316.71 478.00 322.00
C 473.93 334.66 458.36 323.31 463.00 313.00
C 449.75 308.81 457.94 322.98 450.07 327.07 C 442.21 331.16 436.24 320.26 439.00 313.00
C 436.00 313.00 433.00 313.00 430.00 313.00
C 436.24 331.39 408.75 331.37 415.00 313.00
C 412.00 313.00 409.00 313.00 406.00 313.00
C 406.04 320.15 405.94 327.91 406.00 335.00 C 406.06 342.09 405.88 349.04 406.00 356.00 C 406.12 362.96 405.75 370.19 406.00 377.00 C 406.25 383.81 405.48 392.56 406.00 399.00 C 406.52 405.44 404.79 414.51 406.00 420.00 C 407.21 425.49 402.83 437.08 407.00 440.00 Z"/>
</g>
<g fill="None" fill-opacity="0.0" stroke="#7E501B" stroke-opacity="1.00" stroke-width="0.3"><path d="
M 478.00 322.00 
C 478.82 316.71 479.50 311.77 487.00 314.00
C 487.00 319.00 487.00 324.00 487.00 329.00
C 487.00 366.00 487.00 403.00 487.00 440.00
C 489.33 398.65 487.33 355.17 488.00 313.00
C 484.67 313.00 481.33 313.00 478.00 313.00
C 477.52 315.89 478.63 319.14 478.00 322.00 Z"/>
</g>
<g fill="None" fill-opacity="0.0" stroke="#A1631F" stroke-opacity="1.00" stroke-width="0.3"><path d="
M 106.00 329.00 
C 106.00 325.98 107.65 316.36 106.00 314.00
C 103.39 317.94 105.61 324.96 106.00 329.00 Z"/>
</g>
<g fill="None" fill-opacity="0.0" stroke="#D18028" stroke-opacity="1.00" stroke-width="0.3"><path d="
M 112.00 347.00 
C 113.95 349.87 112.59 353.73 113.00 357.00
C 127.19 362.20 119.49 381.56 121.00 395.00 C 122.51 408.44 119.87 426.17 121.00 440.00
C 125.67 440.00 130.33 440.00 135.00 440.00
C 135.00 398.00 135.00 356.00 135.00 314.00
C 130.33 314.00 125.67 314.00 121.00 314.00
C 116.21 320.84 129.14 349.53 112.00 347.00 Z"/>
</g>
<g fill="None" fill-opacity="0.0" stroke="#EE9B34" stroke-opacity="1.00" stroke-width="0.3"><path d="
M 135.00 440.00 
C 145.00 440.00 155.00 440.00 165.00 440.00
C 164.94 433.04 165.07 425.95 165.00 419.00 C 164.93 412.05 165.14 404.90 165.00 398.00 C 164.86 391.10 165.31 383.79 165.00 377.00 C 164.69 370.21 165.67 362.53 165.00 356.00 C 164.33 349.47 166.49 340.96 165.00 335.00 C 163.51 329.04 168.29 318.70 165.00 314.00
C 155.00 314.00 145.00 314.00 135.00 314.00
C 135.00 356.00 135.00 398.00 135.00 440.00 Z"/>
</g>
<g fill="None" fill-opacity="0.0" stroke="#D18028" stroke-opacity="1.00" stroke-width="0.3"><path d="
M 360.00 440.00 
C 360.00 398.00 360.00 356.00 360.00 314.00
C 355.67 314.00 351.33 314.00 347.00 314.00
C 347.00 356.00 347.00 398.00 347.00 440.00
C 351.33 440.00 355.67 440.00 360.00 440.00 Z"/>
</g>
<g fill="None" fill-opacity="0.0" stroke="#EE9A34" stroke-opacity="1.00" stroke-width="0.3"><path d="
M 360.00 440.00 
C 370.33 440.00 380.67 440.00 391.00 440.00
C 390.94 433.04 391.07 425.95 391.00 419.00 C 390.93 412.05 391.14 404.90 391.00 398.00 C 390.86 391.10 391.31 383.79 391.00 377.00 C 390.69 370.21 391.67 362.53 391.00 356.00 C 390.33 349.47 392.49 340.96 391.00 335.00 C 389.52 329.04 394.29 318.70 391.00 314.00
C 380.67 314.00 370.33 314.00 360.00 314.00
C 360.00 356.00 360.00 398.00 360.00 440.00 Z"/>
</g>
<g fill="None" fill-opacity="0.0" stroke="#EC9934" stroke-opacity="1.00" stroke-width="0.3"><path d="
M 25.00 440.00 
C 26.34 440.94 39.52 440.83 41.00 440.00
C 41.00 431.00 41.00 422.00 41.00 413.00
C 35.93 413.00 35.03 410.16 34.00 406.00
C 32.31 399.17 33.35 390.71 34.00 384.00
C 34.00 374.75 37.29 361.82 42.92 354.92 C 48.55 348.01 55.32 338.31 64.03 337.03 C 72.73 335.74 80.77 346.90 86.25 352.75 C 91.73 358.61 97.16 373.08 96.99 381.01 C 96.82 388.94 101.45 412.35 90.00 413.00
C 88.16 415.40 88.39 420.85 89.00 424.00 C 89.61 427.15 87.67 433.75 88.00 436.00
C 88.54 437.31 89.41 438.44 89.00 440.00
C 94.67 440.00 100.33 440.00 106.00 440.00
C 106.18 430.78 105.76 418.96 106.00 410.00 C 106.24 401.04 105.54 388.00 106.00 380.00 C 106.46 372.00 102.60 357.56 113.00 357.00
C 112.59 353.73 113.95 349.87 112.00 347.00
C 108.86 346.54 106.99 343.67 106.00 341.00
C 103.72 337.99 105.63 332.83 105.00 329.00
C 78.33 329.00 51.67 329.00 25.00 329.00
C 25.00 366.00 25.00 403.00 25.00 440.00 Z"/>
</g>
<g fill="None" fill-opacity="0.0" stroke="#ED9934" stroke-opacity="1.00" stroke-width="0.3"><path d="
M 407.00 440.00 
C 412.33 440.00 417.67 440.00 423.00 440.00
C 422.61 438.42 423.46 437.31 424.00 436.00
C 424.33 433.75 422.63 428.18 423.00 425.00 C 423.37 421.82 423.96 415.56 422.00 413.00
C 410.66 412.36 415.19 389.90 415.00 382.00 C 414.81 374.10 419.40 359.96 424.92 353.92 C 430.43 347.88 437.31 337.59 446.03 337.02 C 454.74 336.46 462.07 346.66 467.75 353.25 C 473.44 359.83 477.65 372.91 478.00 382.00
C 479.04 389.25 479.78 398.82 478.00 406.00
C 476.98 410.13 476.09 413.00 471.00 413.00
C 471.00 422.00 471.00 431.00 471.00 440.00
C 472.48 440.83 485.66 440.94 487.00 440.00
C 487.00 403.00 487.00 366.00 487.00 329.00
C 460.33 329.00 433.67 329.00 407.00 329.00
C 407.00 366.00 407.00 403.00 407.00 440.00 Z"/>
</g>
<g fill="None" fill-opacity="0.0" stroke="#000000" stroke-opacity="1.00" stroke-width="0.3"><path d="
M 34.00 384.00 
C 34.00 391.15 33.12 398.92 34.00 406.00
C 35.03 410.16 35.93 413.00 41.00 413.00
C 52.53 413.00 48.68 396.84 49.00 388.00 C 49.32 379.16 50.64 370.81 56.30 362.30 C 61.97 353.79 68.56 353.88 73.77 362.23 C 78.98 370.58 81.76 378.40 82.00 387.00 C 82.23 395.60 78.25 413.66 90.00 413.00
C 101.45 412.35 96.82 388.94 96.99 381.01 C 97.16 373.08 91.73 358.61 86.25 352.75 C 80.77 346.90 72.73 335.74 64.03 337.03 C 55.32 338.31 48.55 348.01 42.92 354.92 C 37.29 361.82 34.00 374.75 34.00 384.00 Z"/>
</g>
<g fill="None" fill-opacity="0.0" stroke="#000000" stroke-opacity="1.00" stroke-width="0.3"><path d="
M 422.00 413.00 
C 433.42 413.65 429.96 396.57 430.00 388.00 C 430.04 379.43 432.67 371.09 437.75 362.75 C 442.83 354.42 449.43 353.27 455.25 361.75 C 461.06 370.24 462.48 378.14 463.00 387.00 C 463.52 395.86 459.12 413.00 471.00 413.00
C 476.09 413.00 476.98 410.13 478.00 406.00
C 478.94 398.40 478.29 389.67 478.00 382.00
C 477.65 372.91 473.44 359.83 467.75 353.25 C 462.07 346.66 454.74 336.46 446.03 337.02 C 437.31 337.59 430.43 347.88 424.92 353.92 C 419.40 359.96 414.81 374.10 415.00 382.00 C 415.19 389.90 410.66 412.36 422.00 413.00 Z"/>
</g>
<g fill="None" fill-opacity="0.0" stroke="#CE7E27" stroke-opacity="1.00" stroke-width="0.3"><path d="
M 41.00 413.00 
C 41.00 422.00 41.00 431.00 41.00 440.00
C 45.41 437.52 43.85 423.71 49.25 420.25 C 54.65 416.78 55.73 408.62 63.00 407.00 C 70.26 405.38 74.74 413.16 79.25 417.75 C 83.75 422.35 85.63 430.30 88.00 436.00
C 87.67 433.75 89.61 427.15 89.00 424.00 C 88.39 420.85 88.16 415.40 90.00 413.00
C 78.25 413.66 82.23 395.60 82.00 387.00 C 81.76 378.40 78.98 370.58 73.77 362.23 C 68.56 353.88 61.97 353.79 56.30 362.30 C 50.64 370.81 49.32 379.16 49.00 388.00 C 48.68 396.84 52.53 413.00 41.00 413.00 Z"/>
</g>
<g fill="None" fill-opacity="0.0" stroke="#CE7E27" stroke-opacity="1.00" stroke-width="0.3"><path d="
M 422.00 413.00 
C 423.96 415.56 423.37 421.82 423.00 425.00 C 422.63 428.18 424.33 433.75 424.00 436.00
C 426.45 430.13 428.46 421.80 433.08 417.08 C 437.71 412.37 442.63 405.15 449.75 407.25 C 456.87 409.35 457.80 417.36 463.08 420.92 C 468.36 424.48 466.60 437.52 471.00 440.00
C 471.00 431.00 471.00 422.00 471.00 413.00
C 459.12 413.00 463.52 395.86 463.00 387.00 C 462.48 378.14 461.06 370.24 455.25 361.75 C 449.43 353.27 442.83 354.42 437.75 362.75 C 432.67 371.09 430.04 379.43 430.00 388.00 C 429.96 396.57 433.42 413.65 422.00 413.00 Z"/>
</g>
<g fill="None" fill-opacity="0.0" stroke="#8B5A1F" stroke-opacity="1.00" stroke-width="0.3"><path d="
M 322.00 440.00 
C 319.29 418.66 326.06 394.42 321.00 374.00
C 321.85 380.84 320.17 390.39 321.00 397.00 C 321.83 403.61 319.60 413.30 321.00 419.00 C 322.40 424.70 317.62 436.93 322.00 440.00 Z"/>
</g>
<g fill="None" fill-opacity="0.0" stroke="#88581E" stroke-opacity="1.00" stroke-width="0.3"><path d="
M 478.00 406.00 
C 479.78 398.82 479.04 389.25 478.00 382.00
C 478.29 389.67 478.94 398.40 478.00 406.00 Z"/>
</g>
<g fill="None" fill-opacity="0.0" stroke="#85561E" stroke-opacity="1.00" stroke-width="0.3"><path d="
M 34.00 406.00 
C 33.12 398.92 34.00 391.15 34.00 384.00
C 33.35 390.71 32.31 399.17 34.00 406.00 Z"/>
</g>
<g fill="None" fill-opacity="0.0" stroke="#4C2F12" stroke-opacity="1.00" stroke-width="0.3"><path d="
M 73.00 440.00 
C 72.32 434.43 69.72 426.98 64.00 425.00
C 61.17 429.79 58.24 434.54 57.00 440.00
C 62.33 440.00 67.67 440.00 73.00 440.00 Z"/>
</g>
<g fill="None" fill-opacity="0.0" stroke="#4C2F12" stroke-opacity="1.00" stroke-width="0.3"><path d="
M 455.00 440.00 
C 453.26 434.49 451.50 428.26 446.00 425.00
C 442.77 429.44 439.07 434.29 439.00 440.00
C 444.33 440.00 449.67 440.00 455.00 440.00 Z"/>
</g>
<g fill="#000000" fill-opacity="0.00" stroke="None">
<path d="
M 0.00 304.00 
C 1.24 301.87 3.40 300.34 4.00 298.00
C 9.99 299.81 18.06 298.68 25.00 299.00
C 25.00 286.33 25.00 273.67 25.00 261.00
C 19.20 261.99 16.83 259.58 13.00 257.00
C 14.52 254.97 14.29 252.04 13.00 250.00
C 18.20 244.68 23.54 245.80 32.00 246.00
C 32.00 243.67 32.00 241.33 32.00 239.00
C 20.49 237.75 24.27 220.88 36.00 224.00 C 47.74 227.12 70.16 221.74 81.00 224.00 C 91.84 226.26 114.56 218.09 113.00 231.00
C 115.00 231.00 117.00 231.00 119.00 231.00
C 119.50 231.00 120.00 231.00 120.00 231.00
C 120.00 213.67 120.00 196.33 120.00 179.00
C 110.11 181.13 106.50 169.77 113.00 164.00
C 115.14 166.02 117.41 163.14 120.00 164.00
C 120.00 152.67 120.00 141.33 120.00 130.00
C 115.52 129.79 113.59 128.74 110.00 126.00
C 110.21 119.69 112.38 112.86 120.00 115.00
C 117.44 103.98 122.79 97.77 124.13 91.08 C 125.47 84.39 138.13 79.73 136.00 69.00 C 133.87 58.27 143.12 52.43 151.00 61.00
C 144.49 73.24 157.78 81.74 161.59 88.75 C 165.39 95.77 167.10 103.69 167.00 115.00
C 172.84 113.03 175.66 118.53 177.00 124.00
C 174.06 125.05 172.09 131.97 167.00 129.00
C 167.65 134.50 165.68 141.33 168.00 146.00
C 169.28 146.84 170.65 145.82 172.00 147.00
C 171.04 135.28 193.46 139.29 206.00 139.00 C 218.54 138.71 242.42 138.99 256.00 139.00 C 269.58 139.01 293.45 138.68 306.00 139.00 C 318.55 139.32 340.97 135.22 340.00 147.00
C 341.28 145.88 342.76 146.81 344.00 146.00
C 344.01 141.24 346.07 134.51 345.00 129.00
C 339.99 131.97 337.99 125.12 335.00 124.00
C 336.46 118.46 338.80 113.35 345.00 115.00
C 344.52 103.69 346.83 96.40 350.58 89.23 C 354.32 82.06 367.22 73.87 361.00 61.00
C 368.43 53.25 378.08 57.29 376.00 68.00 C 373.92 78.71 385.56 84.23 387.39 90.75 C 389.23 97.27 394.58 103.86 392.00 115.00
C 399.67 112.70 401.82 120.08 402.00 126.00
C 398.54 128.66 396.52 129.81 392.00 130.00
C 392.00 141.33 392.00 152.67 392.00 164.00
C 394.75 163.72 396.47 165.13 399.00 164.00
C 405.54 169.43 401.97 181.23 392.00 179.00
C 392.00 196.33 392.00 213.67 392.00 231.00
C 392.00 230.96 393.00 231.00 393.00 231.00
C 395.00 231.00 397.00 231.00 399.00 231.00
C 398.74 227.15 401.49 226.61 404.00 223.00
C 415.53 225.12 430.26 223.60 442.00 224.00 C 453.74 224.40 469.93 223.76 480.67 223.67 C 491.41 223.58 487.27 238.63 480.00 239.00
C 480.00 241.33 480.00 243.67 480.00 246.00
C 488.53 246.00 493.63 244.52 499.00 250.00
C 496.99 252.17 498.65 254.68 499.00 257.00
C 495.31 259.70 492.63 261.71 487.00 261.00
C 487.00 273.67 487.00 286.33 487.00 299.00
C 493.99 298.58 501.41 299.98 508.00 298.00
C 508.69 300.07 510.63 302.09 512.00 304.00
L 512.00 0.00
L 0.00 0.00
L 0.00 304.00 Z"/>
</g>
<g fill="#000000" fill-opacity="1.00" stroke="None">
<path d="
M 120.00 231.00 
C 120.00 234.15 121.52 244.24 119.00 246.00
C 114.21 249.35 104.19 244.58 98.00 246.00 C 91.81 247.42 82.80 245.38 76.00 246.00 C 69.20 246.62 61.06 245.77 54.00 246.00 C 46.94 246.23 39.13 246.00 32.00 246.00
C 23.54 245.80 18.20 244.68 13.00 250.00
C 14.29 252.04 14.52 254.97 13.00 257.00
C 16.83 259.58 19.20 261.99 25.00 261.00
C 25.00 273.67 25.00 286.33 25.00 299.00
C 18.06 298.68 9.99 299.81 4.00 298.00
C 3.40 300.34 1.24 301.87 0.00 304.00
L 0.00 307.00
C 0.87 308.78 2.69 310.77 3.00 313.00
C 5.17 312.34 6.61 314.02 10.00 313.00
C 9.52 327.05 10.64 339.83 10.00 354.00 C 9.36 368.17 11.22 380.36 10.00 395.00 C 8.78 409.64 12.62 420.24 10.00 436.00 C 7.38 451.76 16.93 457.33 32.00 455.00 C 47.07 452.67 58.66 456.12 73.00 455.00 C 87.34 453.88 99.94 455.65 114.00 455.00 C 128.06 454.35 140.96 455.63 155.00 455.00 C 169.04 454.37 181.74 456.01 196.00 455.00 C 210.26 453.99 204.10 434.51 205.00 423.00 C 205.90 411.49 204.33 394.05 205.00 382.00
C 217.87 379.86 214.81 358.68 219.58 351.23 C 224.34 343.78 224.72 337.58 232.32 329.32 C 239.92 321.06 247.99 316.55 254.00 311.00
C 262.43 313.26 264.86 316.79 272.10 321.91 C 279.34 327.02 282.39 333.78 286.19 339.25 C 289.99 344.72 291.89 350.30 294.97 357.03 C 298.05 363.76 294.81 382.47 307.00 382.00
C 307.67 394.05 306.10 411.49 307.00 423.00 C 307.90 434.51 301.74 453.99 316.00 455.00 C 330.27 456.01 342.96 454.38 357.00 455.00 C 371.04 455.62 383.94 454.35 398.00 455.00 C 412.06 455.65 424.66 453.88 439.00 455.00 C 453.34 456.12 464.93 452.67 480.00 455.00 C 495.07 457.33 504.62 451.76 502.00 436.00 C 499.38 420.24 503.22 409.64 502.00 395.00 C 500.78 380.36 502.64 368.18 502.00 354.00 C 501.36 339.83 502.48 327.05 502.00 313.00
C 505.36 314.51 506.49 312.29 509.00 313.00
C 509.54 310.88 510.86 308.64 512.00 307.00
L 512.00 304.00
C 510.63 302.09 508.69 300.07 508.00 298.00
C 501.41 299.98 493.99 298.58 487.00 299.00
C 487.00 286.33 487.00 273.67 487.00 261.00
C 492.63 261.71 495.31 259.70 499.00 257.00
C 498.65 254.68 496.99 252.17 499.00 250.00
C 493.63 244.52 488.53 246.00 480.00 246.00
C 474.36 246.00 468.64 246.10 463.00 246.00 C 457.36 245.90 451.61 246.26 446.00 246.00 C 440.39 245.74 433.44 246.56 428.00 246.00 C 422.56 245.44 415.94 247.32 411.00 246.00 C 406.06 244.68 396.96 248.77 393.00 246.00
C 390.49 244.24 392.00 234.09 392.00 231.00
C 392.00 213.67 392.00 196.33 392.00 179.00
C 401.97 181.23 405.54 169.43 399.00 164.00
C 396.47 165.13 394.75 163.72 392.00 164.00
C 392.00 152.67 392.00 141.33 392.00 130.00
C 396.52 129.81 398.54 128.66 402.00 126.00
C 401.82 120.08 399.67 112.70 392.00 115.00
C 394.58 103.86 389.23 97.27 387.39 90.75 C 385.56 84.23 373.92 78.71 376.00 68.00 C 378.08 57.29 368.43 53.25 361.00 61.00
C 367.22 73.87 354.32 82.06 350.58 89.23 C 346.83 96.40 344.52 103.69 345.00 115.00
C 338.80 113.35 336.46 118.46 335.00 124.00
C 337.99 125.12 339.99 131.97 345.00 129.00
C 346.07 134.51 344.01 141.24 344.00 146.00
C 343.98 151.51 346.09 158.08 345.00 164.00
C 338.22 163.36 327.04 163.07 329.00 173.00
C 330.00 180.94 339.02 178.80 345.00 179.00
C 345.00 201.33 345.00 223.67 345.00 246.00
C 285.67 246.00 226.33 246.00 167.00 246.00
C 167.00 223.67 167.00 201.33 167.00 179.00
C 179.83 178.81 193.22 179.25 206.00 179.00 C 218.78 178.75 232.43 179.47 245.00 179.00 C 257.57 178.53 271.92 180.02 284.00 179.00 C 296.08 177.98 311.39 183.77 318.00 173.00
C 320.01 159.36 297.13 164.55 287.00 164.00 C 276.87 163.45 258.84 164.26 247.00 164.00 C 235.16 163.74 219.55 164.13 207.00 164.00 C 194.45 163.87 179.75 164.10 167.00 164.00
C 167.56 158.06 165.82 151.51 168.00 146.00
C 165.68 141.33 167.65 134.50 167.00 129.00
C 172.09 131.97 174.06 125.05 177.00 124.00
C 175.66 118.53 172.84 113.03 167.00 115.00
C 167.10 103.69 165.39 95.77 161.59 88.75 C 157.78 81.74 144.49 73.24 151.00 61.00
C 143.12 52.43 133.87 58.27 136.00 69.00 C 138.13 79.73 125.47 84.39 124.13 91.08 C 122.79 97.77 117.44 103.98 120.00 115.00
C 112.38 112.86 110.21 119.69 110.00 126.00
C 113.59 128.74 115.52 129.79 120.00 130.00
C 120.00 141.33 120.00 152.67 120.00 164.00
C 117.41 163.14 115.14 166.02 113.00 164.00
C 106.50 169.77 110.11 181.13 120.00 179.00
C 120.00 196.33 120.00 213.67 120.00 231.00
M 145.00 92.00 
C 148.58 94.87 155.14 109.44 152.00 114.00
C 149.30 117.92 138.05 113.14 134.00 115.00
C 134.52 112.81 132.86 109.38 135.00 108.00
C 135.68 103.84 139.20 87.36 145.00 92.00
M 369.00 91.00 
C 375.05 92.48 376.26 103.44 377.00 108.00
C 377.28 109.73 378.85 112.59 378.00 115.00
C 372.17 114.34 365.01 116.32 360.00 114.00
C 356.99 109.64 364.70 89.95 369.00 91.00
M 152.00 130.00 
C 154.66 133.80 150.61 142.31 152.00 147.00 C 153.39 151.69 150.96 159.06 152.00 164.00
C 149.00 164.00 146.00 164.00 143.00 164.00
C 140.00 164.00 137.00 164.00 134.00 164.00
C 134.67 152.83 132.67 140.34 135.00 130.00
C 136.81 128.19 150.47 127.81 152.00 130.00
M 378.00 130.00 
C 380.66 133.80 376.61 142.31 378.00 147.00 C 379.39 151.69 376.96 159.06 378.00 164.00
C 375.00 164.00 372.00 164.00 369.00 164.00
C 366.00 164.00 363.00 164.00 360.00 164.00
C 360.00 152.67 360.00 141.33 360.00 130.00
C 361.43 127.95 376.62 128.02 378.00 130.00
M 152.00 180.00 
C 154.56 183.66 150.90 191.27 152.00 196.00 C 153.10 200.73 151.46 207.86 152.00 213.00 C 152.54 218.14 151.73 223.65 152.00 229.00 C 152.27 234.35 151.80 240.57 152.00 246.00
C 149.00 246.00 146.00 246.00 143.00 246.00
C 140.00 246.00 137.00 246.00 134.00 246.00
C 134.00 223.67 134.00 201.33 134.00 179.00
C 137.00 179.00 140.00 179.00 143.00 179.00
C 145.37 179.00 150.61 178.01 152.00 180.00
M 369.00 246.00 
C 366.63 246.00 361.39 246.99 360.00 245.00
C 357.44 241.34 361.10 233.73 360.00 229.00 C 358.90 224.27 360.54 217.14 360.00 212.00 C 359.46 206.86 360.27 201.35 360.00 196.00 C 359.73 190.65 360.20 184.43 360.00 179.00
C 365.67 179.00 371.33 179.00 377.00 179.00
C 381.06 181.84 376.72 191.67 378.00 197.00 C 379.28 202.33 377.19 209.48 378.00 216.00 C 378.81 222.52 377.12 227.18 378.00 235.00 C 378.88 242.82 377.83 246.00 369.00 246.00
M 114.00 261.00 
C 114.00 273.33 114.00 285.67 114.00 298.00
C 89.33 298.00 64.67 298.00 40.00 298.00
C 40.00 285.67 40.00 273.33 40.00 261.00
C 64.67 261.00 89.33 261.00 114.00 261.00
M 157.00 298.00 
C 155.29 300.44 145.99 298.99 143.00 299.00 C 140.01 299.01 130.69 300.42 129.00 298.00
C 126.12 293.88 130.43 285.18 129.00 280.00 C 127.57 274.82 130.07 266.47 129.00 261.00
C 133.00 261.00 137.00 261.00 141.00 261.00
C 146.33 261.00 151.67 261.00 157.00 261.00
C 157.00 273.33 157.00 285.67 157.00 298.00
M 188.00 280.00 
C 189.88 286.20 200.59 286.92 203.00 281.00
C 203.17 280.57 203.00 279.50 203.00 279.00
C 203.00 275.47 201.23 262.94 204.00 261.00
C 207.13 258.81 214.48 262.64 218.00 261.00
C 218.57 267.27 216.80 274.16 219.00 280.00
C 221.11 285.78 230.38 287.45 233.00 281.00
C 233.17 280.57 233.00 279.50 233.00 279.00
C 233.00 275.47 231.23 262.94 234.00 261.00
C 235.05 260.26 246.95 260.26 248.00 261.00
C 250.78 262.94 249.00 275.52 249.00 279.00
C 249.00 279.50 248.85 280.55 249.00 281.00
C 250.96 286.96 260.63 285.85 263.00 281.00
C 265.84 275.19 262.93 267.31 264.00 261.00
C 268.67 261.00 273.33 261.00 278.00 261.00
C 280.78 262.94 279.00 275.52 279.00 279.00
C 279.00 279.50 278.83 280.57 279.00 281.00
C 281.24 286.49 290.52 286.48 293.00 281.00
C 295.67 275.09 293.06 267.39 294.00 261.00
C 299.00 261.00 304.00 261.00 309.00 261.00
C 309.00 267.67 309.00 274.33 309.00 281.00
C 313.19 282.40 319.10 289.44 323.00 281.00
C 325.74 275.07 323.02 267.41 324.00 261.00
C 329.00 261.00 334.00 261.00 339.00 261.00
C 341.74 262.92 340.13 275.42 340.00 279.00 C 339.87 282.58 341.90 295.97 339.00 298.00
C 335.38 300.53 328.68 295.48 324.93 298.93 C 321.17 302.37 320.02 302.64 320.78 308.22 C 321.54 313.81 328.50 311.11 331.00 313.00
C 335.14 316.14 330.90 327.35 332.00 333.00 C 333.10 338.65 331.57 348.66 332.00 355.00 C 332.43 361.34 332.03 369.46 332.00 376.00 C 331.97 382.54 332.45 391.68 332.00 398.00 C 331.55 404.32 333.25 413.55 332.00 419.00 C 330.75 424.45 335.19 437.07 331.00 440.00
C 330.32 440.47 322.68 440.47 322.00 440.00
C 317.62 436.93 322.40 424.70 321.00 419.00 C 319.60 413.30 321.83 403.61 321.00 397.00 C 320.17 390.39 321.85 380.84 321.00 374.00
C 319.88 369.46 317.88 365.72 312.00 367.00
C 311.07 352.49 302.91 332.34 292.75 322.25 C 282.60 312.15 270.87 294.87 256.00 295.00 C 241.12 295.14 229.31 311.94 219.08 322.08 C 208.85 332.22 201.12 352.53 200.00 367.00
C 185.07 368.24 192.23 387.08 191.00 399.00 C 189.77 410.92 191.93 427.65 191.00 440.00
C 187.67 440.00 184.33 440.00 181.00 440.00
C 176.86 437.10 181.11 425.55 180.00 420.00 C 178.89 414.45 180.43 404.31 180.00 398.00 C 179.57 391.69 179.97 383.55 180.00 377.00 C 180.03 370.45 179.55 361.36 180.00 355.00 C 180.45 348.64 178.76 339.56 180.00 334.00 C 181.24 328.44 176.81 316.18 181.00 313.00
C 183.55 311.07 190.38 313.95 191.30 308.30 C 192.23 302.66 190.55 302.42 186.92 299.08 C 183.29 295.75 176.47 300.43 173.00 298.00
C 170.26 296.08 171.87 283.58 172.00 280.00 C 172.13 276.42 170.10 263.03 173.00 261.00
C 176.36 258.65 184.23 262.76 188.00 261.00
C 188.00 267.33 188.00 273.67 188.00 280.00
M 366.00 298.00 
C 362.33 298.00 358.67 298.00 355.00 298.00
C 355.00 285.67 355.00 273.33 355.00 261.00
C 358.67 261.00 362.33 261.00 366.00 261.00
C 371.67 261.00 377.33 261.00 383.00 261.00
C 383.00 273.33 383.00 285.67 383.00 298.00
C 377.33 298.00 371.67 298.00 366.00 298.00
M 472.00 261.00 
C 472.00 273.33 472.00 285.67 472.00 298.00
C 447.33 298.00 422.67 298.00 398.00 298.00
C 398.00 285.67 398.00 273.33 398.00 261.00
C 422.67 261.00 447.33 261.00 472.00 261.00
M 34.00 322.00 
C 38.60 334.46 53.22 323.47 49.00 313.00
C 52.00 313.00 55.00 313.00 58.00 313.00
C 57.66 318.60 57.27 327.70 65.03 327.97 C 72.78 328.25 74.04 319.11 73.00 313.00
C 76.00 313.00 79.00 313.00 82.00 313.00
C 75.75 331.37 103.24 331.39 97.00 313.00
C 99.84 313.59 103.98 311.78 106.00 314.00
C 107.65 316.36 106.00 325.98 106.00 329.00
C 106.00 332.70 105.20 337.40 106.00 341.00
C 106.99 343.67 108.86 346.54 112.00 347.00
C 129.14 349.53 116.21 320.84 121.00 314.00
C 123.20 310.86 138.98 313.02 143.00 313.00 C 147.02 312.98 162.83 310.91 165.00 314.00
C 168.29 318.70 163.51 329.04 165.00 335.00 C 166.49 340.96 164.33 349.47 165.00 356.00 C 165.67 362.53 164.69 370.21 165.00 377.00 C 165.31 383.79 164.86 391.10 165.00 398.00 C 165.14 404.90 164.93 412.05 165.00 419.00 C 165.07 425.95 164.94 433.04 165.00 440.00
C 155.00 440.00 145.00 440.00 135.00 440.00
C 130.33 440.00 125.67 440.00 121.00 440.00
C 119.87 426.17 122.51 408.44 121.00 395.00 C 119.49 381.56 127.19 362.20 113.00 357.00
C 102.60 357.56 106.46 372.00 106.00 380.00 C 105.54 388.00 106.24 401.04 106.00 410.00 C 105.76 418.96 106.18 430.78 106.00 440.00
C 100.33 440.00 94.67 440.00 89.00 440.00
C 89.41 438.44 88.54 437.31 88.00 436.00
C 85.63 430.30 83.75 422.35 79.25 417.75 C 74.74 413.16 70.26 405.38 63.00 407.00 C 55.73 408.62 54.65 416.78 49.25 420.25 C 43.85 423.71 45.41 437.52 41.00 440.00
C 39.52 440.83 26.34 440.94 25.00 440.00
C 20.83 437.08 25.21 425.49 24.00 420.00 C 22.79 414.51 24.52 405.44 24.00 399.00 C 23.48 392.56 24.25 383.81 24.00 377.00 C 23.75 370.19 24.12 362.96 24.00 356.00 C 23.88 349.04 24.06 342.09 24.00 335.00 C 23.94 327.91 24.04 320.15 24.00 313.00
C 27.33 313.00 30.67 313.00 34.00 313.00
C 34.00 316.00 34.00 319.00 34.00 322.00
M 391.00 314.00 
C 394.29 318.70 389.52 329.04 391.00 335.00 C 392.49 340.96 390.33 349.47 391.00 356.00 C 391.67 362.53 390.69 370.21 391.00 377.00 C 391.31 383.79 390.86 391.10 391.00 398.00 C 391.14 404.90 390.93 412.05 391.00 419.00 C 391.07 425.95 390.94 433.04 391.00 440.00
C 380.67 440.00 370.33 440.00 360.00 440.00
C 355.67 440.00 351.33 440.00 347.00 440.00
C 347.00 398.00 347.00 356.00 347.00 314.00
C 349.20 310.86 364.98 313.02 369.00 313.00 C 373.02 312.98 388.83 310.91 391.00 314.00
M 478.00 322.00 
C 478.63 319.14 477.52 315.89 478.00 313.00
C 481.33 313.00 484.67 313.00 488.00 313.00
C 487.33 355.17 489.33 398.65 487.00 440.00
C 485.66 440.94 472.48 440.83 471.00 440.00
C 466.60 437.52 468.36 424.48 463.08 420.92 C 457.80 417.36 456.87 409.35 449.75 407.25 C 442.63 405.15 437.71 412.37 433.08 417.08 C 428.46 421.80 426.45 430.13 424.00 436.00
C 423.46 437.31 422.61 438.42 423.00 440.00
C 417.67 440.00 412.33 440.00 407.00 440.00
C 402.83 437.08 407.21 425.49 406.00 420.00 C 404.79 414.51 406.52 405.44 406.00 399.00 C 405.48 392.56 406.25 383.81 406.00 377.00 C 405.75 370.19 406.12 362.96 406.00 356.00 C 405.88 349.04 406.06 342.09 406.00 335.00 C 405.94 327.91 406.04 320.15 406.00 313.00
C 409.00 313.00 412.00 313.00 415.00 313.00
C 408.75 331.37 436.24 331.39 430.00 313.00
C 433.00 313.00 436.00 313.00 439.00 313.00
C 436.24 320.26 442.21 331.16 450.07 327.07 C 457.94 322.98 449.75 308.81 463.00 313.00
C 458.36 323.31 473.93 334.66 478.00 322.00
M 73.00 440.00 
C 67.67 440.00 62.33 440.00 57.00 440.00
C 58.24 434.54 61.17 429.79 64.00 425.00
C 69.72 426.98 72.32 434.43 73.00 440.00
M 455.00 440.00 
C 449.67 440.00 444.33 440.00 439.00 440.00
C 439.07 434.29 442.77 429.44 446.00 425.00
C 451.50 428.26 453.26 434.49 455.00 440.00 Z"/>
</g>
<g fill="#CE7E27" fill-opacity="1.00" stroke="None">
<path d="
M 135.00 108.00 
C 135.01 110.00 134.99 112.00 135.00 114.00
C 137.67 114.00 140.33 114.00 143.00 114.00
C 143.30 110.41 142.59 104.34 143.00 101.00 C 143.41 97.66 141.33 90.78 145.00 92.00
C 139.20 87.36 135.68 103.84 135.00 108.00 Z"/>
</g>
<g fill="#CC7D27" fill-opacity="1.00" stroke="None">
<path d="
M 360.00 114.00 
C 363.00 114.00 366.00 114.00 369.00 114.00
C 368.64 110.25 369.78 106.39 368.02 102.98 C 366.27 99.56 370.27 93.91 369.00 91.00
C 364.70 89.95 356.99 109.64 360.00 114.00 Z"/>
</g>
<g fill="#E99733" fill-opacity="1.00" stroke="None">
<path d="
M 143.00 114.00 
C 146.00 114.00 149.00 114.00 152.00 114.00
C 155.14 109.44 148.58 94.87 145.00 92.00
C 141.33 90.78 143.41 97.66 143.00 101.00 C 142.59 104.34 143.30 110.41 143.00 114.00 Z"/>
</g>
<g fill="#EA9733" fill-opacity="1.00" stroke="None">
<path d="
M 369.00 114.00 
C 371.67 114.00 374.33 114.00 377.00 114.00
C 377.00 112.00 377.00 110.00 377.00 108.00
C 376.26 103.44 375.05 92.48 369.00 91.00
C 370.27 93.91 366.27 99.56 368.02 102.98 C 369.78 106.39 368.64 110.25 369.00 114.00 Z"/>
</g>
<g fill="#7F501A" fill-opacity="1.00" stroke="None">
<path d="
M 152.00 114.00 
C 149.00 114.00 146.00 114.00 143.00 114.00
C 140.33 114.00 137.67 114.00 135.00 114.00
C 134.99 112.00 135.01 110.00 135.00 108.00
C 132.86 109.38 134.52 112.81 134.00 115.00
C 138.05 113.14 149.30 117.92 152.00 114.00 Z"/>
</g>
<g fill="#83531B" fill-opacity="1.00" stroke="None">
<path d="
M 369.00 114.00 
C 366.00 114.00 363.00 114.00 360.00 114.00
C 365.01 116.32 372.17 114.34 378.00 115.00
C 378.85 112.59 377.28 109.73 377.00 108.00
C 377.00 110.00 377.00 112.00 377.00 114.00
C 374.33 114.00 371.67 114.00 369.00 114.00 Z"/>
</g>
<g fill="#2C1C09" fill-opacity="1.00" stroke="None">
<path d="
M 135.00 130.00 
C 136.26 129.12 141.39 130.00 143.00 130.00
C 146.00 130.00 149.00 130.00 152.00 130.00
C 150.47 127.81 136.81 128.19 135.00 130.00 Z"/>
</g>
<g fill="#2B1B09" fill-opacity="1.00" stroke="None">
<path d="
M 360.00 130.00 
C 363.00 130.00 366.00 130.00 369.00 130.00
C 372.00 130.00 375.00 130.00 378.00 130.00
C 376.62 128.02 361.43 127.95 360.00 130.00 Z"/>
</g>
<g fill="#C77A26" fill-opacity="1.00" stroke="None">
<path d="
M 143.00 164.00 
C 143.00 152.67 143.00 141.33 143.00 130.00
C 141.39 130.00 136.26 129.12 135.00 130.00
C 132.67 140.34 134.67 152.83 134.00 164.00
C 137.00 164.00 140.00 164.00 143.00 164.00 Z"/>
</g>
<g fill="#ED9934" fill-opacity="1.00" stroke="None">
<path d="
M 143.00 164.00 
C 146.00 164.00 149.00 164.00 152.00 164.00
C 150.96 159.06 153.39 151.69 152.00 147.00 C 150.61 142.31 154.66 133.80 152.00 130.00
C 149.00 130.00 146.00 130.00 143.00 130.00
C 143.00 141.33 143.00 152.67 143.00 164.00 Z"/>
</g>
<g fill="#D08028" fill-opacity="1.00" stroke="None">
<path d="
M 369.00 164.00 
C 369.00 152.67 369.00 141.33 369.00 130.00
C 366.00 130.00 363.00 130.00 360.00 130.00
C 360.00 141.33 360.00 152.67 360.00 164.00
C 363.00 164.00 366.00 164.00 369.00 164.00 Z"/>
</g>
<g fill="#E49332" fill-opacity="1.00" stroke="None">
<path d="
M 369.00 164.00 
C 372.00 164.00 375.00 164.00 378.00 164.00
C 376.96 159.06 379.39 151.69 378.00 147.00 C 376.61 142.31 380.66 133.80 378.00 130.00
C 375.00 130.00 372.00 130.00 369.00 130.00
C 369.00 141.33 369.00 152.67 369.00 164.00 Z"/>
</g>
<g fill="#000000" fill-opacity="0.98" stroke="None">
<path d="
M 172.00 147.00 
C 175.26 149.85 173.75 152.41 179.00 154.00
C 195.37 156.77 213.33 153.27 230.00 154.00 C 246.67 154.73 264.27 154.81 281.00 154.00 C 297.73 153.19 316.49 156.79 333.00 154.00
C 338.23 152.41 336.76 149.84 340.00 147.00
C 340.97 135.22 318.55 139.32 306.00 139.00 C 293.45 138.68 269.58 139.01 256.00 139.00 C 242.42 138.99 218.54 138.71 206.00 139.00 C 193.46 139.29 171.04 135.28 172.00 147.00 Z"/>
</g>
<g fill="#CF7F27" fill-opacity="1.00" stroke="None">
<path d="
M 318.00 173.00 
C 320.42 171.35 326.62 171.18 329.00 173.00
C 327.04 163.07 338.22 163.36 345.00 164.00
C 346.09 158.08 343.98 151.51 344.00 146.00
C 342.76 146.81 341.28 145.88 340.00 147.00
C 336.76 149.84 338.23 152.41 333.00 154.00
C 317.93 158.57 298.33 154.15 282.00 155.00 C 265.67 155.85 246.33 155.84 230.00 155.00 C 213.67 154.16 194.00 158.55 179.00 154.00
C 173.75 152.41 175.26 149.85 172.00 147.00
C 170.65 145.82 169.28 146.84 168.00 146.00
C 165.82 151.51 167.56 158.06 167.00 164.00
C 179.75 164.10 194.45 163.87 207.00 164.00 C 219.55 164.13 235.16 163.74 247.00 164.00 C 258.84 164.26 276.87 163.45 287.00 164.00 C 297.13 164.55 320.01 159.36 318.00 173.00 Z"/>
</g>
<g fill="#6F4415" fill-opacity="1.00" stroke="None">
<path d="
M 333.00 154.00 
C 316.49 156.79 297.73 153.19 281.00 154.00 C 264.27 154.81 246.67 154.73 230.00 154.00 C 213.33 153.27 195.37 156.77 179.00 154.00
C 194.00 158.55 213.67 154.16 230.00 155.00 C 246.33 155.84 265.67 155.85 282.00 155.00 C 298.33 154.15 317.93 158.57 333.00 154.00 Z"/>
</g>
<g fill="#EC9934" fill-opacity="1.00" stroke="None">
<path d="
M 318.00 173.00 
C 311.39 183.77 296.08 177.98 284.00 179.00 C 271.92 180.02 257.57 178.53 245.00 179.00 C 232.43 179.47 218.78 178.75 206.00 179.00 C 193.22 179.25 179.83 178.81 167.00 179.00
C 167.00 201.33 167.00 223.67 167.00 246.00
C 226.33 246.00 285.67 246.00 345.00 246.00
C 345.00 223.67 345.00 201.33 345.00 179.00
C 339.02 178.80 330.00 180.94 329.00 173.00
C 326.62 171.18 320.42 171.35 318.00 173.00 Z"/>
</g>
<g fill="#845119" fill-opacity="1.00" stroke="None">
<path d="
M 143.00 246.00 
C 142.96 246.00 143.00 245.00 143.00 245.00
C 140.36 244.76 137.65 245.18 135.00 245.00
C 135.00 223.33 135.00 201.67 135.00 180.00
C 137.52 179.44 141.30 181.19 143.00 179.00
C 140.00 179.00 137.00 179.00 134.00 179.00
C 134.00 201.33 134.00 223.67 134.00 246.00
C 137.00 246.00 140.00 246.00 143.00 246.00 Z"/>
</g>
<g fill="#D07F28" fill-opacity="1.00" stroke="None">
<path d="
M 143.00 245.00 
C 143.00 223.33 143.00 201.67 143.00 180.00
C 146.00 180.00 149.00 180.00 152.00 180.00
C 150.61 178.01 145.37 179.00 143.00 179.00
C 141.30 181.19 137.52 179.44 135.00 180.00
C 135.00 201.67 135.00 223.33 135.00 245.00
C 137.65 245.18 140.36 244.76 143.00 245.00 Z"/>
</g>
<g fill="#CF7F28" fill-opacity="1.00" stroke="None">
<path d="
M 360.00 245.00 
C 362.98 245.20 366.02 244.73 369.00 245.00
C 368.98 223.33 369.02 201.67 369.00 180.00
C 371.52 179.44 375.30 181.19 377.00 179.00
C 371.33 179.00 365.67 179.00 360.00 179.00
C 360.20 184.43 359.73 190.65 360.00 196.00 C 360.27 201.35 359.46 206.86 360.00 212.00 C 360.54 217.14 358.90 224.27 360.00 229.00 C 361.10 233.73 357.44 241.34 360.00 245.00 Z"/>
</g>
<g fill="#E39332" fill-opacity="1.00" stroke="None">
<path d="
M 369.00 245.00 
C 369.00 245.50 369.00 246.00 369.00 246.00
C 377.83 246.00 378.88 242.82 378.00 235.00 C 377.12 227.18 378.81 222.52 378.00 216.00 C 377.19 209.48 379.28 202.33 378.00 197.00 C 376.72 191.67 381.06 181.84 377.00 179.00
C 375.30 181.19 371.52 179.44 369.00 180.00
C 369.02 201.67 368.98 223.33 369.00 245.00 Z"/>
</g>
<g fill="#EC9934" fill-opacity="1.00" stroke="None">
<path d="
M 143.00 245.00 
C 143.00 245.00 142.96 246.00 143.00 246.00
C 146.00 246.00 149.00 246.00 152.00 246.00
C 151.80 240.57 152.27 234.35 152.00 229.00 C 151.73 223.65 152.54 218.14 152.00 213.00 C 151.46 207.86 153.10 200.73 152.00 196.00 C 150.90 191.27 154.56 183.66 152.00 180.00
C 149.00 180.00 146.00 180.00 143.00 180.00
C 143.00 201.67 143.00 223.33 143.00 245.00 Z"/>
</g>
<g fill="#000000" fill-opacity="0.99" stroke="None">
<path d="
M 32.00 239.00 
C 44.06 240.31 64.59 239.34 76.00 239.00 C 87.41 238.66 111.37 244.49 113.00 231.00
C 114.56 218.09 91.84 226.26 81.00 224.00 C 70.16 221.74 47.74 227.12 36.00 224.00 C 24.27 220.88 20.49 237.75 32.00 239.00 Z"/>
</g>
<g fill="#000000" fill-opacity="0.99" stroke="None">
<path d="
M 399.00 231.00 
C 399.90 244.24 423.77 238.80 435.00 239.00 C 446.23 239.20 467.97 240.24 480.00 239.00
C 487.27 238.63 491.41 223.58 480.67 223.67 C 469.93 223.76 453.74 224.40 442.00 224.00 C 430.26 223.60 415.53 225.12 404.00 223.00
C 401.49 226.61 398.74 227.15 399.00 231.00 Z"/>
</g>
<g fill="#C87B26" fill-opacity="1.00" stroke="None">
<path d="
M 32.00 239.00 
C 32.00 241.33 32.00 243.67 32.00 246.00
C 39.13 246.00 46.94 246.23 54.00 246.00 C 61.06 245.77 69.20 246.62 76.00 246.00 C 82.80 245.38 91.81 247.42 98.00 246.00 C 104.19 244.58 114.21 249.35 119.00 246.00
C 119.34 241.03 118.55 235.96 119.00 231.00
C 117.00 231.00 115.00 231.00 113.00 231.00
C 111.37 244.49 87.41 238.66 76.00 239.00 C 64.59 239.34 44.06 240.31 32.00 239.00 Z"/>
</g>
<g fill="#261706" fill-opacity="1.00" stroke="None">
<path d="
M 119.00 246.00 
C 121.52 244.24 120.00 234.15 120.00 231.00
C 120.00 231.00 119.50 231.00 119.00 231.00
C 118.55 235.96 119.34 241.03 119.00 246.00 Z"/>
</g>
<g fill="#251606" fill-opacity="1.00" stroke="None">
<path d="
M 393.00 246.00 
C 392.66 241.03 393.45 235.96 393.00 231.00
C 393.00 231.00 392.00 230.96 392.00 231.00
C 392.00 234.09 390.49 244.24 393.00 246.00 Z"/>
</g>
<g fill="#C87B26" fill-opacity="1.00" stroke="None">
<path d="
M 393.00 246.00 
C 396.96 248.77 406.06 244.68 411.00 246.00 C 415.94 247.32 422.56 245.44 428.00 246.00 C 433.44 246.56 440.39 245.74 446.00 246.00 C 451.61 246.26 457.36 245.90 463.00 246.00 C 468.64 246.10 474.36 246.00 480.00 246.00
C 480.00 243.67 480.00 241.33 480.00 239.00
C 467.97 240.24 446.23 239.20 435.00 239.00 C 423.77 238.80 399.90 244.24 399.00 231.00
C 397.00 231.00 395.00 231.00 393.00 231.00
C 393.45 235.96 392.66 241.03 393.00 246.00 Z"/>
</g>
<g fill="#985E1D" fill-opacity="1.00" stroke="None">
<path d="
M 369.00 246.00 
C 369.00 246.00 369.00 245.50 369.00 245.00
C 366.02 244.73 362.98 245.20 360.00 245.00
C 361.39 246.99 366.63 246.00 369.00 246.00 Z"/>
</g>
<g fill="#EE9A34" fill-opacity="1.00" stroke="None">
<path d="
M 114.00 261.00 
C 89.33 261.00 64.67 261.00 40.00 261.00
C 40.00 273.33 40.00 285.67 40.00 298.00
C 64.67 298.00 89.33 298.00 114.00 298.00
C 114.00 285.67 114.00 273.33 114.00 261.00 Z"/>
</g>
<g fill="#D18028" fill-opacity="1.00" stroke="None">
<path d="
M 129.00 298.00 
C 133.00 298.00 137.00 298.00 141.00 298.00
C 141.00 285.67 141.00 273.33 141.00 261.00
C 137.00 261.00 133.00 261.00 129.00 261.00
C 130.07 266.47 127.57 274.82 129.00 280.00 C 130.43 285.18 126.12 293.88 129.00 298.00 Z"/>
</g>
<g fill="#EF9B35" fill-opacity="1.00" stroke="None">
<path d="
M 141.00 298.00 
C 146.33 298.00 151.67 298.00 157.00 298.00
C 157.00 285.67 157.00 273.33 157.00 261.00
C 151.67 261.00 146.33 261.00 141.00 261.00
C 141.00 273.33 141.00 285.67 141.00 298.00 Z"/>
</g>
<g fill="#5E3B13" fill-opacity="1.00" stroke="None">
<path d="
M 173.00 298.00 
C 173.00 292.33 173.00 286.67 173.00 281.00
C 173.00 274.33 173.00 267.67 173.00 261.00
C 170.10 263.03 172.13 276.42 172.00 280.00 C 171.87 283.58 170.26 296.08 173.00 298.00 Z"/>
</g>
<g fill="#D18028" fill-opacity="1.00" stroke="None">
<path d="
M 173.00 281.00 
C 176.63 279.51 185.60 283.43 188.00 280.00
C 188.00 273.67 188.00 267.33 188.00 261.00
C 184.23 262.76 176.36 258.65 173.00 261.00
C 173.00 267.67 173.00 274.33 173.00 281.00 Z"/>
</g>
<g fill="#774817" fill-opacity="1.00" stroke="None">
<path d="
M 203.00 279.00 
C 205.18 273.87 203.45 266.87 204.00 261.00
C 201.23 262.94 203.00 275.47 203.00 279.00 Z"/>
</g>
<g fill="#D07F28" fill-opacity="1.00" stroke="None">
<path d="
M 203.00 279.00 
C 203.00 279.50 203.17 280.57 203.00 281.00
C 207.22 282.87 214.93 280.37 219.00 280.00
C 216.80 274.16 218.57 267.27 218.00 261.00
C 214.48 262.64 207.13 258.81 204.00 261.00
C 203.45 266.87 205.18 273.87 203.00 279.00 Z"/>
</g>
<g fill="#653E13" fill-opacity="1.00" stroke="None">
<path d="
M 233.00 279.00 
C 235.18 273.87 233.45 266.87 234.00 261.00
C 231.23 262.94 233.00 275.47 233.00 279.00 Z"/>
</g>
<g fill="#D07F28" fill-opacity="1.00" stroke="None">
<path d="
M 233.00 279.00 
C 233.00 279.50 233.17 280.57 233.00 281.00
C 235.24 281.99 246.76 281.99 249.00 281.00
C 248.85 280.55 249.00 279.50 249.00 279.00
C 246.82 273.87 248.55 266.87 248.00 261.00
C 246.95 260.26 235.05 260.26 234.00 261.00
C 233.45 266.87 235.18 273.87 233.00 279.00 Z"/>
</g>
<g fill="#543310" fill-opacity="1.00" stroke="None">
<path d="
M 249.00 279.00 
C 249.00 275.52 250.78 262.94 248.00 261.00
C 248.55 266.87 246.82 273.87 249.00 279.00 Z"/>
</g>
<g fill="#D07F28" fill-opacity="1.00" stroke="None">
<path d="
M 263.00 281.00 
C 267.66 279.43 274.53 282.98 279.00 281.00
C 278.83 280.57 279.00 279.50 279.00 279.00
C 276.82 273.87 278.55 266.87 278.00 261.00
C 273.33 261.00 268.67 261.00 264.00 261.00
C 262.93 267.31 265.84 275.19 263.00 281.00 Z"/>
</g>
<g fill="#663E13" fill-opacity="1.00" stroke="None">
<path d="
M 279.00 279.00 
C 279.00 275.52 280.78 262.94 278.00 261.00
C 278.55 266.87 276.82 273.87 279.00 279.00 Z"/>
</g>
<g fill="#CB7C27" fill-opacity="1.00" stroke="None">
<path d="
M 293.00 281.00 
C 295.84 279.95 306.12 280.04 309.00 281.00
C 309.00 274.33 309.00 267.67 309.00 261.00
C 304.00 261.00 299.00 261.00 294.00 261.00
C 293.06 267.39 295.67 275.09 293.00 281.00 Z"/>
</g>
<g fill="#D18028" fill-opacity="1.00" stroke="None">
<path d="
M 323.00 281.00 
C 327.69 279.27 334.15 282.30 339.00 281.00
C 339.00 274.33 339.00 267.67 339.00 261.00
C 334.00 261.00 329.00 261.00 324.00 261.00
C 323.02 267.41 325.74 275.07 323.00 281.00 Z"/>
</g>
<g fill="#5F3C13" fill-opacity="1.00" stroke="None">
<path d="
M 339.00 281.00 
C 339.00 286.67 339.00 292.33 339.00 298.00
C 341.90 295.97 339.87 282.58 340.00 279.00 C 340.13 275.42 341.74 262.92 339.00 261.00
C 339.00 267.67 339.00 274.33 339.00 281.00 Z"/>
</g>
<g fill="#D08028" fill-opacity="1.00" stroke="None">
<path d="
M 366.00 298.00 
C 366.00 285.67 366.00 273.33 366.00 261.00
C 362.33 261.00 358.67 261.00 355.00 261.00
C 355.00 273.33 355.00 285.67 355.00 298.00
C 358.67 298.00 362.33 298.00 366.00 298.00 Z"/>
</g>
<g fill="#EE9A34" fill-opacity="1.00" stroke="None">
<path d="
M 366.00 298.00 
C 371.67 298.00 377.33 298.00 383.00 298.00
C 383.00 285.67 383.00 273.33 383.00 261.00
C 377.33 261.00 371.67 261.00 366.00 261.00
C 366.00 273.33 366.00 285.67 366.00 298.00 Z"/>
</g>
<g fill="#EE9A34" fill-opacity="1.00" stroke="None">
<path d="
M 472.00 261.00 
C 447.33 261.00 422.67 261.00 398.00 261.00
C 398.00 273.33 398.00 285.67 398.00 298.00
C 422.67 298.00 447.33 298.00 472.00 298.00
C 472.00 285.67 472.00 273.33 472.00 261.00 Z"/>
</g>
<g fill="#EC9934" fill-opacity="1.00" stroke="None">
<path d="
M 173.00 281.00 
C 173.00 286.67 173.00 292.33 173.00 298.00
C 176.47 300.43 183.29 295.75 186.92 299.08 C 190.55 302.42 192.23 302.66 191.30 308.30 C 190.38 313.95 183.55 311.07 181.00 313.00
C 181.00 355.33 181.00 397.67 181.00 440.00
C 184.33 440.00 187.67 440.00 191.00 440.00
C 191.93 427.65 189.77 410.92 191.00 399.00 C 192.23 387.08 185.07 368.24 200.00 367.00
C 201.12 352.53 208.85 332.22 219.08 322.08 C 229.31 311.94 241.12 295.14 256.00 295.00 C 270.87 294.87 282.60 312.15 292.75 322.25 C 302.91 332.34 311.07 352.49 312.00 367.00
C 317.88 365.72 319.88 369.46 321.00 374.00
C 326.06 394.42 319.29 418.66 322.00 440.00
C 322.68 440.47 330.32 440.47 331.00 440.00
C 331.00 397.67 331.00 355.33 331.00 313.00
C 328.50 311.11 321.54 313.81 320.78 308.22 C 320.02 302.64 321.17 302.37 324.93 298.93 C 328.68 295.48 335.38 300.53 339.00 298.00
C 339.00 292.33 339.00 286.67 339.00 281.00
C 334.15 282.30 327.69 279.27 323.00 281.00
C 319.10 289.44 313.19 282.40 309.00 281.00
C 306.12 280.04 295.84 279.95 293.00 281.00
C 290.52 286.48 281.24 286.49 279.00 281.00
C 274.53 282.98 267.66 279.43 263.00 281.00
C 260.63 285.85 250.96 286.96 249.00 281.00
C 246.76 281.99 235.24 281.99 233.00 281.00
C 230.38 287.45 221.11 285.78 219.00 280.00
C 214.93 280.37 207.22 282.87 203.00 281.00
C 200.59 286.92 189.88 286.20 188.00 280.00
C 185.60 283.43 176.63 279.51 173.00 281.00 Z"/>
</g>
<g fill="#2D1C09" fill-opacity="1.00" stroke="None">
<path d="
M 157.00 298.00 
C 151.67 298.00 146.33 298.00 141.00 298.00
C 137.00 298.00 133.00 298.00 129.00 298.00
C 130.69 300.42 140.01 299.01 143.00 299.00 C 145.99 298.99 155.29 300.44 157.00 298.00 Z"/>
</g>
<g fill="#000000" fill-opacity="0.01" stroke="None">
<path d="
M 0.00 512.00 
L 512.00 512.00
L 512.00 307.00
C 510.86 308.64 509.54 310.88 509.00 313.00
C 506.49 312.29 505.36 314.51 502.00 313.00
C 502.48 327.05 501.36 339.83 502.00 354.00 C 502.64 368.18 500.78 380.36 502.00 395.00 C 503.22 409.64 499.38 420.24 502.00 436.00 C 504.62 451.76 495.07 457.33 480.00 455.00 C 464.93 452.67 453.34 456.12 439.00 455.00 C 424.66 453.88 412.06 455.65 398.00 455.00 C 383.94 454.35 371.04 455.62 357.00 455.00 C 342.96 454.38 330.27 456.01 316.00 455.00 C 301.74 453.99 307.90 434.51 307.00 423.00 C 306.10 411.49 307.67 394.05 307.00 382.00
C 294.81 382.47 298.05 363.76 294.97 357.03 C 291.89 350.30 289.99 344.72 286.19 339.25 C 282.39 333.78 279.34 327.02 272.10 321.91 C 264.86 316.79 262.43 313.26 254.00 311.00
C 247.99 316.55 239.92 321.06 232.32 329.32 C 224.72 337.58 224.34 343.78 219.58 351.23 C 214.81 358.68 217.87 379.86 205.00 382.00
C 204.33 394.05 205.90 411.49 205.00 423.00 C 204.10 434.51 210.26 453.99 196.00 455.00 C 181.74 456.01 169.04 454.37 155.00 455.00 C 140.96 455.63 128.06 454.35 114.00 455.00 C 99.94 455.65 87.34 453.88 73.00 455.00 C 58.66 456.12 47.07 452.67 32.00 455.00 C 16.93 457.33 7.38 451.76 10.00 436.00 C 12.62 420.24 8.78 409.64 10.00 395.00 C 11.22 380.36 9.36 368.17 10.00 354.00 C 10.64 339.83 9.52 327.05 10.00 313.00
C 6.61 314.02 5.17 312.34 3.00 313.00
C 2.69 310.77 0.87 308.78 0.00 307.00
L 0.00 512.00 Z"/>
</g>
<g fill="#7E501B" fill-opacity="1.00" stroke="None">
<path d="
M 25.00 440.00 
C 25.00 403.00 25.00 366.00 25.00 329.00
C 25.00 324.00 25.00 319.00 25.00 314.00
C 32.50 311.77 33.18 316.71 34.00 322.00
C 34.00 319.00 34.00 316.00 34.00 313.00
C 30.67 313.00 27.33 313.00 24.00 313.00
C 24.04 320.15 23.94 327.91 24.00 335.00 C 24.06 342.09 23.88 349.04 24.00 356.00 C 24.12 362.96 23.75 370.19 24.00 377.00 C 24.25 383.81 23.48 392.56 24.00 399.00 C 24.52 405.44 22.79 414.51 24.00 420.00 C 25.21 425.49 20.83 437.08 25.00 440.00 Z"/>
</g>
<g fill="#C97B26" fill-opacity="1.00" stroke="None">
<path d="
M 34.00 322.00 
C 33.18 316.71 32.50 311.77 25.00 314.00
C 25.00 319.00 25.00 324.00 25.00 329.00
C 51.67 329.00 78.33 329.00 105.00 329.00
C 105.63 332.83 103.72 337.99 106.00 341.00
C 105.20 337.40 106.00 332.70 106.00 329.00
C 105.61 324.96 103.39 317.94 106.00 314.00
C 103.98 311.78 99.84 313.59 97.00 313.00
C 103.24 331.39 75.75 331.37 82.00 313.00
C 79.00 313.00 76.00 313.00 73.00 313.00
C 74.04 319.11 72.78 328.25 65.03 327.97 C 57.27 327.70 57.66 318.60 58.00 313.00
C 55.00 313.00 52.00 313.00 49.00 313.00
C 53.22 323.47 38.60 334.46 34.00 322.00 Z"/>
</g>
<g fill="#89571D" fill-opacity="1.00" stroke="None">
<path d="
M 121.00 314.00 
C 125.67 314.00 130.33 314.00 135.00 314.00
C 145.00 314.00 155.00 314.00 165.00 314.00
C 162.83 310.91 147.02 312.98 143.00 313.00 C 138.98 313.02 123.20 310.86 121.00 314.00 Z"/>
</g>
<g fill="#623F15" fill-opacity="1.00" stroke="None">
<path d="
M 181.00 440.00 
C 181.00 397.67 181.00 355.33 181.00 313.00
C 176.81 316.18 181.24 328.44 180.00 334.00 C 178.76 339.56 180.45 348.64 180.00 355.00 C 179.55 361.36 180.03 370.45 180.00 377.00 C 179.97 383.55 179.57 391.69 180.00 398.00 C 180.43 404.31 178.89 414.45 180.00 420.00 C 181.11 425.55 176.86 437.10 181.00 440.00 Z"/>
</g>
<g fill="#634015" fill-opacity="1.00" stroke="None">
<path d="
M 331.00 440.00 
C 335.19 437.07 330.75 424.45 332.00 419.00 C 333.25 413.55 331.55 404.32 332.00 398.00 C 332.45 391.68 331.97 382.54 332.00 376.00 C 332.03 369.46 332.43 361.34 332.00 355.00 C 331.57 348.66 333.10 338.65 332.00 333.00 C 330.90 327.35 335.14 316.14 331.00 313.00
C 331.00 355.33 331.00 397.67 331.00 440.00 Z"/>
</g>
<g fill="#89581D" fill-opacity="1.00" stroke="None">
<path d="
M 347.00 314.00 
C 351.33 314.00 355.67 314.00 360.00 314.00
C 370.33 314.00 380.67 314.00 391.00 314.00
C 388.83 310.91 373.02 312.98 369.00 313.00 C 364.98 313.02 349.20 310.86 347.00 314.00 Z"/>
</g>
<g fill="#C67A26" fill-opacity="1.00" stroke="None">
<path d="
M 407.00 440.00 
C 407.00 403.00 407.00 366.00 407.00 329.00
C 433.67 329.00 460.33 329.00 487.00 329.00
C 487.00 324.00 487.00 319.00 487.00 314.00
C 479.50 311.77 478.82 316.71 478.00 322.00
C 473.93 334.66 458.36 323.31 463.00 313.00
C 449.75 308.81 457.94 322.98 450.07 327.07 C 442.21 331.16 436.24 320.26 439.00 313.00
C 436.00 313.00 433.00 313.00 430.00 313.00
C 436.24 331.39 408.75 331.37 415.00 313.00
C 412.00 313.00 409.00 313.00 406.00 313.00
C 406.04 320.15 405.94 327.91 406.00 335.00 C 406.06 342.09 405.88 349.04 406.00 356.00 C 406.12 362.96 405.75 370.19 406.00 377.00 C 406.25 383.81 405.48 392.56 406.00 399.00 C 406.52 405.44 404.79 414.51 406.00 420.00 C 407.21 425.49 402.83 437.08 407.00 440.00 Z"/>
</g>
<g fill="#7E501B" fill-opacity="1.00" stroke="None">
<path d="
M 478.00 322.00 
C 478.82 316.71 479.50 311.77 487.00 314.00
C 487.00 319.00 487.00 324.00 487.00 329.00
C 487.00 366.00 487.00 403.00 487.00 440.00
C 489.33 398.65 487.33 355.17 488.00 313.00
C 484.67 313.00 481.33 313.00 478.00 313.00
C 477.52 315.89 478.63 319.14 478.00 322.00 Z"/>
</g>
<g fill="#A1631F" fill-opacity="1.00" stroke="None">
<path d="
M 106.00 329.00 
C 106.00 325.98 107.65 316.36 106.00 314.00
C 103.39 317.94 105.61 324.96 106.00 329.00 Z"/>
</g>
<g fill="#D18028" fill-opacity="1.00" stroke="None">
<path d="
M 112.00 347.00 
C 113.95 349.87 112.59 353.73 113.00 357.00
C 127.19 362.20 119.49 381.56 121.00 395.00 C 122.51 408.44 119.87 426.17 121.00 440.00
C 125.67 440.00 130.33 440.00 135.00 440.00
C 135.00 398.00 135.00 356.00 135.00 314.00
C 130.33 314.00 125.67 314.00 121.00 314.00
C 116.21 320.84 129.14 349.53 112.00 347.00 Z"/>
</g>
<g fill="#EE9B34" fill-opacity="1.00" stroke="None">
<path d="
M 135.00 440.00 
C 145.00 440.00 155.00 440.00 165.00 440.00
C 164.94 433.04 165.07 425.95 165.00 419.00 C 164.93 412.05 165.14 404.90 165.00 398.00 C 164.86 391.10 165.31 383.79 165.00 377.00 C 164.69 370.21 165.67 362.53 165.00 356.00 C 164.33 349.47 166.49 340.96 165.00 335.00 C 163.51 329.04 168.29 318.70 165.00 314.00
C 155.00 314.00 145.00 314.00 135.00 314.00
C 135.00 356.00 135.00 398.00 135.00 440.00 Z"/>
</g>
<g fill="#D18028" fill-opacity="1.00" stroke="None">
<path d="
M 360.00 440.00 
C 360.00 398.00 360.00 356.00 360.00 314.00
C 355.67 314.00 351.33 314.00 347.00 314.00
C 347.00 356.00 347.00 398.00 347.00 440.00
C 351.33 440.00 355.67 440.00 360.00 440.00 Z"/>
</g>
<g fill="#EE9A34" fill-opacity="1.00" stroke="None">
<path d="
M 360.00 440.00 
C 370.33 440.00 380.67 440.00 391.00 440.00
C 390.94 433.04 391.07 425.95 391.00 419.00 C 390.93 412.05 391.14 404.90 391.00 398.00 C 390.86 391.10 391.31 383.79 391.00 377.00 C 390.69 370.21 391.67 362.53 391.00 356.00 C 390.33 349.47 392.49 340.96 391.00 335.00 C 389.52 329.04 394.29 318.70 391.00 314.00
C 380.67 314.00 370.33 314.00 360.00 314.00
C 360.00 356.00 360.00 398.00 360.00 440.00 Z"/>
</g>
<g fill="#EC9934" fill-opacity="1.00" stroke="None">
<path d="
M 25.00 440.00 
C 26.34 440.94 39.52 440.83 41.00 440.00
C 41.00 431.00 41.00 422.00 41.00 413.00
C 35.93 413.00 35.03 410.16 34.00 406.00
C 32.31 399.17 33.35 390.71 34.00 384.00
C 34.00 374.75 37.29 361.82 42.92 354.92 C 48.55 348.01 55.32 338.31 64.03 337.03 C 72.73 335.74 80.77 346.90 86.25 352.75 C 91.73 358.61 97.16 373.08 96.99 381.01 C 96.82 388.94 101.45 412.35 90.00 413.00
C 88.16 415.40 88.39 420.85 89.00 424.00 C 89.61 427.15 87.67 433.75 88.00 436.00
C 88.54 437.31 89.41 438.44 89.00 440.00
C 94.67 440.00 100.33 440.00 106.00 440.00
C 106.18 430.78 105.76 418.96 106.00 410.00 C 106.24 401.04 105.54 388.00 106.00 380.00 C 106.46 372.00 102.60 357.56 113.00 357.00
C 112.59 353.73 113.95 349.87 112.00 347.00
C 108.86 346.54 106.99 343.67 106.00 341.00
C 103.72 337.99 105.63 332.83 105.00 329.00
C 78.33 329.00 51.67 329.00 25.00 329.00
C 25.00 366.00 25.00 403.00 25.00 440.00 Z"/>
</g>
<g fill="#ED9934" fill-opacity="1.00" stroke="None">
<path d="
M 407.00 440.00 
C 412.33 440.00 417.67 440.00 423.00 440.00
C 422.61 438.42 423.46 437.31 424.00 436.00
C 424.33 433.75 422.63 428.18 423.00 425.00 C 423.37 421.82 423.96 415.56 422.00 413.00
C 410.66 412.36 415.19 389.90 415.00 382.00 C 414.81 374.10 419.40 359.96 424.92 353.92 C 430.43 347.88 437.31 337.59 446.03 337.02 C 454.74 336.46 462.07 346.66 467.75 353.25 C 473.44 359.83 477.65 372.91 478.00 382.00
C 479.04 389.25 479.78 398.82 478.00 406.00
C 476.98 410.13 476.09 413.00 471.00 413.00
C 471.00 422.00 471.00 431.00 471.00 440.00
C 472.48 440.83 485.66 440.94 487.00 440.00
C 487.00 403.00 487.00 366.00 487.00 329.00
C 460.33 329.00 433.67 329.00 407.00 329.00
C 407.00 366.00 407.00 403.00 407.00 440.00 Z"/>
</g>
<g fill="#000000" fill-opacity="1.00" stroke="None">
<path d="
M 34.00 384.00 
C 34.00 391.15 33.12 398.92 34.00 406.00
C 35.03 410.16 35.93 413.00 41.00 413.00
C 52.53 413.00 48.68 396.84 49.00 388.00 C 49.32 379.16 50.64 370.81 56.30 362.30 C 61.97 353.79 68.56 353.88 73.77 362.23 C 78.98 370.58 81.76 378.40 82.00 387.00 C 82.23 395.60 78.25 413.66 90.00 413.00
C 101.45 412.35 96.82 388.94 96.99 381.01 C 97.16 373.08 91.73 358.61 86.25 352.75 C 80.77 346.90 72.73 335.74 64.03 337.03 C 55.32 338.31 48.55 348.01 42.92 354.92 C 37.29 361.82 34.00 374.75 34.00 384.00 Z"/>
</g>
<g fill="#000000" fill-opacity="1.00" stroke="None">
<path d="
M 422.00 413.00 
C 433.42 413.65 429.96 396.57 430.00 388.00 C 430.04 379.43 432.67 371.09 437.75 362.75 C 442.83 354.42 449.43 353.27 455.25 361.75 C 461.06 370.24 462.48 378.14 463.00 387.00 C 463.52 395.86 459.12 413.00 471.00 413.00
C 476.09 413.00 476.98 410.13 478.00 406.00
C 478.94 398.40 478.29 389.67 478.00 382.00
C 477.65 372.91 473.44 359.83 467.75 353.25 C 462.07 346.66 454.74 336.46 446.03 337.02 C 437.31 337.59 430.43 347.88 424.92 353.92 C 419.40 359.96 414.81 374.10 415.00 382.00 C 415.19 389.90 410.66 412.36 422.00 413.00 Z"/>
</g>
<g fill="#CE7E27" fill-opacity="1.00" stroke="None">
<path d="
M 41.00 413.00 
C 41.00 422.00 41.00 431.00 41.00 440.00
C 45.41 437.52 43.85 423.71 49.25 420.25 C 54.65 416.78 55.73 408.62 63.00 407.00 C 70.26 405.38 74.74 413.16 79.25 417.75 C 83.75 422.35 85.63 430.30 88.00 436.00
C 87.67 433.75 89.61 427.15 89.00 424.00 C 88.39 420.85 88.16 415.40 90.00 413.00
C 78.25 413.66 82.23 395.60 82.00 387.00 C 81.76 378.40 78.98 370.58 73.77 362.23 C 68.56 353.88 61.97 353.79 56.30 362.30 C 50.64 370.81 49.32 379.16 49.00 388.00 C 48.68 396.84 52.53 413.00 41.00 413.00 Z"/>
</g>
<g fill="#CE7E27" fill-opacity="1.00" stroke="None">
<path d="
M 422.00 413.00 
C 423.96 415.56 423.37 421.82 423.00 425.00 C 422.63 428.18 424.33 433.75 424.00 436.00
C 426.45 430.13 428.46 421.80 433.08 417.08 C 437.71 412.37 442.63 405.15 449.75 407.25 C 456.87 409.35 457.80 417.36 463.08 420.92 C 468.36 424.48 466.60 437.52 471.00 440.00
C 471.00 431.00 471.00 422.00 471.00 413.00
C 459.12 413.00 463.52 395.86 463.00 387.00 C 462.48 378.14 461.06 370.24 455.25 361.75 C 449.43 353.27 442.83 354.42 437.75 362.75 C 432.67 371.09 430.04 379.43 430.00 388.00 C 429.96 396.57 433.42 413.65 422.00 413.00 Z"/>
</g>
<g fill="#8B5A1F" fill-opacity="1.00" stroke="None">
<path d="
M 322.00 440.00 
C 319.29 418.66 326.06 394.42 321.00 374.00
C 321.85 380.84 320.17 390.39 321.00 397.00 C 321.83 403.61 319.60 413.30 321.00 419.00 C 322.40 424.70 317.62 436.93 322.00 440.00 Z"/>
</g>
<g fill="#88581E" fill-opacity="1.00" stroke="None">
<path d="
M 478.00 406.00 
C 479.78 398.82 479.04 389.25 478.00 382.00
C 478.29 389.67 478.94 398.40 478.00 406.00 Z"/>
</g>
<g fill="#85561E" fill-opacity="1.00" stroke="None">
<path d="
M 34.00 406.00 
C 33.12 398.92 34.00 391.15 34.00 384.00
C 33.35 390.71 32.31 399.17 34.00 406.00 Z"/>
</g>
<g fill="#4C2F12" fill-opacity="1.00" stroke="None">
<path d="
M 73.00 440.00 
C 72.32 434.43 69.72 426.98 64.00 425.00
C 61.17 429.79 58.24 434.54 57.00 440.00
C 62.33 440.00 67.67 440.00 73.00 440.00 Z"/>
</g>
<g fill="#4C2F12" fill-opacity="1.00" stroke="None">
<path d="
M 455.00 440.00 
C 453.26 434.49 451.50 428.26 446.00 425.00
C 442.77 429.44 439.07 434.29 439.00 440.00
C 444.33 440.00 449.67 440.00 455.00 440.00 Z"/>
</g>
</svg>