<svg xmlns="http://www.w3.org/2000/svg" xmlns:v="https://svgstorm.com"
viewBox = "0 0 512 512"
width="512"
height="512">
<g fill="None" fill-opacity="0.0" stroke="#000000" stroke-opacity="0.00" stroke-width="0.3"><path d="
M 0.00 288.00 
C 6.24 280.19 18.95 285.61 28.00 284.00
C 27.82 277.02 26.16 266.00 36.01 266.01 C 45.86 266.02 44.16 277.02 44.00 284.00
C 52.00 284.00 60.00 284.00 68.00 284.00
C 67.82 277.02 66.16 266.00 76.01 266.01 C 85.86 266.02 84.16 277.02 84.00 284.00
C 92.00 284.00 100.00 284.00 108.00 284.00
C 107.82 277.02 106.16 266.00 116.01 266.01 C 125.86 266.02 124.16 277.02 124.00 284.00
C 132.00 284.00 140.00 284.00 148.00 284.00
C 147.82 277.02 146.16 266.00 156.01 266.01 C 165.86 266.02 164.16 277.02 164.00 284.00
C 172.00 284.00 180.00 284.00 188.00 284.00
C 187.82 277.02 186.16 266.00 196.01 266.01 C 205.86 266.02 204.16 277.02 204.00 284.00
C 212.00 284.00 220.00 284.00 228.00 284.00
C 227.82 277.02 226.16 266.00 236.01 266.01 C 245.86 266.02 244.16 277.02 244.00 284.00
C 252.00 284.00 260.00 284.00 268.00 284.00
C 267.82 277.02 266.16 266.00 276.01 266.01 C 285.86 266.02 284.16 277.02 284.00 284.00
C 292.00 284.00 300.00 284.00 308.00 284.00
C 307.82 277.02 306.16 266.00 316.01 266.01 C 325.86 266.02 324.16 277.02 324.00 284.00
C 332.00 284.00 340.00 284.00 348.00 284.00
C 347.82 277.02 346.16 266.00 356.01 266.01 C 365.86 266.02 364.16 277.02 364.00 284.00
C 372.00 284.00 380.00 284.00 388.00 284.00
C 387.82 277.02 386.16 266.00 396.01 266.01 C 405.86 266.02 404.16 277.02 404.00 284.00
C 412.00 284.00 420.00 284.00 428.00 284.00
C 427.82 277.02 426.16 266.00 436.01 266.01 C 445.86 266.02 444.16 277.02 444.00 284.00
C 452.00 284.00 460.00 284.00 468.00 284.00
C 467.82 277.02 466.16 266.00 476.01 266.01 C 485.86 266.02 484.16 277.02 484.00 284.00
C 493.07 285.59 505.79 280.21 512.00 288.00
L 512.00 0.00
L 257.00 0.00
C 262.75 2.96 262.16 10.20 262.00 16.00
C 273.45 16.43 284.51 15.42 296.00 16.00 C 307.49 16.58 318.36 14.89 330.00 16.00 C 341.64 17.11 335.08 38.61 323.00 32.00
C 326.32 37.69 326.96 44.25 329.98 50.02 C 332.99 55.80 333.90 62.28 336.98 68.02 C 340.05 73.77 340.77 81.16 344.32 86.68 C 347.87 92.20 361.40 83.03 363.77 92.23 C 366.14 101.43 358.82 106.28 350.00 104.00
C 353.24 132.18 358.90 159.76 362.00 188.00
C 369.85 189.52 382.84 183.54 383.99 195.01 C 385.15 206.47 372.01 204.07 364.00 204.00
C 364.00 220.00 364.00 236.00 364.00 252.00
C 358.84 250.66 353.18 250.68 348.00 252.00
C 343.02 253.86 338.98 259.28 335.00 262.00
C 327.27 246.13 303.87 249.49 295.00 262.00
C 288.35 247.54 263.66 247.54 257.00 262.00
C 247.08 248.05 224.93 248.07 215.00 262.00
C 208.35 247.54 183.66 247.54 177.00 262.00
C 173.13 259.01 168.78 254.15 164.00 252.00
C 159.04 250.24 153.01 251.08 148.00 252.00
C 148.00 236.00 148.00 220.00 148.00 204.00
C 139.98 204.10 126.86 206.46 128.00 195.00 C 129.14 183.53 142.17 189.54 150.00 188.00
C 153.09 159.78 158.76 132.20 162.00 104.00
C 143.38 109.03 145.61 85.64 160.00 88.00 C 174.39 90.36 170.97 71.12 176.92 62.92 C 182.88 54.73 183.30 40.68 189.00 32.00
C 179.24 38.48 169.71 19.79 179.70 16.70 C 189.68 13.61 201.41 17.08 212.00 16.00 C 222.59 14.92 234.31 16.81 245.00 16.00
C 244.93 10.16 243.88 3.87 249.00 0.00
L 0.00 0.00
L 0.00 288.00 Z"/>
</g>
<g fill="None" fill-opacity="0.0" stroke="#2D4356" stroke-opacity="0.98" stroke-width="0.3"><path d="
M 164.00 252.00 
C 161.64 246.54 164.88 238.04 164.00 232.00 C 163.12 225.96 164.00 218.20 164.00 212.00
C 164.00 209.33 164.00 206.67 164.00 204.00
C 225.33 204.00 286.67 204.00 348.00 204.00
C 348.00 206.67 348.00 209.33 348.00 212.00
C 348.00 218.20 348.88 225.96 348.00 232.00 C 347.12 238.04 350.36 246.54 348.00 252.00
C 353.18 250.68 358.84 250.66 364.00 252.00
C 364.00 236.00 364.00 220.00 364.00 204.00
C 372.01 204.07 385.15 206.47 383.99 195.01 C 382.84 183.54 369.85 189.52 362.00 188.00
C 358.90 159.76 353.24 132.18 350.00 104.00
C 358.82 106.28 366.14 101.43 363.77 92.23 C 361.40 83.03 347.87 92.20 344.32 86.68 C 340.77 81.16 340.05 73.77 336.98 68.02 C 333.90 62.28 332.99 55.80 329.98 50.02 C 326.96 44.25 326.32 37.69 323.00 32.00
C 335.08 38.61 341.64 17.11 330.00 16.00 C 318.36 14.89 307.49 16.58 296.00 16.00 C 284.51 15.42 273.45 16.43 262.00 16.00
C 262.16 10.20 262.75 2.96 257.00 0.00
L 249.00 0.00
C 243.88 3.87 244.93 10.16 245.00 16.00
C 234.31 16.81 222.59 14.92 212.00 16.00 C 201.41 17.08 189.68 13.61 179.70 16.70 C 169.71 19.79 179.24 38.48 189.00 32.00
C 183.30 40.68 182.88 54.73 176.92 62.92 C 170.97 71.12 174.39 90.36 160.00 88.00 C 145.61 85.64 143.38 109.03 162.00 104.00
C 158.76 132.20 153.09 159.78 150.00 188.00
C 142.17 189.54 129.14 183.53 128.00 195.00 C 126.86 206.46 139.98 204.10 148.00 204.00
C 148.00 220.00 148.00 236.00 148.00 252.00
C 153.01 251.08 159.04 250.24 164.00 252.00
M 308.00 39.00 
C 313.96 55.14 321.67 71.35 327.00 88.00
C 279.67 88.00 232.33 88.00 185.00 88.00
C 190.94 71.96 196.71 55.23 204.00 40.00
C 204.93 37.53 204.89 34.49 206.00 32.00
C 239.33 32.00 272.67 32.00 306.00 32.00
C 306.26 34.44 307.76 36.52 308.00 39.00
M 336.00 121.00 
C 336.51 124.03 336.96 126.84 337.00 130.00
C 327.43 121.51 318.25 125.03 309.30 133.30 C 300.36 141.57 292.51 131.85 283.30 125.70 C 274.10 119.54 264.38 138.04 255.92 137.92 C 247.47 137.80 237.99 119.65 228.77 125.77 C 219.55 131.89 211.67 141.49 202.75 133.25 C 193.84 125.01 184.54 121.55 175.00 130.00
C 174.30 126.73 176.43 124.23 176.00 121.00
C 177.30 113.29 176.15 102.98 186.00 104.00 C 195.85 105.02 204.43 103.58 214.00 104.00 C 223.57 104.42 232.55 103.90 242.00 104.00 C 251.45 104.10 259.49 104.20 269.00 104.00 C 278.51 103.80 287.23 104.58 297.00 104.00 C 306.77 103.42 314.67 105.36 325.00 104.00 C 335.33 102.64 334.59 112.63 336.00 121.00
M 345.00 182.00 
C 345.32 184.10 345.88 185.83 346.00 188.00
C 286.00 188.00 226.00 188.00 166.00 188.00
C 165.48 185.77 167.54 184.27 167.00 182.00
C 168.85 169.90 167.53 158.17 176.23 149.23 C 184.93 140.29 193.05 143.26 202.08 151.92 C 211.11 160.58 220.71 149.72 229.23 144.23 C 237.75 138.74 246.95 155.75 256.03 155.98 C 265.10 156.20 273.63 138.92 282.23 143.77 C 290.83 148.62 300.00 160.61 309.25 152.25 C 318.49 143.88 326.16 140.04 335.25 148.75 C 344.34 157.47 343.13 169.78 345.00 182.00 Z"/>
</g>
<g fill="None" fill-opacity="0.0" stroke="#FA9481" stroke-opacity="1.00" stroke-width="0.3"><path d="
M 204.00 40.00 
C 209.67 37.35 218.72 41.28 225.00 40.00 C 231.28 38.72 239.60 40.77 246.00 40.00 C 252.40 39.23 260.87 40.78 267.00 40.00 C 273.13 39.22 282.72 41.30 288.00 40.00 C 293.28 38.70 305.40 43.16 308.00 39.00
C 307.76 36.52 306.26 34.44 306.00 32.00
C 272.67 32.00 239.33 32.00 206.00 32.00
C 204.89 34.49 204.93 37.53 204.00 40.00 Z"/>
</g>
<g fill="None" fill-opacity="0.0" stroke="#FB775D" stroke-opacity="1.00" stroke-width="0.3"><path d="
M 204.00 40.00 
C 196.71 55.23 190.94 71.96 185.00 88.00
C 232.33 88.00 279.67 88.00 327.00 88.00
C 321.67 71.35 313.96 55.14 308.00 39.00
C 305.40 43.16 293.28 38.70 288.00 40.00 C 282.72 41.30 273.13 39.22 267.00 40.00 C 260.87 40.78 252.40 39.23 246.00 40.00 C 239.60 40.77 231.28 38.72 225.00 40.00 C 218.72 41.28 209.67 37.35 204.00 40.00 Z"/>
</g>
<g fill="None" fill-opacity="0.0" stroke="#FBE3A8" stroke-opacity="1.00" stroke-width="0.3"><path d="
M 176.00 121.00 
C 175.88 121.30 181.09 115.58 179.00 112.00
C 230.33 112.00 281.67 112.00 333.00 112.00
C 333.60 114.58 332.58 122.48 336.00 121.00
C 334.59 112.63 335.33 102.64 325.00 104.00 C 314.67 105.36 306.77 103.42 297.00 104.00 C 287.23 104.58 278.51 103.80 269.00 104.00 C 259.49 104.20 251.45 104.10 242.00 104.00 C 232.55 103.90 223.57 104.42 214.00 104.00 C 204.43 103.58 195.85 105.02 186.00 104.00 C 176.15 102.98 177.30 113.29 176.00 121.00 Z"/>
</g>
<g fill="None" fill-opacity="0.0" stroke="#FCD980" stroke-opacity="0.99" stroke-width="0.3"><path d="
M 176.00 121.00 
C 176.43 124.23 174.30 126.73 175.00 130.00
C 184.54 121.55 193.84 125.01 202.75 133.25 C 211.67 141.49 219.55 131.89 228.77 125.77 C 237.99 119.65 247.47 137.80 255.92 137.92 C 264.38 138.04 274.10 119.54 283.30 125.70 C 292.51 131.85 300.36 141.57 309.30 133.30 C 318.25 125.03 327.43 121.51 337.00 130.00
C 336.96 126.84 336.51 124.03 336.00 121.00
C 332.58 122.48 333.60 114.58 333.00 112.00
C 281.67 112.00 230.33 112.00 179.00 112.00
C 181.09 115.58 175.88 121.30 176.00 121.00 Z"/>
</g>
<g fill="None" fill-opacity="0.0" stroke="#FDDA7F" stroke-opacity="1.00" stroke-width="0.3"><path d="
M 167.00 182.00 
C 171.23 175.73 186.99 181.44 195.00 180.00 C 203.01 178.56 215.93 180.51 225.00 180.00 C 234.07 179.49 246.68 179.99 256.00 180.00 C 265.32 180.01 277.00 179.41 286.00 180.00 C 295.00 180.59 307.99 178.45 316.00 180.00 C 324.01 181.55 340.71 175.65 345.00 182.00
C 343.13 169.78 344.34 157.47 335.25 148.75 C 326.16 140.04 318.49 143.88 309.25 152.25 C 300.00 160.61 290.83 148.62 282.23 143.77 C 273.63 138.92 265.10 156.20 256.03 155.98 C 246.95 155.75 237.75 138.74 229.23 144.23 C 220.71 149.72 211.11 160.58 202.08 151.92 C 193.05 143.26 184.93 140.29 176.23 149.23 C 167.53 158.17 168.85 169.90 167.00 182.00 Z"/>
</g>
<g fill="None" fill-opacity="0.0" stroke="#D9B96D" stroke-opacity="1.00" stroke-width="0.3"><path d="
M 167.00 182.00 
C 167.54 184.27 165.48 185.77 166.00 188.00
C 226.00 188.00 286.00 188.00 346.00 188.00
C 345.88 185.83 345.32 184.10 345.00 182.00
C 340.71 175.65 324.01 181.55 316.00 180.00 C 307.99 178.45 295.00 180.59 286.00 180.00 C 277.00 179.41 265.32 180.01 256.00 180.00 C 246.68 179.99 234.07 179.49 225.00 180.00 C 215.93 180.51 203.01 178.56 195.00 180.00 C 186.99 181.44 171.23 175.73 167.00 182.00 Z"/>
</g>
<g fill="None" fill-opacity="0.0" stroke="#FA9582" stroke-opacity="1.00" stroke-width="0.3"><path d="
M 164.00 212.00 
C 225.33 212.00 286.67 212.00 348.00 212.00
C 348.00 209.33 348.00 206.67 348.00 204.00
C 286.67 204.00 225.33 204.00 164.00 204.00
C 164.00 206.67 164.00 209.33 164.00 212.00 Z"/>
</g>
<g fill="None" fill-opacity="0.0" stroke="#FC775D" stroke-opacity="0.98" stroke-width="0.3"><path d="
M 164.00 252.00 
C 168.78 254.15 173.13 259.01 177.00 262.00
C 183.66 247.54 208.35 247.54 215.00 262.00
C 224.93 248.07 247.08 248.05 257.00 262.00
C 263.66 247.54 288.35 247.54 295.00 262.00
C 303.87 249.49 327.27 246.13 335.00 262.00
C 338.98 259.28 343.02 253.86 348.00 252.00
C 350.36 246.54 347.12 238.04 348.00 232.00 C 348.88 225.96 348.00 218.20 348.00 212.00
C 286.67 212.00 225.33 212.00 164.00 212.00
C 164.00 218.20 163.12 225.96 164.00 232.00 C 164.88 238.04 161.64 246.54 164.00 252.00 Z"/>
</g>
<g fill="None" fill-opacity="0.0" stroke="#2D4356" stroke-opacity="0.99" stroke-width="0.3"><path d="
M 0.00 288.00 
L 0.00 296.00
C 6.24 303.81 18.95 298.39 28.00 300.00
C 28.00 305.33 28.00 310.67 28.00 316.00
C 15.56 313.45 3.82 322.01 0.00 333.00
L 0.00 407.00
C 5.06 424.17 24.37 425.81 40.00 424.00
C 41.73 467.73 79.87 506.00 122.00 512.00
L 150.00 512.00
C 192.24 505.97 230.16 467.71 232.00 424.00
C 248.00 424.00 264.00 424.00 280.00 424.00
C 281.73 467.73 319.87 505.99 362.00 512.00
L 390.00 512.00
C 432.24 505.97 470.16 467.71 472.00 424.00
C 487.62 425.85 507.00 424.10 512.00 407.00
L 512.00 333.00
C 508.13 321.92 496.45 313.49 484.00 316.00
C 484.00 310.67 484.00 305.33 484.00 300.00
C 493.07 298.41 505.79 303.79 512.00 296.00
L 512.00 288.00
C 505.79 280.21 493.07 285.59 484.00 284.00
C 484.16 277.02 485.86 266.02 476.01 266.01 C 466.16 266.00 467.82 277.02 468.00 284.00
C 460.00 284.00 452.00 284.00 444.00 284.00
C 444.16 277.02 445.86 266.02 436.01 266.01 C 426.16 266.00 427.82 277.02 428.00 284.00
C 420.00 284.00 412.00 284.00 404.00 284.00
C 404.16 277.02 405.86 266.02 396.01 266.01 C 386.16 266.00 387.82 277.02 388.00 284.00
C 380.00 284.00 372.00 284.00 364.00 284.00
C 364.16 277.02 365.86 266.02 356.01 266.01 C 346.16 266.00 347.82 277.02 348.00 284.00
C 340.00 284.00 332.00 284.00 324.00 284.00
C 324.16 277.02 325.86 266.02 316.01 266.01 C 306.16 266.00 307.82 277.02 308.00 284.00
C 300.00 284.00 292.00 284.00 284.00 284.00
C 284.16 277.02 285.86 266.02 276.01 266.01 C 266.16 266.00 267.82 277.02 268.00 284.00
C 260.00 284.00 252.00 284.00 244.00 284.00
C 244.16 277.02 245.86 266.02 236.01 266.01 C 226.16 266.00 227.82 277.02 228.00 284.00
C 220.00 284.00 212.00 284.00 204.00 284.00
C 204.16 277.02 205.86 266.02 196.01 266.01 C 186.16 266.00 187.82 277.02 188.00 284.00
C 180.00 284.00 172.00 284.00 164.00 284.00
C 164.16 277.02 165.86 266.02 156.01 266.01 C 146.16 266.00 147.82 277.02 148.00 284.00
C 140.00 284.00 132.00 284.00 124.00 284.00
C 124.16 277.02 125.86 266.02 116.01 266.01 C 106.16 266.00 107.82 277.02 108.00 284.00
C 100.00 284.00 92.00 284.00 84.00 284.00
C 84.16 277.02 85.86 266.02 76.01 266.01 C 66.16 266.00 67.82 277.02 68.00 284.00
C 60.00 284.00 52.00 284.00 44.00 284.00
C 44.16 277.02 45.86 266.02 36.01 266.01 C 26.16 266.00 27.82 277.02 28.00 284.00
C 18.95 285.61 6.24 280.19 0.00 288.00
M 68.00 300.00 
C 68.00 305.33 68.00 310.67 68.00 316.00
C 60.00 316.00 52.00 316.00 44.00 316.00
C 44.00 310.67 44.00 305.33 44.00 300.00
C 52.00 300.00 60.00 300.00 68.00 300.00
M 108.00 300.00 
C 108.00 305.33 108.00 310.67 108.00 316.00
C 100.00 316.00 92.00 316.00 84.00 316.00
C 84.00 310.67 84.00 305.33 84.00 300.00
C 92.00 300.00 100.00 300.00 108.00 300.00
M 148.00 300.00 
C 148.00 305.33 148.00 310.67 148.00 316.00
C 140.00 316.00 132.00 316.00 124.00 316.00
C 124.00 310.67 124.00 305.33 124.00 300.00
C 132.00 300.00 140.00 300.00 148.00 300.00
M 188.00 300.00 
C 188.00 305.33 188.00 310.67 188.00 316.00
C 180.00 316.00 172.00 316.00 164.00 316.00
C 164.00 310.67 164.00 305.33 164.00 300.00
C 172.00 300.00 180.00 300.00 188.00 300.00
M 228.00 300.00 
C 228.00 305.33 228.00 310.67 228.00 316.00
C 220.00 316.00 212.00 316.00 204.00 316.00
C 204.00 310.67 204.00 305.33 204.00 300.00
C 212.00 300.00 220.00 300.00 228.00 300.00
M 268.00 300.00 
C 268.00 305.33 268.00 310.67 268.00 316.00
C 260.00 316.00 252.00 316.00 244.00 316.00
C 244.00 310.67 244.00 305.33 244.00 300.00
C 252.00 300.00 260.00 300.00 268.00 300.00
M 308.00 300.00 
C 308.00 305.33 308.00 310.67 308.00 316.00
C 300.00 316.00 292.00 316.00 284.00 316.00
C 284.00 310.67 284.00 305.33 284.00 300.00
C 292.00 300.00 300.00 300.00 308.00 300.00
M 348.00 300.00 
C 348.00 305.33 348.00 310.67 348.00 316.00
C 340.00 316.00 332.00 316.00 324.00 316.00
C 324.00 310.67 324.00 305.33 324.00 300.00
C 332.00 300.00 340.00 300.00 348.00 300.00
M 388.00 300.00 
C 388.00 305.33 388.00 310.67 388.00 316.00
C 380.00 316.00 372.00 316.00 364.00 316.00
C 364.00 310.67 364.00 305.33 364.00 300.00
C 372.00 300.00 380.00 300.00 388.00 300.00
M 428.00 300.00 
C 428.00 305.33 428.00 310.67 428.00 316.00
C 420.00 316.00 412.00 316.00 404.00 316.00
C 404.00 310.67 404.00 305.33 404.00 300.00
C 412.00 300.00 420.00 300.00 428.00 300.00
M 468.00 300.00 
C 468.00 305.33 468.00 310.67 468.00 316.00
C 460.00 316.00 452.00 316.00 444.00 316.00
C 444.00 310.67 444.00 305.33 444.00 300.00
C 452.00 300.00 460.00 300.00 468.00 300.00
M 496.00 345.00 
C 496.00 355.33 496.00 365.67 496.00 376.00
C 336.00 376.00 176.00 376.00 16.00 376.00
C 16.00 365.67 16.00 355.33 16.00 345.00
C 16.00 323.91 42.50 333.34 59.00 332.00 C 75.50 330.66 97.31 332.59 115.00 332.00 C 132.69 331.41 152.77 332.25 171.00 332.00 C 189.23 331.75 208.52 332.06 227.00 332.00 C 245.48 331.94 265.52 331.92 284.00 332.00 C 302.48 332.08 321.77 331.73 340.00 332.00 C 358.23 332.27 378.31 331.36 396.00 332.00 C 413.69 332.64 435.49 330.55 452.00 332.00 C 468.51 333.45 496.00 323.69 496.00 345.00
M 496.00 395.00 
C 501.68 412.49 474.91 408.00 463.00 408.00 C 451.09 408.00 430.78 408.00 417.00 408.00 C 403.22 408.00 385.62 408.00 371.00 408.00 C 356.38 408.00 339.99 408.00 325.00 408.00 C 310.01 408.00 294.13 408.00 279.00 408.00 C 263.87 408.00 248.13 408.00 233.00 408.00 C 217.87 408.00 201.99 408.00 187.00 408.00 C 172.01 408.00 155.62 408.00 141.00 408.00 C 126.38 408.00 108.78 408.00 95.00 408.00 C 81.22 408.00 60.91 408.00 49.00 408.00 C 37.09 408.00 10.32 412.50 16.00 395.00
C 16.29 394.10 15.77 392.92 16.00 392.00
C 176.00 392.00 336.00 392.00 496.00 392.00
C 496.00 393.00 496.00 394.00 496.00 395.00
M 103.00 429.00 
C 103.87 430.78 106.20 432.55 106.00 435.00
C 97.68 442.62 88.52 451.69 80.75 459.75 C 72.98 467.81 73.09 465.31 68.70 459.30 C 64.31 453.30 62.62 448.90 60.22 442.78 C 57.83 436.66 55.47 427.93 58.00 424.00
C 64.19 421.34 73.26 425.39 80.00 424.00 C 86.74 422.61 95.11 425.04 102.00 424.00
C 101.95 425.76 103.53 427.07 103.00 429.00
M 153.00 424.00 
C 148.94 438.90 123.06 438.90 119.00 424.00
C 130.33 424.00 141.67 424.00 153.00 424.00
M 169.00 429.00 
C 169.65 427.68 169.25 425.40 170.00 424.00
C 184.67 424.00 199.33 424.00 214.00 424.00
C 217.74 425.61 213.53 437.55 211.68 442.68 C 209.82 447.81 207.48 453.66 203.25 459.25 C 199.01 464.84 199.01 467.89 191.25 459.75 C 183.48 451.62 174.26 442.62 166.00 435.00
C 166.40 432.89 167.38 430.34 169.00 429.00
M 343.00 429.00 
C 343.87 430.78 346.20 432.55 346.00 435.00
C 337.68 442.62 328.52 451.69 320.75 459.75 C 312.98 467.81 313.08 465.31 308.70 459.30 C 304.31 453.30 302.62 448.90 300.22 442.78 C 297.83 436.66 295.47 427.93 298.00 424.00
C 304.19 421.34 313.26 425.39 320.00 424.00 C 326.74 422.61 335.11 425.04 342.00 424.00
C 341.95 425.76 343.53 427.07 343.00 429.00
M 393.00 424.00 
C 388.94 438.90 363.06 438.90 359.00 424.00
C 370.33 424.00 381.67 424.00 393.00 424.00
M 409.00 429.00 
C 409.65 427.68 409.25 425.40 410.00 424.00
C 424.67 424.00 439.33 424.00 454.00 424.00
C 457.74 425.61 453.53 437.55 451.68 442.68 C 449.82 447.81 447.48 453.66 443.25 459.25 C 439.01 464.84 439.01 467.89 431.25 459.75 C 423.48 451.62 414.26 442.62 406.00 435.00
C 406.40 432.89 407.38 430.34 409.00 429.00
M 128.00 487.00 
C 128.00 490.00 128.00 493.00 128.00 496.00
C 112.93 493.80 97.20 488.75 86.00 478.00
C 85.13 475.29 96.67 465.02 100.25 462.25 C 103.82 459.47 112.26 446.73 117.00 446.00
C 120.63 445.44 124.15 450.63 128.00 450.00
C 128.00 462.33 128.00 474.67 128.00 487.00
M 186.00 478.00 
C 183.91 484.55 173.06 485.83 167.77 489.77 C 162.48 493.71 150.40 494.16 144.00 496.00
C 144.00 493.00 144.00 490.00 144.00 487.00
C 144.00 474.67 144.00 462.33 144.00 450.00
C 147.97 449.61 151.14 446.78 155.00 446.00
C 159.68 446.72 167.78 458.88 171.25 461.75 C 174.71 464.62 186.88 475.25 186.00 478.00
M 368.00 487.00 
C 368.00 490.00 368.00 493.00 368.00 496.00
C 352.93 493.80 337.20 488.75 326.00 478.00
C 325.13 475.29 336.67 465.02 340.25 462.25 C 343.82 459.47 352.26 446.73 357.00 446.00
C 360.63 445.44 364.16 450.62 368.00 450.00
C 368.00 462.33 368.00 474.67 368.00 487.00
M 426.00 478.00 
C 423.91 484.55 413.06 485.84 407.77 489.77 C 402.48 493.71 390.40 494.16 384.00 496.00
C 384.00 493.00 384.00 490.00 384.00 487.00
C 384.00 474.67 384.00 462.33 384.00 450.00
C 387.97 449.61 391.14 446.78 395.00 446.00
C 399.68 446.72 407.78 458.88 411.25 461.75 C 414.71 464.62 426.88 475.25 426.00 478.00 Z"/>
</g>
<g fill="None" fill-opacity="0.0" stroke="#000000" stroke-opacity="0.00" stroke-width="0.3"><path d="
M 0.00 333.00 
C 3.82 322.01 15.56 313.45 28.00 316.00
C 28.00 310.67 28.00 305.33 28.00 300.00
C 18.95 298.39 6.24 303.81 0.00 296.00
L 0.00 333.00 Z"/>
</g>
<g fill="None" fill-opacity="0.0" stroke="#000000" stroke-opacity="0.00" stroke-width="0.3"><path d="
M 512.00 333.00 
L 512.00 296.00
C 505.79 303.79 493.07 298.41 484.00 300.00
C 484.00 305.33 484.00 310.67 484.00 316.00
C 496.45 313.49 508.13 321.92 512.00 333.00 Z"/>
</g>
<g fill="None" fill-opacity="0.0" stroke="#000000" stroke-opacity="0.00" stroke-width="0.3"><path d="
M 68.00 300.00 
C 60.00 300.00 52.00 300.00 44.00 300.00
C 44.00 305.33 44.00 310.67 44.00 316.00
C 52.00 316.00 60.00 316.00 68.00 316.00
C 68.00 310.67 68.00 305.33 68.00 300.00 Z"/>
</g>
<g fill="None" fill-opacity="0.0" stroke="#000000" stroke-opacity="0.00" stroke-width="0.3"><path d="
M 108.00 300.00 
C 100.00 300.00 92.00 300.00 84.00 300.00
C 84.00 305.33 84.00 310.67 84.00 316.00
C 92.00 316.00 100.00 316.00 108.00 316.00
C 108.00 310.67 108.00 305.33 108.00 300.00 Z"/>
</g>
<g fill="None" fill-opacity="0.0" stroke="#000000" stroke-opacity="0.00" stroke-width="0.3"><path d="
M 148.00 300.00 
C 140.00 300.00 132.00 300.00 124.00 300.00
C 124.00 305.33 124.00 310.67 124.00 316.00
C 132.00 316.00 140.00 316.00 148.00 316.00
C 148.00 310.67 148.00 305.33 148.00 300.00 Z"/>
</g>
<g fill="None" fill-opacity="0.0" stroke="#000000" stroke-opacity="0.00" stroke-width="0.3"><path d="
M 188.00 300.00 
C 180.00 300.00 172.00 300.00 164.00 300.00
C 164.00 305.33 164.00 310.67 164.00 316.00
C 172.00 316.00 180.00 316.00 188.00 316.00
C 188.00 310.67 188.00 305.33 188.00 300.00 Z"/>
</g>
<g fill="None" fill-opacity="0.0" stroke="#000000" stroke-opacity="0.00" stroke-width="0.3"><path d="
M 228.00 300.00 
C 220.00 300.00 212.00 300.00 204.00 300.00
C 204.00 305.33 204.00 310.67 204.00 316.00
C 212.00 316.00 220.00 316.00 228.00 316.00
C 228.00 310.67 228.00 305.33 228.00 300.00 Z"/>
</g>
<g fill="None" fill-opacity="0.0" stroke="#000000" stroke-opacity="0.00" stroke-width="0.3"><path d="
M 268.00 300.00 
C 260.00 300.00 252.00 300.00 244.00 300.00
C 244.00 305.33 244.00 310.67 244.00 316.00
C 252.00 316.00 260.00 316.00 268.00 316.00
C 268.00 310.67 268.00 305.33 268.00 300.00 Z"/>
</g>
<g fill="None" fill-opacity="0.0" stroke="#000000" stroke-opacity="0.00" stroke-width="0.3"><path d="
M 308.00 300.00 
C 300.00 300.00 292.00 300.00 284.00 300.00
C 284.00 305.33 284.00 310.67 284.00 316.00
C 292.00 316.00 300.00 316.00 308.00 316.00
C 308.00 310.67 308.00 305.33 308.00 300.00 Z"/>
</g>
<g fill="None" fill-opacity="0.0" stroke="#000000" stroke-opacity="0.00" stroke-width="0.3"><path d="
M 348.00 300.00 
C 340.00 300.00 332.00 300.00 324.00 300.00
C 324.00 305.33 324.00 310.67 324.00 316.00
C 332.00 316.00 340.00 316.00 348.00 316.00
C 348.00 310.67 348.00 305.33 348.00 300.00 Z"/>
</g>
<g fill="None" fill-opacity="0.0" stroke="#000000" stroke-opacity="0.00" stroke-width="0.3"><path d="
M 388.00 300.00 
C 380.00 300.00 372.00 300.00 364.00 300.00
C 364.00 305.33 364.00 310.67 364.00 316.00
C 372.00 316.00 380.00 316.00 388.00 316.00
C 388.00 310.67 388.00 305.33 388.00 300.00 Z"/>
</g>
<g fill="None" fill-opacity="0.0" stroke="#000000" stroke-opacity="0.00" stroke-width="0.3"><path d="
M 428.00 300.00 
C 420.00 300.00 412.00 300.00 404.00 300.00
C 404.00 305.33 404.00 310.67 404.00 316.00
C 412.00 316.00 420.00 316.00 428.00 316.00
C 428.00 310.67 428.00 305.33 428.00 300.00 Z"/>
</g>
<g fill="None" fill-opacity="0.0" stroke="#000000" stroke-opacity="0.00" stroke-width="0.3"><path d="
M 468.00 300.00 
C 460.00 300.00 452.00 300.00 444.00 300.00
C 444.00 305.33 444.00 310.67 444.00 316.00
C 452.00 316.00 460.00 316.00 468.00 316.00
C 468.00 310.67 468.00 305.33 468.00 300.00 Z"/>
</g>
<g fill="None" fill-opacity="0.0" stroke="#D99C72" stroke-opacity="1.00" stroke-width="0.3"><path d="
M 16.00 345.00 
C 18.99 335.15 36.94 341.24 46.00 340.00 C 55.06 338.76 70.51 340.56 81.00 340.00 C 91.49 339.44 104.87 340.25 116.00 340.00 C 127.13 339.75 139.58 340.11 151.00 340.00 C 162.42 339.89 174.45 340.05 186.00 340.00 C 197.55 339.95 209.39 340.02 221.00 340.00 C 232.61 339.98 244.38 340.00 256.00 340.00 C 267.62 340.00 279.39 339.98 291.00 340.00 C 302.61 340.02 314.45 339.95 326.00 340.00 C 337.55 340.05 349.57 339.89 361.00 340.00 C 372.43 340.11 384.86 339.75 396.00 340.00 C 407.14 340.25 420.50 339.45 431.00 340.00 C 441.50 340.55 456.92 338.78 466.00 340.00 C 475.08 341.22 493.02 335.19 496.00 345.00
C 496.00 323.69 468.51 333.45 452.00 332.00 C 435.49 330.55 413.69 332.64 396.00 332.00 C 378.31 331.36 358.23 332.27 340.00 332.00 C 321.77 331.73 302.48 332.08 284.00 332.00 C 265.52 331.92 245.48 331.94 227.00 332.00 C 208.52 332.06 189.23 331.75 171.00 332.00 C 152.77 332.25 132.69 331.41 115.00 332.00 C 97.31 332.59 75.50 330.66 59.00 332.00 C 42.50 333.34 16.00 323.91 16.00 345.00 Z"/>
</g>
<g fill="None" fill-opacity="0.0" stroke="#D68751" stroke-opacity="1.00" stroke-width="0.3"><path d="
M 16.00 345.00 
C 16.00 355.33 16.00 365.67 16.00 376.00
C 176.00 376.00 336.00 376.00 496.00 376.00
C 496.00 365.67 496.00 355.33 496.00 345.00
C 493.02 335.19 475.08 341.22 466.00 340.00 C 456.92 338.78 441.50 340.55 431.00 340.00 C 420.50 339.45 407.14 340.25 396.00 340.00 C 384.86 339.75 372.43 340.11 361.00 340.00 C 349.57 339.89 337.55 340.05 326.00 340.00 C 314.45 339.95 302.61 340.02 291.00 340.00 C 279.39 339.98 267.62 340.00 256.00 340.00 C 244.38 340.00 232.61 339.98 221.00 340.00 C 209.39 340.02 197.55 339.95 186.00 340.00 C 174.45 340.05 162.42 339.89 151.00 340.00 C 139.58 340.11 127.13 339.75 116.00 340.00 C 104.87 340.25 91.49 339.44 81.00 340.00 C 70.51 340.56 55.06 338.76 46.00 340.00 C 36.94 341.24 18.99 335.15 16.00 345.00 Z"/>
</g>
<g fill="None" fill-opacity="0.0" stroke="#E0EAF3" stroke-opacity="1.00" stroke-width="0.3"><path d="
M 16.00 395.00 
C 15.84 401.78 29.28 399.92 35.00 400.00 C 40.72 400.08 52.97 399.96 60.00 400.00 C 67.03 400.04 76.32 399.98 84.00 400.00 C 91.68 400.02 101.06 399.99 109.00 400.00 C 116.94 400.01 124.92 400.00 133.00 400.00 C 141.08 400.00 149.87 400.00 158.00 400.00 C 166.13 400.00 173.84 400.00 182.00 400.00 C 190.16 400.00 198.83 400.00 207.00 400.00 C 215.17 400.00 222.83 400.00 231.00 400.00 C 239.17 400.00 247.83 400.00 256.00 400.00 C 264.17 400.00 271.83 400.00 280.00 400.00 C 288.17 400.00 296.83 400.00 305.00 400.00 C 313.17 400.00 320.85 400.00 329.00 400.00 C 337.15 400.00 345.87 400.00 354.00 400.00 C 362.13 400.00 369.93 400.01 378.00 400.00 C 386.07 399.99 395.06 400.01 403.00 400.00 C 410.94 399.99 419.36 400.03 427.00 400.00 C 434.64 399.97 444.97 400.06 452.00 400.00 C 459.03 399.94 470.46 400.15 476.00 400.00 C 481.54 399.85 496.16 401.98 496.00 395.00
C 496.00 394.00 496.00 393.00 496.00 392.00
C 336.00 392.00 176.00 392.00 16.00 392.00
C 15.77 392.92 16.29 394.10 16.00 395.00 Z"/>
</g>
<g fill="None" fill-opacity="0.0" stroke="#BFC7CE" stroke-opacity="1.00" stroke-width="0.3"><path d="
M 496.00 395.00 
C 496.16 401.98 481.54 399.85 476.00 400.00 C 470.46 400.15 459.03 399.94 452.00 400.00 C 444.97 400.06 434.64 399.97 427.00 400.00 C 419.36 400.03 410.94 399.99 403.00 400.00 C 395.06 400.01 386.07 399.99 378.00 400.00 C 369.93 400.01 362.13 400.00 354.00 400.00 C 345.87 400.00 337.15 400.00 329.00 400.00 C 320.85 400.00 313.17 400.00 305.00 400.00 C 296.83 400.00 288.17 400.00 280.00 400.00 C 271.83 400.00 264.17 400.00 256.00 400.00 C 247.83 400.00 239.17 400.00 231.00 400.00 C 222.83 400.00 215.17 400.00 207.00 400.00 C 198.83 400.00 190.16 400.00 182.00 400.00 C 173.84 400.00 166.13 400.00 158.00 400.00 C 149.87 400.00 141.08 400.00 133.00 400.00 C 124.92 400.00 116.94 400.01 109.00 400.00 C 101.06 399.99 91.68 400.02 84.00 400.00 C 76.32 399.98 67.03 400.04 60.00 400.00 C 52.97 399.96 40.72 400.08 35.00 400.00 C 29.28 399.92 15.84 401.78 16.00 395.00
C 10.32 412.50 37.09 408.00 49.00 408.00 C 60.91 408.00 81.22 408.00 95.00 408.00 C 108.78 408.00 126.38 408.00 141.00 408.00 C 155.62 408.00 172.01 408.00 187.00 408.00 C 201.99 408.00 217.87 408.00 233.00 408.00 C 248.13 408.00 263.87 408.00 279.00 408.00 C 294.13 408.00 310.01 408.00 325.00 408.00 C 339.99 408.00 356.38 408.00 371.00 408.00 C 385.62 408.00 403.22 408.00 417.00 408.00 C 430.78 408.00 451.09 408.00 463.00 408.00 C 474.91 408.00 501.68 412.49 496.00 395.00 Z"/>
</g>
<g fill="None" fill-opacity="0.0" stroke="#000000" stroke-opacity="0.00" stroke-width="0.3"><path d="
M 0.00 512.00 
L 122.00 512.00
C 79.87 506.00 41.73 467.73 40.00 424.00
C 24.37 425.81 5.06 424.17 0.00 407.00
L 0.00 512.00 Z"/>
</g>
<g fill="None" fill-opacity="0.0" stroke="#000000" stroke-opacity="0.00" stroke-width="0.3"><path d="
M 390.00 512.00 
L 512.00 512.00
L 512.00 407.00
C 507.00 424.10 487.62 425.85 472.00 424.00
C 470.16 467.71 432.24 505.97 390.00 512.00 Z"/>
</g>
<g fill="None" fill-opacity="0.0" stroke="#D8B96E" stroke-opacity="0.98" stroke-width="0.3"><path d="
M 103.00 429.00 
C 102.10 434.70 91.99 438.76 88.75 443.75 C 85.52 448.75 77.58 454.78 73.00 458.00
C 66.37 447.66 59.53 436.58 58.00 424.00
C 55.47 427.93 57.83 436.66 60.22 442.78 C 62.62 448.90 64.31 453.30 68.70 459.30 C 73.09 465.31 72.98 467.81 80.75 459.75 C 88.52 451.69 97.68 442.62 106.00 435.00
C 106.20 432.55 103.87 430.78 103.00 429.00 Z"/>
</g>
<g fill="None" fill-opacity="0.0" stroke="#FEDA7F" stroke-opacity="1.00" stroke-width="0.3"><path d="
M 103.00 429.00 
C 103.53 427.07 101.95 425.76 102.00 424.00
C 95.11 425.04 86.74 422.61 80.00 424.00 C 73.26 425.39 64.19 421.34 58.00 424.00
C 59.53 436.58 66.37 447.66 73.00 458.00
C 77.58 454.78 85.52 448.75 88.75 443.75 C 91.99 438.76 102.10 434.70 103.00 429.00 Z"/>
</g>
<g fill="None" fill-opacity="0.0" stroke="#D38651" stroke-opacity="0.98" stroke-width="0.3"><path d="
M 153.00 424.00 
C 141.67 424.00 130.33 424.00 119.00 424.00
C 123.06 438.90 148.94 438.90 153.00 424.00 Z"/>
</g>
<g fill="None" fill-opacity="0.0" stroke="#FEDA7F" stroke-opacity="1.00" stroke-width="0.3"><path d="
M 169.00 429.00 
C 169.90 434.70 180.01 438.76 183.25 443.75 C 186.48 448.75 194.42 454.78 199.00 458.00
C 205.55 447.58 212.40 436.60 214.00 424.00
C 199.33 424.00 184.67 424.00 170.00 424.00
C 169.25 425.40 169.65 427.68 169.00 429.00 Z"/>
</g>
<g fill="None" fill-opacity="0.0" stroke="#D8B96E" stroke-opacity="0.98" stroke-width="0.3"><path d="
M 169.00 429.00 
C 167.38 430.34 166.40 432.89 166.00 435.00
C 174.26 442.62 183.48 451.62 191.25 459.75 C 199.01 467.89 199.01 464.84 203.25 459.25 C 207.48 453.66 209.82 447.81 211.68 442.68 C 213.53 437.55 217.74 425.61 214.00 424.00
C 212.40 436.60 205.55 447.58 199.00 458.00
C 194.42 454.78 186.48 448.75 183.25 443.75 C 180.01 438.76 169.90 434.70 169.00 429.00 Z"/>
</g>
<g fill="None" fill-opacity="0.0" stroke="#000000" stroke-opacity="0.00" stroke-width="0.3"><path d="
M 150.00 512.00 
L 362.00 512.00
C 319.87 505.99 281.73 467.73 280.00 424.00
C 264.00 424.00 248.00 424.00 232.00 424.00
C 230.16 467.71 192.24 505.97 150.00 512.00 Z"/>
</g>
<g fill="None" fill-opacity="0.0" stroke="#D8B96E" stroke-opacity="0.98" stroke-width="0.3"><path d="
M 343.00 429.00 
C 342.10 434.70 331.99 438.75 328.75 443.75 C 325.52 448.75 317.59 454.78 313.00 458.00
C 306.37 447.66 299.53 436.58 298.00 424.00
C 295.47 427.93 297.83 436.66 300.22 442.78 C 302.62 448.90 304.31 453.30 308.70 459.30 C 313.08 465.31 312.98 467.81 320.75 459.75 C 328.52 451.69 337.68 442.62 346.00 435.00
C 346.20 432.55 343.87 430.78 343.00 429.00 Z"/>
</g>
<g fill="None" fill-opacity="0.0" stroke="#FEDA7F" stroke-opacity="1.00" stroke-width="0.3"><path d="
M 343.00 429.00 
C 343.53 427.07 341.95 425.76 342.00 424.00
C 335.11 425.04 326.74 422.61 320.00 424.00 C 313.26 425.39 304.19 421.34 298.00 424.00
C 299.53 436.58 306.37 447.66 313.00 458.00
C 317.59 454.78 325.52 448.75 328.75 443.75 C 331.99 438.75 342.10 434.70 343.00 429.00 Z"/>
</g>
<g fill="None" fill-opacity="0.0" stroke="#D38651" stroke-opacity="0.98" stroke-width="0.3"><path d="
M 393.00 424.00 
C 381.67 424.00 370.33 424.00 359.00 424.00
C 363.06 438.90 388.94 438.90 393.00 424.00 Z"/>
</g>
<g fill="None" fill-opacity="0.0" stroke="#FEDA7F" stroke-opacity="1.00" stroke-width="0.3"><path d="
M 409.00 429.00 
C 409.90 434.70 420.01 438.75 423.25 443.75 C 426.48 448.75 434.42 454.78 439.00 458.00
C 445.55 447.58 452.40 436.60 454.00 424.00
C 439.33 424.00 424.67 424.00 410.00 424.00
C 409.25 425.40 409.65 427.68 409.00 429.00 Z"/>
</g>
<g fill="None" fill-opacity="0.0" stroke="#D8B96E" stroke-opacity="0.98" stroke-width="0.3"><path d="
M 409.00 429.00 
C 407.38 430.34 406.40 432.89 406.00 435.00
C 414.26 442.62 423.48 451.62 431.25 459.75 C 439.01 467.89 439.01 464.84 443.25 459.25 C 447.48 453.66 449.82 447.81 451.68 442.68 C 453.53 437.55 457.74 425.61 454.00 424.00
C 452.40 436.60 445.55 447.58 439.00 458.00
C 434.42 454.78 426.48 448.75 423.25 443.75 C 420.01 438.75 409.90 434.70 409.00 429.00 Z"/>
</g>
<g fill="None" fill-opacity="0.0" stroke="#686D61" stroke-opacity="0.82" stroke-width="0.3"><path d="
M 86.00 478.00 
C 85.95 476.36 89.14 474.86 90.00 474.00
C 99.08 464.92 108.15 455.22 117.00 446.00
C 112.26 446.73 103.82 459.47 100.25 462.25 C 96.67 465.02 85.13 475.29 86.00 478.00 Z"/>
</g>
<g fill="None" fill-opacity="0.0" stroke="#FEDA7F" stroke-opacity="1.00" stroke-width="0.3"><path d="
M 90.00 474.00 
C 95.55 473.39 100.33 482.09 106.68 482.32 C 113.03 482.56 120.79 488.89 128.00 487.00
C 128.00 474.67 128.00 462.33 128.00 450.00
C 124.15 450.63 120.63 445.44 117.00 446.00
C 108.15 455.22 99.08 464.92 90.00 474.00 Z"/>
</g>
<g fill="None" fill-opacity="0.0" stroke="#FEDA7F" stroke-opacity="1.00" stroke-width="0.3"><path d="
M 144.00 487.00 
C 150.98 488.94 158.54 482.97 164.69 482.69 C 170.84 482.42 176.45 473.43 182.00 474.00
C 172.92 464.92 163.85 455.22 155.00 446.00
C 151.14 446.78 147.97 449.61 144.00 450.00
C 144.00 462.33 144.00 474.67 144.00 487.00 Z"/>
</g>
<g fill="None" fill-opacity="0.0" stroke="#6D7062" stroke-opacity="0.82" stroke-width="0.3"><path d="
M 182.00 474.00 
C 182.96 474.96 186.05 476.33 186.00 478.00
C 186.88 475.25 174.71 464.62 171.25 461.75 C 167.78 458.88 159.68 446.72 155.00 446.00
C 163.85 455.22 172.92 464.92 182.00 474.00 Z"/>
</g>
<g fill="None" fill-opacity="0.0" stroke="#686D61" stroke-opacity="0.82" stroke-width="0.3"><path d="
M 326.00 478.00 
C 325.95 476.36 329.14 474.86 330.00 474.00
C 339.08 464.92 348.15 455.22 357.00 446.00
C 352.26 446.73 343.82 459.47 340.25 462.25 C 336.67 465.02 325.13 475.29 326.00 478.00 Z"/>
</g>
<g fill="None" fill-opacity="0.0" stroke="#FEDA7F" stroke-opacity="1.00" stroke-width="0.3"><path d="
M 330.00 474.00 
C 335.55 473.39 340.33 482.09 346.68 482.32 C 353.03 482.56 360.79 488.89 368.00 487.00
C 368.00 474.67 368.00 462.33 368.00 450.00
C 364.16 450.62 360.63 445.44 357.00 446.00
C 348.15 455.22 339.08 464.92 330.00 474.00 Z"/>
</g>
<g fill="None" fill-opacity="0.0" stroke="#FEDA7F" stroke-opacity="1.00" stroke-width="0.3"><path d="
M 384.00 487.00 
C 390.98 488.94 398.55 482.97 404.69 482.69 C 410.84 482.42 416.45 473.43 422.00 474.00
C 412.92 464.92 403.85 455.22 395.00 446.00
C 391.14 446.78 387.97 449.61 384.00 450.00
C 384.00 462.33 384.00 474.67 384.00 487.00 Z"/>
</g>
<g fill="None" fill-opacity="0.0" stroke="#6D7062" stroke-opacity="0.82" stroke-width="0.3"><path d="
M 422.00 474.00 
C 422.96 474.96 426.06 476.33 426.00 478.00
C 426.88 475.25 414.71 464.62 411.25 461.75 C 407.78 458.88 399.68 446.72 395.00 446.00
C 403.85 455.22 412.92 464.92 422.00 474.00 Z"/>
</g>
<g fill="None" fill-opacity="0.0" stroke="#D7B86E" stroke-opacity="0.98" stroke-width="0.3"><path d="
M 86.00 478.00 
C 97.20 488.75 112.93 493.80 128.00 496.00
C 128.00 493.00 128.00 490.00 128.00 487.00
C 120.79 488.89 113.03 482.56 106.68 482.32 C 100.33 482.09 95.55 473.39 90.00 474.00
C 89.14 474.86 85.95 476.36 86.00 478.00 Z"/>
</g>
<g fill="None" fill-opacity="0.0" stroke="#D7B86E" stroke-opacity="0.98" stroke-width="0.3"><path d="
M 144.00 487.00 
C 144.00 490.00 144.00 493.00 144.00 496.00
C 150.40 494.16 162.48 493.71 167.77 489.77 C 173.06 485.83 183.91 484.55 186.00 478.00
C 186.05 476.33 182.96 474.96 182.00 474.00
C 176.45 473.43 170.84 482.42 164.69 482.69 C 158.54 482.97 150.98 488.94 144.00 487.00 Z"/>
</g>
<g fill="None" fill-opacity="0.0" stroke="#D7B86E" stroke-opacity="0.98" stroke-width="0.3"><path d="
M 326.00 478.00 
C 337.20 488.75 352.93 493.80 368.00 496.00
C 368.00 493.00 368.00 490.00 368.00 487.00
C 360.79 488.89 353.03 482.56 346.68 482.32 C 340.33 482.09 335.55 473.39 330.00 474.00
C 329.14 474.86 325.95 476.36 326.00 478.00 Z"/>
</g>
<g fill="None" fill-opacity="0.0" stroke="#D7B86E" stroke-opacity="0.98" stroke-width="0.3"><path d="
M 384.00 487.00 
C 384.00 490.00 384.00 493.00 384.00 496.00
C 390.40 494.16 402.48 493.71 407.77 489.77 C 413.06 485.84 423.91 484.55 426.00 478.00
C 426.06 476.33 422.96 474.96 422.00 474.00
C 416.45 473.43 410.84 482.42 404.69 482.69 C 398.55 482.97 390.98 488.94 384.00 487.00 Z"/>
</g>
<g fill="#000000" fill-opacity="0.00" stroke="None">
<path d="
M 0.00 288.00 
C 6.24 280.19 18.95 285.61 28.00 284.00
C 27.82 277.02 26.16 266.00 36.01 266.01 C 45.86 266.02 44.16 277.02 44.00 284.00
C 52.00 284.00 60.00 284.00 68.00 284.00
C 67.82 277.02 66.16 266.00 76.01 266.01 C 85.86 266.02 84.16 277.02 84.00 284.00
C 92.00 284.00 100.00 284.00 108.00 284.00
C 107.82 277.02 106.16 266.00 116.01 266.01 C 125.86 266.02 124.16 277.02 124.00 284.00
C 132.00 284.00 140.00 284.00 148.00 284.00
C 147.82 277.02 146.16 266.00 156.01 266.01 C 165.86 266.02 164.16 277.02 164.00 284.00
C 172.00 284.00 180.00 284.00 188.00 284.00
C 187.82 277.02 186.16 266.00 196.01 266.01 C 205.86 266.02 204.16 277.02 204.00 284.00
C 212.00 284.00 220.00 284.00 228.00 284.00
C 227.82 277.02 226.16 266.00 236.01 266.01 C 245.86 266.02 244.16 277.02 244.00 284.00
C 252.00 284.00 260.00 284.00 268.00 284.00
C 267.82 277.02 266.16 266.00 276.01 266.01 C 285.86 266.02 284.16 277.02 284.00 284.00
C 292.00 284.00 300.00 284.00 308.00 284.00
C 307.82 277.02 306.16 266.00 316.01 266.01 C 325.86 266.02 324.16 277.02 324.00 284.00
C 332.00 284.00 340.00 284.00 348.00 284.00
C 347.82 277.02 346.16 266.00 356.01 266.01 C 365.86 266.02 364.16 277.02 364.00 284.00
C 372.00 284.00 380.00 284.00 388.00 284.00
C 387.82 277.02 386.16 266.00 396.01 266.01 C 405.86 266.02 404.16 277.02 404.00 284.00
C 412.00 284.00 420.00 284.00 428.00 284.00
C 427.82 277.02 426.16 266.00 436.01 266.01 C 445.86 266.02 444.16 277.02 444.00 284.00
C 452.00 284.00 460.00 284.00 468.00 284.00
C 467.82 277.02 466.16 266.00 476.01 266.01 C 485.86 266.02 484.16 277.02 484.00 284.00
C 493.07 285.59 505.79 280.21 512.00 288.00
L 512.00 0.00
L 257.00 0.00
C 262.75 2.96 262.16 10.20 262.00 16.00
C 273.45 16.43 284.51 15.42 296.00 16.00 C 307.49 16.58 318.36 14.89 330.00 16.00 C 341.64 17.11 335.08 38.61 323.00 32.00
C 326.32 37.69 326.96 44.25 329.98 50.02 C 332.99 55.80 333.90 62.28 336.98 68.02 C 340.05 73.77 340.77 81.16 344.32 86.68 C 347.87 92.20 361.40 83.03 363.77 92.23 C 366.14 101.43 358.82 106.28 350.00 104.00
C 353.24 132.18 358.90 159.76 362.00 188.00
C 369.85 189.52 382.84 183.54 383.99 195.01 C 385.15 206.47 372.01 204.07 364.00 204.00
C 364.00 220.00 364.00 236.00 364.00 252.00
C 358.84 250.66 353.18 250.68 348.00 252.00
C 343.02 253.86 338.98 259.28 335.00 262.00
C 327.27 246.13 303.87 249.49 295.00 262.00
C 288.35 247.54 263.66 247.54 257.00 262.00
C 247.08 248.05 224.93 248.07 215.00 262.00
C 208.35 247.54 183.66 247.54 177.00 262.00
C 173.13 259.01 168.78 254.15 164.00 252.00
C 159.04 250.24 153.01 251.08 148.00 252.00
C 148.00 236.00 148.00 220.00 148.00 204.00
C 139.98 204.10 126.86 206.46 128.00 195.00 C 129.14 183.53 142.17 189.54 150.00 188.00
C 153.09 159.78 158.76 132.20 162.00 104.00
C 143.38 109.03 145.61 85.64 160.00 88.00 C 174.39 90.36 170.97 71.12 176.92 62.92 C 182.88 54.73 183.30 40.68 189.00 32.00
C 179.24 38.48 169.71 19.79 179.70 16.70 C 189.68 13.61 201.41 17.08 212.00 16.00 C 222.59 14.92 234.31 16.81 245.00 16.00
C 244.93 10.16 243.88 3.87 249.00 0.00
L 0.00 0.00
L 0.00 288.00 Z"/>
</g>
<g fill="#2D4356" fill-opacity="0.98" stroke="None">
<path d="
M 164.00 252.00 
C 161.64 246.54 164.88 238.04 164.00 232.00 C 163.12 225.96 164.00 218.20 164.00 212.00
C 164.00 209.33 164.00 206.67 164.00 204.00
C 225.33 204.00 286.67 204.00 348.00 204.00
C 348.00 206.67 348.00 209.33 348.00 212.00
C 348.00 218.20 348.88 225.96 348.00 232.00 C 347.12 238.04 350.36 246.54 348.00 252.00
C 353.18 250.68 358.84 250.66 364.00 252.00
C 364.00 236.00 364.00 220.00 364.00 204.00
C 372.01 204.07 385.15 206.47 383.99 195.01 C 382.84 183.54 369.85 189.52 362.00 188.00
C 358.90 159.76 353.24 132.18 350.00 104.00
C 358.82 106.28 366.14 101.43 363.77 92.23 C 361.40 83.03 347.87 92.20 344.32 86.68 C 340.77 81.16 340.05 73.77 336.98 68.02 C 333.90 62.28 332.99 55.80 329.98 50.02 C 326.96 44.25 326.32 37.69 323.00 32.00
C 335.08 38.61 341.64 17.11 330.00 16.00 C 318.36 14.89 307.49 16.58 296.00 16.00 C 284.51 15.42 273.45 16.43 262.00 16.00
C 262.16 10.20 262.75 2.96 257.00 0.00
L 249.00 0.00
C 243.88 3.87 244.93 10.16 245.00 16.00
C 234.31 16.81 222.59 14.92 212.00 16.00 C 201.41 17.08 189.68 13.61 179.70 16.70 C 169.71 19.79 179.24 38.48 189.00 32.00
C 183.30 40.68 182.88 54.73 176.92 62.92 C 170.97 71.12 174.39 90.36 160.00 88.00 C 145.61 85.64 143.38 109.03 162.00 104.00
C 158.76 132.20 153.09 159.78 150.00 188.00
C 142.17 189.54 129.14 183.53 128.00 195.00 C 126.86 206.46 139.98 204.10 148.00 204.00
C 148.00 220.00 148.00 236.00 148.00 252.00
C 153.01 251.08 159.04 250.24 164.00 252.00
M 308.00 39.00 
C 313.96 55.14 321.67 71.35 327.00 88.00
C 279.67 88.00 232.33 88.00 185.00 88.00
C 190.94 71.96 196.71 55.23 204.00 40.00
C 204.93 37.53 204.89 34.49 206.00 32.00
C 239.33 32.00 272.67 32.00 306.00 32.00
C 306.26 34.44 307.76 36.52 308.00 39.00
M 336.00 121.00 
C 336.51 124.03 336.96 126.84 337.00 130.00
C 327.43 121.51 318.25 125.03 309.30 133.30 C 300.36 141.57 292.51 131.85 283.30 125.70 C 274.10 119.54 264.38 138.04 255.92 137.92 C 247.47 137.80 237.99 119.65 228.77 125.77 C 219.55 131.89 211.67 141.49 202.75 133.25 C 193.84 125.01 184.54 121.55 175.00 130.00
C 174.30 126.73 176.43 124.23 176.00 121.00
C 177.30 113.29 176.15 102.98 186.00 104.00 C 195.85 105.02 204.43 103.58 214.00 104.00 C 223.57 104.42 232.55 103.90 242.00 104.00 C 251.45 104.10 259.49 104.20 269.00 104.00 C 278.51 103.80 287.23 104.58 297.00 104.00 C 306.77 103.42 314.67 105.36 325.00 104.00 C 335.33 102.64 334.59 112.63 336.00 121.00
M 345.00 182.00 
C 345.32 184.10 345.88 185.83 346.00 188.00
C 286.00 188.00 226.00 188.00 166.00 188.00
C 165.48 185.77 167.54 184.27 167.00 182.00
C 168.85 169.90 167.53 158.17 176.23 149.23 C 184.93 140.29 193.05 143.26 202.08 151.92 C 211.11 160.58 220.71 149.72 229.23 144.23 C 237.75 138.74 246.95 155.75 256.03 155.98 C 265.10 156.20 273.63 138.92 282.23 143.77 C 290.83 148.62 300.00 160.61 309.25 152.25 C 318.49 143.88 326.16 140.04 335.25 148.75 C 344.34 157.47 343.13 169.78 345.00 182.00 Z"/>
</g>
<g fill="#FA9481" fill-opacity="1.00" stroke="None">
<path d="
M 204.00 40.00 
C 209.67 37.35 218.72 41.28 225.00 40.00 C 231.28 38.72 239.60 40.77 246.00 40.00 C 252.40 39.23 260.87 40.78 267.00 40.00 C 273.13 39.22 282.72 41.30 288.00 40.00 C 293.28 38.70 305.40 43.16 308.00 39.00
C 307.76 36.52 306.26 34.44 306.00 32.00
C 272.67 32.00 239.33 32.00 206.00 32.00
C 204.89 34.49 204.93 37.53 204.00 40.00 Z"/>
</g>
<g fill="#FB775D" fill-opacity="1.00" stroke="None">
<path d="
M 204.00 40.00 
C 196.71 55.23 190.94 71.96 185.00 88.00
C 232.33 88.00 279.67 88.00 327.00 88.00
C 321.67 71.35 313.96 55.14 308.00 39.00
C 305.40 43.16 293.28 38.70 288.00 40.00 C 282.72 41.30 273.13 39.22 267.00 40.00 C 260.87 40.78 252.40 39.23 246.00 40.00 C 239.60 40.77 231.28 38.72 225.00 40.00 C 218.72 41.28 209.67 37.35 204.00 40.00 Z"/>
</g>
<g fill="#FBE3A8" fill-opacity="1.00" stroke="None">
<path d="
M 176.00 121.00 
C 175.88 121.30 181.09 115.58 179.00 112.00
C 230.33 112.00 281.67 112.00 333.00 112.00
C 333.60 114.58 332.58 122.48 336.00 121.00
C 334.59 112.63 335.33 102.64 325.00 104.00 C 314.67 105.36 306.77 103.42 297.00 104.00 C 287.23 104.58 278.51 103.80 269.00 104.00 C 259.49 104.20 251.45 104.10 242.00 104.00 C 232.55 103.90 223.57 104.42 214.00 104.00 C 204.43 103.58 195.85 105.02 186.00 104.00 C 176.15 102.98 177.30 113.29 176.00 121.00 Z"/>
</g>
<g fill="#FCD980" fill-opacity="0.99" stroke="None">
<path d="
M 176.00 121.00 
C 176.43 124.23 174.30 126.73 175.00 130.00
C 184.54 121.55 193.84 125.01 202.75 133.25 C 211.67 141.49 219.55 131.89 228.77 125.77 C 237.99 119.65 247.47 137.80 255.92 137.92 C 264.38 138.04 274.10 119.54 283.30 125.70 C 292.51 131.85 300.36 141.57 309.30 133.30 C 318.25 125.03 327.43 121.51 337.00 130.00
C 336.96 126.84 336.51 124.03 336.00 121.00
C 332.58 122.48 333.60 114.58 333.00 112.00
C 281.67 112.00 230.33 112.00 179.00 112.00
C 181.09 115.58 175.88 121.30 176.00 121.00 Z"/>
</g>
<g fill="#FDDA7F" fill-opacity="1.00" stroke="None">
<path d="
M 167.00 182.00 
C 171.23 175.73 186.99 181.44 195.00 180.00 C 203.01 178.56 215.93 180.51 225.00 180.00 C 234.07 179.49 246.68 179.99 256.00 180.00 C 265.32 180.01 277.00 179.41 286.00 180.00 C 295.00 180.59 307.99 178.45 316.00 180.00 C 324.01 181.55 340.71 175.65 345.00 182.00
C 343.13 169.78 344.34 157.47 335.25 148.75 C 326.16 140.04 318.49 143.88 309.25 152.25 C 300.00 160.61 290.83 148.62 282.23 143.77 C 273.63 138.92 265.10 156.20 256.03 155.98 C 246.95 155.75 237.75 138.74 229.23 144.23 C 220.71 149.72 211.11 160.58 202.08 151.92 C 193.05 143.26 184.93 140.29 176.23 149.23 C 167.53 158.17 168.85 169.90 167.00 182.00 Z"/>
</g>
<g fill="#D9B96D" fill-opacity="1.00" stroke="None">
<path d="
M 167.00 182.00 
C 167.54 184.27 165.48 185.77 166.00 188.00
C 226.00 188.00 286.00 188.00 346.00 188.00
C 345.88 185.83 345.32 184.10 345.00 182.00
C 340.71 175.65 324.01 181.55 316.00 180.00 C 307.99 178.45 295.00 180.59 286.00 180.00 C 277.00 179.41 265.32 180.01 256.00 180.00 C 246.68 179.99 234.07 179.49 225.00 180.00 C 215.93 180.51 203.01 178.56 195.00 180.00 C 186.99 181.44 171.23 175.73 167.00 182.00 Z"/>
</g>
<g fill="#FA9582" fill-opacity="1.00" stroke="None">
<path d="
M 164.00 212.00 
C 225.33 212.00 286.67 212.00 348.00 212.00
C 348.00 209.33 348.00 206.67 348.00 204.00
C 286.67 204.00 225.33 204.00 164.00 204.00
C 164.00 206.67 164.00 209.33 164.00 212.00 Z"/>
</g>
<g fill="#FC775D" fill-opacity="0.98" stroke="None">
<path d="
M 164.00 252.00 
C 168.78 254.15 173.13 259.01 177.00 262.00
C 183.66 247.54 208.35 247.54 215.00 262.00
C 224.93 248.07 247.08 248.05 257.00 262.00
C 263.66 247.54 288.35 247.54 295.00 262.00
C 303.87 249.49 327.27 246.13 335.00 262.00
C 338.98 259.28 343.02 253.86 348.00 252.00
C 350.36 246.54 347.12 238.04 348.00 232.00 C 348.88 225.96 348.00 218.20 348.00 212.00
C 286.67 212.00 225.33 212.00 164.00 212.00
C 164.00 218.20 163.12 225.96 164.00 232.00 C 164.88 238.04 161.64 246.54 164.00 252.00 Z"/>
</g>
<g fill="#2D4356" fill-opacity="0.99" stroke="None">
<path d="
M 0.00 288.00 
L 0.00 296.00
C 6.24 303.81 18.95 298.39 28.00 300.00
C 28.00 305.33 28.00 310.67 28.00 316.00
C 15.56 313.45 3.82 322.01 0.00 333.00
L 0.00 407.00
C 5.06 424.17 24.37 425.81 40.00 424.00
C 41.73 467.73 79.87 506.00 122.00 512.00
L 150.00 512.00
C 192.24 505.97 230.16 467.71 232.00 424.00
C 248.00 424.00 264.00 424.00 280.00 424.00
C 281.73 467.73 319.87 505.99 362.00 512.00
L 390.00 512.00
C 432.24 505.97 470.16 467.71 472.00 424.00
C 487.62 425.85 507.00 424.10 512.00 407.00
L 512.00 333.00
C 508.13 321.92 496.45 313.49 484.00 316.00
C 484.00 310.67 484.00 305.33 484.00 300.00
C 493.07 298.41 505.79 303.79 512.00 296.00
L 512.00 288.00
C 505.79 280.21 493.07 285.59 484.00 284.00
C 484.16 277.02 485.86 266.02 476.01 266.01 C 466.16 266.00 467.82 277.02 468.00 284.00
C 460.00 284.00 452.00 284.00 444.00 284.00
C 444.16 277.02 445.86 266.02 436.01 266.01 C 426.16 266.00 427.82 277.02 428.00 284.00
C 420.00 284.00 412.00 284.00 404.00 284.00
C 404.16 277.02 405.86 266.02 396.01 266.01 C 386.16 266.00 387.82 277.02 388.00 284.00
C 380.00 284.00 372.00 284.00 364.00 284.00
C 364.16 277.02 365.86 266.02 356.01 266.01 C 346.16 266.00 347.82 277.02 348.00 284.00
C 340.00 284.00 332.00 284.00 324.00 284.00
C 324.16 277.02 325.86 266.02 316.01 266.01 C 306.16 266.00 307.82 277.02 308.00 284.00
C 300.00 284.00 292.00 284.00 284.00 284.00
C 284.16 277.02 285.86 266.02 276.01 266.01 C 266.16 266.00 267.82 277.02 268.00 284.00
C 260.00 284.00 252.00 284.00 244.00 284.00
C 244.16 277.02 245.86 266.02 236.01 266.01 C 226.16 266.00 227.82 277.02 228.00 284.00
C 220.00 284.00 212.00 284.00 204.00 284.00
C 204.16 277.02 205.86 266.02 196.01 266.01 C 186.16 266.00 187.82 277.02 188.00 284.00
C 180.00 284.00 172.00 284.00 164.00 284.00
C 164.16 277.02 165.86 266.02 156.01 266.01 C 146.16 266.00 147.82 277.02 148.00 284.00
C 140.00 284.00 132.00 284.00 124.00 284.00
C 124.16 277.02 125.86 266.02 116.01 266.01 C 106.16 266.00 107.82 277.02 108.00 284.00
C 100.00 284.00 92.00 284.00 84.00 284.00
C 84.16 277.02 85.86 266.02 76.01 266.01 C 66.16 266.00 67.82 277.02 68.00 284.00
C 60.00 284.00 52.00 284.00 44.00 284.00
C 44.16 277.02 45.86 266.02 36.01 266.01 C 26.16 266.00 27.82 277.02 28.00 284.00
C 18.95 285.61 6.24 280.19 0.00 288.00
M 68.00 300.00 
C 68.00 305.33 68.00 310.67 68.00 316.00
C 60.00 316.00 52.00 316.00 44.00 316.00
C 44.00 310.67 44.00 305.33 44.00 300.00
C 52.00 300.00 60.00 300.00 68.00 300.00
M 108.00 300.00 
C 108.00 305.33 108.00 310.67 108.00 316.00
C 100.00 316.00 92.00 316.00 84.00 316.00
C 84.00 310.67 84.00 305.33 84.00 300.00
C 92.00 300.00 100.00 300.00 108.00 300.00
M 148.00 300.00 
C 148.00 305.33 148.00 310.67 148.00 316.00
C 140.00 316.00 132.00 316.00 124.00 316.00
C 124.00 310.67 124.00 305.33 124.00 300.00
C 132.00 300.00 140.00 300.00 148.00 300.00
M 188.00 300.00 
C 188.00 305.33 188.00 310.67 188.00 316.00
C 180.00 316.00 172.00 316.00 164.00 316.00
C 164.00 310.67 164.00 305.33 164.00 300.00
C 172.00 300.00 180.00 300.00 188.00 300.00
M 228.00 300.00 
C 228.00 305.33 228.00 310.67 228.00 316.00
C 220.00 316.00 212.00 316.00 204.00 316.00
C 204.00 310.67 204.00 305.33 204.00 300.00
C 212.00 300.00 220.00 300.00 228.00 300.00
M 268.00 300.00 
C 268.00 305.33 268.00 310.67 268.00 316.00
C 260.00 316.00 252.00 316.00 244.00 316.00
C 244.00 310.67 244.00 305.33 244.00 300.00
C 252.00 300.00 260.00 300.00 268.00 300.00
M 308.00 300.00 
C 308.00 305.33 308.00 310.67 308.00 316.00
C 300.00 316.00 292.00 316.00 284.00 316.00
C 284.00 310.67 284.00 305.33 284.00 300.00
C 292.00 300.00 300.00 300.00 308.00 300.00
M 348.00 300.00 
C 348.00 305.33 348.00 310.67 348.00 316.00
C 340.00 316.00 332.00 316.00 324.00 316.00
C 324.00 310.67 324.00 305.33 324.00 300.00
C 332.00 300.00 340.00 300.00 348.00 300.00
M 388.00 300.00 
C 388.00 305.33 388.00 310.67 388.00 316.00
C 380.00 316.00 372.00 316.00 364.00 316.00
C 364.00 310.67 364.00 305.33 364.00 300.00
C 372.00 300.00 380.00 300.00 388.00 300.00
M 428.00 300.00 
C 428.00 305.33 428.00 310.67 428.00 316.00
C 420.00 316.00 412.00 316.00 404.00 316.00
C 404.00 310.67 404.00 305.33 404.00 300.00
C 412.00 300.00 420.00 300.00 428.00 300.00
M 468.00 300.00 
C 468.00 305.33 468.00 310.67 468.00 316.00
C 460.00 316.00 452.00 316.00 444.00 316.00
C 444.00 310.67 444.00 305.33 444.00 300.00
C 452.00 300.00 460.00 300.00 468.00 300.00
M 496.00 345.00 
C 496.00 355.33 496.00 365.67 496.00 376.00
C 336.00 376.00 176.00 376.00 16.00 376.00
C 16.00 365.67 16.00 355.33 16.00 345.00
C 16.00 323.91 42.50 333.34 59.00 332.00 C 75.50 330.66 97.31 332.59 115.00 332.00 C 132.69 331.41 152.77 332.25 171.00 332.00 C 189.23 331.75 208.52 332.06 227.00 332.00 C 245.48 331.94 265.52 331.92 284.00 332.00 C 302.48 332.08 321.77 331.73 340.00 332.00 C 358.23 332.27 378.31 331.36 396.00 332.00 C 413.69 332.64 435.49 330.55 452.00 332.00 C 468.51 333.45 496.00 323.69 496.00 345.00
M 496.00 395.00 
C 501.68 412.49 474.91 408.00 463.00 408.00 C 451.09 408.00 430.78 408.00 417.00 408.00 C 403.22 408.00 385.62 408.00 371.00 408.00 C 356.38 408.00 339.99 408.00 325.00 408.00 C 310.01 408.00 294.13 408.00 279.00 408.00 C 263.87 408.00 248.13 408.00 233.00 408.00 C 217.87 408.00 201.99 408.00 187.00 408.00 C 172.01 408.00 155.62 408.00 141.00 408.00 C 126.38 408.00 108.78 408.00 95.00 408.00 C 81.22 408.00 60.91 408.00 49.00 408.00 C 37.09 408.00 10.32 412.50 16.00 395.00
C 16.29 394.10 15.77 392.92 16.00 392.00
C 176.00 392.00 336.00 392.00 496.00 392.00
C 496.00 393.00 496.00 394.00 496.00 395.00
M 103.00 429.00 
C 103.87 430.78 106.20 432.55 106.00 435.00
C 97.68 442.62 88.52 451.69 80.75 459.75 C 72.98 467.81 73.09 465.31 68.70 459.30 C 64.31 453.30 62.62 448.90 60.22 442.78 C 57.83 436.66 55.47 427.93 58.00 424.00
C 64.19 421.34 73.26 425.39 80.00 424.00 C 86.74 422.61 95.11 425.04 102.00 424.00
C 101.95 425.76 103.53 427.07 103.00 429.00
M 153.00 424.00 
C 148.94 438.90 123.06 438.90 119.00 424.00
C 130.33 424.00 141.67 424.00 153.00 424.00
M 169.00 429.00 
C 169.65 427.68 169.25 425.40 170.00 424.00
C 184.67 424.00 199.33 424.00 214.00 424.00
C 217.74 425.61 213.53 437.55 211.68 442.68 C 209.82 447.81 207.48 453.66 203.25 459.25 C 199.01 464.84 199.01 467.89 191.25 459.75 C 183.48 451.62 174.26 442.62 166.00 435.00
C 166.40 432.89 167.38 430.34 169.00 429.00
M 343.00 429.00 
C 343.87 430.78 346.20 432.55 346.00 435.00
C 337.68 442.62 328.52 451.69 320.75 459.75 C 312.98 467.81 313.08 465.31 308.70 459.30 C 304.31 453.30 302.62 448.90 300.22 442.78 C 297.83 436.66 295.47 427.93 298.00 424.00
C 304.19 421.34 313.26 425.39 320.00 424.00 C 326.74 422.61 335.11 425.04 342.00 424.00
C 341.95 425.76 343.53 427.07 343.00 429.00
M 393.00 424.00 
C 388.94 438.90 363.06 438.90 359.00 424.00
C 370.33 424.00 381.67 424.00 393.00 424.00
M 409.00 429.00 
C 409.65 427.68 409.25 425.40 410.00 424.00
C 424.67 424.00 439.33 424.00 454.00 424.00
C 457.74 425.61 453.53 437.55 451.68 442.68 C 449.82 447.81 447.48 453.66 443.25 459.25 C 439.01 464.84 439.01 467.89 431.25 459.75 C 423.48 451.62 414.26 442.62 406.00 435.00
C 406.40 432.89 407.38 430.34 409.00 429.00
M 128.00 487.00 
C 128.00 490.00 128.00 493.00 128.00 496.00
C 112.93 493.80 97.20 488.75 86.00 478.00
C 85.13 475.29 96.67 465.02 100.25 462.25 C 103.82 459.47 112.26 446.73 117.00 446.00
C 120.63 445.44 124.15 450.63 128.00 450.00
C 128.00 462.33 128.00 474.67 128.00 487.00
M 186.00 478.00 
C 183.91 484.55 173.06 485.83 167.77 489.77 C 162.48 493.71 150.40 494.16 144.00 496.00
C 144.00 493.00 144.00 490.00 144.00 487.00
C 144.00 474.67 144.00 462.33 144.00 450.00
C 147.97 449.61 151.14 446.78 155.00 446.00
C 159.68 446.72 167.78 458.88 171.25 461.75 C 174.71 464.62 186.88 475.25 186.00 478.00
M 368.00 487.00 
C 368.00 490.00 368.00 493.00 368.00 496.00
C 352.93 493.80 337.20 488.75 326.00 478.00
C 325.13 475.29 336.67 465.02 340.25 462.25 C 343.82 459.47 352.26 446.73 357.00 446.00
C 360.63 445.44 364.16 450.62 368.00 450.00
C 368.00 462.33 368.00 474.67 368.00 487.00
M 426.00 478.00 
C 423.91 484.55 413.06 485.84 407.77 489.77 C 402.48 493.71 390.40 494.16 384.00 496.00
C 384.00 493.00 384.00 490.00 384.00 487.00
C 384.00 474.67 384.00 462.33 384.00 450.00
C 387.97 449.61 391.14 446.78 395.00 446.00
C 399.68 446.72 407.78 458.88 411.25 461.75 C 414.71 464.62 426.88 475.25 426.00 478.00 Z"/>
</g>
<g fill="#000000" fill-opacity="0.00" stroke="None">
<path d="
M 0.00 333.00 
C 3.82 322.01 15.56 313.45 28.00 316.00
C 28.00 310.67 28.00 305.33 28.00 300.00
C 18.95 298.39 6.24 303.81 0.00 296.00
L 0.00 333.00 Z"/>
</g>
<g fill="#000000" fill-opacity="0.00" stroke="None">
<path d="
M 512.00 333.00 
L 512.00 296.00
C 505.79 303.79 493.07 298.41 484.00 300.00
C 484.00 305.33 484.00 310.67 484.00 316.00
C 496.45 313.49 508.13 321.92 512.00 333.00 Z"/>
</g>
<g fill="#000000" fill-opacity="0.00" stroke="None">
<path d="
M 68.00 300.00 
C 60.00 300.00 52.00 300.00 44.00 300.00
C 44.00 305.33 44.00 310.67 44.00 316.00
C 52.00 316.00 60.00 316.00 68.00 316.00
C 68.00 310.67 68.00 305.33 68.00 300.00 Z"/>
</g>
<g fill="#000000" fill-opacity="0.00" stroke="None">
<path d="
M 108.00 300.00 
C 100.00 300.00 92.00 300.00 84.00 300.00
C 84.00 305.33 84.00 310.67 84.00 316.00
C 92.00 316.00 100.00 316.00 108.00 316.00
C 108.00 310.67 108.00 305.33 108.00 300.00 Z"/>
</g>
<g fill="#000000" fill-opacity="0.00" stroke="None">
<path d="
M 148.00 300.00 
C 140.00 300.00 132.00 300.00 124.00 300.00
C 124.00 305.33 124.00 310.67 124.00 316.00
C 132.00 316.00 140.00 316.00 148.00 316.00
C 148.00 310.67 148.00 305.33 148.00 300.00 Z"/>
</g>
<g fill="#000000" fill-opacity="0.00" stroke="None">
<path d="
M 188.00 300.00 
C 180.00 300.00 172.00 300.00 164.00 300.00
C 164.00 305.33 164.00 310.67 164.00 316.00
C 172.00 316.00 180.00 316.00 188.00 316.00
C 188.00 310.67 188.00 305.33 188.00 300.00 Z"/>
</g>
<g fill="#000000" fill-opacity="0.00" stroke="None">
<path d="
M 228.00 300.00 
C 220.00 300.00 212.00 300.00 204.00 300.00
C 204.00 305.33 204.00 310.67 204.00 316.00
C 212.00 316.00 220.00 316.00 228.00 316.00
C 228.00 310.67 228.00 305.33 228.00 300.00 Z"/>
</g>
<g fill="#000000" fill-opacity="0.00" stroke="None">
<path d="
M 268.00 300.00 
C 260.00 300.00 252.00 300.00 244.00 300.00
C 244.00 305.33 244.00 310.67 244.00 316.00
C 252.00 316.00 260.00 316.00 268.00 316.00
C 268.00 310.67 268.00 305.33 268.00 300.00 Z"/>
</g>
<g fill="#000000" fill-opacity="0.00" stroke="None">
<path d="
M 308.00 300.00 
C 300.00 300.00 292.00 300.00 284.00 300.00
C 284.00 305.33 284.00 310.67 284.00 316.00
C 292.00 316.00 300.00 316.00 308.00 316.00
C 308.00 310.67 308.00 305.33 308.00 300.00 Z"/>
</g>
<g fill="#000000" fill-opacity="0.00" stroke="None">
<path d="
M 348.00 300.00 
C 340.00 300.00 332.00 300.00 324.00 300.00
C 324.00 305.33 324.00 310.67 324.00 316.00
C 332.00 316.00 340.00 316.00 348.00 316.00
C 348.00 310.67 348.00 305.33 348.00 300.00 Z"/>
</g>
<g fill="#000000" fill-opacity="0.00" stroke="None">
<path d="
M 388.00 300.00 
C 380.00 300.00 372.00 300.00 364.00 300.00
C 364.00 305.33 364.00 310.67 364.00 316.00
C 372.00 316.00 380.00 316.00 388.00 316.00
C 388.00 310.67 388.00 305.33 388.00 300.00 Z"/>
</g>
<g fill="#000000" fill-opacity="0.00" stroke="None">
<path d="
M 428.00 300.00 
C 420.00 300.00 412.00 300.00 404.00 300.00
C 404.00 305.33 404.00 310.67 404.00 316.00
C 412.00 316.00 420.00 316.00 428.00 316.00
C 428.00 310.67 428.00 305.33 428.00 300.00 Z"/>
</g>
<g fill="#000000" fill-opacity="0.00" stroke="None">
<path d="
M 468.00 300.00 
C 460.00 300.00 452.00 300.00 444.00 300.00
C 444.00 305.33 444.00 310.67 444.00 316.00
C 452.00 316.00 460.00 316.00 468.00 316.00
C 468.00 310.67 468.00 305.33 468.00 300.00 Z"/>
</g>
<g fill="#D99C72" fill-opacity="1.00" stroke="None">
<path d="
M 16.00 345.00 
C 18.99 335.15 36.94 341.24 46.00 340.00 C 55.06 338.76 70.51 340.56 81.00 340.00 C 91.49 339.44 104.87 340.25 116.00 340.00 C 127.13 339.75 139.58 340.11 151.00 340.00 C 162.42 339.89 174.45 340.05 186.00 340.00 C 197.55 339.95 209.39 340.02 221.00 340.00 C 232.61 339.98 244.38 340.00 256.00 340.00 C 267.62 340.00 279.39 339.98 291.00 340.00 C 302.61 340.02 314.45 339.95 326.00 340.00 C 337.55 340.05 349.57 339.89 361.00 340.00 C 372.43 340.11 384.86 339.75 396.00 340.00 C 407.14 340.25 420.50 339.45 431.00 340.00 C 441.50 340.55 456.92 338.78 466.00 340.00 C 475.08 341.22 493.02 335.19 496.00 345.00
C 496.00 323.69 468.51 333.45 452.00 332.00 C 435.49 330.55 413.69 332.64 396.00 332.00 C 378.31 331.36 358.23 332.27 340.00 332.00 C 321.77 331.73 302.48 332.08 284.00 332.00 C 265.52 331.92 245.48 331.94 227.00 332.00 C 208.52 332.06 189.23 331.75 171.00 332.00 C 152.77 332.25 132.69 331.41 115.00 332.00 C 97.31 332.59 75.50 330.66 59.00 332.00 C 42.50 333.34 16.00 323.91 16.00 345.00 Z"/>
</g>
<g fill="#D68751" fill-opacity="1.00" stroke="None">
<path d="
M 16.00 345.00 
C 16.00 355.33 16.00 365.67 16.00 376.00
C 176.00 376.00 336.00 376.00 496.00 376.00
C 496.00 365.67 496.00 355.33 496.00 345.00
C 493.02 335.19 475.08 341.22 466.00 340.00 C 456.92 338.78 441.50 340.55 431.00 340.00 C 420.50 339.45 407.14 340.25 396.00 340.00 C 384.86 339.75 372.43 340.11 361.00 340.00 C 349.57 339.89 337.55 340.05 326.00 340.00 C 314.45 339.95 302.61 340.02 291.00 340.00 C 279.39 339.98 267.62 340.00 256.00 340.00 C 244.38 340.00 232.61 339.98 221.00 340.00 C 209.39 340.02 197.55 339.95 186.00 340.00 C 174.45 340.05 162.42 339.89 151.00 340.00 C 139.58 340.11 127.13 339.75 116.00 340.00 C 104.87 340.25 91.49 339.44 81.00 340.00 C 70.51 340.56 55.06 338.76 46.00 340.00 C 36.94 341.24 18.99 335.15 16.00 345.00 Z"/>
</g>
<g fill="#E0EAF3" fill-opacity="1.00" stroke="None">
<path d="
M 16.00 395.00 
C 15.84 401.78 29.28 399.92 35.00 400.00 C 40.72 400.08 52.97 399.96 60.00 400.00 C 67.03 400.04 76.32 399.98 84.00 400.00 C 91.68 400.02 101.06 399.99 109.00 400.00 C 116.94 400.01 124.92 400.00 133.00 400.00 C 141.08 400.00 149.87 400.00 158.00 400.00 C 166.13 400.00 173.84 400.00 182.00 400.00 C 190.16 400.00 198.83 400.00 207.00 400.00 C 215.17 400.00 222.83 400.00 231.00 400.00 C 239.17 400.00 247.83 400.00 256.00 400.00 C 264.17 400.00 271.83 400.00 280.00 400.00 C 288.17 400.00 296.83 400.00 305.00 400.00 C 313.17 400.00 320.85 400.00 329.00 400.00 C 337.15 400.00 345.87 400.00 354.00 400.00 C 362.13 400.00 369.93 400.01 378.00 400.00 C 386.07 399.99 395.06 400.01 403.00 400.00 C 410.94 399.99 419.36 400.03 427.00 400.00 C 434.64 399.97 444.97 400.06 452.00 400.00 C 459.03 399.94 470.46 400.15 476.00 400.00 C 481.54 399.85 496.16 401.98 496.00 395.00
C 496.00 394.00 496.00 393.00 496.00 392.00
C 336.00 392.00 176.00 392.00 16.00 392.00
C 15.77 392.92 16.29 394.10 16.00 395.00 Z"/>
</g>
<g fill="#BFC7CE" fill-opacity="1.00" stroke="None">
<path d="
M 496.00 395.00 
C 496.16 401.98 481.54 399.85 476.00 400.00 C 470.46 400.15 459.03 399.94 452.00 400.00 C 444.97 400.06 434.64 399.97 427.00 400.00 C 419.36 400.03 410.94 399.99 403.00 400.00 C 395.06 400.01 386.07 399.99 378.00 400.00 C 369.93 400.01 362.13 400.00 354.00 400.00 C 345.87 400.00 337.15 400.00 329.00 400.00 C 320.85 400.00 313.17 400.00 305.00 400.00 C 296.83 400.00 288.17 400.00 280.00 400.00 C 271.83 400.00 264.17 400.00 256.00 400.00 C 247.83 400.00 239.17 400.00 231.00 400.00 C 222.83 400.00 215.17 400.00 207.00 400.00 C 198.83 400.00 190.16 400.00 182.00 400.00 C 173.84 400.00 166.13 400.00 158.00 400.00 C 149.87 400.00 141.08 400.00 133.00 400.00 C 124.92 400.00 116.94 400.01 109.00 400.00 C 101.06 399.99 91.68 400.02 84.00 400.00 C 76.32 399.98 67.03 400.04 60.00 400.00 C 52.97 399.96 40.72 400.08 35.00 400.00 C 29.28 399.92 15.84 401.78 16.00 395.00
C 10.32 412.50 37.09 408.00 49.00 408.00 C 60.91 408.00 81.22 408.00 95.00 408.00 C 108.78 408.00 126.38 408.00 141.00 408.00 C 155.62 408.00 172.01 408.00 187.00 408.00 C 201.99 408.00 217.87 408.00 233.00 408.00 C 248.13 408.00 263.87 408.00 279.00 408.00 C 294.13 408.00 310.01 408.00 325.00 408.00 C 339.99 408.00 356.38 408.00 371.00 408.00 C 385.62 408.00 403.22 408.00 417.00 408.00 C 430.78 408.00 451.09 408.00 463.00 408.00 C 474.91 408.00 501.68 412.49 496.00 395.00 Z"/>
</g>
<g fill="#000000" fill-opacity="0.00" stroke="None">
<path d="
M 0.00 512.00 
L 122.00 512.00
C 79.87 506.00 41.73 467.73 40.00 424.00
C 24.37 425.81 5.06 424.17 0.00 407.00
L 0.00 512.00 Z"/>
</g>
<g fill="#000000" fill-opacity="0.00" stroke="None">
<path d="
M 390.00 512.00 
L 512.00 512.00
L 512.00 407.00
C 507.00 424.10 487.62 425.85 472.00 424.00
C 470.16 467.71 432.24 505.97 390.00 512.00 Z"/>
</g>
<g fill="#D8B96E" fill-opacity="0.98" stroke="None">
<path d="
M 103.00 429.00 
C 102.10 434.70 91.99 438.76 88.75 443.75 C 85.52 448.75 77.58 454.78 73.00 458.00
C 66.37 447.66 59.53 436.58 58.00 424.00
C 55.47 427.93 57.83 436.66 60.22 442.78 C 62.62 448.90 64.31 453.30 68.70 459.30 C 73.09 465.31 72.98 467.81 80.75 459.75 C 88.52 451.69 97.68 442.62 106.00 435.00
C 106.20 432.55 103.87 430.78 103.00 429.00 Z"/>
</g>
<g fill="#FEDA7F" fill-opacity="1.00" stroke="None">
<path d="
M 103.00 429.00 
C 103.53 427.07 101.95 425.76 102.00 424.00
C 95.11 425.04 86.74 422.61 80.00 424.00 C 73.26 425.39 64.19 421.34 58.00 424.00
C 59.53 436.58 66.37 447.66 73.00 458.00
C 77.58 454.78 85.52 448.75 88.75 443.75 C 91.99 438.76 102.10 434.70 103.00 429.00 Z"/>
</g>
<g fill="#D38651" fill-opacity="0.98" stroke="None">
<path d="
M 153.00 424.00 
C 141.67 424.00 130.33 424.00 119.00 424.00
C 123.06 438.90 148.94 438.90 153.00 424.00 Z"/>
</g>
<g fill="#FEDA7F" fill-opacity="1.00" stroke="None">
<path d="
M 169.00 429.00 
C 169.90 434.70 180.01 438.76 183.25 443.75 C 186.48 448.75 194.42 454.78 199.00 458.00
C 205.55 447.58 212.40 436.60 214.00 424.00
C 199.33 424.00 184.67 424.00 170.00 424.00
C 169.25 425.40 169.65 427.68 169.00 429.00 Z"/>
</g>
<g fill="#D8B96E" fill-opacity="0.98" stroke="None">
<path d="
M 169.00 429.00 
C 167.38 430.34 166.40 432.89 166.00 435.00
C 174.26 442.62 183.48 451.62 191.25 459.75 C 199.01 467.89 199.01 464.84 203.25 459.25 C 207.48 453.66 209.82 447.81 211.68 442.68 C 213.53 437.55 217.74 425.61 214.00 424.00
C 212.40 436.60 205.55 447.58 199.00 458.00
C 194.42 454.78 186.48 448.75 183.25 443.75 C 180.01 438.76 169.90 434.70 169.00 429.00 Z"/>
</g>
<g fill="#000000" fill-opacity="0.00" stroke="None">
<path d="
M 150.00 512.00 
L 362.00 512.00
C 319.87 505.99 281.73 467.73 280.00 424.00
C 264.00 424.00 248.00 424.00 232.00 424.00
C 230.16 467.71 192.24 505.97 150.00 512.00 Z"/>
</g>
<g fill="#D8B96E" fill-opacity="0.98" stroke="None">
<path d="
M 343.00 429.00 
C 342.10 434.70 331.99 438.75 328.75 443.75 C 325.52 448.75 317.59 454.78 313.00 458.00
C 306.37 447.66 299.53 436.58 298.00 424.00
C 295.47 427.93 297.83 436.66 300.22 442.78 C 302.62 448.90 304.31 453.30 308.70 459.30 C 313.08 465.31 312.98 467.81 320.75 459.75 C 328.52 451.69 337.68 442.62 346.00 435.00
C 346.20 432.55 343.87 430.78 343.00 429.00 Z"/>
</g>
<g fill="#FEDA7F" fill-opacity="1.00" stroke="None">
<path d="
M 343.00 429.00 
C 343.53 427.07 341.95 425.76 342.00 424.00
C 335.11 425.04 326.74 422.61 320.00 424.00 C 313.26 425.39 304.19 421.34 298.00 424.00
C 299.53 436.58 306.37 447.66 313.00 458.00
C 317.59 454.78 325.52 448.75 328.75 443.75 C 331.99 438.75 342.10 434.70 343.00 429.00 Z"/>
</g>
<g fill="#D38651" fill-opacity="0.98" stroke="None">
<path d="
M 393.00 424.00 
C 381.67 424.00 370.33 424.00 359.00 424.00
C 363.06 438.90 388.94 438.90 393.00 424.00 Z"/>
</g>
<g fill="#FEDA7F" fill-opacity="1.00" stroke="None">
<path d="
M 409.00 429.00 
C 409.90 434.70 420.01 438.75 423.25 443.75 C 426.48 448.75 434.42 454.78 439.00 458.00
C 445.55 447.58 452.40 436.60 454.00 424.00
C 439.33 424.00 424.67 424.00 410.00 424.00
C 409.25 425.40 409.65 427.68 409.00 429.00 Z"/>
</g>
<g fill="#D8B96E" fill-opacity="0.98" stroke="None">
<path d="
M 409.00 429.00 
C 407.38 430.34 406.40 432.89 406.00 435.00
C 414.26 442.62 423.48 451.62 431.25 459.75 C 439.01 467.89 439.01 464.84 443.25 459.25 C 447.48 453.66 449.82 447.81 451.68 442.68 C 453.53 437.55 457.74 425.61 454.00 424.00
C 452.40 436.60 445.55 447.58 439.00 458.00
C 434.42 454.78 426.48 448.75 423.25 443.75 C 420.01 438.75 409.90 434.70 409.00 429.00 Z"/>
</g>
<g fill="#686D61" fill-opacity="0.82" stroke="None">
<path d="
M 86.00 478.00 
C 85.95 476.36 89.14 474.86 90.00 474.00
C 99.08 464.92 108.15 455.22 117.00 446.00
C 112.26 446.73 103.82 459.47 100.25 462.25 C 96.67 465.02 85.13 475.29 86.00 478.00 Z"/>
</g>
<g fill="#FEDA7F" fill-opacity="1.00" stroke="None">
<path d="
M 90.00 474.00 
C 95.55 473.39 100.33 482.09 106.68 482.32 C 113.03 482.56 120.79 488.89 128.00 487.00
C 128.00 474.67 128.00 462.33 128.00 450.00
C 124.15 450.63 120.63 445.44 117.00 446.00
C 108.15 455.22 99.08 464.92 90.00 474.00 Z"/>
</g>
<g fill="#FEDA7F" fill-opacity="1.00" stroke="None">
<path d="
M 144.00 487.00 
C 150.98 488.94 158.54 482.97 164.69 482.69 C 170.84 482.42 176.45 473.43 182.00 474.00
C 172.92 464.92 163.85 455.22 155.00 446.00
C 151.14 446.78 147.97 449.61 144.00 450.00
C 144.00 462.33 144.00 474.67 144.00 487.00 Z"/>
</g>
<g fill="#6D7062" fill-opacity="0.82" stroke="None">
<path d="
M 182.00 474.00 
C 182.96 474.96 186.05 476.33 186.00 478.00
C 186.88 475.25 174.71 464.62 171.25 461.75 C 167.78 458.88 159.68 446.72 155.00 446.00
C 163.85 455.22 172.92 464.92 182.00 474.00 Z"/>
</g>
<g fill="#686D61" fill-opacity="0.82" stroke="None">
<path d="
M 326.00 478.00 
C 325.95 476.36 329.14 474.86 330.00 474.00
C 339.08 464.92 348.15 455.22 357.00 446.00
C 352.26 446.73 343.82 459.47 340.25 462.25 C 336.67 465.02 325.13 475.29 326.00 478.00 Z"/>
</g>
<g fill="#FEDA7F" fill-opacity="1.00" stroke="None">
<path d="
M 330.00 474.00 
C 335.55 473.39 340.33 482.09 346.68 482.32 C 353.03 482.56 360.79 488.89 368.00 487.00
C 368.00 474.67 368.00 462.33 368.00 450.00
C 364.16 450.62 360.63 445.44 357.00 446.00
C 348.15 455.22 339.08 464.92 330.00 474.00 Z"/>
</g>
<g fill="#FEDA7F" fill-opacity="1.00" stroke="None">
<path d="
M 384.00 487.00 
C 390.98 488.94 398.55 482.97 404.69 482.69 C 410.84 482.42 416.45 473.43 422.00 474.00
C 412.92 464.92 403.85 455.22 395.00 446.00
C 391.14 446.78 387.97 449.61 384.00 450.00
C 384.00 462.33 384.00 474.67 384.00 487.00 Z"/>
</g>
<g fill="#6D7062" fill-opacity="0.82" stroke="None">
<path d="
M 422.00 474.00 
C 422.96 474.96 426.06 476.33 426.00 478.00
C 426.88 475.25 414.71 464.62 411.25 461.75 C 407.78 458.88 399.68 446.72 395.00 446.00
C 403.85 455.22 412.92 464.92 422.00 474.00 Z"/>
</g>
<g fill="#D7B86E" fill-opacity="0.98" stroke="None">
<path d="
M 86.00 478.00 
C 97.20 488.75 112.93 493.80 128.00 496.00
C 128.00 493.00 128.00 490.00 128.00 487.00
C 120.79 488.89 113.03 482.56 106.68 482.32 C 100.33 482.09 95.55 473.39 90.00 474.00
C 89.14 474.86 85.95 476.36 86.00 478.00 Z"/>
</g>
<g fill="#D7B86E" fill-opacity="0.98" stroke="None">
<path d="
M 144.00 487.00 
C 144.00 490.00 144.00 493.00 144.00 496.00
C 150.40 494.16 162.48 493.71 167.77 489.77 C 173.06 485.83 183.91 484.55 186.00 478.00
C 186.05 476.33 182.96 474.96 182.00 474.00
C 176.45 473.43 170.84 482.42 164.69 482.69 C 158.54 482.97 150.98 488.94 144.00 487.00 Z"/>
</g>
<g fill="#D7B86E" fill-opacity="0.98" stroke="None">
<path d="
M 326.00 478.00 
C 337.20 488.75 352.93 493.80 368.00 496.00
C 368.00 493.00 368.00 490.00 368.00 487.00
C 360.79 488.89 353.03 482.56 346.68 482.32 C 340.33 482.09 335.55 473.39 330.00 474.00
C 329.14 474.86 325.95 476.36 326.00 478.00 Z"/>
</g>
<g fill="#D7B86E" fill-opacity="0.98" stroke="None">
<path d="
M 384.00 487.00 
C 384.00 490.00 384.00 493.00 384.00 496.00
C 390.40 494.16 402.48 493.71 407.77 489.77 C 413.06 485.84 423.91 484.55 426.00 478.00
C 426.06 476.33 422.96 474.96 422.00 474.00
C 416.45 473.43 410.84 482.42 404.69 482.69 C 398.55 482.97 390.98 488.94 384.00 487.00 Z"/>
</g>
</svg>