<svg xmlns="http://www.w3.org/2000/svg" xmlns:v="https://svgstorm.com"
viewBox = "0 0 512 512"
width="512"
height="512">
<g fill="None" fill-opacity="0.0" stroke="#000000" stroke-opacity="0.01" stroke-width="0.3"><path d="
M 0.00 512.00 
L 107.00 512.00
C 56.18 494.77 83.29 428.88 75.00 389.00
C 78.39 387.97 79.59 385.54 82.00 384.00
C 83.17 380.32 83.19 368.67 82.00 365.00
C 71.79 365.26 76.68 344.22 76.00 332.00 C 75.32 319.78 76.30 299.09 76.00 285.00 C 75.70 270.91 76.12 252.91 76.00 238.00 C 75.88 223.09 76.01 206.23 76.00 191.00 C 75.99 175.77 75.91 159.26 76.00 144.00 C 76.09 128.74 75.74 112.02 76.00 97.00 C 76.26 81.98 75.41 64.35 76.00 50.00 C 76.59 35.65 73.53 23.51 78.19 14.75 C 82.85 5.98 92.46 0.96 102.00 0.00
L 0.00 0.00
L 0.00 512.00 Z"/>
</g>
<g fill="None" fill-opacity="0.0" stroke="#000000" stroke-opacity="1.00" stroke-width="0.3"><path d="
M 82.00 365.00 
C 95.96 364.65 88.86 340.57 90.00 329.00 C 91.14 317.43 89.46 297.41 90.00 284.00 C 90.54 270.59 89.71 253.19 90.00 239.00 C 90.29 224.81 89.77 208.42 90.00 194.00 C 90.23 179.58 89.68 164.39 90.00 150.00 C 90.32 135.61 89.39 119.06 90.00 105.00 C 90.61 90.94 88.69 73.12 90.00 60.00 C 91.31 46.88 85.24 28.35 94.25 19.25 C 103.26 10.15 123.08 15.00 135.00 15.00
C 137.41 15.00 145.11 13.68 147.00 15.00
C 151.31 18.02 146.72 30.33 148.00 36.00 C 149.28 41.67 147.42 51.42 148.00 58.00 C 148.58 64.58 147.74 73.01 148.00 80.00 C 148.26 86.99 147.88 94.82 148.00 102.00 C 148.12 109.18 147.95 116.73 148.00 124.00 C 148.05 131.27 147.98 138.69 148.00 146.00 C 148.02 153.31 147.99 160.66 148.00 168.00 C 148.01 175.34 148.00 182.63 148.00 190.00 C 148.00 197.37 148.00 204.57 148.00 212.00 C 148.00 219.43 148.00 227.57 148.00 235.00 C 148.00 242.43 148.00 249.63 148.00 257.00 C 148.00 264.37 148.01 271.66 148.00 279.00 C 147.99 286.34 148.03 293.69 148.00 301.00 C 147.97 308.31 148.06 315.73 148.00 323.00 C 147.94 330.27 148.13 337.82 148.00 345.00 C 147.87 352.18 148.28 360.00 148.00 367.00 C 147.72 374.00 148.62 382.41 148.00 389.00 C 147.38 395.59 149.38 405.31 148.00 411.00 C 146.62 416.69 151.38 429.93 147.00 433.00
C 145.11 434.32 137.41 433.00 135.00 433.00
C 119.24 433.00 102.68 431.33 90.00 441.00
C 89.57 431.08 90.57 418.67 90.00 409.00 C 89.43 399.33 93.86 386.32 82.00 384.00
C 79.59 385.54 78.39 387.97 75.00 389.00
C 83.29 428.88 56.18 494.77 107.00 512.00
L 412.00 512.00
C 421.57 508.23 432.67 504.48 434.93 491.93 C 437.18 479.37 435.69 463.77 436.00 450.00 C 436.31 436.23 435.87 420.14 436.00 406.00 C 436.13 391.86 435.96 377.28 436.00 363.00 C 436.04 348.72 436.01 333.27 436.00 319.00 C 435.99 304.73 436.08 290.09 436.00 276.00 C 435.92 261.91 436.20 246.76 436.00 233.00 C 435.80 219.24 436.45 201.97 436.00 189.00 C 435.55 176.03 437.02 157.06 436.00 146.00 C 434.98 134.94 440.97 112.20 430.00 112.00
C 424.41 111.90 423.19 114.21 422.00 119.00
C 421.09 126.33 422.39 133.57 422.00 141.00 C 421.61 148.43 422.18 156.53 422.00 164.00 C 421.82 171.47 422.08 178.51 422.00 186.00 C 421.92 193.49 422.04 201.50 422.00 209.00 C 421.96 216.50 422.02 223.50 422.00 231.00 C 421.98 238.50 422.01 246.50 422.00 254.00 C 421.99 261.50 422.01 268.50 422.00 276.00 C 421.99 283.50 422.03 291.52 422.00 299.00 C 421.97 306.48 422.06 313.56 422.00 321.00 C 421.94 328.44 422.12 336.64 422.00 344.00 C 421.88 351.36 422.28 358.85 422.00 366.00 C 421.72 373.15 422.60 382.25 422.00 389.00 C 421.40 395.75 423.38 405.25 422.00 411.00 C 420.62 416.75 425.40 429.92 421.00 433.00
C 416.23 436.34 406.14 431.56 400.00 433.00 C 393.86 434.44 384.69 432.32 378.00 433.00 C 371.31 433.68 363.97 432.71 357.00 433.00 C 350.03 433.29 342.07 432.87 335.00 433.00 C 327.93 433.13 321.13 432.95 314.00 433.00 C 306.87 433.05 299.14 433.00 292.00 433.00 C 284.86 433.00 278.12 433.05 271.00 433.00 C 263.88 432.95 256.08 433.13 249.00 433.00 C 241.92 432.87 234.95 433.32 228.00 433.00 C 221.05 432.68 212.71 433.69 206.00 433.00 C 199.29 432.31 191.08 434.60 185.00 433.00 C 178.92 431.40 167.86 436.40 163.00 433.00
C 158.69 429.98 163.28 417.67 162.00 412.00 C 160.72 406.33 162.58 396.58 162.00 390.00 C 161.42 383.42 162.26 374.99 162.00 368.00 C 161.74 361.01 162.12 353.18 162.00 346.00 C 161.88 338.82 162.05 331.27 162.00 324.00 C 161.95 316.73 162.02 309.31 162.00 302.00 C 161.98 294.69 162.01 287.34 162.00 280.00 C 161.99 272.66 162.00 265.37 162.00 258.00 C 162.00 250.63 162.00 243.43 162.00 236.00 C 162.00 228.57 162.00 220.43 162.00 213.00 C 162.00 205.57 162.00 198.37 162.00 191.00 C 162.00 183.63 161.99 176.34 162.00 169.00 C 162.01 161.66 161.97 154.31 162.00 147.00 C 162.03 139.69 161.94 132.27 162.00 125.00 C 162.06 117.73 161.87 110.18 162.00 103.00 C 162.13 95.82 161.72 88.00 162.00 81.00 C 162.28 74.00 161.38 65.59 162.00 59.00 C 162.62 52.41 160.62 42.69 162.00 37.00 C 163.38 31.31 158.62 18.07 163.00 15.00
C 167.55 11.81 177.14 16.37 183.00 15.00 C 188.86 13.63 197.61 15.65 204.00 15.00 C 210.39 14.35 217.32 15.28 224.00 15.00 C 230.68 14.72 238.19 15.13 245.00 15.00 C 251.81 14.87 259.17 15.06 266.00 15.00 C 272.83 14.94 279.16 15.02 286.00 15.00 C 292.84 14.98 300.16 15.01 307.00 15.00 C 313.84 14.99 320.16 14.99 327.00 15.00 C 333.84 15.01 341.17 14.98 348.00 15.00 C 354.83 15.02 362.29 14.95 369.00 15.00 C 375.71 15.05 382.53 14.88 389.00 15.00 C 395.47 15.12 403.97 14.74 410.00 15.00 C 416.03 15.26 419.46 20.12 421.00 25.00
C 426.81 43.37 418.53 66.64 422.00 86.00
C 423.06 89.37 425.76 93.16 430.00 93.00
C 430.56 91.27 434.96 89.28 437.00 88.00
C 434.18 71.42 437.09 40.25 436.60 24.26 C 436.11 8.27 423.43 4.18 411.00 0.00
L 102.00 0.00
C 92.46 0.96 82.85 5.98 78.19 14.75 C 73.53 23.51 76.59 35.65 76.00 50.00 C 75.41 64.35 76.26 81.98 76.00 97.00 C 75.74 112.02 76.09 128.74 76.00 144.00 C 75.91 159.26 75.99 175.77 76.00 191.00 C 76.01 206.23 75.88 223.09 76.00 238.00 C 76.12 252.91 75.70 270.91 76.00 285.00 C 76.30 299.09 75.32 319.78 76.00 332.00 C 76.68 344.22 71.79 365.26 82.00 365.00
M 421.00 465.00 
C 416.22 468.34 406.15 463.56 400.00 465.00 C 393.85 466.44 384.70 464.32 378.00 465.00 C 371.30 465.68 364.00 464.71 357.00 465.00 C 350.00 465.29 342.14 464.87 335.00 465.00 C 327.86 465.13 320.16 464.94 313.00 465.00 C 305.84 465.06 299.17 464.98 292.00 465.00 C 284.83 465.02 277.18 465.00 270.00 465.00 C 262.82 465.00 256.18 465.02 249.00 465.00 C 241.82 464.98 234.19 465.05 227.00 465.00 C 219.81 464.95 212.11 465.12 205.00 465.00 C 197.89 464.88 190.97 465.28 184.00 465.00 C 177.03 464.72 168.71 465.60 162.00 465.00 C 155.29 464.40 147.17 465.00 148.00 473.00 C 148.83 481.00 155.44 479.90 162.00 480.00 C 168.56 480.10 177.10 479.95 184.00 480.00 C 190.90 480.05 197.92 479.98 205.00 480.00 C 212.08 480.02 219.82 479.99 227.00 480.00 C 234.18 480.01 241.82 480.00 249.00 480.00 C 256.18 480.00 262.82 480.00 270.00 480.00 C 277.18 480.00 284.81 480.00 292.00 480.00 C 299.19 480.00 305.79 480.00 313.00 480.00 C 320.21 480.00 327.75 480.00 335.00 480.00 C 342.25 480.00 349.77 480.00 357.00 480.00 C 364.23 480.00 370.76 480.00 378.00 480.00 C 385.24 480.00 392.72 480.00 400.00 480.00 C 407.28 480.00 414.70 480.00 422.00 480.00
C 418.82 506.19 388.62 495.85 367.00 497.00 C 345.38 498.15 316.65 496.71 294.00 497.00 C 271.35 497.29 243.56 497.38 221.00 497.00 C 198.44 496.62 170.36 498.33 149.00 497.00 C 127.64 495.67 100.64 505.19 92.08 480.92 C 83.51 456.66 107.89 445.04 130.00 448.00 C 152.11 450.96 178.71 446.68 202.00 448.00 C 225.29 449.32 251.15 447.38 275.00 448.00 C 298.85 448.62 323.92 447.68 348.00 448.00 C 372.08 448.32 396.86 447.76 421.00 448.00
C 423.01 449.41 422.95 463.64 421.00 465.00 Z"/>
</g>
<g fill="None" fill-opacity="0.0" stroke="#000000" stroke-opacity="0.01" stroke-width="0.3"><path d="
M 430.00 93.00 
C 428.15 98.73 431.39 106.12 430.00 112.00
C 440.97 112.20 434.98 134.94 436.00 146.00 C 437.02 157.06 435.55 176.03 436.00 189.00 C 436.45 201.97 435.80 219.24 436.00 233.00 C 436.20 246.76 435.92 261.91 436.00 276.00 C 436.08 290.09 435.99 304.73 436.00 319.00 C 436.01 333.27 436.04 348.72 436.00 363.00 C 435.96 377.28 436.13 391.86 436.00 406.00 C 435.87 420.14 436.31 436.23 436.00 450.00 C 435.69 463.77 437.18 479.37 434.93 491.93 C 432.67 504.48 421.57 508.23 412.00 512.00
L 512.00 512.00
L 512.00 0.00
L 411.00 0.00
C 423.43 4.18 436.11 8.27 436.60 24.26 C 437.09 40.25 434.18 71.42 437.00 88.00
C 434.96 89.28 430.56 91.27 430.00 93.00 Z"/>
</g>
<g fill="None" fill-opacity="0.0" stroke="#9A9A9A" stroke-opacity="1.00" stroke-width="0.3"><path d="
M 82.00 365.00 
C 83.19 368.67 83.17 380.32 82.00 384.00
C 93.86 386.32 89.43 399.33 90.00 409.00 C 90.57 418.67 89.57 431.08 90.00 441.00
C 102.68 431.33 119.24 433.00 135.00 433.00
C 135.00 293.67 135.00 154.33 135.00 15.00
C 123.08 15.00 103.26 10.15 94.25 19.25 C 85.24 28.35 91.31 46.88 90.00 60.00 C 88.69 73.12 90.61 90.94 90.00 105.00 C 89.39 119.06 90.32 135.61 90.00 150.00 C 89.68 164.39 90.23 179.58 90.00 194.00 C 89.77 208.42 90.29 224.81 90.00 239.00 C 89.71 253.19 90.54 270.59 90.00 284.00 C 89.46 297.41 91.14 317.43 90.00 329.00 C 88.86 340.57 95.96 364.65 82.00 365.00 Z"/>
</g>
<g fill="None" fill-opacity="0.0" stroke="#828282" stroke-opacity="1.00" stroke-width="0.3"><path d="
M 135.00 433.00 
C 137.41 433.00 145.11 434.32 147.00 433.00
C 147.00 293.67 147.00 154.33 147.00 15.00
C 145.11 13.68 137.41 15.00 135.00 15.00
C 135.00 154.33 135.00 293.67 135.00 433.00 Z"/>
</g>
<g fill="None" fill-opacity="0.0" stroke="#424242" stroke-opacity="1.00" stroke-width="0.3"><path d="
M 147.00 433.00 
C 151.38 429.93 146.62 416.69 148.00 411.00 C 149.38 405.31 147.38 395.59 148.00 389.00 C 148.62 382.41 147.72 374.00 148.00 367.00 C 148.28 360.00 147.87 352.18 148.00 345.00 C 148.13 337.82 147.94 330.27 148.00 323.00 C 148.06 315.73 147.97 308.31 148.00 301.00 C 148.03 293.69 147.99 286.34 148.00 279.00 C 148.01 271.66 148.00 264.37 148.00 257.00 C 148.00 249.63 148.00 242.43 148.00 235.00 C 148.00 227.57 148.00 219.43 148.00 212.00 C 148.00 204.57 148.00 197.37 148.00 190.00 C 148.00 182.63 148.01 175.34 148.00 168.00 C 147.99 160.66 148.02 153.31 148.00 146.00 C 147.98 138.69 148.05 131.27 148.00 124.00 C 147.95 116.73 148.12 109.18 148.00 102.00 C 147.88 94.82 148.26 86.99 148.00 80.00 C 147.74 73.01 148.58 64.58 148.00 58.00 C 147.42 51.42 149.28 41.67 148.00 36.00 C 146.72 30.33 151.31 18.02 147.00 15.00
C 147.00 154.33 147.00 293.67 147.00 433.00 Z"/>
</g>
<g fill="None" fill-opacity="0.0" stroke="#79561E" stroke-opacity="1.00" stroke-width="0.3"><path d="
M 163.00 433.00 
C 163.00 293.67 163.00 154.33 163.00 15.00
C 158.62 18.07 163.38 31.31 162.00 37.00 C 160.62 42.69 162.62 52.41 162.00 59.00 C 161.38 65.59 162.28 74.00 162.00 81.00 C 161.72 88.00 162.13 95.82 162.00 103.00 C 161.87 110.18 162.06 117.73 162.00 125.00 C 161.94 132.27 162.03 139.69 162.00 147.00 C 161.97 154.31 162.01 161.66 162.00 169.00 C 161.99 176.34 162.00 183.63 162.00 191.00 C 162.00 198.37 162.00 205.57 162.00 213.00 C 162.00 220.43 162.00 228.57 162.00 236.00 C 162.00 243.43 162.00 250.63 162.00 258.00 C 162.00 265.37 161.99 272.66 162.00 280.00 C 162.01 287.34 161.98 294.69 162.00 302.00 C 162.02 309.31 161.95 316.73 162.00 324.00 C 162.05 331.27 161.88 338.82 162.00 346.00 C 162.12 353.18 161.74 361.01 162.00 368.00 C 162.26 374.99 161.42 383.42 162.00 390.00 C 162.58 396.58 160.72 406.33 162.00 412.00 C 163.28 417.67 158.69 429.98 163.00 433.00 Z"/>
</g>
<g fill="None" fill-opacity="0.0" stroke="#FCB33F" stroke-opacity="1.00" stroke-width="0.3"><path d="
M 163.00 433.00 
C 167.86 436.40 178.92 431.40 185.00 433.00 C 191.08 434.60 199.29 432.31 206.00 433.00 C 212.71 433.69 221.05 432.68 228.00 433.00 C 234.95 433.32 241.92 432.87 249.00 433.00 C 256.08 433.13 263.88 432.95 271.00 433.00 C 278.12 433.05 284.86 433.00 292.00 433.00 C 299.14 433.00 306.87 433.05 314.00 433.00 C 321.13 432.95 327.93 433.13 335.00 433.00 C 342.07 432.87 350.03 433.29 357.00 433.00 C 363.97 432.71 371.31 433.68 378.00 433.00 C 384.69 432.32 393.86 434.44 400.00 433.00 C 406.14 431.56 416.23 436.34 421.00 433.00
C 421.38 406.97 420.49 381.04 421.00 355.00 C 421.51 328.96 420.03 301.97 421.00 276.00 C 421.97 250.03 418.93 222.66 421.00 197.00 C 423.07 171.34 416.00 143.23 422.00 119.00
C 423.19 114.21 424.41 111.90 430.00 112.00
C 431.39 106.12 428.15 98.73 430.00 93.00
C 425.76 93.16 423.06 89.37 422.00 86.00
C 416.19 67.62 424.47 44.36 421.00 25.00
C 419.46 20.12 416.03 15.26 410.00 15.00 C 403.97 14.74 395.47 15.12 389.00 15.00 C 382.53 14.88 375.71 15.05 369.00 15.00 C 362.29 14.95 354.83 15.02 348.00 15.00 C 341.17 14.98 333.84 15.01 327.00 15.00 C 320.16 14.99 313.84 14.99 307.00 15.00 C 300.16 15.01 292.84 14.98 286.00 15.00 C 279.16 15.02 272.83 14.94 266.00 15.00 C 259.17 15.06 251.81 14.87 245.00 15.00 C 238.19 15.13 230.68 14.72 224.00 15.00 C 217.32 15.28 210.39 14.35 204.00 15.00 C 197.61 15.65 188.86 13.63 183.00 15.00 C 177.14 16.37 167.55 11.81 163.00 15.00
C 163.00 154.33 163.00 293.67 163.00 433.00
M 281.00 276.00 
C 277.68 272.68 274.03 269.55 271.00 266.00
C 268.43 262.99 265.38 260.08 263.00 257.00
C 253.78 259.09 243.53 285.65 232.75 276.25 C 221.98 266.84 246.65 253.68 251.00 247.00
C 248.06 241.02 242.09 236.44 238.00 231.00
C 229.70 233.27 219.33 258.82 208.78 250.22 C 198.22 241.63 221.17 227.04 226.00 221.00
C 210.71 206.39 194.70 183.88 208.31 163.31 C 221.91 142.73 250.66 142.69 264.75 162.25 C 278.85 181.80 265.98 206.16 248.00 219.00
C 261.58 235.27 277.26 251.21 293.00 266.00
C 293.00 249.33 293.00 232.67 293.00 216.00
C 286.51 215.33 274.77 218.81 274.03 208.97 C 273.28 199.14 286.34 200.72 293.00 201.00
C 288.65 176.07 298.99 148.41 327.00 148.00 C 355.01 147.59 366.90 175.74 362.00 201.00
C 368.40 201.54 380.68 198.20 380.99 208.01 C 381.30 217.82 368.71 216.19 362.00 216.00
C 362.72 228.51 361.04 239.32 362.00 252.00 C 362.96 264.68 360.21 275.85 362.00 289.00 C 363.79 302.15 346.62 303.17 347.00 290.00 C 347.39 276.83 346.80 265.77 347.00 253.00 C 347.20 240.23 346.85 228.66 347.00 216.00
C 334.00 216.00 321.00 216.00 308.00 216.00
C 307.63 224.93 308.50 234.10 308.00 243.00 C 307.50 251.90 308.96 261.19 308.00 270.00 C 307.04 278.81 310.48 287.77 307.07 296.07 C 303.67 304.38 291.32 298.58 293.00 291.00 C 294.68 283.42 282.16 282.34 281.00 276.00 Z"/>
</g>
<g fill="None" fill-opacity="0.0" stroke="#96630A" stroke-opacity="1.00" stroke-width="0.3"><path d="
M 422.00 86.00 
C 418.53 66.64 426.81 43.37 421.00 25.00
C 424.47 44.36 416.19 67.62 422.00 86.00 Z"/>
</g>
<g fill="None" fill-opacity="0.0" stroke="#97630B" stroke-opacity="1.00" stroke-width="0.3"><path d="
M 421.00 433.00 
C 425.40 429.92 420.62 416.75 422.00 411.00 C 423.38 405.25 421.40 395.75 422.00 389.00 C 422.60 382.25 421.72 373.15 422.00 366.00 C 422.28 358.85 421.88 351.36 422.00 344.00 C 422.12 336.64 421.94 328.44 422.00 321.00 C 422.06 313.56 421.97 306.48 422.00 299.00 C 422.03 291.52 421.99 283.50 422.00 276.00 C 422.01 268.50 421.99 261.50 422.00 254.00 C 422.01 246.50 421.98 238.50 422.00 231.00 C 422.02 223.50 421.96 216.50 422.00 209.00 C 422.04 201.50 421.92 193.49 422.00 186.00 C 422.08 178.51 421.82 171.47 422.00 164.00 C 422.18 156.53 421.61 148.43 422.00 141.00 C 422.39 133.57 421.09 126.33 422.00 119.00
C 416.00 143.23 423.07 171.34 421.00 197.00 C 418.93 222.66 421.97 250.03 421.00 276.00 C 420.03 301.97 421.51 328.96 421.00 355.00 C 420.49 381.04 421.38 406.97 421.00 433.00 Z"/>
</g>
<g fill="None" fill-opacity="0.0" stroke="#000000" stroke-opacity="1.00" stroke-width="0.3"><path d="
M 271.00 266.00 
C 274.32 269.32 277.97 272.45 281.00 276.00
C 282.16 282.34 294.68 283.42 293.00 291.00 C 291.32 298.58 303.67 304.38 307.07 296.07 C 310.48 287.77 307.04 278.81 308.00 270.00 C 308.96 261.19 307.50 251.90 308.00 243.00 C 308.50 234.10 307.63 224.93 308.00 216.00
C 321.00 216.00 334.00 216.00 347.00 216.00
C 346.85 228.66 347.20 240.23 347.00 253.00 C 346.80 265.77 347.39 276.83 347.00 290.00 C 346.62 303.17 363.79 302.15 362.00 289.00 C 360.21 275.85 362.96 264.68 362.00 252.00 C 361.04 239.32 362.72 228.51 362.00 216.00
C 368.71 216.19 381.30 217.82 380.99 208.01 C 380.68 198.20 368.40 201.54 362.00 201.00
C 366.90 175.74 355.01 147.59 327.00 148.00 C 298.99 148.41 288.65 176.07 293.00 201.00
C 286.34 200.72 273.28 199.14 274.03 208.97 C 274.77 218.81 286.51 215.33 293.00 216.00
C 293.00 232.67 293.00 249.33 293.00 266.00
C 277.26 251.21 261.58 235.27 248.00 219.00
C 265.98 206.16 278.85 181.80 264.75 162.25 C 250.66 142.69 221.91 142.73 208.31 163.31 C 194.70 183.88 210.71 206.39 226.00 221.00
C 221.17 227.04 198.22 241.63 208.78 250.22 C 219.33 258.82 229.70 233.27 238.00 231.00
C 242.09 236.44 248.06 241.02 251.00 247.00
C 246.65 253.68 221.98 266.84 232.75 276.25 C 243.53 285.65 253.78 259.09 263.00 257.00
C 265.38 260.08 268.43 262.99 271.00 266.00
M 238.00 208.00 
C 226.85 200.51 214.44 189.00 219.78 174.78 C 225.11 160.56 245.76 158.03 253.75 172.25 C 261.74 186.46 247.39 198.64 238.00 208.00
M 347.00 201.00 
C 334.00 201.00 321.00 201.00 308.00 201.00
C 306.77 185.02 306.38 163.47 327.00 163.00 C 347.62 162.53 348.96 184.72 347.00 201.00 Z"/>
</g>
<g fill="None" fill-opacity="0.0" stroke="#FAB140" stroke-opacity="1.00" stroke-width="0.3"><path d="
M 238.00 208.00 
C 247.39 198.64 261.74 186.46 253.75 172.25 C 245.76 158.03 225.11 160.56 219.78 174.78 C 214.44 189.00 226.85 200.51 238.00 208.00 Z"/>
</g>
<g fill="None" fill-opacity="0.0" stroke="#F9B140" stroke-opacity="1.00" stroke-width="0.3"><path d="
M 347.00 201.00 
C 348.96 184.72 347.62 162.53 327.00 163.00 C 306.38 163.47 306.77 185.02 308.00 201.00
C 321.00 201.00 334.00 201.00 347.00 201.00 Z"/>
</g>
<g fill="None" fill-opacity="0.0" stroke="#78551E" stroke-opacity="1.00" stroke-width="0.3"><path d="
M 281.00 276.00 
C 277.97 272.45 274.32 269.32 271.00 266.00
C 274.03 269.55 277.68 272.68 281.00 276.00 Z"/>
</g>
<g fill="None" fill-opacity="0.0" stroke="#F8F2F0" stroke-opacity="1.00" stroke-width="0.3"><path d="
M 421.00 465.00 
C 421.00 459.33 421.00 453.67 421.00 448.00
C 396.86 447.76 372.08 448.32 348.00 448.00 C 323.92 447.68 298.85 448.62 275.00 448.00 C 251.15 447.38 225.29 449.32 202.00 448.00 C 178.71 446.68 152.11 450.96 130.00 448.00 C 107.89 445.04 83.51 456.66 92.08 480.92 C 100.64 505.19 127.64 495.67 149.00 497.00 C 170.36 498.33 198.44 496.62 221.00 497.00 C 243.56 497.38 271.35 497.29 294.00 497.00 C 316.65 496.71 345.38 498.15 367.00 497.00 C 388.62 495.85 418.82 506.19 422.00 480.00
C 414.70 480.00 407.28 480.00 400.00 480.00 C 392.72 480.00 385.24 480.00 378.00 480.00 C 370.76 480.00 364.23 480.00 357.00 480.00 C 349.77 480.00 342.25 480.00 335.00 480.00 C 327.75 480.00 320.21 480.00 313.00 480.00 C 305.79 480.00 299.19 480.00 292.00 480.00 C 284.81 480.00 277.18 480.00 270.00 480.00 C 262.82 480.00 256.18 480.00 249.00 480.00 C 241.82 480.00 234.18 480.01 227.00 480.00 C 219.82 479.99 212.08 480.02 205.00 480.00 C 197.92 479.98 190.90 480.05 184.00 480.00 C 177.10 479.95 168.56 480.10 162.00 480.00 C 155.44 479.90 148.83 481.00 148.00 473.00 C 147.17 465.00 155.29 464.40 162.00 465.00 C 168.71 465.60 177.03 464.72 184.00 465.00 C 190.97 465.28 197.89 464.88 205.00 465.00 C 212.11 465.12 219.81 464.95 227.00 465.00 C 234.19 465.05 241.82 464.98 249.00 465.00 C 256.18 465.02 262.82 465.00 270.00 465.00 C 277.18 465.00 284.83 465.02 292.00 465.00 C 299.17 464.98 305.84 465.06 313.00 465.00 C 320.16 464.94 327.86 465.13 335.00 465.00 C 342.14 464.87 350.00 465.29 357.00 465.00 C 364.00 464.71 371.30 465.68 378.00 465.00 C 384.70 464.32 393.85 466.44 400.00 465.00 C 406.15 463.56 416.22 468.34 421.00 465.00 Z"/>
</g>
<g fill="None" fill-opacity="0.0" stroke="#928C8A" stroke-opacity="1.00" stroke-width="0.3"><path d="
M 421.00 465.00 
C 422.95 463.64 423.01 449.41 421.00 448.00
C 421.00 453.67 421.00 459.33 421.00 465.00 Z"/>
</g>
<g fill="#000000" fill-opacity="0.01" stroke="None">
<path d="
M 0.00 512.00 
L 107.00 512.00
C 56.18 494.77 83.29 428.88 75.00 389.00
C 78.39 387.97 79.59 385.54 82.00 384.00
C 83.17 380.32 83.19 368.67 82.00 365.00
C 71.79 365.26 76.68 344.22 76.00 332.00 C 75.32 319.78 76.30 299.09 76.00 285.00 C 75.70 270.91 76.12 252.91 76.00 238.00 C 75.88 223.09 76.01 206.23 76.00 191.00 C 75.99 175.77 75.91 159.26 76.00 144.00 C 76.09 128.74 75.74 112.02 76.00 97.00 C 76.26 81.98 75.41 64.35 76.00 50.00 C 76.59 35.65 73.53 23.51 78.19 14.75 C 82.85 5.98 92.46 0.96 102.00 0.00
L 0.00 0.00
L 0.00 512.00 Z"/>
</g>
<g fill="#000000" fill-opacity="1.00" stroke="None">
<path d="
M 82.00 365.00 
C 95.96 364.65 88.86 340.57 90.00 329.00 C 91.14 317.43 89.46 297.41 90.00 284.00 C 90.54 270.59 89.71 253.19 90.00 239.00 C 90.29 224.81 89.77 208.42 90.00 194.00 C 90.23 179.58 89.68 164.39 90.00 150.00 C 90.32 135.61 89.39 119.06 90.00 105.00 C 90.61 90.94 88.69 73.12 90.00 60.00 C 91.31 46.88 85.24 28.35 94.25 19.25 C 103.26 10.15 123.08 15.00 135.00 15.00
C 137.41 15.00 145.11 13.68 147.00 15.00
C 151.31 18.02 146.72 30.33 148.00 36.00 C 149.28 41.67 147.42 51.42 148.00 58.00 C 148.58 64.58 147.74 73.01 148.00 80.00 C 148.26 86.99 147.88 94.82 148.00 102.00 C 148.12 109.18 147.95 116.73 148.00 124.00 C 148.05 131.27 147.98 138.69 148.00 146.00 C 148.02 153.31 147.99 160.66 148.00 168.00 C 148.01 175.34 148.00 182.63 148.00 190.00 C 148.00 197.37 148.00 204.57 148.00 212.00 C 148.00 219.43 148.00 227.57 148.00 235.00 C 148.00 242.43 148.00 249.63 148.00 257.00 C 148.00 264.37 148.01 271.66 148.00 279.00 C 147.99 286.34 148.03 293.69 148.00 301.00 C 147.97 308.31 148.06 315.73 148.00 323.00 C 147.94 330.27 148.13 337.82 148.00 345.00 C 147.87 352.18 148.28 360.00 148.00 367.00 C 147.72 374.00 148.62 382.41 148.00 389.00 C 147.38 395.59 149.38 405.31 148.00 411.00 C 146.62 416.69 151.38 429.93 147.00 433.00
C 145.11 434.32 137.41 433.00 135.00 433.00
C 119.24 433.00 102.68 431.33 90.00 441.00
C 89.57 431.08 90.57 418.67 90.00 409.00 C 89.43 399.33 93.86 386.32 82.00 384.00
C 79.59 385.54 78.39 387.97 75.00 389.00
C 83.29 428.88 56.18 494.77 107.00 512.00
L 412.00 512.00
C 421.57 508.23 432.67 504.48 434.93 491.93 C 437.18 479.37 435.69 463.77 436.00 450.00 C 436.31 436.23 435.87 420.14 436.00 406.00 C 436.13 391.86 435.96 377.28 436.00 363.00 C 436.04 348.72 436.01 333.27 436.00 319.00 C 435.99 304.73 436.08 290.09 436.00 276.00 C 435.92 261.91 436.20 246.76 436.00 233.00 C 435.80 219.24 436.45 201.97 436.00 189.00 C 435.55 176.03 437.02 157.06 436.00 146.00 C 434.98 134.94 440.97 112.20 430.00 112.00
C 424.41 111.90 423.19 114.21 422.00 119.00
C 421.09 126.33 422.39 133.57 422.00 141.00 C 421.61 148.43 422.18 156.53 422.00 164.00 C 421.82 171.47 422.08 178.51 422.00 186.00 C 421.92 193.49 422.04 201.50 422.00 209.00 C 421.96 216.50 422.02 223.50 422.00 231.00 C 421.98 238.50 422.01 246.50 422.00 254.00 C 421.99 261.50 422.01 268.50 422.00 276.00 C 421.99 283.50 422.03 291.52 422.00 299.00 C 421.97 306.48 422.06 313.56 422.00 321.00 C 421.94 328.44 422.12 336.64 422.00 344.00 C 421.88 351.36 422.28 358.85 422.00 366.00 C 421.72 373.15 422.60 382.25 422.00 389.00 C 421.40 395.75 423.38 405.25 422.00 411.00 C 420.62 416.75 425.40 429.92 421.00 433.00
C 416.23 436.34 406.14 431.56 400.00 433.00 C 393.86 434.44 384.69 432.32 378.00 433.00 C 371.31 433.68 363.97 432.71 357.00 433.00 C 350.03 433.29 342.07 432.87 335.00 433.00 C 327.93 433.13 321.13 432.95 314.00 433.00 C 306.87 433.05 299.14 433.00 292.00 433.00 C 284.86 433.00 278.12 433.05 271.00 433.00 C 263.88 432.95 256.08 433.13 249.00 433.00 C 241.92 432.87 234.95 433.32 228.00 433.00 C 221.05 432.68 212.71 433.69 206.00 433.00 C 199.29 432.31 191.08 434.60 185.00 433.00 C 178.92 431.40 167.86 436.40 163.00 433.00
C 158.69 429.98 163.28 417.67 162.00 412.00 C 160.72 406.33 162.58 396.58 162.00 390.00 C 161.42 383.42 162.26 374.99 162.00 368.00 C 161.74 361.01 162.12 353.18 162.00 346.00 C 161.88 338.82 162.05 331.27 162.00 324.00 C 161.95 316.73 162.02 309.31 162.00 302.00 C 161.98 294.69 162.01 287.34 162.00 280.00 C 161.99 272.66 162.00 265.37 162.00 258.00 C 162.00 250.63 162.00 243.43 162.00 236.00 C 162.00 228.57 162.00 220.43 162.00 213.00 C 162.00 205.57 162.00 198.37 162.00 191.00 C 162.00 183.63 161.99 176.34 162.00 169.00 C 162.01 161.66 161.97 154.31 162.00 147.00 C 162.03 139.69 161.94 132.27 162.00 125.00 C 162.06 117.73 161.87 110.18 162.00 103.00 C 162.13 95.82 161.72 88.00 162.00 81.00 C 162.28 74.00 161.38 65.59 162.00 59.00 C 162.62 52.41 160.62 42.69 162.00 37.00 C 163.38 31.31 158.62 18.07 163.00 15.00
C 167.55 11.81 177.14 16.37 183.00 15.00 C 188.86 13.63 197.61 15.65 204.00 15.00 C 210.39 14.35 217.32 15.28 224.00 15.00 C 230.68 14.72 238.19 15.13 245.00 15.00 C 251.81 14.87 259.17 15.06 266.00 15.00 C 272.83 14.94 279.16 15.02 286.00 15.00 C 292.84 14.98 300.16 15.01 307.00 15.00 C 313.84 14.99 320.16 14.99 327.00 15.00 C 333.84 15.01 341.17 14.98 348.00 15.00 C 354.83 15.02 362.29 14.95 369.00 15.00 C 375.71 15.05 382.53 14.88 389.00 15.00 C 395.47 15.12 403.97 14.74 410.00 15.00 C 416.03 15.26 419.46 20.12 421.00 25.00
C 426.81 43.37 418.53 66.64 422.00 86.00
C 423.06 89.37 425.76 93.16 430.00 93.00
C 430.56 91.27 434.96 89.28 437.00 88.00
C 434.18 71.42 437.09 40.25 436.60 24.26 C 436.11 8.27 423.43 4.18 411.00 0.00
L 102.00 0.00
C 92.46 0.96 82.85 5.98 78.19 14.75 C 73.53 23.51 76.59 35.65 76.00 50.00 C 75.41 64.35 76.26 81.98 76.00 97.00 C 75.74 112.02 76.09 128.74 76.00 144.00 C 75.91 159.26 75.99 175.77 76.00 191.00 C 76.01 206.23 75.88 223.09 76.00 238.00 C 76.12 252.91 75.70 270.91 76.00 285.00 C 76.30 299.09 75.32 319.78 76.00 332.00 C 76.68 344.22 71.79 365.26 82.00 365.00
M 421.00 465.00 
C 416.22 468.34 406.15 463.56 400.00 465.00 C 393.85 466.44 384.70 464.32 378.00 465.00 C 371.30 465.68 364.00 464.71 357.00 465.00 C 350.00 465.29 342.14 464.87 335.00 465.00 C 327.86 465.13 320.16 464.94 313.00 465.00 C 305.84 465.06 299.17 464.98 292.00 465.00 C 284.83 465.02 277.18 465.00 270.00 465.00 C 262.82 465.00 256.18 465.02 249.00 465.00 C 241.82 464.98 234.19 465.05 227.00 465.00 C 219.81 464.95 212.11 465.12 205.00 465.00 C 197.89 464.88 190.97 465.28 184.00 465.00 C 177.03 464.72 168.71 465.60 162.00 465.00 C 155.29 464.40 147.17 465.00 148.00 473.00 C 148.83 481.00 155.44 479.90 162.00 480.00 C 168.56 480.10 177.10 479.95 184.00 480.00 C 190.90 480.05 197.92 479.98 205.00 480.00 C 212.08 480.02 219.82 479.99 227.00 480.00 C 234.18 480.01 241.82 480.00 249.00 480.00 C 256.18 480.00 262.82 480.00 270.00 480.00 C 277.18 480.00 284.81 480.00 292.00 480.00 C 299.19 480.00 305.79 480.00 313.00 480.00 C 320.21 480.00 327.75 480.00 335.00 480.00 C 342.25 480.00 349.77 480.00 357.00 480.00 C 364.23 480.00 370.76 480.00 378.00 480.00 C 385.24 480.00 392.72 480.00 400.00 480.00 C 407.28 480.00 414.70 480.00 422.00 480.00
C 418.82 506.19 388.62 495.85 367.00 497.00 C 345.38 498.15 316.65 496.71 294.00 497.00 C 271.35 497.29 243.56 497.38 221.00 497.00 C 198.44 496.62 170.36 498.33 149.00 497.00 C 127.64 495.67 100.64 505.19 92.08 480.92 C 83.51 456.66 107.89 445.04 130.00 448.00 C 152.11 450.96 178.71 446.68 202.00 448.00 C 225.29 449.32 251.15 447.38 275.00 448.00 C 298.85 448.62 323.92 447.68 348.00 448.00 C 372.08 448.32 396.86 447.76 421.00 448.00
C 423.01 449.41 422.95 463.64 421.00 465.00 Z"/>
</g>
<g fill="#000000" fill-opacity="0.01" stroke="None">
<path d="
M 430.00 93.00 
C 428.15 98.73 431.39 106.12 430.00 112.00
C 440.97 112.20 434.98 134.94 436.00 146.00 C 437.02 157.06 435.55 176.03 436.00 189.00 C 436.45 201.97 435.80 219.24 436.00 233.00 C 436.20 246.76 435.92 261.91 436.00 276.00 C 436.08 290.09 435.99 304.73 436.00 319.00 C 436.01 333.27 436.04 348.72 436.00 363.00 C 435.96 377.28 436.13 391.86 436.00 406.00 C 435.87 420.14 436.31 436.23 436.00 450.00 C 435.69 463.77 437.18 479.37 434.93 491.93 C 432.67 504.48 421.57 508.23 412.00 512.00
L 512.00 512.00
L 512.00 0.00
L 411.00 0.00
C 423.43 4.18 436.11 8.27 436.60 24.26 C 437.09 40.25 434.18 71.42 437.00 88.00
C 434.96 89.28 430.56 91.27 430.00 93.00 Z"/>
</g>
<g fill="#9A9A9A" fill-opacity="1.00" stroke="None">
<path d="
M 82.00 365.00 
C 83.19 368.67 83.17 380.32 82.00 384.00
C 93.86 386.32 89.43 399.33 90.00 409.00 C 90.57 418.67 89.57 431.08 90.00 441.00
C 102.68 431.33 119.24 433.00 135.00 433.00
C 135.00 293.67 135.00 154.33 135.00 15.00
C 123.08 15.00 103.26 10.15 94.25 19.25 C 85.24 28.35 91.31 46.88 90.00 60.00 C 88.69 73.12 90.61 90.94 90.00 105.00 C 89.39 119.06 90.32 135.61 90.00 150.00 C 89.68 164.39 90.23 179.58 90.00 194.00 C 89.77 208.42 90.29 224.81 90.00 239.00 C 89.71 253.19 90.54 270.59 90.00 284.00 C 89.46 297.41 91.14 317.43 90.00 329.00 C 88.86 340.57 95.96 364.65 82.00 365.00 Z"/>
</g>
<g fill="#828282" fill-opacity="1.00" stroke="None">
<path d="
M 135.00 433.00 
C 137.41 433.00 145.11 434.32 147.00 433.00
C 147.00 293.67 147.00 154.33 147.00 15.00
C 145.11 13.68 137.41 15.00 135.00 15.00
C 135.00 154.33 135.00 293.67 135.00 433.00 Z"/>
</g>
<g fill="#424242" fill-opacity="1.00" stroke="None">
<path d="
M 147.00 433.00 
C 151.38 429.93 146.62 416.69 148.00 411.00 C 149.38 405.31 147.38 395.59 148.00 389.00 C 148.62 382.41 147.72 374.00 148.00 367.00 C 148.28 360.00 147.87 352.18 148.00 345.00 C 148.13 337.82 147.94 330.27 148.00 323.00 C 148.06 315.73 147.97 308.31 148.00 301.00 C 148.03 293.69 147.99 286.34 148.00 279.00 C 148.01 271.66 148.00 264.37 148.00 257.00 C 148.00 249.63 148.00 242.43 148.00 235.00 C 148.00 227.57 148.00 219.43 148.00 212.00 C 148.00 204.57 148.00 197.37 148.00 190.00 C 148.00 182.63 148.01 175.34 148.00 168.00 C 147.99 160.66 148.02 153.31 148.00 146.00 C 147.98 138.69 148.05 131.27 148.00 124.00 C 147.95 116.73 148.12 109.18 148.00 102.00 C 147.88 94.82 148.26 86.99 148.00 80.00 C 147.74 73.01 148.58 64.58 148.00 58.00 C 147.42 51.42 149.28 41.67 148.00 36.00 C 146.72 30.33 151.31 18.02 147.00 15.00
C 147.00 154.33 147.00 293.67 147.00 433.00 Z"/>
</g>
<g fill="#79561E" fill-opacity="1.00" stroke="None">
<path d="
M 163.00 433.00 
C 163.00 293.67 163.00 154.33 163.00 15.00
C 158.62 18.07 163.38 31.31 162.00 37.00 C 160.62 42.69 162.62 52.41 162.00 59.00 C 161.38 65.59 162.28 74.00 162.00 81.00 C 161.72 88.00 162.13 95.82 162.00 103.00 C 161.87 110.18 162.06 117.73 162.00 125.00 C 161.94 132.27 162.03 139.69 162.00 147.00 C 161.97 154.31 162.01 161.66 162.00 169.00 C 161.99 176.34 162.00 183.63 162.00 191.00 C 162.00 198.37 162.00 205.57 162.00 213.00 C 162.00 220.43 162.00 228.57 162.00 236.00 C 162.00 243.43 162.00 250.63 162.00 258.00 C 162.00 265.37 161.99 272.66 162.00 280.00 C 162.01 287.34 161.98 294.69 162.00 302.00 C 162.02 309.31 161.95 316.73 162.00 324.00 C 162.05 331.27 161.88 338.82 162.00 346.00 C 162.12 353.18 161.74 361.01 162.00 368.00 C 162.26 374.99 161.42 383.42 162.00 390.00 C 162.58 396.58 160.72 406.33 162.00 412.00 C 163.28 417.67 158.69 429.98 163.00 433.00 Z"/>
</g>
<g fill="#FCB33F" fill-opacity="1.00" stroke="None">
<path d="
M 163.00 433.00 
C 167.86 436.40 178.92 431.40 185.00 433.00 C 191.08 434.60 199.29 432.31 206.00 433.00 C 212.71 433.69 221.05 432.68 228.00 433.00 C 234.95 433.32 241.92 432.87 249.00 433.00 C 256.08 433.13 263.88 432.95 271.00 433.00 C 278.12 433.05 284.86 433.00 292.00 433.00 C 299.14 433.00 306.87 433.05 314.00 433.00 C 321.13 432.95 327.93 433.13 335.00 433.00 C 342.07 432.87 350.03 433.29 357.00 433.00 C 363.97 432.71 371.31 433.68 378.00 433.00 C 384.69 432.32 393.86 434.44 400.00 433.00 C 406.14 431.56 416.23 436.34 421.00 433.00
C 421.38 406.97 420.49 381.04 421.00 355.00 C 421.51 328.96 420.03 301.97 421.00 276.00 C 421.97 250.03 418.93 222.66 421.00 197.00 C 423.07 171.34 416.00 143.23 422.00 119.00
C 423.19 114.21 424.41 111.90 430.00 112.00
C 431.39 106.12 428.15 98.73 430.00 93.00
C 425.76 93.16 423.06 89.37 422.00 86.00
C 416.19 67.62 424.47 44.36 421.00 25.00
C 419.46 20.12 416.03 15.26 410.00 15.00 C 403.97 14.74 395.47 15.12 389.00 15.00 C 382.53 14.88 375.71 15.05 369.00 15.00 C 362.29 14.95 354.83 15.02 348.00 15.00 C 341.17 14.98 333.84 15.01 327.00 15.00 C 320.16 14.99 313.84 14.99 307.00 15.00 C 300.16 15.01 292.84 14.98 286.00 15.00 C 279.16 15.02 272.83 14.94 266.00 15.00 C 259.17 15.06 251.81 14.87 245.00 15.00 C 238.19 15.13 230.68 14.72 224.00 15.00 C 217.32 15.28 210.39 14.35 204.00 15.00 C 197.61 15.65 188.86 13.63 183.00 15.00 C 177.14 16.37 167.55 11.81 163.00 15.00
C 163.00 154.33 163.00 293.67 163.00 433.00
M 281.00 276.00 
C 277.68 272.68 274.03 269.55 271.00 266.00
C 268.43 262.99 265.38 260.08 263.00 257.00
C 253.78 259.09 243.53 285.65 232.75 276.25 C 221.98 266.84 246.65 253.68 251.00 247.00
C 248.06 241.02 242.09 236.44 238.00 231.00
C 229.70 233.27 219.33 258.82 208.78 250.22 C 198.22 241.63 221.17 227.04 226.00 221.00
C 210.71 206.39 194.70 183.88 208.31 163.31 C 221.91 142.73 250.66 142.69 264.75 162.25 C 278.85 181.80 265.98 206.16 248.00 219.00
C 261.58 235.27 277.26 251.21 293.00 266.00
C 293.00 249.33 293.00 232.67 293.00 216.00
C 286.51 215.33 274.77 218.81 274.03 208.97 C 273.28 199.14 286.34 200.72 293.00 201.00
C 288.65 176.07 298.99 148.41 327.00 148.00 C 355.01 147.59 366.90 175.74 362.00 201.00
C 368.40 201.54 380.68 198.20 380.99 208.01 C 381.30 217.82 368.71 216.19 362.00 216.00
C 362.72 228.51 361.04 239.32 362.00 252.00 C 362.96 264.68 360.21 275.85 362.00 289.00 C 363.79 302.15 346.62 303.17 347.00 290.00 C 347.39 276.83 346.80 265.77 347.00 253.00 C 347.20 240.23 346.85 228.66 347.00 216.00
C 334.00 216.00 321.00 216.00 308.00 216.00
C 307.63 224.93 308.50 234.10 308.00 243.00 C 307.50 251.90 308.96 261.19 308.00 270.00 C 307.04 278.81 310.48 287.77 307.07 296.07 C 303.67 304.38 291.32 298.58 293.00 291.00 C 294.68 283.42 282.16 282.34 281.00 276.00 Z"/>
</g>
<g fill="#96630A" fill-opacity="1.00" stroke="None">
<path d="
M 422.00 86.00 
C 418.53 66.64 426.81 43.37 421.00 25.00
C 424.47 44.36 416.19 67.62 422.00 86.00 Z"/>
</g>
<g fill="#97630B" fill-opacity="1.00" stroke="None">
<path d="
M 421.00 433.00 
C 425.40 429.92 420.62 416.75 422.00 411.00 C 423.38 405.25 421.40 395.75 422.00 389.00 C 422.60 382.25 421.72 373.15 422.00 366.00 C 422.28 358.85 421.88 351.36 422.00 344.00 C 422.12 336.64 421.94 328.44 422.00 321.00 C 422.06 313.56 421.97 306.48 422.00 299.00 C 422.03 291.52 421.99 283.50 422.00 276.00 C 422.01 268.50 421.99 261.50 422.00 254.00 C 422.01 246.50 421.98 238.50 422.00 231.00 C 422.02 223.50 421.96 216.50 422.00 209.00 C 422.04 201.50 421.92 193.49 422.00 186.00 C 422.08 178.51 421.82 171.47 422.00 164.00 C 422.18 156.53 421.61 148.43 422.00 141.00 C 422.39 133.57 421.09 126.33 422.00 119.00
C 416.00 143.23 423.07 171.34 421.00 197.00 C 418.93 222.66 421.97 250.03 421.00 276.00 C 420.03 301.97 421.51 328.96 421.00 355.00 C 420.49 381.04 421.38 406.97 421.00 433.00 Z"/>
</g>
<g fill="#000000" fill-opacity="1.00" stroke="None">
<path d="
M 271.00 266.00 
C 274.32 269.32 277.97 272.45 281.00 276.00
C 282.16 282.34 294.68 283.42 293.00 291.00 C 291.32 298.58 303.67 304.38 307.07 296.07 C 310.48 287.77 307.04 278.81 308.00 270.00 C 308.96 261.19 307.50 251.90 308.00 243.00 C 308.50 234.10 307.63 224.93 308.00 216.00
C 321.00 216.00 334.00 216.00 347.00 216.00
C 346.85 228.66 347.20 240.23 347.00 253.00 C 346.80 265.77 347.39 276.83 347.00 290.00 C 346.62 303.17 363.79 302.15 362.00 289.00 C 360.21 275.85 362.96 264.68 362.00 252.00 C 361.04 239.32 362.72 228.51 362.00 216.00
C 368.71 216.19 381.30 217.82 380.99 208.01 C 380.68 198.20 368.40 201.54 362.00 201.00
C 366.90 175.74 355.01 147.59 327.00 148.00 C 298.99 148.41 288.65 176.07 293.00 201.00
C 286.34 200.72 273.28 199.14 274.03 208.97 C 274.77 218.81 286.51 215.33 293.00 216.00
C 293.00 232.67 293.00 249.33 293.00 266.00
C 277.26 251.21 261.58 235.27 248.00 219.00
C 265.98 206.16 278.85 181.80 264.75 162.25 C 250.66 142.69 221.91 142.73 208.31 163.31 C 194.70 183.88 210.71 206.39 226.00 221.00
C 221.17 227.04 198.22 241.63 208.78 250.22 C 219.33 258.82 229.70 233.27 238.00 231.00
C 242.09 236.44 248.06 241.02 251.00 247.00
C 246.65 253.68 221.98 266.84 232.75 276.25 C 243.53 285.65 253.78 259.09 263.00 257.00
C 265.38 260.08 268.43 262.99 271.00 266.00
M 238.00 208.00 
C 226.85 200.51 214.44 189.00 219.78 174.78 C 225.11 160.56 245.76 158.03 253.75 172.25 C 261.74 186.46 247.39 198.64 238.00 208.00
M 347.00 201.00 
C 334.00 201.00 321.00 201.00 308.00 201.00
C 306.77 185.02 306.38 163.47 327.00 163.00 C 347.62 162.53 348.96 184.72 347.00 201.00 Z"/>
</g>
<g fill="#FAB140" fill-opacity="1.00" stroke="None">
<path d="
M 238.00 208.00 
C 247.39 198.64 261.74 186.46 253.75 172.25 C 245.76 158.03 225.11 160.56 219.78 174.78 C 214.44 189.00 226.85 200.51 238.00 208.00 Z"/>
</g>
<g fill="#F9B140" fill-opacity="1.00" stroke="None">
<path d="
M 347.00 201.00 
C 348.96 184.72 347.62 162.53 327.00 163.00 C 306.38 163.47 306.77 185.02 308.00 201.00
C 321.00 201.00 334.00 201.00 347.00 201.00 Z"/>
</g>
<g fill="#78551E" fill-opacity="1.00" stroke="None">
<path d="
M 281.00 276.00 
C 277.97 272.45 274.32 269.32 271.00 266.00
C 274.03 269.55 277.68 272.68 281.00 276.00 Z"/>
</g>
<g fill="#F8F2F0" fill-opacity="1.00" stroke="None">
<path d="
M 421.00 465.00 
C 421.00 459.33 421.00 453.67 421.00 448.00
C 396.86 447.76 372.08 448.32 348.00 448.00 C 323.92 447.68 298.85 448.62 275.00 448.00 C 251.15 447.38 225.29 449.32 202.00 448.00 C 178.71 446.68 152.11 450.96 130.00 448.00 C 107.89 445.04 83.51 456.66 92.08 480.92 C 100.64 505.19 127.64 495.67 149.00 497.00 C 170.36 498.33 198.44 496.62 221.00 497.00 C 243.56 497.38 271.35 497.29 294.00 497.00 C 316.65 496.71 345.38 498.15 367.00 497.00 C 388.62 495.85 418.82 506.19 422.00 480.00
C 414.70 480.00 407.28 480.00 400.00 480.00 C 392.72 480.00 385.24 480.00 378.00 480.00 C 370.76 480.00 364.23 480.00 357.00 480.00 C 349.77 480.00 342.25 480.00 335.00 480.00 C 327.75 480.00 320.21 480.00 313.00 480.00 C 305.79 480.00 299.19 480.00 292.00 480.00 C 284.81 480.00 277.18 480.00 270.00 480.00 C 262.82 480.00 256.18 480.00 249.00 480.00 C 241.82 480.00 234.18 480.01 227.00 480.00 C 219.82 479.99 212.08 480.02 205.00 480.00 C 197.92 479.98 190.90 480.05 184.00 480.00 C 177.10 479.95 168.56 480.10 162.00 480.00 C 155.44 479.90 148.83 481.00 148.00 473.00 C 147.17 465.00 155.29 464.40 162.00 465.00 C 168.71 465.60 177.03 464.72 184.00 465.00 C 190.97 465.28 197.89 464.88 205.00 465.00 C 212.11 465.12 219.81 464.95 227.00 465.00 C 234.19 465.05 241.82 464.98 249.00 465.00 C 256.18 465.02 262.82 465.00 270.00 465.00 C 277.18 465.00 284.83 465.02 292.00 465.00 C 299.17 464.98 305.84 465.06 313.00 465.00 C 320.16 464.94 327.86 465.13 335.00 465.00 C 342.14 464.87 350.00 465.29 357.00 465.00 C 364.00 464.71 371.30 465.68 378.00 465.00 C 384.70 464.32 393.85 466.44 400.00 465.00 C 406.15 463.56 416.22 468.34 421.00 465.00 Z"/>
</g>
<g fill="#928C8A" fill-opacity="1.00" stroke="None">
<path d="
M 421.00 465.00 
C 422.95 463.64 423.01 449.41 421.00 448.00
C 421.00 453.67 421.00 459.33 421.00 465.00 Z"/>
</g>
</svg>