<svg xmlns="http://www.w3.org/2000/svg" xmlns:v="https://svgstorm.com"
viewBox = "0 0 512 512"
width="512"
height="512">
<g fill="None" fill-opacity="0.0" stroke="#000000" stroke-opacity="0.01" stroke-width="0.3"><path d="
M 0.00 512.00 
L 49.00 512.00
C 47.55 510.83 44.78 509.95 43.00 511.00
C 34.21 503.34 39.59 485.51 38.00 474.00
C 51.01 461.63 75.06 470.81 94.00 468.00
C 94.00 434.67 94.00 401.33 94.00 368.00
C 85.98 368.51 81.53 365.60 76.75 361.25 C 71.96 356.91 69.51 350.61 69.67 343.33 C 69.83 336.05 74.28 330.98 79.92 325.92 C 85.55 320.86 95.46 325.64 94.00 313.00 C 92.54 300.36 94.70 289.66 94.00 278.00 C 93.30 266.34 92.32 261.21 97.90 254.90 C 103.48 248.59 112.25 251.69 122.00 251.00
C 124.16 239.58 121.46 238.45 123.00 226.00 C 124.54 213.55 119.32 192.75 126.24 185.23 C 133.15 177.71 131.22 179.71 140.00 180.00 C 148.79 180.28 146.18 169.81 145.00 164.00
C 148.63 163.15 149.35 160.18 152.00 159.00
C 153.18 155.35 153.19 143.65 152.00 140.00
C 144.20 140.10 144.60 125.13 146.13 118.08 C 147.66 111.04 157.41 105.27 167.00 108.00
C 165.55 85.96 168.93 55.16 167.00 34.00 C 165.07 12.84 173.24 4.00 191.00 0.00
L 0.00 0.00
L 0.00 512.00 Z"/>
</g>
<g fill="None" fill-opacity="0.0" stroke="#000000" stroke-opacity="1.00" stroke-width="0.3"><path d="
M 152.00 140.00 
C 161.10 139.89 160.42 129.79 160.00 123.00
C 176.00 123.00 192.00 123.00 208.00 123.00
C 203.98 137.95 213.59 152.45 230.00 148.00
C 230.00 158.33 230.00 168.67 230.00 179.00
C 206.67 179.00 183.33 179.00 160.00 179.00
C 159.91 171.37 162.35 159.97 152.00 159.00
C 149.35 160.18 148.63 163.15 145.00 164.00
C 146.18 169.81 148.79 180.28 140.00 180.00 C 131.22 179.71 133.15 177.71 126.24 185.23 C 119.32 192.75 124.54 213.55 123.00 226.00 C 121.46 238.45 124.16 239.58 123.00 251.00
C 112.25 251.69 103.48 248.59 97.90 254.90 C 92.32 261.21 93.30 266.34 94.00 278.00 C 94.70 289.66 92.54 300.36 94.00 313.00 C 95.46 325.64 85.55 320.86 79.92 325.92 C 74.28 330.98 69.83 336.05 69.67 343.33 C 69.51 350.61 71.96 356.91 76.75 361.25 C 81.53 365.60 85.98 368.51 94.00 368.00
C 94.00 401.33 94.00 434.67 94.00 468.00
C 75.06 470.81 51.01 461.63 38.00 474.00
C 39.59 485.51 34.21 503.34 43.00 511.00
C 44.78 509.95 47.55 510.83 49.00 512.00
L 467.00 512.00
C 475.48 507.22 473.48 497.73 474.00 486.00 C 474.52 474.27 470.26 466.30 458.00 468.00 C 445.74 469.70 430.53 466.73 418.00 468.00
C 418.00 434.67 418.00 401.33 418.00 368.00
C 425.97 368.63 430.54 365.45 435.25 361.25 C 439.97 357.06 442.61 350.33 442.33 343.33 C 442.05 336.33 437.65 329.47 431.70 325.30 C 425.75 321.13 416.13 324.84 418.00 312.00 C 419.87 299.16 417.15 289.71 418.00 278.00 C 418.85 266.29 419.66 261.33 414.10 254.90 C 408.54 248.47 398.85 251.70 389.00 251.00
C 389.73 242.10 388.03 237.31 389.00 228.00 C 389.97 218.69 387.14 215.81 389.00 205.00 C 390.86 194.19 388.06 179.79 376.77 179.79 C 365.47 179.79 365.88 177.03 366.00 167.00 C 366.12 156.97 366.84 153.16 366.00 144.00 C 365.16 134.84 367.90 129.70 366.78 120.78 C 365.66 111.85 356.24 105.29 345.00 108.00
C 346.58 86.08 342.89 56.12 345.00 35.00 C 347.11 13.88 339.52 4.43 322.00 0.00
L 318.00 0.00
C 301.04 2.73 291.33 17.05 295.00 36.00
C 269.00 36.00 243.00 36.00 217.00 36.00
C 220.90 17.17 210.90 2.58 194.00 0.00
L 191.00 0.00
C 173.24 4.00 165.07 12.84 167.00 34.00 C 168.93 55.16 165.55 85.96 167.00 108.00
C 157.41 105.27 147.66 111.04 146.13 118.08 C 144.60 125.13 144.20 140.10 152.00 140.00
M 202.00 24.00 
C 202.57 26.31 204.78 34.06 202.00 36.00
C 200.43 37.10 194.01 36.00 192.00 36.00 C 189.99 36.00 183.57 37.10 182.00 36.00
C 179.22 34.05 181.46 26.19 182.00 24.00
C 184.86 12.46 199.14 12.43 202.00 24.00
M 330.00 24.00 
C 330.57 26.31 332.78 34.06 330.00 36.00
C 328.43 37.10 322.01 36.00 320.00 36.00 C 317.99 36.00 311.57 37.10 310.00 36.00
C 307.22 34.05 309.46 26.19 310.00 24.00
C 312.86 12.46 327.14 12.44 330.00 24.00
M 215.00 65.00 
C 216.04 69.19 217.08 69.75 219.75 73.25 C 222.42 76.74 228.46 74.07 231.00 76.00
C 234.02 78.29 231.56 86.97 232.00 91.00 C 232.44 95.03 232.39 102.71 232.00 107.00
C 228.62 110.51 212.25 108.13 207.00 108.00 C 201.75 107.87 184.48 110.62 181.00 107.00
C 180.48 101.31 180.86 93.55 181.00 88.00 C 181.14 82.45 180.12 73.89 181.00 69.00 C 181.88 64.11 178.31 53.59 182.00 51.00
C 184.52 49.24 194.78 51.00 198.00 51.00 C 201.22 51.00 211.48 49.24 214.00 51.00
C 216.69 52.88 214.61 61.83 215.00 65.00
M 283.00 51.00 
C 283.00 54.33 283.00 57.67 283.00 61.00
C 265.00 61.00 247.00 61.00 229.00 61.00
C 229.00 57.67 229.00 54.33 229.00 51.00
C 247.00 51.00 265.00 51.00 283.00 51.00
M 330.00 108.00 
C 324.92 111.56 316.47 106.00 310.00 108.00 C 303.53 110.00 296.45 106.11 289.00 108.00 C 281.55 109.89 278.56 104.34 280.00 97.00 C 281.44 89.66 278.92 83.26 280.00 76.00
C 287.30 77.35 296.53 72.96 297.00 65.00
C 297.40 61.77 295.29 52.89 298.00 51.00
C 300.52 49.24 310.78 51.00 314.00 51.00 C 317.22 51.00 327.48 49.24 330.00 51.00
C 333.32 53.32 330.60 64.54 331.00 69.00 C 331.40 73.46 331.59 84.50 331.00 89.00 C 330.41 93.50 333.45 105.59 330.00 108.00
M 265.00 107.00 
C 263.57 109.05 248.38 108.98 247.00 107.00
C 244.59 103.55 248.19 96.35 247.00 92.00 C 245.81 87.65 247.89 80.60 247.00 76.00
C 253.00 76.00 259.00 76.00 265.00 76.00
C 265.00 86.33 265.00 96.67 265.00 107.00
M 289.00 123.00 
C 289.00 126.33 289.00 129.67 289.00 133.00
C 267.00 133.00 245.00 133.00 223.00 133.00
C 223.00 129.67 223.00 126.33 223.00 123.00
C 245.00 123.00 267.00 123.00 289.00 123.00
M 352.00 123.00 
C 352.00 141.67 352.00 160.33 352.00 179.00
C 328.67 179.00 305.33 179.00 282.00 179.00
C 282.00 168.67 282.00 158.33 282.00 148.00
C 298.40 152.46 308.02 137.96 304.00 123.00
C 320.00 123.00 336.00 123.00 352.00 123.00
M 267.00 148.00 
C 267.00 158.33 267.00 168.67 267.00 179.00
C 259.67 179.00 252.33 179.00 245.00 179.00
C 245.00 168.67 245.00 158.33 245.00 148.00
C 252.33 148.00 259.67 148.00 267.00 148.00
M 205.00 208.00 
C 207.36 217.54 214.91 220.76 225.00 219.00
C 225.00 229.67 225.00 240.33 225.00 251.00
C 196.00 251.00 167.00 251.00 138.00 251.00
C 134.68 248.68 137.40 237.46 137.00 233.00 C 136.60 228.54 136.41 217.50 137.00 213.00 C 137.59 208.50 134.55 196.41 138.00 194.00
C 141.44 191.59 149.52 194.82 154.00 194.00 C 158.48 193.18 166.27 193.99 171.00 194.00 C 175.73 194.01 182.56 192.98 187.00 194.00 C 191.44 195.02 200.46 191.52 204.00 194.00
C 206.69 195.88 204.61 204.83 205.00 208.00
M 292.00 204.00 
C 288.20 206.66 278.85 203.00 274.00 204.00 C 269.15 205.00 261.14 204.00 256.00 204.00 C 250.86 204.00 242.85 205.00 238.00 204.00 C 233.15 203.00 223.80 206.66 220.00 204.00
C 218.24 202.77 218.28 195.20 220.00 194.00
C 223.80 191.34 233.15 195.00 238.00 194.00 C 242.85 193.00 250.86 194.00 256.00 194.00 C 261.14 194.00 269.15 193.00 274.00 194.00 C 278.85 195.00 288.20 191.34 292.00 194.00
C 293.76 195.23 293.72 202.80 292.00 204.00
M 374.00 251.00 
C 369.20 254.36 359.20 249.55 353.00 251.00 C 346.80 252.45 337.80 250.33 331.00 251.00 C 324.20 251.67 316.06 250.65 309.00 251.00 C 301.94 251.35 294.13 250.74 287.00 251.00
C 287.00 240.33 287.00 229.67 287.00 219.00
C 295.37 220.29 306.84 218.28 307.00 208.00
C 307.45 204.39 305.46 197.54 308.00 195.00
C 311.01 191.98 318.39 194.44 323.00 194.00 C 327.61 193.56 335.13 193.77 340.00 194.00 C 344.87 194.23 352.39 192.96 357.00 194.00 C 361.61 195.04 370.36 191.46 374.00 194.00
C 377.32 196.32 374.60 207.54 375.00 212.00 C 375.40 216.46 375.59 227.50 375.00 232.00 C 374.41 236.50 377.45 248.59 374.00 251.00
M 272.00 219.00 
C 272.00 229.67 272.00 240.33 272.00 251.00
C 261.33 251.00 250.67 251.00 240.00 251.00
C 240.00 240.33 240.00 229.67 240.00 219.00
C 250.67 219.00 261.33 219.00 272.00 219.00
M 225.00 291.00 
C 227.65 292.86 226.00 302.52 226.00 306.00 C 226.00 309.48 227.46 319.54 225.00 322.00
C 221.32 325.68 212.56 322.10 207.00 323.00 C 201.44 323.90 193.06 322.68 187.00 323.00 C 180.94 323.32 173.16 323.04 167.00 323.00 C 160.84 322.96 152.92 323.42 147.00 323.00 C 141.08 322.58 132.18 324.08 127.00 323.00 C 121.82 321.92 110.75 325.93 108.00 322.00
C 105.11 317.87 109.27 309.32 108.00 304.00 C 106.73 298.68 108.66 290.80 108.00 285.00 C 107.34 279.20 108.50 271.94 108.00 266.00
C 135.33 266.00 162.67 266.00 190.00 266.00
C 190.18 273.91 188.09 285.36 196.70 289.30 C 205.31 293.25 215.62 289.87 225.00 291.00
M 307.00 266.00 
C 307.00 269.33 307.00 272.67 307.00 276.00
C 273.00 276.00 239.00 276.00 205.00 276.00
C 205.00 272.67 205.00 269.33 205.00 266.00
C 239.00 266.00 273.00 266.00 307.00 266.00
M 404.00 322.00 
C 401.30 325.85 391.17 322.03 386.00 323.00 C 380.83 323.97 371.92 322.64 366.00 323.00 C 360.08 323.36 352.17 323.00 346.00 323.00 C 339.83 323.00 332.08 323.37 326.00 323.00 C 319.92 322.63 311.61 324.00 306.00 323.00 C 300.39 322.00 290.75 325.75 287.00 322.00
C 284.67 319.67 285.76 310.44 286.00 307.00 C 286.24 303.56 284.22 292.95 287.00 291.00
C 291.05 288.17 302.00 292.17 307.00 291.00 C 312.00 289.83 318.00 290.30 320.30 284.30 C 322.60 278.30 322.04 272.55 322.00 266.00
C 349.33 266.00 376.67 266.00 404.00 266.00
C 404.00 284.67 404.00 303.33 404.00 322.00
M 272.00 322.00 
C 269.47 324.62 259.76 322.99 256.00 323.00 C 252.23 323.01 242.49 324.59 240.00 322.00
C 239.62 317.75 239.56 309.98 240.00 306.00 C 240.44 302.02 237.97 293.12 241.00 291.00
C 243.36 289.35 252.98 291.00 256.00 291.00 C 259.02 291.00 268.64 289.35 271.00 291.00
C 274.03 293.12 271.56 302.06 272.00 306.00 C 272.44 309.94 272.38 317.77 272.00 322.00
M 421.00 337.00 
C 434.10 340.24 423.82 356.67 412.00 353.00 C 400.18 349.33 386.24 354.66 374.00 353.00 C 361.76 351.34 348.38 353.76 336.00 353.00 C 323.62 352.24 311.44 353.31 299.00 353.00 C 286.56 352.69 273.45 353.10 261.00 353.00 C 248.55 352.90 235.31 352.95 223.00 353.00 C 210.69 353.05 198.02 352.75 186.00 353.00 C 173.98 353.25 159.45 352.42 148.00 353.00 C 136.55 353.58 120.05 351.69 110.00 353.00 C 99.95 354.31 80.28 353.29 85.78 341.78 C 91.28 330.27 108.32 339.11 119.00 337.00 C 129.68 334.89 145.33 337.97 157.00 337.00 C 168.67 336.03 181.84 337.40 194.00 337.00 C 206.16 336.60 219.60 337.14 232.00 337.00 C 244.40 336.86 257.55 336.97 270.00 337.00 C 282.45 337.03 294.53 336.76 307.00 337.00 C 319.47 337.24 332.54 336.41 345.00 337.00 C 357.46 337.59 370.70 335.67 383.00 337.00 C 395.30 338.33 409.09 334.05 421.00 337.00
M 168.00 368.00 
C 168.00 401.33 168.00 434.67 168.00 468.00
C 148.00 468.00 128.00 468.00 108.00 468.00
C 108.00 434.67 108.00 401.33 108.00 368.00
C 128.00 368.00 148.00 368.00 168.00 368.00
M 286.00 451.00 
C 276.84 450.46 277.65 461.58 278.00 468.00
C 263.33 468.00 248.67 468.00 234.00 468.00
C 235.90 452.50 231.47 433.11 234.00 418.00 C 236.53 402.89 250.49 397.83 264.22 401.78 C 277.96 405.73 274.80 427.13 286.00 431.00
C 298.23 430.43 292.82 408.68 287.08 401.92 C 281.35 395.16 272.49 385.76 261.78 385.22 C 251.06 384.68 238.33 386.62 230.25 395.25 C 222.17 403.87 218.17 413.29 219.00 426.00 C 219.83 438.71 218.38 454.97 219.00 468.00
C 208.48 469.36 203.02 466.19 192.00 468.00 C 180.98 469.81 182.61 458.97 183.00 450.00 C 183.39 441.03 182.82 432.04 183.00 423.00 C 183.18 413.96 182.91 405.13 183.00 396.00 C 183.09 386.87 182.93 377.18 183.00 368.00
C 231.67 368.00 280.33 368.00 329.00 368.00
C 329.01 376.94 328.99 386.09 329.00 395.00 C 329.01 403.91 328.99 413.17 329.00 422.00 C 329.01 430.83 328.97 440.36 329.00 449.00 C 329.03 457.64 331.80 469.30 321.00 468.00 C 310.20 466.70 303.43 468.98 293.00 468.00
C 293.09 461.79 294.69 451.39 286.00 451.00
M 404.00 368.00 
C 404.00 401.33 404.00 434.67 404.00 468.00
C 384.00 468.00 364.00 468.00 344.00 468.00
C 344.00 434.67 344.00 401.33 344.00 368.00
C 364.00 368.00 384.00 368.00 404.00 368.00
M 445.00 497.00 
C 314.33 497.00 183.67 497.00 53.00 497.00
C 53.00 492.33 53.00 487.67 53.00 483.00
C 183.67 483.00 314.33 483.00 445.00 483.00
C 449.67 483.00 454.33 483.00 459.00 483.00
C 459.00 487.67 459.00 492.33 459.00 497.00
C 454.33 497.00 449.67 497.00 445.00 497.00 Z"/>
</g>
<g fill="None" fill-opacity="0.0" stroke="#000000" stroke-opacity="0.01" stroke-width="0.3"><path d="
M 318.00 0.00 
L 194.00 0.00
C 210.90 2.58 220.90 17.17 217.00 36.00
C 243.00 36.00 269.00 36.00 295.00 36.00
C 291.33 17.05 301.04 2.73 318.00 0.00 Z"/>
</g>
<g fill="None" fill-opacity="0.0" stroke="#000000" stroke-opacity="0.01" stroke-width="0.3"><path d="
M 467.00 512.00 
L 512.00 512.00
L 512.00 0.00
L 322.00 0.00
C 339.52 4.43 347.11 13.88 345.00 35.00 C 342.89 56.12 346.58 86.08 345.00 108.00
C 356.24 105.29 365.66 111.85 366.78 120.78 C 367.90 129.70 365.16 134.84 366.00 144.00 C 366.84 153.16 366.12 156.97 366.00 167.00 C 365.88 177.03 365.47 179.79 376.77 179.79 C 388.06 179.79 390.86 194.19 389.00 205.00 C 387.14 215.81 389.97 218.69 389.00 228.00 C 388.03 237.31 389.73 242.10 389.00 251.00
C 398.85 251.70 408.54 248.47 414.10 254.90 C 419.66 261.33 418.85 266.29 418.00 278.00 C 417.15 289.71 419.87 299.16 418.00 312.00 C 416.13 324.84 425.75 321.13 431.70 325.30 C 437.65 329.47 442.05 336.33 442.33 343.33 C 442.61 350.33 439.97 357.06 435.25 361.25 C 430.54 365.45 425.97 368.63 418.00 368.00
C 418.00 401.33 418.00 434.67 418.00 468.00
C 430.53 466.73 445.74 469.70 458.00 468.00 C 470.26 466.30 474.52 474.27 474.00 486.00 C 473.48 497.73 475.48 507.22 467.00 512.00 Z"/>
</g>
<g fill="None" fill-opacity="0.0" stroke="#FAF0E0" stroke-opacity="1.00" stroke-width="0.3"><path d="
M 182.00 24.00 
C 181.51 27.94 182.37 32.05 182.00 36.00
C 183.57 37.10 189.99 36.00 192.00 36.00 C 194.01 36.00 200.43 37.10 202.00 36.00
C 201.63 32.05 202.49 27.94 202.00 24.00
C 199.14 12.43 184.86 12.46 182.00 24.00 Z"/>
</g>
<g fill="None" fill-opacity="0.0" stroke="#FAF0E0" stroke-opacity="1.00" stroke-width="0.3"><path d="
M 310.00 24.00 
C 309.51 27.94 310.37 32.05 310.00 36.00
C 311.57 37.10 317.99 36.00 320.00 36.00 C 322.01 36.00 328.43 37.10 330.00 36.00
C 329.63 32.05 330.49 27.94 330.00 24.00
C 327.14 12.44 312.86 12.46 310.00 24.00 Z"/>
</g>
<g fill="None" fill-opacity="0.0" stroke="#8B8781" stroke-opacity="1.00" stroke-width="0.3"><path d="
M 182.00 36.00 
C 182.37 32.05 181.51 27.94 182.00 24.00
C 181.46 26.19 179.22 34.05 182.00 36.00 Z"/>
</g>
<g fill="None" fill-opacity="0.0" stroke="#7B756A" stroke-opacity="1.00" stroke-width="0.3"><path d="
M 202.00 36.00 
C 204.78 34.06 202.57 26.31 202.00 24.00
C 202.49 27.94 201.63 32.05 202.00 36.00 Z"/>
</g>
<g fill="None" fill-opacity="0.0" stroke="#7B7873" stroke-opacity="1.00" stroke-width="0.3"><path d="
M 310.00 36.00 
C 310.37 32.05 309.51 27.94 310.00 24.00
C 309.46 26.19 307.22 34.05 310.00 36.00 Z"/>
</g>
<g fill="None" fill-opacity="0.0" stroke="#8B8477" stroke-opacity="1.00" stroke-width="0.3"><path d="
M 330.00 36.00 
C 332.78 34.06 330.57 26.31 330.00 24.00
C 330.49 27.94 329.63 32.05 330.00 36.00 Z"/>
</g>
<g fill="None" fill-opacity="0.0" stroke="#8B7E6B" stroke-opacity="1.00" stroke-width="0.3"><path d="
M 181.00 107.00 
C 181.00 107.05 182.00 107.00 182.00 107.00
C 183.67 88.48 180.74 69.55 182.00 51.00
C 178.31 53.59 181.88 64.11 181.00 69.00 C 180.12 73.89 181.14 82.45 181.00 88.00 C 180.86 93.55 180.48 101.31 181.00 107.00 Z"/>
</g>
<g fill="None" fill-opacity="0.0" stroke="#F9E1BF" stroke-opacity="1.00" stroke-width="0.3"><path d="
M 182.00 107.00 
C 198.33 107.00 214.67 107.00 231.00 107.00
C 230.08 96.75 231.69 86.27 231.00 76.00
C 228.46 74.07 222.42 76.74 219.75 73.25 C 217.08 69.75 216.04 69.19 215.00 65.00
C 214.00 60.94 213.67 55.74 214.00 51.00
C 211.48 49.24 201.22 51.00 198.00 51.00 C 194.78 51.00 184.52 49.24 182.00 51.00
C 180.74 69.55 183.67 88.48 182.00 107.00 Z"/>
</g>
<g fill="None" fill-opacity="0.0" stroke="#5F5649" stroke-opacity="1.00" stroke-width="0.3"><path d="
M 215.00 65.00 
C 214.61 61.83 216.69 52.88 214.00 51.00
C 213.67 55.74 214.00 60.94 215.00 65.00 Z"/>
</g>
<g fill="None" fill-opacity="0.0" stroke="#DDA181" stroke-opacity="1.00" stroke-width="0.3"><path d="
M 283.00 51.00 
C 265.00 51.00 247.00 51.00 229.00 51.00
C 229.00 54.33 229.00 57.67 229.00 61.00
C 247.00 61.00 265.00 61.00 283.00 61.00
C 283.00 57.67 283.00 54.33 283.00 51.00 Z"/>
</g>
<g fill="None" fill-opacity="0.0" stroke="#5F564A" stroke-opacity="1.00" stroke-width="0.3"><path d="
M 297.00 65.00 
C 298.00 60.94 298.33 55.74 298.00 51.00
C 295.29 52.89 297.40 61.77 297.00 65.00 Z"/>
</g>
<g fill="None" fill-opacity="0.0" stroke="#F7DEB9" stroke-opacity="1.00" stroke-width="0.3"><path d="
M 297.00 65.00 
C 296.53 72.96 287.30 77.35 280.00 76.00
C 278.92 83.26 281.44 89.66 280.00 97.00 C 278.56 104.34 281.55 109.89 289.00 108.00 C 296.45 106.11 303.53 110.00 310.00 108.00 C 316.47 106.00 324.92 111.56 330.00 108.00
C 330.00 89.00 330.00 70.00 330.00 51.00
C 327.48 49.24 317.22 51.00 314.00 51.00 C 310.78 51.00 300.52 49.24 298.00 51.00
C 298.33 55.74 298.00 60.94 297.00 65.00 Z"/>
</g>
<g fill="None" fill-opacity="0.0" stroke="#8C7B62" stroke-opacity="1.00" stroke-width="0.3"><path d="
M 330.00 108.00 
C 333.45 105.59 330.41 93.50 331.00 89.00 C 331.59 84.50 331.40 73.46 331.00 69.00 C 330.60 64.54 333.32 53.32 330.00 51.00
C 330.00 70.00 330.00 89.00 330.00 108.00 Z"/>
</g>
<g fill="None" fill-opacity="0.0" stroke="#B0A088" stroke-opacity="1.00" stroke-width="0.3"><path d="
M 231.00 107.00 
C 231.50 107.00 232.00 107.00 232.00 107.00
C 232.39 102.71 232.44 95.03 232.00 91.00 C 231.56 86.97 234.02 78.29 231.00 76.00
C 231.69 86.27 230.08 96.75 231.00 107.00 Z"/>
</g>
<g fill="None" fill-opacity="0.0" stroke="#FDF3E3" stroke-opacity="1.00" stroke-width="0.3"><path d="
M 247.00 107.00 
C 253.00 107.00 259.00 107.00 265.00 107.00
C 265.00 96.67 265.00 86.33 265.00 76.00
C 259.00 76.00 253.00 76.00 247.00 76.00
C 247.89 80.60 245.81 87.65 247.00 92.00 C 248.19 96.35 244.59 103.55 247.00 107.00 Z"/>
</g>
<g fill="None" fill-opacity="0.0" stroke="#62584B" stroke-opacity="1.00" stroke-width="0.3"><path d="
M 232.00 107.00 
C 232.00 107.00 231.50 107.00 231.00 107.00
C 214.67 107.00 198.33 107.00 182.00 107.00
C 182.00 107.00 181.00 107.05 181.00 107.00
C 184.48 110.62 201.75 107.87 207.00 108.00 C 212.25 108.13 228.62 110.51 232.00 107.00 Z"/>
</g>
<g fill="None" fill-opacity="0.0" stroke="#65615A" stroke-opacity="1.00" stroke-width="0.3"><path d="
M 265.00 107.00 
C 259.00 107.00 253.00 107.00 247.00 107.00
C 248.38 108.98 263.57 109.05 265.00 107.00 Z"/>
</g>
<g fill="None" fill-opacity="0.0" stroke="#FBF4EA" stroke-opacity="1.00" stroke-width="0.3"><path d="
M 152.00 140.00 
C 153.19 143.65 153.18 155.35 152.00 159.00
C 162.35 159.97 159.91 171.37 160.00 179.00
C 183.33 179.00 206.67 179.00 230.00 179.00
C 230.00 168.67 230.00 158.33 230.00 148.00
C 213.59 152.45 203.98 137.95 208.00 123.00
C 192.00 123.00 176.00 123.00 160.00 123.00
C 160.42 129.79 161.10 139.89 152.00 140.00 Z"/>
</g>
<g fill="None" fill-opacity="0.0" stroke="#E3A785" stroke-opacity="1.00" stroke-width="0.3"><path d="
M 289.00 123.00 
C 267.00 123.00 245.00 123.00 223.00 123.00
C 223.00 126.33 223.00 129.67 223.00 133.00
C 245.00 133.00 267.00 133.00 289.00 133.00
C 289.00 129.67 289.00 126.33 289.00 123.00 Z"/>
</g>
<g fill="None" fill-opacity="0.0" stroke="#FBF3E6" stroke-opacity="1.00" stroke-width="0.3"><path d="
M 352.00 123.00 
C 336.00 123.00 320.00 123.00 304.00 123.00
C 308.02 137.96 298.40 152.46 282.00 148.00
C 282.00 158.33 282.00 168.67 282.00 179.00
C 305.33 179.00 328.67 179.00 352.00 179.00
C 352.00 160.33 352.00 141.67 352.00 123.00 Z"/>
</g>
<g fill="None" fill-opacity="0.0" stroke="#FBE0B8" stroke-opacity="1.00" stroke-width="0.3"><path d="
M 267.00 148.00 
C 259.67 148.00 252.33 148.00 245.00 148.00
C 245.00 158.33 245.00 168.67 245.00 179.00
C 252.33 179.00 259.67 179.00 267.00 179.00
C 267.00 168.67 267.00 158.33 267.00 148.00 Z"/>
</g>
<g fill="None" fill-opacity="0.0" stroke="#847765" stroke-opacity="1.00" stroke-width="0.3"><path d="
M 138.00 251.00 
C 138.00 232.00 138.00 213.00 138.00 194.00
C 134.55 196.41 137.59 208.50 137.00 213.00 C 136.41 217.50 136.60 228.54 137.00 233.00 C 137.40 237.46 134.68 248.68 138.00 251.00 Z"/>
</g>
<g fill="None" fill-opacity="0.0" stroke="#F8E0BE" stroke-opacity="1.00" stroke-width="0.3"><path d="
M 138.00 251.00 
C 167.00 251.00 196.00 251.00 225.00 251.00
C 225.00 240.33 225.00 229.67 225.00 219.00
C 214.91 220.76 207.36 217.54 205.00 208.00
C 204.00 203.94 203.67 198.74 204.00 194.00
C 200.46 191.52 191.44 195.02 187.00 194.00 C 182.56 192.98 175.73 194.01 171.00 194.00 C 166.27 193.99 158.48 193.18 154.00 194.00 C 149.52 194.82 141.44 191.59 138.00 194.00
C 138.00 213.00 138.00 232.00 138.00 251.00 Z"/>
</g>
<g fill="None" fill-opacity="0.0" stroke="#736858" stroke-opacity="1.00" stroke-width="0.3"><path d="
M 205.00 208.00 
C 204.61 204.83 206.69 195.88 204.00 194.00
C 203.67 198.74 204.00 203.94 205.00 208.00 Z"/>
</g>
<g fill="None" fill-opacity="0.0" stroke="#7C5D4B" stroke-opacity="1.00" stroke-width="0.3"><path d="
M 220.00 204.00 
C 220.00 200.67 220.00 197.33 220.00 194.00
C 218.28 195.20 218.24 202.77 220.00 204.00 Z"/>
</g>
<g fill="None" fill-opacity="0.0" stroke="#E1A584" stroke-opacity="1.00" stroke-width="0.3"><path d="
M 220.00 204.00 
C 223.80 206.66 233.15 203.00 238.00 204.00 C 242.85 205.00 250.86 204.00 256.00 204.00 C 261.14 204.00 269.15 205.00 274.00 204.00 C 278.85 203.00 288.20 206.66 292.00 204.00
C 292.00 200.67 292.00 197.33 292.00 194.00
C 288.20 191.34 278.85 195.00 274.00 194.00 C 269.15 193.00 261.14 194.00 256.00 194.00 C 250.86 194.00 242.85 193.00 238.00 194.00 C 233.15 195.00 223.80 191.34 220.00 194.00
C 220.00 197.33 220.00 200.67 220.00 204.00 Z"/>
</g>
<g fill="None" fill-opacity="0.0" stroke="#78513E" stroke-opacity="1.00" stroke-width="0.3"><path d="
M 292.00 204.00 
C 293.72 202.80 293.76 195.23 292.00 194.00
C 292.00 197.33 292.00 200.67 292.00 204.00 Z"/>
</g>
<g fill="None" fill-opacity="0.0" stroke="#F8DFBB" stroke-opacity="1.00" stroke-width="0.3"><path d="
M 308.00 195.00 
C 306.65 196.93 307.55 205.76 307.00 208.00
C 306.84 218.28 295.37 220.29 287.00 219.00
C 287.00 229.67 287.00 240.33 287.00 251.00
C 294.13 250.74 301.94 251.35 309.00 251.00 C 316.06 250.65 324.20 251.67 331.00 251.00 C 337.80 250.33 346.80 252.45 353.00 251.00 C 359.20 249.55 369.20 254.36 374.00 251.00
C 374.00 232.00 374.00 213.00 374.00 194.00
C 370.36 191.46 361.61 195.04 357.00 194.00 C 352.39 192.96 344.87 194.23 340.00 194.00 C 335.13 193.77 327.61 193.56 323.00 194.00 C 318.39 194.44 311.01 191.98 308.00 195.00 Z"/>
</g>
<g fill="None" fill-opacity="0.0" stroke="#8A7960" stroke-opacity="1.00" stroke-width="0.3"><path d="
M 374.00 251.00 
C 377.45 248.59 374.41 236.50 375.00 232.00 C 375.59 227.50 375.40 216.46 375.00 212.00 C 374.60 207.54 377.32 196.32 374.00 194.00
C 374.00 213.00 374.00 232.00 374.00 251.00 Z"/>
</g>
<g fill="None" fill-opacity="0.0" stroke="#756959" stroke-opacity="1.00" stroke-width="0.3"><path d="
M 307.00 208.00 
C 307.55 205.76 306.65 196.93 308.00 195.00
C 305.46 197.54 307.45 204.39 307.00 208.00 Z"/>
</g>
<g fill="None" fill-opacity="0.0" stroke="#F6EDDF" stroke-opacity="1.00" stroke-width="0.3"><path d="
M 272.00 219.00 
C 261.33 219.00 250.67 219.00 240.00 219.00
C 240.00 229.67 240.00 240.33 240.00 251.00
C 250.67 251.00 261.33 251.00 272.00 251.00
C 272.00 240.33 272.00 229.67 272.00 219.00 Z"/>
</g>
<g fill="None" fill-opacity="0.0" stroke="#FCF5EB" stroke-opacity="1.00" stroke-width="0.3"><path d="
M 108.00 322.00 
C 147.00 322.00 186.00 322.00 225.00 322.00
C 225.00 311.67 225.00 301.33 225.00 291.00
C 215.62 289.87 205.31 293.25 196.70 289.30 C 188.09 285.36 190.18 273.91 190.00 266.00
C 162.67 266.00 135.33 266.00 108.00 266.00
C 108.50 271.94 107.34 279.20 108.00 285.00 C 108.66 290.80 106.73 298.68 108.00 304.00 C 109.27 309.32 105.11 317.87 108.00 322.00 Z"/>
</g>
<g fill="None" fill-opacity="0.0" stroke="#E6AA88" stroke-opacity="1.00" stroke-width="0.3"><path d="
M 307.00 266.00 
C 273.00 266.00 239.00 266.00 205.00 266.00
C 205.00 269.33 205.00 272.67 205.00 276.00
C 239.00 276.00 273.00 276.00 307.00 276.00
C 307.00 272.67 307.00 269.33 307.00 266.00 Z"/>
</g>
<g fill="None" fill-opacity="0.0" stroke="#FCF5E9" stroke-opacity="1.00" stroke-width="0.3"><path d="
M 287.00 291.00 
C 287.00 301.33 287.00 311.67 287.00 322.00
C 326.00 322.00 365.00 322.00 404.00 322.00
C 404.00 303.33 404.00 284.67 404.00 266.00
C 376.67 266.00 349.33 266.00 322.00 266.00
C 322.04 272.55 322.60 278.30 320.30 284.30 C 318.00 290.30 312.00 289.83 307.00 291.00 C 302.00 292.17 291.05 288.17 287.00 291.00 Z"/>
</g>
<g fill="None" fill-opacity="0.0" stroke="#343230" stroke-opacity="1.00" stroke-width="0.3"><path d="
M 225.00 322.00 
C 227.46 319.54 226.00 309.48 226.00 306.00 C 226.00 302.52 227.65 292.86 225.00 291.00
C 225.00 301.33 225.00 311.67 225.00 322.00 Z"/>
</g>
<g fill="None" fill-opacity="0.0" stroke="#C8B59A" stroke-opacity="1.00" stroke-width="0.3"><path d="
M 240.00 322.00 
C 240.00 322.04 241.00 322.00 241.00 322.00
C 241.93 311.75 240.30 301.27 241.00 291.00
C 237.97 293.12 240.44 302.02 240.00 306.00 C 239.56 309.98 239.62 317.75 240.00 322.00 Z"/>
</g>
<g fill="None" fill-opacity="0.0" stroke="#FBE0B9" stroke-opacity="1.00" stroke-width="0.3"><path d="
M 241.00 322.00 
C 251.00 322.00 261.00 322.00 271.00 322.00
C 270.07 311.75 271.70 301.27 271.00 291.00
C 268.64 289.35 259.02 291.00 256.00 291.00 C 252.98 291.00 243.36 289.35 241.00 291.00
C 240.30 301.27 241.93 311.75 241.00 322.00 Z"/>
</g>
<g fill="None" fill-opacity="0.0" stroke="#CAB28D" stroke-opacity="1.00" stroke-width="0.3"><path d="
M 271.00 322.00 
C 271.50 322.00 272.00 322.00 272.00 322.00
C 272.38 317.77 272.44 309.94 272.00 306.00 C 271.56 302.06 274.03 293.12 271.00 291.00
C 271.70 301.27 270.07 311.75 271.00 322.00 Z"/>
</g>
<g fill="None" fill-opacity="0.0" stroke="#343230" stroke-opacity="1.00" stroke-width="0.3"><path d="
M 287.00 322.00 
C 287.00 311.67 287.00 301.33 287.00 291.00
C 284.22 292.95 286.24 303.56 286.00 307.00 C 285.76 310.44 284.67 319.67 287.00 322.00 Z"/>
</g>
<g fill="None" fill-opacity="0.0" stroke="#64615D" stroke-opacity="1.00" stroke-width="0.3"><path d="
M 225.00 322.00 
C 186.00 322.00 147.00 322.00 108.00 322.00
C 110.75 325.93 121.82 321.92 127.00 323.00 C 132.18 324.08 141.08 322.58 147.00 323.00 C 152.92 323.42 160.84 322.96 167.00 323.00 C 173.16 323.04 180.94 323.32 187.00 323.00 C 193.06 322.68 201.44 323.90 207.00 323.00 C 212.56 322.10 221.32 325.68 225.00 322.00 Z"/>
</g>
<g fill="None" fill-opacity="0.0" stroke="#635849" stroke-opacity="1.00" stroke-width="0.3"><path d="
M 272.00 322.00 
C 272.00 322.00 271.50 322.00 271.00 322.00
C 261.00 322.00 251.00 322.00 241.00 322.00
C 241.00 322.00 240.00 322.04 240.00 322.00
C 242.49 324.59 252.23 323.01 256.00 323.00 C 259.76 322.99 269.47 324.62 272.00 322.00 Z"/>
</g>
<g fill="None" fill-opacity="0.0" stroke="#65615D" stroke-opacity="1.00" stroke-width="0.3"><path d="
M 404.00 322.00 
C 365.00 322.00 326.00 322.00 287.00 322.00
C 290.75 325.75 300.39 322.00 306.00 323.00 C 311.61 324.00 319.92 322.63 326.00 323.00 C 332.08 323.37 339.83 323.00 346.00 323.00 C 352.17 323.00 360.08 323.36 366.00 323.00 C 371.92 322.64 380.83 323.97 386.00 323.00 C 391.17 322.03 401.30 325.85 404.00 322.00 Z"/>
</g>
<g fill="None" fill-opacity="0.0" stroke="#E1A787" stroke-opacity="1.00" stroke-width="0.3"><path d="
M 421.00 337.00 
C 409.09 334.05 395.30 338.33 383.00 337.00 C 370.70 335.67 357.46 337.59 345.00 337.00 C 332.54 336.41 319.47 337.24 307.00 337.00 C 294.53 336.76 282.45 337.03 270.00 337.00 C 257.55 336.97 244.40 336.86 232.00 337.00 C 219.60 337.14 206.16 336.60 194.00 337.00 C 181.84 337.40 168.67 336.03 157.00 337.00 C 145.33 337.97 129.68 334.89 119.00 337.00 C 108.32 339.11 91.28 330.27 85.78 341.78 C 80.28 353.29 99.95 354.31 110.00 353.00 C 120.05 351.69 136.55 353.58 148.00 353.00 C 159.45 352.42 173.98 353.25 186.00 353.00 C 198.02 352.75 210.69 353.05 223.00 353.00 C 235.31 352.95 248.55 352.90 261.00 353.00 C 273.45 353.10 286.56 352.69 299.00 353.00 C 311.44 353.31 323.62 352.24 336.00 353.00 C 348.38 353.76 361.76 351.34 374.00 353.00 C 386.24 354.66 400.18 349.33 412.00 353.00 C 423.82 356.67 434.10 340.24 421.00 337.00 Z"/>
</g>
<g fill="None" fill-opacity="0.0" stroke="#FBF4EA" stroke-opacity="1.00" stroke-width="0.3"><path d="
M 168.00 368.00 
C 148.00 368.00 128.00 368.00 108.00 368.00
C 108.00 401.33 108.00 434.67 108.00 468.00
C 128.00 468.00 148.00 468.00 168.00 468.00
C 168.00 434.67 168.00 401.33 168.00 368.00 Z"/>
</g>
<g fill="None" fill-opacity="0.0" stroke="#F7DEBB" stroke-opacity="1.00" stroke-width="0.3"><path d="
M 286.00 431.00 
C 286.00 437.67 286.00 444.33 286.00 451.00
C 294.69 451.39 293.09 461.79 293.00 468.00
C 303.43 468.98 310.20 466.70 321.00 468.00 C 331.80 469.30 329.03 457.64 329.00 449.00 C 328.97 440.36 329.01 430.83 329.00 422.00 C 328.99 413.17 329.01 403.91 329.00 395.00 C 328.99 386.09 329.01 376.94 329.00 368.00
C 280.33 368.00 231.67 368.00 183.00 368.00
C 182.93 377.18 183.09 386.87 183.00 396.00 C 182.91 405.13 183.18 413.96 183.00 423.00 C 182.82 432.04 183.39 441.03 183.00 450.00 C 182.61 458.97 180.98 469.81 192.00 468.00 C 203.02 466.19 208.48 469.36 219.00 468.00
C 218.38 454.97 219.83 438.71 219.00 426.00 C 218.17 413.29 222.17 403.87 230.25 395.25 C 238.33 386.62 251.06 384.68 261.78 385.22 C 272.49 385.76 281.35 395.16 287.08 401.92 C 292.82 408.68 298.23 430.43 286.00 431.00 Z"/>
</g>
<g fill="None" fill-opacity="0.0" stroke="#FBF3E6" stroke-opacity="1.00" stroke-width="0.3"><path d="
M 404.00 368.00 
C 384.00 368.00 364.00 368.00 344.00 368.00
C 344.00 401.33 344.00 434.67 344.00 468.00
C 364.00 468.00 384.00 468.00 404.00 468.00
C 404.00 434.67 404.00 401.33 404.00 368.00 Z"/>
</g>
<g fill="None" fill-opacity="0.0" stroke="#E3A583" stroke-opacity="1.00" stroke-width="0.3"><path d="
M 286.00 451.00 
C 286.00 444.33 286.00 437.67 286.00 431.00
C 274.80 427.13 277.96 405.73 264.22 401.78 C 250.49 397.83 236.53 402.89 234.00 418.00 C 231.47 433.11 235.90 452.50 234.00 468.00
C 248.67 468.00 263.33 468.00 278.00 468.00
C 277.65 461.58 276.84 450.46 286.00 451.00 Z"/>
</g>
<g fill="None" fill-opacity="0.0" stroke="#9FACBA" stroke-opacity="1.00" stroke-width="0.3"><path d="
M 445.00 497.00 
C 445.00 492.33 445.00 487.67 445.00 483.00
C 314.33 483.00 183.67 483.00 53.00 483.00
C 53.00 487.67 53.00 492.33 53.00 497.00
C 183.67 497.00 314.33 497.00 445.00 497.00 Z"/>
</g>
<g fill="None" fill-opacity="0.0" stroke="#7B8C99" stroke-opacity="1.00" stroke-width="0.3"><path d="
M 445.00 497.00 
C 449.67 497.00 454.33 497.00 459.00 497.00
C 459.00 492.33 459.00 487.67 459.00 483.00
C 454.33 483.00 449.67 483.00 445.00 483.00
C 445.00 487.67 445.00 492.33 445.00 497.00 Z"/>
</g>
<g fill="#000000" fill-opacity="0.01" stroke="None">
<path d="
M 0.00 512.00 
L 49.00 512.00
C 47.55 510.83 44.78 509.95 43.00 511.00
C 34.21 503.34 39.59 485.51 38.00 474.00
C 51.01 461.63 75.06 470.81 94.00 468.00
C 94.00 434.67 94.00 401.33 94.00 368.00
C 85.98 368.51 81.53 365.60 76.75 361.25 C 71.96 356.91 69.51 350.61 69.67 343.33 C 69.83 336.05 74.28 330.98 79.92 325.92 C 85.55 320.86 95.46 325.64 94.00 313.00 C 92.54 300.36 94.70 289.66 94.00 278.00 C 93.30 266.34 92.32 261.21 97.90 254.90 C 103.48 248.59 112.25 251.69 122.00 251.00
C 124.16 239.58 121.46 238.45 123.00 226.00 C 124.54 213.55 119.32 192.75 126.24 185.23 C 133.15 177.71 131.22 179.71 140.00 180.00 C 148.79 180.28 146.18 169.81 145.00 164.00
C 148.63 163.15 149.35 160.18 152.00 159.00
C 153.18 155.35 153.19 143.65 152.00 140.00
C 144.20 140.10 144.60 125.13 146.13 118.08 C 147.66 111.04 157.41 105.27 167.00 108.00
C 165.55 85.96 168.93 55.16 167.00 34.00 C 165.07 12.84 173.24 4.00 191.00 0.00
L 0.00 0.00
L 0.00 512.00 Z"/>
</g>
<g fill="#000000" fill-opacity="1.00" stroke="None">
<path d="
M 152.00 140.00 
C 161.10 139.89 160.42 129.79 160.00 123.00
C 176.00 123.00 192.00 123.00 208.00 123.00
C 203.98 137.95 213.59 152.45 230.00 148.00
C 230.00 158.33 230.00 168.67 230.00 179.00
C 206.67 179.00 183.33 179.00 160.00 179.00
C 159.91 171.37 162.35 159.97 152.00 159.00
C 149.35 160.18 148.63 163.15 145.00 164.00
C 146.18 169.81 148.79 180.28 140.00 180.00 C 131.22 179.71 133.15 177.71 126.24 185.23 C 119.32 192.75 124.54 213.55 123.00 226.00 C 121.46 238.45 124.16 239.58 123.00 251.00
C 112.25 251.69 103.48 248.59 97.90 254.90 C 92.32 261.21 93.30 266.34 94.00 278.00 C 94.70 289.66 92.54 300.36 94.00 313.00 C 95.46 325.64 85.55 320.86 79.92 325.92 C 74.28 330.98 69.83 336.05 69.67 343.33 C 69.51 350.61 71.96 356.91 76.75 361.25 C 81.53 365.60 85.98 368.51 94.00 368.00
C 94.00 401.33 94.00 434.67 94.00 468.00
C 75.06 470.81 51.01 461.63 38.00 474.00
C 39.59 485.51 34.21 503.34 43.00 511.00
C 44.78 509.95 47.55 510.83 49.00 512.00
L 467.00 512.00
C 475.48 507.22 473.48 497.73 474.00 486.00 C 474.52 474.27 470.26 466.30 458.00 468.00 C 445.74 469.70 430.53 466.73 418.00 468.00
C 418.00 434.67 418.00 401.33 418.00 368.00
C 425.97 368.63 430.54 365.45 435.25 361.25 C 439.97 357.06 442.61 350.33 442.33 343.33 C 442.05 336.33 437.65 329.47 431.70 325.30 C 425.75 321.13 416.13 324.84 418.00 312.00 C 419.87 299.16 417.15 289.71 418.00 278.00 C 418.85 266.29 419.66 261.33 414.10 254.90 C 408.54 248.47 398.85 251.70 389.00 251.00
C 389.73 242.10 388.03 237.31 389.00 228.00 C 389.97 218.69 387.14 215.81 389.00 205.00 C 390.86 194.19 388.06 179.79 376.77 179.79 C 365.47 179.79 365.88 177.03 366.00 167.00 C 366.12 156.97 366.84 153.16 366.00 144.00 C 365.16 134.84 367.90 129.70 366.78 120.78 C 365.66 111.85 356.24 105.29 345.00 108.00
C 346.58 86.08 342.89 56.12 345.00 35.00 C 347.11 13.88 339.52 4.43 322.00 0.00
L 318.00 0.00
C 301.04 2.73 291.33 17.05 295.00 36.00
C 269.00 36.00 243.00 36.00 217.00 36.00
C 220.90 17.17 210.90 2.58 194.00 0.00
L 191.00 0.00
C 173.24 4.00 165.07 12.84 167.00 34.00 C 168.93 55.16 165.55 85.96 167.00 108.00
C 157.41 105.27 147.66 111.04 146.13 118.08 C 144.60 125.13 144.20 140.10 152.00 140.00
M 202.00 24.00 
C 202.57 26.31 204.78 34.06 202.00 36.00
C 200.43 37.10 194.01 36.00 192.00 36.00 C 189.99 36.00 183.57 37.10 182.00 36.00
C 179.22 34.05 181.46 26.19 182.00 24.00
C 184.86 12.46 199.14 12.43 202.00 24.00
M 330.00 24.00 
C 330.57 26.31 332.78 34.06 330.00 36.00
C 328.43 37.10 322.01 36.00 320.00 36.00 C 317.99 36.00 311.57 37.10 310.00 36.00
C 307.22 34.05 309.46 26.19 310.00 24.00
C 312.86 12.46 327.14 12.44 330.00 24.00
M 215.00 65.00 
C 216.04 69.19 217.08 69.75 219.75 73.25 C 222.42 76.74 228.46 74.07 231.00 76.00
C 234.02 78.29 231.56 86.97 232.00 91.00 C 232.44 95.03 232.39 102.71 232.00 107.00
C 228.62 110.51 212.25 108.13 207.00 108.00 C 201.75 107.87 184.48 110.62 181.00 107.00
C 180.48 101.31 180.86 93.55 181.00 88.00 C 181.14 82.45 180.12 73.89 181.00 69.00 C 181.88 64.11 178.31 53.59 182.00 51.00
C 184.52 49.24 194.78 51.00 198.00 51.00 C 201.22 51.00 211.48 49.24 214.00 51.00
C 216.69 52.88 214.61 61.83 215.00 65.00
M 283.00 51.00 
C 283.00 54.33 283.00 57.67 283.00 61.00
C 265.00 61.00 247.00 61.00 229.00 61.00
C 229.00 57.67 229.00 54.33 229.00 51.00
C 247.00 51.00 265.00 51.00 283.00 51.00
M 330.00 108.00 
C 324.92 111.56 316.47 106.00 310.00 108.00 C 303.53 110.00 296.45 106.11 289.00 108.00 C 281.55 109.89 278.56 104.34 280.00 97.00 C 281.44 89.66 278.92 83.26 280.00 76.00
C 287.30 77.35 296.53 72.96 297.00 65.00
C 297.40 61.77 295.29 52.89 298.00 51.00
C 300.52 49.24 310.78 51.00 314.00 51.00 C 317.22 51.00 327.48 49.24 330.00 51.00
C 333.32 53.32 330.60 64.54 331.00 69.00 C 331.40 73.46 331.59 84.50 331.00 89.00 C 330.41 93.50 333.45 105.59 330.00 108.00
M 265.00 107.00 
C 263.57 109.05 248.38 108.98 247.00 107.00
C 244.59 103.55 248.19 96.35 247.00 92.00 C 245.81 87.65 247.89 80.60 247.00 76.00
C 253.00 76.00 259.00 76.00 265.00 76.00
C 265.00 86.33 265.00 96.67 265.00 107.00
M 289.00 123.00 
C 289.00 126.33 289.00 129.67 289.00 133.00
C 267.00 133.00 245.00 133.00 223.00 133.00
C 223.00 129.67 223.00 126.33 223.00 123.00
C 245.00 123.00 267.00 123.00 289.00 123.00
M 352.00 123.00 
C 352.00 141.67 352.00 160.33 352.00 179.00
C 328.67 179.00 305.33 179.00 282.00 179.00
C 282.00 168.67 282.00 158.33 282.00 148.00
C 298.40 152.46 308.02 137.96 304.00 123.00
C 320.00 123.00 336.00 123.00 352.00 123.00
M 267.00 148.00 
C 267.00 158.33 267.00 168.67 267.00 179.00
C 259.67 179.00 252.33 179.00 245.00 179.00
C 245.00 168.67 245.00 158.33 245.00 148.00
C 252.33 148.00 259.67 148.00 267.00 148.00
M 205.00 208.00 
C 207.36 217.54 214.91 220.76 225.00 219.00
C 225.00 229.67 225.00 240.33 225.00 251.00
C 196.00 251.00 167.00 251.00 138.00 251.00
C 134.68 248.68 137.40 237.46 137.00 233.00 C 136.60 228.54 136.41 217.50 137.00 213.00 C 137.59 208.50 134.55 196.41 138.00 194.00
C 141.44 191.59 149.52 194.82 154.00 194.00 C 158.48 193.18 166.27 193.99 171.00 194.00 C 175.73 194.01 182.56 192.98 187.00 194.00 C 191.44 195.02 200.46 191.52 204.00 194.00
C 206.69 195.88 204.61 204.83 205.00 208.00
M 292.00 204.00 
C 288.20 206.66 278.85 203.00 274.00 204.00 C 269.15 205.00 261.14 204.00 256.00 204.00 C 250.86 204.00 242.85 205.00 238.00 204.00 C 233.15 203.00 223.80 206.66 220.00 204.00
C 218.24 202.77 218.28 195.20 220.00 194.00
C 223.80 191.34 233.15 195.00 238.00 194.00 C 242.85 193.00 250.86 194.00 256.00 194.00 C 261.14 194.00 269.15 193.00 274.00 194.00 C 278.85 195.00 288.20 191.34 292.00 194.00
C 293.76 195.23 293.72 202.80 292.00 204.00
M 374.00 251.00 
C 369.20 254.36 359.20 249.55 353.00 251.00 C 346.80 252.45 337.80 250.33 331.00 251.00 C 324.20 251.67 316.06 250.65 309.00 251.00 C 301.94 251.35 294.13 250.74 287.00 251.00
C 287.00 240.33 287.00 229.67 287.00 219.00
C 295.37 220.29 306.84 218.28 307.00 208.00
C 307.45 204.39 305.46 197.54 308.00 195.00
C 311.01 191.98 318.39 194.44 323.00 194.00 C 327.61 193.56 335.13 193.77 340.00 194.00 C 344.87 194.23 352.39 192.96 357.00 194.00 C 361.61 195.04 370.36 191.46 374.00 194.00
C 377.32 196.32 374.60 207.54 375.00 212.00 C 375.40 216.46 375.59 227.50 375.00 232.00 C 374.41 236.50 377.45 248.59 374.00 251.00
M 272.00 219.00 
C 272.00 229.67 272.00 240.33 272.00 251.00
C 261.33 251.00 250.67 251.00 240.00 251.00
C 240.00 240.33 240.00 229.67 240.00 219.00
C 250.67 219.00 261.33 219.00 272.00 219.00
M 225.00 291.00 
C 227.65 292.86 226.00 302.52 226.00 306.00 C 226.00 309.48 227.46 319.54 225.00 322.00
C 221.32 325.68 212.56 322.10 207.00 323.00 C 201.44 323.90 193.06 322.68 187.00 323.00 C 180.94 323.32 173.16 323.04 167.00 323.00 C 160.84 322.96 152.92 323.42 147.00 323.00 C 141.08 322.58 132.18 324.08 127.00 323.00 C 121.82 321.92 110.75 325.93 108.00 322.00
C 105.11 317.87 109.27 309.32 108.00 304.00 C 106.73 298.68 108.66 290.80 108.00 285.00 C 107.34 279.20 108.50 271.94 108.00 266.00
C 135.33 266.00 162.67 266.00 190.00 266.00
C 190.18 273.91 188.09 285.36 196.70 289.30 C 205.31 293.25 215.62 289.87 225.00 291.00
M 307.00 266.00 
C 307.00 269.33 307.00 272.67 307.00 276.00
C 273.00 276.00 239.00 276.00 205.00 276.00
C 205.00 272.67 205.00 269.33 205.00 266.00
C 239.00 266.00 273.00 266.00 307.00 266.00
M 404.00 322.00 
C 401.30 325.85 391.17 322.03 386.00 323.00 C 380.83 323.97 371.92 322.64 366.00 323.00 C 360.08 323.36 352.17 323.00 346.00 323.00 C 339.83 323.00 332.08 323.37 326.00 323.00 C 319.92 322.63 311.61 324.00 306.00 323.00 C 300.39 322.00 290.75 325.75 287.00 322.00
C 284.67 319.67 285.76 310.44 286.00 307.00 C 286.24 303.56 284.22 292.95 287.00 291.00
C 291.05 288.17 302.00 292.17 307.00 291.00 C 312.00 289.83 318.00 290.30 320.30 284.30 C 322.60 278.30 322.04 272.55 322.00 266.00
C 349.33 266.00 376.67 266.00 404.00 266.00
C 404.00 284.67 404.00 303.33 404.00 322.00
M 272.00 322.00 
C 269.47 324.62 259.76 322.99 256.00 323.00 C 252.23 323.01 242.49 324.59 240.00 322.00
C 239.62 317.75 239.56 309.98 240.00 306.00 C 240.44 302.02 237.97 293.12 241.00 291.00
C 243.36 289.35 252.98 291.00 256.00 291.00 C 259.02 291.00 268.64 289.35 271.00 291.00
C 274.03 293.12 271.56 302.06 272.00 306.00 C 272.44 309.94 272.38 317.77 272.00 322.00
M 421.00 337.00 
C 434.10 340.24 423.82 356.67 412.00 353.00 C 400.18 349.33 386.24 354.66 374.00 353.00 C 361.76 351.34 348.38 353.76 336.00 353.00 C 323.62 352.24 311.44 353.31 299.00 353.00 C 286.56 352.69 273.45 353.10 261.00 353.00 C 248.55 352.90 235.31 352.95 223.00 353.00 C 210.69 353.05 198.02 352.75 186.00 353.00 C 173.98 353.25 159.45 352.42 148.00 353.00 C 136.55 353.58 120.05 351.69 110.00 353.00 C 99.95 354.31 80.28 353.29 85.78 341.78 C 91.28 330.27 108.32 339.11 119.00 337.00 C 129.68 334.89 145.33 337.97 157.00 337.00 C 168.67 336.03 181.84 337.40 194.00 337.00 C 206.16 336.60 219.60 337.14 232.00 337.00 C 244.40 336.86 257.55 336.97 270.00 337.00 C 282.45 337.03 294.53 336.76 307.00 337.00 C 319.47 337.24 332.54 336.41 345.00 337.00 C 357.46 337.59 370.70 335.67 383.00 337.00 C 395.30 338.33 409.09 334.05 421.00 337.00
M 168.00 368.00 
C 168.00 401.33 168.00 434.67 168.00 468.00
C 148.00 468.00 128.00 468.00 108.00 468.00
C 108.00 434.67 108.00 401.33 108.00 368.00
C 128.00 368.00 148.00 368.00 168.00 368.00
M 286.00 451.00 
C 276.84 450.46 277.65 461.58 278.00 468.00
C 263.33 468.00 248.67 468.00 234.00 468.00
C 235.90 452.50 231.47 433.11 234.00 418.00 C 236.53 402.89 250.49 397.83 264.22 401.78 C 277.96 405.73 274.80 427.13 286.00 431.00
C 298.23 430.43 292.82 408.68 287.08 401.92 C 281.35 395.16 272.49 385.76 261.78 385.22 C 251.06 384.68 238.33 386.62 230.25 395.25 C 222.17 403.87 218.17 413.29 219.00 426.00 C 219.83 438.71 218.38 454.97 219.00 468.00
C 208.48 469.36 203.02 466.19 192.00 468.00 C 180.98 469.81 182.61 458.97 183.00 450.00 C 183.39 441.03 182.82 432.04 183.00 423.00 C 183.18 413.96 182.91 405.13 183.00 396.00 C 183.09 386.87 182.93 377.18 183.00 368.00
C 231.67 368.00 280.33 368.00 329.00 368.00
C 329.01 376.94 328.99 386.09 329.00 395.00 C 329.01 403.91 328.99 413.17 329.00 422.00 C 329.01 430.83 328.97 440.36 329.00 449.00 C 329.03 457.64 331.80 469.30 321.00 468.00 C 310.20 466.70 303.43 468.98 293.00 468.00
C 293.09 461.79 294.69 451.39 286.00 451.00
M 404.00 368.00 
C 404.00 401.33 404.00 434.67 404.00 468.00
C 384.00 468.00 364.00 468.00 344.00 468.00
C 344.00 434.67 344.00 401.33 344.00 368.00
C 364.00 368.00 384.00 368.00 404.00 368.00
M 445.00 497.00 
C 314.33 497.00 183.67 497.00 53.00 497.00
C 53.00 492.33 53.00 487.67 53.00 483.00
C 183.67 483.00 314.33 483.00 445.00 483.00
C 449.67 483.00 454.33 483.00 459.00 483.00
C 459.00 487.67 459.00 492.33 459.00 497.00
C 454.33 497.00 449.67 497.00 445.00 497.00 Z"/>
</g>
<g fill="#000000" fill-opacity="0.01" stroke="None">
<path d="
M 318.00 0.00 
L 194.00 0.00
C 210.90 2.58 220.90 17.17 217.00 36.00
C 243.00 36.00 269.00 36.00 295.00 36.00
C 291.33 17.05 301.04 2.73 318.00 0.00 Z"/>
</g>
<g fill="#000000" fill-opacity="0.01" stroke="None">
<path d="
M 467.00 512.00 
L 512.00 512.00
L 512.00 0.00
L 322.00 0.00
C 339.52 4.43 347.11 13.88 345.00 35.00 C 342.89 56.12 346.58 86.08 345.00 108.00
C 356.24 105.29 365.66 111.85 366.78 120.78 C 367.90 129.70 365.16 134.84 366.00 144.00 C 366.84 153.16 366.12 156.97 366.00 167.00 C 365.88 177.03 365.47 179.79 376.77 179.79 C 388.06 179.79 390.86 194.19 389.00 205.00 C 387.14 215.81 389.97 218.69 389.00 228.00 C 388.03 237.31 389.73 242.10 389.00 251.00
C 398.85 251.70 408.54 248.47 414.10 254.90 C 419.66 261.33 418.85 266.29 418.00 278.00 C 417.15 289.71 419.87 299.16 418.00 312.00 C 416.13 324.84 425.75 321.13 431.70 325.30 C 437.65 329.47 442.05 336.33 442.33 343.33 C 442.61 350.33 439.97 357.06 435.25 361.25 C 430.54 365.45 425.97 368.63 418.00 368.00
C 418.00 401.33 418.00 434.67 418.00 468.00
C 430.53 466.73 445.74 469.70 458.00 468.00 C 470.26 466.30 474.52 474.27 474.00 486.00 C 473.48 497.73 475.48 507.22 467.00 512.00 Z"/>
</g>
<g fill="#FAF0E0" fill-opacity="1.00" stroke="None">
<path d="
M 182.00 24.00 
C 181.51 27.94 182.37 32.05 182.00 36.00
C 183.57 37.10 189.99 36.00 192.00 36.00 C 194.01 36.00 200.43 37.10 202.00 36.00
C 201.63 32.05 202.49 27.94 202.00 24.00
C 199.14 12.43 184.86 12.46 182.00 24.00 Z"/>
</g>
<g fill="#FAF0E0" fill-opacity="1.00" stroke="None">
<path d="
M 310.00 24.00 
C 309.51 27.94 310.37 32.05 310.00 36.00
C 311.57 37.10 317.99 36.00 320.00 36.00 C 322.01 36.00 328.43 37.10 330.00 36.00
C 329.63 32.05 330.49 27.94 330.00 24.00
C 327.14 12.44 312.86 12.46 310.00 24.00 Z"/>
</g>
<g fill="#8B8781" fill-opacity="1.00" stroke="None">
<path d="
M 182.00 36.00 
C 182.37 32.05 181.51 27.94 182.00 24.00
C 181.46 26.19 179.22 34.05 182.00 36.00 Z"/>
</g>
<g fill="#7B756A" fill-opacity="1.00" stroke="None">
<path d="
M 202.00 36.00 
C 204.78 34.06 202.57 26.31 202.00 24.00
C 202.49 27.94 201.63 32.05 202.00 36.00 Z"/>
</g>
<g fill="#7B7873" fill-opacity="1.00" stroke="None">
<path d="
M 310.00 36.00 
C 310.37 32.05 309.51 27.94 310.00 24.00
C 309.46 26.19 307.22 34.05 310.00 36.00 Z"/>
</g>
<g fill="#8B8477" fill-opacity="1.00" stroke="None">
<path d="
M 330.00 36.00 
C 332.78 34.06 330.57 26.31 330.00 24.00
C 330.49 27.94 329.63 32.05 330.00 36.00 Z"/>
</g>
<g fill="#8B7E6B" fill-opacity="1.00" stroke="None">
<path d="
M 181.00 107.00 
C 181.00 107.05 182.00 107.00 182.00 107.00
C 183.67 88.48 180.74 69.55 182.00 51.00
C 178.31 53.59 181.88 64.11 181.00 69.00 C 180.12 73.89 181.14 82.45 181.00 88.00 C 180.86 93.55 180.48 101.31 181.00 107.00 Z"/>
</g>
<g fill="#F9E1BF" fill-opacity="1.00" stroke="None">
<path d="
M 182.00 107.00 
C 198.33 107.00 214.67 107.00 231.00 107.00
C 230.08 96.75 231.69 86.27 231.00 76.00
C 228.46 74.07 222.42 76.74 219.75 73.25 C 217.08 69.75 216.04 69.19 215.00 65.00
C 214.00 60.94 213.67 55.74 214.00 51.00
C 211.48 49.24 201.22 51.00 198.00 51.00 C 194.78 51.00 184.52 49.24 182.00 51.00
C 180.74 69.55 183.67 88.48 182.00 107.00 Z"/>
</g>
<g fill="#5F5649" fill-opacity="1.00" stroke="None">
<path d="
M 215.00 65.00 
C 214.61 61.83 216.69 52.88 214.00 51.00
C 213.67 55.74 214.00 60.94 215.00 65.00 Z"/>
</g>
<g fill="#DDA181" fill-opacity="1.00" stroke="None">
<path d="
M 283.00 51.00 
C 265.00 51.00 247.00 51.00 229.00 51.00
C 229.00 54.33 229.00 57.67 229.00 61.00
C 247.00 61.00 265.00 61.00 283.00 61.00
C 283.00 57.67 283.00 54.33 283.00 51.00 Z"/>
</g>
<g fill="#5F564A" fill-opacity="1.00" stroke="None">
<path d="
M 297.00 65.00 
C 298.00 60.94 298.33 55.74 298.00 51.00
C 295.29 52.89 297.40 61.77 297.00 65.00 Z"/>
</g>
<g fill="#F7DEB9" fill-opacity="1.00" stroke="None">
<path d="
M 297.00 65.00 
C 296.53 72.96 287.30 77.35 280.00 76.00
C 278.92 83.26 281.44 89.66 280.00 97.00 C 278.56 104.34 281.55 109.89 289.00 108.00 C 296.45 106.11 303.53 110.00 310.00 108.00 C 316.47 106.00 324.92 111.56 330.00 108.00
C 330.00 89.00 330.00 70.00 330.00 51.00
C 327.48 49.24 317.22 51.00 314.00 51.00 C 310.78 51.00 300.52 49.24 298.00 51.00
C 298.33 55.74 298.00 60.94 297.00 65.00 Z"/>
</g>
<g fill="#8C7B62" fill-opacity="1.00" stroke="None">
<path d="
M 330.00 108.00 
C 333.45 105.59 330.41 93.50 331.00 89.00 C 331.59 84.50 331.40 73.46 331.00 69.00 C 330.60 64.54 333.32 53.32 330.00 51.00
C 330.00 70.00 330.00 89.00 330.00 108.00 Z"/>
</g>
<g fill="#B0A088" fill-opacity="1.00" stroke="None">
<path d="
M 231.00 107.00 
C 231.50 107.00 232.00 107.00 232.00 107.00
C 232.39 102.71 232.44 95.03 232.00 91.00 C 231.56 86.97 234.02 78.29 231.00 76.00
C 231.69 86.27 230.08 96.75 231.00 107.00 Z"/>
</g>
<g fill="#FDF3E3" fill-opacity="1.00" stroke="None">
<path d="
M 247.00 107.00 
C 253.00 107.00 259.00 107.00 265.00 107.00
C 265.00 96.67 265.00 86.33 265.00 76.00
C 259.00 76.00 253.00 76.00 247.00 76.00
C 247.89 80.60 245.81 87.65 247.00 92.00 C 248.19 96.35 244.59 103.55 247.00 107.00 Z"/>
</g>
<g fill="#62584B" fill-opacity="1.00" stroke="None">
<path d="
M 232.00 107.00 
C 232.00 107.00 231.50 107.00 231.00 107.00
C 214.67 107.00 198.33 107.00 182.00 107.00
C 182.00 107.00 181.00 107.05 181.00 107.00
C 184.48 110.62 201.75 107.87 207.00 108.00 C 212.25 108.13 228.62 110.51 232.00 107.00 Z"/>
</g>
<g fill="#65615A" fill-opacity="1.00" stroke="None">
<path d="
M 265.00 107.00 
C 259.00 107.00 253.00 107.00 247.00 107.00
C 248.38 108.98 263.57 109.05 265.00 107.00 Z"/>
</g>
<g fill="#FBF4EA" fill-opacity="1.00" stroke="None">
<path d="
M 152.00 140.00 
C 153.19 143.65 153.18 155.35 152.00 159.00
C 162.35 159.97 159.91 171.37 160.00 179.00
C 183.33 179.00 206.67 179.00 230.00 179.00
C 230.00 168.67 230.00 158.33 230.00 148.00
C 213.59 152.45 203.98 137.95 208.00 123.00
C 192.00 123.00 176.00 123.00 160.00 123.00
C 160.42 129.79 161.10 139.89 152.00 140.00 Z"/>
</g>
<g fill="#E3A785" fill-opacity="1.00" stroke="None">
<path d="
M 289.00 123.00 
C 267.00 123.00 245.00 123.00 223.00 123.00
C 223.00 126.33 223.00 129.67 223.00 133.00
C 245.00 133.00 267.00 133.00 289.00 133.00
C 289.00 129.67 289.00 126.33 289.00 123.00 Z"/>
</g>
<g fill="#FBF3E6" fill-opacity="1.00" stroke="None">
<path d="
M 352.00 123.00 
C 336.00 123.00 320.00 123.00 304.00 123.00
C 308.02 137.96 298.40 152.46 282.00 148.00
C 282.00 158.33 282.00 168.67 282.00 179.00
C 305.33 179.00 328.67 179.00 352.00 179.00
C 352.00 160.33 352.00 141.67 352.00 123.00 Z"/>
</g>
<g fill="#FBE0B8" fill-opacity="1.00" stroke="None">
<path d="
M 267.00 148.00 
C 259.67 148.00 252.33 148.00 245.00 148.00
C 245.00 158.33 245.00 168.67 245.00 179.00
C 252.33 179.00 259.67 179.00 267.00 179.00
C 267.00 168.67 267.00 158.33 267.00 148.00 Z"/>
</g>
<g fill="#847765" fill-opacity="1.00" stroke="None">
<path d="
M 138.00 251.00 
C 138.00 232.00 138.00 213.00 138.00 194.00
C 134.55 196.41 137.59 208.50 137.00 213.00 C 136.41 217.50 136.60 228.54 137.00 233.00 C 137.40 237.46 134.68 248.68 138.00 251.00 Z"/>
</g>
<g fill="#F8E0BE" fill-opacity="1.00" stroke="None">
<path d="
M 138.00 251.00 
C 167.00 251.00 196.00 251.00 225.00 251.00
C 225.00 240.33 225.00 229.67 225.00 219.00
C 214.91 220.76 207.36 217.54 205.00 208.00
C 204.00 203.94 203.67 198.74 204.00 194.00
C 200.46 191.52 191.44 195.02 187.00 194.00 C 182.56 192.98 175.73 194.01 171.00 194.00 C 166.27 193.99 158.48 193.18 154.00 194.00 C 149.52 194.82 141.44 191.59 138.00 194.00
C 138.00 213.00 138.00 232.00 138.00 251.00 Z"/>
</g>
<g fill="#736858" fill-opacity="1.00" stroke="None">
<path d="
M 205.00 208.00 
C 204.61 204.83 206.69 195.88 204.00 194.00
C 203.67 198.74 204.00 203.94 205.00 208.00 Z"/>
</g>
<g fill="#7C5D4B" fill-opacity="1.00" stroke="None">
<path d="
M 220.00 204.00 
C 220.00 200.67 220.00 197.33 220.00 194.00
C 218.28 195.20 218.24 202.77 220.00 204.00 Z"/>
</g>
<g fill="#E1A584" fill-opacity="1.00" stroke="None">
<path d="
M 220.00 204.00 
C 223.80 206.66 233.15 203.00 238.00 204.00 C 242.85 205.00 250.86 204.00 256.00 204.00 C 261.14 204.00 269.15 205.00 274.00 204.00 C 278.85 203.00 288.20 206.66 292.00 204.00
C 292.00 200.67 292.00 197.33 292.00 194.00
C 288.20 191.34 278.85 195.00 274.00 194.00 C 269.15 193.00 261.14 194.00 256.00 194.00 C 250.86 194.00 242.85 193.00 238.00 194.00 C 233.15 195.00 223.80 191.34 220.00 194.00
C 220.00 197.33 220.00 200.67 220.00 204.00 Z"/>
</g>
<g fill="#78513E" fill-opacity="1.00" stroke="None">
<path d="
M 292.00 204.00 
C 293.72 202.80 293.76 195.23 292.00 194.00
C 292.00 197.33 292.00 200.67 292.00 204.00 Z"/>
</g>
<g fill="#F8DFBB" fill-opacity="1.00" stroke="None">
<path d="
M 308.00 195.00 
C 306.65 196.93 307.55 205.76 307.00 208.00
C 306.84 218.28 295.37 220.29 287.00 219.00
C 287.00 229.67 287.00 240.33 287.00 251.00
C 294.13 250.74 301.94 251.35 309.00 251.00 C 316.06 250.65 324.20 251.67 331.00 251.00 C 337.80 250.33 346.80 252.45 353.00 251.00 C 359.20 249.55 369.20 254.36 374.00 251.00
C 374.00 232.00 374.00 213.00 374.00 194.00
C 370.36 191.46 361.61 195.04 357.00 194.00 C 352.39 192.96 344.87 194.23 340.00 194.00 C 335.13 193.77 327.61 193.56 323.00 194.00 C 318.39 194.44 311.01 191.98 308.00 195.00 Z"/>
</g>
<g fill="#8A7960" fill-opacity="1.00" stroke="None">
<path d="
M 374.00 251.00 
C 377.45 248.59 374.41 236.50 375.00 232.00 C 375.59 227.50 375.40 216.46 375.00 212.00 C 374.60 207.54 377.32 196.32 374.00 194.00
C 374.00 213.00 374.00 232.00 374.00 251.00 Z"/>
</g>
<g fill="#756959" fill-opacity="1.00" stroke="None">
<path d="
M 307.00 208.00 
C 307.55 205.76 306.65 196.93 308.00 195.00
C 305.46 197.54 307.45 204.39 307.00 208.00 Z"/>
</g>
<g fill="#F6EDDF" fill-opacity="1.00" stroke="None">
<path d="
M 272.00 219.00 
C 261.33 219.00 250.67 219.00 240.00 219.00
C 240.00 229.67 240.00 240.33 240.00 251.00
C 250.67 251.00 261.33 251.00 272.00 251.00
C 272.00 240.33 272.00 229.67 272.00 219.00 Z"/>
</g>
<g fill="#FCF5EB" fill-opacity="1.00" stroke="None">
<path d="
M 108.00 322.00 
C 147.00 322.00 186.00 322.00 225.00 322.00
C 225.00 311.67 225.00 301.33 225.00 291.00
C 215.62 289.87 205.31 293.25 196.70 289.30 C 188.09 285.36 190.18 273.91 190.00 266.00
C 162.67 266.00 135.33 266.00 108.00 266.00
C 108.50 271.94 107.34 279.20 108.00 285.00 C 108.66 290.80 106.73 298.68 108.00 304.00 C 109.27 309.32 105.11 317.87 108.00 322.00 Z"/>
</g>
<g fill="#E6AA88" fill-opacity="1.00" stroke="None">
<path d="
M 307.00 266.00 
C 273.00 266.00 239.00 266.00 205.00 266.00
C 205.00 269.33 205.00 272.67 205.00 276.00
C 239.00 276.00 273.00 276.00 307.00 276.00
C 307.00 272.67 307.00 269.33 307.00 266.00 Z"/>
</g>
<g fill="#FCF5E9" fill-opacity="1.00" stroke="None">
<path d="
M 287.00 291.00 
C 287.00 301.33 287.00 311.67 287.00 322.00
C 326.00 322.00 365.00 322.00 404.00 322.00
C 404.00 303.33 404.00 284.67 404.00 266.00
C 376.67 266.00 349.33 266.00 322.00 266.00
C 322.04 272.55 322.60 278.30 320.30 284.30 C 318.00 290.30 312.00 289.83 307.00 291.00 C 302.00 292.17 291.05 288.17 287.00 291.00 Z"/>
</g>
<g fill="#343230" fill-opacity="1.00" stroke="None">
<path d="
M 225.00 322.00 
C 227.46 319.54 226.00 309.48 226.00 306.00 C 226.00 302.52 227.65 292.86 225.00 291.00
C 225.00 301.33 225.00 311.67 225.00 322.00 Z"/>
</g>
<g fill="#C8B59A" fill-opacity="1.00" stroke="None">
<path d="
M 240.00 322.00 
C 240.00 322.04 241.00 322.00 241.00 322.00
C 241.93 311.75 240.30 301.27 241.00 291.00
C 237.97 293.12 240.44 302.02 240.00 306.00 C 239.56 309.98 239.62 317.75 240.00 322.00 Z"/>
</g>
<g fill="#FBE0B9" fill-opacity="1.00" stroke="None">
<path d="
M 241.00 322.00 
C 251.00 322.00 261.00 322.00 271.00 322.00
C 270.07 311.75 271.70 301.27 271.00 291.00
C 268.64 289.35 259.02 291.00 256.00 291.00 C 252.98 291.00 243.36 289.35 241.00 291.00
C 240.30 301.27 241.93 311.75 241.00 322.00 Z"/>
</g>
<g fill="#CAB28D" fill-opacity="1.00" stroke="None">
<path d="
M 271.00 322.00 
C 271.50 322.00 272.00 322.00 272.00 322.00
C 272.38 317.77 272.44 309.94 272.00 306.00 C 271.56 302.06 274.03 293.12 271.00 291.00
C 271.70 301.27 270.07 311.75 271.00 322.00 Z"/>
</g>
<g fill="#343230" fill-opacity="1.00" stroke="None">
<path d="
M 287.00 322.00 
C 287.00 311.67 287.00 301.33 287.00 291.00
C 284.22 292.95 286.24 303.56 286.00 307.00 C 285.76 310.44 284.67 319.67 287.00 322.00 Z"/>
</g>
<g fill="#64615D" fill-opacity="1.00" stroke="None">
<path d="
M 225.00 322.00 
C 186.00 322.00 147.00 322.00 108.00 322.00
C 110.75 325.93 121.82 321.92 127.00 323.00 C 132.18 324.08 141.08 322.58 147.00 323.00 C 152.92 323.42 160.84 322.96 167.00 323.00 C 173.16 323.04 180.94 323.32 187.00 323.00 C 193.06 322.68 201.44 323.90 207.00 323.00 C 212.56 322.10 221.32 325.68 225.00 322.00 Z"/>
</g>
<g fill="#635849" fill-opacity="1.00" stroke="None">
<path d="
M 272.00 322.00 
C 272.00 322.00 271.50 322.00 271.00 322.00
C 261.00 322.00 251.00 322.00 241.00 322.00
C 241.00 322.00 240.00 322.04 240.00 322.00
C 242.49 324.59 252.23 323.01 256.00 323.00 C 259.76 322.99 269.47 324.62 272.00 322.00 Z"/>
</g>
<g fill="#65615D" fill-opacity="1.00" stroke="None">
<path d="
M 404.00 322.00 
C 365.00 322.00 326.00 322.00 287.00 322.00
C 290.75 325.75 300.39 322.00 306.00 323.00 C 311.61 324.00 319.92 322.63 326.00 323.00 C 332.08 323.37 339.83 323.00 346.00 323.00 C 352.17 323.00 360.08 323.36 366.00 323.00 C 371.92 322.64 380.83 323.97 386.00 323.00 C 391.17 322.03 401.30 325.85 404.00 322.00 Z"/>
</g>
<g fill="#E1A787" fill-opacity="1.00" stroke="None">
<path d="
M 421.00 337.00 
C 409.09 334.05 395.30 338.33 383.00 337.00 C 370.70 335.67 357.46 337.59 345.00 337.00 C 332.54 336.41 319.47 337.24 307.00 337.00 C 294.53 336.76 282.45 337.03 270.00 337.00 C 257.55 336.97 244.40 336.86 232.00 337.00 C 219.60 337.14 206.16 336.60 194.00 337.00 C 181.84 337.40 168.67 336.03 157.00 337.00 C 145.33 337.97 129.68 334.89 119.00 337.00 C 108.32 339.11 91.28 330.27 85.78 341.78 C 80.28 353.29 99.95 354.31 110.00 353.00 C 120.05 351.69 136.55 353.58 148.00 353.00 C 159.45 352.42 173.98 353.25 186.00 353.00 C 198.02 352.75 210.69 353.05 223.00 353.00 C 235.31 352.95 248.55 352.90 261.00 353.00 C 273.45 353.10 286.56 352.69 299.00 353.00 C 311.44 353.31 323.62 352.24 336.00 353.00 C 348.38 353.76 361.76 351.34 374.00 353.00 C 386.24 354.66 400.18 349.33 412.00 353.00 C 423.82 356.67 434.10 340.24 421.00 337.00 Z"/>
</g>
<g fill="#FBF4EA" fill-opacity="1.00" stroke="None">
<path d="
M 168.00 368.00 
C 148.00 368.00 128.00 368.00 108.00 368.00
C 108.00 401.33 108.00 434.67 108.00 468.00
C 128.00 468.00 148.00 468.00 168.00 468.00
C 168.00 434.67 168.00 401.33 168.00 368.00 Z"/>
</g>
<g fill="#F7DEBB" fill-opacity="1.00" stroke="None">
<path d="
M 286.00 431.00 
C 286.00 437.67 286.00 444.33 286.00 451.00
C 294.69 451.39 293.09 461.79 293.00 468.00
C 303.43 468.98 310.20 466.70 321.00 468.00 C 331.80 469.30 329.03 457.64 329.00 449.00 C 328.97 440.36 329.01 430.83 329.00 422.00 C 328.99 413.17 329.01 403.91 329.00 395.00 C 328.99 386.09 329.01 376.94 329.00 368.00
C 280.33 368.00 231.67 368.00 183.00 368.00
C 182.93 377.18 183.09 386.87 183.00 396.00 C 182.91 405.13 183.18 413.96 183.00 423.00 C 182.82 432.04 183.39 441.03 183.00 450.00 C 182.61 458.97 180.98 469.81 192.00 468.00 C 203.02 466.19 208.48 469.36 219.00 468.00
C 218.38 454.97 219.83 438.71 219.00 426.00 C 218.17 413.29 222.17 403.87 230.25 395.25 C 238.33 386.62 251.06 384.68 261.78 385.22 C 272.49 385.76 281.35 395.16 287.08 401.92 C 292.82 408.68 298.23 430.43 286.00 431.00 Z"/>
</g>
<g fill="#FBF3E6" fill-opacity="1.00" stroke="None">
<path d="
M 404.00 368.00 
C 384.00 368.00 364.00 368.00 344.00 368.00
C 344.00 401.33 344.00 434.67 344.00 468.00
C 364.00 468.00 384.00 468.00 404.00 468.00
C 404.00 434.67 404.00 401.33 404.00 368.00 Z"/>
</g>
<g fill="#E3A583" fill-opacity="1.00" stroke="None">
<path d="
M 286.00 451.00 
C 286.00 444.33 286.00 437.67 286.00 431.00
C 274.80 427.13 277.96 405.73 264.22 401.78 C 250.49 397.83 236.53 402.89 234.00 418.00 C 231.47 433.11 235.90 452.50 234.00 468.00
C 248.67 468.00 263.33 468.00 278.00 468.00
C 277.65 461.58 276.84 450.46 286.00 451.00 Z"/>
</g>
<g fill="#9FACBA" fill-opacity="1.00" stroke="None">
<path d="
M 445.00 497.00 
C 445.00 492.33 445.00 487.67 445.00 483.00
C 314.33 483.00 183.67 483.00 53.00 483.00
C 53.00 487.67 53.00 492.33 53.00 497.00
C 183.67 497.00 314.33 497.00 445.00 497.00 Z"/>
</g>
<g fill="#7B8C99" fill-opacity="1.00" stroke="None">
<path d="
M 445.00 497.00 
C 449.67 497.00 454.33 497.00 459.00 497.00
C 459.00 492.33 459.00 487.67 459.00 483.00
C 454.33 483.00 449.67 483.00 445.00 483.00
C 445.00 487.67 445.00 492.33 445.00 497.00 Z"/>
</g>
</svg>