<svg xmlns="http://www.w3.org/2000/svg" xmlns:v="https://svgstorm.com"
viewBox = "0 0 512 512"
width="512"
height="512">
<g fill="None" fill-opacity="0.0" stroke="#000000" stroke-opacity="0.00" stroke-width="0.3"><path d="
M 0.00 86.00 
C 1.84 67.54 6.00 62.87 17.25 49.25 C 28.49 35.62 39.04 27.79 42.13 15.08 C 45.22 2.37 69.47 -4.76 75.71 10.30 C 81.96 25.37 85.05 30.77 98.25 44.75 C 111.45 58.74 115.51 63.46 118.20 80.25 C 120.89 97.04 116.28 110.13 108.00 121.00
C 121.75 123.09 117.93 137.79 119.00 150.00 C 120.07 162.21 113.00 171.45 102.00 170.00
C 102.00 181.67 102.00 193.33 102.00 205.00
C 204.67 205.00 307.33 205.00 410.00 205.00
C 410.00 193.33 410.00 181.67 410.00 170.00
C 397.89 171.72 392.10 160.92 393.00 148.00 C 393.90 135.08 390.86 122.97 405.00 121.00
C 396.01 110.34 390.62 98.99 393.27 82.25 C 395.91 65.51 398.63 60.03 411.70 46.70 C 424.78 33.37 430.11 25.00 436.39 10.25 C 442.67 -4.50 466.24 1.70 469.71 14.30 C 473.17 26.90 482.23 34.74 493.25 47.75 C 504.27 60.77 509.71 66.15 512.00 83.00
L 512.00 0.00
L 0.00 0.00
L 0.00 86.00 Z"/>
</g>
<g fill="None" fill-opacity="0.0" stroke="#000000" stroke-opacity="1.00" stroke-width="0.3"><path d="
M 0.00 86.00 
L 0.00 92.00
C 2.28 104.39 3.06 111.25 12.00 119.00
C 6.85 123.47 0.41 127.81 0.00 136.00
L 0.00 156.00
C 1.74 157.56 1.67 159.85 1.00 162.00
C 7.79 165.00 9.21 172.27 17.00 170.00
C 17.00 193.00 17.00 216.00 17.00 239.00
C 9.78 238.71 1.57 238.19 0.00 246.00
L 0.00 505.00
C 1.59 508.45 4.67 510.69 8.00 512.00
L 505.00 512.00
C 508.05 510.43 510.30 507.88 512.00 505.00
L 512.00 246.00
C 510.42 238.76 502.65 238.40 495.00 239.00
C 495.00 216.00 495.00 193.00 495.00 170.00
C 502.41 172.44 504.70 164.90 511.00 162.00
C 510.35 159.82 510.25 156.72 512.00 155.00
L 512.00 134.00
C 510.71 128.72 504.99 120.63 500.00 121.00
C 506.23 113.19 508.20 107.14 512.00 98.00
L 512.00 83.00
C 509.71 66.15 504.27 60.77 493.25 47.75 C 482.23 34.74 473.17 26.90 469.71 14.30 C 466.24 1.70 442.67 -4.50 436.39 10.25 C 430.11 25.00 424.78 33.37 411.70 46.70 C 398.63 60.03 395.91 65.51 393.27 82.25 C 390.62 98.99 396.01 110.34 405.00 121.00
C 390.86 122.97 393.90 135.08 393.00 148.00 C 392.10 160.92 397.89 171.72 410.00 170.00
C 410.00 181.67 410.00 193.33 410.00 205.00
C 307.33 205.00 204.67 205.00 102.00 205.00
C 102.00 193.33 102.00 181.67 102.00 170.00
C 113.00 171.45 120.07 162.21 119.00 150.00 C 117.93 137.79 121.75 123.09 108.00 121.00
C 116.28 110.13 120.89 97.04 118.20 80.25 C 115.51 63.46 111.45 58.74 98.25 44.75 C 85.05 30.77 81.96 25.37 75.71 10.30 C 69.47 -4.76 45.22 2.37 42.13 15.08 C 39.04 27.79 28.49 35.62 17.25 49.25 C 6.00 62.87 1.84 67.54 0.00 86.00
M 73.00 119.00 
C 64.07 120.08 52.86 120.59 44.00 119.00
C 22.56 117.54 11.76 92.52 19.93 74.93 C 28.09 57.33 42.56 49.42 52.00 33.00
C 54.78 28.16 57.34 23.25 59.00 18.00
C 68.35 37.28 81.47 50.23 95.75 67.25 C 110.04 84.26 99.47 121.51 73.00 119.00
M 468.00 119.00 
C 458.86 120.64 447.07 120.30 438.00 119.00
C 416.58 118.18 404.13 94.31 411.93 75.93 C 419.73 57.54 433.97 50.21 444.00 34.00
C 447.18 28.87 449.45 23.40 452.00 18.00
C 460.87 37.22 473.75 50.55 487.92 67.08 C 502.08 83.61 493.39 118.67 468.00 119.00
M 102.00 154.00 
C 95.27 154.61 87.71 153.95 81.00 154.00 C 74.29 154.05 65.40 154.41 59.00 154.00 C 52.60 153.59 43.48 155.24 38.00 154.00 C 32.52 152.76 19.94 157.20 17.00 153.00
C 16.16 151.80 16.16 138.20 17.00 137.00
C 19.86 132.91 31.69 137.17 37.00 136.00 C 42.31 134.83 51.98 136.50 58.00 136.00 C 64.02 135.51 72.92 136.15 79.00 136.00 C 85.08 135.85 94.47 135.91 100.00 136.00 C 105.53 136.09 103.94 152.14 102.00 154.00
M 495.00 137.00 
C 495.84 138.20 495.84 151.80 495.00 153.00
C 492.10 157.15 480.60 152.90 475.00 154.00 C 469.40 155.10 459.41 153.60 453.00 154.00 C 446.59 154.40 438.79 154.11 432.00 154.00 C 425.21 153.89 416.88 154.62 410.00 154.00
C 408.55 152.61 406.16 136.78 411.08 136.08 C 416.01 135.39 426.19 136.05 432.00 136.00 C 437.81 135.95 447.09 135.56 453.00 136.00 C 458.91 136.44 468.71 134.79 474.00 136.00 C 479.29 137.21 492.12 132.88 495.00 137.00
M 85.00 239.00 
C 82.33 240.87 71.42 239.00 68.00 239.00
C 56.67 239.00 45.33 239.00 34.00 239.00
C 34.00 216.33 34.00 193.67 34.00 171.00
C 37.05 166.65 47.42 171.60 53.00 170.00 C 58.58 168.40 67.56 171.47 74.00 170.00 C 80.44 168.53 87.74 170.51 86.00 178.00 C 84.26 185.49 87.25 192.36 86.00 199.00 C 84.75 205.64 87.60 213.47 86.00 219.00 C 84.40 224.53 89.35 235.95 85.00 239.00
M 478.00 171.00 
C 480.66 174.80 476.79 183.18 478.00 188.00 C 479.21 192.82 477.44 199.73 478.00 205.00 C 478.56 210.27 477.71 216.54 478.00 222.00 C 478.29 227.46 477.78 233.49 478.00 239.00
C 472.33 239.00 466.67 239.00 461.00 239.00
C 456.15 239.00 448.58 239.94 444.00 239.00 C 439.42 238.06 430.59 241.51 427.00 239.00
C 422.63 235.94 427.56 225.68 426.00 220.00 C 424.44 214.32 427.37 205.68 426.00 199.00 C 424.63 192.32 428.12 186.72 426.00 179.00 C 423.88 171.28 431.20 168.15 438.00 170.00 C 444.80 171.85 452.37 168.12 458.00 170.00 C 463.63 171.88 474.83 166.47 478.00 171.00
M 409.00 239.00 
C 404.20 242.36 394.21 237.56 388.00 239.00 C 381.79 240.44 372.82 238.35 366.00 239.00 C 359.18 239.65 351.10 238.71 344.00 239.00 C 336.90 239.29 329.23 238.87 322.00 239.00 C 314.77 239.13 307.29 238.94 300.00 239.00 C 292.71 239.06 285.31 238.97 278.00 239.00 C 270.69 239.03 263.32 238.99 256.00 239.00 C 248.68 239.01 241.33 238.99 234.00 239.00 C 226.67 239.01 219.33 239.00 212.00 239.00 C 204.67 239.00 197.33 239.00 190.00 239.00 C 182.67 239.00 175.33 239.00 168.00 239.00 C 160.67 239.00 153.33 239.00 146.00 239.00 C 138.67 239.00 131.33 239.00 124.00 239.00 C 116.67 239.00 109.33 239.00 102.00 239.00
C 102.00 233.33 102.00 227.67 102.00 222.00
C 204.33 222.00 306.67 222.00 409.00 222.00
C 411.01 223.41 410.95 237.64 409.00 239.00
M 102.00 273.00 
C 99.33 274.87 88.42 273.00 85.00 273.00
C 62.33 273.00 39.67 273.00 17.00 273.00
C 17.00 267.33 17.00 261.67 17.00 256.00
C 39.67 256.00 62.33 256.00 85.00 256.00
C 88.42 256.00 99.33 254.13 102.00 256.00
C 104.01 257.41 103.95 271.64 102.00 273.00
M 162.00 273.00 
C 156.00 273.00 146.66 274.16 141.00 273.00 C 135.34 271.84 124.43 276.10 120.00 273.00
C 117.99 271.59 118.05 257.36 120.00 256.00
C 124.43 252.90 135.34 257.16 141.00 256.00 C 146.66 254.84 156.00 256.00 162.00 256.00
C 167.67 256.00 173.33 256.00 179.00 256.00
C 179.00 261.67 179.00 267.33 179.00 273.00
C 173.33 273.00 167.67 273.00 162.00 273.00
M 316.00 256.00 
C 316.00 261.67 316.00 267.33 316.00 273.00
C 276.00 273.00 236.00 273.00 196.00 273.00
C 196.00 267.33 196.00 261.67 196.00 256.00
C 236.00 256.00 276.00 256.00 316.00 256.00
M 392.00 273.00 
C 389.49 274.76 379.22 273.00 376.00 273.00
C 361.67 273.00 347.33 273.00 333.00 273.00
C 333.00 267.33 333.00 261.67 333.00 256.00
C 347.33 256.00 361.67 256.00 376.00 256.00
C 379.22 256.00 389.48 254.24 392.00 256.00
C 394.01 257.41 393.95 271.64 392.00 273.00
M 478.00 273.00 
C 472.49 273.00 466.46 273.19 461.00 273.00 C 455.54 272.81 449.27 273.52 444.00 273.00 C 438.73 272.48 431.82 274.19 427.00 273.00 C 422.18 271.81 413.79 275.66 410.00 273.00
C 407.99 271.59 408.05 257.36 410.00 256.00
C 413.79 253.34 422.18 257.19 427.00 256.00 C 431.82 254.81 438.73 256.52 444.00 256.00 C 449.27 255.48 455.54 256.20 461.00 256.00 C 466.46 255.81 472.49 256.00 478.00 256.00
C 483.67 256.00 489.33 256.00 495.00 256.00
C 495.00 261.67 495.00 267.33 495.00 273.00
C 489.33 273.00 483.67 273.00 478.00 273.00
M 102.00 367.00 
C 99.48 368.76 89.22 367.00 86.00 367.00
C 63.00 367.00 40.00 367.00 17.00 367.00
C 17.00 341.33 17.00 315.67 17.00 290.00
C 40.00 290.00 63.00 290.00 86.00 290.00
C 89.22 290.00 99.48 288.24 102.00 290.00
C 105.63 292.54 102.27 303.13 103.00 308.00 C 103.73 312.87 103.05 322.67 103.00 328.00 C 102.95 333.33 103.86 343.10 103.00 348.00 C 102.14 352.90 105.73 364.39 102.00 367.00
M 120.00 367.00 
C 116.37 364.46 119.73 353.87 119.00 349.00 C 118.27 344.13 118.95 334.33 119.00 329.00 C 119.05 323.67 118.14 313.90 119.00 309.00 C 119.86 304.10 116.27 292.61 120.00 290.00
C 124.35 286.95 133.40 291.34 139.00 290.00 C 144.60 288.66 152.89 290.70 159.00 290.00 C 165.11 289.30 172.75 290.52 179.00 290.00
C 179.00 315.67 179.00 341.33 179.00 367.00
C 159.33 367.00 139.67 367.00 120.00 367.00
M 316.00 290.00 
C 316.00 298.67 316.00 307.33 316.00 316.00
C 276.00 316.00 236.00 316.00 196.00 316.00
C 196.00 307.33 196.00 298.67 196.00 290.00
C 236.00 290.00 276.00 290.00 316.00 290.00
M 392.00 367.00 
C 387.65 370.05 378.60 365.66 373.00 367.00 C 367.40 368.34 359.11 366.30 353.00 367.00 C 346.89 367.70 339.25 366.48 333.00 367.00
C 333.00 341.33 333.00 315.67 333.00 290.00
C 352.67 290.00 372.33 290.00 392.00 290.00
C 395.63 292.54 392.27 303.13 393.00 308.00 C 393.73 312.87 393.05 322.67 393.00 328.00 C 392.95 333.33 393.86 343.10 393.00 348.00 C 392.14 352.90 395.73 364.39 392.00 367.00
M 478.00 367.00 
C 472.49 367.00 466.46 367.20 461.00 367.00 C 455.54 366.81 449.27 367.52 444.00 367.00 C 438.73 366.48 431.82 368.19 427.00 367.00 C 422.18 365.81 413.79 369.66 410.00 367.00
C 406.33 364.43 409.75 353.95 409.00 349.00 C 408.25 344.05 408.98 334.51 409.00 329.00 C 409.02 323.49 408.19 314.28 409.00 309.00 C 409.81 303.72 406.40 293.46 410.00 290.00
C 438.10 287.45 466.84 291.91 495.00 290.00
C 495.00 315.67 495.00 341.33 495.00 367.00
C 489.33 367.00 483.67 367.00 478.00 367.00
M 316.00 333.00 
C 316.00 387.00 316.00 441.00 316.00 495.00
C 310.33 495.00 304.67 495.00 299.00 495.00
C 299.97 471.55 297.70 445.15 299.00 422.00 C 300.30 398.85 292.66 385.25 278.75 368.25 C 264.85 351.24 247.73 350.59 233.75 367.75 C 219.77 384.91 211.79 397.58 213.00 421.00 C 214.21 444.42 212.09 471.27 213.00 495.00
C 207.33 495.00 201.67 495.00 196.00 495.00
C 196.00 441.00 196.00 387.00 196.00 333.00
C 236.00 333.00 276.00 333.00 316.00 333.00
M 264.00 495.00 
C 252.67 495.00 241.33 495.00 230.00 495.00
C 235.51 456.05 215.01 403.86 250.00 377.00
C 251.84 375.49 253.41 372.71 255.00 371.00
C 297.92 396.10 277.16 453.28 282.00 495.00
C 276.00 495.00 270.00 495.00 264.00 495.00
M 102.00 401.00 
C 99.33 402.87 88.42 401.00 85.00 401.00
C 62.33 401.00 39.67 401.00 17.00 401.00
C 17.00 395.33 17.00 389.67 17.00 384.00
C 39.67 384.00 62.33 384.00 85.00 384.00
C 88.42 384.00 99.33 382.13 102.00 384.00
C 104.01 385.41 103.95 399.64 102.00 401.00
M 162.00 495.00 
C 156.00 495.00 146.66 496.16 141.00 495.00 C 135.34 493.84 124.43 498.10 120.00 495.00
C 115.79 492.05 120.08 479.68 119.00 474.00 C 117.92 468.32 119.30 457.39 119.00 451.00 C 118.70 444.61 118.63 435.39 119.00 429.00 C 119.37 422.61 117.80 411.70 119.00 406.00 C 120.20 400.30 115.71 387.01 120.00 384.00
C 124.43 380.90 135.34 385.16 141.00 384.00 C 146.66 382.84 156.00 384.00 162.00 384.00
C 167.67 384.00 173.33 384.00 179.00 384.00
C 179.00 421.00 179.00 458.00 179.00 495.00
C 173.33 495.00 167.67 495.00 162.00 495.00
M 392.00 495.00 
C 389.33 496.87 378.42 495.00 375.00 495.00
C 361.00 495.00 347.00 495.00 333.00 495.00
C 333.00 458.00 333.00 421.00 333.00 384.00
C 347.33 384.00 361.67 384.00 376.00 384.00
C 379.22 384.00 389.48 382.24 392.00 384.00
C 396.21 386.95 391.92 399.32 393.00 405.00 C 394.08 410.68 392.70 421.61 393.00 428.00 C 393.30 434.39 393.37 443.61 393.00 450.00 C 392.63 456.39 394.20 467.30 393.00 473.00 C 391.80 478.70 396.29 491.99 392.00 495.00
M 478.00 401.00 
C 472.49 401.00 466.46 401.19 461.00 401.00 C 455.54 400.81 449.27 401.52 444.00 401.00 C 438.73 400.48 431.82 402.19 427.00 401.00 C 422.18 399.81 413.79 403.66 410.00 401.00
C 407.99 399.59 408.05 385.36 410.00 384.00
C 413.79 381.34 422.18 385.19 427.00 384.00 C 431.82 382.81 438.73 384.52 444.00 384.00 C 449.27 383.48 455.54 384.19 461.00 384.00 C 466.46 383.81 472.49 384.00 478.00 384.00
C 483.67 384.00 489.33 384.00 495.00 384.00
C 495.00 389.67 495.00 395.33 495.00 401.00
C 489.33 401.00 483.67 401.00 478.00 401.00
M 102.00 495.00 
C 99.33 496.87 88.42 495.00 85.00 495.00
C 62.33 495.00 39.67 495.00 17.00 495.00
C 17.00 469.33 17.00 443.67 17.00 418.00
C 39.67 418.00 62.33 418.00 85.00 418.00
C 88.42 418.00 99.33 416.13 102.00 418.00
C 105.63 420.54 102.27 431.13 103.00 436.00 C 103.73 440.87 103.05 450.67 103.00 456.00 C 102.95 461.33 103.86 471.10 103.00 476.00 C 102.14 480.90 105.73 492.39 102.00 495.00
M 478.00 495.00 
C 472.49 495.00 466.46 495.20 461.00 495.00 C 455.54 494.81 449.27 495.52 444.00 495.00 C 438.73 494.48 431.82 496.19 427.00 495.00 C 422.18 493.81 413.79 497.66 410.00 495.00
C 406.33 492.43 409.75 481.95 409.00 477.00 C 408.25 472.05 408.98 462.51 409.00 457.00 C 409.02 451.49 408.19 442.28 409.00 437.00 C 409.81 431.72 406.40 421.46 410.00 418.00
C 438.10 415.45 466.84 419.92 495.00 418.00
C 495.00 443.67 495.00 469.33 495.00 495.00
C 489.33 495.00 483.67 495.00 478.00 495.00 Z"/>
</g>
<g fill="None" fill-opacity="0.0" stroke="#DCC19A" stroke-opacity="1.00" stroke-width="0.3"><path d="
M 52.00 33.00 
C 52.54 38.09 60.79 42.36 63.75 47.25 C 66.71 52.14 73.13 55.29 75.92 61.08 C 78.71 66.87 83.84 72.05 84.78 79.22 C 85.72 86.39 84.57 96.16 83.02 103.02 C 81.48 109.89 74.49 113.04 72.00 119.00
C 72.50 119.00 73.00 119.00 73.00 119.00
C 99.47 121.51 110.04 84.26 95.75 67.25 C 81.47 50.23 68.35 37.28 59.00 18.00
C 57.34 23.25 54.78 28.16 52.00 33.00 Z"/>
</g>
<g fill="None" fill-opacity="0.0" stroke="#DCC19A" stroke-opacity="1.00" stroke-width="0.3"><path d="
M 444.00 34.00 
C 448.11 33.48 452.36 44.60 456.75 47.25 C 461.15 49.89 464.81 57.07 468.77 61.23 C 472.73 65.39 475.95 74.25 476.99 80.01 C 478.03 85.77 478.71 97.76 475.67 102.67 C 472.64 107.59 470.63 116.92 465.00 119.00
C 466.00 119.00 467.00 119.03 468.00 119.00
C 493.39 118.67 502.08 83.61 487.92 67.08 C 473.75 50.55 460.87 37.22 452.00 18.00
C 449.45 23.40 447.18 28.87 444.00 34.00 Z"/>
</g>
<g fill="None" fill-opacity="0.0" stroke="#FEDFB1" stroke-opacity="1.00" stroke-width="0.3"><path d="
M 44.00 119.00 
C 53.24 119.63 62.74 119.00 72.00 119.00
C 74.49 113.04 81.48 109.89 83.02 103.02 C 84.57 96.16 85.72 86.39 84.78 79.22 C 83.84 72.05 78.71 66.87 75.92 61.08 C 73.13 55.29 66.71 52.14 63.75 47.25 C 60.79 42.36 52.54 38.09 52.00 33.00
C 42.56 49.42 28.09 57.33 19.93 74.93 C 11.76 92.52 22.56 117.54 44.00 119.00 Z"/>
</g>
<g fill="None" fill-opacity="0.0" stroke="#FEDFB1" stroke-opacity="1.00" stroke-width="0.3"><path d="
M 438.00 119.00 
C 446.97 119.34 456.02 119.00 465.00 119.00
C 470.63 116.92 472.64 107.59 475.67 102.67 C 478.71 97.76 478.03 85.77 476.99 80.01 C 475.95 74.25 472.73 65.39 468.77 61.23 C 464.81 57.07 461.15 49.89 456.75 47.25 C 452.36 44.60 448.11 33.48 444.00 34.00
C 433.97 50.21 419.73 57.54 411.93 75.93 C 404.13 94.31 416.58 118.18 438.00 119.00 Z"/>
</g>
<g fill="None" fill-opacity="0.0" stroke="#000000" stroke-opacity="0.12" stroke-width="0.3"><path d="
M 0.00 136.00 
C 0.41 127.81 6.85 123.47 12.00 119.00
C 3.06 111.25 2.28 104.39 0.00 92.00
L 0.00 136.00 Z"/>
</g>
<g fill="None" fill-opacity="0.0" stroke="#000000" stroke-opacity="0.09" stroke-width="0.3"><path d="
M 512.00 134.00 
L 512.00 98.00
C 508.20 107.14 506.23 113.19 500.00 121.00
C 504.99 120.63 510.71 128.72 512.00 134.00 Z"/>
</g>
<g fill="None" fill-opacity="0.0" stroke="#736550" stroke-opacity="1.00" stroke-width="0.3"><path d="
M 73.00 119.00 
C 73.00 119.00 72.50 119.00 72.00 119.00
C 62.74 119.00 53.24 119.63 44.00 119.00
C 52.86 120.59 64.07 120.08 73.00 119.00 Z"/>
</g>
<g fill="None" fill-opacity="0.0" stroke="#71644F" stroke-opacity="1.00" stroke-width="0.3"><path d="
M 468.00 119.00 
C 467.00 119.03 466.00 119.00 465.00 119.00
C 456.02 119.00 446.97 119.34 438.00 119.00
C 447.07 120.30 458.86 120.64 468.00 119.00 Z"/>
</g>
<g fill="None" fill-opacity="0.0" stroke="#736001" stroke-opacity="1.00" stroke-width="0.3"><path d="
M 17.00 137.00 
C 39.67 137.00 62.33 137.00 85.00 137.00
C 90.67 137.00 96.33 137.00 102.00 137.00
C 102.00 142.33 102.00 147.67 102.00 153.00
C 102.00 153.50 102.00 154.00 102.00 154.00
C 103.94 152.14 105.53 136.09 100.00 136.00 C 94.47 135.91 85.08 135.85 79.00 136.00 C 72.92 136.15 64.02 135.51 58.00 136.00 C 51.98 136.50 42.31 134.83 37.00 136.00 C 31.69 137.17 19.86 132.91 17.00 137.00 Z"/>
</g>
<g fill="None" fill-opacity="0.0" stroke="#736100" stroke-opacity="1.00" stroke-width="0.3"><path d="
M 410.00 154.00 
C 409.96 154.00 410.00 153.00 410.00 153.00
C 410.00 147.67 410.00 142.33 410.00 137.00
C 432.67 137.00 455.33 137.00 478.00 137.00
C 483.67 137.00 489.33 137.00 495.00 137.00
C 492.12 132.88 479.29 137.21 474.00 136.00 C 468.71 134.79 458.91 136.44 453.00 136.00 C 447.09 135.56 437.81 135.95 432.00 136.00 C 426.19 136.05 416.01 135.39 411.08 136.08 C 406.16 136.78 408.55 152.61 410.00 154.00 Z"/>
</g>
<g fill="None" fill-opacity="0.0" stroke="#FEDB00" stroke-opacity="1.00" stroke-width="0.3"><path d="
M 17.00 153.00 
C 39.67 153.00 62.33 153.00 85.00 153.00
C 85.00 147.67 85.00 142.33 85.00 137.00
C 62.33 137.00 39.67 137.00 17.00 137.00
C 16.16 138.20 16.16 151.80 17.00 153.00 Z"/>
</g>
<g fill="None" fill-opacity="0.0" stroke="#FEC107" stroke-opacity="1.00" stroke-width="0.3"><path d="
M 85.00 153.00 
C 90.59 153.00 96.44 152.50 102.00 153.00
C 102.00 147.67 102.00 142.33 102.00 137.00
C 96.33 137.00 90.67 137.00 85.00 137.00
C 85.00 142.33 85.00 147.67 85.00 153.00 Z"/>
</g>
<g fill="None" fill-opacity="0.0" stroke="#FFDB00" stroke-opacity="1.00" stroke-width="0.3"><path d="
M 410.00 153.00 
C 432.25 150.98 455.65 153.00 478.00 153.00
C 478.00 147.67 478.00 142.33 478.00 137.00
C 455.33 137.00 432.67 137.00 410.00 137.00
C 410.00 142.33 410.00 147.67 410.00 153.00 Z"/>
</g>
<g fill="None" fill-opacity="0.0" stroke="#FCC007" stroke-opacity="1.00" stroke-width="0.3"><path d="
M 478.00 153.00 
C 483.67 153.00 489.33 153.00 495.00 153.00
C 495.84 151.80 495.84 138.20 495.00 137.00
C 489.33 137.00 483.67 137.00 478.00 137.00
C 478.00 142.33 478.00 147.67 478.00 153.00 Z"/>
</g>
<g fill="None" fill-opacity="0.0" stroke="#988001" stroke-opacity="1.00" stroke-width="0.3"><path d="
M 102.00 154.00 
C 102.00 154.00 102.00 153.50 102.00 153.00
C 96.44 152.50 90.59 153.00 85.00 153.00
C 62.33 153.00 39.67 153.00 17.00 153.00
C 19.94 157.20 32.52 152.76 38.00 154.00 C 43.48 155.24 52.60 153.59 59.00 154.00 C 65.40 154.41 74.29 154.05 81.00 154.00 C 87.71 153.95 95.27 154.61 102.00 154.00 Z"/>
</g>
<g fill="None" fill-opacity="0.0" stroke="#988001" stroke-opacity="1.00" stroke-width="0.3"><path d="
M 410.00 154.00 
C 416.88 154.62 425.21 153.89 432.00 154.00 C 438.79 154.11 446.59 154.40 453.00 154.00 C 459.41 153.60 469.40 155.10 475.00 154.00 C 480.60 152.90 492.10 157.15 495.00 153.00
C 489.33 153.00 483.67 153.00 478.00 153.00
C 455.65 153.00 432.25 150.98 410.00 153.00
C 410.00 153.00 409.96 154.00 410.00 154.00 Z"/>
</g>
<g fill="None" fill-opacity="0.0" stroke="#000000" stroke-opacity="0.01" stroke-width="0.3"><path d="
M 512.00 246.00 
L 512.00 155.00
C 510.25 156.72 510.35 159.82 511.00 162.00
C 504.70 164.90 502.41 172.44 495.00 170.00
C 495.00 193.00 495.00 216.00 495.00 239.00
C 502.65 238.40 510.42 238.76 512.00 246.00 Z"/>
</g>
<g fill="None" fill-opacity="0.0" stroke="#000000" stroke-opacity="0.01" stroke-width="0.3"><path d="
M 0.00 246.00 
C 1.57 238.19 9.78 238.71 17.00 239.00
C 17.00 216.00 17.00 193.00 17.00 170.00
C 9.21 172.27 7.79 165.00 1.00 162.00
C 1.67 159.85 1.74 157.56 0.00 156.00
L 0.00 246.00 Z"/>
</g>
<g fill="None" fill-opacity="0.0" stroke="#522B00" stroke-opacity="1.00" stroke-width="0.3"><path d="
M 34.00 171.00 
C 45.33 171.00 56.67 171.00 68.00 171.00
C 73.67 171.00 79.33 171.00 85.00 171.00
C 85.00 193.67 85.00 216.33 85.00 239.00
C 89.35 235.95 84.40 224.53 86.00 219.00 C 87.60 213.47 84.75 205.64 86.00 199.00 C 87.25 192.36 84.26 185.49 86.00 178.00 C 87.74 170.51 80.44 168.53 74.00 170.00 C 67.56 171.47 58.58 168.40 53.00 170.00 C 47.42 171.60 37.05 166.65 34.00 171.00 Z"/>
</g>
<g fill="None" fill-opacity="0.0" stroke="#543100" stroke-opacity="1.00" stroke-width="0.3"><path d="
M 427.00 239.00 
C 427.00 216.33 427.00 193.67 427.00 171.00
C 438.33 171.00 449.67 171.00 461.00 171.00
C 466.67 171.00 472.33 171.00 478.00 171.00
C 474.83 166.47 463.63 171.88 458.00 170.00 C 452.37 168.12 444.80 171.85 438.00 170.00 C 431.20 168.15 423.88 171.28 426.00 179.00 C 428.12 186.72 424.63 192.32 426.00 199.00 C 427.37 205.68 424.44 214.32 426.00 220.00 C 427.56 225.68 422.63 235.94 427.00 239.00 Z"/>
</g>
<g fill="None" fill-opacity="0.0" stroke="#FD9701" stroke-opacity="1.00" stroke-width="0.3"><path d="
M 68.00 239.00 
C 68.00 216.33 68.00 193.67 68.00 171.00
C 56.67 171.00 45.33 171.00 34.00 171.00
C 34.00 193.67 34.00 216.33 34.00 239.00
C 45.33 239.00 56.67 239.00 68.00 239.00 Z"/>
</g>
<g fill="None" fill-opacity="0.0" stroke="#F47C00" stroke-opacity="1.00" stroke-width="0.3"><path d="
M 68.00 239.00 
C 71.42 239.00 82.33 240.87 85.00 239.00
C 85.00 216.33 85.00 193.67 85.00 171.00
C 79.33 171.00 73.67 171.00 68.00 171.00
C 68.00 193.67 68.00 216.33 68.00 239.00 Z"/>
</g>
<g fill="None" fill-opacity="0.0" stroke="#FE9700" stroke-opacity="1.00" stroke-width="0.3"><path d="
M 427.00 239.00 
C 430.59 241.51 439.42 238.06 444.00 239.00 C 448.58 239.94 456.15 239.00 461.00 239.00
C 461.00 216.33 461.00 193.67 461.00 171.00
C 449.67 171.00 438.33 171.00 427.00 171.00
C 427.00 193.67 427.00 216.33 427.00 239.00 Z"/>
</g>
<g fill="None" fill-opacity="0.0" stroke="#F27A00" stroke-opacity="1.00" stroke-width="0.3"><path d="
M 461.00 239.00 
C 466.67 239.00 472.33 239.00 478.00 239.00
C 477.78 233.49 478.29 227.46 478.00 222.00 C 477.71 216.54 478.56 210.27 478.00 205.00 C 477.44 199.73 479.21 192.82 478.00 188.00 C 476.79 183.18 480.66 174.80 478.00 171.00
C 472.33 171.00 466.67 171.00 461.00 171.00
C 461.00 193.67 461.00 216.33 461.00 239.00 Z"/>
</g>
<g fill="None" fill-opacity="0.0" stroke="#FBDDAF" stroke-opacity="1.00" stroke-width="0.3"><path d="
M 409.00 239.00 
C 409.00 233.33 409.00 227.67 409.00 222.00
C 306.67 222.00 204.33 222.00 102.00 222.00
C 102.00 227.67 102.00 233.33 102.00 239.00
C 109.33 239.00 116.67 239.00 124.00 239.00 C 131.33 239.00 138.67 239.00 146.00 239.00 C 153.33 239.00 160.67 239.00 168.00 239.00 C 175.33 239.00 182.67 239.00 190.00 239.00 C 197.33 239.00 204.67 239.00 212.00 239.00 C 219.33 239.00 226.67 239.01 234.00 239.00 C 241.33 238.99 248.68 239.01 256.00 239.00 C 263.32 238.99 270.69 239.03 278.00 239.00 C 285.31 238.97 292.71 239.06 300.00 239.00 C 307.29 238.94 314.77 239.13 322.00 239.00 C 329.23 238.87 336.90 239.29 344.00 239.00 C 351.10 238.71 359.18 239.65 366.00 239.00 C 372.82 238.35 381.79 240.44 388.00 239.00 C 394.21 237.56 404.20 242.36 409.00 239.00 Z"/>
</g>
<g fill="None" fill-opacity="0.0" stroke="#85755D" stroke-opacity="1.00" stroke-width="0.3"><path d="
M 409.00 239.00 
C 410.95 237.64 411.01 223.41 409.00 222.00
C 409.00 227.67 409.00 233.33 409.00 239.00 Z"/>
</g>
<g fill="None" fill-opacity="0.0" stroke="#FEDB00" stroke-opacity="1.00" stroke-width="0.3"><path d="
M 85.00 273.00 
C 85.00 267.33 85.00 261.67 85.00 256.00
C 62.33 256.00 39.67 256.00 17.00 256.00
C 17.00 261.67 17.00 267.33 17.00 273.00
C 39.67 273.00 62.33 273.00 85.00 273.00 Z"/>
</g>
<g fill="None" fill-opacity="0.0" stroke="#FEC107" stroke-opacity="1.00" stroke-width="0.3"><path d="
M 85.00 273.00 
C 88.42 273.00 99.33 274.87 102.00 273.00
C 102.00 267.33 102.00 261.67 102.00 256.00
C 99.33 254.13 88.42 256.00 85.00 256.00
C 85.00 261.67 85.00 267.33 85.00 273.00 Z"/>
</g>
<g fill="None" fill-opacity="0.0" stroke="#654D03" stroke-opacity="1.00" stroke-width="0.3"><path d="
M 102.00 273.00 
C 103.95 271.64 104.01 257.41 102.00 256.00
C 102.00 261.67 102.00 267.33 102.00 273.00 Z"/>
</g>
<g fill="None" fill-opacity="0.0" stroke="#872E12" stroke-opacity="1.00" stroke-width="0.3"><path d="
M 120.00 273.00 
C 120.00 267.33 120.00 261.67 120.00 256.00
C 118.05 257.36 117.99 271.59 120.00 273.00 Z"/>
</g>
<g fill="None" fill-opacity="0.0" stroke="#FE5721" stroke-opacity="1.00" stroke-width="0.3"><path d="
M 120.00 273.00 
C 124.43 276.10 135.34 271.84 141.00 273.00 C 146.66 274.16 156.00 273.00 162.00 273.00
C 162.00 267.33 162.00 261.67 162.00 256.00
C 156.00 256.00 146.66 254.84 141.00 256.00 C 135.34 257.16 124.43 252.90 120.00 256.00
C 120.00 261.67 120.00 267.33 120.00 273.00 Z"/>
</g>
<g fill="None" fill-opacity="0.0" stroke="#D84315" stroke-opacity="1.00" stroke-width="0.3"><path d="
M 162.00 273.00 
C 167.67 273.00 173.33 273.00 179.00 273.00
C 179.00 267.33 179.00 261.67 179.00 256.00
C 173.33 256.00 167.67 256.00 162.00 256.00
C 162.00 261.67 162.00 267.33 162.00 273.00 Z"/>
</g>
<g fill="None" fill-opacity="0.0" stroke="#FD9700" stroke-opacity="1.00" stroke-width="0.3"><path d="
M 316.00 256.00 
C 276.00 256.00 236.00 256.00 196.00 256.00
C 196.00 261.67 196.00 267.33 196.00 273.00
C 236.00 273.00 276.00 273.00 316.00 273.00
C 316.00 267.33 316.00 261.67 316.00 256.00 Z"/>
</g>
<g fill="None" fill-opacity="0.0" stroke="#FE5621" stroke-opacity="1.00" stroke-width="0.3"><path d="
M 376.00 273.00 
C 376.00 267.33 376.00 261.67 376.00 256.00
C 361.67 256.00 347.33 256.00 333.00 256.00
C 333.00 261.67 333.00 267.33 333.00 273.00
C 347.33 273.00 361.67 273.00 376.00 273.00 Z"/>
</g>
<g fill="None" fill-opacity="0.0" stroke="#D74315" stroke-opacity="1.00" stroke-width="0.3"><path d="
M 376.00 273.00 
C 379.22 273.00 389.49 274.76 392.00 273.00
C 392.00 267.33 392.00 261.67 392.00 256.00
C 389.48 254.24 379.22 256.00 376.00 256.00
C 376.00 261.67 376.00 267.33 376.00 273.00 Z"/>
</g>
<g fill="None" fill-opacity="0.0" stroke="#72240B" stroke-opacity="1.00" stroke-width="0.3"><path d="
M 392.00 273.00 
C 393.95 271.64 394.01 257.41 392.00 256.00
C 392.00 261.67 392.00 267.33 392.00 273.00 Z"/>
</g>
<g fill="None" fill-opacity="0.0" stroke="#655800" stroke-opacity="1.00" stroke-width="0.3"><path d="
M 410.00 273.00 
C 410.00 267.33 410.00 261.67 410.00 256.00
C 408.05 257.36 407.99 271.59 410.00 273.00 Z"/>
</g>
<g fill="None" fill-opacity="0.0" stroke="#FFDB00" stroke-opacity="1.00" stroke-width="0.3"><path d="
M 410.00 273.00 
C 413.79 275.66 422.18 271.81 427.00 273.00 C 431.82 274.19 438.73 272.48 444.00 273.00 C 449.27 273.52 455.54 272.81 461.00 273.00 C 466.46 273.19 472.49 273.00 478.00 273.00
C 478.00 267.33 478.00 261.67 478.00 256.00
C 472.49 256.00 466.46 255.81 461.00 256.00 C 455.54 256.20 449.27 255.48 444.00 256.00 C 438.73 256.52 431.82 254.81 427.00 256.00 C 422.18 257.19 413.79 253.34 410.00 256.00
C 410.00 261.67 410.00 267.33 410.00 273.00 Z"/>
</g>
<g fill="None" fill-opacity="0.0" stroke="#FCC007" stroke-opacity="1.00" stroke-width="0.3"><path d="
M 478.00 273.00 
C 483.67 273.00 489.33 273.00 495.00 273.00
C 495.00 267.33 495.00 261.67 495.00 256.00
C 489.33 256.00 483.67 256.00 478.00 256.00
C 478.00 261.67 478.00 267.33 478.00 273.00 Z"/>
</g>
<g fill="None" fill-opacity="0.0" stroke="#FC9601" stroke-opacity="1.00" stroke-width="0.3"><path d="
M 86.00 367.00 
C 86.56 359.05 85.69 350.16 85.00 343.00
C 83.74 350.05 72.32 352.98 69.25 345.75 C 66.17 338.52 67.11 328.35 68.93 320.93 C 70.74 313.51 83.38 314.91 85.00 322.00
C 85.96 312.11 86.37 300.61 86.00 290.00
C 63.00 290.00 40.00 290.00 17.00 290.00
C 17.00 315.67 17.00 341.33 17.00 367.00
C 40.00 367.00 63.00 367.00 86.00 367.00
M 46.00 316.00 
C 57.22 319.20 52.43 354.63 39.78 349.22 C 27.13 343.81 31.69 311.92 46.00 316.00 Z"/>
</g>
<g fill="None" fill-opacity="0.0" stroke="#F37B00" stroke-opacity="1.00" stroke-width="0.3"><path d="
M 85.00 322.00 
C 84.36 328.57 84.36 336.43 85.00 343.00
C 85.69 350.16 86.56 359.05 86.00 367.00
C 89.22 367.00 99.48 368.76 102.00 367.00
C 102.00 341.33 102.00 315.67 102.00 290.00
C 99.48 288.24 89.22 290.00 86.00 290.00
C 86.37 300.61 85.96 312.11 85.00 322.00 Z"/>
</g>
<g fill="None" fill-opacity="0.0" stroke="#613100" stroke-opacity="1.00" stroke-width="0.3"><path d="
M 102.00 367.00 
C 105.73 364.39 102.14 352.90 103.00 348.00 C 103.86 343.10 102.95 333.33 103.00 328.00 C 103.05 322.67 103.73 312.87 103.00 308.00 C 102.27 303.13 105.63 292.54 102.00 290.00
C 102.00 315.67 102.00 341.33 102.00 367.00 Z"/>
</g>
<g fill="None" fill-opacity="0.0" stroke="#824100" stroke-opacity="1.00" stroke-width="0.3"><path d="
M 120.00 367.00 
C 120.00 341.33 120.00 315.67 120.00 290.00
C 116.27 292.61 119.86 304.10 119.00 309.00 C 118.14 313.90 119.05 323.67 119.00 329.00 C 118.95 334.33 118.27 344.13 119.00 349.00 C 119.73 353.87 116.37 364.46 120.00 367.00 Z"/>
</g>
<g fill="None" fill-opacity="0.0" stroke="#F37B00" stroke-opacity="1.00" stroke-width="0.3"><path d="
M 120.00 367.00 
C 139.67 367.00 159.33 367.00 179.00 367.00
C 179.00 341.33 179.00 315.67 179.00 290.00
C 172.75 290.52 165.11 289.30 159.00 290.00 C 152.89 290.70 144.60 288.66 139.00 290.00 C 133.40 291.34 124.35 286.95 120.00 290.00
C 120.00 315.67 120.00 341.33 120.00 367.00
M 156.00 307.00 
C 165.67 309.45 160.60 324.16 162.00 331.00 C 163.40 337.84 161.61 352.62 151.33 349.67 C 141.05 346.72 146.42 333.26 145.00 326.00 C 143.58 318.74 145.32 304.29 156.00 307.00 Z"/>
</g>
<g fill="None" fill-opacity="0.0" stroke="#F8BD07" stroke-opacity="1.00" stroke-width="0.3"><path d="
M 316.00 290.00 
C 276.00 290.00 236.00 290.00 196.00 290.00
C 196.00 298.67 196.00 307.33 196.00 316.00
C 236.00 316.00 276.00 316.00 316.00 316.00
C 316.00 307.33 316.00 298.67 316.00 290.00 Z"/>
</g>
<g fill="None" fill-opacity="0.0" stroke="#F37B00" stroke-opacity="1.00" stroke-width="0.3"><path d="
M 392.00 367.00 
C 392.00 341.33 392.00 315.67 392.00 290.00
C 372.33 290.00 352.67 290.00 333.00 290.00
C 333.00 315.67 333.00 341.33 333.00 367.00
C 339.25 366.48 346.89 367.70 353.00 367.00 C 359.11 366.30 367.40 368.34 373.00 367.00 C 378.60 365.66 387.65 370.05 392.00 367.00
M 361.00 307.00 
C 370.64 309.44 365.66 324.14 367.00 331.00 C 368.34 337.86 366.73 352.55 356.33 349.67 C 345.93 346.79 351.42 333.31 350.00 326.00 C 348.58 318.69 350.33 304.30 361.00 307.00 Z"/>
</g>
<g fill="None" fill-opacity="0.0" stroke="#824100" stroke-opacity="1.00" stroke-width="0.3"><path d="
M 392.00 367.00 
C 395.73 364.39 392.14 352.90 393.00 348.00 C 393.86 343.10 392.95 333.33 393.00 328.00 C 393.05 322.67 393.73 312.87 393.00 308.00 C 392.27 303.13 395.63 292.54 392.00 290.00
C 392.00 315.67 392.00 341.33 392.00 367.00 Z"/>
</g>
<g fill="None" fill-opacity="0.0" stroke="#653C00" stroke-opacity="1.00" stroke-width="0.3"><path d="
M 410.00 367.00 
C 410.01 341.67 409.99 316.33 410.00 291.00
C 410.00 290.50 410.00 290.00 410.00 290.00
C 406.40 293.46 409.81 303.72 409.00 309.00 C 408.19 314.28 409.02 323.49 409.00 329.00 C 408.98 334.51 408.25 344.05 409.00 349.00 C 409.75 353.95 406.33 364.43 410.00 367.00 Z"/>
</g>
<g fill="None" fill-opacity="0.0" stroke="#F27B00" stroke-opacity="1.00" stroke-width="0.3"><path d="
M 410.00 291.00 
C 432.48 293.03 455.47 289.48 478.00 291.00
C 477.34 300.83 479.33 311.99 477.00 321.00
C 476.98 328.40 476.98 337.62 477.00 345.00
C 477.02 351.43 479.07 359.82 478.00 367.00
C 483.67 367.00 489.33 367.00 495.00 367.00
C 495.00 341.33 495.00 315.67 495.00 290.00
C 466.84 291.91 438.10 287.45 410.00 290.00
C 410.00 290.00 410.00 290.50 410.00 291.00 Z"/>
</g>
<g fill="None" fill-opacity="0.0" stroke="#FD9701" stroke-opacity="1.00" stroke-width="0.3"><path d="
M 410.00 367.00 
C 413.79 369.66 422.18 365.81 427.00 367.00 C 431.82 368.19 438.73 366.48 444.00 367.00 C 449.27 367.52 455.54 366.81 461.00 367.00 C 466.46 367.20 472.49 367.00 478.00 367.00
C 479.07 359.82 477.02 351.43 477.00 345.00
C 474.48 350.44 463.71 352.25 461.75 345.25 C 459.79 338.24 460.04 328.81 461.33 321.33 C 462.62 313.85 474.41 314.72 477.00 321.00
C 479.33 311.99 477.34 300.83 478.00 291.00
C 455.47 289.48 432.48 293.03 410.00 291.00
C 409.99 316.33 410.01 341.67 410.00 367.00
M 439.00 316.00 
C 446.18 318.53 443.69 329.79 444.00 336.00 C 444.31 342.21 442.76 352.45 432.78 349.22 C 422.80 345.99 422.66 310.25 439.00 316.00 Z"/>
</g>
<g fill="None" fill-opacity="0.0" stroke="#000000" stroke-opacity="1.00" stroke-width="0.3"><path d="
M 156.00 307.00 
C 145.32 304.29 143.58 318.74 145.00 326.00 C 146.42 333.26 141.05 346.72 151.33 349.67 C 161.61 352.62 163.40 337.84 162.00 331.00 C 160.60 324.16 165.67 309.45 156.00 307.00 Z"/>
</g>
<g fill="None" fill-opacity="0.0" stroke="#000000" stroke-opacity="1.00" stroke-width="0.3"><path d="
M 361.00 307.00 
C 350.33 304.30 348.58 318.69 350.00 326.00 C 351.42 333.31 345.93 346.79 356.33 349.67 C 366.73 352.55 368.34 337.86 367.00 331.00 C 365.66 324.14 370.64 309.44 361.00 307.00 Z"/>
</g>
<g fill="None" fill-opacity="0.0" stroke="#000000" stroke-opacity="1.00" stroke-width="0.3"><path d="
M 46.00 316.00 
C 31.69 311.92 27.13 343.81 39.78 349.22 C 52.43 354.63 57.22 319.20 46.00 316.00 Z"/>
</g>
<g fill="None" fill-opacity="0.0" stroke="#000000" stroke-opacity="1.00" stroke-width="0.3"><path d="
M 85.00 343.00 
C 84.36 336.43 84.36 328.57 85.00 322.00
C 83.38 314.91 70.74 313.51 68.93 320.93 C 67.11 328.35 66.17 338.52 69.25 345.75 C 72.32 352.98 83.74 350.05 85.00 343.00 Z"/>
</g>
<g fill="None" fill-opacity="0.0" stroke="#000000" stroke-opacity="1.00" stroke-width="0.3"><path d="
M 439.00 316.00 
C 422.66 310.25 422.80 345.99 432.78 349.22 C 442.76 352.45 444.31 342.21 444.00 336.00 C 443.69 329.79 446.18 318.53 439.00 316.00 Z"/>
</g>
<g fill="None" fill-opacity="0.0" stroke="#000000" stroke-opacity="1.00" stroke-width="0.3"><path d="
M 477.00 345.00 
C 476.98 337.62 476.98 328.40 477.00 321.00
C 474.41 314.72 462.62 313.85 461.33 321.33 C 460.04 328.81 459.79 338.24 461.75 345.25 C 463.71 352.25 474.48 350.44 477.00 345.00 Z"/>
</g>
<g fill="None" fill-opacity="0.0" stroke="#763D21" stroke-opacity="1.00" stroke-width="0.3"><path d="
M 316.00 333.00 
C 276.00 333.00 236.00 333.00 196.00 333.00
C 196.00 387.00 196.00 441.00 196.00 495.00
C 201.67 495.00 207.33 495.00 213.00 495.00
C 212.09 471.27 214.21 444.42 213.00 421.00 C 211.79 397.58 219.77 384.91 233.75 367.75 C 247.73 350.59 264.85 351.24 278.75 368.25 C 292.66 385.25 300.30 398.85 299.00 422.00 C 297.70 445.15 299.97 471.55 299.00 495.00
C 304.67 495.00 310.33 495.00 316.00 495.00
C 316.00 441.00 316.00 387.00 316.00 333.00 Z"/>
</g>
<g fill="None" fill-opacity="0.0" stroke="#EF7900" stroke-opacity="1.00" stroke-width="0.3"><path d="
M 250.00 377.00 
C 249.75 381.17 256.89 383.70 257.92 388.08 C 258.94 392.46 263.02 396.46 263.33 401.67 C 263.64 406.88 265.52 413.19 265.00 419.00 C 264.48 424.81 265.44 432.13 265.00 438.00 C 264.56 443.87 265.64 451.39 265.00 457.00 C 264.36 462.61 266.27 471.13 265.00 476.00 C 263.73 480.87 268.08 492.12 264.00 495.00
C 270.00 495.00 276.00 495.00 282.00 495.00
C 277.16 453.28 297.92 396.10 255.00 371.00
C 253.41 372.71 251.84 375.49 250.00 377.00 Z"/>
</g>
<g fill="None" fill-opacity="0.0" stroke="#FB9501" stroke-opacity="1.00" stroke-width="0.3"><path d="
M 264.00 495.00 
C 268.08 492.12 263.73 480.87 265.00 476.00 C 266.27 471.13 264.36 462.61 265.00 457.00 C 265.64 451.39 264.56 443.87 265.00 438.00 C 265.44 432.13 264.48 424.81 265.00 419.00 C 265.52 413.19 263.64 406.88 263.33 401.67 C 263.02 396.46 258.94 392.46 257.92 388.08 C 256.89 383.70 249.75 381.17 250.00 377.00
C 215.01 403.86 235.51 456.05 230.00 495.00
C 241.33 495.00 252.67 495.00 264.00 495.00 Z"/>
</g>
<g fill="None" fill-opacity="0.0" stroke="#FEDB00" stroke-opacity="1.00" stroke-width="0.3"><path d="
M 85.00 401.00 
C 85.00 395.33 85.00 389.67 85.00 384.00
C 62.33 384.00 39.67 384.00 17.00 384.00
C 17.00 389.67 17.00 395.33 17.00 401.00
C 39.67 401.00 62.33 401.00 85.00 401.00 Z"/>
</g>
<g fill="None" fill-opacity="0.0" stroke="#FEC107" stroke-opacity="1.00" stroke-width="0.3"><path d="
M 85.00 401.00 
C 88.42 401.00 99.33 402.87 102.00 401.00
C 102.00 395.33 102.00 389.67 102.00 384.00
C 99.33 382.13 88.42 384.00 85.00 384.00
C 85.00 389.67 85.00 395.33 85.00 401.00 Z"/>
</g>
<g fill="None" fill-opacity="0.0" stroke="#654D03" stroke-opacity="1.00" stroke-width="0.3"><path d="
M 102.00 401.00 
C 103.95 399.64 104.01 385.41 102.00 384.00
C 102.00 389.67 102.00 395.33 102.00 401.00 Z"/>
</g>
<g fill="None" fill-opacity="0.0" stroke="#872D11" stroke-opacity="1.00" stroke-width="0.3"><path d="
M 120.00 495.00 
C 120.00 458.00 120.00 421.00 120.00 384.00
C 115.71 387.01 120.20 400.30 119.00 406.00 C 117.80 411.70 119.37 422.61 119.00 429.00 C 118.63 435.39 118.70 444.61 119.00 451.00 C 119.30 457.39 117.92 468.32 119.00 474.00 C 120.08 479.68 115.79 492.05 120.00 495.00 Z"/>
</g>
<g fill="None" fill-opacity="0.0" stroke="#FE5621" stroke-opacity="1.00" stroke-width="0.3"><path d="
M 120.00 495.00 
C 124.43 498.10 135.34 493.84 141.00 495.00 C 146.66 496.16 156.00 495.00 162.00 495.00
C 163.07 487.83 161.02 479.35 161.00 473.00
C 157.59 480.37 145.52 479.02 145.03 469.97 C 144.53 460.93 145.53 449.23 145.00 440.00 C 144.47 430.77 145.98 420.00 145.00 411.00 C 144.02 402.00 156.45 397.26 161.00 405.00
C 161.05 398.89 163.04 390.86 162.00 384.00
C 156.00 384.00 146.66 382.84 141.00 384.00 C 135.34 385.16 124.43 380.90 120.00 384.00
C 120.00 421.00 120.00 458.00 120.00 495.00 Z"/>
</g>
<g fill="None" fill-opacity="0.0" stroke="#D74215" stroke-opacity="1.00" stroke-width="0.3"><path d="
M 161.00 405.00 
C 160.81 427.01 160.93 451.01 161.00 473.00
C 161.02 479.35 163.07 487.83 162.00 495.00
C 167.67 495.00 173.33 495.00 179.00 495.00
C 179.00 458.00 179.00 421.00 179.00 384.00
C 173.33 384.00 167.67 384.00 162.00 384.00
C 163.04 390.86 161.05 398.89 161.00 405.00 Z"/>
</g>
<g fill="None" fill-opacity="0.0" stroke="#FD5621" stroke-opacity="1.00" stroke-width="0.3"><path d="
M 375.00 495.00 
C 378.87 492.26 374.98 482.89 376.00 478.00 C 377.02 473.11 375.54 464.64 376.00 459.00 C 376.46 453.36 375.78 445.94 376.00 440.00 C 376.22 434.06 375.90 428.11 376.00 422.00 C 376.10 415.89 375.95 409.22 376.00 403.00 C 376.05 396.78 375.96 390.25 376.00 384.00
C 361.67 384.00 347.33 384.00 333.00 384.00
C 333.00 421.00 333.00 458.00 333.00 495.00
C 347.00 495.00 361.00 495.00 375.00 495.00
M 361.00 401.00 
C 370.77 403.47 365.92 418.36 367.00 426.00 C 368.08 433.64 365.82 449.17 367.00 457.00 C 368.18 464.83 367.17 480.61 356.33 477.67 C 345.49 474.73 351.25 461.06 350.00 453.00 C 348.75 444.94 351.06 429.96 350.00 422.00 C 348.94 414.04 349.18 398.00 361.00 401.00 Z"/>
</g>
<g fill="None" fill-opacity="0.0" stroke="#D74214" stroke-opacity="1.00" stroke-width="0.3"><path d="
M 375.00 495.00 
C 378.42 495.00 389.33 496.87 392.00 495.00
C 392.00 458.00 392.00 421.00 392.00 384.00
C 389.48 382.24 379.22 384.00 376.00 384.00
C 375.96 390.25 376.05 396.78 376.00 403.00 C 375.95 409.22 376.10 415.89 376.00 422.00 C 375.90 428.11 376.22 434.06 376.00 440.00 C 375.78 445.94 376.46 453.36 376.00 459.00 C 375.54 464.64 377.02 473.11 376.00 478.00 C 374.98 482.89 378.87 492.26 375.00 495.00 Z"/>
</g>
<g fill="None" fill-opacity="0.0" stroke="#72230A" stroke-opacity="1.00" stroke-width="0.3"><path d="
M 392.00 495.00 
C 396.29 491.99 391.80 478.70 393.00 473.00 C 394.20 467.30 392.63 456.39 393.00 450.00 C 393.37 443.61 393.30 434.39 393.00 428.00 C 392.70 421.61 394.08 410.68 393.00 405.00 C 391.92 399.32 396.21 386.95 392.00 384.00
C 392.00 421.00 392.00 458.00 392.00 495.00 Z"/>
</g>
<g fill="None" fill-opacity="0.0" stroke="#655800" stroke-opacity="1.00" stroke-width="0.3"><path d="
M 410.00 401.00 
C 410.00 395.33 410.00 389.67 410.00 384.00
C 408.05 385.36 407.99 399.59 410.00 401.00 Z"/>
</g>
<g fill="None" fill-opacity="0.0" stroke="#FFDB00" stroke-opacity="1.00" stroke-width="0.3"><path d="
M 410.00 401.00 
C 413.79 403.66 422.18 399.81 427.00 401.00 C 431.82 402.19 438.73 400.48 444.00 401.00 C 449.27 401.52 455.54 400.81 461.00 401.00 C 466.46 401.19 472.49 401.00 478.00 401.00
C 478.00 395.33 478.00 389.67 478.00 384.00
C 472.49 384.00 466.46 383.81 461.00 384.00 C 455.54 384.19 449.27 383.48 444.00 384.00 C 438.73 384.52 431.82 382.81 427.00 384.00 C 422.18 385.19 413.79 381.34 410.00 384.00
C 410.00 389.67 410.00 395.33 410.00 401.00 Z"/>
</g>
<g fill="None" fill-opacity="0.0" stroke="#FCC007" stroke-opacity="1.00" stroke-width="0.3"><path d="
M 478.00 401.00 
C 483.67 401.00 489.33 401.00 495.00 401.00
C 495.00 395.33 495.00 389.67 495.00 384.00
C 489.33 384.00 483.67 384.00 478.00 384.00
C 478.00 389.67 478.00 395.33 478.00 401.00 Z"/>
</g>
<g fill="None" fill-opacity="0.0" stroke="#000000" stroke-opacity="1.00" stroke-width="0.3"><path d="
M 161.00 473.00 
C 160.93 451.01 160.81 427.01 161.00 405.00
C 156.45 397.26 144.02 402.00 145.00 411.00 C 145.98 420.00 144.47 430.77 145.00 440.00 C 145.53 449.23 144.53 460.93 145.03 469.97 C 145.52 479.02 157.59 480.37 161.00 473.00 Z"/>
</g>
<g fill="None" fill-opacity="0.0" stroke="#000000" stroke-opacity="1.00" stroke-width="0.3"><path d="
M 361.00 401.00 
C 349.18 398.00 348.94 414.04 350.00 422.00 C 351.06 429.96 348.75 444.94 350.00 453.00 C 351.25 461.06 345.49 474.73 356.33 477.67 C 367.17 480.61 368.18 464.83 367.00 457.00 C 365.82 449.17 368.08 433.64 367.00 426.00 C 365.92 418.36 370.77 403.47 361.00 401.00 Z"/>
</g>
<g fill="None" fill-opacity="0.0" stroke="#FE9701" stroke-opacity="1.00" stroke-width="0.3"><path d="
M 85.00 495.00 
C 85.00 469.33 85.00 443.67 85.00 418.00
C 62.33 418.00 39.67 418.00 17.00 418.00
C 17.00 443.67 17.00 469.33 17.00 495.00
C 39.67 495.00 62.33 495.00 85.00 495.00 Z"/>
</g>
<g fill="None" fill-opacity="0.0" stroke="#F47C00" stroke-opacity="1.00" stroke-width="0.3"><path d="
M 85.00 495.00 
C 88.42 495.00 99.33 496.87 102.00 495.00
C 102.00 469.33 102.00 443.67 102.00 418.00
C 99.33 416.13 88.42 418.00 85.00 418.00
C 85.00 443.67 85.00 469.33 85.00 495.00 Z"/>
</g>
<g fill="None" fill-opacity="0.0" stroke="#613100" stroke-opacity="1.00" stroke-width="0.3"><path d="
M 102.00 495.00 
C 105.73 492.39 102.14 480.90 103.00 476.00 C 103.86 471.10 102.95 461.33 103.00 456.00 C 103.05 450.67 103.73 440.87 103.00 436.00 C 102.27 431.13 105.63 420.54 102.00 418.00
C 102.00 443.67 102.00 469.33 102.00 495.00 Z"/>
</g>
<g fill="None" fill-opacity="0.0" stroke="#653C00" stroke-opacity="1.00" stroke-width="0.3"><path d="
M 410.00 495.00 
C 410.01 469.67 409.99 444.33 410.00 419.00
C 410.00 418.50 410.00 418.00 410.00 418.00
C 406.40 421.46 409.81 431.72 409.00 437.00 C 408.19 442.28 409.02 451.49 409.00 457.00 C 408.98 462.51 408.25 472.05 409.00 477.00 C 409.75 481.95 406.33 492.43 410.00 495.00 Z"/>
</g>
<g fill="None" fill-opacity="0.0" stroke="#F27B00" stroke-opacity="1.00" stroke-width="0.3"><path d="
M 410.00 419.00 
C 432.48 421.03 455.47 417.48 478.00 419.00
C 478.00 444.33 478.00 469.67 478.00 495.00
C 483.67 495.00 489.33 495.00 495.00 495.00
C 495.00 469.33 495.00 443.67 495.00 418.00
C 466.84 419.92 438.10 415.45 410.00 418.00
C 410.00 418.00 410.00 418.50 410.00 419.00 Z"/>
</g>
<g fill="None" fill-opacity="0.0" stroke="#FE9701" stroke-opacity="1.00" stroke-width="0.3"><path d="
M 410.00 495.00 
C 413.79 497.66 422.18 493.81 427.00 495.00 C 431.82 496.19 438.73 494.48 444.00 495.00 C 449.27 495.52 455.54 494.81 461.00 495.00 C 466.46 495.20 472.49 495.00 478.00 495.00
C 478.00 469.67 478.00 444.33 478.00 419.00
C 455.47 417.48 432.48 421.03 410.00 419.00
C 409.99 444.33 410.01 469.67 410.00 495.00 Z"/>
</g>
<g fill="None" fill-opacity="0.0" stroke="#000000" stroke-opacity="0.28" stroke-width="0.3"><path d="
M 0.00 512.00 
L 8.00 512.00
C 4.67 510.69 1.59 508.45 0.00 505.00
L 0.00 512.00 Z"/>
</g>
<g fill="None" fill-opacity="0.0" stroke="#000000" stroke-opacity="0.25" stroke-width="0.3"><path d="
M 505.00 512.00 
L 512.00 512.00
L 512.00 505.00
C 510.30 507.88 508.05 510.43 505.00 512.00 Z"/>
</g>
<g fill="#000000" fill-opacity="0.00" stroke="None">
<path d="
M 0.00 86.00 
C 1.84 67.54 6.00 62.87 17.25 49.25 C 28.49 35.62 39.04 27.79 42.13 15.08 C 45.22 2.37 69.47 -4.76 75.71 10.30 C 81.96 25.37 85.05 30.77 98.25 44.75 C 111.45 58.74 115.51 63.46 118.20 80.25 C 120.89 97.04 116.28 110.13 108.00 121.00
C 121.75 123.09 117.93 137.79 119.00 150.00 C 120.07 162.21 113.00 171.45 102.00 170.00
C 102.00 181.67 102.00 193.33 102.00 205.00
C 204.67 205.00 307.33 205.00 410.00 205.00
C 410.00 193.33 410.00 181.67 410.00 170.00
C 397.89 171.72 392.10 160.92 393.00 148.00 C 393.90 135.08 390.86 122.97 405.00 121.00
C 396.01 110.34 390.62 98.99 393.27 82.25 C 395.91 65.51 398.63 60.03 411.70 46.70 C 424.78 33.37 430.11 25.00 436.39 10.25 C 442.67 -4.50 466.24 1.70 469.71 14.30 C 473.17 26.90 482.23 34.74 493.25 47.75 C 504.27 60.77 509.71 66.15 512.00 83.00
L 512.00 0.00
L 0.00 0.00
L 0.00 86.00 Z"/>
</g>
<g fill="#000000" fill-opacity="1.00" stroke="None">
<path d="
M 0.00 86.00 
L 0.00 92.00
C 2.28 104.39 3.06 111.25 12.00 119.00
C 6.85 123.47 0.41 127.81 0.00 136.00
L 0.00 156.00
C 1.74 157.56 1.67 159.85 1.00 162.00
C 7.79 165.00 9.21 172.27 17.00 170.00
C 17.00 193.00 17.00 216.00 17.00 239.00
C 9.78 238.71 1.57 238.19 0.00 246.00
L 0.00 505.00
C 1.59 508.45 4.67 510.69 8.00 512.00
L 505.00 512.00
C 508.05 510.43 510.30 507.88 512.00 505.00
L 512.00 246.00
C 510.42 238.76 502.65 238.40 495.00 239.00
C 495.00 216.00 495.00 193.00 495.00 170.00
C 502.41 172.44 504.70 164.90 511.00 162.00
C 510.35 159.82 510.25 156.72 512.00 155.00
L 512.00 134.00
C 510.71 128.72 504.99 120.63 500.00 121.00
C 506.23 113.19 508.20 107.14 512.00 98.00
L 512.00 83.00
C 509.71 66.15 504.27 60.77 493.25 47.75 C 482.23 34.74 473.17 26.90 469.71 14.30 C 466.24 1.70 442.67 -4.50 436.39 10.25 C 430.11 25.00 424.78 33.37 411.70 46.70 C 398.63 60.03 395.91 65.51 393.27 82.25 C 390.62 98.99 396.01 110.34 405.00 121.00
C 390.86 122.97 393.90 135.08 393.00 148.00 C 392.10 160.92 397.89 171.72 410.00 170.00
C 410.00 181.67 410.00 193.33 410.00 205.00
C 307.33 205.00 204.67 205.00 102.00 205.00
C 102.00 193.33 102.00 181.67 102.00 170.00
C 113.00 171.45 120.07 162.21 119.00 150.00 C 117.93 137.79 121.75 123.09 108.00 121.00
C 116.28 110.13 120.89 97.04 118.20 80.25 C 115.51 63.46 111.45 58.74 98.25 44.75 C 85.05 30.77 81.96 25.37 75.71 10.30 C 69.47 -4.76 45.22 2.37 42.13 15.08 C 39.04 27.79 28.49 35.62 17.25 49.25 C 6.00 62.87 1.84 67.54 0.00 86.00
M 73.00 119.00 
C 64.07 120.08 52.86 120.59 44.00 119.00
C 22.56 117.54 11.76 92.52 19.93 74.93 C 28.09 57.33 42.56 49.42 52.00 33.00
C 54.78 28.16 57.34 23.25 59.00 18.00
C 68.35 37.28 81.47 50.23 95.75 67.25 C 110.04 84.26 99.47 121.51 73.00 119.00
M 468.00 119.00 
C 458.86 120.64 447.07 120.30 438.00 119.00
C 416.58 118.18 404.13 94.31 411.93 75.93 C 419.73 57.54 433.97 50.21 444.00 34.00
C 447.18 28.87 449.45 23.40 452.00 18.00
C 460.87 37.22 473.75 50.55 487.92 67.08 C 502.08 83.61 493.39 118.67 468.00 119.00
M 102.00 154.00 
C 95.27 154.61 87.71 153.95 81.00 154.00 C 74.29 154.05 65.40 154.41 59.00 154.00 C 52.60 153.59 43.48 155.24 38.00 154.00 C 32.52 152.76 19.94 157.20 17.00 153.00
C 16.16 151.80 16.16 138.20 17.00 137.00
C 19.86 132.91 31.69 137.17 37.00 136.00 C 42.31 134.83 51.98 136.50 58.00 136.00 C 64.02 135.51 72.92 136.15 79.00 136.00 C 85.08 135.85 94.47 135.91 100.00 136.00 C 105.53 136.09 103.94 152.14 102.00 154.00
M 495.00 137.00 
C 495.84 138.20 495.84 151.80 495.00 153.00
C 492.10 157.15 480.60 152.90 475.00 154.00 C 469.40 155.10 459.41 153.60 453.00 154.00 C 446.59 154.40 438.79 154.11 432.00 154.00 C 425.21 153.89 416.88 154.62 410.00 154.00
C 408.55 152.61 406.16 136.78 411.08 136.08 C 416.01 135.39 426.19 136.05 432.00 136.00 C 437.81 135.95 447.09 135.56 453.00 136.00 C 458.91 136.44 468.71 134.79 474.00 136.00 C 479.29 137.21 492.12 132.88 495.00 137.00
M 85.00 239.00 
C 82.33 240.87 71.42 239.00 68.00 239.00
C 56.67 239.00 45.33 239.00 34.00 239.00
C 34.00 216.33 34.00 193.67 34.00 171.00
C 37.05 166.65 47.42 171.60 53.00 170.00 C 58.58 168.40 67.56 171.47 74.00 170.00 C 80.44 168.53 87.74 170.51 86.00 178.00 C 84.26 185.49 87.25 192.36 86.00 199.00 C 84.75 205.64 87.60 213.47 86.00 219.00 C 84.40 224.53 89.35 235.95 85.00 239.00
M 478.00 171.00 
C 480.66 174.80 476.79 183.18 478.00 188.00 C 479.21 192.82 477.44 199.73 478.00 205.00 C 478.56 210.27 477.71 216.54 478.00 222.00 C 478.29 227.46 477.78 233.49 478.00 239.00
C 472.33 239.00 466.67 239.00 461.00 239.00
C 456.15 239.00 448.58 239.94 444.00 239.00 C 439.42 238.06 430.59 241.51 427.00 239.00
C 422.63 235.94 427.56 225.68 426.00 220.00 C 424.44 214.32 427.37 205.68 426.00 199.00 C 424.63 192.32 428.12 186.72 426.00 179.00 C 423.88 171.28 431.20 168.15 438.00 170.00 C 444.80 171.85 452.37 168.12 458.00 170.00 C 463.63 171.88 474.83 166.47 478.00 171.00
M 409.00 239.00 
C 404.20 242.36 394.21 237.56 388.00 239.00 C 381.79 240.44 372.82 238.35 366.00 239.00 C 359.18 239.65 351.10 238.71 344.00 239.00 C 336.90 239.29 329.23 238.87 322.00 239.00 C 314.77 239.13 307.29 238.94 300.00 239.00 C 292.71 239.06 285.31 238.97 278.00 239.00 C 270.69 239.03 263.32 238.99 256.00 239.00 C 248.68 239.01 241.33 238.99 234.00 239.00 C 226.67 239.01 219.33 239.00 212.00 239.00 C 204.67 239.00 197.33 239.00 190.00 239.00 C 182.67 239.00 175.33 239.00 168.00 239.00 C 160.67 239.00 153.33 239.00 146.00 239.00 C 138.67 239.00 131.33 239.00 124.00 239.00 C 116.67 239.00 109.33 239.00 102.00 239.00
C 102.00 233.33 102.00 227.67 102.00 222.00
C 204.33 222.00 306.67 222.00 409.00 222.00
C 411.01 223.41 410.95 237.64 409.00 239.00
M 102.00 273.00 
C 99.33 274.87 88.42 273.00 85.00 273.00
C 62.33 273.00 39.67 273.00 17.00 273.00
C 17.00 267.33 17.00 261.67 17.00 256.00
C 39.67 256.00 62.33 256.00 85.00 256.00
C 88.42 256.00 99.33 254.13 102.00 256.00
C 104.01 257.41 103.95 271.64 102.00 273.00
M 162.00 273.00 
C 156.00 273.00 146.66 274.16 141.00 273.00 C 135.34 271.84 124.43 276.10 120.00 273.00
C 117.99 271.59 118.05 257.36 120.00 256.00
C 124.43 252.90 135.34 257.16 141.00 256.00 C 146.66 254.84 156.00 256.00 162.00 256.00
C 167.67 256.00 173.33 256.00 179.00 256.00
C 179.00 261.67 179.00 267.33 179.00 273.00
C 173.33 273.00 167.67 273.00 162.00 273.00
M 316.00 256.00 
C 316.00 261.67 316.00 267.33 316.00 273.00
C 276.00 273.00 236.00 273.00 196.00 273.00
C 196.00 267.33 196.00 261.67 196.00 256.00
C 236.00 256.00 276.00 256.00 316.00 256.00
M 392.00 273.00 
C 389.49 274.76 379.22 273.00 376.00 273.00
C 361.67 273.00 347.33 273.00 333.00 273.00
C 333.00 267.33 333.00 261.67 333.00 256.00
C 347.33 256.00 361.67 256.00 376.00 256.00
C 379.22 256.00 389.48 254.24 392.00 256.00
C 394.01 257.41 393.95 271.64 392.00 273.00
M 478.00 273.00 
C 472.49 273.00 466.46 273.19 461.00 273.00 C 455.54 272.81 449.27 273.52 444.00 273.00 C 438.73 272.48 431.82 274.19 427.00 273.00 C 422.18 271.81 413.79 275.66 410.00 273.00
C 407.99 271.59 408.05 257.36 410.00 256.00
C 413.79 253.34 422.18 257.19 427.00 256.00 C 431.82 254.81 438.73 256.52 444.00 256.00 C 449.27 255.48 455.54 256.20 461.00 256.00 C 466.46 255.81 472.49 256.00 478.00 256.00
C 483.67 256.00 489.33 256.00 495.00 256.00
C 495.00 261.67 495.00 267.33 495.00 273.00
C 489.33 273.00 483.67 273.00 478.00 273.00
M 102.00 367.00 
C 99.48 368.76 89.22 367.00 86.00 367.00
C 63.00 367.00 40.00 367.00 17.00 367.00
C 17.00 341.33 17.00 315.67 17.00 290.00
C 40.00 290.00 63.00 290.00 86.00 290.00
C 89.22 290.00 99.48 288.24 102.00 290.00
C 105.63 292.54 102.27 303.13 103.00 308.00 C 103.73 312.87 103.05 322.67 103.00 328.00 C 102.95 333.33 103.86 343.10 103.00 348.00 C 102.14 352.90 105.73 364.39 102.00 367.00
M 120.00 367.00 
C 116.37 364.46 119.73 353.87 119.00 349.00 C 118.27 344.13 118.95 334.33 119.00 329.00 C 119.05 323.67 118.14 313.90 119.00 309.00 C 119.86 304.10 116.27 292.61 120.00 290.00
C 124.35 286.95 133.40 291.34 139.00 290.00 C 144.60 288.66 152.89 290.70 159.00 290.00 C 165.11 289.30 172.75 290.52 179.00 290.00
C 179.00 315.67 179.00 341.33 179.00 367.00
C 159.33 367.00 139.67 367.00 120.00 367.00
M 316.00 290.00 
C 316.00 298.67 316.00 307.33 316.00 316.00
C 276.00 316.00 236.00 316.00 196.00 316.00
C 196.00 307.33 196.00 298.67 196.00 290.00
C 236.00 290.00 276.00 290.00 316.00 290.00
M 392.00 367.00 
C 387.65 370.05 378.60 365.66 373.00 367.00 C 367.40 368.34 359.11 366.30 353.00 367.00 C 346.89 367.70 339.25 366.48 333.00 367.00
C 333.00 341.33 333.00 315.67 333.00 290.00
C 352.67 290.00 372.33 290.00 392.00 290.00
C 395.63 292.54 392.27 303.13 393.00 308.00 C 393.73 312.87 393.05 322.67 393.00 328.00 C 392.95 333.33 393.86 343.10 393.00 348.00 C 392.14 352.90 395.73 364.39 392.00 367.00
M 478.00 367.00 
C 472.49 367.00 466.46 367.20 461.00 367.00 C 455.54 366.81 449.27 367.52 444.00 367.00 C 438.73 366.48 431.82 368.19 427.00 367.00 C 422.18 365.81 413.79 369.66 410.00 367.00
C 406.33 364.43 409.75 353.95 409.00 349.00 C 408.25 344.05 408.98 334.51 409.00 329.00 C 409.02 323.49 408.19 314.28 409.00 309.00 C 409.81 303.72 406.40 293.46 410.00 290.00
C 438.10 287.45 466.84 291.91 495.00 290.00
C 495.00 315.67 495.00 341.33 495.00 367.00
C 489.33 367.00 483.67 367.00 478.00 367.00
M 316.00 333.00 
C 316.00 387.00 316.00 441.00 316.00 495.00
C 310.33 495.00 304.67 495.00 299.00 495.00
C 299.97 471.55 297.70 445.15 299.00 422.00 C 300.30 398.85 292.66 385.25 278.75 368.25 C 264.85 351.24 247.73 350.59 233.75 367.75 C 219.77 384.91 211.79 397.58 213.00 421.00 C 214.21 444.42 212.09 471.27 213.00 495.00
C 207.33 495.00 201.67 495.00 196.00 495.00
C 196.00 441.00 196.00 387.00 196.00 333.00
C 236.00 333.00 276.00 333.00 316.00 333.00
M 264.00 495.00 
C 252.67 495.00 241.33 495.00 230.00 495.00
C 235.51 456.05 215.01 403.86 250.00 377.00
C 251.84 375.49 253.41 372.71 255.00 371.00
C 297.92 396.10 277.16 453.28 282.00 495.00
C 276.00 495.00 270.00 495.00 264.00 495.00
M 102.00 401.00 
C 99.33 402.87 88.42 401.00 85.00 401.00
C 62.33 401.00 39.67 401.00 17.00 401.00
C 17.00 395.33 17.00 389.67 17.00 384.00
C 39.67 384.00 62.33 384.00 85.00 384.00
C 88.42 384.00 99.33 382.13 102.00 384.00
C 104.01 385.41 103.95 399.64 102.00 401.00
M 162.00 495.00 
C 156.00 495.00 146.66 496.16 141.00 495.00 C 135.34 493.84 124.43 498.10 120.00 495.00
C 115.79 492.05 120.08 479.68 119.00 474.00 C 117.92 468.32 119.30 457.39 119.00 451.00 C 118.70 444.61 118.63 435.39 119.00 429.00 C 119.37 422.61 117.80 411.70 119.00 406.00 C 120.20 400.30 115.71 387.01 120.00 384.00
C 124.43 380.90 135.34 385.16 141.00 384.00 C 146.66 382.84 156.00 384.00 162.00 384.00
C 167.67 384.00 173.33 384.00 179.00 384.00
C 179.00 421.00 179.00 458.00 179.00 495.00
C 173.33 495.00 167.67 495.00 162.00 495.00
M 392.00 495.00 
C 389.33 496.87 378.42 495.00 375.00 495.00
C 361.00 495.00 347.00 495.00 333.00 495.00
C 333.00 458.00 333.00 421.00 333.00 384.00
C 347.33 384.00 361.67 384.00 376.00 384.00
C 379.22 384.00 389.48 382.24 392.00 384.00
C 396.21 386.95 391.92 399.32 393.00 405.00 C 394.08 410.68 392.70 421.61 393.00 428.00 C 393.30 434.39 393.37 443.61 393.00 450.00 C 392.63 456.39 394.20 467.30 393.00 473.00 C 391.80 478.70 396.29 491.99 392.00 495.00
M 478.00 401.00 
C 472.49 401.00 466.46 401.19 461.00 401.00 C 455.54 400.81 449.27 401.52 444.00 401.00 C 438.73 400.48 431.82 402.19 427.00 401.00 C 422.18 399.81 413.79 403.66 410.00 401.00
C 407.99 399.59 408.05 385.36 410.00 384.00
C 413.79 381.34 422.18 385.19 427.00 384.00 C 431.82 382.81 438.73 384.52 444.00 384.00 C 449.27 383.48 455.54 384.19 461.00 384.00 C 466.46 383.81 472.49 384.00 478.00 384.00
C 483.67 384.00 489.33 384.00 495.00 384.00
C 495.00 389.67 495.00 395.33 495.00 401.00
C 489.33 401.00 483.67 401.00 478.00 401.00
M 102.00 495.00 
C 99.33 496.87 88.42 495.00 85.00 495.00
C 62.33 495.00 39.67 495.00 17.00 495.00
C 17.00 469.33 17.00 443.67 17.00 418.00
C 39.67 418.00 62.33 418.00 85.00 418.00
C 88.42 418.00 99.33 416.13 102.00 418.00
C 105.63 420.54 102.27 431.13 103.00 436.00 C 103.73 440.87 103.05 450.67 103.00 456.00 C 102.95 461.33 103.86 471.10 103.00 476.00 C 102.14 480.90 105.73 492.39 102.00 495.00
M 478.00 495.00 
C 472.49 495.00 466.46 495.20 461.00 495.00 C 455.54 494.81 449.27 495.52 444.00 495.00 C 438.73 494.48 431.82 496.19 427.00 495.00 C 422.18 493.81 413.79 497.66 410.00 495.00
C 406.33 492.43 409.75 481.95 409.00 477.00 C 408.25 472.05 408.98 462.51 409.00 457.00 C 409.02 451.49 408.19 442.28 409.00 437.00 C 409.81 431.72 406.40 421.46 410.00 418.00
C 438.10 415.45 466.84 419.92 495.00 418.00
C 495.00 443.67 495.00 469.33 495.00 495.00
C 489.33 495.00 483.67 495.00 478.00 495.00 Z"/>
</g>
<g fill="#DCC19A" fill-opacity="1.00" stroke="None">
<path d="
M 52.00 33.00 
C 52.54 38.09 60.79 42.36 63.75 47.25 C 66.71 52.14 73.13 55.29 75.92 61.08 C 78.71 66.87 83.84 72.05 84.78 79.22 C 85.72 86.39 84.57 96.16 83.02 103.02 C 81.48 109.89 74.49 113.04 72.00 119.00
C 72.50 119.00 73.00 119.00 73.00 119.00
C 99.47 121.51 110.04 84.26 95.75 67.25 C 81.47 50.23 68.35 37.28 59.00 18.00
C 57.34 23.25 54.78 28.16 52.00 33.00 Z"/>
</g>
<g fill="#DCC19A" fill-opacity="1.00" stroke="None">
<path d="
M 444.00 34.00 
C 448.11 33.48 452.36 44.60 456.75 47.25 C 461.15 49.89 464.81 57.07 468.77 61.23 C 472.73 65.39 475.95 74.25 476.99 80.01 C 478.03 85.77 478.71 97.76 475.67 102.67 C 472.64 107.59 470.63 116.92 465.00 119.00
C 466.00 119.00 467.00 119.03 468.00 119.00
C 493.39 118.67 502.08 83.61 487.92 67.08 C 473.75 50.55 460.87 37.22 452.00 18.00
C 449.45 23.40 447.18 28.87 444.00 34.00 Z"/>
</g>
<g fill="#FEDFB1" fill-opacity="1.00" stroke="None">
<path d="
M 44.00 119.00 
C 53.24 119.63 62.74 119.00 72.00 119.00
C 74.49 113.04 81.48 109.89 83.02 103.02 C 84.57 96.16 85.72 86.39 84.78 79.22 C 83.84 72.05 78.71 66.87 75.92 61.08 C 73.13 55.29 66.71 52.14 63.75 47.25 C 60.79 42.36 52.54 38.09 52.00 33.00
C 42.56 49.42 28.09 57.33 19.93 74.93 C 11.76 92.52 22.56 117.54 44.00 119.00 Z"/>
</g>
<g fill="#FEDFB1" fill-opacity="1.00" stroke="None">
<path d="
M 438.00 119.00 
C 446.97 119.34 456.02 119.00 465.00 119.00
C 470.63 116.92 472.64 107.59 475.67 102.67 C 478.71 97.76 478.03 85.77 476.99 80.01 C 475.95 74.25 472.73 65.39 468.77 61.23 C 464.81 57.07 461.15 49.89 456.75 47.25 C 452.36 44.60 448.11 33.48 444.00 34.00
C 433.97 50.21 419.73 57.54 411.93 75.93 C 404.13 94.31 416.58 118.18 438.00 119.00 Z"/>
</g>
<g fill="#000000" fill-opacity="0.12" stroke="None">
<path d="
M 0.00 136.00 
C 0.41 127.81 6.85 123.47 12.00 119.00
C 3.06 111.25 2.28 104.39 0.00 92.00
L 0.00 136.00 Z"/>
</g>
<g fill="#000000" fill-opacity="0.09" stroke="None">
<path d="
M 512.00 134.00 
L 512.00 98.00
C 508.20 107.14 506.23 113.19 500.00 121.00
C 504.99 120.63 510.71 128.72 512.00 134.00 Z"/>
</g>
<g fill="#736550" fill-opacity="1.00" stroke="None">
<path d="
M 73.00 119.00 
C 73.00 119.00 72.50 119.00 72.00 119.00
C 62.74 119.00 53.24 119.63 44.00 119.00
C 52.86 120.59 64.07 120.08 73.00 119.00 Z"/>
</g>
<g fill="#71644F" fill-opacity="1.00" stroke="None">
<path d="
M 468.00 119.00 
C 467.00 119.03 466.00 119.00 465.00 119.00
C 456.02 119.00 446.97 119.34 438.00 119.00
C 447.07 120.30 458.86 120.64 468.00 119.00 Z"/>
</g>
<g fill="#736001" fill-opacity="1.00" stroke="None">
<path d="
M 17.00 137.00 
C 39.67 137.00 62.33 137.00 85.00 137.00
C 90.67 137.00 96.33 137.00 102.00 137.00
C 102.00 142.33 102.00 147.67 102.00 153.00
C 102.00 153.50 102.00 154.00 102.00 154.00
C 103.94 152.14 105.53 136.09 100.00 136.00 C 94.47 135.91 85.08 135.85 79.00 136.00 C 72.92 136.15 64.02 135.51 58.00 136.00 C 51.98 136.50 42.31 134.83 37.00 136.00 C 31.69 137.17 19.86 132.91 17.00 137.00 Z"/>
</g>
<g fill="#736100" fill-opacity="1.00" stroke="None">
<path d="
M 410.00 154.00 
C 409.96 154.00 410.00 153.00 410.00 153.00
C 410.00 147.67 410.00 142.33 410.00 137.00
C 432.67 137.00 455.33 137.00 478.00 137.00
C 483.67 137.00 489.33 137.00 495.00 137.00
C 492.12 132.88 479.29 137.21 474.00 136.00 C 468.71 134.79 458.91 136.44 453.00 136.00 C 447.09 135.56 437.81 135.95 432.00 136.00 C 426.19 136.05 416.01 135.39 411.08 136.08 C 406.16 136.78 408.55 152.61 410.00 154.00 Z"/>
</g>
<g fill="#FEDB00" fill-opacity="1.00" stroke="None">
<path d="
M 17.00 153.00 
C 39.67 153.00 62.33 153.00 85.00 153.00
C 85.00 147.67 85.00 142.33 85.00 137.00
C 62.33 137.00 39.67 137.00 17.00 137.00
C 16.16 138.20 16.16 151.80 17.00 153.00 Z"/>
</g>
<g fill="#FEC107" fill-opacity="1.00" stroke="None">
<path d="
M 85.00 153.00 
C 90.59 153.00 96.44 152.50 102.00 153.00
C 102.00 147.67 102.00 142.33 102.00 137.00
C 96.33 137.00 90.67 137.00 85.00 137.00
C 85.00 142.33 85.00 147.67 85.00 153.00 Z"/>
</g>
<g fill="#FFDB00" fill-opacity="1.00" stroke="None">
<path d="
M 410.00 153.00 
C 432.25 150.98 455.65 153.00 478.00 153.00
C 478.00 147.67 478.00 142.33 478.00 137.00
C 455.33 137.00 432.67 137.00 410.00 137.00
C 410.00 142.33 410.00 147.67 410.00 153.00 Z"/>
</g>
<g fill="#FCC007" fill-opacity="1.00" stroke="None">
<path d="
M 478.00 153.00 
C 483.67 153.00 489.33 153.00 495.00 153.00
C 495.84 151.80 495.84 138.20 495.00 137.00
C 489.33 137.00 483.67 137.00 478.00 137.00
C 478.00 142.33 478.00 147.67 478.00 153.00 Z"/>
</g>
<g fill="#988001" fill-opacity="1.00" stroke="None">
<path d="
M 102.00 154.00 
C 102.00 154.00 102.00 153.50 102.00 153.00
C 96.44 152.50 90.59 153.00 85.00 153.00
C 62.33 153.00 39.67 153.00 17.00 153.00
C 19.94 157.20 32.52 152.76 38.00 154.00 C 43.48 155.24 52.60 153.59 59.00 154.00 C 65.40 154.41 74.29 154.05 81.00 154.00 C 87.71 153.95 95.27 154.61 102.00 154.00 Z"/>
</g>
<g fill="#988001" fill-opacity="1.00" stroke="None">
<path d="
M 410.00 154.00 
C 416.88 154.62 425.21 153.89 432.00 154.00 C 438.79 154.11 446.59 154.40 453.00 154.00 C 459.41 153.60 469.40 155.10 475.00 154.00 C 480.60 152.90 492.10 157.15 495.00 153.00
C 489.33 153.00 483.67 153.00 478.00 153.00
C 455.65 153.00 432.25 150.98 410.00 153.00
C 410.00 153.00 409.96 154.00 410.00 154.00 Z"/>
</g>
<g fill="#000000" fill-opacity="0.01" stroke="None">
<path d="
M 512.00 246.00 
L 512.00 155.00
C 510.25 156.72 510.35 159.82 511.00 162.00
C 504.70 164.90 502.41 172.44 495.00 170.00
C 495.00 193.00 495.00 216.00 495.00 239.00
C 502.65 238.40 510.42 238.76 512.00 246.00 Z"/>
</g>
<g fill="#000000" fill-opacity="0.01" stroke="None">
<path d="
M 0.00 246.00 
C 1.57 238.19 9.78 238.71 17.00 239.00
C 17.00 216.00 17.00 193.00 17.00 170.00
C 9.21 172.27 7.79 165.00 1.00 162.00
C 1.67 159.85 1.74 157.56 0.00 156.00
L 0.00 246.00 Z"/>
</g>
<g fill="#522B00" fill-opacity="1.00" stroke="None">
<path d="
M 34.00 171.00 
C 45.33 171.00 56.67 171.00 68.00 171.00
C 73.67 171.00 79.33 171.00 85.00 171.00
C 85.00 193.67 85.00 216.33 85.00 239.00
C 89.35 235.95 84.40 224.53 86.00 219.00 C 87.60 213.47 84.75 205.64 86.00 199.00 C 87.25 192.36 84.26 185.49 86.00 178.00 C 87.74 170.51 80.44 168.53 74.00 170.00 C 67.56 171.47 58.58 168.40 53.00 170.00 C 47.42 171.60 37.05 166.65 34.00 171.00 Z"/>
</g>
<g fill="#543100" fill-opacity="1.00" stroke="None">
<path d="
M 427.00 239.00 
C 427.00 216.33 427.00 193.67 427.00 171.00
C 438.33 171.00 449.67 171.00 461.00 171.00
C 466.67 171.00 472.33 171.00 478.00 171.00
C 474.83 166.47 463.63 171.88 458.00 170.00 C 452.37 168.12 444.80 171.85 438.00 170.00 C 431.20 168.15 423.88 171.28 426.00 179.00 C 428.12 186.72 424.63 192.32 426.00 199.00 C 427.37 205.68 424.44 214.32 426.00 220.00 C 427.56 225.68 422.63 235.94 427.00 239.00 Z"/>
</g>
<g fill="#FD9701" fill-opacity="1.00" stroke="None">
<path d="
M 68.00 239.00 
C 68.00 216.33 68.00 193.67 68.00 171.00
C 56.67 171.00 45.33 171.00 34.00 171.00
C 34.00 193.67 34.00 216.33 34.00 239.00
C 45.33 239.00 56.67 239.00 68.00 239.00 Z"/>
</g>
<g fill="#F47C00" fill-opacity="1.00" stroke="None">
<path d="
M 68.00 239.00 
C 71.42 239.00 82.33 240.87 85.00 239.00
C 85.00 216.33 85.00 193.67 85.00 171.00
C 79.33 171.00 73.67 171.00 68.00 171.00
C 68.00 193.67 68.00 216.33 68.00 239.00 Z"/>
</g>
<g fill="#FE9700" fill-opacity="1.00" stroke="None">
<path d="
M 427.00 239.00 
C 430.59 241.51 439.42 238.06 444.00 239.00 C 448.58 239.94 456.15 239.00 461.00 239.00
C 461.00 216.33 461.00 193.67 461.00 171.00
C 449.67 171.00 438.33 171.00 427.00 171.00
C 427.00 193.67 427.00 216.33 427.00 239.00 Z"/>
</g>
<g fill="#F27A00" fill-opacity="1.00" stroke="None">
<path d="
M 461.00 239.00 
C 466.67 239.00 472.33 239.00 478.00 239.00
C 477.78 233.49 478.29 227.46 478.00 222.00 C 477.71 216.54 478.56 210.27 478.00 205.00 C 477.44 199.73 479.21 192.82 478.00 188.00 C 476.79 183.18 480.66 174.80 478.00 171.00
C 472.33 171.00 466.67 171.00 461.00 171.00
C 461.00 193.67 461.00 216.33 461.00 239.00 Z"/>
</g>
<g fill="#FBDDAF" fill-opacity="1.00" stroke="None">
<path d="
M 409.00 239.00 
C 409.00 233.33 409.00 227.67 409.00 222.00
C 306.67 222.00 204.33 222.00 102.00 222.00
C 102.00 227.67 102.00 233.33 102.00 239.00
C 109.33 239.00 116.67 239.00 124.00 239.00 C 131.33 239.00 138.67 239.00 146.00 239.00 C 153.33 239.00 160.67 239.00 168.00 239.00 C 175.33 239.00 182.67 239.00 190.00 239.00 C 197.33 239.00 204.67 239.00 212.00 239.00 C 219.33 239.00 226.67 239.01 234.00 239.00 C 241.33 238.99 248.68 239.01 256.00 239.00 C 263.32 238.99 270.69 239.03 278.00 239.00 C 285.31 238.97 292.71 239.06 300.00 239.00 C 307.29 238.94 314.77 239.13 322.00 239.00 C 329.23 238.87 336.90 239.29 344.00 239.00 C 351.10 238.71 359.18 239.65 366.00 239.00 C 372.82 238.35 381.79 240.44 388.00 239.00 C 394.21 237.56 404.20 242.36 409.00 239.00 Z"/>
</g>
<g fill="#85755D" fill-opacity="1.00" stroke="None">
<path d="
M 409.00 239.00 
C 410.95 237.64 411.01 223.41 409.00 222.00
C 409.00 227.67 409.00 233.33 409.00 239.00 Z"/>
</g>
<g fill="#FEDB00" fill-opacity="1.00" stroke="None">
<path d="
M 85.00 273.00 
C 85.00 267.33 85.00 261.67 85.00 256.00
C 62.33 256.00 39.67 256.00 17.00 256.00
C 17.00 261.67 17.00 267.33 17.00 273.00
C 39.67 273.00 62.33 273.00 85.00 273.00 Z"/>
</g>
<g fill="#FEC107" fill-opacity="1.00" stroke="None">
<path d="
M 85.00 273.00 
C 88.42 273.00 99.33 274.87 102.00 273.00
C 102.00 267.33 102.00 261.67 102.00 256.00
C 99.33 254.13 88.42 256.00 85.00 256.00
C 85.00 261.67 85.00 267.33 85.00 273.00 Z"/>
</g>
<g fill="#654D03" fill-opacity="1.00" stroke="None">
<path d="
M 102.00 273.00 
C 103.95 271.64 104.01 257.41 102.00 256.00
C 102.00 261.67 102.00 267.33 102.00 273.00 Z"/>
</g>
<g fill="#872E12" fill-opacity="1.00" stroke="None">
<path d="
M 120.00 273.00 
C 120.00 267.33 120.00 261.67 120.00 256.00
C 118.05 257.36 117.99 271.59 120.00 273.00 Z"/>
</g>
<g fill="#FE5721" fill-opacity="1.00" stroke="None">
<path d="
M 120.00 273.00 
C 124.43 276.10 135.34 271.84 141.00 273.00 C 146.66 274.16 156.00 273.00 162.00 273.00
C 162.00 267.33 162.00 261.67 162.00 256.00
C 156.00 256.00 146.66 254.84 141.00 256.00 C 135.34 257.16 124.43 252.90 120.00 256.00
C 120.00 261.67 120.00 267.33 120.00 273.00 Z"/>
</g>
<g fill="#D84315" fill-opacity="1.00" stroke="None">
<path d="
M 162.00 273.00 
C 167.67 273.00 173.33 273.00 179.00 273.00
C 179.00 267.33 179.00 261.67 179.00 256.00
C 173.33 256.00 167.67 256.00 162.00 256.00
C 162.00 261.67 162.00 267.33 162.00 273.00 Z"/>
</g>
<g fill="#FD9700" fill-opacity="1.00" stroke="None">
<path d="
M 316.00 256.00 
C 276.00 256.00 236.00 256.00 196.00 256.00
C 196.00 261.67 196.00 267.33 196.00 273.00
C 236.00 273.00 276.00 273.00 316.00 273.00
C 316.00 267.33 316.00 261.67 316.00 256.00 Z"/>
</g>
<g fill="#FE5621" fill-opacity="1.00" stroke="None">
<path d="
M 376.00 273.00 
C 376.00 267.33 376.00 261.67 376.00 256.00
C 361.67 256.00 347.33 256.00 333.00 256.00
C 333.00 261.67 333.00 267.33 333.00 273.00
C 347.33 273.00 361.67 273.00 376.00 273.00 Z"/>
</g>
<g fill="#D74315" fill-opacity="1.00" stroke="None">
<path d="
M 376.00 273.00 
C 379.22 273.00 389.49 274.76 392.00 273.00
C 392.00 267.33 392.00 261.67 392.00 256.00
C 389.48 254.24 379.22 256.00 376.00 256.00
C 376.00 261.67 376.00 267.33 376.00 273.00 Z"/>
</g>
<g fill="#72240B" fill-opacity="1.00" stroke="None">
<path d="
M 392.00 273.00 
C 393.95 271.64 394.01 257.41 392.00 256.00
C 392.00 261.67 392.00 267.33 392.00 273.00 Z"/>
</g>
<g fill="#655800" fill-opacity="1.00" stroke="None">
<path d="
M 410.00 273.00 
C 410.00 267.33 410.00 261.67 410.00 256.00
C 408.05 257.36 407.99 271.59 410.00 273.00 Z"/>
</g>
<g fill="#FFDB00" fill-opacity="1.00" stroke="None">
<path d="
M 410.00 273.00 
C 413.79 275.66 422.18 271.81 427.00 273.00 C 431.82 274.19 438.73 272.48 444.00 273.00 C 449.27 273.52 455.54 272.81 461.00 273.00 C 466.46 273.19 472.49 273.00 478.00 273.00
C 478.00 267.33 478.00 261.67 478.00 256.00
C 472.49 256.00 466.46 255.81 461.00 256.00 C 455.54 256.20 449.27 255.48 444.00 256.00 C 438.73 256.52 431.82 254.81 427.00 256.00 C 422.18 257.19 413.79 253.34 410.00 256.00
C 410.00 261.67 410.00 267.33 410.00 273.00 Z"/>
</g>
<g fill="#FCC007" fill-opacity="1.00" stroke="None">
<path d="
M 478.00 273.00 
C 483.67 273.00 489.33 273.00 495.00 273.00
C 495.00 267.33 495.00 261.67 495.00 256.00
C 489.33 256.00 483.67 256.00 478.00 256.00
C 478.00 261.67 478.00 267.33 478.00 273.00 Z"/>
</g>
<g fill="#FC9601" fill-opacity="1.00" stroke="None">
<path d="
M 86.00 367.00 
C 86.56 359.05 85.69 350.16 85.00 343.00
C 83.74 350.05 72.32 352.98 69.25 345.75 C 66.17 338.52 67.11 328.35 68.93 320.93 C 70.74 313.51 83.38 314.91 85.00 322.00
C 85.96 312.11 86.37 300.61 86.00 290.00
C 63.00 290.00 40.00 290.00 17.00 290.00
C 17.00 315.67 17.00 341.33 17.00 367.00
C 40.00 367.00 63.00 367.00 86.00 367.00
M 46.00 316.00 
C 57.22 319.20 52.43 354.63 39.78 349.22 C 27.13 343.81 31.69 311.92 46.00 316.00 Z"/>
</g>
<g fill="#F37B00" fill-opacity="1.00" stroke="None">
<path d="
M 85.00 322.00 
C 84.36 328.57 84.36 336.43 85.00 343.00
C 85.69 350.16 86.56 359.05 86.00 367.00
C 89.22 367.00 99.48 368.76 102.00 367.00
C 102.00 341.33 102.00 315.67 102.00 290.00
C 99.48 288.24 89.22 290.00 86.00 290.00
C 86.37 300.61 85.96 312.11 85.00 322.00 Z"/>
</g>
<g fill="#613100" fill-opacity="1.00" stroke="None">
<path d="
M 102.00 367.00 
C 105.73 364.39 102.14 352.90 103.00 348.00 C 103.86 343.10 102.95 333.33 103.00 328.00 C 103.05 322.67 103.73 312.87 103.00 308.00 C 102.27 303.13 105.63 292.54 102.00 290.00
C 102.00 315.67 102.00 341.33 102.00 367.00 Z"/>
</g>
<g fill="#824100" fill-opacity="1.00" stroke="None">
<path d="
M 120.00 367.00 
C 120.00 341.33 120.00 315.67 120.00 290.00
C 116.27 292.61 119.86 304.10 119.00 309.00 C 118.14 313.90 119.05 323.67 119.00 329.00 C 118.95 334.33 118.27 344.13 119.00 349.00 C 119.73 353.87 116.37 364.46 120.00 367.00 Z"/>
</g>
<g fill="#F37B00" fill-opacity="1.00" stroke="None">
<path d="
M 120.00 367.00 
C 139.67 367.00 159.33 367.00 179.00 367.00
C 179.00 341.33 179.00 315.67 179.00 290.00
C 172.75 290.52 165.11 289.30 159.00 290.00 C 152.89 290.70 144.60 288.66 139.00 290.00 C 133.40 291.34 124.35 286.95 120.00 290.00
C 120.00 315.67 120.00 341.33 120.00 367.00
M 156.00 307.00 
C 165.67 309.45 160.60 324.16 162.00 331.00 C 163.40 337.84 161.61 352.62 151.33 349.67 C 141.05 346.72 146.42 333.26 145.00 326.00 C 143.58 318.74 145.32 304.29 156.00 307.00 Z"/>
</g>
<g fill="#F8BD07" fill-opacity="1.00" stroke="None">
<path d="
M 316.00 290.00 
C 276.00 290.00 236.00 290.00 196.00 290.00
C 196.00 298.67 196.00 307.33 196.00 316.00
C 236.00 316.00 276.00 316.00 316.00 316.00
C 316.00 307.33 316.00 298.67 316.00 290.00 Z"/>
</g>
<g fill="#F37B00" fill-opacity="1.00" stroke="None">
<path d="
M 392.00 367.00 
C 392.00 341.33 392.00 315.67 392.00 290.00
C 372.33 290.00 352.67 290.00 333.00 290.00
C 333.00 315.67 333.00 341.33 333.00 367.00
C 339.25 366.48 346.89 367.70 353.00 367.00 C 359.11 366.30 367.40 368.34 373.00 367.00 C 378.60 365.66 387.65 370.05 392.00 367.00
M 361.00 307.00 
C 370.64 309.44 365.66 324.14 367.00 331.00 C 368.34 337.86 366.73 352.55 356.33 349.67 C 345.93 346.79 351.42 333.31 350.00 326.00 C 348.58 318.69 350.33 304.30 361.00 307.00 Z"/>
</g>
<g fill="#824100" fill-opacity="1.00" stroke="None">
<path d="
M 392.00 367.00 
C 395.73 364.39 392.14 352.90 393.00 348.00 C 393.86 343.10 392.95 333.33 393.00 328.00 C 393.05 322.67 393.73 312.87 393.00 308.00 C 392.27 303.13 395.63 292.54 392.00 290.00
C 392.00 315.67 392.00 341.33 392.00 367.00 Z"/>
</g>
<g fill="#653C00" fill-opacity="1.00" stroke="None">
<path d="
M 410.00 367.00 
C 410.01 341.67 409.99 316.33 410.00 291.00
C 410.00 290.50 410.00 290.00 410.00 290.00
C 406.40 293.46 409.81 303.72 409.00 309.00 C 408.19 314.28 409.02 323.49 409.00 329.00 C 408.98 334.51 408.25 344.05 409.00 349.00 C 409.75 353.95 406.33 364.43 410.00 367.00 Z"/>
</g>
<g fill="#F27B00" fill-opacity="1.00" stroke="None">
<path d="
M 410.00 291.00 
C 432.48 293.03 455.47 289.48 478.00 291.00
C 477.34 300.83 479.33 311.99 477.00 321.00
C 476.98 328.40 476.98 337.62 477.00 345.00
C 477.02 351.43 479.07 359.82 478.00 367.00
C 483.67 367.00 489.33 367.00 495.00 367.00
C 495.00 341.33 495.00 315.67 495.00 290.00
C 466.84 291.91 438.10 287.45 410.00 290.00
C 410.00 290.00 410.00 290.50 410.00 291.00 Z"/>
</g>
<g fill="#FD9701" fill-opacity="1.00" stroke="None">
<path d="
M 410.00 367.00 
C 413.79 369.66 422.18 365.81 427.00 367.00 C 431.82 368.19 438.73 366.48 444.00 367.00 C 449.27 367.52 455.54 366.81 461.00 367.00 C 466.46 367.20 472.49 367.00 478.00 367.00
C 479.07 359.82 477.02 351.43 477.00 345.00
C 474.48 350.44 463.71 352.25 461.75 345.25 C 459.79 338.24 460.04 328.81 461.33 321.33 C 462.62 313.85 474.41 314.72 477.00 321.00
C 479.33 311.99 477.34 300.83 478.00 291.00
C 455.47 289.48 432.48 293.03 410.00 291.00
C 409.99 316.33 410.01 341.67 410.00 367.00
M 439.00 316.00 
C 446.18 318.53 443.69 329.79 444.00 336.00 C 444.31 342.21 442.76 352.45 432.78 349.22 C 422.80 345.99 422.66 310.25 439.00 316.00 Z"/>
</g>
<g fill="#000000" fill-opacity="1.00" stroke="None">
<path d="
M 156.00 307.00 
C 145.32 304.29 143.58 318.74 145.00 326.00 C 146.42 333.26 141.05 346.72 151.33 349.67 C 161.61 352.62 163.40 337.84 162.00 331.00 C 160.60 324.16 165.67 309.45 156.00 307.00 Z"/>
</g>
<g fill="#000000" fill-opacity="1.00" stroke="None">
<path d="
M 361.00 307.00 
C 350.33 304.30 348.58 318.69 350.00 326.00 C 351.42 333.31 345.93 346.79 356.33 349.67 C 366.73 352.55 368.34 337.86 367.00 331.00 C 365.66 324.14 370.64 309.44 361.00 307.00 Z"/>
</g>
<g fill="#000000" fill-opacity="1.00" stroke="None">
<path d="
M 46.00 316.00 
C 31.69 311.92 27.13 343.81 39.78 349.22 C 52.43 354.63 57.22 319.20 46.00 316.00 Z"/>
</g>
<g fill="#000000" fill-opacity="1.00" stroke="None">
<path d="
M 85.00 343.00 
C 84.36 336.43 84.36 328.57 85.00 322.00
C 83.38 314.91 70.74 313.51 68.93 320.93 C 67.11 328.35 66.17 338.52 69.25 345.75 C 72.32 352.98 83.74 350.05 85.00 343.00 Z"/>
</g>
<g fill="#000000" fill-opacity="1.00" stroke="None">
<path d="
M 439.00 316.00 
C 422.66 310.25 422.80 345.99 432.78 349.22 C 442.76 352.45 444.31 342.21 444.00 336.00 C 443.69 329.79 446.18 318.53 439.00 316.00 Z"/>
</g>
<g fill="#000000" fill-opacity="1.00" stroke="None">
<path d="
M 477.00 345.00 
C 476.98 337.62 476.98 328.40 477.00 321.00
C 474.41 314.72 462.62 313.85 461.33 321.33 C 460.04 328.81 459.79 338.24 461.75 345.25 C 463.71 352.25 474.48 350.44 477.00 345.00 Z"/>
</g>
<g fill="#763D21" fill-opacity="1.00" stroke="None">
<path d="
M 316.00 333.00 
C 276.00 333.00 236.00 333.00 196.00 333.00
C 196.00 387.00 196.00 441.00 196.00 495.00
C 201.67 495.00 207.33 495.00 213.00 495.00
C 212.09 471.27 214.21 444.42 213.00 421.00 C 211.79 397.58 219.77 384.91 233.75 367.75 C 247.73 350.59 264.85 351.24 278.75 368.25 C 292.66 385.25 300.30 398.85 299.00 422.00 C 297.70 445.15 299.97 471.55 299.00 495.00
C 304.67 495.00 310.33 495.00 316.00 495.00
C 316.00 441.00 316.00 387.00 316.00 333.00 Z"/>
</g>
<g fill="#EF7900" fill-opacity="1.00" stroke="None">
<path d="
M 250.00 377.00 
C 249.75 381.17 256.89 383.70 257.92 388.08 C 258.94 392.46 263.02 396.46 263.33 401.67 C 263.64 406.88 265.52 413.19 265.00 419.00 C 264.48 424.81 265.44 432.13 265.00 438.00 C 264.56 443.87 265.64 451.39 265.00 457.00 C 264.36 462.61 266.27 471.13 265.00 476.00 C 263.73 480.87 268.08 492.12 264.00 495.00
C 270.00 495.00 276.00 495.00 282.00 495.00
C 277.16 453.28 297.92 396.10 255.00 371.00
C 253.41 372.71 251.84 375.49 250.00 377.00 Z"/>
</g>
<g fill="#FB9501" fill-opacity="1.00" stroke="None">
<path d="
M 264.00 495.00 
C 268.08 492.12 263.73 480.87 265.00 476.00 C 266.27 471.13 264.36 462.61 265.00 457.00 C 265.64 451.39 264.56 443.87 265.00 438.00 C 265.44 432.13 264.48 424.81 265.00 419.00 C 265.52 413.19 263.64 406.88 263.33 401.67 C 263.02 396.46 258.94 392.46 257.92 388.08 C 256.89 383.70 249.75 381.17 250.00 377.00
C 215.01 403.86 235.51 456.05 230.00 495.00
C 241.33 495.00 252.67 495.00 264.00 495.00 Z"/>
</g>
<g fill="#FEDB00" fill-opacity="1.00" stroke="None">
<path d="
M 85.00 401.00 
C 85.00 395.33 85.00 389.67 85.00 384.00
C 62.33 384.00 39.67 384.00 17.00 384.00
C 17.00 389.67 17.00 395.33 17.00 401.00
C 39.67 401.00 62.33 401.00 85.00 401.00 Z"/>
</g>
<g fill="#FEC107" fill-opacity="1.00" stroke="None">
<path d="
M 85.00 401.00 
C 88.42 401.00 99.33 402.87 102.00 401.00
C 102.00 395.33 102.00 389.67 102.00 384.00
C 99.33 382.13 88.42 384.00 85.00 384.00
C 85.00 389.67 85.00 395.33 85.00 401.00 Z"/>
</g>
<g fill="#654D03" fill-opacity="1.00" stroke="None">
<path d="
M 102.00 401.00 
C 103.95 399.64 104.01 385.41 102.00 384.00
C 102.00 389.67 102.00 395.33 102.00 401.00 Z"/>
</g>
<g fill="#872D11" fill-opacity="1.00" stroke="None">
<path d="
M 120.00 495.00 
C 120.00 458.00 120.00 421.00 120.00 384.00
C 115.71 387.01 120.20 400.30 119.00 406.00 C 117.80 411.70 119.37 422.61 119.00 429.00 C 118.63 435.39 118.70 444.61 119.00 451.00 C 119.30 457.39 117.92 468.32 119.00 474.00 C 120.08 479.68 115.79 492.05 120.00 495.00 Z"/>
</g>
<g fill="#FE5621" fill-opacity="1.00" stroke="None">
<path d="
M 120.00 495.00 
C 124.43 498.10 135.34 493.84 141.00 495.00 C 146.66 496.16 156.00 495.00 162.00 495.00
C 163.07 487.83 161.02 479.35 161.00 473.00
C 157.59 480.37 145.52 479.02 145.03 469.97 C 144.53 460.93 145.53 449.23 145.00 440.00 C 144.47 430.77 145.98 420.00 145.00 411.00 C 144.02 402.00 156.45 397.26 161.00 405.00
C 161.05 398.89 163.04 390.86 162.00 384.00
C 156.00 384.00 146.66 382.84 141.00 384.00 C 135.34 385.16 124.43 380.90 120.00 384.00
C 120.00 421.00 120.00 458.00 120.00 495.00 Z"/>
</g>
<g fill="#D74215" fill-opacity="1.00" stroke="None">
<path d="
M 161.00 405.00 
C 160.81 427.01 160.93 451.01 161.00 473.00
C 161.02 479.35 163.07 487.83 162.00 495.00
C 167.67 495.00 173.33 495.00 179.00 495.00
C 179.00 458.00 179.00 421.00 179.00 384.00
C 173.33 384.00 167.67 384.00 162.00 384.00
C 163.04 390.86 161.05 398.89 161.00 405.00 Z"/>
</g>
<g fill="#FD5621" fill-opacity="1.00" stroke="None">
<path d="
M 375.00 495.00 
C 378.87 492.26 374.98 482.89 376.00 478.00 C 377.02 473.11 375.54 464.64 376.00 459.00 C 376.46 453.36 375.78 445.94 376.00 440.00 C 376.22 434.06 375.90 428.11 376.00 422.00 C 376.10 415.89 375.95 409.22 376.00 403.00 C 376.05 396.78 375.96 390.25 376.00 384.00
C 361.67 384.00 347.33 384.00 333.00 384.00
C 333.00 421.00 333.00 458.00 333.00 495.00
C 347.00 495.00 361.00 495.00 375.00 495.00
M 361.00 401.00 
C 370.77 403.47 365.92 418.36 367.00 426.00 C 368.08 433.64 365.82 449.17 367.00 457.00 C 368.18 464.83 367.17 480.61 356.33 477.67 C 345.49 474.73 351.25 461.06 350.00 453.00 C 348.75 444.94 351.06 429.96 350.00 422.00 C 348.94 414.04 349.18 398.00 361.00 401.00 Z"/>
</g>
<g fill="#D74214" fill-opacity="1.00" stroke="None">
<path d="
M 375.00 495.00 
C 378.42 495.00 389.33 496.87 392.00 495.00
C 392.00 458.00 392.00 421.00 392.00 384.00
C 389.48 382.24 379.22 384.00 376.00 384.00
C 375.96 390.25 376.05 396.78 376.00 403.00 C 375.95 409.22 376.10 415.89 376.00 422.00 C 375.90 428.11 376.22 434.06 376.00 440.00 C 375.78 445.94 376.46 453.36 376.00 459.00 C 375.54 464.64 377.02 473.11 376.00 478.00 C 374.98 482.89 378.87 492.26 375.00 495.00 Z"/>
</g>
<g fill="#72230A" fill-opacity="1.00" stroke="None">
<path d="
M 392.00 495.00 
C 396.29 491.99 391.80 478.70 393.00 473.00 C 394.20 467.30 392.63 456.39 393.00 450.00 C 393.37 443.61 393.30 434.39 393.00 428.00 C 392.70 421.61 394.08 410.68 393.00 405.00 C 391.92 399.32 396.21 386.95 392.00 384.00
C 392.00 421.00 392.00 458.00 392.00 495.00 Z"/>
</g>
<g fill="#655800" fill-opacity="1.00" stroke="None">
<path d="
M 410.00 401.00 
C 410.00 395.33 410.00 389.67 410.00 384.00
C 408.05 385.36 407.99 399.59 410.00 401.00 Z"/>
</g>
<g fill="#FFDB00" fill-opacity="1.00" stroke="None">
<path d="
M 410.00 401.00 
C 413.79 403.66 422.18 399.81 427.00 401.00 C 431.82 402.19 438.73 400.48 444.00 401.00 C 449.27 401.52 455.54 400.81 461.00 401.00 C 466.46 401.19 472.49 401.00 478.00 401.00
C 478.00 395.33 478.00 389.67 478.00 384.00
C 472.49 384.00 466.46 383.81 461.00 384.00 C 455.54 384.19 449.27 383.48 444.00 384.00 C 438.73 384.52 431.82 382.81 427.00 384.00 C 422.18 385.19 413.79 381.34 410.00 384.00
C 410.00 389.67 410.00 395.33 410.00 401.00 Z"/>
</g>
<g fill="#FCC007" fill-opacity="1.00" stroke="None">
<path d="
M 478.00 401.00 
C 483.67 401.00 489.33 401.00 495.00 401.00
C 495.00 395.33 495.00 389.67 495.00 384.00
C 489.33 384.00 483.67 384.00 478.00 384.00
C 478.00 389.67 478.00 395.33 478.00 401.00 Z"/>
</g>
<g fill="#000000" fill-opacity="1.00" stroke="None">
<path d="
M 161.00 473.00 
C 160.93 451.01 160.81 427.01 161.00 405.00
C 156.45 397.26 144.02 402.00 145.00 411.00 C 145.98 420.00 144.47 430.77 145.00 440.00 C 145.53 449.23 144.53 460.93 145.03 469.97 C 145.52 479.02 157.59 480.37 161.00 473.00 Z"/>
</g>
<g fill="#000000" fill-opacity="1.00" stroke="None">
<path d="
M 361.00 401.00 
C 349.18 398.00 348.94 414.04 350.00 422.00 C 351.06 429.96 348.75 444.94 350.00 453.00 C 351.25 461.06 345.49 474.73 356.33 477.67 C 367.17 480.61 368.18 464.83 367.00 457.00 C 365.82 449.17 368.08 433.64 367.00 426.00 C 365.92 418.36 370.77 403.47 361.00 401.00 Z"/>
</g>
<g fill="#FE9701" fill-opacity="1.00" stroke="None">
<path d="
M 85.00 495.00 
C 85.00 469.33 85.00 443.67 85.00 418.00
C 62.33 418.00 39.67 418.00 17.00 418.00
C 17.00 443.67 17.00 469.33 17.00 495.00
C 39.67 495.00 62.33 495.00 85.00 495.00 Z"/>
</g>
<g fill="#F47C00" fill-opacity="1.00" stroke="None">
<path d="
M 85.00 495.00 
C 88.42 495.00 99.33 496.87 102.00 495.00
C 102.00 469.33 102.00 443.67 102.00 418.00
C 99.33 416.13 88.42 418.00 85.00 418.00
C 85.00 443.67 85.00 469.33 85.00 495.00 Z"/>
</g>
<g fill="#613100" fill-opacity="1.00" stroke="None">
<path d="
M 102.00 495.00 
C 105.73 492.39 102.14 480.90 103.00 476.00 C 103.86 471.10 102.95 461.33 103.00 456.00 C 103.05 450.67 103.73 440.87 103.00 436.00 C 102.27 431.13 105.63 420.54 102.00 418.00
C 102.00 443.67 102.00 469.33 102.00 495.00 Z"/>
</g>
<g fill="#653C00" fill-opacity="1.00" stroke="None">
<path d="
M 410.00 495.00 
C 410.01 469.67 409.99 444.33 410.00 419.00
C 410.00 418.50 410.00 418.00 410.00 418.00
C 406.40 421.46 409.81 431.72 409.00 437.00 C 408.19 442.28 409.02 451.49 409.00 457.00 C 408.98 462.51 408.25 472.05 409.00 477.00 C 409.75 481.95 406.33 492.43 410.00 495.00 Z"/>
</g>
<g fill="#F27B00" fill-opacity="1.00" stroke="None">
<path d="
M 410.00 419.00 
C 432.48 421.03 455.47 417.48 478.00 419.00
C 478.00 444.33 478.00 469.67 478.00 495.00
C 483.67 495.00 489.33 495.00 495.00 495.00
C 495.00 469.33 495.00 443.67 495.00 418.00
C 466.84 419.92 438.10 415.45 410.00 418.00
C 410.00 418.00 410.00 418.50 410.00 419.00 Z"/>
</g>
<g fill="#FE9701" fill-opacity="1.00" stroke="None">
<path d="
M 410.00 495.00 
C 413.79 497.66 422.18 493.81 427.00 495.00 C 431.82 496.19 438.73 494.48 444.00 495.00 C 449.27 495.52 455.54 494.81 461.00 495.00 C 466.46 495.20 472.49 495.00 478.00 495.00
C 478.00 469.67 478.00 444.33 478.00 419.00
C 455.47 417.48 432.48 421.03 410.00 419.00
C 409.99 444.33 410.01 469.67 410.00 495.00 Z"/>
</g>
<g fill="#000000" fill-opacity="0.28" stroke="None">
<path d="
M 0.00 512.00 
L 8.00 512.00
C 4.67 510.69 1.59 508.45 0.00 505.00
L 0.00 512.00 Z"/>
</g>
<g fill="#000000" fill-opacity="0.25" stroke="None">
<path d="
M 505.00 512.00 
L 512.00 512.00
L 512.00 505.00
C 510.30 507.88 508.05 510.43 505.00 512.00 Z"/>
</g>
</svg>